<?xml version="1.0" encoding="utf-8"?>
<!-- Generator: Adobe Illustrator 20.1.0, SVG Export Plug-In . SVG Version: 6.00 Build 0)  -->
<svg version="1.1" id="Layer_1" xmlns="http://www.w3.org/2000/svg" xmlns:xlink="http://www.w3.org/1999/xlink" x="0px" y="0px"
	 viewBox="0 0 941.1 628.6" style="enable-background:new 0 0 941.1 628.6;" xml:space="preserve">
<style type="text/css">
	.st0{fill:#050433;stroke:#FFFFFF;stroke-width:2.05;stroke-miterlimit:10;}
	.st1{fill:none;stroke:#FFFFFF;stroke-width:2.05;stroke-miterlimit:10;}
	.st2{opacity:0.69;}
	.st3{fill:#FFFFFF;stroke:#FFFFFF;stroke-width:0.26;stroke-miterlimit:10;}
	.st4{fill:#050433;stroke:#FFFFFF;stroke-width:0.26;stroke-miterlimit:10;}
	.st5{fill:none;stroke:#FCFDFF;stroke-width:2.05;stroke-miterlimit:10;}
	.st6{fill:none;stroke:#F9F9F9;stroke-width:2.05;stroke-miterlimit:10;}
	.st7{fill:none;stroke:#FFFFFF;stroke-width:3.07;stroke-miterlimit:10;}
	.st8{fill:#4A89F0;}
	.st9{fill:#FFFFFF;}
	.st10{fill:#85AD3A;}
	.st11{fill:#FFDE37;}
	.st12{fill:#FF4898;}
	.st13{fill:#EE2B34;}
	.st14{fill:#33B3A2;}
	.st15{fill:#F68332;}
	.st16{fill:none;stroke:#FFFFFF;stroke-width:1.68;stroke-miterlimit:10;}
	.st17{fill:none;stroke:#F68332;stroke-width:0.98;stroke-miterlimit:10;}
	.st18{fill:none;stroke:#F68332;stroke-miterlimit:10;}
	.st19{fill:none;stroke:#F68332;stroke-width:0.17;stroke-miterlimit:10;}
</style>
<title>Asset 2</title>
<g id="Layer_2">
	<g id="first_floor_plan">
		<g id="first_floor_map">
			<rect x="107.1" y="516.6" class="st0" width="300.8" height="72.4"/>
			<polygon class="st0" points="107.1,589 79.1,589 58.2,570.5 58.2,516.6 107.1,516.6 			"/>
			<rect x="58.2" y="470.7" class="st0" width="20" height="33.1"/>
			<polygon class="st0" points="733.4,116.2 748.2,131 711.4,167.8 688.5,144.9 677.6,134.2 652.1,108.6 415.6,107.2 415.6,67.1 
				738.3,67.1 760.5,89.2 			"/>
			<polygon class="st0" points="939.7,268.9 909.5,299 868.4,257.9 863,263.4 882.2,282.4 854.7,310.4 829.4,285.9 787.8,244.2 
				764.3,220.8 711.4,167.9 748.2,131 733.4,116.2 760.5,89.2 			"/>
			
				<rect x="643.8" y="460.2" transform="matrix(0.7071 -0.7071 0.7071 0.7071 -118.6547 651.4854)" class="st0" width="166.5" height="17.5"/>
			<polygon class="st0" points="845.7,321.4 711.4,457.9 648.7,396.1 701,343.8 678.3,321.1 678.3,290.6 694.1,290.4 710.1,306.6 
				770.9,246.3 			"/>
			<polygon class="st0" points="714.8,193 662.5,245.4 650.8,245.4 650.8,304.4 619.2,304.4 619.2,402.5 593.2,408.9 593.2,429.7 
				490.4,429.7 490.4,409.2 464.6,402.2 464.6,304.4 432.5,304.4 432.5,245.2 421.8,245.2 345.1,168.6 390.9,122.8 644.6,122.8 			
				"/>
			<polygon class="st0" points="430.2,387.8 339,479 186.3,326.6 308.7,204.2 331,182.1 352.5,203.2 366.1,216.8 407.6,258.3 
				389.8,276.2 354,311.9 363.1,320.8 392.6,290.9 408.8,290.9 407.7,320.1 385.1,342.7 			"/>
			<polyline class="st0" points="177.6,335.1 262.9,420.8 227.5,456.2 227.5,503.8 114.2,503.8 114.2,396.9 			"/>
			<rect x="81.6" y="470.7" class="st0" width="19.9" height="33.1"/>
			<rect x="78.1" y="430.8" class="st0" width="23.4" height="35.3"/>
			<rect x="58.2" y="394.6" class="st0" width="20" height="76.1"/>
			<rect x="84.3" y="387.4" class="st0" width="17.3" height="36"/>
			
				<rect x="97.5" y="321.8" transform="matrix(0.7072 -0.707 0.707 0.7072 -216.1536 176.8691)" class="st0" width="15.9" height="55.3"/>
			
				<rect x="70.5" y="349.6" transform="matrix(0.7071 -0.7071 0.7071 0.7071 -229.5126 165.1881)" class="st0" width="28.3" height="20"/>
			
				<rect x="63.6" y="295" transform="matrix(0.7071 -0.7071 0.7071 0.7071 -183.2536 161.8031)" class="st0" width="80.1" height="14.3"/>
			
				<rect x="120.2" y="316.2" transform="matrix(0.7071 -0.7071 0.7071 0.7071 -196.2101 193.4288)" class="st0" width="30.3" height="34.7"/>
			
				<rect x="97" y="358.7" transform="matrix(0.7072 -0.707 0.707 0.7072 -231.7634 182.8795)" class="st0" width="15.8" height="25.1"/>
			
				<rect x="302.3" y="105.6" transform="matrix(0.7071 -0.7071 0.7071 0.7071 10.5842 276.6752)" class="st0" width="74" height="40"/>
			
				<rect x="126.5" y="198.7" transform="matrix(0.7071 -0.7071 0.7071 0.7071 -103.0101 217.6349)" class="st0" width="169.5" height="68.9"/>
			
				<rect x="274.8" y="147.6" transform="matrix(0.7071 -0.7071 0.7071 0.7071 -31.4647 259.2424)" class="st0" width="44.9" height="40"/>
			<rect x="503.6" y="465" class="st0" width="78.4" height="30.6"/>
			<polygon class="st0" points="492,495.5 444.4,555.1 421.7,537.7 469.7,477.7 			"/>
			
				<rect x="619.6" y="474.7" transform="matrix(0.7071 -0.7071 0.7071 0.7071 -178.745 599.8894)" class="st0" width="30.2" height="82.1"/>
			<polygon class="st0" points="443.8,555.8 418.6,589 407.9,589 407.9,538.5 421.3,538.5 			"/>
			<polyline class="st0" points="503.3,465 479.2,465 470.2,477.1 493.1,495.5 503.3,495.5 			"/>
			<polyline class="st0" points="582.3,495.5 582.3,465 606.3,465 615.8,475.5 594.5,496.8 593.2,495.5 			"/>
			
				<rect x="682.2" y="227.1" transform="matrix(0.7071 -0.7071 0.7071 0.7071 34.7437 582.1232)" class="st0" width="75.8" height="44"/>
			<polygon class="st0" points="894.1,314.4 792.2,416.2 779.9,403.8 881.6,302 			"/>
			
				<rect x="143.1" y="277" transform="matrix(0.7072 -0.707 0.707 0.7072 -170.7358 195.7784)" class="st0" width="15.8" height="54"/>
			<line class="st1" x1="126.2" y1="290.4" x2="137.4" y2="279.2"/>
			<polygon class="st0" points="78.2,380.3 78.1,394.6 58.2,394.6 58.2,371.2 67.6,362.5 81.8,376.7 			"/>
			<polyline class="st0" points="235.5,503.9 235.5,460 277.7,417.8 277.7,417.8 293.8,433.9 259,468.8 259,503.9 			"/>
			<g class="st2">
				<ellipse class="st0" cx="293.2" cy="481" rx="21.5" ry="18.1"/>
				<rect x="286.4" y="498" class="st0" width="13.9" height="5.9"/>
			</g>
			<path class="st3" d="M684.6,193.5l-1.1,0.4l-0.1-0.3l1.3-0.5h0.3v5.7h-0.4L684.6,193.5z"/>
			<path class="st3" d="M687.1,198.3c-0.6-0.6-0.8-1.4-0.7-2.2l0,0c0-1.7,0.9-3.1,2.3-3.1c0.6,0,1.2,0.2,1.6,0.7l-0.3,0.3
				c-0.4-0.4-0.9-0.6-1.4-0.6c-1.1,0-1.9,1.2-1.9,2.8v0.2c0.3-0.7,1-1.1,1.8-1.1c1-0.1,1.9,0.7,2,1.7c0,0,0,0,0,0.1l0,0
				c0,1-0.9,1.9-1.9,1.9c0,0-0.1,0-0.1,0C688,198.9,687.5,198.7,687.1,198.3z M690.1,197L690.1,197c0-0.8-0.7-1.4-1.5-1.4
				c0,0-0.1,0-0.1,0c-0.8,0-1.5,0.6-1.6,1.4l0,0c0,0.8,0.7,1.5,1.5,1.4c0,0,0,0,0.1,0C689.4,198.5,690.1,197.9,690.1,197
				C690.1,197.1,690.1,197,690.1,197L690.1,197z"/>
			<path class="st3" d="M692.3,193.5l-1.1,0.4l-0.1-0.3l1.3-0.5h0.3v5.7h-0.4L692.3,193.5z"/>
			<path class="st3" d="M769.2,164.8l-1.1,0.4l-0.1-0.3l1.3-0.5h0.3v5.7h-0.4L769.2,164.8z"/>
			<path class="st3" d="M771.7,169.6c-0.6-0.6-0.8-1.4-0.7-2.2l0,0c0-1.7,0.9-3.1,2.3-3.1c0.6,0,1.2,0.2,1.6,0.7l-0.3,0.3
				c-0.4-0.4-0.9-0.6-1.4-0.6c-1.1,0-1.9,1.2-1.9,2.8v0.2c0.4-0.7,1-1.1,1.8-1.1c1-0.1,1.9,0.7,2,1.7c0,0,0,0,0,0.1l0,0
				c0,1-0.9,1.9-1.9,1.9c0,0-0.1,0-0.1,0C772.6,170.1,772.1,169.9,771.7,169.6z M774.7,168.3L774.7,168.3c0-0.8-0.7-1.4-1.5-1.4
				c0,0-0.1,0-0.1,0c-0.8,0-1.5,0.6-1.6,1.4l0,0c0,0.8,0.7,1.5,1.5,1.4c0,0,0,0,0.1,0C774,169.8,774.6,169.2,774.7,168.3
				C774.7,168.3,774.7,168.3,774.7,168.3z"/>
			<path class="st3" d="M776.1,169.2l0.3-0.3c0.4,0.5,1,0.8,1.7,0.8c0.8,0,1.5-0.6,1.5-1.3c0,0,0-0.1,0-0.1l0,0
				c0-0.8-0.7-1.4-1.4-1.4c0,0-0.1,0-0.1,0c-0.5,0-0.9,0.1-1.3,0.4l-0.3-0.2l0.2-2.8h3.2v0.4H777l-0.1,2.1c0.4-0.2,0.8-0.3,1.3-0.3
				c1-0.1,1.9,0.6,1.9,1.6c0,0,0,0.1,0,0.1l0,0c0,1-0.8,1.8-1.8,1.8c-0.1,0-0.1,0-0.2,0C777.3,170.1,776.6,169.8,776.1,169.2z"/>
			<path class="st3" d="M836.1,233.5l-1.1,0.4l-0.1-0.3l1.3-0.5h0.3v5.7h-0.4L836.1,233.5z"/>
			<path class="st3" d="M841.2,233.5h-3.3v-0.4h3.8v0.3l-2.6,5.4h-0.5L841.2,233.5z"/>
			<path class="st3" d="M845,237.4h-3l-0.1-0.3l3.2-4h0.4v4h0.9v0.4h-0.9v1.4H845V237.4z M845,237v-3.4l-2.7,3.3L845,237z"/>
			<path class="st3" d="M865.9,321.9l-1.1,0.4l-0.1-0.3l1.3-0.5h0.3v5.7h-0.4L865.9,321.9z"/>
			<path class="st3" d="M871,321.9h-3.3v-0.4h3.8v0.3l-2.6,5.4h-0.5L871,321.9z"/>
			<path class="st3" d="M873,326.7c-0.6-0.6-0.8-1.4-0.7-2.2l0,0c0-1.7,0.9-3.1,2.3-3.1c0.6,0,1.2,0.2,1.6,0.7l-0.3,0.3
				c-0.4-0.4-0.9-0.6-1.4-0.6c-1.1,0-1.9,1.2-1.9,2.8v0.2c0.4-0.7,1-1.1,1.8-1c1-0.1,1.9,0.7,2,1.7c0,0,0,0,0,0.1l0,0
				c0,1-0.9,1.9-1.9,1.9c0,0-0.1,0-0.1,0C873.9,327.3,873.4,327.1,873,326.7z M876,325.5L876,325.5c0-0.8-0.7-1.4-1.5-1.4
				c0,0-0.1,0-0.1,0c-0.8,0-1.5,0.6-1.6,1.4l0,0c0,0.8,0.7,1.5,1.5,1.4c0,0,0,0,0.1,0C875.3,327,876,326.3,876,325.5
				C876,325.5,876,325.5,876,325.5z"/>
			<path class="st3" d="M831.7,356.7l-1.1,0.4l-0.1-0.3l1.3-0.5h0.3v5.7h-0.4L831.7,356.7z"/>
			<path class="st3" d="M836.8,356.7h-3.3v-0.4h3.8v0.3l-2.6,5.4h-0.5L836.8,356.7z"/>
			<path class="st3" d="M841.6,356.7h-3.3v-0.4h3.8v0.3l-2.6,5.4H839L841.6,356.7z"/>
			<path class="st3" d="M799,389.3l-1.1,0.4l-0.1-0.3l1.3-0.5h0.3v5.7H799V389.3z"/>
			<path class="st3" d="M804.1,389.3h-3.3v-0.4h3.8v0.3l-2.6,5.4h-0.5L804.1,389.3z"/>
			<path class="st3" d="M805.4,393L805.4,393c0.1-0.7,0.6-1.3,1.3-1.4c-0.6-0.2-1-0.7-1.1-1.3l0,0c0-0.9,0.9-1.5,1.9-1.5
				s1.9,0.6,1.9,1.5l0,0c0,0.6-0.5,1.1-1.1,1.3c0.7,0.1,1.2,0.7,1.3,1.4l0,0c0,0.9-0.9,1.6-2.1,1.6S805.4,394,805.4,393z M809.2,393
				L809.2,393c0-0.7-0.8-1.2-1.7-1.2s-1.7,0.5-1.7,1.2l0,0c0,0.6,0.6,1.2,1.7,1.2S809.2,393.7,809.2,393L809.2,393z M809,390.2
				L809,390.2c0-0.6-0.7-1.1-1.5-1.1s-1.5,0.5-1.5,1.1l0,0c0.1,0.8,0.9,1.4,1.7,1.3C808.4,391.4,808.9,390.9,809,390.2L809,390.2z"
				/>
			<path class="st3" d="M747.8,441.1l-1.1,0.4l-0.1-0.3l1.3-0.5h0.3v5.7h-0.4L747.8,441.1z"/>
			<path class="st3" d="M752.9,441.1h-3.3v-0.4h3.8v0.3l-2.6,5.4h-0.5L752.9,441.1z"/>
			<path class="st3" d="M757.9,443.4v-0.2c-0.3,0.7-1,1.1-1.8,1.1c-1,0.1-1.9-0.6-2-1.6c0,0,0-0.1,0-0.1l0,0c0-1.1,0.9-1.9,1.9-1.9
				c0,0,0.1,0,0.1,0c0.5,0,1.1,0.2,1.4,0.6c0.5,0.6,0.8,1.4,0.7,2.2l0,0c0,1.8-1,3.1-2.3,3.1c-0.6,0-1.2-0.3-1.7-0.7l0.3-0.3
				c0.4,0.4,0.9,0.6,1.5,0.6C757.2,446.1,757.9,444.9,757.9,443.4z M757.8,442.4L757.8,442.4c0-0.8-0.7-1.5-1.6-1.4c0,0,0,0-0.1,0
				c-0.8,0-1.5,0.6-1.5,1.4c0,0,0,0.1,0,0.1l0,0c0,0.8,0.7,1.4,1.5,1.4c0,0,0.1,0,0.1,0C757,443.9,757.7,443.3,757.8,442.4
				C757.7,442.4,757.7,442.4,757.8,442.4L757.8,442.4z"/>
			<path class="st3" d="M486.9,475.8l-1.1,0.4l-0.1-0.3l1.3-0.5h0.3v5.7H487L486.9,475.8z"/>
			<path class="st3" d="M488.6,479.5L488.6,479.5c0.1-0.7,0.6-1.3,1.3-1.4c-0.6-0.2-1-0.7-1.1-1.3l0,0c0-0.9,0.9-1.5,1.9-1.5
				s1.9,0.6,1.9,1.5l0,0c0,0.6-0.5,1.1-1.1,1.3c0.7,0.1,1.2,0.7,1.3,1.4l0,0c0,0.9-0.9,1.6-2.1,1.6S488.6,480.5,488.6,479.5z
				 M492.4,479.5L492.4,479.5c0-0.7-0.8-1.2-1.7-1.2s-1.7,0.5-1.7,1.2l0,0c0,0.6,0.6,1.2,1.7,1.2S492.4,480.2,492.4,479.5
				L492.4,479.5z M492.2,476.8L492.2,476.8c0-0.6-0.6-1.1-1.5-1.1s-1.5,0.5-1.5,1.1l0,0c0.1,0.8,0.9,1.4,1.7,1.3
				C491.7,477.9,492.2,477.4,492.2,476.8L492.2,476.8z"/>
			<path class="st3" d="M497.5,478v-0.2c-0.3,0.7-1,1.1-1.8,1.1c-1,0.1-1.9-0.6-2-1.6c0,0,0-0.1,0-0.1l0,0c0-1.1,0.9-1.9,1.9-1.9
				c0,0,0.1,0,0.1,0c0.5,0,1.1,0.2,1.4,0.6c0.6,0.6,0.8,1.4,0.8,2.2l0,0c0,1.8-1,3.1-2.3,3.1c-0.6,0-1.2-0.3-1.7-0.7l0.3-0.3
				c0.4,0.4,0.9,0.6,1.5,0.6C496.8,480.8,497.5,479.6,497.5,478z M497.4,477L497.4,477c0-0.8-0.7-1.5-1.6-1.4c0,0,0,0-0.1,0
				c-0.8,0-1.5,0.6-1.5,1.4c0,0,0,0,0,0.1l0,0c0,0.8,0.7,1.4,1.5,1.4c0,0,0.1,0,0.1,0C496.6,478.5,497.3,477.9,497.4,477L497.4,477z
				"/>
			<path class="st3" d="M194.5,561.2l-1.1,0.4l-0.1-0.3l1.3-0.5h0.3v5.7h-0.4V561.2z"/>
			<path class="st3" d="M197.2,561.2l-1.1,0.4l-0.1-0.3l1.3-0.5h0.3v5.7h-0.4V561.2z"/>
			<path class="st3" d="M198.9,566.2l2.1-1.9c0.9-0.8,1.3-1.3,1.3-1.9c0-0.7-0.6-1.2-1.2-1.2c0,0,0,0,0,0c-0.7,0-1.3,0.4-1.7,1
				L199,562c0.4-0.8,1.2-1.2,2-1.2c0.9-0.1,1.6,0.6,1.7,1.5c0,0,0,0,0,0.1l0,0c0,0.8-0.4,1.3-1.4,2.2l-1.7,1.6h3.2v0.4h-3.9
				L198.9,566.2z"/>
			<path class="st3" d="M133.6,561.4l-1.1,0.4l-0.1-0.3l1.3-0.5h0.3v5.7h-0.4L133.6,561.4z"/>
			<path class="st3" d="M136.3,561.4l-1.1,0.4l-0.1-0.3l1.3-0.5h0.3v5.7h-0.4V561.4z"/>
			<path class="st3" d="M138.8,566.2c-0.6-0.6-0.8-1.4-0.7-2.2l0,0c0-1.7,0.9-3.1,2.3-3.1c0.6,0,1.2,0.2,1.6,0.7l-0.3,0.3
				c-0.4-0.4-0.9-0.6-1.4-0.6c-1.1,0-1.9,1.2-1.9,2.8v0.2c0.4-0.7,1-1.1,1.8-1c1-0.1,1.9,0.7,2,1.7c0,0,0,0,0,0.1l0,0
				c0,1-0.9,1.9-1.9,1.9c0,0-0.1,0-0.1,0C139.8,566.8,139.2,566.6,138.8,566.2z M141.8,564.9L141.8,564.9c0-0.8-0.7-1.4-1.5-1.4
				c0,0-0.1,0-0.1,0c-0.8,0-1.5,0.6-1.6,1.4l0,0c0,0.8,0.7,1.5,1.5,1.4c0,0,0,0,0.1,0C141.1,566.5,141.8,565.8,141.8,564.9
				C141.8,565,141.8,565,141.8,564.9L141.8,564.9z"/>
			<path class="st3" d="M82.2,561.2l-1.1,0.4l-0.1-0.3l1.3-0.5h0.3v5.7h-0.4L82.2,561.2z"/>
			<path class="st3" d="M85,561.2l-1.1,0.4l-0.1-0.3l1.3-0.5h0.3v5.7H85V561.2z"/>
			<path class="st3" d="M86.7,565L86.7,565c0.1-0.7,0.6-1.3,1.3-1.4c-0.6-0.2-1-0.7-1.1-1.3l0,0c0-0.9,0.9-1.5,1.9-1.5
				s1.9,0.6,1.9,1.5l0,0c0,0.6-0.5,1.1-1.1,1.3c0.7,0.1,1.2,0.7,1.3,1.4l0,0c0,0.9-0.9,1.6-2.1,1.6S86.7,565.9,86.7,565z M90.4,565
				L90.4,565c0-0.7-0.8-1.2-1.7-1.2s-1.7,0.5-1.7,1.2l0,0c0,0.6,0.6,1.2,1.7,1.2S90.4,565.6,90.4,565z M90.3,562.2L90.3,562.2
				c0-0.6-0.7-1.1-1.5-1.1s-1.5,0.5-1.5,1.1l0,0c0,0.7,0.7,1.2,1.5,1.2S90.3,562.9,90.3,562.2z"/>
			<path class="st3" d="M213,486.1l-1.1,0.4l-0.1-0.3l1.3-0.5h0.3v5.7H213V486.1z"/>
			<path class="st3" d="M215.7,486.1l-1.1,0.4l-0.1-0.3l1.3-0.5h0.3v5.7h-0.4L215.7,486.1z"/>
			<path class="st3" d="M218.4,486.1l-1.1,0.4l-0.1-0.3l1.3-0.5h0.3v5.7h-0.4V486.1z"/>
			<path class="st3" d="M131.5,429.8l-1.1,0.4l-0.1-0.3l1.3-0.5h0.3v5.7h-0.4V429.8z"/>
			<path class="st3" d="M133.2,434.7l2.1-1.9c0.9-0.9,1.3-1.3,1.3-1.9c0-0.7-0.6-1.2-1.2-1.2c0,0,0,0,0,0c-0.7,0-1.3,0.4-1.7,1
				l-0.3-0.2c0.4-0.8,1.2-1.2,2-1.2c0.9-0.1,1.6,0.6,1.7,1.5c0,0,0,0,0,0.1l0,0c0,0.8-0.4,1.3-1.4,2.2l-1.7,1.6h3.2v0.4h-3.9
				L133.2,434.7z"/>
			<path class="st3" d="M140.9,433.6h-3.1l-0.1-0.3l3.2-4h0.4v4h0.9v0.4h-0.9v1.3h-0.4L140.9,433.6z M140.9,433.3v-3.4l-2.7,3.4
				H140.9z"/>
			<path class="st3" d="M155.3,373.8l-1.1,0.4l-0.1-0.3l1.3-0.5h0.3v5.7h-0.4V373.8z"/>
			<path class="st3" d="M160.2,377.7h-3.1l-0.1-0.3l3.2-4h0.4v4h0.9v0.4h-0.9v1.4h-0.4L160.2,377.7z M160.2,377.3V374l-2.7,3.4
				L160.2,377.3z"/>
			<path class="st3" d="M162.3,378.8l2.1-1.9c0.9-0.9,1.3-1.3,1.3-1.9c0-0.7-0.6-1.2-1.2-1.2c0,0,0,0,0,0c-0.7,0-1.3,0.4-1.7,1
				l-0.3-0.2c0.4-0.8,1.2-1.2,2-1.2c0.9-0.1,1.6,0.6,1.7,1.5c0,0,0,0,0,0.1l0,0c0,0.8-0.4,1.3-1.4,2.2l-1.7,1.6h3.2v0.4h-3.9V378.8z
				"/>
			<path class="st3" d="M187.4,396.4l-1.1,0.4l-0.1-0.3l1.3-0.5h0.3v5.7h-0.4V396.4z"/>
			<path class="st3" d="M192.2,400.3h-3.1L189,400l3.2-4h0.4v4h0.9v0.4h-0.9v1.4h-0.4L192.2,400.3z M192.2,400v-3.4l-2.7,3.4H192.2z
				"/>
			<path class="st3" d="M194.5,400.8l0.3-0.3c0.4,0.6,1.1,0.9,1.8,0.9c0.7,0.1,1.3-0.5,1.4-1.2c0,0,0,0,0,0l0,0
				c0-0.8-0.8-1.2-1.8-1.2h-0.3l-0.1-0.2l2-2.2h-3V396h3.6v0.3l-1.9,2.2c1.1,0.1,2,0.6,2,1.6l0,0c0,1-0.9,1.7-1.8,1.7c0,0,0,0,0,0
				C195.7,401.8,195,401.4,194.5,400.8z"/>
			<path class="st3" d="M191.5,247.5l-1.1,0.4l-0.1-0.3l1.3-0.5h0.3v5.7h-0.4L191.5,247.5z"/>
			<path class="st3" d="M196.4,251.4h-3.1l-0.1-0.3l3.2-4h0.4v4h0.9v0.4h-0.9v1.4h-0.4L196.4,251.4z M196.4,251v-3.4l-2.7,3.3
				L196.4,251z"/>
			<path class="st3" d="M201.7,251.4h-3.1l-0.1-0.3l3.2-4h0.4v4h0.9v0.4h-0.9v1.4h-0.4L201.7,251.4z M201.7,251v-3.4L199,251
				L201.7,251z"/>
			<path class="st3" d="M250,187.9l-1.1,0.4l-0.1-0.3l1.3-0.5h0.3v5.7H250V187.9z"/>
			<path class="st3" d="M254.9,191.8h-3.1l-0.1-0.3l3.2-4h0.4v4h0.9v0.4h-0.9v1.4h-0.4L254.9,191.8z M254.9,191.5v-3.4l-2.7,3.4
				H254.9z"/>
			<path class="st3" d="M257.9,192.7c-0.6-0.6-0.8-1.4-0.7-2.2l0,0c0-1.7,0.9-3.1,2.3-3.1c0.6,0,1.2,0.2,1.6,0.7l-0.3,0.3
				c-0.4-0.4-0.9-0.6-1.4-0.6c-1.1,0-1.9,1.2-1.9,2.8v0.2c0.4-0.7,1-1.1,1.8-1.1c1-0.1,1.9,0.7,2,1.7c0,0,0,0,0,0.1l0,0
				c0,1-0.9,1.9-1.9,1.9c0,0-0.1,0-0.1,0C258.9,193.3,258.3,193.1,257.9,192.7z M260.9,191.4L260.9,191.4c0-0.8-0.7-1.4-1.5-1.4
				c0,0-0.1,0-0.1,0c-0.8,0-1.5,0.6-1.6,1.4l0,0c0,0.8,0.7,1.5,1.5,1.4c0,0,0,0,0.1,0C260.2,192.9,260.9,192.3,260.9,191.4
				C260.9,191.5,260.9,191.5,260.9,191.4L260.9,191.4z"/>
			<path class="st3" d="M340.3,117.6l-1.1,0.4l-0.1-0.3l1.3-0.5h0.3v5.7h-0.4L340.3,117.6z"/>
			<path class="st3" d="M342,122l0.3-0.3c0.4,0.5,1,0.8,1.7,0.8c0.8,0,1.5-0.6,1.5-1.3c0,0,0-0.1,0-0.1l0,0c0-0.8-0.7-1.4-1.4-1.4
				c0,0-0.1,0-0.1,0c-0.5,0-0.9,0.1-1.3,0.4l-0.3-0.2l0.2-2.8h3.2v0.4h-2.8l-0.1,2.1c0.4-0.2,0.8-0.3,1.3-0.3c1-0.1,1.9,0.6,1.9,1.6
				c0,0,0,0.1,0,0.1l0,0c0,1-0.8,1.8-1.8,1.8c-0.1,0-0.1,0-0.2,0C343.2,122.9,342.5,122.6,342,122z"/>
			<path class="st3" d="M346.9,121.9l0.3-0.3c0.4,0.6,1.1,0.9,1.8,0.9c0.7,0.1,1.3-0.5,1.4-1.2c0,0,0,0,0,0l0,0
				c0-0.8-0.8-1.2-1.8-1.2h-0.3l-0.1-0.2l2-2.3h-3v-0.4h3.5v0.3l-1.9,2.2c1.1,0.1,2,0.6,2,1.6l0,0c0,1-0.8,1.7-1.8,1.7c0,0,0,0,0,0
				C348.2,123,347.4,122.6,346.9,121.9z"/>
			<path class="st3" d="M437.5,84.4l-1.1,0.4l-0.1-0.3l1.3-0.5h0.3v5.7h-0.4L437.5,84.4z"/>
			<path class="st3" d="M439.2,88.8l0.3-0.3c0.4,0.5,1,0.8,1.7,0.8c0.8,0.1,1.5-0.6,1.5-1.3c0,0,0,0,0,0l0,0c0-0.8-0.7-1.4-1.4-1.4
				c0,0-0.1,0-0.1,0c-0.5,0-0.9,0.1-1.3,0.4l-0.3-0.2l0.2-2.8h3.2v0.4h-2.8l-0.2,2.1c0.4-0.2,0.8-0.3,1.3-0.3c1-0.1,1.9,0.6,1.9,1.6
				c0,0,0,0.1,0,0.1l0,0c0,1-0.8,1.8-1.8,1.8c-0.1,0-0.1,0-0.2,0C440.5,89.7,439.8,89.4,439.2,88.8z"/>
			<path class="st3" d="M444.1,88.8l0.3-0.3c0.4,0.5,1,0.8,1.7,0.8c0.8,0.1,1.5-0.6,1.5-1.3c0,0,0,0,0,0l0,0c0-0.8-0.7-1.4-1.4-1.4
				c0,0-0.1,0-0.1,0c-0.5,0-0.9,0.1-1.3,0.4l-0.3-0.2l0.2-2.8h3.2v0.4H445l-0.1,2.1c0.4-0.2,0.8-0.3,1.3-0.3c1-0.1,1.9,0.6,1.9,1.6
				c0,0,0,0.1,0,0.1l0,0c0,1-0.8,1.8-1.8,1.8c-0.1,0-0.1,0-0.2,0C445.3,89.8,444.6,89.4,444.1,88.8z"/>
			<path class="st3" d="M699.1,104.6L698,105l-0.1-0.3l1.3-0.5h0.3v5.7h-0.4L699.1,104.6z"/>
			<path class="st3" d="M700.8,109.1l0.3-0.3c0.4,0.5,1,0.8,1.7,0.8c0.8,0,1.5-0.6,1.5-1.3c0,0,0-0.1,0-0.1l0,0
				c0-0.8-0.7-1.4-1.4-1.4c0,0-0.1,0-0.1,0c-0.5,0-0.9,0.1-1.3,0.4l-0.3-0.2l0.2-2.8h3.2v0.4h-2.8l-0.1,2.1c0.4-0.2,0.8-0.3,1.3-0.3
				c1-0.1,1.8,0.6,1.9,1.6c0,0,0,0.1,0,0.1l0,0c0,1-0.8,1.8-1.8,1.8c-0.1,0-0.1,0-0.2,0C702.1,109.9,701.4,109.6,700.8,109.1z"/>
			<path class="st3" d="M708.9,104.6h-3.3v-0.4h3.8v0.3l-2.6,5.4h-0.5L708.9,104.6z"/>
			<path class="st4" d="M489,617h8.4v1.8H491v3h5.7v1.8H491v3h6.5v1.8H489V617z"/>
			<path class="st4" d="M503.9,616.9h1.9l5,11.4h-2.1l-1.1-2.7h-5.4l-1.2,2.7h-2L503.9,616.9z M506.7,623.8l-2-4.5l-2,4.5H506.7z"/>
			<path class="st4" d="M511.7,626.7l1.2-1.4c1,0.9,2.2,1.5,3.6,1.5c1.2,0,2-0.6,2-1.4l0,0c0-0.8-0.5-1.2-2.6-1.7
				c-2.4-0.6-3.8-1.3-3.8-3.4l0,0c0-2,1.6-3.3,3.9-3.3c1.5,0,3,0.5,4.1,1.4l-1.1,1.5c-0.9-0.7-2-1.1-3.1-1.2c-1.2,0-1.8,0.6-1.8,1.3
				l0,0c0,0.9,0.5,1.3,2.7,1.8c2.4,0.6,3.6,1.5,3.6,3.3l0,0c0,2.1-1.7,3.4-4.1,3.4C514.7,628.5,513,627.9,511.7,626.7z"/>
			<path class="st4" d="M525.4,618.8h-3.6V617h9.2v1.8h-3.6v9.5h-2L525.4,618.8z"/>
			<path class="st4" d="M538,617h4.5c2.7,0,4.3,1.5,4.3,3.8l0,0c0,2.5-2,3.9-4.5,3.9H540v3.7h-2V617z M542.3,622.9
				c1.5,0,2.5-0.8,2.5-2l0,0c0-1.3-1-2-2.5-2H540v4.1L542.3,622.9z"/>
			<path class="st4" d="M548.8,617h2v9.5h6v1.8h-8V617z"/>
			<path class="st4" d="M562.9,616.9h1.8l5,11.4h-2.1l-1.2-2.7h-5.4l-1.2,2.7h-2L562.9,616.9z M565.8,623.8l-2-4.5l-2,4.5H565.8z"/>
			<path class="st4" d="M571.3,626.9l6.7-8.1h-6.5V617h9.1v1.5l-6.7,8.1h6.7v1.8h-9.3L571.3,626.9z"/>
			<path class="st4" d="M587.1,616.9h1.9l5,11.4h-2.1l-1.2-2.7h-5.4l-1.2,2.7h-2L587.1,616.9z M590,623.8l-2-4.5l-2,4.5H590z"/>
			<line class="st1" x1="310.9" y1="181.4" x2="283.1" y2="153.5"/>
			<line class="st5" x1="339.2" y1="153.9" x2="310.9" y2="125.6"/>
			<line class="st5" x1="470.3" y1="107.5" x2="470.3" y2="67.1"/>
			<line class="st5" x1="686.6" y1="329.4" x2="709.7" y2="306.3"/>
			<line class="st5" x1="742.4" y1="301.8" x2="728.8" y2="288.1"/>
			<line class="st5" x1="764.5" y1="280" x2="750.8" y2="266.2"/>
			<line class="st5" x1="784.3" y1="259.8" x2="700.6" y2="343.5"/>
			<line class="st5" x1="720" y1="176.5" x2="784.3" y2="112.2"/>
			<line class="st5" x1="859.3" y1="349.1" x2="846.9" y2="336.7"/>
			<line class="st5" x1="826.7" y1="381.8" x2="814.3" y2="369.4"/>
			<line class="st5" x1="771.9" y1="436.5" x2="759.5" y2="424.1"/>
			<line class="st5" x1="744.6" y1="464.1" x2="732.1" y2="451.6"/>
			<line class="st5" x1="712.3" y1="496.2" x2="699.9" y2="483.8"/>
			<line class="st5" x1="634.7" y1="537" x2="656.1" y2="515.6"/>
			<line class="st5" x1="620.6" y1="522.9" x2="642" y2="501.5"/>
			<line class="st5" x1="594.7" y1="497" x2="616.1" y2="475.6"/>
			<line class="st5" x1="582.1" y1="495.5" x2="582.1" y2="465"/>
			<line class="st5" x1="503.3" y1="495.5" x2="503.3" y2="465"/>
			<line class="st5" x1="492.2" y1="495.3" x2="470.1" y2="477.3"/>
			<line class="st5" x1="481.1" y1="509.1" x2="458.1" y2="492.2"/>
			<line class="st5" x1="470.2" y1="524.2" x2="446.9" y2="506.2"/>
			<line class="st5" x1="457.7" y1="538.5" x2="434.9" y2="521.2"/>
			<line class="st5" x1="388.3" y1="589" x2="388.3" y2="516.6"/>
			<line class="st5" x1="343.3" y1="589" x2="343.3" y2="515.5"/>
			<line class="st5" x1="256.6" y1="589" x2="256.6" y2="516.6"/>
			<line class="st5" x1="229.6" y1="589" x2="229.6" y2="516.6"/>
			<line class="st5" x1="168.4" y1="590" x2="168.4" y2="516.6"/>
			<line class="st5" x1="105.3" y1="589" x2="105.3" y2="516.6"/>
			<line class="st5" x1="227.5" y1="470.7" x2="114.2" y2="470.7"/>
			<line class="st5" x1="181.3" y1="503.8" x2="181.3" y2="470.7"/>
			<line class="st5" x1="159.3" y1="503.8" x2="159.3" y2="470.3"/>
			<line class="st5" x1="137.5" y1="503.8" x2="137.5" y2="470.3"/>
			<line class="st5" x1="101.6" y1="447.5" x2="58.2" y2="447.5"/>
			<line class="st5" x1="78.1" y1="421.4" x2="58.2" y2="421.4"/>
			<line class="st5" x1="99.1" y1="316.9" x2="88.9" y2="306.7"/>
			<line class="st5" x1="119" y1="297" x2="108.8" y2="286.8"/>
			<line class="st5" x1="124.7" y1="344.3" x2="146.1" y2="322.8"/>
			<line class="st1" x1="262.7" y1="230.4" x2="213.9" y2="181.7"/>
			<line class="st5" x1="145.6" y1="309.7" x2="156.8" y2="298.5"/>
			<line class="st1" x1="402.7" y1="325.1" x2="380.6" y2="303"/>
			<polyline class="st1" points="250.4,408.2 204.1,454.5 130.1,381.4 			"/>
			<line class="st1" x1="831.6" y1="288" x2="895.4" y2="224.3"/>
			<line class="st1" x1="926.8" y1="256" x2="896.4" y2="286.4"/>
			<polyline class="st1" points="760.7,89.5 733.5,116.7 747.7,130.9 748.3,130.3 775.3,103.3 			"/>
			<polyline class="st1" points="371.2,142.5 393,164.2 407.2,150.9 419.8,150.9 419.8,122.8 			"/>
			<polyline class="st1" points="661.3,196.6 686.3,221.6 661.3,196.6 689.8,168 			"/>
			<polyline class="st6" points="715.3,301.4 722.2,308.3 717.3,313.2 724,320 			"/>
			<line class="st5" x1="688.4" y1="520" x2="676" y2="507.6"/>
			<line class="st5" x1="562.2" y1="495.5" x2="562.2" y2="465"/>
			<line class="st5" x1="525.3" y1="495.5" x2="525.3" y2="465"/>
			<polyline class="st1" points="395.4,270.6 375.3,250.5 387.8,238.1 334.4,291.5 386.4,343.6 			"/>
			<line class="st1" x1="354.8" y1="178.2" x2="380.9" y2="152.1"/>
			<line class="st1" x1="367.4" y1="165.6" x2="357.7" y2="155.9"/>
			<line class="st1" x1="813.8" y1="353.8" x2="752" y2="292.1"/>
			<line class="st1" x1="407.9" y1="555.2" x2="388.3" y2="555.2"/>
			<polyline class="st5" points="58.2,549.4 96.2,549.4 96.2,516.6 			"/>
			<line class="st5" x1="242.1" y1="441.5" x2="229.6" y2="429.1"/>
			<polyline class="st5" points="229.1,386.9 197.2,418.8 216.7,442.2 			"/>
			<line class="st5" x1="236.4" y1="422.1" x2="211" y2="405.5"/>
			<line class="st5" x1="223.4" y1="413.2" x2="239.4" y2="397.2"/>
			<polyline class="st5" points="193.1,350.7 176.8,367.4 161,351.3 			"/>
			<polyline class="st5" points="210.6,367.9 184.5,375 154.1,405.5 			"/>
			<polyline class="st5" points="204.1,454.5 204.1,470.1 204.1,469.6 204.1,503.8 			"/>
			<line class="st5" x1="90.8" y1="368.3" x2="113.2" y2="345.8"/>
			<line class="st1" x1="264.7" y1="463.2" x2="248.2" y2="447.2"/>
			<line class="st5" x1="365.4" y1="589" x2="365.4" y2="511.5"/>
			<line class="st5" x1="80.8" y1="335.9" x2="92" y2="324.7"/>
			<line class="st5" x1="87.3" y1="343.1" x2="119" y2="374.9"/>
			<line class="st5" x1="78.1" y1="396.9" x2="58.2" y2="396.9"/>
			<polyline class="st1" points="393,164.2 432.5,203.7 432,245.2 			"/>
			<line class="st1" x1="380.3" y1="203.8" x2="406.2" y2="177.9"/>
			<line class="st1" x1="397" y1="220.5" x2="422.9" y2="194.6"/>
			<line class="st5" x1="444.1" y1="555.5" x2="421.4" y2="538.1"/>
			<polyline class="st1" points="661.3,196.6 651.4,206.4 651.4,245.4 			"/>
			<line class="st5" x1="608.4" y1="510.3" x2="629.8" y2="488.9"/>
			<polyline class="st1" points="276.2,516.6 276.2,541.3 323.2,541.3 323.2,516.6 			"/>
			<line class="st5" x1="78.1" y1="470.7" x2="58.2" y2="470.7"/>
			<line class="st1" x1="362.7" y1="263.6" x2="306" y2="206.9"/>
			<line class="st1" x1="323.7" y1="225.1" x2="349" y2="199.8"/>
			<line class="st1" x1="349.6" y1="251" x2="375" y2="225.7"/>
			<line class="st1" x1="336.7" y1="238.1" x2="362" y2="212.7"/>
			<line class="st5" x1="711.1" y1="167.6" x2="747.7" y2="130.9"/>
			<line class="st7" x1="767.6" y1="224.1" x2="831.7" y2="159.9"/>
		</g>
	</g>
	<g id="Buttons">
		<g id="blue_7">
			<circle class="st8" cx="806" cy="266.1" r="19.5"/>
			<path class="st9" d="M810,259.4h-9.8v-3h13.7v2.6l-8.8,16.9h-3.8L810,259.4z"/>
		</g>
		<g id="blue_1">
			<circle class="st8" cx="138.9" cy="527.1" r="19.5"/>
			<path class="st9" d="M137.4,520.3l-3.6,1l-0.7-2.8l5.4-1.7h2.4v20.1h-3.5L137.4,520.3z"/>
		</g>
		<g id="blue_3">
			<circle class="st8" cx="904.4" cy="290.1" r="19.5"/>
			<path class="st9" d="M897.2,296.5l2.4-2.2c1.2,1.6,3.1,2.6,5.1,2.6c1.9,0,3.4-1.2,3.4-2.9v-0.1c0-1.9-1.8-3-4.5-3H902l-0.6-2.1
				l5.2-5.6h-8.4v-3h12.9v2.6l-5.4,5.6c2.9,0.4,5.7,1.9,5.7,5.4v0.1c0,3.6-2.8,6.2-6.8,6.2C901.8,300,899,298.8,897.2,296.5z"/>
		</g>
		<g id="blue_4">
			<circle class="st8" cx="168.5" cy="446.3" r="19.5"/>
			<path class="st9" d="M169.6,450.7h-9.8l-0.6-2.4l10.8-12.8h2.9v12.4h2.8v2.8h-2.8v4.4h-3.3V450.7z M169.6,447.9v-7.7l-6.4,7.7
				H169.6z"/>
		</g>
		<g id="blue_5">
			<circle class="st8" cx="822.9" cy="207.1" r="19.5"/>
			<path class="st9" d="M815.8,213.9l2.1-2.5c1.3,1.4,3.1,2.2,5,2.3c2.3,0,3.9-1.3,3.9-3.4v-0.1c0-2-1.7-3.2-4-3.2
				c-1.2,0-2.5,0.3-3.6,0.9l-2.1-1.4l0.6-9.5h11.6v3h-8.7l-0.3,4.6c1-0.4,2-0.6,3.1-0.6c3.8,0,6.8,2,6.8,6.1v0.1
				c0,4-2.9,6.6-7.2,6.6C820.3,216.9,817.7,215.8,815.8,213.9z"/>
		</g>
		<g id="blue_8">
			<circle class="st8" cx="727.4" cy="188.4" r="19.5"/>
			<path class="st9" d="M719.9,192.9L719.9,192.9c0-2.4,1.3-3.9,3.5-4.8c-1.7-0.7-2.8-2.4-2.8-4.3v-0.1c0-3,2.9-5.2,6.8-5.2
				s6.8,2.2,6.8,5.2v0.1c0,1.9-1.1,3.6-2.8,4.3c2.1,1,3.5,2.4,3.5,4.7v0.1c0,3.5-3.2,5.6-7.4,5.6S719.9,196.2,719.9,192.9z
				 M731.4,192.7L731.4,192.7c0-1.8-1.8-3-4.1-3s-4.1,1.2-4.1,2.9v0.1c0,1.6,1.5,2.9,4.1,2.9S731.4,194.3,731.4,192.7L731.4,192.7z
				 M730.8,184.1L730.8,184.1c0-1.6-1.4-2.8-3.5-2.8s-3.5,1.2-3.5,2.7v0.1c0,1.7,1.5,2.9,3.5,2.9S730.8,185.8,730.8,184.1
				L730.8,184.1z"/>
		</g>
		<g id="blue_11_b">
			<circle class="st8" cx="685" cy="224.4" r="19.5"/>
			<path class="st9" d="M680,218l-3.5,1l-0.7-2.8l5.2-1.7h2.4v19.6H680V218z"/>
			<path class="st9" d="M691,218l-3.5,1l-0.7-2.8l5.2-1.7h2.4v19.6H691V218z"/>
		</g>
		<g id="blue_12">
			<circle class="st8" cx="466.5" cy="325.4" r="19.5"/>
			<path class="st9" d="M456.9,319.2l-3.5,1l-0.7-2.8l5.2-1.7h2.4v19.6h-3.4L456.9,319.2z"/>
			<path class="st9" d="M464.3,332.6l6.7-5.7c2.7-2.3,3.6-3.5,3.6-5.2c0-1.6-1.2-3-2.8-3c-0.1,0-0.2,0-0.3,0c-1.8,0-3,1-4.5,2.9
				l-2.4-1.9c1.9-2.6,3.7-4.1,7.2-4.1c3.8,0,6.4,2.3,6.4,5.8v0.1c0,3.1-1.6,4.7-5.1,7.5l-4,3.3h9.2v3h-14.1V332.6z"/>
		</g>
		<g id="green_2">
			<circle class="st10" cx="138.4" cy="594.8" r="19.5"/>
			<path class="st9" d="M131.4,602l6.7-5.7c2.7-2.3,3.6-3.5,3.6-5.2c0-1.6-1.2-3-2.8-3c-0.1,0-0.2,0-0.3,0c-1.8,0-3,1-4.5,2.9
				l-2.4-2c1.9-2.6,3.7-4.1,7.2-4.1c3.8,0,6.4,2.3,6.4,5.8v0.1c0,3.1-1.6,4.7-5.1,7.5l-4,3.3h9.2v3h-14.1V602z"/>
		</g>
		<g id="green_3">
			<circle class="st10" cx="231.5" cy="164.6" r="19.5"/>
			<path class="st9" d="M224.4,171.1l2.4-2.2c1.2,1.6,3.1,2.6,5.1,2.6c1.9,0,3.4-1.2,3.4-2.9v-0.1c0-1.9-1.8-3-4.5-3h-1.6l-0.6-2.1
				l5.2-5.6h-8.4v-3h12.9v2.6l-5.4,5.6c2.9,0.4,5.7,1.9,5.7,5.4v0.1c0,3.6-2.8,6.2-6.8,6.2C228.9,174.6,226.2,173.3,224.4,171.1z"/>
		</g>
		<g id="green_4">
			<circle class="st10" cx="79.4" cy="594.7" r="19.5"/>
			<path class="st9" d="M80.6,599.1h-9.8l-0.6-2.4l10.8-12.8h2.9v12.4h2.8v2.8h-2.8v4.4h-3.3V599.1z M80.6,596.3v-7.7l-6.4,7.7H80.6
				z"/>
		</g>
		<g id="yellow_4">
			<circle class="st11" cx="442.4" cy="58.7" r="19.5"/>
			<path class="st9" d="M443.6,63.1h-9.8l-0.6-2.4l10.8-12.8h2.9v12.4h2.8v2.8h-2.8v4.4h-3.3V63.1z M443.6,60.3v-7.7l-6.4,7.7H443.6
				z"/>
		</g>
		<g id="yellow_5">
			<circle class="st11" cx="171" cy="220.3" r="19.5"/>
			<path class="st9" d="M163.9,227.1l2.1-2.5c1.3,1.4,3.1,2.2,5,2.3c2.3,0,3.9-1.3,3.9-3.4v-0.1c0-2-1.7-3.2-4-3.2
				c-1.2,0-2.5,0.3-3.6,0.9l-2.1-1.4l0.6-9.5h11.6v3h-8.7l-0.3,4.6c1-0.4,2-0.6,3.1-0.6c3.8,0,6.8,2,6.8,6.1v0.1
				c0,4-2.9,6.6-7.2,6.6C168.4,230.1,165.8,229,163.9,227.1z"/>
		</g>
		<g id="yellow_6">
			<circle class="st11" cx="871.7" cy="192.6" r="19.5"/>
			<path class="st9" d="M866.5,200.6c-1.5-1.5-2.4-3.5-2.4-7.4v-0.1c0-5.9,2.8-10.6,8.3-10.6c2.2,0,4.3,0.7,5.9,2.2l-1.8,2.6
				c-1.2-1.1-2.7-1.7-4.2-1.7c-3.4,0-4.6,3.5-4.7,6.2c1.2-1.3,2.9-2,4.7-2c3.8,0,6.8,2.2,6.8,6.1v0.1c0,3.9-3.1,6.6-7.2,6.6
				C869.9,202.8,868,202.1,866.5,200.6z M875.7,196.2L875.7,196.2c0-2-1.6-3.4-4-3.4s-3.9,1.6-3.9,3.4v0.1c0,2,1.6,3.5,4,3.5
				S875.7,198.2,875.7,196.2z"/>
		</g>
		<g id="yellow_8">
			<circle class="st11" cx="428.5" cy="304.6" r="19.5"/>
			<path class="st9" d="M421.1,309.1L421.1,309.1c0-2.4,1.3-3.9,3.5-4.8c-1.7-0.7-2.8-2.4-2.8-4.3v-0.1c0-3,2.9-5.2,6.8-5.2
				s6.8,2.2,6.8,5.2v0.1c0,1.9-1.1,3.6-2.8,4.3c2.1,1,3.5,2.4,3.5,4.7v0c0,3.5-3.2,5.6-7.4,5.6S421.1,312.4,421.1,309.1z
				 M432.6,308.9L432.6,308.9c0-1.8-1.8-3-4.1-3s-4.1,1.2-4.1,2.9v0.1c0,1.6,1.5,2.9,4.1,2.9S432.6,310.5,432.6,308.9z M432,300.3
				L432,300.3c0-1.6-1.4-2.8-3.5-2.8s-3.5,1.2-3.5,2.7v0.1c0,1.7,1.5,2.9,3.5,2.9S432,302,432,300.3L432,300.3z"/>
		</g>
		<g id="pink_2">
			<circle class="st12" cx="198.4" cy="594.1" r="19.5"/>
			<path class="st9" d="M191.4,601.3l6.7-5.7c2.7-2.3,3.6-3.5,3.6-5.2c0-1.6-1.2-3-2.8-3c-0.1,0-0.2,0-0.3,0c-1.8,0-3,1-4.5,2.9
				l-2.4-1.9c1.9-2.6,3.7-4.1,7.2-4.1c3.8,0,6.4,2.3,6.4,5.8v0.1c0,3.1-1.6,4.7-5.1,7.5l-4,3.3h9.2v3h-14.1V601.3z"/>
		</g>
		<g id="pink_6">
			<circle class="st12" cx="633.6" cy="304.5" r="19.5"/>
			<path class="st9" d="M628.5,312.5c-1.5-1.5-2.4-3.5-2.4-7.4v0c0-5.9,2.8-10.6,8.3-10.6c2.2,0,4.3,0.7,5.9,2.2l-1.8,2.6
				c-1.2-1.1-2.7-1.7-4.2-1.7c-3.4,0-4.6,3.5-4.7,6.2c1.2-1.3,2.9-2,4.7-2c3.8,0,6.8,2.2,6.8,6.1v0.1c0,3.9-3.1,6.6-7.2,6.6
				C631.9,314.7,629.9,313.9,628.5,312.5z M637.7,308.1L637.7,308.1c0-2-1.6-3.5-4-3.5s-3.9,1.6-3.9,3.4v0.1c0,2,1.6,3.5,4,3.5
				S637.7,310.1,637.7,308.1z"/>
		</g>
		<g id="red_1">
			<circle class="st13" cx="230" cy="511.4" r="19.5"/>
			<path class="st9" d="M228.5,504.7l-3.6,1l-0.7-2.9l5.4-1.7h2.5v20.1h-3.5L228.5,504.7z"/>
		</g>
		<g id="red_2">
			<circle class="st13" cx="688.5" cy="58.4" r="19.5"/>
			<path class="st9" d="M681.5,65.6l6.7-5.7c2.7-2.3,3.6-3.5,3.6-5.2c0-1.6-1.2-3-2.8-3c-0.1,0-0.2,0-0.3,0c-1.8,0-3,1-4.5,2.9
				l-2.4-1.9c1.9-2.6,3.7-4.1,7.2-4.1c3.8,0,6.4,2.3,6.4,5.8v0.1c0,3.1-1.6,4.7-5.1,7.5l-4,3.3h9.2v3h-14.1V65.6z"/>
		</g>
		<g id="red_7">
			<circle class="st13" cx="735" cy="263.6" r="19.5"/>
			<path class="st9" d="M739,256.9h-9.8v-3h13.7v2.6l-8.8,16.9h-3.9L739,256.9z"/>
		</g>
		<g id="red_8_d">
			<circle class="st13" cx="802.3" cy="350.8" r="21.1"/>
			<path class="st9" d="M794.2,355.6L794.2,355.6c0-2.6,1.4-4.2,3.8-5.2c-1.9-0.8-3.1-2.7-3.1-4.7v-0.1c0-3.2,3.1-5.7,7.3-5.7
				s7.3,2.4,7.3,5.7v0.1c0,2-1.2,3.9-3.1,4.7c2.3,1.1,3.8,2.6,3.8,5.1v0.1c0,3.8-3.4,6.1-8,6.1S794.2,359.3,794.2,355.6z
				 M806.7,355.4L806.7,355.4c0-2-1.9-3.3-4.4-3.3s-4.4,1.3-4.4,3.2v0.1c0,1.7,1.6,3.2,4.4,3.2S806.7,357.2,806.7,355.4z M806,346.1
				L806,346.1c0-1.7-1.5-3.1-3.8-3.1s-3.8,1.3-3.8,2.9v0.1c0,1.8,1.6,3.1,3.8,3.1S806,347.9,806,346.1L806,346.1z"/>
		</g>
		<g id="red_8_e">
			<circle class="st13" cx="470.3" cy="444.8" r="21.1"/>
			<path class="st9" d="M462.2,449.6L462.2,449.6c0-2.6,1.4-4.2,3.8-5.2c-1.9-0.8-3.1-2.7-3.1-4.7v-0.1c0-3.2,3.1-5.7,7.3-5.7
				s7.3,2.4,7.3,5.7v0.1c0,2-1.2,3.9-3.1,4.7c2.3,1.1,3.8,2.6,3.8,5.1v0.1c0,3.8-3.4,6.1-8,6.1S462.2,453.3,462.2,449.6z
				 M474.7,449.4L474.7,449.4c0-2-1.9-3.3-4.4-3.3s-4.4,1.3-4.4,3.2v0.1c0,1.7,1.6,3.2,4.4,3.2S474.7,451.2,474.7,449.4L474.7,449.4
				z M474,440.1L474,440.1c0-1.7-1.5-3.1-3.8-3.1s-3.8,1.3-3.8,2.9v0.1c0,1.8,1.6,3.1,3.8,3.1S474,441.9,474,440.1L474,440.1z"/>
		</g>
		<g id="teal_1">
			<circle class="st14" cx="205" cy="358.6" r="19.5"/>
			<path class="st9" d="M203.5,351.9l-3.6,1l-0.7-2.9l5.4-1.7h2.4v20.1h-3.5L203.5,351.9z"/>
		</g>
		<g id="teal_3">
			<circle class="st14" cx="325.5" cy="98.6" r="19.5"/>
			<path class="st9" d="M318.4,105.1l2.4-2.2c1.2,1.6,3.1,2.6,5.1,2.6c1.9,0,3.4-1.2,3.4-2.9v-0.1c0-1.9-1.8-3-4.5-3h-1.6l-0.6-2.1
				l5.2-5.6h-8.4v-3h12.9v2.6l-5.4,5.6c2.9,0.4,5.7,1.9,5.7,5.4v0.1c0,3.6-2.8,6.2-6.8,6.2C322.9,108.6,320.2,107.3,318.4,105.1z"/>
		</g>
		<g id="teal_7">
			<circle class="st14" cx="809" cy="133.8" r="19.5"/>
			<path class="st9" d="M813,127.1h-9.8v-3h13.7v2.6l-8.8,16.9h-3.9L813,127.1z"/>
		</g>
		<g id="teal_9">
			<circle class="st14" cx="429" cy="346.6" r="19.5"/>
			<path class="st9" d="M433,347.4c-1.1,1.4-2.8,2.1-4.6,2.1c-4.1,0-6.9-2.4-6.9-6.2v-0.1c0-3.8,2.9-6.7,7.2-6.7
				c2-0.1,4,0.6,5.4,2.1c1.4,1.4,2.3,3.6,2.3,7.4v0.1c0,6.2-3.1,10.6-8.3,10.6c-2.3,0-4.5-0.8-6.2-2.3l1.9-2.6
				c1.2,1.1,2.8,1.8,4.4,1.8C431.7,353.6,432.9,350,433,347.4z M432.9,343.2L432.9,343.2c0-2.1-1.6-3.6-4.1-3.6
				c-2-0.2-3.7,1.3-3.8,3.3c0,0.1,0,0.2,0,0.3v0.1c0,2,1.6,3.5,4,3.5S432.8,345,432.9,343.2L432.9,343.2z"/>
		</g>
		<g id="samosa">
			<circle class="st15" cx="647.9" cy="367.6" r="35.2"/>
			<path class="st9" d="M643.2,368.3c-0.8-0.2-1.7-0.1-2.4,0.4c-4.6,2.5-9.2,5.3-14.4,6.1c-0.4,0-0.8,0.1-0.9,0.5s0.2,0.7,0.5,1
				l4.4,4.1c0.9,0.8,1.7,1.6,2.4,2.6c0.5,0.7,0.9,1.5,1.5,2.2c0.7,0.7,1.5,1.4,2.3,2c0.7,0.7,1.5,1.5,2.4,1.2s1.1-1.5,1.2-2.4
				c0.5-4.9,2.7-9.4,4.2-14c0.3-0.7,0.4-1.5,0.4-2.3c-0.1-0.8-0.7-1.4-1.5-1.5L643.2,368.3z"/>
			<path class="st15" d="M626,375.5c1.2,1.6,2.9,2.7,4.8,3c1.3,0.2,2.5,0.2,3.8,0c1.8-0.2,4.6-1.5,6.2-0.8c0.4,0.2,0.6-0.5,0.2-0.7
				c-1.8-0.7-3.7,0.4-5.6,0.7c-3.4,0.5-6.7,0.2-8.9-2.7C626.2,374.7,625.7,375.2,626,375.5L626,375.5z"/>
			<path class="st15" d="M638,386.7c-0.5-1.3-0.3-2.2,0.7-2.5c0.3-0.2,0.4-0.5,0.2-0.8c-0.6-1.2,0.2-1.6,1.1-2.2
				c0.3-0.2,0.4-0.5,0.2-0.8c-0.4-0.9,0.5-1.4,1.1-2c0.2-0.2,0.2-0.5,0.1-0.7c-0.4-0.6-0.2-1.4,0.3-1.9c0.2-0.2,0.2-0.5,0.1-0.7
				c0,0,2-5.9,1.6-5.6c0.6-0.4,0-1.4-0.6-1c-1,0.5-1.6,1.4-1.8,2.5c-0.1,0.7,0.4,0.9,0.2,1.7c-0.1,0.3-0.7,0.5-0.8,0.9
				c-0.2,0.6,0.2,1.2,0.1,1.7c-0.1,0.2-0.5,0.3-0.6,0.6c-0.2,0.8,0,2-0.2,2.4s-0.8,0.9-1,1.4c-0.1,0.2,0.2,0.9,0.1,1
				c-0.4,0.6-1.6,0.7-1.9,1.9c-0.1,0.3,0.4,0.8,0.4,1c0,0-0.5,0.3-0.6,0.6c-0.4,1.3-0.7,1.9,0.2,3.2c0.2,0.3,0.5,0.4,0.8,0.2
				C638.1,387.4,638.2,387,638,386.7L638,386.7z"/>
			<path class="st15" d="M640,377.1c-1.7,3-4.1,6.2-3.7,9.8l1.1-0.3c-1.4-3.3-3.4-6.6-6.4-8.6c-0.7-0.5-1.3,0.6-0.6,1
				c2.8,1.9,4.6,5.1,5.9,8.2c0.2,0.3,0.6,0.4,0.8,0.2c0.2-0.1,0.3-0.3,0.3-0.5c-0.4-3.3,2-6.4,3.5-9.2
				C641.4,377,640.4,376.4,640,377.1L640,377.1z"/>
			<path class="st9" d="M660.8,392.5c0.8,0,1.5-0.8,1.9-1.5c2.9-4.4,5.6-9,9.8-12.1c0.3-0.2,0.6-0.5,0.6-0.9s-0.5-0.5-0.8-0.6
				l-5.8-1.6c-1.1-0.3-2.2-0.7-3.3-1.2c-0.8-0.4-1.5-0.9-2.3-1.3c-1-0.3-2-0.6-3-0.8c-0.9-0.3-2-0.6-2.7,0s-0.3,1.8,0,2.7
				c1.8,4.5,2,9.5,2.8,14.4c0.1,0.8,0.3,1.5,0.8,2.2C659.3,392.5,660.1,392.8,660.8,392.5L660.8,392.5z"/>
			<path class="st15" d="M672.7,378.1c-2.1-1-4.5-1-6.5-0.1c-1.3,0.6-2.5,1.4-3.6,2.3c-1.1,0.9-2.4,2.8-3.9,2.8
				c-0.5,0-0.5,0.7,0,0.7c1.5-0.1,2.3-1.2,3.4-2.2c2.9-2.6,6.5-4.6,10.3-2.9C672.7,378.9,673.1,378.3,672.7,378.1L672.7,378.1z"/>
			<path class="st15" d="M656.8,373.8c1.1,0.9,1.2,1.8,0.5,2.6c-0.2,0.3-0.1,0.6,0.2,0.8c1.1,0.8,0.6,1.5,0,2.5
				c-0.1,0.2-0.1,0.5,0.1,0.7c0.8,0.6,0.4,1.4,0,2.3c-0.1,0.2,0,0.4,0.2,0.6c0.6,0.5,1.1,1,0.7,1.9c-0.1,0.3,0,0.5,0.3,0.7
				c-0.1,0,1,6.2,1.2,5.7c-0.3,0.7,0.7,1.3,1,0.6c0.6-1.3,0.8-1.8,0.3-3.1c-0.3-0.8-0.5-0.5-0.8-1.4c0-0.2,0.1-1.4,0-1.7
				s-0.8-0.5-0.8-0.8c-0.1-0.5,0.5-0.6,0.3-1.5c-0.1-0.4-0.6-0.7-0.7-1c-0.1-0.7,0,0.6-0.2-0.8c0,0,0.1-1.2,0.1-1.5
				c0,0.1-0.6-0.8-0.6-0.7c0.2-1.1,1-1.3,0.8-2.6c0-0.3-0.8-0.5-0.8-0.7c0,0.3,0.4-0.6,0.3-0.8c-0.3-1.3-0.4-1.9-1.7-2.7
				c-0.3-0.2-0.6-0.1-0.8,0.2C656.3,373.3,656.4,373.6,656.8,373.8L656.8,373.8z"/>
			<path class="st15" d="M659.5,383.2c0.1-3.4,0.7-7.4-1.4-10.4l-1,0.7c2.8,2.3,6.1,4.3,9.8,4.7c0.8,0.1,0.8-1.1,0-1.2
				c-3.3-0.4-6.4-2.3-8.9-4.4c-0.5-0.4-1.4,0.1-1,0.7c1.9,2.7,1.2,6.6,1.2,9.7c0,0.3,0.3,0.6,0.6,0.6
				C659.1,383.8,659.4,383.5,659.5,383.2L659.5,383.2z"/>
			<path class="st9" d="M652.2,361.9c0.7,0.5,1.6,0.6,2.4,0.3c5.2-1,10.4-2.2,15.6-1.4c0.3,0.1,0.8,0.1,1-0.2s0.1-0.7-0.1-1.1
				l-2.9-5.3c-0.6-1-1.1-2.1-1.5-3.2c-0.2-0.8-0.4-1.7-0.7-2.5c-0.5-0.9-1-1.8-1.5-2.6c-0.5-0.8-1-1.9-1.9-1.9s-1.5,1-1.9,1.9
				c-2,4.5-5.4,8.1-8.3,12c-0.5,0.6-0.9,1.3-1,2.1C651.1,360.8,651.5,361.6,652.2,361.9L652.2,361.9z"/>
			<path class="st15" d="M670.7,360.4c-0.7-2.1-2.3-3.9-4.4-4.7c-1.2-0.5-2.5-0.8-3.8-1c-1.5-0.2-4,0.2-5.2-0.9
				c-0.3-0.3-0.8,0.2-0.5,0.5c1.2,1.1,2.6,0.8,4.1,0.9c3.8,0.3,7.6,1.5,9.1,5.4C670.2,361,670.9,360.8,670.7,360.4L670.7,360.4z"/>
			<path class="st15" d="M662.8,346c0.1,1.4-0.5,2.1-1.5,2.1c-0.3,0.1-0.5,0.4-0.4,0.7c0.2,1.4-0.7,1.4-1.8,1.7
				c-0.3,0.1-0.4,0.3-0.4,0.6c0.1,1-0.8,1.3-1.7,1.6c-0.2,0.1-0.3,0.3-0.3,0.5c0.1,0.7-0.2,1.4-0.8,1.8c-0.2,0.1-0.4,0.3-0.4,0.6
				c0,1-0.9,1.3-1.5,2c-0.8,1,0.8,2.3-1.7,3c-0.3,0.1-0.5,0.4-0.4,0.7c0.1,0.3,0.4,0.5,0.7,0.4l0,0c1.1-0.2,2-0.9,2.4-1.9
				c0.3-0.8-0.1-0.9,0.5-1.6c0.4-0.6,1-0.4,1.3-1.2c0.1-0.3-0.1-0.9,0-1.1s-0.2,0-0.2,0.1c0.3-0.1,0.6-0.2,0.9-0.3
				c1.1-0.8,0.2-1.4,0.7-2.2c0.2-0.4,1.2-0.4,1.6-0.9c0.2-0.2,0.2-0.7,0.3-0.9s1.8-0.4,2.2-1.3c0.2-0.4-0.1-0.9,0.1-1.1
				s0.5-0.1,0.7-0.4c0.9-1.1,1.2-1.6,0.9-3.2C663.7,344.9,662.6,345.2,662.8,346L662.8,346z"/>
			<path class="st15" d="M657.9,354.5c2.5-2.3,5.8-4.6,6.5-8.2l-1.2-0.2c0.3,3.5,1.1,7.3,3.3,10.2c0.5,0.6,1.5,0,1-0.6
				c-2.1-2.7-2.8-6.2-3.2-9.6c-0.1-0.6-1-0.9-1.2-0.2c-0.7,3.3-3.9,5.5-6.2,7.6C656.5,354.2,657.3,355.1,657.9,354.5L657.9,354.5z"
				/>
			<path class="st9" d="M648,362c0.7-0.5,1.1-1.3,1.1-2.2c0.7-5.2,1.2-10.6,3.6-15.2c0.2-0.3,0.3-0.7,0.1-1s-0.7-0.3-1-0.2l-5.9,1.1
				c-1.1,0.2-2.3,0.4-3.5,0.4c-0.9,0-1.8-0.2-2.6-0.1c-1,0.2-2,0.4-3,0.6c-0.9,0.2-2.1,0.3-2.5,1.2s0.5,1.8,1.2,2.4
				c3.6,3.3,6,7.7,8.8,11.7c0.4,0.7,1,1.2,1.6,1.6c0.7,0.4,1.6,0.3,2.1-0.3L648,362z"/>
			<path class="st15" d="M652.4,343.9c-2.4,0-4.6,1.1-6.1,3c-0.8,0.9-1.4,2-2,3.1c-0.7,1.4-1.1,4-2.5,4.6c-0.4,0.2,0,0.8,0.4,0.6
				c1.7-0.8,2-3.4,2.8-4.9c1.5-3,3.7-5.6,7.4-5.6c0.2,0,0.3-0.2,0.3-0.4C652.6,344,652.5,343.9,652.4,343.9L652.4,343.9z"/>
			<path class="st15" d="M636.3,346.9c1.3,0.4,1.8,1.1,1.5,2.1c0,0.3,0.2,0.5,0.4,0.6c1.3,0.2,1.3,1,1.2,2.3c0,0.3,0.2,0.5,0.4,0.6
				c1,0.2,0.9,1,1,2c0,0.3,0.2,0.5,0.4,0.6c0.6,0.1,1.4,0.5,1.4,1.3c0,0.3,0.2,0.5,0.4,0.6c1.1,0.3,0.8,1.7,1.4,2.2
				c1,0.8,2.3,0.7,2.3,2.5c0,0.8,1.1,0.8,1.2,0c0.2-1.1-0.2-2.2-1.1-2.9c-0.7-0.6-1-0.6-1.4-1.4c-0.2-0.4-0.3-1-0.8-1.3
				c-0.2-0.2-1-0.1-1.1-0.2c0.5,0.6,0.2-0.9,0-1.2c-0.4-0.6-0.6-0.4-1.1-0.9c-0.7-0.7,0.3,1-0.6-0.6c-0.2-0.4,0-0.9-0.3-1.3
				c-0.2-0.2-0.7-0.4-0.8-0.6s0-0.5-0.1-1.3c0-0.5-0.1-0.9-0.5-1.3c-0.3-0.3-0.8-0.2-1.1-0.4s0.1-0.5-0.1-0.8
				c-0.9-1.2-1.2-1.6-2.8-1.8C635.5,345.7,635.5,346.9,636.3,346.9L636.3,346.9z"/>
			<path class="st15" d="M642.8,354.2c-1.4-3.1-2.6-6.9-5.7-8.7l-0.5,1.1c3.5,0.8,7.3,1.2,10.7,0c0.7-0.2,0.4-1.4-0.3-1.2
				c-3.2,1.1-6.8,0.7-10.1,0c-0.3-0.1-0.7,0.1-0.7,0.4c-0.1,0.3,0,0.5,0.3,0.7c2.9,1.6,4,5.4,5.3,8.3
				C642.1,355.5,643.1,354.9,642.8,354.2L642.8,354.2z"/>
			<path class="st9" d="M643.2,364.4c0-0.9-0.7-1.5-1.4-2c-4.2-3.2-8.6-6.3-11.4-10.7c-0.2-0.3-0.5-0.6-0.8-0.6s-0.6,0.4-0.7,0.8
				l-2,5.7c-0.4,1.1-0.8,2.2-1.4,3.2c-0.5,0.8-1,1.4-1.4,2.2c-0.4,1-0.7,1.9-1,2.9c-0.3,0.9-0.8,2-0.2,2.7s1.8,0.4,2.7,0.1
				c4.7-1.5,9.7-1.3,14.5-1.8c0.8,0,1.6-0.2,2.2-0.6C643.1,365.9,643.4,365.1,643.2,364.4L643.2,364.4z"/>
			<path class="st15" d="M629.7,351.5c-1.1,2-1.3,4.3-0.6,6.5c0.4,1.1,0.9,2.1,1.5,3.1c0.8,1.3,3,3.4,3,4.9c0,0.5,0.7,0.5,0.7,0
				c-0.1-1.9-1.5-2.9-2.6-4.4c-2-3-3.3-6.2-1.5-9.6C630.5,351.5,629.9,351.2,629.7,351.5L629.7,351.5z"/>
			<path class="st15" d="M624.3,367c1-0.9,1.9-1,2.6-0.2c0.2,0.1,0.5,0.1,0.7-0.1c0.9-1,1.5-0.6,2.5,0.1c0.2,0.1,0.5,0.1,0.7-0.1
				c0.7-0.7-0.2-1,2.2,0.1c0.2,0.1,0.5,0.1,0.7-0.1c0.4-0.6,1.2-0.8,1.8-0.6c0.3,0.2,0.6,0.1,0.8-0.2c0.3-0.5,2,0,2.7-0.1
				c1.6-0.2-0.3-2.6,3.1-0.7c0.7,0.4,1.2-0.6,0.6-1c-1.3-0.7-1.7-0.9-3.1-0.5c-1.1,0.3-2.2,0.5-3.4,0.5c-0.2,0-1,0.9-0.5,0.8
				c-0.5,0.1-1-0.7-1.7-0.5c-1,0.2-0.9,0.6-1.9,0.7c-0.5-0.1-1-0.2-1.5-0.2c0.1,0-0.9,0.5-0.7,0.6c-1-0.3-1.2-1.1-2.5-1
				c-0.3,0-0.5,0.8-0.7,0.8c0.2,0-0.6-0.5-0.8-0.5c-1.1-0.1-2.2,0.5-2.8,1.5C622.9,367.1,623.9,367.6,624.3,367L624.3,367z"/>
			<path class="st15" d="M633.8,365c-3.4-0.3-7.3-1.2-10.4,0.6l0.7,1c2.4-2.6,4.7-5.7,5.4-9.3c0.1-0.8-1-1.1-1.2-0.3
				c-0.6,3.3-2.8,6.3-5,8.7c-0.3,0.2-0.3,0.6-0.1,0.9s0.6,0.3,0.9,0.1l0,0c2.8-1.7,6.7-0.8,9.8-0.5
				C634.7,366.4,634.7,365.1,633.8,365L633.8,365z"/>
			<circle class="st16" cx="647.9" cy="367.1" r="30.5"/>
		</g>
		<g id="sweets">
			<circle class="st15" cx="402.3" cy="131" r="35.2"/>
			<rect x="389.6" y="125.3" class="st9" width="35.8" height="18.4"/>
			<path class="st9" d="M404.3,128.6c-0.1,0.1-0.3,0.3-0.3,0.4c0,0.9-0.1,1.9,0,2.8c0,0.5-0.1,0.6-0.6,0.6c-1-0.1-2.1-0.1-3.1-0.1
				c-0.6,0-1.2,0-1.9,0v-2.2h-0.3c0,0.6,0,1.1,0,1.7s-0.2,0.6-0.6,0.6c-1.4,0-2.8,0-4.1,0c-0.4,0-0.8-0.1-1.1-0.2l-0.4,10.9h-0.9
				l0.4-7.6l-0.6-0.1v-3.8c-0.4,0.1-4.7,1.5-5.2,1.6c0,0.1-3.6,1.3-4.6,1.7c-0.5,0.2-0.7-0.1-0.9-0.5l-3-6.2c-1.4-3-2.9-5.9-4.3-8.9
				c-0.3-0.9-0.5-1.7-0.5-2.6l0.2-0.1c0.1,0.2,0.2,0.4,0.4,0.6c0.7,1.5,1.4,2.9,2.2,4.4c0.6,1.1,1.2,2.2,1.8,3.3
				c1.1,2.1,14.4,2.8,14.2,2.7c0.1-0.3,0.5-2.4,0.6-3.3c0.2-1.9,0.4-3.7,0.6-5.6c0-0.6-0.3-0.7-0.9-0.5c-0.2,0-0.4,0.1-0.6,0.1
				c0-0.2,0-0.3-0.1-0.4s0-0.2,0-0.3h-0.2L389,122l-0.8-0.3c0,0-0.1,0-0.1,0.1c-1,2.1-2.2,2.1-4,1.7c-0.4-0.1-0.9-0.1-1.3,0
				c-1.7,0.5-3.3,1.1-5,1.6c-0.5,0.2-0.7,0-0.9-0.6l5.3-1.8c-0.1-0.2-0.2-0.4-0.3-0.7c0-0.2,0.1-0.4,0.3-0.6c0.1-0.1,0.3,0,0.5,0.1
				c0.7,0.4,1.5,0.8,2.1,1.1c0.2-0.2,0.4-0.4,0.6-0.6c0.1-0.1,0.3-0.4,0.3-0.4c-0.4-0.5,0-0.7,0.3-1c0.7-0.6,1.4-1,2.1-1.4
				c0.8-0.3,1.2-1.1,1-1.9c-0.4,0-0.9,0.1-1.3,0.2c-1.3,0.3-2.7,0.7-4,1.1c-0.6,0.2-1.1,0.6-1.5,1c-0.2,0.2-0.1,0.6-0.1,0.9
				c-1.9,0.6-3.7,1.2-5.6,1.8c-0.3,0-0.5,0-0.8,0V122l2.9-1c0.8-0.3,1.7-0.5,2.5-0.8c0.3-0.2,0.5-0.4,0.7-0.6c0.4-0.4,0.7-1,1.2-1.2
				c1.3-0.5,2.6-0.8,4-1.2l0.7-0.2c-0.5-0.9-1-1.7-1.5-2.4c-0.1-0.1-0.3-0.2-0.5-0.2c-1.2,0-9,0.4-7.6-0.1c4-1.3,12.5-4.2,12.7-4.3
				s1.1-0.8,1.2-0.7l-0.4,0.5c1,1.3,0.2,2.9,0.3,4.4l1,0.1l0.1,0.2c-0.2,0.1-0.4,0.3-0.5,0.2c-0.9-0.2-1.3,0.3-1.5,1.1
				c0.2,0.1,0.4,0.2,0.6,0.3c0.4,0.2,0.5,0.4,0.2,0.8s-0.1,0.6,0.2,0.8c0.3-0.3,0.6-0.6,0.9-1c0.4-0.4,0.5-1,0.4-1.6
				c-0.1-0.5,0-1,0.1-1.4c0.3-0.9,0.6-1.9,0.9-2.8c0.1-0.3,0.2-0.6,0.4-1c-0.5-0.4-0.4-0.9,0.3-1.1c2-0.7,4.1-1.3,6.1-2
				c0.4-0.2,0.9,0,1.1,0.4c0,0,0,0,0,0c1.1,1.6,2.2,3.2,3.3,4.8c0.2,0.5,0.4,1,0.6,1.5l1.5,1.4c-0.7,0.3-1.3,0.5-2,0.7
				s-1.2,0.3-1.8,0.5c-0.1,0-0.2,0.2-0.2,0.3c0.1,0.1,0.2,0.2,0.3,0.2c0.6-0.2,0.5,0.1,0.4,0.5c-0.1,0.3-0.1,0.6-0.1,0.9
				c-1,0.1-2,0.2-3,0.2c-2-0.1-4.1,0.3-6,0.9c-0.2,0.1-0.3,0.1-0.5,0.2s-0.1,0.1-0.2,0.2l3.8,5.7c-0.5,0.5-0.9,0.5-1.3-0.2
				c-1-1.7-2.1-3.3-3.2-5c-0.1-0.2-0.5-0.5-0.7-0.4c-0.2,0.2-0.4,0.4-0.4,0.7c-0.1,0.5-0.1,0.9-0.1,1.4c-0.1,0.8,0.1,1.7,0.5,2.3
				c0.6,0.7,1,1.6,1.5,2.5l-0.8,0.3l-1.3-2.1h-0.2c-0.1,1,13.2-1.2,20-3.4c-0.1,0.6-0.2,1.2-0.2,1.9c0,0.8-0.3,1-1,1.2
				s-1.5,0.5-2.2,0.8v0.2h15.7v3.3h-0.2l0-0.6h-0.1l1.1,14.9l-0.2,0.1c-0.1-0.2-0.4-0.4-0.4-0.5c-0.3-3.5-0.6-7.1-1-10.6
				c-0.1-1.3-0.2-2.5-0.4-3.9H420c-4.6,0-9.2,0-13.8,0.1C405.5,128.3,404.9,128.4,404.3,128.6L404.3,128.6z M393.3,118.5
				c2.7-0.8,5.5-1.1,8.3-0.8c-0.4-0.7-0.7-1.6-1.2-1.6c-1.6-0.2-3.3-0.2-4.9-0.2c-0.6-0.1-1.1,0-1.6,0.3c-0.3,0.3-0.3,1-0.4,1.6
				L393.3,118.5z M389,113.3c-0.3,0-0.5,0-0.6,0c-0.4,0.2-0.9,0.3-1,0.6s0.1,0.8,0.3,1.2c0.3,0.5,0.6,1,1,1.5
				c0.6,0.3,1.2,0.3,1.8,0.2l-0.5-0.2c1.5-1.1,0.4-2-0.2-2.9c-0.4-0.6-0.9-1.3-1.3-1.9l-0.1,0.1L389,113.3z M404.7,113.8l0.4-0.6
				l-0.1-0.1l-2.5,0.9c0,0.1,0.1,0.3,0.1,0.4c0.1,1.1,0.7,1.5,1.7,1.1c0.5-0.2,0.9-0.3,1.5-0.6L404.7,113.8z M402,114.4l-0.1-0.2
				l-3.5,1C399.7,115.4,401.1,115.7,402,114.4z"/>
			<path class="st9" d="M425.5,144.2c-0.3,1.3-0.6,2.5-1,3.7c-0.1,0.2-0.5,0.4-0.8,0.4c-3,0-6,0-9,0h-11.5c0.4,1,0.4,2.1,0,3.2
				c-0.3,0.7-0.8,1.2-1.5,1.6c-1.1,0.7-2.5,0.6-3.5-0.3c-1-0.8-1.5-2.1-1.1-3.3c0.1-0.4,0.2-0.7,0.3-1.2h-1.1c-1.7,0-3.4,0-5.1,0
				c-0.5,0-0.8-0.1-0.9-0.7c-0.2-1.1-0.5-2.2-0.7-3.4L425.5,144.2z M400.3,147.1c-0.9-0.1-1.9,0.2-2.4,1c-0.6,0.8-0.6,1.9,0,2.7
				c0.7,0.9,1.9,1.3,3,0.9c0.7-0.2,1.1-0.8,1.1-1.5c0.1-0.8-0.2-1.6-0.9-2.1c-0.6-0.4-1.5-0.3-1.9,0.3c-0.2,0.4-0.3,0.9-0.2,1.3
				c0.2,0.4,0.6,0.6,1,0.7c0.2,0,0.6-0.3,0.8-0.5c0.1-0.1-0.1-0.6-0.2-0.6c-0.3,0-0.6,0.1-0.9,0.2c0,0-0.1,0-0.1,0
				c0-0.6,0.3-0.9,0.8-0.7c0.6,0.1,1,0.7,0.9,1.3c0,0.6-0.4,1.1-1,1.1c-0.7,0.1-1.3-0.2-1.6-0.8c-0.4-0.7-0.3-1.5,0.2-2.1
				C399.2,147.9,399.7,147.5,400.3,147.1L400.3,147.1z"/>
			<path class="st9" d="M417.2,137.7h-2.1c0-0.2-1-0.1-1.5,0c-0.4,0-0.9,0-1.3,0c-1.4,0-1.2,0.2-1.2-1.3c0-1.2,0-2.4,0-3.7h6.1
				V137.7z"/>
			<path class="st9" d="M418.4,143.3l-0.4-5.2h2.5c0.9,0,1.9,0,2.8,0c0.2,0,0.6,0.3,0.6,0.4c0.1,1.5,0.2,3,0.4,4.6h-2.4
				C421.9,142.9,419.6,142.9,418.4,143.3z"/>
			<path class="st9" d="M410.5,137.7h-6.2c0-1,0-1.9,0-2.9c0-0.7-0.1-1.5,0.2-1.9s1.2-0.1,1.9-0.1h4.1L410.5,137.7z"/>
			<path class="st9" d="M403.7,143.1h-5.4c0-1.6,0-3.1,0-4.7c0-0.1,0.3-0.3,0.5-0.4c1.5,0,2.9,0,4.4,0c0.2,0,0.5,0.3,0.5,0.4
				C403.7,140.1,403.7,141.6,403.7,143.1z"/>
			<path class="st9" d="M397.6,143.1h-5.4c0.1-1.6,0.1-3.1,0.2-4.7c0-0.2,0.2-0.3,0.3-0.3c1.6,0,3.3,0,4.9,0L397.6,143.1z"/>
			<path class="st9" d="M398.4,137.8v-5.1h3.1c0.6,0,1.2,0,1.8,0c0.4,0,0.6,0.1,0.6,0.5c0,1.4,0,2.9,0,4.3
				C402.6,137.9,399.6,137.4,398.4,137.8z"/>
			<path class="st9" d="M423.8,137.6h-5.8c-0.1-1-0.2-1.9-0.3-2.9c0-0.4-0.1-0.9-0.2-1.3s0.2-0.8,0.7-0.8l4.7,0.1
				c0.2,0,0.3,0,0.5,0.1L423.8,137.6z"/>
			<path class="st9" d="M404.3,128.6h2.1l-0.6,2.8l-0.5-2.4L405,129l0.6,2.8h0.4l0.7-2.8c0.3,0.6,0.6,1.3,0.9,2
				c0.1,0.2,0.3,0.4,0.4,0.6c0.1-0.2,0.2-0.5,0.3-0.7c0.1-0.6,0.2-1.3,0.4-1.9l0.6,2.6h0.3l0.3-2.4h-0.1l-0.3,1.5
				c-0.1-0.5-0.1-0.8-0.2-1.1s0-0.9-0.6-0.8c-0.2,0-0.4,0.5-0.5,0.9s-0.1,0.7-0.3,1.1l-0.7-2.2h3.2c0.1,1.1,0.1,2.2,0.1,3.3
				c0,0.1-0.3,0.4-0.5,0.4c-0.9,0.1-1.8,0.1-2.7,0.1s-2-0.1-3-0.1C404.3,131.1,404.3,129.9,404.3,128.6L404.3,128.6z"/>
			<path class="st9" d="M417.1,132.4h-6.2v-3.8h2.3c1,0,2,0,3,0c0.2,0,0.6,0.2,0.6,0.3C416.9,130.1,417,131.2,417.1,132.4z
				 M413.5,130.5l-0.1-0.3c0.3,0,0.6-0.1,0.8,0c0.2,0.2,0.3,0.5,0.3,0.8c-0.1,0.3-0.5,0.6-0.7,0.6c-0.6,0.1-1.2-0.4-1.2-1
				c0-0.3,0.1-0.7,0.3-0.9c0.1-0.3,0.5-0.4,0.9-0.7c-0.8-0.1-1.5,0.3-1.8,1c-0.2,0.6,0,1.2,0.5,1.6c0.6,0.5,1.4,0.5,2.1,0.1
				c0.6-0.4,0.7-1.2,0.3-1.7c0,0,0,0,0,0c-0.3-0.5-0.9-0.7-1.4-0.4c-0.4,0.2-0.6,0.7-0.5,1.1c0.1,0.2,0.6,0.3,1,0.4
				c0.1,0,0.2-0.3,0.3-0.4c-0.1-0.1-0.3-0.2-0.5-0.3C413.8,130.3,413.7,130.4,413.5,130.5z"/>
			<path class="st9" d="M421.5,129.1l0.5,2.6h0.3l0.3-2.2h-0.1l-0.2,1.2h-0.1c0-0.4-0.1-0.9-0.2-1.3c-0.1-0.2-0.3-0.3-0.5-0.5
				c-0.2,0.2-0.4,0.3-0.5,0.5c-0.1,0.5-0.2,1.1-0.4,1.6l-0.7-2.3c0.9,0,1.6,0,2.5,0c0.2,0,0.4,0.2,0.5,0.4c0.1,1,0.2,2,0.3,2.9
				c0,0.1-0.2,0.4-0.3,0.4c-1.8,0-3.6,0-5.4,0l-0.4-3.7h2.2l-0.6,2.4h-0.1l-0.5-2.2h-0.2l0.5,2.8c1.1-0.7,0.6-2,1.2-2.8
				c0.7,0.8,0.3,2,1.3,2.7C421.1,130.8,421.3,129.9,421.5,129.1z"/>
			<path class="st9" d="M398,137.7h-5.5c0-0.2-0.1-0.3-0.1-0.5c0-1.3,0.1-2.6,0.1-3.9c0-0.4,0.1-0.6,0.6-0.5c1.3,0.1,2.7,0.1,4,0
				c0.6,0,0.8,0.1,0.8,0.7C397.9,134.8,398,136.2,398,137.7z M394.9,133.6c-1,0-1.9,0.7-1.9,1.7c0,0.1,0,0.2,0,0.3
				c0.3,1.1,1.4,1.9,2.5,1.6c0.6-0.1,1.1-0.5,1.1-1.1c0.2-0.6-0.1-1.3-0.6-1.7c-0.4-0.1-0.8-0.2-1.2-0.3L394.9,133.6z"/>
			<path class="st9" d="M389,125.3c-1.1-0.6-1.3-1.6-0.7-3.4C389.6,122.9,388.7,124.2,389,125.3z"/>
			<path class="st9" d="M416.3,127.1"/>
			<path class="st9" d="M394.4,134.1c-0.2,0.4-0.3,0.9-0.3,1.3c0.1,0.5,0.5,0.8,1,0.7c0.1,0,0.3-0.1,0.4-0.2c0.1-0.2,0.1-0.4,0-0.6
				c-0.2-0.1-0.5-0.1-0.9-0.2c0.3-0.1,0.6-0.3,0.8-0.2c0.3,0.2,0.6,0.6,0.6,0.9c-0.1,0.4-0.4,0.7-0.7,0.9c-0.6,0.2-1.3-0.2-1.5-0.8
				c0,0,0,0,0-0.1C393.4,135.2,393.8,134.4,394.4,134.1z"/>
			<polygon class="st9" points="412.4,121.6 380.5,134.9 372.4,116.7 403.2,104.3 			"/>
			<line class="st17" x1="379.6" y1="135.6" x2="417.9" y2="121.9"/>
			<line class="st18" x1="394.6" y1="131.5" x2="394.6" y2="142.5"/>
			<line class="st18" x1="397.6" y1="130.5" x2="397.6" y2="142.5"/>
			<line class="st18" x1="401.6" y1="129.5" x2="401.6" y2="142.5"/>
			<line class="st18" x1="405.6" y1="128.5" x2="405.6" y2="141.5"/>
			<line class="st18" x1="409.6" y1="126.5" x2="409.6" y2="141.5"/>
			<line class="st18" x1="412.6" y1="126.5" x2="412.6" y2="141.5"/>
			<line class="st18" x1="416.6" y1="126.5" x2="416.6" y2="141.5"/>
			<line class="st18" x1="420.6" y1="126.5" x2="420.6" y2="140.5"/>
			<line class="st18" x1="391.1" y1="139" x2="424.1" y2="139"/>
			<line class="st18" x1="390.1" y1="136" x2="424.1" y2="136"/>
			<line class="st18" x1="394.1" y1="132" x2="424.1" y2="132"/>
			<path class="st15" d="M400.1,133.8c0-0.3-0.2-0.9-0.6-0.6c-0.5,0.4,0.2,1,0.3,1.3c0,0.1,0.1,0.1,0.2,0.1c0,0,0.1-0.1,0.1-0.1
				c0.2-0.2,1-1.1,0.2-1.2c-0.3-0.1-0.8,0.5-0.5,0.7s0.3,0,0.4-0.1s0.4-0.2,0.5-0.5c0-0.1-0.1-0.3-0.2-0.3c-0.3-0.1-0.4,0.2-0.5,0.4
				h0.3c-0.2-0.3-0.7-0.9-1.1-0.5s0.4,1.1,0.7,1.5c0,0.1,0.1,0.1,0.2,0.1c0,0,0,0,0.1-0.1c0.2-0.3,1.2-1,0.9-1.5
				c-0.3-0.3-0.7-0.3-1,0c-0.1,0.1-0.1,0.1-0.1,0.2c0,0.1,0.1,0.2,0.2,0.2c0.2-0.1,0.4-0.1,0.6-0.1l-0.2-0.1c0,0.1-0.7,0.6-0.8,0.7
				h0.2c-0.1-0.2-0.3-0.4-0.3-0.6c-0.1-0.2-0.4-0.1-0.3,0.1c0.1,0.4,0.5,0.7,0.4,1.1l0.2-0.1c-0.4-0.2-0.7-0.6-0.9-1
				c-0.1-0.1-0.1-0.2,0-0.4c0.1-0.3,0.2-0.3,0.4,0c0.1,0.1,0.2,0.3,0.4,0.4l0.2-0.3c-0.2,0-0.4-0.4-0.5-0.5
				c-0.1-0.1-0.3-0.1-0.4-0.1c-0.3,0.1-0.3,0.6-0.2,0.8s0.3,0.2,0.3,0c0-0.2,0.1-0.3,0.2-0.4c0.1-0.1,0-0.2-0.1-0.2
				c-0.4-0.1-0.6,0.2-0.5,0.6c0.1,0.7,1,0.7,1.2,1.4c0,0.1,0.1,0.1,0.2,0.1c0,0,0.1-0.1,0.1-0.1c0.3-0.5,1.3-0.9,1.1-1.7
				s-0.9-0.6-1.3-0.2c-0.1,0.1-0.1,0.2,0,0.2s0.2,0.1,0.2,0l0.6,0.1c0,0.2,0.4,0.2,0.3,0c-0.1-0.6-0.6-0.6-1-0.4l0.2,0.2
				c0.2-0.3,0.5-0.2,0.7,0.2c-0.1,0.1-0.1,0.3-0.2,0.4c-0.1,0.1-0.2,0.2-0.3,0.3c-0.2,0.2-0.4,0.4-0.5,0.6h0.3
				c-0.1-0.3-0.2-0.5-0.4-0.6l-0.3-0.2c-0.1-0.1-0.2-0.1-0.3-0.2c-0.2-0.1-0.2-0.3,0-0.5l-0.1-0.2c-0.1,0.1-0.2,0.3-0.2,0.5h0.3
				c0-0.1,0-0.4,0.2-0.4s0.3,0.3,0.3,0.4c0.1,0.1,0.2,0.2,0.3,0.2c0.1,0,0.2,0,0.2-0.1c0-0.1,0-0.1,0-0.2c-0.3-0.3-1.1-1.2-1.4-0.4
				c-0.2,0.3,0.1,0.7,0.3,0.9c0.2,0.4,0.6,0.7,0.9,1c0.1,0.1,0.2,0,0.2-0.1c0.1-0.5-0.3-0.8-0.4-1.2l-0.3,0.1
				c0.1,0.3,0.2,0.5,0.4,0.8c0.1,0,0.1,0,0.2,0c0.3-0.2,0.5-0.4,0.7-0.6c0.1-0.1,0.2-0.2,0.2-0.4c0-0.1-0.1-0.1-0.2-0.1
				c-0.3,0-0.5,0-0.7,0.1l0.2,0.2l0.4-0.2c0.1,0.1,0.1,0.3,0,0.4c-0.1,0.1-0.2,0.2-0.3,0.3c-0.2,0.1-0.3,0.3-0.4,0.5h0.3
				c-0.1-0.2-0.3-0.3-0.5-0.5c-0.1-0.1-0.3-0.2-0.3-0.3c0.1-0.3,0.3-0.3,0.4-0.1c0.1,0.1,0.1,0.1,0.1,0.2c0,0.1,0.1,0.1,0.2,0.1
				c0,0,0,0,0.1-0.1c0.2-0.3-0.2-0.1-0.2,0l0.2,0.1l-0.1,0.1c-0.1,0.2-0.2,0.3-0.3,0.4h0.3c0-0.1-0.1-0.2-0.1-0.3l-0.2-0.2
				c-0.2-0.3-0.2-0.3-0.1-0.1c0,0.2,0.3,0.2,0.3,0L400.1,133.8z"/>
			<path class="st15" d="M404,133.8c0-0.3-0.2-0.9-0.6-0.6c-0.5,0.4,0.2,1,0.3,1.3c0,0.1,0.1,0.1,0.2,0.1c0,0,0.1-0.1,0.1-0.1
				c0.2-0.2,1-1.1,0.2-1.2c-0.3-0.1-0.8,0.5-0.5,0.7s0.3,0,0.4-0.1s0.4-0.2,0.5-0.5c0-0.1-0.1-0.3-0.2-0.3c-0.3-0.1-0.4,0.2-0.5,0.4
				h0.3c-0.2-0.3-0.7-0.9-1.1-0.5s0.4,1.1,0.7,1.5c0,0.1,0.1,0.1,0.2,0.1c0,0,0,0,0.1-0.1c0.2-0.3,1.2-1,0.9-1.5
				c-0.3-0.3-0.7-0.3-1,0c-0.1,0.1-0.1,0.1-0.1,0.2c0,0.1,0.1,0.2,0.2,0.2c0.2-0.1,0.4-0.1,0.6-0.1l-0.2-0.1c0,0.1-0.7,0.6-0.8,0.7
				h0.2c-0.1-0.2-0.3-0.4-0.3-0.6c-0.1-0.2-0.4-0.1-0.3,0.1c0.1,0.4,0.5,0.7,0.4,1.1l0.2-0.1c-0.4-0.2-0.7-0.6-0.9-1
				c-0.1-0.1-0.1-0.2,0-0.4c0.1-0.3,0.2-0.3,0.4,0c0.1,0.1,0.2,0.3,0.4,0.4l0.2-0.3c-0.2,0-0.4-0.4-0.5-0.5
				c-0.1-0.1-0.3-0.1-0.4-0.1c-0.3,0.1-0.3,0.6-0.2,0.8s0.3,0.2,0.3,0c0-0.2,0.1-0.3,0.2-0.4c0.1-0.1,0-0.2-0.1-0.2
				c-0.4-0.1-0.6,0.2-0.5,0.6c0.1,0.7,1,0.7,1.2,1.4c0,0.1,0.1,0.1,0.2,0.1c0,0,0.1-0.1,0.1-0.1c0.3-0.5,1.3-0.9,1.1-1.7
				s-0.9-0.6-1.3-0.2c-0.1,0.1-0.1,0.2,0,0.2s0.2,0.1,0.2,0l0.6,0.1c0,0.2,0.4,0.2,0.3,0c-0.1-0.6-0.6-0.6-1-0.4l0.2,0.2
				c0.2-0.3,0.5-0.2,0.7,0.2c-0.1,0.1-0.1,0.3-0.2,0.4c-0.1,0.1-0.2,0.2-0.3,0.3c-0.2,0.2-0.4,0.4-0.5,0.6h0.3
				c-0.1-0.3-0.2-0.5-0.4-0.6l-0.3-0.2c-0.1-0.1-0.2-0.1-0.3-0.2c-0.2-0.1-0.2-0.3,0-0.5l-0.1-0.2c-0.1,0.1-0.2,0.3-0.2,0.5h0.3
				c0-0.1,0-0.4,0.2-0.4s0.3,0.3,0.3,0.4c0.1,0.1,0.2,0.2,0.3,0.2c0.1,0,0.2,0,0.2-0.1c0-0.1,0-0.1,0-0.2c-0.3-0.3-1.1-1.2-1.4-0.4
				c-0.2,0.3,0.1,0.7,0.3,0.9c0.2,0.4,0.6,0.7,0.9,1c0.1,0.1,0.2,0,0.2-0.1c0.1-0.5-0.3-0.8-0.4-1.2l-0.3,0.1
				c0.1,0.3,0.2,0.5,0.4,0.8c0.1,0,0.1,0,0.2,0c0.3-0.2,0.5-0.4,0.7-0.6c0.1-0.1,0.2-0.2,0.2-0.4c0-0.1-0.1-0.1-0.2-0.1
				c-0.3,0-0.5,0-0.7,0.1l0.2,0.2l0.4-0.2c0.1,0.1,0.1,0.3,0,0.4c-0.1,0.1-0.2,0.2-0.3,0.3c-0.2,0.1-0.3,0.3-0.4,0.5h0.3
				c-0.1-0.2-0.3-0.3-0.5-0.5c-0.1-0.1-0.3-0.2-0.3-0.3c0.1-0.3,0.3-0.3,0.4-0.1c0.1,0.1,0.1,0.1,0.1,0.2c0,0.1,0.1,0.1,0.2,0.1
				c0,0,0,0,0.1-0.1c0.2-0.3-0.2-0.1-0.2,0l0.2,0.1l-0.1,0.1c-0.1,0.2-0.2,0.3-0.3,0.4h0.3c0-0.1-0.1-0.2-0.1-0.3l-0.2-0.2
				c-0.2-0.3-0.2-0.3-0.1-0.1c0,0.2,0.3,0.2,0.3,0L404,133.8z"/>
			<path class="st15" d="M396.2,137.7c0-0.3-0.2-0.9-0.6-0.6c-0.5,0.4,0.2,1,0.3,1.3c0,0.1,0.1,0.1,0.2,0.1c0,0,0.1-0.1,0.1-0.1
				c0.2-0.2,1-1.1,0.2-1.2c-0.3-0.1-0.8,0.5-0.5,0.7s0.3,0,0.4-0.1s0.4-0.2,0.5-0.5c0-0.1-0.1-0.3-0.2-0.3c-0.3-0.1-0.4,0.2-0.5,0.4
				h0.3c-0.2-0.3-0.7-0.9-1.1-0.5s0.4,1.1,0.7,1.5c0,0.1,0.1,0.1,0.2,0.1c0,0,0,0,0.1-0.1c0.2-0.3,1.2-1,0.9-1.5
				c-0.3-0.3-0.7-0.3-1,0c-0.1,0.1-0.1,0.1-0.1,0.2c0,0.1,0.1,0.2,0.2,0.2c0.2-0.1,0.4-0.1,0.6-0.1l-0.2-0.1c0,0.1-0.7,0.6-0.8,0.7
				h0.2c-0.1-0.2-0.3-0.4-0.3-0.6c-0.1-0.2-0.4-0.1-0.3,0.1c0.1,0.4,0.5,0.7,0.4,1.1l0.2-0.1c-0.4-0.2-0.7-0.6-0.9-1
				c-0.1-0.1-0.1-0.2,0-0.4c0.1-0.3,0.2-0.3,0.4,0c0.1,0.1,0.2,0.3,0.4,0.4l0.2-0.3c-0.2,0-0.4-0.4-0.5-0.5
				c-0.1-0.1-0.3-0.1-0.4-0.1c-0.3,0.1-0.3,0.6-0.2,0.8s0.3,0.2,0.3,0c0-0.2,0.1-0.3,0.2-0.4c0.1-0.1,0-0.2-0.1-0.2
				c-0.4-0.1-0.6,0.2-0.5,0.6c0.1,0.7,1,0.7,1.2,1.4c0,0.1,0.1,0.1,0.2,0.1c0,0,0.1-0.1,0.1-0.1c0.3-0.5,1.3-0.9,1.1-1.7
				s-0.9-0.6-1.3-0.2c-0.1,0.1-0.1,0.2,0,0.2s0.2,0.1,0.2,0l0.6,0.1c0,0.2,0.4,0.2,0.3,0c-0.1-0.6-0.6-0.6-1-0.4l0.2,0.2
				c0.2-0.3,0.5-0.2,0.7,0.2c-0.1,0.1-0.1,0.3-0.2,0.4c-0.1,0.1-0.2,0.2-0.3,0.3c-0.2,0.2-0.4,0.4-0.5,0.6h0.3
				c-0.1-0.3-0.2-0.5-0.4-0.6l-0.3-0.2c-0.1-0.1-0.2-0.1-0.3-0.2c-0.2-0.1-0.2-0.3,0-0.5l-0.1-0.2c-0.1,0.1-0.2,0.3-0.2,0.5h0.3
				c0-0.1,0-0.4,0.2-0.4s0.3,0.3,0.3,0.4c0.1,0.1,0.2,0.2,0.3,0.2c0.1,0,0.2,0,0.2-0.1c0-0.1,0-0.1,0-0.2c-0.3-0.3-1.1-1.2-1.4-0.4
				c-0.2,0.3,0.1,0.7,0.3,0.9c0.2,0.4,0.6,0.7,0.9,1c0.1,0.1,0.2,0,0.2-0.1c0.1-0.5-0.3-0.8-0.4-1.2l-0.3,0.1
				c0.1,0.3,0.2,0.5,0.4,0.8c0.1,0,0.1,0,0.2,0c0.3-0.2,0.5-0.4,0.7-0.6c0.1-0.1,0.2-0.2,0.2-0.4c0-0.1-0.1-0.1-0.2,0
				c-0.3,0-0.5,0-0.7,0.1l0.2,0.2l0.4-0.2c0.1,0.1,0.1,0.3,0,0.4c-0.1,0.1-0.2,0.2-0.3,0.3c-0.2,0.1-0.3,0.3-0.4,0.5h0.3
				c-0.1-0.2-0.3-0.3-0.5-0.5c-0.1-0.1-0.3-0.2-0.3-0.3c0.1-0.3,0.3-0.3,0.4-0.1c0.1,0.1,0.1,0.1,0.1,0.2c0,0.1,0.1,0.1,0.2,0.1
				c0,0,0,0,0.1-0.1c0.2-0.3-0.2-0.1-0.2,0l0.2,0.1l-0.1,0.1c-0.1,0.2-0.2,0.3-0.3,0.4h0.3c0-0.1-0.1-0.2-0.1-0.3l-0.2-0.2
				c-0.2-0.3-0.2-0.3-0.1-0.1C396,137.9,396.3,137.9,396.2,137.7L396.2,137.7z"/>
			<path class="st15" d="M374.2,127.2c6.3-3.8,13.4-5.8,20.2-8.5c3-1.2,5.9-2.9,9-3.9c2.7-0.8,5.3-0.8,7.8-2.2c1-0.5,0.1-2-0.9-1.4
				c-2.8,1.5-6.1,1.4-9.1,2.6c-3.5,1.4-6.9,3.2-10.5,4.5c-6,2.2-11.9,4.2-17.4,7.5c-0.4,0.2-0.5,0.7-0.3,1.2
				C373.3,127.3,373.8,127.5,374.2,127.2L374.2,127.2z"/>
			<path class="st15" d="M384.6,111.3c3.3,0.3,5.9,7.2,6.9,9.8c1.1,2.8,1.9,5.6,2.7,8.5c0.1,0.4,0.6,0.7,1,0.6
				c0.4-0.1,0.7-0.6,0.6-1c-1.1-4.4-2.7-8.6-4.6-12.7c-1.4-2.8-3.2-6.5-6.6-6.8C383.6,109.6,383.6,111.3,384.6,111.3L384.6,111.3z"
				/>
			<path class="st15" d="M390.6,117.3c-2.1-0.4-8.5-1.7-8.8,1.9c-0.4,4.2,6.7,0.5,8.1,0.3c1-0.1,1.1-1.7,0-1.7h-5.6v1.7
				c2.2-0.1,4.5,0.1,6.6-0.2c0.9-0.1,1.3-0.1,1.7-0.8c0.8-1.2,0.8-3.2,1.3-4.6c0-1.1,0.6-1.5,1.6-1.4l-0.5,0.8
				c-0.5,1.2-1.9,2.4-2.8,3.3l1.3,1l2.4-5.2h-1.4c0.2,0.4-2,3.1-2.3,3.5c-0.6,0.7-1.2,1.8-2.1,2.1c-0.9,0.1-1.8,0.1-2.7,0
				c-1.5,0-3.6-0.5-4.6,0.8c-0.4,0.5-0.2,1.5,0.6,1.4c0.5,0,1.1-0.1,1.6-0.2c1-0.2,0.6-1.9-0.5-1.6l-1.1,0.2l0.6,1.4
				c0.8-1.1,5-0.2,6.2-0.3c0.9,0,1.8-0.4,2.4-1.2c1.2-1.5,2.2-3,3.2-4.6c0.5-0.9,0.8-1.3,0.3-2.3c-0.2-0.4-0.7-0.5-1.1-0.3
				c-0.1,0.1-0.2,0.2-0.3,0.3l-2.4,5.2c-0.4,0.8,0.6,1.8,1.3,1c1.3-1.4,3.8-3.7,4.1-5.7c0.2-1-0.4-1.9-1.4-2.1c-0.3-0.1-0.6,0-0.9,0
				c-1.8,0.3-2.5,2.2-3,3.8s-0.4,3.4-2.3,3.8c-1.6,0.4-3.9,0.1-5.6,0.1c-0.5,0-0.8,0.4-0.8,0.8c0,0.5,0.4,0.8,0.8,0.8h5.6v-1.7
				c-1.3,0.1-2.7,0.5-3.9,1l-1.3,0.6c0-0.6,0.6-1.1,1.2-1.1c0.1,0,0.3,0,0.4,0.1c1.2-0.3,2.7,0.2,3.9,0.4S391.6,117.5,390.6,117.3
				L390.6,117.3z"/>
			
				<ellipse transform="matrix(0.7071 -0.7071 0.7071 0.7071 24.8092 327.3866)" class="st19" cx="407.6" cy="133.7" rx="1.5" ry="1.5"/>
			<path class="st15" d="M406.9,134.8c0.5,0.3,1.2,0.2,1.6-0.3c0.3-0.6,0.1-1.3-0.4-1.6c0,0,0,0,0,0c-0.4-0.3-1-0.3-1.4,0.1
				C406.3,133.5,406.4,134.3,406.9,134.8c0.2,0,0.3-0.2,0.2-0.3c-0.3-0.2-0.5-0.6-0.4-1.1c0.1-0.4,0.5-0.6,0.9-0.5
				c0.1,0,0.3,0.1,0.4,0.2c0.3,0.2,0.4,0.6,0.4,1c-0.2,0.6-0.9,0.6-1.3,0.4C406.9,134.4,406.7,134.7,406.9,134.8L406.9,134.8z"/>
			<path class="st15" d="M407,134.7c0.8,0.3,1.7-0.7,0.9-1.3s-1.6,0.2-0.9,0.9s1.5-0.5,0.7-0.8s-0.6,0.9-0.1,0.5
				c0.1-0.1,0-0.3-0.2-0.2c0.5,0.1,0.4,0.3-0.2,0.4c0.2-0.7,0.4-0.8,0.7-0.2c0.1,0.4-0.6,0.7-0.9,0.6
				C406.9,134.4,406.8,134.7,407,134.7L407,134.7z"/>
			
				<ellipse transform="matrix(0.7071 -0.7071 0.7071 0.7071 20.298 323.2227)" class="st19" cx="400.3" cy="137.1" rx="1.5" ry="1.5"/>
			<path class="st15" d="M399.6,138.1c0.5,0.3,1.2,0.2,1.6-0.3c0.3-0.6,0.1-1.3-0.4-1.6c0,0,0,0,0,0c-0.4-0.3-1-0.3-1.4,0.1
				C399,136.9,399.1,137.6,399.6,138.1c0.2,0,0.3-0.2,0.2-0.3c-0.3-0.2-0.5-0.6-0.4-1.1c0.1-0.4,0.5-0.6,0.9-0.5
				c0.1,0,0.3,0.1,0.4,0.2c0.3,0.2,0.4,0.6,0.4,1c-0.2,0.6-0.9,0.6-1.3,0.4C399.6,137.8,399.4,138,399.6,138.1L399.6,138.1z"/>
			<path class="st15" d="M399.7,138.1c0.8,0.3,1.7-0.7,0.9-1.3s-1.6,0.2-0.9,0.9s1.5-0.5,0.7-0.8s-0.6,0.9-0.1,0.5
				c0.1-0.1,0-0.3-0.2-0.2c0.5,0.1,0.4,0.3-0.2,0.4c0.2-0.7,0.4-0.8,0.7-0.2c0.1,0.4-0.6,0.7-0.9,0.6
				C399.6,137.8,399.5,138,399.7,138.1L399.7,138.1z"/>
			
				<ellipse transform="matrix(0.7071 -0.7071 0.7071 0.7071 21.2851 325.594)" class="st19" cx="403.7" cy="137.1" rx="1.5" ry="1.5"/>
			<path class="st15" d="M403,138.1c0.5,0.3,1.2,0.2,1.6-0.3c0.3-0.6,0.1-1.3-0.4-1.6c0,0,0,0,0,0c-0.4-0.3-1-0.3-1.4,0.1
				c-0.3,0.6-0.2,1.3,0.3,1.7c0.1,0.1,0.3-0.1,0.2-0.2c-0.3-0.2-0.5-0.6-0.4-1.1c0.1-0.4,0.5-0.6,0.9-0.5c0.1,0,0.3,0.1,0.4,0.2
				c0.3,0.2,0.4,0.6,0.4,1c-0.2,0.6-0.9,0.6-1.3,0.4C402.9,137.8,402.8,138,403,138.1L403,138.1z"/>
			<path class="st15" d="M403.1,138.1c0.8,0.3,1.7-0.7,0.9-1.3s-1.6,0.2-0.9,0.9s1.5-0.5,0.7-0.8s-0.6,0.9-0.1,0.5
				c0.1-0.1,0-0.3-0.2-0.2c0.5,0.1,0.4,0.3-0.2,0.4c0.2-0.7,0.4-0.8,0.7-0.2c0.1,0.4-0.6,0.7-0.9,0.6
				C403,137.8,402.9,138,403.1,138.1L403.1,138.1z"/>
			
				<ellipse transform="matrix(0.7071 -0.7071 0.7071 0.7071 22.428 328.3695)" class="st19" cx="407.6" cy="137.1" rx="1.5" ry="1.5"/>
			<path class="st15" d="M406.9,138.1c0.5,0.3,1.2,0.2,1.6-0.3c0.3-0.6,0.1-1.3-0.4-1.6c0,0,0,0,0,0c-0.4-0.3-1-0.3-1.4,0.1
				C406.3,136.9,406.4,137.6,406.9,138.1c0.2,0,0.3-0.2,0.2-0.3c-0.3-0.2-0.5-0.6-0.4-1.1c0.1-0.4,0.5-0.6,0.9-0.5
				c0.1,0,0.3,0.1,0.4,0.2c0.3,0.2,0.4,0.6,0.4,1c-0.2,0.6-0.9,0.6-1.3,0.4C406.9,137.8,406.7,138,406.9,138.1L406.9,138.1z"/>
			<path class="st15" d="M407,138.1c0.8,0.3,1.7-0.7,0.9-1.3s-1.6,0.2-0.9,0.9s1.5-0.5,0.7-0.8s-0.6,0.9-0.1,0.5
				c0.1-0.1,0-0.3-0.2-0.2c0.5,0.1,0.4,0.3-0.2,0.4c0.2-0.7,0.4-0.8,0.7-0.2c0.1,0.4-0.6,0.7-0.9,0.6
				C406.9,137.8,406.8,138,407,138.1L407,138.1z"/>
			
				<ellipse transform="matrix(0.7071 -0.7071 0.7071 0.7071 25.7892 329.7607)" class="st19" cx="411" cy="133.8" rx="1.5" ry="1.5"/>
			<path class="st15" d="M410.2,134.8c0.5,0.3,1.2,0.2,1.6-0.3c0.3-0.6,0.1-1.3-0.4-1.6c0,0,0,0,0,0c-0.4-0.3-1-0.2-1.4,0.2
				C409.6,133.6,409.8,134.3,410.2,134.8c0.2,0.1,0.4-0.1,0.2-0.2c-0.3-0.2-0.5-0.6-0.4-1.1c0.1-0.4,0.5-0.6,0.9-0.5
				c0.1,0,0.3,0.1,0.4,0.2c0.3,0.2,0.4,0.6,0.4,1c-0.2,0.6-0.9,0.6-1.3,0.4C410.2,134.5,410.1,134.7,410.2,134.8L410.2,134.8z"/>
			<path class="st15" d="M410.3,134.7c0.8,0.3,1.7-0.7,0.9-1.3s-1.6,0.2-0.9,0.9s1.5-0.5,0.7-0.8s-0.6,0.9-0.1,0.5
				c0.1-0.1,0-0.3-0.2-0.2c0.5,0.1,0.4,0.3-0.2,0.4c0.2-0.7,0.4-0.8,0.7-0.2c0.1,0.4-0.6,0.7-0.9,0.6
				C410.3,134.4,410.2,134.7,410.3,134.7L410.3,134.7z"/>
			
				<ellipse transform="matrix(0.7071 -0.7071 0.7071 0.7071 21.5293 319.4672)" class="st19" cx="396.4" cy="133.7" rx="1.5" ry="1.5"/>
			<path class="st15" d="M395.7,134.8c0.5,0.3,1.2,0.2,1.6-0.3c0.3-0.6,0.1-1.3-0.4-1.6c0,0,0,0,0,0c-0.4-0.3-1-0.3-1.4,0.1
				C395.1,133.5,395.2,134.3,395.7,134.8c0.2,0,0.3-0.2,0.2-0.3c-0.3-0.2-0.5-0.6-0.4-1.1c0.1-0.4,0.5-0.6,0.9-0.5
				c0.1,0,0.3,0.1,0.4,0.2c0.3,0.2,0.4,0.6,0.4,1c-0.2,0.6-0.9,0.6-1.3,0.4C395.7,134.4,395.5,134.7,395.7,134.8L395.7,134.8z"/>
			<path class="st15" d="M395.8,134.7c0.8,0.3,1.7-0.7,0.9-1.3s-1.6,0.2-0.9,0.9s1.5-0.5,0.7-0.8s-0.6,0.9-0.1,0.5
				c0.1-0.1,0-0.3-0.2-0.2c0.5,0.1,0.4,0.3-0.2,0.4c0.2-0.7,0.4-0.8,0.7-0.2c0.1,0.4-0.6,0.7-0.9,0.6
				C395.7,134.4,395.6,134.7,395.8,134.7L395.8,134.7z"/>
			
				<ellipse transform="matrix(0.7071 -0.7071 0.7071 0.7071 23.418 330.7478)" class="st19" cx="411" cy="137.1" rx="1.5" ry="1.5"/>
			<path class="st15" d="M410.2,138.1c0.5,0.3,1.2,0.2,1.6-0.3c0.3-0.6,0.1-1.3-0.4-1.6c0,0,0,0,0,0c-0.4-0.3-1-0.3-1.4,0.1
				C409.6,136.9,409.8,137.6,410.2,138.1c0.2,0,0.3-0.2,0.2-0.3c-0.3-0.2-0.5-0.6-0.4-1.1c0.1-0.4,0.5-0.6,0.9-0.5
				c0.1,0,0.3,0.1,0.4,0.2c0.3,0.2,0.4,0.6,0.4,1c-0.2,0.6-0.9,0.6-1.3,0.4C410.2,137.8,410.1,138,410.2,138.1L410.2,138.1z"/>
			<path class="st15" d="M410.3,138.1c0.8,0.3,1.7-0.7,0.9-1.3s-1.6,0.2-0.9,0.9s1.5-0.5,0.7-0.8s-0.6,0.9-0.1,0.5
				c0.1-0.1,0-0.3-0.2-0.2c0.5,0.1,0.4,0.3-0.2,0.4c0.2-0.7,0.4-0.8,0.7-0.2c0.1,0.4-0.6,0.7-0.9,0.6
				C410.3,137.8,410.2,138,410.3,138.1L410.3,138.1z"/>
			
				<ellipse transform="matrix(0.7071 -0.7071 0.7071 0.7071 17.9238 324.2027)" class="st19" cx="400.3" cy="140.5" rx="1.5" ry="1.5"/>
			<path class="st15" d="M399.6,141.5c0.5,0.3,1.2,0.2,1.6-0.3c0.3-0.6,0.1-1.3-0.4-1.6c0,0,0,0,0,0c-0.4-0.3-1-0.3-1.4,0.1
				C399,140.2,399.1,141,399.6,141.5c0.2,0,0.3-0.2,0.2-0.3c-0.3-0.2-0.5-0.6-0.4-1.1c0.1-0.4,0.5-0.6,0.9-0.5
				c0.1,0,0.3,0.1,0.4,0.2c0.3,0.2,0.4,0.6,0.4,1c-0.2,0.6-0.9,0.6-1.3,0.4C399.6,141.2,399.4,141.4,399.6,141.5L399.6,141.5z"/>
			<path class="st15" d="M399.7,141.4c0.8,0.3,1.7-0.7,0.9-1.3s-1.6,0.2-0.9,0.9s1.5-0.5,0.7-0.8s-0.6,0.9-0.1,0.5
				c0.1-0.1,0-0.3-0.2-0.2c0.5,0.1,0.4,0.3-0.2,0.4c0.2-0.7,0.4-0.8,0.7-0.2c0.1,0.4-0.6,0.7-0.9,0.6
				C399.6,141.1,399.5,141.4,399.7,141.4L399.7,141.4z"/>
			<path class="st15" d="M404,140.5c0-0.3-0.2-0.9-0.6-0.6c-0.5,0.4,0.2,1,0.3,1.3c0,0.1,0.1,0.1,0.2,0.1c0,0,0.1-0.1,0.1-0.1
				c0.2-0.2,1-1.1,0.2-1.2c-0.3-0.1-0.8,0.5-0.5,0.7s0.3,0,0.4-0.1s0.4-0.2,0.5-0.5c0-0.1-0.1-0.3-0.2-0.3c-0.3-0.1-0.4,0.2-0.5,0.4
				h0.3c-0.2-0.3-0.7-0.9-1.1-0.5s0.4,1.1,0.7,1.5c0,0.1,0.1,0.1,0.2,0.1c0,0,0,0,0.1-0.1c0.2-0.3,1.2-1,0.9-1.5
				c-0.3-0.3-0.7-0.3-1,0c-0.1,0.1-0.1,0.1-0.1,0.2c0,0.1,0.1,0.2,0.2,0.2c0.2-0.1,0.4-0.1,0.6-0.1l-0.2-0.1c0,0.1-0.7,0.6-0.8,0.7
				h0.2c-0.1-0.2-0.3-0.4-0.3-0.6c-0.1-0.2-0.4-0.1-0.3,0.1c0.1,0.4,0.5,0.7,0.4,1.1l0.2-0.1c-0.4-0.2-0.7-0.6-0.9-1
				c-0.1-0.1-0.1-0.2,0-0.4c0.1-0.3,0.2-0.3,0.4,0c0.1,0.1,0.2,0.3,0.4,0.4l0.2-0.3c-0.2,0-0.4-0.4-0.5-0.5
				c-0.1-0.1-0.3-0.1-0.4-0.1c-0.3,0.1-0.3,0.6-0.2,0.8s0.3,0.2,0.3,0c0-0.2,0.1-0.3,0.2-0.4c0.1-0.1,0-0.2-0.1-0.2
				c-0.4-0.1-0.6,0.2-0.5,0.6c0.1,0.7,1,0.7,1.2,1.4c0,0.1,0.1,0.1,0.2,0.1c0,0,0.1-0.1,0.1-0.1c0.3-0.5,1.3-0.9,1.1-1.7
				s-0.9-0.6-1.3-0.2c-0.1,0.1-0.1,0.2,0,0.2s0.2,0.1,0.2,0l0,0l0.6,0.1c0,0.2,0.4,0.2,0.3,0c-0.1-0.6-0.6-0.6-1-0.4l0.2,0.2
				c0.2-0.3,0.5-0.2,0.7,0.2c-0.1,0.1-0.1,0.3-0.2,0.4c-0.1,0.1-0.2,0.2-0.3,0.3c-0.2,0.2-0.4,0.4-0.5,0.6h0.3
				c-0.1-0.3-0.2-0.5-0.4-0.6l-0.3-0.2c-0.1-0.1-0.2-0.1-0.3-0.2c-0.2-0.1-0.2-0.3,0-0.5l-0.1-0.2c-0.1,0.1-0.2,0.3-0.2,0.5h0.3
				c0-0.1,0-0.4,0.2-0.4s0.3,0.3,0.3,0.4c0.1,0.1,0.2,0.2,0.3,0.2c0.1,0,0.2,0,0.2-0.1c0-0.1,0-0.1,0-0.2c-0.3-0.3-1.1-1.2-1.4-0.4
				c-0.2,0.3,0.1,0.7,0.3,0.9c0.2,0.4,0.6,0.7,0.9,1c0.1,0.1,0.2,0,0.2-0.1c0.1-0.5-0.3-0.8-0.4-1.2l-0.3,0.1
				c0.1,0.3,0.2,0.5,0.4,0.8c0.1,0,0.1,0,0.2,0c0.3-0.2,0.5-0.4,0.7-0.6c0.1-0.1,0.2-0.2,0.2-0.4c0-0.1-0.1-0.1-0.2-0.1
				c-0.3,0-0.5,0-0.7,0.1l0.2,0.2l0.4-0.2c0.1,0.1,0.1,0.3,0,0.4c-0.1,0.1-0.2,0.2-0.3,0.3c-0.2,0.1-0.3,0.3-0.4,0.5h0.3
				c-0.1-0.2-0.3-0.3-0.5-0.5c-0.1-0.1-0.3-0.2-0.3-0.3c0.1-0.3,0.3-0.3,0.4-0.1c0.1,0.1,0.1,0.1,0.1,0.2c0,0.1,0.1,0.1,0.2,0.1
				c0,0,0,0,0.1-0.1c0.2-0.3-0.2-0.1-0.2,0l0.2,0.1l-0.1,0.1c-0.1,0.2-0.2,0.3-0.3,0.4h0.3c0-0.1-0.1-0.2-0.1-0.3l-0.2-0.2
				c-0.2-0.3-0.2-0.3-0.1-0.1c0,0.2,0.3,0.2,0.3,0L404,140.5z"/>
			<path class="st15" d="M407.4,130.4c0-0.3-0.2-0.9-0.6-0.6c-0.5,0.4,0.2,1,0.3,1.3c0,0.1,0.1,0.1,0.2,0.1c0,0,0.1-0.1,0.1-0.1
				c0.2-0.2,1-1.1,0.2-1.2c-0.3-0.1-0.8,0.5-0.5,0.7s0.3,0,0.4-0.1s0.4-0.2,0.5-0.5c0-0.1-0.1-0.3-0.2-0.3c-0.3-0.1-0.4,0.2-0.5,0.4
				h0.3c-0.2-0.3-0.7-0.9-1.1-0.5s0.4,1.1,0.7,1.5c0,0.1,0.1,0.1,0.2,0.1c0,0,0,0,0.1-0.1c0.2-0.3,1.2-1,0.9-1.5
				c-0.3-0.3-0.7-0.3-1,0c-0.1,0.1-0.1,0.1-0.1,0.2c0,0.1,0.1,0.2,0.2,0.2c0.2-0.1,0.4-0.1,0.6-0.1l-0.2-0.1c0,0.1-0.7,0.6-0.8,0.7
				h0.2c-0.1-0.2-0.3-0.4-0.3-0.6c-0.1-0.2-0.4-0.1-0.3,0.1c0.1,0.4,0.5,0.7,0.4,1.1l0.2-0.1c-0.4-0.2-0.7-0.6-0.9-1
				c-0.1-0.1-0.1-0.2,0-0.4c0.1-0.3,0.2-0.3,0.4,0c0.1,0.1,0.2,0.3,0.4,0.4l0.2-0.3c-0.2,0-0.4-0.4-0.5-0.5
				c-0.1-0.1-0.3-0.1-0.4-0.1c-0.3,0.1-0.3,0.6-0.2,0.8s0.3,0.2,0.3,0c0-0.2,0.1-0.3,0.2-0.4c0.1-0.1,0-0.2-0.1-0.2
				c-0.4-0.1-0.6,0.2-0.5,0.6c0.1,0.7,1,0.7,1.2,1.4c0,0.1,0.1,0.1,0.2,0.1c0,0,0.1-0.1,0.1-0.1c0.3-0.5,1.3-0.9,1.1-1.7
				s-0.9-0.6-1.3-0.2c-0.1,0.1-0.1,0.2,0,0.2s0.2,0.1,0.2,0l0,0l0.6,0.1c0,0.2,0.4,0.2,0.3,0c-0.1-0.6-0.6-0.6-1-0.4l0.2,0.2
				c0.2-0.3,0.5-0.2,0.7,0.2c-0.1,0.1-0.1,0.3-0.2,0.4c-0.1,0.1-0.2,0.2-0.3,0.3c-0.2,0.2-0.4,0.4-0.5,0.6h0.3
				c-0.1-0.3-0.2-0.5-0.4-0.6l-0.3-0.2c-0.1-0.1-0.2-0.1-0.3-0.2c-0.2-0.1-0.2-0.3,0-0.5l-0.1-0.2c-0.1,0.1-0.2,0.3-0.2,0.5h0.3
				c0-0.1,0-0.4,0.2-0.4s0.3,0.3,0.3,0.4c0.1,0.1,0.2,0.2,0.3,0.2c0.1,0,0.2,0,0.2-0.1c0-0.1,0-0.1,0-0.2c-0.3-0.3-1.1-1.2-1.4-0.4
				c-0.2,0.3,0.1,0.7,0.3,0.9c0.2,0.4,0.6,0.7,0.9,1c0.1,0.1,0.2,0,0.2-0.1c0.1-0.5-0.3-0.8-0.4-1.2l-0.3,0.1
				c0.1,0.3,0.2,0.5,0.4,0.8c0.1,0,0.1,0,0.2,0c0.3-0.2,0.5-0.4,0.7-0.6c0.1-0.1,0.2-0.2,0.2-0.4c0-0.1-0.1-0.1-0.2-0.1
				c-0.3,0-0.5,0-0.7,0.1l0.2,0.2l0.4-0.2c0.1,0.1,0.1,0.3,0,0.4c-0.1,0.1-0.2,0.2-0.3,0.3c-0.2,0.1-0.3,0.3-0.4,0.5h0.3
				c-0.1-0.2-0.3-0.3-0.5-0.5c-0.1-0.1-0.3-0.2-0.3-0.3c0.1-0.3,0.3-0.3,0.4-0.1c0.1,0.1,0.1,0.1,0.1,0.2c0,0.1,0.1,0.1,0.2,0.1
				c0,0,0,0,0.1-0.1c0.2-0.3-0.2-0.1-0.2,0l0.2,0.1l-0.1,0.1c-0.1,0.2-0.2,0.3-0.3,0.4h0.3c0-0.1-0.1-0.2-0.1-0.3l-0.2-0.2
				c-0.2-0.3-0.2-0.3-0.1-0.1c0,0.2,0.3,0.2,0.3,0L407.4,130.4z"/>
			<path class="st15" d="M414.1,137.7c0-0.3-0.2-0.9-0.6-0.6c-0.5,0.4,0.2,1,0.3,1.3c0,0.1,0.1,0.1,0.2,0.1c0,0,0.1-0.1,0.1-0.1
				c0.2-0.2,1-1.1,0.2-1.2c-0.3-0.1-0.8,0.5-0.5,0.7s0.3,0,0.4-0.1s0.4-0.2,0.5-0.5c0-0.1-0.1-0.3-0.2-0.3c-0.3-0.1-0.4,0.2-0.5,0.4
				h0.3c-0.2-0.3-0.7-0.9-1.1-0.5s0.4,1.1,0.7,1.5c0,0.1,0.1,0.1,0.2,0.1c0,0,0,0,0.1-0.1c0.2-0.3,1.2-1,0.9-1.5
				c-0.3-0.3-0.7-0.3-1,0c-0.1,0.1-0.1,0.1-0.1,0.2c0,0.1,0.1,0.2,0.2,0.2c0.2-0.1,0.4-0.1,0.6-0.1l-0.2-0.1c0,0.1-0.7,0.6-0.8,0.7
				h0.2c-0.1-0.2-0.3-0.4-0.3-0.6c-0.1-0.2-0.4-0.1-0.3,0.1c0.1,0.4,0.5,0.7,0.4,1.1l0.2-0.1c-0.4-0.2-0.7-0.6-0.9-1
				c-0.1-0.1-0.1-0.2,0-0.4c0.1-0.3,0.2-0.3,0.4,0c0.1,0.1,0.2,0.3,0.4,0.4l0.2-0.3c-0.2,0-0.4-0.4-0.5-0.5
				c-0.1-0.1-0.3-0.1-0.4-0.1c-0.3,0.1-0.3,0.6-0.2,0.8s0.3,0.2,0.3,0c0-0.2,0.1-0.3,0.2-0.4c0.1-0.1,0-0.2-0.1-0.2
				c-0.4-0.1-0.6,0.2-0.5,0.6c0.1,0.7,1,0.7,1.2,1.4c0,0.1,0.1,0.1,0.2,0.1c0,0,0.1-0.1,0.1-0.1c0.3-0.5,1.3-0.9,1.1-1.7
				s-0.9-0.6-1.3-0.2c-0.1,0.1-0.1,0.2,0,0.2s0.2,0.1,0.2,0l0.6,0.1c0,0.2,0.4,0.2,0.3,0c-0.1-0.6-0.6-0.6-1-0.4l0.2,0.2
				c0.2-0.3,0.5-0.2,0.7,0.2c-0.1,0.1-0.1,0.3-0.2,0.4c-0.1,0.1-0.2,0.2-0.3,0.3c-0.2,0.2-0.4,0.4-0.5,0.6h0.3
				c-0.1-0.3-0.2-0.5-0.4-0.6l-0.3-0.2c-0.1-0.1-0.2-0.1-0.3-0.2c-0.2-0.1-0.2-0.3,0-0.5l-0.1-0.2c-0.1,0.1-0.2,0.3-0.2,0.5h0.3
				c0-0.1,0-0.4,0.2-0.4s0.3,0.3,0.3,0.4c0.1,0.1,0.2,0.2,0.3,0.2c0.1,0,0.2,0,0.2-0.1c0-0.1,0-0.1,0-0.2c-0.3-0.3-1.1-1.2-1.4-0.4
				c-0.2,0.3,0.1,0.7,0.3,0.9c0.2,0.4,0.6,0.7,0.9,1c0.1,0.1,0.2,0,0.2-0.1c0.1-0.5-0.3-0.8-0.4-1.2l-0.3,0.1
				c0.1,0.3,0.2,0.5,0.4,0.8c0.1,0,0.1,0,0.2,0c0.3-0.2,0.5-0.4,0.7-0.6c0.1-0.1,0.2-0.2,0.2-0.4c0-0.1-0.1-0.1-0.2-0.1
				c-0.3,0-0.5,0-0.7,0.1l0.2,0.2l0.4-0.2c0.1,0.1,0.1,0.3,0,0.4c-0.1,0.1-0.2,0.2-0.3,0.3c-0.2,0.1-0.3,0.3-0.4,0.5h0.3
				c-0.1-0.2-0.3-0.3-0.5-0.5c-0.1-0.1-0.3-0.2-0.3-0.3c0.1-0.3,0.3-0.3,0.4-0.1c0.1,0.1,0.1,0.1,0.1,0.2c0,0.1,0.1,0.1,0.2,0.1
				c0,0,0,0,0.1-0.1c0.2-0.3-0.2-0.1-0.2,0l0.2,0.1l-0.1,0.1c-0.1,0.2-0.2,0.3-0.3,0.4h0.3c-0.1-0.1-0.2-0.1-0.3-0.1l-0.2-0.2
				c-0.2-0.3-0.2-0.3-0.1-0.1C413.8,137.9,414.1,137.9,414.1,137.7L414.1,137.7z"/>
			<path class="st15" d="M418.6,137.7c0-0.3-0.2-0.9-0.6-0.6c-0.5,0.4,0.2,1,0.3,1.3c0,0.1,0.1,0.1,0.2,0.1c0,0,0.1-0.1,0.1-0.1
				c0.2-0.2,1-1.1,0.2-1.2c-0.3-0.1-0.8,0.5-0.5,0.7s0.3,0,0.4-0.1s0.4-0.2,0.5-0.5c0-0.1-0.1-0.3-0.2-0.3c-0.3-0.1-0.4,0.2-0.5,0.4
				h0.3c-0.2-0.3-0.7-0.9-1.1-0.5s0.4,1.1,0.7,1.5c0,0.1,0.1,0.1,0.2,0.1c0,0,0,0,0.1-0.1c0.2-0.3,1.2-1,0.9-1.5
				c-0.3-0.3-0.7-0.3-1,0c-0.1,0.1-0.1,0.1-0.1,0.2c0,0.1,0.1,0.2,0.2,0.2c0.2-0.1,0.4-0.1,0.6-0.1l-0.2-0.1c0,0.1-0.7,0.6-0.8,0.7
				h0.2c-0.1-0.2-0.3-0.4-0.3-0.6c-0.1-0.2-0.4-0.1-0.3,0.1c0.1,0.4,0.5,0.7,0.4,1.1l0.2-0.1c-0.4-0.2-0.7-0.6-0.9-1
				c-0.1-0.1-0.1-0.2,0-0.4c0.1-0.3,0.2-0.3,0.4,0c0.1,0.1,0.2,0.3,0.4,0.4l0.2-0.3c-0.2,0-0.4-0.4-0.5-0.5
				c-0.1-0.1-0.3-0.1-0.4-0.1c-0.3,0.1-0.3,0.6-0.2,0.8s0.3,0.2,0.3,0c0-0.2,0.1-0.3,0.2-0.4c0.1-0.1,0-0.2-0.1-0.2
				c-0.4-0.1-0.6,0.2-0.5,0.6c0.1,0.7,1,0.7,1.2,1.4c0,0.1,0.1,0.1,0.2,0.1c0,0,0.1-0.1,0.1-0.1c0.3-0.5,1.3-0.9,1.1-1.7
				s-0.9-0.6-1.3-0.2c-0.1,0.1-0.1,0.2,0,0.2s0.2,0.1,0.2,0l0.6,0.1c0,0.2,0.4,0.2,0.3,0c-0.1-0.6-0.6-0.6-1-0.4l0.2,0.2
				c0.2-0.3,0.5-0.2,0.7,0.2c-0.1,0.1-0.1,0.3-0.2,0.4c-0.1,0.1-0.2,0.2-0.3,0.3c-0.2,0.2-0.4,0.4-0.5,0.6h0.3
				c-0.1-0.3-0.2-0.5-0.4-0.6l-0.3-0.2c-0.1-0.1-0.2-0.1-0.3-0.2c-0.2-0.1-0.2-0.3,0-0.5l-0.1-0.2c-0.1,0.1-0.2,0.3-0.2,0.5h0.3
				c0-0.1,0-0.4,0.2-0.4s0.3,0.3,0.3,0.4c0.1,0.1,0.2,0.2,0.3,0.2c0.1,0,0.2,0,0.2-0.1c0-0.1,0-0.1,0-0.2c-0.3-0.3-1.1-1.2-1.4-0.4
				c-0.2,0.3,0.1,0.7,0.3,0.9c0.2,0.4,0.6,0.7,0.9,1c0.1,0.1,0.2,0,0.2-0.1c0.1-0.5-0.3-0.8-0.4-1.2l-0.3,0.1
				c0.1,0.3,0.2,0.5,0.4,0.8c0.1,0,0.1,0,0.2,0c0.3-0.2,0.5-0.4,0.7-0.6c0.1-0.1,0.2-0.2,0.2-0.4c0-0.1-0.1-0.1-0.2-0.1
				c-0.3,0-0.5,0-0.7,0.1l0.2,0.2l0.4-0.2c0.1,0.1,0.1,0.3,0,0.4c-0.1,0.1-0.2,0.2-0.3,0.3c-0.2,0.1-0.3,0.3-0.4,0.5h0.3
				c-0.1-0.2-0.3-0.3-0.5-0.5c-0.1-0.1-0.3-0.2-0.3-0.3c0.1-0.3,0.3-0.3,0.4-0.1c0.1,0.1,0.1,0.1,0.1,0.2c0,0.1,0.1,0.1,0.2,0.1
				c0,0,0,0,0.1-0.1c0.2-0.3-0.2-0.1-0.2,0l0.2,0.1l-0.1,0.1c-0.1,0.2-0.2,0.3-0.3,0.4h0.3c0-0.1-0.1-0.2-0.1-0.3l-0.2-0.2
				c-0.2-0.3-0.2-0.3-0.1-0.1c0,0.2,0.3,0.2,0.3,0L418.6,137.7z"/>
			<path class="st15" d="M414.7,134.4c0-0.3-0.2-0.9-0.6-0.6c-0.5,0.4,0.2,1,0.3,1.3c0,0.1,0.1,0.1,0.2,0.1c0,0,0.1-0.1,0.1-0.1
				c0.2-0.2,1-1.1,0.2-1.2c-0.3-0.1-0.8,0.5-0.5,0.7s0.3,0,0.4-0.1s0.4-0.2,0.5-0.5c0-0.1-0.1-0.3-0.2-0.3c-0.3-0.1-0.4,0.2-0.5,0.4
				h0.3c-0.2-0.3-0.7-0.9-1.1-0.5s0.4,1.1,0.7,1.5c0,0.1,0.1,0.1,0.2,0.1c0,0,0,0,0.1-0.1c0.2-0.3,1.2-1,0.9-1.5
				c-0.3-0.3-0.7-0.3-1,0c-0.1,0.1-0.1,0.1-0.1,0.2c0,0.1,0.1,0.2,0.2,0.2c0.2-0.1,0.4-0.1,0.6-0.1l-0.2-0.1c0,0.1-0.7,0.6-0.8,0.7
				h0.2c-0.1-0.2-0.3-0.4-0.3-0.6c-0.1-0.2-0.4-0.1-0.3,0.1c0.1,0.4,0.5,0.7,0.4,1.1l0.2-0.1c-0.4-0.2-0.7-0.6-0.9-1
				c-0.1-0.1-0.1-0.2,0-0.4c0.1-0.3,0.2-0.3,0.4,0c0.1,0.1,0.2,0.3,0.4,0.4l0.2-0.3c-0.2,0-0.4-0.4-0.5-0.5
				c-0.1-0.1-0.3-0.1-0.4-0.1c-0.3,0.1-0.3,0.6-0.2,0.8s0.3,0.2,0.3,0c0-0.2,0.1-0.3,0.2-0.4c0.1-0.1,0-0.2-0.1-0.2
				c-0.4-0.1-0.6,0.2-0.5,0.6c0.1,0.7,1,0.7,1.2,1.4c0,0.1,0.1,0.1,0.2,0.1c0,0,0.1-0.1,0.1-0.1c0.3-0.5,1.3-0.9,1.1-1.7
				s-0.9-0.6-1.3-0.2c-0.1,0.1-0.1,0.2,0,0.2s0.2,0.1,0.2,0l0.6,0.1c0,0.2,0.4,0.2,0.3,0c-0.1-0.6-0.6-0.6-1-0.4l0.2,0.2
				c0.2-0.3,0.5-0.2,0.7,0.2c-0.1,0.1-0.1,0.3-0.2,0.4c-0.1,0.1-0.2,0.2-0.3,0.3c-0.2,0.2-0.4,0.4-0.5,0.6h0.3
				c-0.1-0.3-0.2-0.5-0.4-0.6l-0.3-0.2c-0.1-0.1-0.2-0.1-0.3-0.2c-0.2-0.1-0.2-0.3,0-0.5l-0.1-0.2c-0.1,0.1-0.2,0.3-0.2,0.5h0.3
				c0-0.1,0-0.4,0.2-0.4s0.3,0.3,0.3,0.4c0.1,0.1,0.2,0.2,0.3,0.2c0.1,0,0.2,0,0.2-0.1c0-0.1,0-0.1,0-0.2c-0.3-0.3-1.1-1.2-1.4-0.4
				c-0.2,0.3,0.1,0.7,0.3,0.9c0.2,0.4,0.6,0.7,0.9,1c0.1,0.1,0.2,0,0.2-0.1c0.1-0.5-0.3-0.8-0.4-1.2l-0.3,0.1
				c0.1,0.3,0.2,0.5,0.4,0.8c0.1,0,0.1,0,0.2,0c0.3-0.2,0.5-0.4,0.7-0.6c0.1-0.1,0.2-0.2,0.2-0.4c0-0.1-0.1-0.1-0.2-0.1
				c-0.3,0-0.5,0-0.7,0.1l0.2,0.2l0.4-0.2c0.1,0.1,0.1,0.3,0,0.4c-0.1,0.1-0.2,0.2-0.3,0.3c-0.2,0.1-0.3,0.3-0.4,0.5h0.3
				c-0.1-0.2-0.3-0.3-0.5-0.5c-0.1-0.1-0.3-0.2-0.3-0.3c0.1-0.3,0.3-0.3,0.4-0.1c0.1,0.1,0.1,0.1,0.1,0.2c0,0.1,0.1,0.1,0.2,0.1
				c0,0,0,0,0.1-0.1c0.2-0.3-0.2-0.1-0.2,0l0.2,0.1l-0.1,0.1c-0.1,0.2-0.2,0.3-0.3,0.4h0.3c0-0.1-0.1-0.2-0.1-0.3l-0.2-0.2
				c-0.2-0.3-0.2-0.3-0.1-0.1c0,0.2,0.3,0.2,0.3,0L414.7,134.4z"/>
			<path class="st9" d="M405.5,151.5c0.3-0.6,0.3-2-0.7-1.8c-1.4,0.2-0.4,2.2-0.4,3c0,0.2,0.2,0.4,0.4,0.4c0.1,0,0.1,0,0.2,0
				c0.6-0.4,2.8-1.2,1.8-2.2c-0.6-0.6-2.1,0-1.9,0.9c0.1,0.3,0.4,0.4,0.7,0.4c0.6,0,1.2-0.2,1.6-0.6c0.2-0.3,0.2-0.7-0.1-0.9
				c-0.5-0.4-1,0.1-1.4,0.4l0.5,0.2c-0.1-0.8-0.8-2.6-1.9-1.8s0,2.7,0.3,3.8c0.1,0.2,0.3,0.3,0.5,0.3c0,0,0.1,0,0.1,0
				c0.7-0.5,3.3-0.9,3.2-2.2c-0.1-1.1-1.9-1.3-2.5-0.6c-0.1,0.1-0.1,0.4,0,0.5c0,0,0.1,0.1,0.1,0.1c0.3,0.1,0.7,0.2,1,0.2
				c0.5,0.1,0.5,0.1-0.1-0.1l-0.5,0.2c-0.2,0.1-0.7,0.4-0.9,0.2s-0.1-0.9-0.1-1.2c0-0.5-0.7-0.4-0.7,0c-0.1,0.8,0.4,1.8-0.1,2.5h0.6
				c-0.5-0.9-0.8-1.8-1-2.8c0-0.3-0.1-0.6-0.1-0.9c0.6-0.5,1-0.5,1.2,0c0.2,0.4,0.3,0.9,0.4,1.3l0.5-0.4c-0.3-0.2-0.3-1-0.5-1.4
				c-0.2-0.4-0.5-0.6-0.9-0.7c-0.8-0.1-1.1,0.9-1.2,1.5c0,0.4,0.5,0.4,0.7,0.2c0.1-0.3,0.4-0.5,0.7-0.7c0.2-0.1,0.2-0.3,0.1-0.5
				c0,0,0-0.1-0.1-0.1c-0.4-0.4-1-0.4-1.4,0c-0.1,0.1-0.2,0.3-0.3,0.5c-0.5,1.6,1.5,2.6,1.2,4.1c0,0.2,0.1,0.4,0.3,0.4
				c0.1,0,0.2,0,0.3-0.1c1.1-0.8,3.6-0.8,3.9-2.4s-1.5-2-2.6-1.5c-0.2,0.1-0.2,0.3-0.1,0.5c0.1,0.1,0.2,0.2,0.3,0.2
				c0.5-0.1,0.9,0.1,1.1,0.7c-0.2,0.4,0.5,0.6,0.7,0.2c0.4-1.2-0.9-1.7-1.8-1.6l0.2,0.7c1.2-0.4,1.6,0,1.3,1.1
				c-0.2,0.2-0.4,0.3-0.6,0.4c-0.4,0.2-0.8,0.3-1.2,0.4c-0.6,0.2-1.2,0.4-1.7,0.8l0.6,0.4c0.1-0.5,0-1-0.2-1.5
				c-0.1-0.3-0.3-0.6-0.5-0.8c-0.1-0.2-0.2-0.4-0.3-0.6c-0.3-0.4-0.3-1,0.1-1.3c0,0,0.1,0,0.1-0.1l0.1-0.6c-0.4,0.2-0.7,0.5-0.9,0.9
				l0.7,0.2l0.8-0.4c0.1,0.2,0.2,0.3,0.2,0.5c0,0.2,0.1,0.4,0.1,0.6c0.1,0.2,0.2,0.4,0.5,0.5c0.2,0.1,0.4,0,0.5-0.1
				c0-0.1,0.1-0.2,0-0.3c-0.1-0.8-0.4-1.6-1-2.2c-0.5-0.4-1.1-0.4-1.6-0.1c-0.6,0.5-0.4,1.3-0.3,1.9c0.2,1.1,0.5,2.2,1.1,3.1
				c0.1,0.2,0.3,0.2,0.5,0.1c0,0,0.1-0.1,0.1-0.1c0.6-0.9,0.1-1.9,0.2-2.9h-0.7c0,0.6-0.3,2.1,0.7,2.1c0.6-0.1,1.2-0.3,1.8-0.6
				c0.4-0.1,0.7-0.2,0.9-0.7c0-0.1,0-0.3-0.1-0.4c-0.4-0.4-1.2-0.4-1.7-0.5l0.2,0.6c0.8-0.4,1.1-0.3,0.9,0.3c0.1,0.2,0,0.4-0.2,0.5
				c0,0-0.1,0-0.1,0c-0.3,0.1-0.6,0.3-0.9,0.3c-0.4,0.1-0.9,0.3-1.2,0.6l0.5,0.2c-0.1-0.6-0.4-1.1-0.6-1.6c0-0.1-0.5-1.8,0.5-1.1
				c0.2,0.1,0.3,0.9,0.3,1.1c0.1,0.2,0.3,0.3,0.5,0.3c0,0,0.1,0,0.1,0c0.2-0.2,0.5-0.3,0-0.3h-0.1c-0.3,0-0.4,0.1-0.1,0.2
				s0.3,0.2,0.1,0.2l-0.4,0.2l-0.9,0.5l0.5,0.3c0-0.3,0-0.7-0.1-1l-0.2-0.5c0-0.7,0-0.7,0,0c-0.1,0.2,0,0.4,0.2,0.5
				C405.1,151.7,405.3,151.6,405.5,151.5L405.5,151.5z"/>
		</g>
		<g id="sushi">
			<circle class="st15" cx="171.1" cy="306.9" r="35.2"/>
			<path class="st9" d="M193.2,280.4c2.6,1.4-3.9,4.5-18.6,14.4c-0.7,0.5-1.6,1.3-2.3-0.2C187.7,283.4,177.9,291.7,193.2,280.4z"/>
			<path class="st9" d="M164.7,299c-1.5-0.9-0.7-1.6-0.1-2.2l12.4-13.5c7.6-8.3,13.1-9.9,7.8-4.5l-19,19.1
				C165.4,298.2,165.1,298.5,164.7,299z"/>
			<path class="st9" d="M147.9,313.3c0-1.6,0.1-3.2,0-4.7c-0.2-2.1,1-4,3-4.7c4-1.9,8.6-1.9,12.6,0c1.9,0.8,3.2,2.7,3,4.8
				c-0.1,3.2-0.1,6.5,0,9.7c0.1,2.4-1,4.2-3.2,4.8c-2.8,0.8-6,1.4-8.8,1.1c-4.6-0.6-7.2-2.1-6.7-7.4
				C147.9,315.6,147.9,314.5,147.9,313.3z M157.2,303c-2.4,0.1-4.8,0.8-6.8,2c-2.5,1.4-2.4,3.5-0.1,5.2c3.4,2.5,10.5,2.5,13.8,0
				c2.2-1.6,2.3-3.9-0.2-5.2C161.9,303.8,159.6,303.1,157.2,303z"/>
			<ellipse class="st15" cx="157.2" cy="307.9" rx="8.8" ry="4.9"/>
			<path class="st9" d="M169.7,317.2c0-1.6,0.1-3.2,0-4.7c-0.2-2.1,1-4,3-4.7c4-1.9,8.6-1.9,12.6,0c1.9,0.8,3.2,2.7,3,4.8
				c-0.1,3.2-0.1,6.5,0,9.7c0.1,2.4-1,4.2-3.2,4.8c-2.8,0.8-6,1.4-8.8,1.1c-4.6-0.6-7.2-2.1-6.7-7.4
				C169.7,319.6,169.7,318.4,169.7,317.2z M179,306.9c-2.4,0.1-4.8,0.8-6.8,2c-2.5,1.4-2.4,3.5-0.1,5.2c3.4,2.5,10.5,2.5,13.8,0
				c2.2-1.6,2.3-3.9-0.2-5.2C183.7,307.7,181.4,307,179,306.9z"/>
			<ellipse class="st15" cx="179.1" cy="311.8" rx="8.8" ry="4.9"/>
			<ellipse class="st9" cx="178.8" cy="311.8" rx="3.7" ry="2.2"/>
			<ellipse class="st9" cx="157" cy="306.8" rx="3.7" ry="2.2"/>
		</g>
		<g id="drinks">
			<circle class="st15" cx="349.5" cy="504" r="35.2"/>
			<path class="st9" d="M337.9,490.1h26.3c-0.1,2.7-0.2,5.2-0.4,7.7c-0.6,9.1-1.2,18.3-1.8,27.4c-0.2,3.1-0.9,3.9-4.1,3.9
				c-4.8,0-9.6,0-14.4,0c-2,0-3.4-0.9-3.5-2.9C339.4,514.3,338.6,502.4,337.9,490.1z M340.4,492.7l2.1,34.1c5.5,0,10.6,0.1,15.7-0.1
				c0.6,0,1.5-1.2,1.6-1.9c0.5-5.3,0.7-10.6,1-15.9s0.6-10.7,0.9-16.1c-3.2-1.1-1.7,2.1-3.1,2.8l-2.3-0.1v-2.9L340.4,492.7z"/>
			<path class="st9" d="M349.4,489.1c-0.5-0.5-0.9-1.1-1.3-1.7c-1.9-4.8-5.5-7.1-10.3-6.7c-4.3,0.6-7.7,4-8.2,8.3
				c-0.6,4.2,1.9,8.1,6.3,10.1c0.8,0.5,1.6,1.1,2.3,1.8c-5.8,0.3-10.5-4.9-10.5-10.7c-0.1-6.2,4.9-11.4,11.2-11.4c0.1,0,0.1,0,0.2,0
				C345,478.8,350.1,483.5,349.4,489.1z"/>
			<path class="st9" d="M360.2,489h-2.9c0.4-1.9,0.4-3.8,1.2-5.3c0.6-1.3,1.7-2.4,3.1-2.9c2.5-0.6,5-0.9,7.6-1
				c0.7,0,1.4,0.8,2.1,1.2c-0.6,0.6-1.2,1.4-1.9,1.6c-1.6,0.4-3.2,0.6-4.8,0.6c-2.6-0.1-3.8,1-3.8,3.6
				C360.6,487.6,360.4,488.3,360.2,489z"/>
			<path class="st9" d="M344.7,483.4l-5.2,5.6v-7.8L344.7,483.4z"/>
			<path class="st9" d="M338.2,481.1v7.6l-0.5,0.3l-4.4-5.5L338.2,481.1z"/>
			<path class="st9" d="M331.6,485.3l5.5,4.9h-6.7L331.6,485.3z"/>
			<path class="st9" d="M332.4,495.6l-2.1-4h6.4l0.4,0.5L332.4,495.6z"/>
			<path class="st9" d="M342.1,488.8l4-3.6l1.7,3.6H342.1z"/>
			<path class="st9" d="M337.3,498.6l-3.8-1.5l3.5-3.7L337.3,498.6z"/>
			<path class="st9" d="M341.6,496.9c0.5,8.6,1,17.1,1.6,25.5c0.3,0.9,1,1.5,1.9,1.7c4,0.2,8,0.1,12,0.1c1.3,0,1.9-0.7,1.9-2.1
				c0.2-3.8,0.5-7.7,0.8-11.5c0.3-4.5,0.5-9,0.8-13.7L341.6,496.9z"/>
			<path class="st9" d="M341.6,496.9h19c-0.2,4.7-0.5,9.2-0.8,13.7c-0.2,3.8-0.6,7.7-0.8,11.5c-0.1,1.4-0.6,2.1-1.9,2.1
				c-4,0-8,0.1-12-0.1c-0.9-0.2-1.6-0.9-1.9-1.7C342.5,514,342.1,505.5,341.6,496.9z M351.5,510.6c-2.5,0.8-5.3,1.1-7,2.6
				c-0.8,0.6,0.5,3.7,0.9,5.7c0.1,0.4,0.1,1,0.3,1.2c0.6,0.5,1.3,1.1,1.9,1c7.1-0.9,7.6-1.8,5.5-8.6c0-0.4-0.2-0.7-0.3-1
				C352.3,511.2,351.9,510.9,351.5,510.6L351.5,510.6z M347.9,510.4c1.3-0.3,2.8-0.2,3.7-0.9c1.4-1.1,2.5-2.5,3.3-4
				c0.1-0.2-1.1-1.6-2-2.1c-5-3-5-3-7.9,2C343.5,507.8,344.9,510.2,347.9,510.4L347.9,510.4z M359.2,510.8l-3.5-3.2
				c-2.8,2.3-1.5,4.6-0.5,7.4L359.2,510.8z"/>
		</g>
		<path class="st13" d="M0,245.5l19.6-19.6l5.1,5.1l-13.9,14l5.5,5.5l12.3-12.3l5.2,5.1l-12.3,12.2l10,10l-5.7,5.7L0,245.5z"/>
		<path class="st13" d="M24.4,221.1l5.6-5.7l25.7,25.7l-5.7,5.7L24.4,221.1z"/>
		<path class="st13" d="M36.5,209l11.8-11.8c3.3-3.3,6.7-4.9,10.1-4.9c3.1,0.1,6,1.4,8.1,3.7l0.1,0.1c3.8,3.4,4.8,9,2.5,13.5
			l15.5,2.9l-6.6,6.6l-13.8-2.7l-4.5,4.4l8.2,8.2l-5.7,5.7L36.5,209z M60.4,210.1c2.8-2.8,2.9-5.8,0.7-8L61,202
			c-2.4-2.4-5.4-2-8.1,0.8l-5.6,5.6l7.4,7.4L60.4,210.1z"/>
		<path class="st13" d="M83.3,206.2l-0.7-7.4c4.2-0.4,7.9-1.6,10.8-4.6c2.3-2.3,2.8-4.6,1.3-6.1l-0.1-0.1c-1.4-1.4-3.1-1.3-8.5,1.9
			c-6.5,3.9-11.3,5.8-16.4,0.7l-0.1-0.1c-4.7-4.7-4-11.5,1.3-16.8c3.4-3.5,8-5.8,12.8-6.3l1.3,7.2c-3.9,0.7-7.1,2-9.2,4.2
			s-2.3,4.3-1.1,5.6l0.1,0.1c1.7,1.7,3.3,1.1,8.9-2.2c6.6-3.9,11.4-4.9,15.9-0.4l0.1,0.1c5.1,5.1,4.1,11.9-1.5,17.4
			C94.3,203.4,89,205.8,83.3,206.2z"/>
		<path class="st13" d="M97.3,158.7l-7.8,7.8l-5.2-5.2l21.3-21.3l5.2,5.2l-7.8,7.8l20.5,20.5l-5.7,5.7L97.3,158.7z"/>
		<path class="st13" d="M120.9,124.6l19.6-19.6l5.1,5.2l-13.9,13.9l5.5,5.5l12.3-12.3l5.1,5.2l-12.3,12.3l10,10l-5.7,5.7
			L120.9,124.6z"/>
		<path class="st13" d="M145,100.4l5.7-5.7l20.6,20.6l12.8-12.8l5.1,5.2l-18.5,18.5L145,100.4z"/>
		<path class="st13" d="M178.1,93.2L178.1,93.2c-7.4-7.4-7.6-19.2,0.3-27.1s19.6-7.7,26.9-0.4l0.1,0.1c7.3,7.3,7.5,19.1-0.4,27
			S185.4,100.6,178.1,93.2z M199.6,71.8L199.6,71.8c-4.5-4.5-11.4-4.9-16-0.4s-4.1,11.3,0.3,15.7l0.1,0.1c4.4,4.4,11.3,4.8,15.9,0.3
			S204,76.2,199.6,71.8z"/>
		<path class="st13" d="M209.4,62L209.4,62c-7.4-7.4-7.6-19.2,0.3-27.1s19.6-7.7,26.9-0.4l0.1,0.1c7.3,7.3,7.5,19.1-0.4,27
			S216.7,69.3,209.4,62z M230.8,40.6L230.8,40.6c-4.5-4.5-11.4-4.9-16-0.4s-4.1,11.3,0.3,15.7l0.1,0.1c4.4,4.4,11.3,4.8,15.9,0.3
			S235.2,45,230.8,40.6z"/>
		<path class="st13" d="M228.8,16.7l11.8-11.8c3.3-3.3,6.7-4.9,10.1-4.9c3.1,0.1,6,1.4,8.1,3.7l0.1,0.1c3.8,3.4,4.8,9,2.5,13.5
			l15.5,2.9l-6.6,6.6L256.4,24l-4.4,4.5l8.2,8.2l-5.7,5.7L228.8,16.7z M252.7,17.8c2.8-2.8,2.9-5.8,0.7-8l-0.1-0.1
			c-2.4-2.4-5.4-2-8.1,0.8l-5.6,5.6l7.4,7.4L252.7,17.8z"/>
	</g>
</g>
</svg>
