<?xml version="1.0" encoding="utf-8"?>
<!-- Generator: Adobe Illustrator 20.1.0, SVG Export Plug-In . SVG Version: 6.00 Build 0)  -->
<svg version="1.1" id="Layer_1" xmlns="http://www.w3.org/2000/svg" xmlns:xlink="http://www.w3.org/1999/xlink" x="0px" y="0px"
	 viewBox="0 0 979.1 676.7" style="enable-background:new 0 0 979.1 676.7;" xml:space="preserve">
<style type="text/css">
	.st0{fill:#EE2B34;}
	.st1{fill:#050433;}
	.st2{fill:#050433;stroke:#FFFFFF;stroke-width:2.15;stroke-miterlimit:10;}
	.st3{fill:#FFFFFF;}
	.st4{fill:#FFFFFF;stroke:#FFFFFF;stroke-width:0.27;stroke-miterlimit:10;}
	.st5{fill:#050433;stroke:#050433;stroke-width:0.27;stroke-miterlimit:10;}
	.st6{fill:#050433;stroke:#050433;stroke-width:0.25;stroke-miterlimit:10;}
	.st7{fill:#CFD0D2;}
	.st8{fill:#FFFFFF;stroke:#FFFFFF;stroke-width:2.15;stroke-miterlimit:10;}
	.st9{fill:none;stroke:#CFD0D2;stroke-width:2.15;stroke-miterlimit:10;}
	.st10{fill:#1B75BB;stroke:#CFD0D2;stroke-width:2.15;stroke-miterlimit:10;}
	.st11{fill:#00A14B;stroke:#FFFFFF;stroke-width:2.15;stroke-miterlimit:10;}
	.st12{fill:none;stroke:#FFFFFF;stroke-width:2.15;stroke-miterlimit:10;}
	.st13{fill:#00A14B;stroke:#CFD0D2;stroke-width:2.15;stroke-miterlimit:10;}
	.st14{fill:#4A89F0;}
	.st15{fill:#85AD3A;}
	.st16{clip-path:url(#SVGID_2_);}
	.st17{fill:#FFDD38;}
	.st18{clip-path:url(#SVGID_4_);}
	.st19{fill:#FDDD38;}
	.st20{clip-path:url(#SVGID_6_);}
	.st21{clip-path:url(#SVGID_8_);}
	.st22{fill:#FF4898;}
	.st23{fill:#33B3A2;}
	.st24{fill:#F68332;}
	.st25{fill:#FFFFFF;stroke:#F68332;stroke-width:0.42;stroke-miterlimit:10;}
	.st26{fill:none;stroke:#F68332;stroke-width:0.42;stroke-miterlimit:10;}
</style>
<title>Asset 1</title>
<g id="Layer_2">
	<g id="first_floor_plan">
		<path class="st0" d="M5.7,321.9L5.7,321.9c-7.4-7.3-7.5-19.1-0.3-26.5c0.1-0.1,0.3-0.3,0.4-0.4c4.6-4.6,8.7-6.2,13.6-6.6l0.7,7.9
			c-3.6,0.3-6.4,1.1-9.3,4.1c-4.1,4.1-3.8,11,0.6,15.4l0.1,0.1c4.7,4.7,11.4,4.9,16,0.4c2-1.8,3.3-4.2,3.8-6.9l-3.7-3.7l-5.7,5.7
			l-4.9-4.9l11.2-11.2l11.2,11.2c-0.4,5.7-2.9,11.1-6.9,15.1C24.4,329.7,13.3,329.5,5.7,321.9z"/>
		<path class="st0" d="M22.7,279l11.8-11.8c3.3-3.3,6.7-4.9,10.1-4.9c3.1,0.1,6,1.4,8.1,3.7l0.1,0.1c3.8,3.4,4.8,9,2.5,13.5
			l15.5,2.9l-6.6,6.7l-13.8-2.7l-4.5,4.5l8.2,8.2l-5.7,5.7L22.7,279z M46.6,280.1c2.8-2.8,2.9-5.8,0.7-8l-0.1-0.1
			c-2.4-2.4-5.4-2-8.1,0.8l-5.6,5.6l7.4,7.4L46.6,280.1z"/>
		<path class="st0" d="M61.1,266.5L61.1,266.5c-7.4-7.4-7.6-19.2,0.3-27.1s19.6-7.7,26.9-0.5l0.1,0.1c7.3,7.3,7.5,19.1-0.4,27
			S68.4,273.9,61.1,266.5z M82.5,245.1L82.5,245.1c-4.5-4.5-11.4-4.9-16-0.4s-4.1,11.3,0.3,15.7l0.1,0.1c4.4,4.4,11.3,4.9,15.9,0.3
			S86.9,249.5,82.5,245.1z"/>
		<path class="st0" d="M94.8,236.3l-14.7-14.7l5.7-5.7l14.6,14.6c4.2,4.2,8.5,4.3,11.9,0.8s3.5-7.6-0.6-11.7l-14.7-14.8l5.7-5.7
			l14.5,14.5c7.8,7.8,7.2,16,0.3,22.9S102.4,243.9,94.8,236.3z"/>
		<path class="st0" d="M108.3,193.4l5.2-5.2l27.9,3.8l-15.8-15.9l5.6-5.6l25.7,25.7l-4.8,4.8l-28.8-3.9l16.4,16.4l-5.6,5.6
			L108.3,193.4z"/>
		<path class="st0" d="M137.4,164.4l10-10c8.1-8.1,19.2-8.1,26.5-0.9l0.1,0.1c7.2,7.2,7.3,18.5-0.8,26.6l-10,10L137.4,164.4z
			 M148.1,163.8l15.5,15.5l4.4-4.4c4.6-4.6,4.6-10.9,0.1-15.4l-0.1-0.1c-4.6-4.6-10.9-4.6-15.5,0L148.1,163.8z"/>
		<path class="st0" d="M177.1,124.6l19.6-19.6l5.1,5.2L188,124.1l5.5,5.5l12.3-12.3l5.1,5.2l-12.3,12.3l10,10l-5.7,5.7L177.1,124.6z
			"/>
		<path class="st0" d="M201.3,100.4l5.7-5.7l20.6,20.6l12.8-12.8l5.1,5.2L227,126.2L201.3,100.4z"/>
		<path class="st0" d="M234.4,93.2L234.4,93.2c-7.4-7.4-7.6-19.2,0.3-27.1s19.6-7.7,26.9-0.4l0.1,0.1c7.3,7.3,7.5,19.1-0.4,27
			S241.7,100.6,234.4,93.2z M255.8,71.8L255.8,71.8c-4.5-4.5-11.4-4.9-16-0.4s-4.1,11.3,0.3,15.7l0.1,0.1c4.4,4.4,11.3,4.8,15.9,0.3
			S260.2,76.2,255.8,71.8z"/>
		<path class="st0" d="M265.6,62L265.6,62c-7.4-7.4-7.6-19.2,0.3-27.1s19.6-7.7,26.9-0.4l0.1,0.1c7.3,7.3,7.5,19.1-0.4,27
			S272.9,69.3,265.6,62z M287.1,40.6L287.1,40.6c-4.5-4.5-11.4-4.9-16-0.4s-4.1,11.3,0.3,15.7l0.1,0.1c4.4,4.4,11.3,4.8,15.9,0.3
			S291.5,45,287.1,40.6z"/>
		<path class="st0" d="M285.1,16.7l11.8-11.8C300.1,1.6,303.6,0,307,0c3.1,0.1,5.9,1.4,8,3.7l0.1,0.1c3.8,3.4,4.8,9,2.5,13.5
			l15.5,2.9l-6.6,6.6L312.7,24l-4.5,4.5l8.2,8.2l-5.7,5.7L285.1,16.7z M309,17.8c2.8-2.8,2.9-5.8,0.7-8l-0.1-0.1
			c-2.4-2.4-5.4-2-8.1,0.8l-5.6,5.6l7.4,7.4L309,17.8z"/>
	</g>
	<g id="ground_floor_plan">
		<g id="ground_floor_map">
			<g id="ground_floor_map-2">
				<polygon class="st1" points="756.5,202.7 703.3,255.8 691.5,255.8 691.5,315.8 659.4,315.8 659.4,415.3 632.9,421.8 
					632.9,442.9 528.6,442.9 528.6,422.1 502.4,415.1 502.4,315.8 469.8,315.8 469.8,255.7 458.9,255.7 381.1,177.8 427.6,131.3 
					685.1,131.3 				"/>
				<polygon class="st1" points="469.9,547.3 444.5,579.9 311.1,579.9 311.1,528.2 443.9,528.2 				"/>
				<rect x="96.2" y="528.2" class="st1" width="40.5" height="51.8"/>
				<rect x="96.2" y="426.1" class="st1" width="40.5" height="47.8"/>
				<rect x="96.2" y="474" class="st1" width="40.5" height="42.4"/>
				<polygon class="st2" points="206.4,330.7 165.9,371.2 141.8,395.3 136.7,400.4 136.7,426.1 96.2,426.1 96.2,365 168.5,292.7 
									"/>
				<rect x="136.7" y="528.2" class="st1" width="121.9" height="51.8"/>
				<polygon class="st1" points="772.6,126.5 786.5,140.4 748.6,177.4 726.9,155.7 735.9,130.9 753.9,130.9 753.9,117.1 420,117.1 
					406.7,130.4 386.9,150.2 359,122.4 398.2,83.2 404.8,76.6 777.5,76.6 800,99.1 				"/>
				<polygon class="st1" points="951.2,250.2 931.4,270 926.2,264.7 915.8,275.1 913.4,272.7 907.4,278.8 898.7,270.1 870,298.8 
					757.1,185.9 801.4,141.6 793.3,133.6 813.9,113 				"/>
				
					<rect x="677" y="474.3" transform="matrix(0.7071 -0.7071 0.7071 0.7071 -118.6092 680.0245)" class="st1" width="169.1" height="17.8"/>
				<polygon class="st1" points="979.1,278.2 949,308.3 937.5,296.8 967.6,266.7 				"/>
				<polygon class="st1" points="967.6,266.7 937.5,296.8 927.2,286.5 937.5,276.1 931.4,270 951.2,250.2 				"/>
				
					<rect x="359" y="122.4" transform="matrix(0.7071 -0.7071 0.7071 0.7071 7.074 301.2527)" class="st1" width="16.3" height="39.4"/>
				
					<rect x="347.6" y="133.9" transform="matrix(0.7071 -0.7071 0.7071 0.7071 -4.4056 296.4891)" class="st1" width="16.2" height="39.4"/>
				<polygon class="st1" points="363.9,173.2 353.2,183.9 344.3,175.1 338.4,181.1 319.4,162.1 336,145.4 				"/>
				<polygon class="st1" points="341,196.1 304.2,232.9 266.2,195 293.4,167.8 303.5,177.9 319.4,162.1 338.4,181.1 332.2,187.3 
									"/>
				<polygon class="st1" points="304.2,232.9 280.3,256.8 206.4,330.7 168.5,292.7 266.2,195 				"/>
				<polygon class="st1" points="884.5,331.5 747.2,468.8 686.5,407.9 739.6,354.8 716.6,331.8 716.6,297.9 733.5,314.8 
					747.7,300.6 716.3,269.2 769.2,216.3 827.3,274.4 				"/>
				<polygon class="st1" points="468.4,400.4 375.8,493 220.8,338.3 345,214 366.8,235.8 389.5,213 403.4,226.8 381.1,249.1 
					403.4,271.4 370.9,303.9 390.9,323.5 404.6,337.2 445.5,296.3 445.5,331.7 422.6,354.6 				"/>
				
					<rect x="351.2" y="198.2" transform="matrix(0.7071 -0.7071 0.7071 0.7071 -43.4229 322.2467)" class="st1" width="32.2" height="30.8"/>
				<polygon class="st1" points="425.6,249.1 403.4,271.4 381.1,249.1 403.4,226.8 				"/>
				<polygon class="st1" points="445.4,268.9 390.9,323.5 370.9,303.9 403.4,271.4 425.6,249.1 				"/>
				<polygon class="st1" points="321.5,454.5 259.5,516.8 222.5,479.8 183.4,518.8 150.7,486 169,467.7 151,449.7 171.6,429.1 
					150.6,408.2 174.5,384.2 212.9,345.9 				"/>
				
					<rect x="877.8" y="277.9" transform="matrix(0.7071 -0.7071 0.7071 0.7071 51.1304 722.7955)" class="st2" width="40.6" height="43.5"/>
				<polygon class="st1" points="878.1,379.2 843.2,414.1 830.9,401.8 865.8,367 				"/>
				<rect x="258.6" y="528.2" class="st1" width="52.5" height="51.8"/>
				<polygon class="st2" points="813.9,113 793.3,133.6 786.5,140.4 772.6,126.5 800,99.1 				"/>
				<path class="st3" d="M540.3,313.3h3.5c0.8,0,1.7,0.2,2.3,0.8c0.4,0.5,0.7,1.1,0.7,1.7l0,0c0,1.1-0.8,2.2-1.9,2.4l2.1,3h-1.7
					l-1.9-2.8h-1.7v2.8h-1.4L540.3,313.3z M543.7,317.2c1,0,1.6-0.5,1.6-1.3l0,0c0-0.9-0.6-1.3-1.6-1.3h-2v2.7L543.7,317.2z"/>
				<path class="st3" d="M548.4,313.3h5.9v1.2h-4.5v2.1h4v1.2h-4v2.1h4.5v1.2h-5.9L548.4,313.3z"/>
				<path class="st3" d="M556,313.3h3c2.2-0.1,4.1,1.5,4.2,3.7c0,0.1,0,0.2,0,0.3l0,0c0,2.2-1.8,4-4,4c-0.1,0-0.1,0-0.2,0h-3V313.3z
					 M557.4,314.6v5.4h1.6c1.4,0.1,2.7-1,2.7-2.4c0-0.1,0-0.2,0-0.3l0,0c0.1-1.4-1.1-2.6-2.5-2.7c-0.1,0-0.2,0-0.2,0L557.4,314.6z"
					/>
				<path class="st3" d="M570.2,314.6h-2.5v-1.3h6.4v1.3h-2.5v6.6h-1.4L570.2,314.6z"/>
				<path class="st3" d="M575.6,313.3h1.4v3.3h3.8v-3.3h1.4v7.9h-1.4v-3.3H577v3.3h-1.4V313.3z"/>
				<path class="st3" d="M584.2,313.3h5.8v1.2h-4.5v2.1h4v1.2h-4v2.1h4.5v1.2h-5.9L584.2,313.3z"/>
				<path class="st3" d="M594.5,313.3h1.3l3.5,8h-1.5l-0.8-1.9h-3.7l-0.8,1.9H591L594.5,313.3z M596.5,318.1l-1.4-3.2l-1.4,3.2
					H596.5z"/>
				<path class="st3" d="M601.6,314.6h-2.5v-1.3h6.4v1.3H603v6.6h-1.4L601.6,314.6z"/>
				<path class="st3" d="M613.4,313.3h3.5c0.8,0,1.7,0.2,2.3,0.8c0.4,0.5,0.7,1.1,0.7,1.7l0,0c0,1.1-0.8,2.2-1.9,2.4l2.1,3h-1.7
					l-1.9-2.8h-1.7v2.8h-1.4V313.3z M616.8,317.2c1,0,1.6-0.5,1.6-1.3l0,0c0-0.9-0.6-1.3-1.6-1.3h-2v2.7L616.8,317.2z"/>
				<path class="st3" d="M606.5,313.3h5.9v1.2h-4.5v2.1h4v1.2h-4v2.1h4.5v1.2h-5.9L606.5,313.3z"/>
				<path class="st3" d="M328.8,387.1h3.5c0.8,0,1.5,0.2,2.1,0.7c0.4,0.3,0.5,0.8,0.5,1.3l0,0c0,0.8-0.4,1.5-1.1,1.8
					c0.9,0.2,1.6,1,1.6,1.9l0,0c0,1.4-1.2,2.2-2.9,2.2h-3.7V387.1z M333.5,389.3c0-0.6-0.5-1-1.4-1h-2v2.1h1.9
					C332.9,390.4,333.5,390.1,333.5,389.3L333.5,389.3z M332.3,391.6h-2.2v2.2h2.3c1,0,1.5-0.4,1.5-1.1l0,0
					C334,392,333.4,391.6,332.3,391.6L332.3,391.6z"/>
				<path class="st3" d="M336.9,387.1h1.4v6.6h4.2v1.3h-5.5L336.9,387.1z"/>
				<path class="st3" d="M346.7,387h1.3l3.5,8H350l-0.8-1.9h-3.7l-0.8,1.9h-1.4L346.7,387z M348.7,391.8l-1.4-3.2l-1.4,3.2
					L348.7,391.8z"/>
				<path class="st3" d="M352,391.1L352,391.1c-0.1-2.2,1.7-4,3.9-4.1c0.1,0,0.1,0,0.2,0c1.2,0,2.3,0.4,3.1,1.2l-0.9,1
					c-0.6-0.6-1.4-1-2.2-1c-1.5,0-2.6,1.2-2.6,2.7c0,0,0,0.1,0,0.1l0,0c-0.1,1.5,1.1,2.7,2.5,2.8c0,0,0,0,0.1,0c0.9,0,1.7-0.4,2.3-1
					l0.9,0.9c-0.8,0.9-2,1.4-3.2,1.4C353.8,395.1,352,393.3,352,391.1C352,391.1,352,391.1,352,391.1z"/>
				<path class="st3" d="M360.7,387.1h1.4v4l3.8-4h1.7l-3.3,3.4l3.5,4.5H366l-2.7-3.6l-1.2,1.3v2.3h-1.4V387.1z"/>
				<path class="st3" d="M372.3,387.1h3.5c0.8,0,1.5,0.2,2.1,0.7c0.4,0.3,0.5,0.8,0.5,1.3l0,0c0,0.8-0.4,1.5-1.1,1.8
					c0.9,0.2,1.6,1,1.6,1.9l0,0c0,1.4-1.2,2.2-2.9,2.2h-3.7V387.1z M377.1,389.3c0-0.6-0.5-1-1.4-1h-2v2.1h1.9
					C376.5,390.4,377.1,390.1,377.1,389.3L377.1,389.3z M375.9,391.6h-2.2v2.2h2.3c1,0,1.5-0.4,1.5-1.1l0,0
					C377.5,392,377,391.6,375.9,391.6L375.9,391.6z"/>
				<path class="st3" d="M380.1,391.1L380.1,391.1c0-2.3,1.9-4.1,4.1-4.1c2.3,0,4.1,1.9,4.1,4.1l0,0c0,2.3-1.9,4.1-4.1,4.1
					C382,395.2,380.1,393.4,380.1,391.1z M386.9,391.1L386.9,391.1c0.1-1.5-1.1-2.8-2.6-2.8c0,0-0.1,0-0.1,0c-1.5,0-2.7,1.2-2.7,2.7
					c0,0,0,0.1,0,0.1l0,0c-0.1,1.5,1.1,2.7,2.6,2.8c0,0,0.1,0,0.1,0c1.5,0,2.7-1.2,2.7-2.6C386.9,391.2,386.9,391.1,386.9,391.1z"/>
				<path class="st3" d="M396.2,387.1l-2.8,3.9l2.9,4h-1.6l-2.1-3l-2.1,3h-1.6l2.9-4l-2.8-3.9h1.6l2,2.9l2-2.9H396.2z"/>
				<path class="st3" d="M338,402h-2.5v-1.3h6.4v1.3h-2.5v6.6H338V402z"/>
				<path class="st3" d="M343.4,400.7h1.4v3.3h3.8v-3.3h1.4v7.9h-1.4v-3.3h-3.8v3.3h-1.4V400.7z"/>
				<path class="st3" d="M351.9,400.7h5.9v1.2h-4.5v2.1h4v1.2h-4v2.1h4.5v1.2h-5.9L351.9,400.7z"/>
				<path class="st3" d="M362.3,400.6h1.3l3.5,8h-1.5l-0.8-1.9h-3.7l-0.8,1.9h-1.4L362.3,400.6z M364.3,405.4l-1.4-3.2l-1.4,3.2
					H364.3z"/>
				<path class="st3" d="M369.4,402h-2.5v-1.3h6.4v1.3h-2.5v6.6h-1.4V402z"/>
				<path class="st3" d="M381.2,400.7h3.5c0.8,0,1.7,0.2,2.3,0.8c0.4,0.5,0.7,1.1,0.7,1.7l0,0c0,1.1-0.8,2.2-1.9,2.4l2.1,3h-1.6
					l-1.9-2.8h-1.7v2.8h-1.4L381.2,400.7z M384.6,404.6c1,0,1.6-0.5,1.6-1.3l0,0c0-0.9-0.6-1.3-1.6-1.3h-2v2.7L384.6,404.6z"/>
				<path class="st3" d="M374.3,400.7h5.9v1.2h-4.5v2.1h4v1.2h-4v2.1h4.5v1.2h-5.9L374.3,400.7z"/>
				<path class="st4" d="M369.5,562.1L369.5,562.1c0-1.9,1.1-3.5,2.9-3.5s2.8,1.6,2.8,3.5l0,0c0,1.9-1.1,3.5-2.8,3.5
					S369.5,564,369.5,562.1z M374.4,562.1L374.4,562.1c0-1.5-0.8-2.8-2-2.8s-2,1.3-2,2.8l0,0c0,1.5,0.8,2.8,2.1,2.8
					S374.4,563.6,374.4,562.1z"/>
				<path class="st4" d="M376.4,562.1L376.4,562.1c0-1.9,1.1-3.5,2.9-3.5s2.8,1.6,2.8,3.5l0,0c0,1.9-1.1,3.5-2.8,3.5
					S376.4,564,376.4,562.1z M381.2,562.1L381.2,562.1c0-1.5-0.8-2.8-2-2.8s-2,1.3-2,2.8l0,0c0,1.5,0.8,2.8,2.1,2.8
					S381.2,563.6,381.2,562.1z"/>
				<path class="st4" d="M386.8,563.8h-3.5l-0.2-0.6l3.8-4.6h0.7v4.5h1v0.6h-1v1.6h-0.7V563.8z M386.8,563.2v-3.5l-2.8,3.5H386.8z"
					/>
				<path class="st4" d="M108.5,495L108.5,495c0-1.9,1.1-3.5,2.8-3.5s2.8,1.6,2.8,3.5l0,0c0,1.9-1.1,3.5-2.8,3.5
					S108.5,496.9,108.5,495z M113.3,495L113.3,495c0-1.5-0.8-2.8-2.1-2.8s-2,1.3-2,2.8l0,0c0,1.5,0.8,2.8,2.1,2.8
					S113.3,496.4,113.3,495z"/>
				<path class="st4" d="M116.4,492.3l-1.3,0.4l-0.2-0.6l1.6-0.6h0.6v6.8h-0.8V492.3z"/>
				<path class="st4" d="M118.7,495L118.7,495c0-1.9,1.1-3.5,2.8-3.5s2.8,1.6,2.8,3.5l0,0c0,1.9-1.1,3.5-2.8,3.5
					S118.7,496.9,118.7,495z M123.6,495L123.6,495c0-1.5-0.8-2.8-2.1-2.8s-2,1.3-2,2.8l0,0c0,1.5,0.8,2.8,2.1,2.8
					S123.6,496.4,123.6,495z"/>
				<path class="st4" d="M106.4,403.6L106.4,403.6c0-1.9,1.1-3.5,2.8-3.5s2.8,1.6,2.8,3.5l0,0c0,1.9-1.1,3.5-2.8,3.5
					S106.4,405.5,106.4,403.6z M111.2,403.6L111.2,403.6c0-1.5-0.8-2.8-2.1-2.8s-2,1.3-2,2.8l0,0c0,1.5,0.8,2.8,2.1,2.8
					S111.2,405.1,111.2,403.6z"/>
				<path class="st4" d="M114.3,401l-1.3,0.4l-0.2-0.6l1.6-0.6h0.5v6.8h-0.8L114.3,401z"/>
				<path class="st4" d="M116.5,405.9l0.6-0.5c0.5,0.6,1.2,1,2,1c0.7,0.1,1.4-0.5,1.5-1.2c0,0,0-0.1,0-0.1l0,0
					c0-0.8-0.8-1.3-1.9-1.3h-0.4l-0.2-0.5l2.1-2.4h-3.3v-0.7h4.3v0.6l-2.2,2.3c1.2,0.1,2.2,0.7,2.2,1.9l0,0c0,1.2-1,2.1-2.2,2
					c0,0,0,0-0.1,0C118,407.1,117.1,406.6,116.5,405.9z"/>
				<path class="st4" d="M158.1,334.3L158.1,334.3c0-1.9,1.1-3.5,2.9-3.5s2.8,1.6,2.8,3.5l0,0c0,1.9-1.1,3.5-2.8,3.5
					S158.1,336.2,158.1,334.3z M163,334.3L163,334.3c0-1.5-0.8-2.8-2.1-2.8s-2,1.3-2,2.8l0,0c0,1.5,0.8,2.8,2.1,2.8
					S163,335.8,163,334.3L163,334.3z"/>
				<path class="st4" d="M166.1,331.7l-1.3,0.4l-0.2-0.6l1.6-0.6h0.6v6.8h-0.8V331.7z"/>
				<path class="st4" d="M168.3,336.7l0.5-0.5c0.5,0.5,1.2,0.9,1.9,0.9c0.8,0.1,1.6-0.6,1.6-1.4c0,0,0-0.1,0-0.1l0,0
					c0-0.8-0.7-1.5-1.6-1.4c0,0-0.1,0-0.1,0c-0.5,0-1,0.1-1.4,0.4l-0.5-0.3l0.2-3.3h3.9v0.7h-3.2l-0.1,2.1c0.4-0.2,0.9-0.3,1.3-0.3
					c1.1-0.1,2.2,0.7,2.3,1.8c0,0.1,0,0.1,0,0.2l0,0c0,1.2-1,2.2-2.2,2.2c-0.1,0-0.1,0-0.2,0C169.8,337.7,168.9,337.4,168.3,336.7z"
					/>
				<path class="st4" d="M219,273.7L219,273.7c0-1.9,1.1-3.5,2.9-3.5s2.8,1.6,2.8,3.5l0,0c0,1.9-1.1,3.5-2.8,3.5
					S219,275.5,219,273.7z M223.9,273.7L223.9,273.7c0-1.5-0.8-2.8-2.1-2.8s-2,1.3-2,2.8l0,0c0,1.5,0.8,2.8,2.1,2.8
					S223.9,275.1,223.9,273.7L223.9,273.7z"/>
				<path class="st4" d="M226.9,271l-1.3,0.4l-0.2-0.6l1.6-0.6h0.6v6.8h-0.8V271z"/>
				<path class="st4" d="M233.5,273.6v-0.1c-0.4,0.7-1.1,1.1-1.9,1.1c-1.2,0.1-2.2-0.7-2.3-1.9c0-0.1,0-0.1,0-0.2l0,0
					c0-1.3,1-2.3,2.3-2.3c0,0,0.1,0,0.1,0c0.7,0,1.3,0.2,1.8,0.7c0.6,0.7,0.9,1.7,0.8,2.6l0,0c0,2.1-1.1,3.6-2.8,3.6
					c-0.8,0-1.5-0.3-2.1-0.8l0.4-0.6c0.4,0.4,1,0.7,1.6,0.7C232.8,276.4,233.5,275.1,233.5,273.6z M233.3,272.4L233.3,272.4
					c0-0.9-0.8-1.6-1.6-1.5c0,0-0.1,0-0.1,0c-0.8,0-1.6,0.6-1.6,1.5c0,0,0,0.1,0,0.1l0,0c0,0.8,0.7,1.5,1.5,1.5c0,0,0.1,0,0.1,0
					C232.5,274,233.3,273.3,233.3,272.4C233.3,272.4,233.3,272.4,233.3,272.4z"/>
				<path class="st4" d="M526.3,96.8L526.3,96.8c0-1.9,1.1-3.5,2.8-3.5s2.9,1.6,2.9,3.4l0,0c0,1.9-1.1,3.5-2.8,3.5
					S526.3,98.7,526.3,96.8z M531.2,96.8L531.2,96.8c0-1.5-0.8-2.8-2-2.8s-2,1.3-2,2.8l0,0c0,1.5,0.8,2.8,2.1,2.8
					S531.2,98.2,531.2,96.8z"/>
				<path class="st4" d="M532.9,99.5l2.4-2.2c1-0.9,1.4-1.4,1.4-2.1c0-0.7-0.6-1.3-1.3-1.3c0,0,0,0-0.1,0c-0.8,0-1.4,0.5-1.8,1.2
					l-0.6-0.4c0.5-0.9,1.4-1.5,2.4-1.4c1.1-0.1,2,0.7,2.1,1.8c0,0,0,0.1,0,0.1l0,0c0,1-0.5,1.6-1.7,2.6l-1.8,1.6h3.6v0.7h-4.7
					L532.9,99.5z"/>
				<path class="st4" d="M543,96.7v-0.1c-0.4,0.7-1.1,1.1-1.9,1.1c-1.2,0.1-2.2-0.7-2.3-1.9c0-0.1,0-0.1,0-0.2l0,0
					c0-1.3,1-2.3,2.3-2.3c0,0,0.1,0,0.1,0c0.7,0,1.3,0.2,1.8,0.7c0.6,0.7,0.9,1.7,0.8,2.6l0,0c0,2.1-1.1,3.6-2.8,3.6
					c-0.8,0-1.5-0.3-2-0.8l0.4-0.6c0.4,0.4,1,0.7,1.7,0.7C542.3,99.5,543,98.2,543,96.7z M542.9,95.5L542.9,95.5
					c0-0.9-0.8-1.5-1.7-1.5c0,0,0,0,0,0c-0.8,0-1.6,0.6-1.6,1.5c0,0,0,0.1,0,0.1l0,0c0,0.8,0.7,1.5,1.6,1.4c0,0,0.1,0,0.1,0
					C542.1,97.1,542.8,96.4,542.9,95.5C542.9,95.5,542.9,95.5,542.9,95.5L542.9,95.5z"/>
				<path class="st4" d="M559.6,174.6L559.6,174.6c0-1.9,1.1-3.5,2.8-3.5s2.8,1.6,2.8,3.4l0,0c0,1.9-1.1,3.5-2.8,3.5
					S559.6,176.4,559.6,174.6z M564.5,174.6L564.5,174.6c0-1.5-0.8-2.8-2-2.8s-2,1.3-2,2.8l0,0c0,1.5,0.8,2.8,2.1,2.8
					S564.5,176,564.5,174.6z"/>
				<path class="st4" d="M566.3,176.8l0.6-0.5c0.5,0.6,1.2,1,2,1c0.7,0.1,1.4-0.5,1.5-1.2c0,0,0-0.1,0-0.1l0,0
					c0-0.8-0.8-1.3-1.9-1.3H568l-0.2-0.4l2.1-2.4h-3.3v-0.7h4.3v0.6l-2.1,2.3c1.2,0.1,2.2,0.7,2.2,1.9l0,0c0,1.2-1,2.1-2.2,2
					c0,0,0,0-0.1,0C567.8,178.1,566.9,177.6,566.3,176.8z"/>
				<path class="st4" d="M572.2,174.6L572.2,174.6c0-1.9,1.1-3.5,2.8-3.5s2.8,1.6,2.8,3.4l0,0c0,1.9-1.1,3.5-2.8,3.5
					S572.2,176.4,572.2,174.6z M577.1,174.6L577.1,174.6c0-1.5-0.8-2.8-2-2.8s-2,1.3-2,2.8l0,0c0,1.5,0.8,2.8,2.1,2.8
					S577.1,176,577.1,174.6z"/>
				<path class="st4" d="M806.2,180.6L806.2,180.6c0-1.9,1.1-3.5,2.8-3.5s2.8,1.6,2.8,3.4l0,0c0,1.9-1.1,3.5-2.8,3.5
					S806.2,182.5,806.2,180.6z M811.1,180.6L811.1,180.6c0-1.5-0.8-2.8-2-2.8s-2,1.3-2,2.8l0,0c0,1.5,0.8,2.8,2.1,2.8
					S811.1,182.1,811.1,180.6z"/>
				<path class="st4" d="M816.6,182.4h-3.5l-0.2-0.6l3.8-4.6h0.7v4.5h1v0.6h-1v1.6h-0.7V182.4z M816.6,181.7v-3.5l-2.8,3.5H816.6z"
					/>
				<path class="st4" d="M820.4,178l-1.3,0.4l-0.2-0.6l1.6-0.6h0.6v6.8h-0.8V178z"/>
				<path class="st4" d="M823.8,226.6L823.8,226.6c0-1.9,1.1-3.5,2.8-3.5s2.8,1.6,2.8,3.4l0,0c0,1.9-1.1,3.5-2.8,3.5
					S823.8,228.4,823.8,226.6z M828.7,226.6L828.7,226.6c0-1.5-0.8-2.8-2-2.8s-2,1.3-2,2.8l0,0c0,1.5,0.8,2.8,2.1,2.8
					S828.7,228,828.7,226.6z"/>
				<path class="st4" d="M834.2,228.3h-3.5l-0.2-0.6l3.8-4.6h0.7v4.5h1v0.6h-1v1.6h-0.7V228.3z M834.2,227.7v-3.5l-2.8,3.5H834.2z"
					/>
				<path class="st4" d="M836.9,229.3l2.4-2.1c1-0.9,1.4-1.4,1.4-2.1c0-0.7-0.6-1.3-1.3-1.3c0,0-0.1,0-0.1,0c-0.8,0-1.4,0.5-1.8,1.1
					l-0.6-0.4c0.5-0.9,1.4-1.5,2.4-1.4c1.1-0.1,2,0.7,2.1,1.8c0,0,0,0.1,0,0.1l0,0c0,1-0.5,1.6-1.7,2.6l-1.8,1.6h3.6v0.7H837
					L836.9,229.3z"/>
				<path class="st4" d="M871.4,241.4L871.4,241.4c0-1.9,1.1-3.5,2.8-3.5s2.8,1.6,2.8,3.4l0,0c0,1.9-1.1,3.5-2.8,3.5
					S871.4,243.2,871.4,241.4z M876.3,241.4L876.3,241.4c0-1.5-0.8-2.8-2-2.8s-2,1.3-2,2.8l0,0c0,1.5,0.8,2.8,2.1,2.8
					S876.3,242.8,876.3,241.4z"/>
				<path class="st4" d="M881.8,243.1h-3.5l-0.2-0.6l3.8-4.6h0.7v4.5h1v0.6h-1v1.6h-0.7L881.8,243.1z M881.8,242.5V239l-2.8,3.5
					H881.8z"/>
				<path class="st4" d="M884.6,243.6l0.6-0.5c0.5,0.6,1.2,1,2,1c0.7,0.1,1.4-0.5,1.5-1.2c0,0,0-0.1,0-0.1l0,0
					c0-0.8-0.8-1.3-1.9-1.3h-0.4l-0.2-0.4l2.1-2.4H885V238h4.3v0.6l-2.1,2.3c1.2,0.1,2.2,0.7,2.2,1.9l0,0c0,1.2-1,2.1-2.2,2
					c0,0,0,0-0.1,0C886.2,244.8,885.2,244.4,884.6,243.6z"/>
				<path class="st4" d="M833.2,320.1L833.2,320.1c0-1.9,1.1-3.5,2.8-3.5s2.8,1.6,2.8,3.5l0,0c0,1.9-1.1,3.5-2.8,3.5
					S833.2,322,833.2,320.1z M838.1,320.1L838.1,320.1c0-1.5-0.8-2.8-2-2.8s-2,1.3-2,2.8l0,0c0,1.5,0.8,2.8,2.1,2.8
					S838.1,321.6,838.1,320.1z"/>
				<path class="st4" d="M843.6,321.9H840l-0.2-0.6l3.8-4.6h0.7v4.5h1v0.6h-1v1.6h-0.7L843.6,321.9z M843.6,321.3v-3.5l-2.8,3.5
					L843.6,321.3z"/>
				<path class="st4" d="M846.4,322.5l0.5-0.5c0.5,0.5,1.2,0.9,1.9,0.9c0.8,0.1,1.6-0.6,1.6-1.4c0,0,0-0.1,0-0.1l0,0
					c0-0.8-0.7-1.5-1.6-1.4c0,0-0.1,0-0.1,0c-0.5,0-1,0.1-1.4,0.4l-0.5-0.3l0.2-3.3h3.9v0.7h-3.2l-0.1,2.1c0.4-0.2,0.9-0.3,1.3-0.3
					c1.1-0.1,2.2,0.7,2.3,1.8c0,0.1,0,0.1,0,0.2l0,0c0,1.2-1,2.2-2.2,2.2c-0.1,0-0.1,0-0.2,0C847.9,323.6,847,323.2,846.4,322.5z"/>
				<path class="st4" d="M777.6,265.1L777.6,265.1c0-1.9,1.1-3.5,2.8-3.5s2.8,1.6,2.8,3.5l0,0c0,1.9-1.1,3.5-2.8,3.5
					S777.6,267,777.6,265.1z M782.5,265.1L782.5,265.1c0-1.5-0.8-2.8-2-2.8s-2,1.3-2,2.8l0,0c0,1.5,0.8,2.8,2.1,2.8
					S782.5,266.5,782.5,265.1z"/>
				<path class="st4" d="M784.3,267.3l0.6-0.5c0.5,0.6,1.2,1,2,1c0.7,0.1,1.4-0.5,1.5-1.2c0,0,0-0.1,0-0.1l0,0
					c0-0.8-0.8-1.3-1.9-1.3H786l-0.2-0.5l2.1-2.4h-3.3v-0.7h4.3v0.6l-2.1,2.3c1.2,0.1,2.2,0.7,2.2,1.9l0,0c0,1.2-1,2.1-2.2,2
					c0,0,0,0-0.1,0C785.8,268.6,784.9,268.1,784.3,267.3z"/>
				<path class="st4" d="M791.1,267.9c-0.6-0.7-1-1.7-0.8-2.6l0,0c0-2,1-3.6,2.8-3.6c0.7,0,1.5,0.3,2,0.8l-0.4,0.6
					c-0.4-0.4-1-0.6-1.6-0.7c-1.3,0-2,1.4-2,2.9v0.1c0.4-0.6,1.1-1,1.9-1c1.2-0.1,2.2,0.8,2.3,2c0,0,0,0.1,0,0.1l0,0
					c0,1.3-1.1,2.3-2.3,2.2c0,0-0.1,0-0.1,0C792.2,268.6,791.6,268.3,791.1,267.9z M794.5,266.3L794.5,266.3c0-0.8-0.7-1.5-1.5-1.4
					c0,0-0.1,0-0.1,0c-0.9-0.1-1.6,0.6-1.7,1.5c0,0,0,0,0,0l0,0c0,0.9,0.8,1.5,1.6,1.5c0,0,0.1,0,0.1,0c0.8,0.1,1.6-0.6,1.6-1.4
					C794.5,266.4,794.5,266.4,794.5,266.3L794.5,266.3z"/>
				<path class="st4" d="M338.9,273.7L338.9,273.7c0-1.9,1.1-3.5,2.9-3.5s2.8,1.6,2.8,3.5l0,0c0,1.9-1.1,3.5-2.8,3.5
					S338.9,275.5,338.9,273.7z M343.8,273.7L343.8,273.7c0-1.5-0.8-2.8-2-2.8s-2,1.3-2,2.8l0,0c0,1.5,0.8,2.8,2.1,2.8
					S343.8,275.1,343.8,273.7L343.8,273.7z"/>
				<path class="st4" d="M345.5,276.4l2.4-2.1c1-0.9,1.4-1.4,1.4-2.1c0-0.7-0.6-1.3-1.3-1.3c0,0-0.1,0-0.1,0c-0.8,0-1.4,0.5-1.8,1.1
					l-0.6-0.4c0.5-0.9,1.4-1.5,2.4-1.4c1.1-0.1,2,0.7,2.1,1.8c0,0,0,0.1,0,0.1l0,0c0,1-0.5,1.6-1.7,2.6l-1.8,1.6h3.6v0.7h-4.7
					L345.5,276.4z"/>
				<path class="st4" d="M351.3,276.1l0.5-0.5c0.5,0.5,1.2,0.9,1.9,0.9c0.8,0.1,1.6-0.6,1.6-1.4c0,0,0-0.1,0-0.1l0,0
					c0-0.8-0.7-1.5-1.6-1.4c0,0-0.1,0-0.1,0c-0.5,0-1,0.1-1.4,0.4l-0.5-0.3l0.2-3.3h3.9v0.7h-3.2l-0.1,2.1c0.4-0.2,0.9-0.3,1.3-0.3
					c1.1-0.1,2.2,0.7,2.3,1.8c0,0.1,0,0.1,0,0.2l0,0c0,1.2-1,2.2-2.2,2.2c-0.1,0-0.1,0-0.2,0C352.8,277.1,351.9,276.7,351.3,276.1z"
					/>
				<path class="st4" d="M296.1,313.4L296.1,313.4c0-1.9,1.1-3.5,2.9-3.5s2.8,1.6,2.8,3.5l0,0c0,1.9-1.1,3.5-2.8,3.5
					S296.1,315.3,296.1,313.4z M301,313.4L301,313.4c0-1.5-0.8-2.8-2-2.8s-2,1.3-2,2.8l0,0c0,1.5,0.8,2.8,2.1,2.8
					S301,314.9,301,313.4L301,313.4z"/>
				<path class="st4" d="M302.8,316.2l2.4-2.1c1-0.9,1.4-1.4,1.4-2.1c0-0.7-0.6-1.3-1.3-1.3c0,0-0.1,0-0.1,0c-0.8,0-1.4,0.5-1.8,1.1
					l-0.6-0.4c0.5-0.9,1.4-1.4,2.4-1.4c1.1-0.1,2,0.7,2.1,1.8c0,0,0,0.1,0,0.1l0,0c0,1-0.5,1.6-1.7,2.6l-1.8,1.6h3.6v0.7h-4.7
					L302.8,316.2z"/>
				<path class="st4" d="M309.8,310.8l-1.3,0.4l-0.2-0.6l1.6-0.6h0.6v6.8h-0.8L309.8,310.8z"/>
				<path class="st4" d="M248.3,443.3h5v1h-3.8v1.7h3.4v1h-3.4v1.8h3.8v1h-5L248.3,443.3z"/>
				<path class="st4" d="M260.7,450.2l-0.8-0.7c-0.6,0.4-1.3,0.6-2,0.6c-1.9,0-3.4-1.4-3.5-3.3c0,0,0-0.1,0-0.1l0,0
					c0.1-1.9,1.8-3.4,3.8-3.2c1.7,0.1,3.1,1.5,3.2,3.2l0,0c0,0.7-0.2,1.5-0.7,2.1l0.8,0.6L260.7,450.2z M259.1,448.8l-1.2-1l0.8-0.9
					l1.2,1.1c0.2-0.4,0.3-0.8,0.3-1.3l0,0c0-1.3-0.9-2.3-2.2-2.4c0,0,0,0-0.1,0c-1.3,0-2.3,1-2.3,2.3c0,0,0,0.1,0,0.1l0,0
					c0,1.3,1,2.3,2.2,2.4C258.3,449,258.7,448.9,259.1,448.8L259.1,448.8z"/>
				<path class="st4" d="M262.7,447.2v-3.9h1.2v3.8c0,1.2,0.6,1.9,1.7,1.9s1.7-0.6,1.7-1.9v-3.9h1.2v3.8c0.2,1.5-0.9,2.8-2.3,3
					c-0.2,0-0.4,0-0.6,0c-1.5,0.1-2.7-1-2.9-2.4C262.7,447.6,262.7,447.4,262.7,447.2z"/>
				<path class="st4" d="M270.1,443.3h1.2v6.7h-1.2V443.3z"/>
				<path class="st4" d="M273.1,443.3h2.6c1.2-0.2,2.4,0.7,2.5,1.9c0,0.1,0,0.2,0,0.3l0,0c0,1.5-1.2,2.3-2.7,2.3h-1.3v2.1h-1.2
					V443.3z M275.7,446.8c0.9,0,1.5-0.5,1.5-1.2l0,0c0-0.8-0.6-1.2-1.5-1.2h-1.4v2.4L275.7,446.8z"/>
				<path class="st4" d="M279.5,443.3h1.3l2,3.2l2-3.2h1.3v6.7h-1.2v-4.8l-2.1,3.2l0,0l-2.1-3.1v4.8h-1.2L279.5,443.3z"/>
				<path class="st4" d="M287.8,443.3h5v1H289v1.7h3.4v1H289v1.8h3.8v1h-5V443.3z"/>
				<path class="st4" d="M294.3,443.3h1.1l3.6,4.6v-4.6h1.2v6.7h-1l-3.7-4.8v4.8h-1.2L294.3,443.3z"/>
				<path class="st4" d="M303.5,444.4h-2.1v-1.1h5.5v1.1h-2.1v5.6h-1.2V444.4z"/>
				<path class="st4" d="M257.5,458.2L257.5,458.2c0-1.9,1.5-3.4,3.3-3.5c0,0,0.1,0,0.1,0c1,0,1.9,0.3,2.6,1l-0.8,0.9
					c-0.5-0.5-1.2-0.8-1.9-0.8c-1.2,0-2.2,1.1-2.2,2.3c0,0,0,0,0,0.1l0,0c-0.1,1.2,0.9,2.3,2.1,2.4c0,0,0,0,0.1,0
					c0.7,0,1.4-0.3,1.9-0.9l0.8,0.8c-0.7,0.8-1.7,1.2-2.7,1.2C259.1,461.6,257.6,460.1,257.5,458.2
					C257.5,458.3,257.5,458.2,257.5,458.2z"/>
				<path class="st4" d="M264.9,454.8h5v1h-3.8v1.7h3.4v1h-3.4v1.8h3.8v1h-5L264.9,454.8z"/>
				<path class="st4" d="M271.3,454.8h1.1l3.6,4.6v-4.6h1.2v6.7h-1l-3.7-4.8v4.8h-1.2L271.3,454.8z"/>
				<path class="st4" d="M280.5,455.9h-2.1v-1.1h5.5v1.1h-2.1v5.6h-1.2V455.9z"/>
				<path class="st4" d="M285.1,454.8h5v1h-3.8v1.7h3.4v1h-3.4v1.8h3.8v1h-5L285.1,454.8z"/>
				<path class="st4" d="M291.5,454.8h3c0.7,0,1.4,0.2,1.9,0.7c0.4,0.4,0.6,0.9,0.6,1.5l0,0c0,1-0.6,1.8-1.6,2l1.8,2.5h-1.4
					l-1.6-2.3h-1.5v2.3h-1.2L291.5,454.8z M294.4,458.2c0.8,0,1.4-0.4,1.4-1.1l0,0c0-0.7-0.5-1.1-1.4-1.1h-1.7v2.2L294.4,458.2z"/>
				<path class="st4" d="M732.7,390.2h3.4c0.7-0.1,1.5,0.2,2,0.7c0.3,0.3,0.5,0.8,0.5,1.2l0,0c0,0.7-0.4,1.4-1.1,1.7
					c0.9,0.2,1.5,0.9,1.5,1.8l0,0c0,1.4-1.1,2.1-2.8,2.1h-3.5L732.7,390.2z M737.2,392.4c0-0.6-0.5-1-1.3-1H734v2h1.8
					C736.7,393.4,737.2,393,737.2,392.4z M736.1,394.5H734v2.1h2.2c0.9,0,1.5-0.4,1.5-1l0,0C737.7,394.9,737.1,394.5,736.1,394.5
					L736.1,394.5z"/>
				<path class="st4" d="M740.5,390.2h1.3v6.3h4v1.2h-5.3L740.5,390.2z"/>
				<path class="st4" d="M746.8,394.6v-4.4h1.3v4.3c0,1.4,0.7,2.1,1.9,2.1s1.9-0.7,1.9-2.1v-4.4h1.3v4.3c0,2.2-1.3,3.4-3.2,3.4
					c-1.7,0.1-3.1-1.1-3.2-2.8C746.8,394.9,746.8,394.7,746.8,394.6z"/>
				<path class="st4" d="M755.1,390.2h5.6v1.2h-4.3v2h3.8v1.2h-3.8v2h4.3v1.2h-5.7L755.1,390.2z"/>
				<path class="st4" d="M765.5,390.2h1.3v3.1h3.6v-3.1h1.3v7.5h-1.3v-3.2h-3.6v3.2h-1.3V390.2z"/>
				<path class="st4" d="M776.4,390.2h1.2l3.3,7.6h-1.4l-0.8-1.8h-3.6l-0.8,1.8h-1.4L776.4,390.2z M778.3,394.8l-1.3-3l-1.3,3H778.3
					z"/>
				<path class="st4" d="M782.3,390.2h1.3v6.3h4v1.2h-5.3L782.3,390.2z"/>
				<path class="st4" d="M788.9,390.2h1.3v6.3h4v1.2H789L788.9,390.2z"/>
				<path class="st4" d="M332.3,546.3h3c1.8,0,2.9,1,2.9,2.5l0,0c0,1.7-1.4,2.6-3,2.6h-1.5v2.4h-1.3L332.3,546.3z M335.2,550.3
					c1,0,1.6-0.6,1.6-1.3l0,0c0-0.9-0.6-1.3-1.6-1.3h-1.5v2.7L335.2,550.3z"/>
				<path class="st4" d="M339.5,546.3h3.4c0.8-0.1,1.6,0.2,2.2,0.8c0.4,0.4,0.6,1,0.6,1.6l0,0c0,1.1-0.7,2-1.8,2.3l2,2.9h-1.6
					l-1.9-2.6h-1.7v2.6h-1.3L339.5,546.3z M342.8,550.1c1,0,1.5-0.5,1.5-1.3l0,0c0-0.8-0.6-1.2-1.6-1.2h-1.9v2.5L342.8,550.1z"/>
				<path class="st4" d="M347,550.1L347,550.1c0.1-2.2,2-3.9,4.1-3.7c2,0.1,3.6,1.7,3.7,3.7l0,0c-0.1,2.2-2,3.9-4.1,3.7
					C348.7,553.8,347.1,552.2,347,550.1z M353.5,550.1L353.5,550.1c0.1-1.4-1.1-2.6-2.5-2.7c0,0-0.1,0-0.1,0c-1.4,0-2.6,1.1-2.6,2.5
					c0,0,0,0.1,0,0.1l0,0c0,1.4,1.1,2.6,2.5,2.7c0,0,0.1,0,0.1,0c1.4,0,2.5-1.1,2.5-2.5C353.5,550.2,353.5,550.2,353.5,550.1
					L353.5,550.1z"/>
				<path class="st4" d="M355.4,552.8l0.9-0.9c0.3,0.5,0.9,0.9,1.5,0.9c0.7,0,1.2-0.5,1.2-1.5v-4.9h1.4v5c0,0.7-0.2,1.5-0.7,2
					c-0.5,0.5-1.2,0.7-1.8,0.7C356.9,554,356,553.6,355.4,552.8z"/>
				<path class="st4" d="M362.2,546.3h5.6v1.2h-4.3v2h3.8v1.2h-3.8v2h4.3v1.2h-5.7V546.3z"/>
				<path class="st4" d="M369.1,550.1L369.1,550.1c0-2.1,1.6-3.9,3.7-3.9c0.1,0,0.1,0,0.2,0c1.1-0.1,2.2,0.4,3,1.2l-0.9,1
					c-0.5-0.6-1.3-0.9-2.1-0.9c-1.4,0-2.5,1.2-2.5,2.6c0,0,0,0,0,0.1l0,0c-0.1,1.4,1,2.6,2.4,2.7c0,0,0.1,0,0.1,0
					c0.8,0,1.6-0.4,2.2-1l0.9,0.9c-0.8,0.9-1.9,1.4-3.1,1.3c-2.1,0.1-3.8-1.6-3.9-3.7C369.1,550.2,369.1,550.2,369.1,550.1z"/>
				<path class="st4" d="M379.2,547.6h-2.4v-1.2h6.2v1.2h-2.4v6.3h-1.3L379.2,547.6z"/>
				<path class="st4" d="M387.1,552.8l0.8-1c0.6,0.6,1.5,1,2.4,1c0.8,0,1.3-0.4,1.3-1l0,0c0-0.5-0.3-0.8-1.7-1.2
					c-1.6-0.4-2.5-0.9-2.5-2.2l0,0c0.1-1.3,1.1-2.3,2.4-2.2c0.1,0,0.1,0,0.2,0c1,0,2,0.3,2.7,1l-0.7,1c-0.6-0.5-1.3-0.7-2-0.8
					c-0.8,0-1.2,0.4-1.2,0.9l0,0c0,0.6,0.4,0.8,1.8,1.2s2.4,1,2.4,2.2l0,0c0,1.4-1.1,2.2-2.7,2.2C389.1,554,388,553.6,387.1,552.8z"
					/>
				<path class="st4" d="M394.5,546.3h3c1.8,0,2.9,1,2.9,2.5l0,0c0,1.7-1.4,2.6-3,2.6h-1.5v2.4h-1.4V546.3z M397.4,550.3
					c1,0,1.6-0.6,1.6-1.3l0,0c0-0.9-0.6-1.3-1.6-1.3h-1.5v2.7L397.4,550.3z"/>
				<path class="st4" d="M403.6,546.3h1.2l3.3,7.6h-1.4l-0.8-1.8h-3.6l-0.8,1.8h-1.4L403.6,546.3z M405.5,550.9l-1.3-3l-1.3,3H405.5
					z"/>
				<path class="st4" d="M408.7,550.1L408.7,550.1c0-2.1,1.6-3.9,3.7-3.9c0.1,0,0.1,0,0.2,0c1.1-0.1,2.2,0.4,3,1.2l-0.9,1
					c-0.5-0.6-1.3-0.9-2.1-0.9c-1.4,0-2.5,1.2-2.5,2.6c0,0,0,0,0,0.1l0,0c-0.1,1.4,1,2.6,2.4,2.7c0,0,0.1,0,0.1,0
					c0.8,0,1.6-0.4,2.2-1l0.9,0.9c-0.8,0.9-1.9,1.4-3.1,1.3c-2.1,0-3.8-1.7-3.8-3.8C408.7,550.2,408.7,550.2,408.7,550.1z"/>
				<path class="st4" d="M417,546.3h5.6v1.2h-4.3v2h3.8v1.2h-3.8v2h4.3v1.2H417L417,546.3z"/>
				<path class="st5" d="M566.2,453.9h1.2v5.6h3.5v1.1h-4.7V453.9z"/>
				<path class="st5" d="M571.5,457.2L571.5,457.2c0.1-1.9,1.8-3.4,3.8-3.2c1.7,0.1,3.1,1.5,3.2,3.2l0,0c-0.1,1.9-1.8,3.4-3.8,3.2
					C573,460.3,571.6,459,571.5,457.2z M577.2,457.2L577.2,457.2c0-1.3-0.9-2.3-2.2-2.4c0,0,0,0-0.1,0c-1.3,0-2.3,1-2.3,2.3
					c0,0,0,0.1,0,0.1l0,0c0,1.3,0.9,2.3,2.2,2.4c0,0,0.1,0,0.1,0c1.2,0,2.3-1,2.3-2.3C577.2,457.3,577.2,457.3,577.2,457.2
					L577.2,457.2z"/>
				<path class="st5" d="M579.9,453.9h3c0.6,0,1.3,0.2,1.8,0.6c0.3,0.3,0.5,0.7,0.5,1.1l0,0c0,0.7-0.4,1.3-1,1.5
					c0.8,0.2,1.3,0.8,1.3,1.6l0,0c0,1.2-1,1.8-2.5,1.8h-3.1L579.9,453.9z M583.9,455.8c0-0.5-0.4-0.9-1.2-0.9H581v1.8h1.6
					C583.4,456.7,583.9,456.4,583.9,455.8L583.9,455.8z M582.9,457.7H581v1.8h2c0.8,0,1.3-0.3,1.3-0.9l0,0
					C584.3,458,583.9,457.7,582.9,457.7L582.9,457.7z"/>
				<path class="st5" d="M586.8,453.9h3c0.6,0,1.3,0.2,1.8,0.6c0.3,0.3,0.5,0.7,0.5,1.1l0,0c0,0.7-0.4,1.3-1,1.5
					c0.8,0.2,1.3,0.8,1.3,1.6l0,0c0,1.2-1,1.8-2.5,1.8h-3.1L586.8,453.9z M590.8,455.8c0-0.5-0.4-0.9-1.2-0.9H588v1.8h1.6
					C590.4,456.7,590.9,456.4,590.8,455.8L590.8,455.8z M589.8,457.7H588v1.8h2c0.8,0,1.3-0.3,1.3-0.9l0,0
					C591.2,458,590.8,457.7,589.8,457.7L589.8,457.7z"/>
				<path class="st5" d="M595.4,457.9l-2.7-4.1h1.4l1.9,3l1.9-3h1.3l-2.7,4v2.7h-1.2L595.4,457.9z"/>
				<path class="st6" d="M532.3,608h8.4v1.8h-6.4v3h5.7v1.8h-5.7v3h6.5v1.8h-8.5L532.3,608z"/>
				<path class="st6" d="M547.2,607.9h1.8l5,11.5H552l-1.2-2.8h-5.4l-1.2,2.8h-2L547.2,607.9z M550.1,614.9l-2-4.5l-2,4.5H550.1z"/>
				<path class="st6" d="M555.1,617.7l1.2-1.4c1,0.9,2.2,1.5,3.6,1.5c1.2,0,2-0.6,2-1.4l0,0c0-0.8-0.5-1.2-2.6-1.7
					c-2.4-0.6-3.8-1.3-3.8-3.4l0,0c0-2,1.6-3.3,3.9-3.3c1.5,0,3,0.5,4.1,1.4l-1.1,1.5c-0.9-0.7-2-1.1-3.1-1.2
					c-1.2,0-1.8,0.6-1.8,1.3l0,0c0,0.9,0.5,1.3,2.7,1.8c2.4,0.6,3.6,1.5,3.6,3.3l0,0c0,2.1-1.7,3.4-4.1,3.4
					C558,619.6,556.4,618.9,555.1,617.7z"/>
				<path class="st6" d="M568.8,609.9h-3.6V608h9.2v1.8h-3.6v9.5h-2L568.8,609.9z"/>
				<path class="st6" d="M581.4,608h4.5c2.7,0,4.3,1.5,4.3,3.8l0,0c0,2.5-2,3.9-4.5,3.9h-2.3v3.7h-2L581.4,608z M585.7,613.9
					c1.5,0,2.5-0.8,2.5-2l0,0c0-1.3-1-2-2.5-2h-2.3v4.1L585.7,613.9z"/>
				<path class="st6" d="M592.2,608h2v9.5h6v1.8h-8V608z"/>
				<path class="st6" d="M606.3,607.9h1.8l5,11.5H611l-1.2-2.8h-5.4l-1.2,2.8h-2L606.3,607.9z M609.2,614.9l-2-4.5l-2,4.5H609.2z"/>
				<path class="st6" d="M614.7,617.9l6.7-8.1h-6.5V608h9.1v1.5l-6.7,8.1h6.7v1.8h-9.3L614.7,617.9z"/>
				<path class="st6" d="M630.5,607.9h1.8l5,11.5h-2.1l-1.2-2.8h-5.4l-1.2,2.8h-2L630.5,607.9z M633.4,614.9l-2-4.5l-2,4.5H633.4z"
					/>
				<rect x="310.6" y="527.8" class="st7" width="1.1" height="0.4"/>
				<rect x="95.8" y="473.4" class="st7" width="0.4" height="1.1"/>
				
					<rect x="122.3" y="349.6" transform="matrix(0.7071 -0.7071 0.7071 0.7071 -230.0662 197.0165)" class="st8" width="1.1" height="53.3"/>
				
					<rect x="146.4" y="325.5" transform="matrix(0.7071 -0.7071 0.7071 0.7071 -205.9858 207.0136)" class="st8" width="1.1" height="53.3"/>
				
					<rect x="260.8" y="210.9" transform="matrix(0.7071 -0.7071 0.7071 0.7071 -91.5877 254.4477)" class="st8" width="1.1" height="53.7"/>
				
					<rect x="332.6" y="156.3" transform="matrix(0.7071 -0.7071 0.7071 0.7071 -26.7312 287.0529)" class="st8" width="1.1" height="39"/>
				<polygon class="st7" points="206.1,331.1 206.1,331 206.8,330.3 				"/>
				<polygon class="st7" points="168.1,293.1 168,293 168.8,292.3 				"/>
				
					<rect x="316.8" y="172.2" transform="matrix(0.7071 -0.7071 0.7071 0.7071 -42.6125 280.4991)" class="st8" width="1.1" height="39"/>
				
					<rect x="305.5" y="233.2" transform="matrix(0.6869 -0.7267 0.7267 0.6869 -73.76 295.4698)" class="st7" width="1.1" height="0.3"/>
				
					<rect x="352.7" y="184" transform="matrix(0.7092 -0.705 0.705 0.7092 -27.0235 302.535)" class="st7" width="1.1" height="0.1"/>
				
					<rect x="340.5" y="196.1" transform="matrix(0.705 -0.7092 0.7092 0.705 -38.4848 299.7368)" class="st7" width="1.1" height="0.1"/>
				<path class="st9" d="M319.5,161.9"/>
				
					<rect x="363.4" y="173.2" transform="matrix(0.7483 -0.6634 0.6634 0.7483 -23.3226 285.0607)" class="st7" width="1.1" height="0.1"/>
				
					<rect x="374.9" y="161.8" transform="matrix(0.6654 -0.7465 0.7465 0.6654 4.8094 334.3999)" class="st7" width="1.1" height="0.1"/>
				
					<rect x="392.3" y="97.1" transform="matrix(0.707 -0.7072 0.7072 0.707 32.6247 311.998)" class="st8" width="1.1" height="39.1"/>
				<polygon class="st8" points="428.9,117 427.8,117 427.8,108 422.3,108 397.8,83.6 398.6,82.8 422.7,106.9 428.9,106.9 				"/>
				<rect x="440" y="76.6" class="st8" width="1.1" height="40.4"/>
				<rect x="452.5" y="76.7" class="st8" width="1.1" height="40.4"/>
				<rect x="615.9" y="76.7" class="st8" width="1.1" height="40.3"/>
				<rect x="646.5" y="76.7" class="st8" width="1.1" height="40.3"/>
				<rect x="677" y="76.7" class="st8" width="1.1" height="40.4"/>
				<rect x="698.4" y="76.7" class="st8" width="1.1" height="40.3"/>
				<rect x="741.9" y="76.7" class="st8" width="1.1" height="40.3"/>
				<path class="st9" d="M753.1,189.9"/>
				<path class="st9" d="M757.1,185.9"/>
				<path class="st9" d="M813.9,113"/>
				<polygon class="st8" points="804.3,233 803.5,232.3 839.1,196.7 851.1,208.7 880,179.8 880.8,180.5 851.1,210.3 839.1,198.3 
									"/>
				<polygon class="st8" points="828.1,256.9 827.3,256.1 862.1,221.3 850.7,209.9 851.5,209.1 863.6,221.3 				"/>
				
					<rect x="891.3" y="251.6" transform="matrix(0.7071 -0.7071 0.7071 0.7071 90.201 722.023)" class="st8" width="50.8" height="1.1"/>
				<path class="st9" d="M950.7,249.6"/>
				
					<rect x="877.6" y="379.2" transform="matrix(0.7071 -0.7071 0.7071 0.7071 -11 732.0174)" class="st7" width="1.1" height="0.1"/>
				
					<rect x="798" y="220.8" transform="matrix(0.706 -0.7082 0.7082 0.706 20.7202 654.4052)" class="st8" width="1.1" height="162.9"/>
				
					<rect x="793.3" y="287.9" transform="matrix(0.7071 -0.7071 0.7071 0.7071 34.2092 659.5256)" class="st8" width="39.8" height="1.1"/>
				<polygon class="st8" points="279.1,396.5 278.3,395.7 318.9,355 370.7,303.4 371.5,304.1 319.7,355.8 				"/>
				<path class="st9" d="M261.4,297.6"/>
				
					<rect x="319.4" y="256" transform="matrix(0.7097 -0.7045 0.7045 0.7097 -116.1962 311.5724)" class="st8" width="1.1" height="81.6"/>
				
					<rect x="289.8" y="285.6" transform="matrix(0.7071 -0.7071 0.7071 0.7071 -145.8458 300.9622)" class="st8" width="1.1" height="81.8"/>
				<path class="st10" d="M786.5,140.4"/>
				<path class="st10" d="M793.3,133.5"/>
				
					<rect x="927.2" y="258.9" transform="matrix(0.7071 -0.7071 0.7071 0.7071 92.4549 742.1437)" class="st8" width="29.7" height="1.1"/>
				<polyline class="st11" points="174.5,384.2 202.6,412.4 283.1,493 				"/>
				
					<rect x="228.3" y="361.8" transform="matrix(0.7076 -0.7066 0.7066 0.7076 -243.0208 289.9489)" class="st8" width="1.1" height="153.7"/>
				<line class="st12" x1="240.4" y1="373.3" x2="202.6" y2="412.4"/>
				
					<rect x="194.4" y="392.3" transform="matrix(0.6948 -0.7192 0.7192 0.6948 -214.9309 279.2154)" class="st8" width="54.3" height="1.1"/>
				<line class="st12" x1="267.2" y1="400.2" x2="228.6" y2="438.6"/>
				
					<rect x="220.7" y="418.9" transform="matrix(0.7086 -0.7056 0.7056 0.7086 -223.6892 297.1601)" class="st8" width="54.5" height="1.1"/>
				<line class="st12" x1="171.6" y1="429.1" x2="195.5" y2="405.2"/>
				
					<rect x="166.6" y="416.6" transform="matrix(0.7071 -0.7071 0.7071 0.7071 -241.2232 251.9525)" class="st8" width="33.8" height="1.1"/>
				<path class="st13" d="M161.8,460.6"/>
				<polygon class="st8" points="208.9,493.4 168.2,452.7 160.8,459.6 160.1,458.9 168.3,451.2 209.6,492.6 				"/>
				<polygon class="st8" points="221.9,480.3 213.9,471.5 237.9,447.7 238.7,448.5 215.4,471.5 222.7,479.6 				"/>
				<line class="st12" x1="243.2" y1="500.5" x2="267.2" y2="477"/>
				
					<rect x="238.4" y="488.2" transform="matrix(0.7163 -0.6978 0.6978 0.7163 -268.6453 316.7411)" class="st8" width="33.6" height="1.1"/>
				
					<rect x="789" y="122.7" transform="matrix(0.7071 -0.7071 0.7071 0.7071 148.2107 604.3264)" class="st3" width="29.1" height="1.1"/>
				
					<rect x="931.3" y="281.2" transform="matrix(0.7071 -0.7071 0.7071 0.7071 79.7723 756.0975)" class="st8" width="42.6" height="1.1"/>
				<polygon class="st8" points="691.3,255.8 690.3,211.1 470.2,211.1 470,255.7 468.9,255.7 469.1,210.1 691.3,210.1 691.4,210.6 
					692.4,255.8 				"/>
				<rect x="96.2" y="473.4" class="st8" width="40.5" height="1.1"/>
				
					<rect x="186.9" y="285.3" transform="matrix(0.7071 -0.7071 0.7071 0.7071 -165.6719 223.9339)" class="st8" width="1.1" height="53.3"/>
				
					<rect x="284.6" y="187.1" transform="matrix(0.7071 -0.7071 0.7071 0.7071 -67.7701 264.3094)" class="st8" width="1.1" height="53.7"/>
				
					<rect x="360.9" y="128" transform="matrix(0.7071 -0.7071 0.7071 0.7071 1.3703 298.8791)" class="st8" width="1.1" height="39.6"/>
				
					<rect x="373.7" y="115.5" transform="matrix(0.7071 -0.7071 0.7071 0.7071 14.0543 304.2117)" class="st8" width="1.1" height="39.2"/>
				<polygon class="st8" points="366.9,236.7 366.5,236.3 366.3,236.5 344.4,214.6 345.2,213.9 366.7,235.4 389.2,212.6 
					389.9,213.4 367.4,236.1 367.5,236.2 				"/>
				<polygon class="st8" points="403,271.8 380.8,249.8 380.8,249.8 380.2,249.2 380.6,248.8 380.4,248.6 402.8,226.2 403.5,227 
					381.5,249 403.7,271 				"/>
				<polygon class="st8" points="390.5,323.9 371.1,304.5 371.1,304.5 370.5,303.9 370.9,303.5 370.7,303.4 425.2,248.7 426,249.5 
					371.8,303.7 391.2,323.1 				"/>
				<rect x="135.8" y="528.2" class="st8" width="1.1" height="51.8"/>
				<rect x="258" y="528.2" class="st3" width="1.1" height="51.8"/>
				<rect x="310.6" y="528.8" class="st3" width="1.1" height="51"/>
				<rect x="310.6" y="528.2" class="st8" width="1.1" height="51.8"/>
				<rect x="257.3" y="528.4" class="st8" width="1.1" height="51.8"/>
			</g>
		</g>
	</g>
	<g id="Buttons">
		<g id="blue_2">
			<circle class="st14" cx="539.8" cy="62.3" r="21.1"/>
			<path class="st3" d="M532.2,70.1l7.3-6.2c2.9-2.5,4-3.8,4-5.7c0.1-1.7-1.3-3.2-3-3.3c-0.1,0-0.3,0-0.4,0c-1.9,0-3.3,1.1-4.9,3.2
				l-2.6-2.1c2-2.8,4-4.4,7.8-4.4c4.1,0,7,2.5,7,6.3V58c0,3.3-1.8,5.1-5.5,8.2l-4.3,3.6h10V73h-15.2V70.1z"/>
		</g>
		<g id="blue_6">
			<circle class="st14" cx="922.2" cy="208.2" r="21.1"/>
			<path class="st3" d="M916.6,216.9c-1.6-1.6-2.6-3.8-2.6-8.1v-0.1c0-6.4,3.1-11.5,9-11.5c2.4,0,4.7,0.8,6.5,2.4l-2,2.9
				c-1.3-1.1-2.9-1.8-4.6-1.8c-3.7,0-5,3.8-5.1,6.7c1.3-1.4,3.1-2.2,5.1-2.1c4.1,0,7.4,2.4,7.4,6.6v0.1c0,4.2-3.4,7.2-7.8,7.2
				C920.3,219.2,918.2,218.4,916.6,216.9z M926.6,212.1L926.6,212.1c0-2.2-1.7-3.8-4.3-3.8s-4.3,1.7-4.3,3.7v0.1
				c0,2.1,1.8,3.8,4.4,3.8S926.6,214.3,926.6,212.1L926.6,212.1z"/>
		</g>
		<g id="blue_9">
			<circle class="st14" cx="330.8" cy="497.7" r="21.1"/>
			<path class="st3" d="M335.1,498.6c-1.2,1.5-3.1,2.3-5,2.3c-4.5,0-7.5-2.6-7.5-6.7v-0.1c0-4.1,3.2-7.3,7.9-7.3
				c2.2-0.1,4.3,0.7,5.9,2.2c1.5,1.6,2.5,3.9,2.5,8v0.1c0,6.8-3.4,11.5-9,11.5c-2.5,0-4.9-0.9-6.8-2.5l2-2.8c1.3,1.2,3,2,4.8,2
				C333.8,505.2,335.1,501.4,335.1,498.6z M335,493.9L335,493.9c0-2.3-1.7-4-4.4-4c-2.1-0.2-4,1.4-4.2,3.6c0,0.1,0,0.2,0,0.4v0.1
				c0,2.2,1.7,3.8,4.3,3.8S335,496,335,493.9L335,493.9z"/>
		</g>
		<g id="blue_10">
			<circle class="st14" cx="455.2" cy="555.2" r="21.1"/>
			<path class="st3" d="M444.1,548.3l-3.8,1.1l-0.8-3l5.7-1.8h2.6v21.3h-3.7L444.1,548.3z"/>
			<path class="st3" d="M452.5,555.3L452.5,555.3c0-6.1,3.7-11,9.2-11s9.2,4.8,9.2,10.9v0.1c0,6-3.7,10.9-9.2,10.9
				S452.5,561.3,452.5,555.3z M467,555.3L467,555.3c0-4.2-2.1-7.6-5.4-7.6s-5.3,3.3-5.3,7.5v0.1c0,4.2,2.1,7.6,5.4,7.6
				S467,559.5,467,555.3L467,555.3z"/>
		</g>
		<g id="blue_11_a">
			<circle class="st14" cx="727.2" cy="162.2" r="21.1"/>
			<path class="st3" d="M721.7,155.2l-3.8,1.1l-0.8-3l5.7-1.8h2.6v21.3h-3.7V155.2z"/>
			<path class="st3" d="M733.6,155.2l-3.8,1.1l-0.8-3l5.7-1.8h2.6v21.3h-3.7V155.2z"/>
		</g>
		<g id="green_1">
			<circle class="st15" cx="740.6" cy="237.4" r="20.4"/>
			<path class="st3" d="M739,230.4l-3.8,1l-0.8-3l5.7-1.8h2.5v21.1H739V230.4z"/>
		</g>
		<g id="yellow_1">
			<g>
				<defs>
					<rect id="SVGID_1_" x="536" y="633.8" width="42.9" height="42.9"/>
				</defs>
				<clipPath id="SVGID_2_">
					<use xlink:href="#SVGID_1_"  style="overflow:visible;"/>
				</clipPath>
				<g class="st16">
					<path class="st17" d="M578.9,655.2c0,11.9-9.6,21.5-21.5,21.5s-21.5-9.6-21.5-21.5s9.6-21.5,21.5-21.5h0
						C569.3,633.8,578.9,643.4,578.9,655.2"/>
				</g>
			</g>
			<polygon class="st3" points="555.8,647.8 551.8,648.9 551,645.8 556.9,643.9 559.6,643.9 559.6,666.1 555.8,666.1 			"/>
		</g>
		<g id="yellow_2">
			<g>
				<defs>
					<rect id="SVGID_3_" x="532.1" y="472.2" width="43" height="43"/>
				</defs>
				<clipPath id="SVGID_4_">
					<use xlink:href="#SVGID_3_"  style="overflow:visible;"/>
				</clipPath>
				<g class="st18">
					<path class="st19" d="M575.1,493.7c0,11.9-9.6,21.5-21.5,21.5s-21.5-9.6-21.5-21.5c0-11.9,9.6-21.5,21.5-21.5l0,0
						C565.5,472.2,575.1,481.8,575.1,493.7"/>
					<path class="st3" d="M545.8,501.6l7.7-6.3c3.1-2.5,4.2-3.9,4.2-5.8c0-1.8-1.4-3.3-3.2-3.4c-0.1,0-0.3,0-0.4,0
						c-2,0-3.5,1.1-5.2,3.2l-2.8-2.1c2.1-2.9,4.2-4.5,8.2-4.5c4.4,0,7.4,2.6,7.4,6.4v0.1c0,3.4-1.8,5.2-5.8,8.3l-4.6,3.7H562v3.3
						h-16.2V501.6z"/>
				</g>
			</g>
		</g>
		<g id="yellow_3">
			<g>
				<defs>
					<rect id="SVGID_5_" x="773.8" y="329.4" width="42.3" height="42.3"/>
				</defs>
				<clipPath id="SVGID_6_">
					<use xlink:href="#SVGID_5_"  style="overflow:visible;"/>
				</clipPath>
				<g class="st20">
					<path class="st19" d="M816.1,350.5c0,11.7-9.5,21.2-21.2,21.2c-11.7,0-21.2-9.5-21.2-21.2s9.5-21.2,21.2-21.2l0,0
						C806.6,329.4,816.1,338.8,816.1,350.5"/>
					<path class="st3" d="M787.2,357.5l2.6-2.4c1.3,1.8,3.4,2.8,5.6,2.8c2.1,0,3.7-1.3,3.7-3.2v-0.1c0-2.1-1.9-3.3-4.9-3.3h-1.7
						l-0.6-2.3l5.7-6.1h-9.2v-3.2h14v2.8l-5.9,6c3.2,0.4,6.2,2,6.2,5.9v0.1c0,3.9-3,6.7-7.4,6.7
						C792.2,361.3,789.2,359.9,787.2,357.5"/>
				</g>
			</g>
		</g>
		<g id="yellow_7">
			<g>
				<defs>
					<rect id="SVGID_7_" x="58.1" y="476" width="42.1" height="42.1"/>
				</defs>
				<clipPath id="SVGID_8_">
					<use xlink:href="#SVGID_7_"  style="overflow:visible;"/>
				</clipPath>
				<g class="st21">
					<path class="st19" d="M100.1,497.1c0,11.6-9.4,21-21,21s-21-9.4-21-21s9.4-21,21-21l0,0C90.7,476.1,100.1,485.5,100.1,497.1"/>
				</g>
			</g>
			<polygon class="st3" points="83.4,489.8 72.8,489.8 72.8,486.6 87.6,486.6 87.6,489.4 78.2,507.6 74,507.6 			"/>
		</g>
		<g id="pink_1">
			<circle class="st22" cx="786.2" cy="228.2" r="21"/>
			<path class="st3" d="M784.5,221l-3.9,1.1l-0.8-3.1l5.8-1.9h2.6v21.7h-3.8V221z"/>
		</g>
		<g id="pink_3">
			<circle class="st22" cx="587.8" cy="62.1" r="20.1"/>
			<path class="st3" d="M580.5,68.7l2.5-2.3c1.2,1.7,3.2,2.6,5.3,2.6c2,0,3.5-1.2,3.5-3V66c0-2-1.8-3.1-4.6-3.1h-1.6l-0.6-2.2
				l5.4-5.8h-8.7v-3.1h13.2v2.6l-5.6,5.7c3,0.4,5.9,1.9,5.9,5.6v0.1c0,3.7-2.8,6.3-7,6.3C585.2,72.4,582.4,71.1,580.5,68.7z"/>
		</g>
		<g id="pink_4">
			<circle class="st22" cx="605" cy="655.1" r="20.8"/>
			<path class="st3" d="M606.3,659.8h-10.5l-0.7-2.6l11.6-13.7h3.1v13.3h3v3h-3v4.7h-3.5V659.8z M606.3,656.8v-8.2l-6.8,8.2
				L606.3,656.8z"/>
		</g>
		<g id="pink_5">
			
				<ellipse transform="matrix(0.9998 -1.867394e-02 1.867394e-02 0.9998 -9.106 11.3471)" class="st22" cx="603" cy="493.3" rx="20.8" ry="20.8"/>
			<path class="st3" d="M595.6,500.8l2.2-2.7c1.4,1.5,3.4,2.3,5.4,2.4c2.5,0,4.1-1.5,4.1-3.7v-0.1c0-2.1-1.8-3.4-4.4-3.4
				c-1.3,0-2.6,0.4-3.8,1l-2.2-1.4l0.4-10.2l12.5-0.2l0.1,3.2l-9.3,0.2l-0.2,4.9c1-0.4,2.2-0.7,3.3-0.7c4-0.1,7.3,2,7.4,6.4v0.1
				c0.1,4.2-3,7.1-7.6,7.2C600.4,503.9,597.6,502.8,595.6,500.8z"/>
		</g>
		<g id="red_3">
			<circle class="st0" cx="876.6" cy="342.8" r="21.1"/>
			<path class="st3" d="M868.8,349.9l2.6-2.4c1.3,1.8,3.4,2.8,5.5,2.8c2.1,0,3.7-1.3,3.7-3.2v0c0-2.1-1.9-3.3-4.9-3.3H874l-0.6-2.3
				l5.7-6.1H870v-3.2h14v2.8l-5.9,6c3.2,0.4,6.2,2,6.2,5.9v0.1c0,3.9-3,6.7-7.4,6.7C873.8,353.7,870.8,352.3,868.8,349.9z"/>
		</g>
		<g id="red_4">
			<circle class="st0" cx="273.8" cy="412.8" r="21.1"/>
			<path class="st3" d="M275.1,417.6h-10.6l-0.7-2.6l11.7-13.9h3.2v13.5h3v3h-3v4.7h-3.6V417.6z M275.1,414.6v-8.4l-6.9,8.4H275.1z"
				/>
		</g>
		<g id="red_5">
			<circle class="st0" cx="143.1" cy="308.1" r="21.1"/>
			<path class="st3" d="M135.4,315.5l2.3-2.7c1.4,1.5,3.4,2.4,5.4,2.5c2.5,0,4.2-1.5,4.2-3.6v-0.1c0-2.1-1.8-3.5-4.4-3.5
				c-1.4,0-2.7,0.3-3.9,0.9l-2.2-1.5l0.6-10.4h12.6v3.3h-9.4l-0.3,5c1.1-0.4,2.2-0.6,3.4-0.6c4.1,0,7.4,2.2,7.4,6.6v0.1
				c0,4.3-3.2,7.1-7.8,7.1C140.3,318.8,137.5,317.6,135.4,315.5z"/>
		</g>
		<g id="red_6">
			<circle class="st0" cx="531.4" cy="170.6" r="21.1"/>
			<path class="st3" d="M525.9,179.3c-1.6-1.6-2.6-3.8-2.6-8.1v-0.1c0-6.4,3.1-11.5,9-11.5c2.4-0.1,4.7,0.8,6.5,2.3l-2,2.9
				c-1.3-1.1-2.9-1.8-4.6-1.8c-3.7,0-5,3.8-5.1,6.7c1.3-1.4,3.1-2.2,5.1-2.1c4.1,0,7.4,2.4,7.4,6.6v0.1c0,4.2-3.4,7.2-7.8,7.2
				C529.6,181.6,527.4,180.8,525.9,179.3z M535.9,174.5L535.9,174.5c0-2.2-1.7-3.7-4.3-3.7s-4.3,1.7-4.3,3.7v0.1
				c0,2.1,1.8,3.8,4.4,3.8S535.9,176.7,535.9,174.5L535.9,174.5z"/>
		</g>
		<g id="red_8_a">
			<circle class="st0" cx="874.4" cy="403" r="21.1"/>
			<path class="st3" d="M866.3,407.8L866.3,407.8c0-2.6,1.4-4.2,3.8-5.2c-1.9-0.8-3.1-2.7-3.1-4.7v-0.1c0-3.2,3.1-5.7,7.3-5.7
				s7.3,2.4,7.3,5.7v0.1c0,2-1.2,3.9-3.1,4.7c2.3,1.1,3.8,2.6,3.8,5.1v0.1c0,3.8-3.4,6.1-8,6.1S866.3,411.4,866.3,407.8z
				 M878.8,407.6L878.8,407.6c0-2-1.9-3.3-4.4-3.3s-4.4,1.3-4.4,3.2v0.1c0,1.7,1.6,3.2,4.4,3.2S878.8,409.3,878.8,407.6z
				 M878.2,398.2L878.2,398.2c0-1.7-1.5-3.1-3.8-3.1s-3.8,1.3-3.8,2.9v0.1c0,1.8,1.6,3.1,3.8,3.1S878.2,400,878.2,398.2L878.2,398.2
				z"/>
		</g>
		<g id="red_8_b">
			<circle class="st0" cx="862.4" cy="198.8" r="21.1"/>
			<path class="st3" d="M854.4,203.6L854.4,203.6c0-2.6,1.4-4.2,3.8-5.2c-1.9-0.8-3.1-2.7-3.1-4.7v-0.1c0-3.2,3.1-5.7,7.3-5.7
				s7.3,2.4,7.3,5.7v0.1c0,2-1.2,3.9-3.1,4.7c2.3,1.1,3.8,2.6,3.8,5.1v0.1c0,3.8-3.4,6.1-8,6.1S854.4,207.3,854.4,203.6z
				 M866.9,203.4L866.9,203.4c0-2-1.9-3.3-4.4-3.3s-4.4,1.3-4.4,3.2v0.1c0,1.7,1.6,3.2,4.4,3.2S866.9,205.2,866.9,203.4L866.9,203.4
				z M866.2,194.1V194c0-1.6-1.5-3-3.8-3s-3.8,1.3-3.8,2.9v0.1c0,1.8,1.6,3.1,3.8,3.1S866.2,195.9,866.2,194.1L866.2,194.1z"/>
		</g>
		<g id="red_8_c">
			<circle class="st0" cx="80.7" cy="395.4" r="21.1"/>
			<path class="st3" d="M72.6,400.2L72.6,400.2c0-2.6,1.4-4.2,3.8-5.2c-1.9-0.8-3.1-2.7-3.1-4.7v-0.1c0-3.2,3.1-5.7,7.3-5.7
				s7.4,2.5,7.4,5.7v0.1c0,2.1-1.2,3.9-3.1,4.7c2.3,1.1,3.8,2.6,3.8,5.1v0.1c0,3.8-3.4,6.1-8.1,6.1S72.6,403.8,72.6,400.2z
				 M85.1,400L85.1,400c0-2-1.9-3.3-4.4-3.3s-4.4,1.3-4.4,3.2v0.1c0,1.7,1.6,3.2,4.4,3.2S85.1,401.7,85.1,400z M84.4,390.7
				L84.4,390.7c0-1.7-1.5-3.1-3.8-3.1s-3.8,1.3-3.8,2.9v0.1c0,1.8,1.6,3.1,3.8,3.1S84.4,392.5,84.4,390.7L84.4,390.7z"/>
		</g>
		<g id="teal_2">
			<circle class="st23" cx="487.4" cy="63.8" r="20.7"/>
			<path class="st3" d="M479.9,71.4l7.1-6.1c2.8-2.4,3.9-3.7,3.9-5.6c0.1-1.7-1.3-3.2-3-3.2c-0.1,0-0.2,0-0.4,0
				c-1.9,0-3.2,1-4.8,3.1l-2.6-2c2-2.8,3.9-4.3,7.6-4.3c4,0,6.8,2.5,6.8,6.2v0.1c0,3.2-1.7,5-5.4,8l-4.3,3.6h9.9v3.2h-15L479.9,71.4
				z"/>
		</g>
		<g id="teal_4">
			<circle class="st23" cx="330.5" cy="241.4" r="21.3"/>
			<path class="st3" d="M331.8,246.2H321l-0.7-2.7l11.9-14h3.2v13.6h3v3.1h-3v4.8h-3.6V246.2z M331.8,243.1v-8.4l-7,8.4L331.8,243.1
				z"/>
		</g>
		<g id="teal_5">
			<circle class="st23" cx="202.8" cy="248.4" r="21.1"/>
			<path class="st3" d="M195.1,255.8l2.3-2.7c1.4,1.5,3.4,2.4,5.4,2.5c2.5,0,4.2-1.4,4.2-3.6v-0.1c0-2.1-1.8-3.5-4.4-3.5
				c-1.4,0-2.7,0.3-3.9,0.9l-2.2-1.5l0.6-10.4h12.6v3.3h-9.4l-0.3,4.9c1.1-0.4,2.2-0.6,3.4-0.6c4.1,0,7.4,2.2,7.4,6.6v0.1
				c0,4.3-3.2,7.2-7.8,7.2C200,259,197.2,257.9,195.1,255.8z"/>
		</g>
		<g id="teal_6">
			<circle class="st23" cx="280.2" cy="284.8" r="20.8"/>
			<path class="st3" d="M274.8,293.3c-1.6-1.6-2.5-3.7-2.5-7.9v-0.1c0-6.4,3-11.3,8.9-11.3c2.3,0,4.6,0.8,6.4,2.3l-2,2.8
				c-1.2-1.1-2.8-1.8-4.5-1.8c-3.6,0-4.9,3.8-5,6.6c1.3-1.4,3.1-2.2,5-2.1c4,0,7.2,2.4,7.2,6.5v0.1c0,4.1-3.4,7.1-7.7,7.1
				C278.4,295.6,276.3,294.8,274.8,293.3z M284.6,288.6L284.6,288.6c0-2.1-1.7-3.7-4.2-3.7s-4.2,1.7-4.2,3.6v0.1
				c0,2.1,1.7,3.7,4.3,3.7S284.6,290.8,284.6,288.6L284.6,288.6z"/>
		</g>
		<g id="teal_8">
			<circle class="st23" cx="849.4" cy="142.6" r="21.1"/>
			<path class="st3" d="M841.3,147.4L841.3,147.4c0-2.6,1.4-4.2,3.8-5.2c-1.9-0.8-3.1-2.7-3.1-4.7v-0.1c0-3.2,3.1-5.7,7.3-5.7
				s7.3,2.4,7.3,5.7v0.1c0,2-1.2,3.9-3.1,4.7c2.3,1.1,3.8,2.6,3.8,5.1v0.1c0,3.8-3.4,6.1-8,6.1S841.3,151,841.3,147.4z M853.8,147.2
				L853.8,147.2c0-2-1.9-3.3-4.4-3.3s-4.4,1.3-4.4,3.2v0.1c0,1.7,1.6,3.2,4.4,3.2S853.8,148.9,853.8,147.2L853.8,147.2z
				 M853.2,137.9L853.2,137.9c0-1.7-1.5-3.1-3.8-3.1s-3.8,1.3-3.8,2.9v0.1c0,1.8,1.6,3.1,3.8,3.1S853.2,139.7,853.2,137.9
				L853.2,137.9z"/>
		</g>
		<g id="chicken">
			<circle class="st24" cx="180.2" cy="394.7" r="36.6"/>
			<path class="st3" d="M164.6,404.7c-0.1-0.4-0.2-0.8-0.4-1.2c-0.3-0.7-0.6-1.4-0.9-2c-0.4-0.7-0.4-1.7,0.1-2.4
				c0.3-0.3,0.7-0.4,1.1-0.4c0.6,0.1,1.1,0.4,1.6,0.7c0.6,0.4,1.1,0.9,1.5,1.5c0.6,0.8,0.8,1.7,0.6,2.7c-0.1,0.7-0.6,1.2-1.3,1.5
				c-0.8,0.5-1.7,0.3-2.3-0.4L164.6,404.7z"/>
			<path class="st3" d="M185,384.4c-0.6-0.5-0.5-1.2-0.7-1.7c-0.2-0.4-0.4-0.8-0.6-1.2c-0.5-0.7-0.5-1.6-0.2-2.4
				c0.3-0.6,1-0.8,1.6-0.6c0.9,0.3,1.8,0.9,2.4,1.6c0.6,0.7,1,1.6,1.1,2.5c0.1,1.2-0.9,2.3-2.1,2.4c-0.2,0-0.4,0-0.6,0
				C185.6,384.8,185.3,384.6,185,384.4z"/>
			<path class="st3" d="M177.9,394.3c-0.8,0.6-1.8,1.1-2.7,0.5c-0.5-0.3-0.8-0.8-0.9-1.4c-0.1-0.7-0.4-1.4-0.9-2
				c-0.4-0.7-0.6-2.1,0.3-2.7c0.3-0.2,0.6-0.2,0.9-0.2c1.1,0.2,2.1,0.8,2.8,1.8c0.8,0.8,1.1,1.9,0.9,3
				C178.3,393.7,178.1,394,177.9,394.3z"/>
			<path class="st3" d="M170.3,396.3c0.6,0.7,1.1,1.4,1.6,2.2c0.2,0.4,0.2,0.9,0.1,1.4c-0.3,0.9-1.1,1.6-2,1.6
				c-0.6,0.1-1.2-0.2-1.7-0.6c-1.1-1-1.7-2.5-1.6-4c0-0.4,0.1-0.9,0.2-1.3c0.2-0.5,0.8-0.8,1.3-0.6c0.1,0,0.2,0.1,0.2,0.1
				C169.1,395.4,169.7,395.9,170.3,396.3z"/>
			<path class="st3" d="M180.6,386.4c0.5,0.6,0.9,1.3,1.4,2c0.3,0.4,0.3,0.9,0.1,1.4c-0.2,0.9-1,1.5-1.9,1.6c-0.4,0-0.8-0.1-1.1-0.3
				c-0.6-0.4-1.1-0.9-1.5-1.5c-0.5-0.8-0.8-1.8-0.7-2.7c0-0.5,0.1-0.9,0.2-1.4c0.1-0.4,0.5-0.7,0.9-0.6c0,0,0.1,0,0.1,0
				c0.4,0.1,0.9,0.3,1.2,0.5c0.4,0.3,0.8,0.7,1.1,1.1L180.6,386.4z"/>
			<path class="st3" d="M188.4,380.3c-1.2-1.2-1.7-3-1.4-4.6c0.1-0.9,0.7-1.2,1.6-0.8c0.7,0.4,1.4,0.9,1.9,1.5
				c0.4,0.4,0.7,0.8,1.1,1.2c0.5,0.5,0.8,1.3,0.6,2c-0.3,1.2-1.5,1.9-2.7,1.7c0,0-0.1,0-0.1,0C189.1,381,188.8,380.6,188.4,380.3z"
				/>
			<path class="st3" d="M158.7,404.2c0.4-0.4,1-0.5,1.5-0.3c1.3,0.5,2.3,1.3,3.1,2.5c0.5,0.5,0.7,1.3,0.6,2
				c-0.1,0.3-0.2,0.5-0.3,0.8L158.7,404.2z"/>
			<path class="st3" d="M171.2,396.5c-0.7-0.7-1.4-1.4-2.1-2.1c-0.1-0.1-0.2-0.3-0.2-0.4s0.3-0.3,0.4-0.3c0.5,0,1,0.1,1.5,0.3
				c1.1,0.5,2,1.3,2.7,2.3c0.5,0.5,0.7,1.3,0.6,2c-0.1,0.2-0.2,0.4-0.3,0.5c-0.1,0-0.3-0.1-0.4-0.2
				C172.6,397.9,171.9,397.2,171.2,396.5z"/>
			<path class="st3" d="M183.9,388.9l-0.6-0.6l-4.1-4.1c-0.1-0.1-0.2-0.2-0.1-0.3s0.2-0.3,0.3-0.3c0.5,0,1,0.1,1.4,0.2
				c1.2,0.6,2.3,1.5,3,2.6c0.4,0.5,0.6,1.2,0.4,1.8C184.1,388.5,184,388.7,183.9,388.9z"/>
			<path class="st3" d="M170.5,392.5c0.6-1,0.8-1,1.5-0.3c1.3,1.3,2.6,2.6,3.9,3.9c0.3,0.3,0.1,0.5-0.1,0.6s-0.4,0.7-0.8,0.3
				C173.6,395.6,172.1,394,170.5,392.5z"/>
			<path class="st3" d="M160.4,402.5c0.2-0.2,0.4-0.4,0.6-0.6c0.2-0.1,0.3,0,0.5,0c0.9,0.9,1.7,1.7,2.6,2.6c0.5,0.5,1.1,1,1.6,1.5
				s0.5,0.5,0,1l-0.4,0.3L160.4,402.5z"/>
			<path class="st3" d="M181.4,381.5l1,1c1.2,1.2,2.4,2.4,3.6,3.6c0.4,0.4,0,0.6-0.2,0.8s-0.4,0.2-0.7,0c-1.4-1.4-2.8-2.8-4.2-4.2
				c-0.3-0.3-0.3-0.5,0-0.7C181.1,381.8,181.3,381.6,181.4,381.5z"/>
			<path class="st3" d="M196.2,371.2c0,0.2-0.1,0.4-0.2,0.5c-1.2,1.6-2.6,3.1-4.1,4.5c-0.2,0.2-0.4,0.4-0.6,0.1s-0.5-0.4-0.2-0.8
				c1.1-1.1,2.3-2.3,3.4-3.4c0.5-0.4,1-0.7,1.5-1L196.2,371.2z"/>
			<path class="st3" d="M158.1,408.6c0.6-0.6,1.1-1.1,1.7-1.7c0.3-0.3,0.5-0.2,0.7,0s0.5,0.4,0.1,0.7c-1.2,1.1-2.3,2.3-3.4,3.4
				c-0.3,0.3-0.4,0.1-0.7-0.1s-0.4-0.4-0.1-0.7C156.9,409.8,157.5,409.2,158.1,408.6z"/>
			<path class="st3" d="M172.6,410.7c-0.1-0.4-0.2-0.8-0.4-1.2c-0.3-0.7-0.6-1.4-0.9-2c-0.4-0.7-0.4-1.7,0.1-2.4
				c0.3-0.3,0.7-0.4,1.1-0.4c0.6,0.1,1.1,0.4,1.6,0.7c0.6,0.4,1.1,0.9,1.5,1.5c0.6,0.8,0.8,1.7,0.6,2.7c-0.1,0.7-0.6,1.2-1.2,1.5
				c-0.8,0.5-1.7,0.3-2.3-0.4L172.6,410.7z"/>
			<path class="st3" d="M193,390.4c-0.6-0.5-0.5-1.2-0.7-1.7c-0.2-0.4-0.4-0.8-0.6-1.2c-0.5-0.7-0.5-1.6-0.2-2.4
				c0.3-0.6,1-0.8,1.6-0.6c0.9,0.3,1.8,0.9,2.4,1.6c0.6,0.7,1,1.6,1.1,2.5c0.1,1.2-0.9,2.3-2.1,2.4c-0.2,0-0.4,0-0.6,0
				C193.6,390.8,193.3,390.6,193,390.4z"/>
			<path class="st3" d="M186,400.4c-0.8,0.6-1.8,1.1-2.7,0.5c-0.5-0.3-0.8-0.8-0.9-1.4c-0.1-0.7-0.4-1.4-0.9-2
				c-0.4-0.7-0.6-2.1,0.3-2.7c0.3-0.2,0.6-0.2,0.9-0.2c1.1,0.2,2.1,0.8,2.8,1.8c0.8,0.8,1.1,1.9,0.9,3
				C186.3,399.7,186.2,400,186,400.4z"/>
			<path class="st3" d="M178.3,402.3c0.6,0.7,1.1,1.4,1.6,2.2c0.2,0.4,0.2,0.9,0.1,1.4c-0.3,0.9-1.1,1.6-2,1.6
				c-0.6,0.1-1.2-0.2-1.7-0.6c-1.1-1-1.7-2.5-1.6-4c0-0.4,0.1-0.9,0.2-1.3c0.2-0.5,0.8-0.8,1.3-0.6c0.1,0,0.2,0.1,0.2,0.1
				C177.2,401.5,177.8,401.9,178.3,402.3z"/>
			<path class="st3" d="M188.6,392.4c0.5,0.6,0.9,1.3,1.4,2c0.3,0.4,0.3,0.9,0.1,1.4c-0.2,0.9-1,1.5-1.9,1.6c-0.4,0-0.8-0.1-1.1-0.3
				c-0.6-0.4-1.1-0.9-1.5-1.5c-0.5-0.8-0.8-1.8-0.7-2.7c0-0.5,0.1-0.9,0.2-1.4c0.1-0.4,0.5-0.7,0.9-0.6c0,0,0.1,0,0.1,0
				c0.4,0.1,0.9,0.3,1.2,0.5c0.4,0.3,0.8,0.7,1.1,1.1L188.6,392.4z"/>
			<path class="st3" d="M196.4,386.3c-1.2-1.2-1.7-3-1.4-4.6c0.1-0.9,0.7-1.2,1.6-0.8c0.7,0.4,1.4,0.9,1.9,1.5
				c0.4,0.4,0.7,0.8,1.1,1.2c0.5,0.5,0.8,1.3,0.6,2c-0.3,1.2-1.5,1.9-2.7,1.7c0,0-0.1,0-0.1,0C197.1,387,196.8,386.6,196.4,386.3z"
				/>
			<path class="st3" d="M166.8,410.2c0.4-0.4,1-0.5,1.5-0.3c1.3,0.5,2.3,1.3,3.1,2.5c0.5,0.5,0.7,1.3,0.6,2
				c-0.1,0.3-0.2,0.5-0.3,0.8L166.8,410.2z"/>
			<path class="st3" d="M179.2,402.6c-0.7-0.7-1.4-1.4-2.1-2.1c-0.1-0.1-0.2-0.3-0.2-0.4s0.3-0.3,0.4-0.3c0.5,0,1,0.1,1.5,0.3
				c1.1,0.5,2,1.3,2.7,2.3c0.5,0.5,0.7,1.3,0.6,2c-0.1,0.2-0.2,0.4-0.3,0.5c-0.1,0-0.3-0.1-0.4-0.2C180.6,404,180,403.3,179.2,402.6
				z"/>
			<path class="st3" d="M192,394.9l-0.6-0.6l-4.1-4.1c-0.1-0.1-0.2-0.2-0.1-0.3s0.2-0.3,0.3-0.3c0.5,0,1,0.1,1.4,0.2
				c1.2,0.6,2.3,1.5,3,2.6c0.4,0.5,0.6,1.2,0.4,1.8C192.2,394.5,192.1,394.7,192,394.9z"/>
			<path class="st3" d="M178.6,398.5c0.6-1,0.8-1,1.5-0.3c1.3,1.3,2.6,2.6,3.9,3.9c0.3,0.3,0.1,0.5-0.1,0.6s-0.4,0.7-0.8,0.3
				C181.6,401.6,180.1,400.1,178.6,398.5z"/>
			<path class="st3" d="M168.4,408.5c0.2-0.2,0.4-0.4,0.6-0.6c0.2-0.1,0.3,0,0.5,0c0.9,0.9,1.7,1.7,2.6,2.6c0.5,0.5,1.1,1,1.6,1.5
				s0.5,0.5,0,1l-0.4,0.3L168.4,408.5z"/>
			<path class="st3" d="M189.5,387.5l1,1c1.2,1.2,2.4,2.4,3.6,3.6c0.4,0.4,0,0.6-0.2,0.8s-0.4,0.2-0.7,0c-1.4-1.4-2.8-2.8-4.2-4.2
				c-0.3-0.3-0.3-0.5,0-0.7C189.2,387.8,189.3,387.7,189.5,387.5z"/>
			<path class="st3" d="M204.2,377.2c0,0.2-0.1,0.4-0.2,0.5c-1.2,1.6-2.6,3.1-4.1,4.5c-0.2,0.2-0.4,0.4-0.6,0.1s-0.5-0.4-0.2-0.8
				c1.1-1.1,2.3-2.3,3.4-3.4c0.5-0.4,1-0.7,1.5-1L204.2,377.2z"/>
			<path class="st3" d="M166.1,414.6c0.6-0.6,1.1-1.1,1.7-1.7c0.3-0.3,0.5-0.2,0.7,0s0.5,0.4,0.1,0.7c-1.2,1.1-2.3,2.3-3.4,3.4
				c-0.3,0.3-0.4,0.1-0.7-0.1s-0.4-0.4-0.1-0.7C165,415.8,165.5,415.2,166.1,414.6z"/>
		</g>
		<g id="popcorn">
			<circle class="st24" cx="411.9" cy="213.7" r="35.2"/>
			<path class="st3" d="M405.1,199.2c0.1-0.5,0.1-1.1,0-1.6c-0.1-0.5-0.4-1-0.9-1.2c-0.1-0.1-0.3-0.1-0.4,0
				c-0.1,0.1-0.3,0.2-0.3,0.4c-0.2,0.4-0.3,0.9-0.3,1.3c0,0.5,0.3,0.9,0.7,1.1c-0.4-0.5-1.2-0.7-1.7-0.3c-0.5,0.4-0.7,1.2-0.3,1.7
				c0.3,0.3,0.7,0.5,1.1,0.5c0.9-0.1,1.4-0.9,1.7-1.7c-0.2,0.6,0.1,1.5,0.8,1.6c0.3,0,0.6-0.1,0.8-0.3c0.6-0.4,0.9-1.1,0.7-1.8
				c-0.3-0.6-1.3-0.8-1.6-0.1L405.1,199.2z"/>
			<path class="st24" d="M405.2,199.2c0.2-0.8,0.1-1.7-0.3-2.4c-0.2-0.3-0.8-0.8-1.2-0.6s-0.7,1.1-0.7,1.5c-0.1,0.6,0.2,1.3,0.8,1.6
				c0.1,0.1,0.2,0,0.2-0.1c0.1-0.1,0-0.2-0.1-0.2c-0.9-1-2.9-0.2-2.4,1.2c0.2,0.6,0.8,1,1.4,1c1-0.1,1.5-1.1,1.8-1.8l-0.3-0.1
				c-0.2,0.7,0,1.6,0.9,1.8c0.8,0,1.5-0.5,1.7-1.3c0.2-0.6-0.1-1.3-0.7-1.5c0,0,0,0-0.1,0c-0.8-0.2-1.1,0.3-1.5,0.8
				C404.8,199.2,405,199.4,405.2,199.2c0-0.1,0.2-0.3,0.3-0.4l0.8-0.3l0.4,1.4c-0.2,0.5-0.6,0.6-1.1,0.3c-0.8,0.1-1-0.1-0.8-0.8
				c0-0.2-0.2-0.3-0.3-0.1c-0.1,0.3-0.3,0.5-0.4,0.8c-0.4,0.6-0.7,0.9-1.4,0.7c-0.3,0.1-0.6-0.1-0.7-0.4c0,0,0,0,0,0
				c-0.3-0.4-0.2-0.8,0.3-1.3c0.5-0.3,1.1-0.2,1.4,0.2l0.2-0.2c-1.1-0.5-0.5-2.8,0.5-2.2c0.7,0.4,0.5,1.8,0.4,2.4
				C404.9,199.3,405.2,199.4,405.2,199.2z"/>
			<path class="st3" d="M410.5,196c0.2-0.9,0.2-1.7,0.1-2.6c-0.1-0.9-0.7-1.6-1.5-2c-0.2-0.1-0.5-0.1-0.7,0
				c-0.2,0.2-0.4,0.4-0.5,0.7c-0.3,0.7-0.5,1.4-0.5,2.2c0,0.8,0.5,1.5,1.2,1.7c-0.7-0.9-1.9-1.1-2.8-0.4c-0.9,0.7-1.1,1.9-0.4,2.8
				c0.4,0.6,1.1,0.9,1.8,0.8c1.4-0.1,2.2-1.6,2.8-2.8c-0.4,1,0.2,2.5,1.3,2.6c0.5,0,0.9-0.1,1.3-0.4c1-0.6,1.4-1.8,1.1-2.9
				c-0.4-1-2.2-1.3-2.6-0.2L410.5,196z"/>
			<path class="st24" d="M410.7,196.1c0.2-1.3,0.4-2.9-0.5-4c-0.4-0.6-1.2-1.2-2-0.9s-1.1,1.9-1.2,2.5c-0.2,1,0.3,2.1,1.3,2.5
				c0.1,0.1,0.3,0.1,0.4,0c0.1-0.1,0.1-0.3,0-0.4c-1.5-1.6-4.7-0.4-3.9,2c0.3,1,1.2,1.7,2.3,1.6c1.5-0.1,2.4-1.7,3-3l-0.5-0.2
				c-0.3,1.1,0.1,2.7,1.5,2.9s2.5-1.1,2.8-2.1c0.4-1-0.1-2.1-1.1-2.5c0,0-0.1,0-0.1,0c-1.2-0.4-1.8,0.5-2.5,1.4
				c-0.2,0.3,0.2,0.6,0.4,0.4c0.2-0.3,0.4-0.5,0.6-0.8l1.3-0.5l0.7,2.3c-0.3,0.9-0.9,1-1.8,0.5c-1.2,0.2-1.6-0.2-1.2-1.3
				c0.1-0.3-0.3-0.5-0.5-0.2c-0.2,0.4-0.4,0.9-0.7,1.3c-0.6,0.9-1.2,1.4-2.4,1.1c-0.5,0.1-1-0.2-1.1-0.7c-0.6-0.7-0.4-1.4,0.4-2.1
				c0.8-0.4,1.8-0.3,2.4,0.4l0.3-0.4c-1.9-0.9-0.9-4.7,0.9-3.7c1.1,0.6,0.8,2.9,0.6,3.9C410.1,196.3,410.6,196.4,410.7,196.1z"/>
			<path class="st3" d="M414.8,197.9c0.1-0.5,0.1-1.1,0-1.6c-0.1-0.5-0.4-1-0.9-1.2c-0.1-0.1-0.3-0.1-0.4,0
				c-0.1,0.1-0.3,0.2-0.3,0.4c-0.2,0.4-0.3,0.9-0.3,1.3c0,0.5,0.3,0.9,0.7,1.1c-0.4-0.5-1.2-0.7-1.7-0.3c-0.5,0.4-0.7,1.2-0.3,1.7
				c0.3,0.3,0.7,0.5,1.1,0.5c0.9-0.1,1.4-0.9,1.7-1.7c-0.2,0.6,0.1,1.5,0.8,1.6c0.3,0,0.6-0.1,0.8-0.3c0.6-0.4,0.9-1.1,0.7-1.8
				c-0.3-0.6-1.3-0.8-1.6-0.1L414.8,197.9z"/>
			<path class="st24" d="M415,197.9c0.2-0.8,0.1-1.7-0.3-2.4c-0.2-0.3-0.8-0.8-1.2-0.6s-0.7,1.1-0.7,1.5c-0.1,0.6,0.2,1.3,0.8,1.6
				c0.1,0,0.2,0,0.2-0.1c0-0.1,0-0.1,0-0.2c-0.9-1-2.9-0.2-2.4,1.2c0.2,0.6,0.8,1,1.4,1c1-0.1,1.5-1.1,1.8-1.8l-0.3-0.1
				c-0.2,0.7,0,1.6,0.9,1.8c0.8,0,1.5-0.5,1.7-1.3c0.2-0.6-0.1-1.3-0.7-1.5c0,0,0,0-0.1,0c-0.8-0.2-1.1,0.3-1.5,0.8
				C414.6,197.9,414.8,198.2,415,197.9c0-0.1,0.2-0.2,0.3-0.4l0.8-0.3l0.4,1.4c-0.2,0.5-0.6,0.6-1.1,0.3c-0.8,0.1-1-0.1-0.8-0.8
				c0-0.2-0.2-0.3-0.3-0.1c-0.1,0.3-0.3,0.5-0.4,0.8c-0.4,0.6-0.7,0.9-1.4,0.7c-0.3,0.1-0.6-0.1-0.7-0.4c0,0,0,0,0,0
				c-0.3-0.4-0.2-0.8,0.3-1.3c0.5-0.3,1.1-0.2,1.4,0.2l0.2-0.2c-1.1-0.5-0.5-2.8,0.5-2.2c0.7,0.4,0.5,1.8,0.4,2.4
				C414.7,198.1,415,198.1,415,197.9z"/>
			<path class="st3" d="M419.9,197.9c0.1-0.5,0.1-1.1,0-1.6c-0.1-0.5-0.4-1-0.9-1.2c-0.1-0.1-0.3-0.1-0.4,0
				c-0.1,0.1-0.3,0.2-0.3,0.4c-0.2,0.4-0.3,0.9-0.3,1.3c0,0.5,0.3,0.9,0.7,1.1c-0.4-0.5-1.2-0.7-1.7-0.3c-0.5,0.4-0.7,1.2-0.3,1.7
				c0.3,0.3,0.7,0.5,1.1,0.5c0.9-0.1,1.4-0.9,1.7-1.7c-0.2,0.6,0.1,1.5,0.8,1.6c0.3,0,0.6-0.1,0.8-0.3c0.6-0.4,0.9-1.1,0.7-1.8
				c-0.3-0.6-1.3-0.8-1.6-0.1L419.9,197.9z"/>
			<path class="st24" d="M420.1,197.9c0.2-0.8,0.1-1.7-0.3-2.4c-0.2-0.3-0.8-0.8-1.2-0.6s-0.7,1.1-0.7,1.5c-0.1,0.6,0.2,1.3,0.8,1.6
				c0.1,0,0.2,0,0.2-0.1c0-0.1,0-0.1,0-0.2c-0.9-1-2.9-0.2-2.4,1.2c0.2,0.6,0.8,1,1.4,1c1-0.1,1.5-1.1,1.8-1.8l-0.3-0.1
				c-0.2,0.7,0,1.6,0.9,1.8c0.8,0,1.5-0.5,1.7-1.3c0.2-0.6-0.1-1.3-0.7-1.5c0,0,0,0-0.1,0c-0.8-0.2-1.1,0.3-1.5,0.8
				C419.7,197.9,419.9,198.2,420.1,197.9c0-0.1,0.2-0.2,0.3-0.4l0.8-0.3l0.4,1.4c-0.2,0.5-0.6,0.6-1.1,0.3c-0.8,0.1-1-0.1-0.8-0.8
				c0-0.2-0.2-0.3-0.3-0.1c-0.1,0.3-0.3,0.5-0.4,0.8c-0.4,0.6-0.7,0.9-1.4,0.7c-0.3,0.1-0.6-0.1-0.7-0.4c0,0,0,0,0,0
				c-0.3-0.4-0.2-0.8,0.3-1.3c0.5-0.3,1.1-0.2,1.4,0.2l0.2-0.2c-1.1-0.5-0.5-2.8,0.5-2.2c0.7,0.4,0.5,1.8,0.4,2.4
				C419.8,198.1,420.1,198.1,420.1,197.9z"/>
			<path class="st3" d="M424.2,199.6c0.1-0.5,0.1-1.1,0-1.6c-0.1-0.5-0.4-1-0.9-1.2c-0.1-0.1-0.3-0.1-0.4,0
				c-0.1,0.1-0.3,0.2-0.3,0.4c-0.2,0.4-0.3,0.9-0.3,1.3c0,0.5,0.3,0.9,0.7,1.1c-0.4-0.5-1.2-0.7-1.7-0.3c-0.5,0.4-0.7,1.2-0.3,1.7
				c0.3,0.3,0.7,0.5,1.1,0.5c0.9-0.1,1.4-0.9,1.7-1.7c-0.2,0.6,0.1,1.5,0.8,1.6c0.3,0,0.6-0.1,0.8-0.3c0.6-0.4,0.9-1.1,0.7-1.8
				c-0.3-0.6-1.3-0.8-1.6-0.1L424.2,199.6z"/>
			<path class="st24" d="M424.3,199.6c0.2-0.8,0.1-1.7-0.3-2.4c-0.2-0.3-0.8-0.8-1.2-0.6s-0.7,1.1-0.7,1.5c-0.1,0.6,0.2,1.3,0.8,1.6
				c0.1,0,0.2,0,0.2-0.1c0-0.1,0-0.1,0-0.2c-0.9-1-2.9-0.2-2.4,1.2c0.2,0.6,0.8,1,1.4,1c1-0.1,1.5-1.1,1.8-1.8l-0.3-0.1
				c-0.2,0.7,0,1.6,0.9,1.8c0.8,0,1.5-0.5,1.7-1.3c0.2-0.6-0.1-1.3-0.7-1.5c0,0,0,0-0.1,0c-0.8-0.2-1.1,0.3-1.5,0.8
				C423.9,199.6,424.2,199.9,424.3,199.6c0-0.1,0.2-0.2,0.3-0.4l0.8-0.3l0.4,1.4c-0.2,0.5-0.6,0.6-1.1,0.3c-0.8,0.1-1-0.1-0.8-0.8
				c0-0.2-0.2-0.3-0.3-0.1c-0.1,0.3-0.3,0.5-0.4,0.8c-0.4,0.6-0.7,0.9-1.4,0.7c-0.3,0.1-0.6-0.1-0.7-0.4c0,0,0,0,0,0
				c-0.3-0.4-0.2-0.9,0.3-1.3c0.5-0.3,1.1-0.2,1.4,0.2l0.2-0.2c-1.1-0.5-0.5-2.8,0.5-2.2c0.7,0.4,0.5,1.8,0.4,2.4
				C424,199.8,424.3,199.8,424.3,199.6z"/>
			<path class="st3" d="M404.4,202.7c0.1-0.5,0.1-1.1,0-1.6c-0.1-0.5-0.4-1-0.9-1.2c-0.1-0.1-0.3-0.1-0.4,0
				c-0.1,0.1-0.3,0.2-0.3,0.4c-0.2,0.4-0.3,0.9-0.3,1.3c0,0.5,0.3,0.9,0.7,1.1c-0.4-0.5-1.2-0.7-1.7-0.3c-0.5,0.4-0.7,1.2-0.3,1.7
				c0.3,0.3,0.7,0.5,1.1,0.5c0.9-0.1,1.4-0.9,1.7-1.7c-0.2,0.6,0.1,1.5,0.8,1.6c0.3,0,0.6-0.1,0.8-0.3c0.6-0.4,0.9-1.1,0.7-1.8
				c-0.3-0.6-1.3-0.8-1.6-0.1L404.4,202.7z"/>
			<path class="st24" d="M404.6,202.7c0.2-0.8,0.1-1.7-0.3-2.4c-0.2-0.3-0.8-0.8-1.2-0.6s-0.7,1.1-0.7,1.5c-0.1,0.6,0.2,1.3,0.8,1.6
				c0.1,0,0.2,0,0.2-0.1c0-0.1,0-0.1,0-0.2c-0.9-1-2.9-0.2-2.4,1.2c0.2,0.6,0.8,1,1.4,1c1-0.1,1.5-1.1,1.8-1.8l-0.3-0.1
				c-0.2,0.7,0,1.6,0.9,1.8c0.8,0,1.5-0.5,1.7-1.3c0.2-0.6-0.1-1.3-0.7-1.5c0,0,0,0-0.1,0c-0.8-0.2-1.1,0.3-1.5,0.8
				C404.2,202.7,404.4,203,404.6,202.7c0-0.1,0.2-0.2,0.3-0.4l0.8-0.3l0.4,1.4c-0.2,0.5-0.6,0.6-1.1,0.3c-0.8,0.1-1-0.1-0.8-0.8
				c0-0.2-0.2-0.3-0.3-0.1c-0.1,0.3-0.3,0.5-0.4,0.8c-0.4,0.6-0.7,0.9-1.4,0.7c-0.3,0.1-0.6-0.1-0.7-0.4c0,0,0,0,0,0
				c-0.3-0.4-0.2-0.9,0.3-1.3c0.5-0.3,1.1-0.2,1.4,0.2l0.2-0.2c-1.1-0.5-0.5-2.8,0.5-2.2c0.7,0.4,0.5,1.8,0.4,2.4
				C404.2,202.8,404.6,202.9,404.6,202.7z"/>
			<path class="st3" d="M403,200.2c0.1-0.5,0.1-1.1,0-1.6c-0.1-0.5-0.4-1-0.9-1.2c-0.1-0.1-0.3-0.1-0.4,0c-0.1,0.1-0.3,0.2-0.3,0.4
				c-0.2,0.4-0.3,0.9-0.3,1.3c0,0.5,0.3,0.9,0.7,1.1c-0.4-0.5-1.2-0.7-1.7-0.3c-0.5,0.4-0.7,1.2-0.3,1.7c0.3,0.3,0.7,0.5,1.1,0.5
				c0.9-0.1,1.4-0.9,1.7-1.7c-0.2,0.6,0.1,1.5,0.8,1.6c0.3,0,0.6-0.1,0.8-0.3c0.6-0.3,1-1,0.8-1.7c-0.3-0.6-1.3-0.8-1.6-0.1
				L403,200.2z"/>
			<path class="st24" d="M403.2,200.3c0.2-0.8,0.1-1.7-0.3-2.4c-0.2-0.3-0.8-0.8-1.2-0.6s-0.7,1.1-0.7,1.5c-0.1,0.6,0.2,1.3,0.8,1.6
				c0.1,0,0.2,0,0.2-0.1c0-0.1,0-0.1,0-0.2c-0.9-1-2.9-0.2-2.4,1.2c0.2,0.6,0.8,1,1.4,1c1-0.1,1.5-1.1,1.8-1.8l-0.3-0.1
				c-0.2,0.7,0,1.6,0.9,1.8c0.8,0,1.5-0.5,1.7-1.3c0.2-0.6-0.1-1.3-0.7-1.5c0,0,0,0-0.1,0c-0.8-0.2-1.1,0.3-1.5,0.8
				C402.8,200.3,403,200.5,403.2,200.3c0-0.1,0.2-0.2,0.3-0.4l0.8-0.3l0.4,1.4c-0.2,0.5-0.6,0.6-1.1,0.3c-0.8,0.1-1-0.1-0.8-0.8
				c0-0.2-0.2-0.3-0.3-0.1c-0.1,0.3-0.3,0.5-0.4,0.8c-0.4,0.6-0.7,0.9-1.4,0.7c-0.3,0.1-0.6-0.1-0.7-0.4c0,0,0,0,0,0
				c-0.3-0.4-0.2-0.8,0.3-1.3c0.5-0.3,1.1-0.2,1.4,0.2l0.2-0.2c-1.1-0.5-0.5-2.8,0.5-2.2c0.7,0.4,0.5,1.8,0.4,2.4
				C402.9,200.4,403.2,200.5,403.2,200.3z"/>
			<path class="st3" d="M408.1,196.9c0.1-0.6,0.1-1.3,0.1-1.9c-0.1-0.6-0.5-1.2-1.1-1.5c-0.2-0.1-0.3-0.1-0.5,0
				c-0.2,0.1-0.3,0.3-0.4,0.5c-0.2,0.5-0.4,1-0.4,1.6c0,0.6,0.4,1.1,0.9,1.3c-0.5-0.7-1.4-0.8-2.1-0.3c-0.7,0.5-0.8,1.4-0.3,2.1
				c0.3,0.4,0.8,0.6,1.3,0.6c1-0.1,1.6-1.1,2.1-2.1c-0.3,0.8,0.1,1.8,0.9,1.9c0.4,0,0.7-0.1,1-0.3c0.7-0.4,1.1-1.3,0.8-2.1
				c-0.3-0.8-1.6-0.9-1.9-0.2L408.1,196.9z"/>
			<path class="st24" d="M408.3,196.9c0.3-1,0.2-2.1-0.3-3c-0.3-0.4-0.9-0.9-1.5-0.7s-0.8,1.4-0.9,1.9c-0.1,0.8,0.3,1.6,1,1.9
				c0.1,0.1,0.2,0,0.3-0.1c0-0.1,0-0.2,0-0.2c-1.1-1.2-3.5-0.3-2.9,1.5c0.2,0.7,0.9,1.2,1.7,1.2c1.1-0.1,1.8-1.3,2.2-2.2l-0.4-0.1
				c-0.2,0.8,0,2,1.1,2.1c1,0,1.8-0.7,2.1-1.6c0.3-0.7-0.1-1.5-0.8-1.8c0,0-0.1,0-0.1,0c-0.9-0.3-1.3,0.4-1.8,1
				C407.9,196.9,408.1,197.2,408.3,196.9c0.1-0.2,0.3-0.4,0.4-0.5l1-0.3l0.5,1.7c-0.2,0.7-0.7,0.8-1.4,0.4c-0.9,0.2-1.2-0.2-0.9-1
				c0-0.2-0.2-0.4-0.4-0.1c-0.1,0.3-0.3,0.6-0.5,0.9c-0.5,0.7-0.9,1.1-1.7,0.8c-0.4,0.1-0.7-0.1-0.8-0.5c0,0,0,0,0,0
				c-0.4-0.5-0.3-1,0.3-1.6c0.6-0.3,1.3-0.2,1.7,0.3l0.2-0.3c-1.4-0.6-0.7-3.4,0.6-2.7c0.9,0.5,0.6,2.1,0.5,2.9
				C407.9,197.1,408.3,197.2,408.3,196.9z"/>
			<path class="st3" d="M414.5,194.8c0.1-0.6,0.1-1.3,0.1-1.9c-0.1-0.6-0.5-1.2-1.1-1.5c-0.2-0.1-0.3-0.1-0.5,0
				c-0.2,0.1-0.3,0.3-0.4,0.5c-0.2,0.5-0.4,1-0.4,1.6c0,0.6,0.4,1.1,0.9,1.3c-0.5-0.7-1.4-0.8-2.1-0.3c-0.7,0.5-0.8,1.4-0.3,2.1
				c0.3,0.4,0.8,0.6,1.3,0.6c1-0.1,1.6-1.1,2.1-2.1c-0.3,0.8,0.1,1.8,0.9,1.9c0.4,0,0.7-0.1,1-0.3c0.7-0.4,1.1-1.3,0.8-2.1
				c-0.3-0.8-1.6-0.9-1.9-0.2L414.5,194.8z"/>
			<path class="st24" d="M414.7,194.9c0.3-1,0.2-2.1-0.3-3c-0.3-0.4-0.9-0.9-1.5-0.7s-0.8,1.4-0.9,1.9c-0.1,0.8,0.3,1.6,1,1.9
				c0.1,0.1,0.2,0,0.3-0.1c0-0.1,0-0.2,0-0.2c-1.1-1.2-3.5-0.3-2.9,1.5c0.2,0.7,0.9,1.2,1.7,1.2c1.1-0.1,1.8-1.3,2.2-2.2L414,195
				c-0.2,0.8,0,2,1.1,2.1c1,0,1.8-0.7,2.1-1.6c0.3-0.7-0.1-1.5-0.8-1.8c0,0-0.1,0-0.1,0c-0.9-0.3-1.3,0.4-1.8,1
				C414.3,194.8,414.6,195.1,414.7,194.9c0.1-0.2,0.3-0.3,0.4-0.5l1-0.3l0.5,1.7c-0.2,0.7-0.7,0.8-1.4,0.4c-0.9,0.2-1.2-0.2-0.9-1
				c0-0.2-0.2-0.4-0.4-0.1c-0.1,0.3-0.3,0.6-0.5,0.9c-0.5,0.7-0.9,1.1-1.7,0.8c-0.4,0.1-0.7-0.1-0.8-0.5c0,0,0,0,0,0
				c-0.4-0.5-0.3-1,0.3-1.6c0.6-0.3,1.3-0.2,1.7,0.3l0.2-0.3c-1.4-0.6-0.7-3.4,0.6-2.7c0.9,0.5,0.6,2.1,0.5,2.9
				C414.3,195,414.7,195.1,414.7,194.9z"/>
			<path class="st3" d="M426.3,197.3c0.1-0.5,0.1-1.1,0-1.6c-0.1-0.5-0.4-1-0.9-1.2c-0.1-0.1-0.3-0.1-0.4,0
				c-0.1,0.1-0.3,0.2-0.3,0.4c-0.2,0.4-0.3,0.9-0.3,1.3c0,0.5,0.3,0.9,0.7,1.1c-0.4-0.5-1.2-0.7-1.7-0.3c-0.5,0.4-0.7,1.2-0.3,1.7
				c0.3,0.3,0.7,0.5,1.1,0.5c0.9-0.1,1.4-0.9,1.7-1.7c-0.2,0.6,0.1,1.5,0.8,1.6c0.3,0,0.6-0.1,0.8-0.3c0.6-0.4,0.9-1.1,0.7-1.8
				c-0.3-0.6-1.3-0.8-1.6-0.1L426.3,197.3z"/>
			<path class="st24" d="M426.5,197.3c0.2-0.8,0.1-1.7-0.3-2.4c-0.2-0.3-0.8-0.8-1.2-0.6s-0.7,1.1-0.7,1.5c-0.1,0.6,0.2,1.3,0.8,1.6
				c0.1,0,0.2,0,0.2-0.1c0-0.1,0-0.1,0-0.2c-0.9-1-2.9-0.2-2.4,1.2c0.2,0.6,0.8,1,1.4,1c1-0.1,1.5-1.1,1.8-1.8l-0.3-0.1
				c-0.2,0.7,0,1.6,0.9,1.8c0.8,0,1.5-0.5,1.7-1.3c0.2-0.6-0.1-1.3-0.7-1.5c0,0,0,0-0.1,0c-0.8-0.2-1.1,0.3-1.5,0.8
				C426.1,197.3,426.3,197.5,426.5,197.3c0-0.1,0.2-0.2,0.3-0.4l0.8-0.3l0.4,1.4c-0.2,0.5-0.6,0.6-1.1,0.3c-0.8,0.1-1-0.1-0.8-0.8
				c0-0.2-0.2-0.3-0.3-0.1c-0.1,0.3-0.3,0.5-0.4,0.8c-0.4,0.6-0.7,0.9-1.4,0.7c-0.3,0.1-0.6-0.1-0.7-0.4c0,0,0,0,0,0
				c-0.3-0.4-0.2-0.9,0.3-1.3c0.5-0.3,1.1-0.2,1.4,0.2l0.2-0.2c-1.1-0.5-0.5-2.8,0.5-2.2c0.7,0.4,0.5,1.8,0.4,2.4
				C426.1,197.4,426.4,197.5,426.5,197.3z"/>
			<path class="st3" d="M416.5,195.6c0.1-0.5,0.1-1.1,0-1.6c-0.1-0.5-0.4-1-0.9-1.2c-0.1-0.1-0.3-0.1-0.4,0
				c-0.1,0.1-0.3,0.2-0.3,0.4c-0.2,0.4-0.3,0.9-0.3,1.3c0,0.5,0.3,0.9,0.7,1.1c-0.4-0.5-1.2-0.7-1.7-0.3c-0.5,0.4-0.7,1.2-0.3,1.7
				c0.3,0.3,0.7,0.5,1.1,0.5c0.9-0.1,1.4-0.9,1.7-1.7c-0.2,0.6,0.1,1.5,0.8,1.6c0.3,0,0.6-0.1,0.8-0.3c0.6-0.4,0.9-1.1,0.7-1.8
				c-0.3-0.6-1.3-0.8-1.6-0.1L416.5,195.6z"/>
			<path class="st24" d="M416.7,195.6c0.2-0.8,0.1-1.7-0.3-2.4c-0.2-0.3-0.8-0.8-1.2-0.6s-0.7,1.1-0.7,1.5c-0.1,0.6,0.2,1.3,0.8,1.6
				c0.1,0,0.2,0,0.2-0.1c0-0.1,0-0.1,0-0.2c-0.9-1-2.9-0.2-2.4,1.2c0.2,0.6,0.8,1,1.4,1c1-0.1,1.5-1.1,1.8-1.8l-0.3-0.1
				c-0.2,0.7,0,1.6,0.9,1.8c0.8,0,1.5-0.5,1.7-1.3c0.2-0.6-0.1-1.3-0.7-1.5c0,0,0,0-0.1,0c-0.8-0.2-1.1,0.3-1.5,0.8
				C416.3,195.6,416.5,195.8,416.7,195.6c0-0.1,0.2-0.2,0.3-0.4l0.8-0.3l0.4,1.4c-0.2,0.5-0.6,0.6-1.1,0.3c-0.8,0.1-1-0.1-0.8-0.8
				c0-0.2-0.2-0.3-0.3-0.1c-0.1,0.3-0.3,0.5-0.4,0.8c-0.4,0.6-0.7,0.9-1.4,0.7c-0.3,0.1-0.6-0.1-0.7-0.4c0,0,0,0,0,0
				c-0.3-0.4-0.2-0.8,0.3-1.3c0.5-0.3,1.1-0.2,1.4,0.2l0.2-0.2c-1.1-0.5-0.5-2.8,0.5-2.2c0.7,0.4,0.5,1.8,0.4,2.4
				C416.4,195.7,416.7,195.8,416.7,195.6z"/>
			<path class="st3" d="M421.5,196.1c0.1-0.5,0.1-1.1,0-1.6c-0.1-0.5-0.4-1-0.9-1.2c-0.1-0.1-0.3-0.1-0.4,0
				c-0.1,0.1-0.3,0.2-0.3,0.4c-0.2,0.4-0.3,0.9-0.3,1.3c0,0.5,0.3,0.9,0.7,1.1c-0.4-0.5-1.2-0.7-1.7-0.3c-0.5,0.4-0.7,1.2-0.3,1.7
				c0.3,0.3,0.7,0.5,1.1,0.5c0.9-0.1,1.4-0.9,1.7-1.7c-0.2,0.6,0.1,1.5,0.8,1.6c0.3,0,0.6-0.1,0.8-0.3c0.6-0.4,0.9-1.1,0.7-1.8
				c-0.3-0.6-1.3-0.8-1.6-0.1L421.5,196.1z"/>
			<path class="st24" d="M421.7,196.1c0.2-0.8,0.1-1.7-0.3-2.4c-0.2-0.3-0.8-0.8-1.2-0.6s-0.7,1.1-0.7,1.5c-0.1,0.6,0.2,1.3,0.8,1.6
				c0.1,0,0.2,0,0.2-0.1c0-0.1,0-0.1,0-0.2c-0.9-1-2.9-0.2-2.4,1.2c0.2,0.6,0.8,1,1.4,1c1-0.1,1.5-1.1,1.8-1.8l-0.3-0.1
				c-0.2,0.7,0,1.6,0.9,1.8c0.8,0,1.5-0.5,1.7-1.3c0.2-0.6-0.1-1.3-0.7-1.5c0,0,0,0-0.1,0c-0.8-0.2-1.1,0.3-1.5,0.8
				C421.3,196.1,421.5,196.4,421.7,196.1c0-0.1,0.2-0.2,0.3-0.4l0.8-0.3l0.4,1.4c-0.2,0.5-0.6,0.6-1.1,0.3c-0.8,0.1-1-0.1-0.8-0.8
				c0-0.2-0.2-0.3-0.3-0.1c-0.1,0.3-0.3,0.5-0.4,0.8c-0.4,0.6-0.7,0.9-1.4,0.7c-0.3,0.1-0.6-0.1-0.7-0.4c0,0,0,0,0,0
				c-0.3-0.4-0.2-0.9,0.3-1.3c0.5-0.3,1.1-0.2,1.4,0.2l0.2-0.2c-1.1-0.5-0.5-2.8,0.5-2.2c0.7,0.4,0.5,1.8,0.4,2.4
				C421.4,196.2,421.7,196.3,421.7,196.1z"/>
			<path class="st3" d="M402.5,198.2c0.1-0.6,0.1-1.3,0.1-1.9c-0.1-0.6-0.5-1.2-1.1-1.5c-0.2-0.1-0.3-0.1-0.5,0
				c-0.2,0.1-0.3,0.3-0.4,0.5c-0.2,0.5-0.4,1-0.4,1.6c0,0.6,0.4,1.1,0.9,1.3c-0.5-0.7-1.4-0.8-2.1-0.3c-0.7,0.5-0.8,1.4-0.3,2.1
				c0.3,0.4,0.8,0.6,1.3,0.6c1-0.1,1.6-1.1,2.1-2.1c-0.3,0.8,0.1,1.8,0.9,1.9c0.4,0,0.7-0.1,1-0.3c0.7-0.4,1.1-1.3,0.8-2.1
				c-0.3-0.8-1.6-0.9-1.9-0.2L402.5,198.2z"/>
			<path class="st24" d="M402.7,198.3c0.3-1,0.2-2.1-0.3-3c-0.3-0.4-0.9-0.9-1.5-0.7s-0.8,1.4-0.9,1.9c-0.1,0.8,0.3,1.6,1,1.9
				c0.1,0.1,0.2,0,0.3-0.1c0-0.1,0-0.2,0-0.2c-1.1-1.2-3.5-0.3-2.9,1.5c0.2,0.7,0.9,1.2,1.7,1.2c1.1-0.1,1.8-1.3,2.2-2.2l-0.4-0.1
				c-0.2,0.8,0,2,1.1,2.1c1,0,1.8-0.7,2.1-1.6c0.3-0.7-0.1-1.5-0.8-1.8c0,0-0.1,0-0.1,0c-0.9-0.3-1.3,0.4-1.8,1
				C402.3,198.3,402.5,198.6,402.7,198.3c0.1-0.2,0.3-0.3,0.4-0.5l1-0.3l0.5,1.7c-0.2,0.7-0.7,0.8-1.4,0.4c-0.9,0.2-1.2-0.2-0.9-1
				c0-0.2-0.2-0.4-0.4-0.1c-0.1,0.3-0.3,0.6-0.5,0.9c-0.5,0.7-0.9,1.1-1.7,0.8c-0.4,0.1-0.7-0.1-0.8-0.5c0,0,0,0,0,0
				c-0.4-0.5-0.3-1,0.3-1.6c0.6-0.3,1.3-0.2,1.7,0.3l0.2-0.3c-1.4-0.6-0.7-3.4,0.6-2.7c0.9,0.5,0.6,2.1,0.5,2.9
				C402.3,198.4,402.7,198.6,402.7,198.3z"/>
			<polygon class="st25" points="424,237.1 402.5,237.1 397.1,198.4 402.5,202.2 407.8,198.4 428.3,198.4 			"/>
			<path class="st3" d="M408.3,193.3c-0.3-0.6-0.7-1.1-1.1-1.5c-0.5-0.4-1.2-0.6-1.8-0.5c-0.2,0-0.3,0.1-0.4,0.3
				c-0.1,0.2-0.1,0.4,0,0.6c0.1,0.5,0.4,1,0.7,1.5c0.4,0.4,1,0.6,1.5,0.4c-0.8-0.2-1.6,0.2-1.8,1c-0.2,0.8,0.2,1.6,1,1.8
				c0.5,0.1,1,0,1.4-0.3c0.8-0.7,0.6-1.9,0.3-2.9c0.3,0.8,1.2,1.3,1.9,0.9c0.3-0.2,0.5-0.5,0.6-0.9c0.3-0.8,0-1.7-0.7-2.2
				c-0.7-0.4-1.9,0.3-1.6,1.1L408.3,193.3z"/>
			<path class="st24" d="M408.5,193.2c-0.4-0.9-1.1-1.6-2-2c-0.5-0.2-1.4-0.2-1.7,0.3s0.2,1.6,0.5,2c0.4,0.7,1.2,1,1.9,0.8
				c0.2,0,0.2-0.3,0-0.4c-1.8-0.2-3,2.2-1.2,3c0.7,0.4,1.6,0.2,2.1-0.4c0.5-0.9,0.5-1.9,0.2-2.9l-0.4,0.1c0.4,0.8,1.3,1.5,2.2,1
				c0.7-0.6,1-1.6,0.6-2.5c-0.2-0.7-1-1.2-1.8-1c0,0-0.1,0-0.1,0c-0.9,0.4-0.8,1.1-0.8,1.9c0,0.1,0.1,0.2,0.2,0.2
				S408.5,193.4,408.5,193.2c0-0.6,0-1.6,1-1.6c0.8,0,1.1,1,1,1.6c0,0.8-0.5,1.2-1.6,1.2c-0.3-0.2-0.5-0.5-0.6-0.8
				c-0.1-0.2-0.4-0.1-0.4,0.1c0.2,0.9,0.5,2.3-0.4,2.9c-1.9,1.1-3-2.7-0.4-2.3v-0.4l-1.5-0.6c-0.1-0.2-0.2-0.4-0.3-0.6
				c-0.2-0.5-0.7-1.5,0.9-1.3c0.9,0.1,1.5,1.2,1.9,1.9c0.1,0.1,0.2,0.1,0.3,0.1C408.5,193.4,408.5,193.3,408.5,193.2L408.5,193.2z"
				/>
			<path class="st3" d="M415.3,192c0.1-0.6,0.1-1.3,0.1-1.9c-0.1-0.6-0.5-1.2-1.1-1.5c-0.2-0.1-0.3-0.1-0.5,0
				c-0.2,0.1-0.3,0.3-0.4,0.5c-0.2,0.5-0.4,1-0.4,1.6c0,0.6,0.4,1.1,0.9,1.3c-0.5-0.7-1.4-0.8-2.1-0.3c-0.7,0.5-0.8,1.4-0.3,2.1
				c0.3,0.4,0.8,0.6,1.3,0.6c1-0.1,1.6-1.1,2.1-2.1c-0.3,0.8,0.1,1.8,0.9,1.9c0.4,0,0.7-0.1,1-0.3c0.7-0.4,1.1-1.3,0.8-2.1
				c-0.3-0.8-1.6-0.9-1.9-0.2L415.3,192z"/>
			<path class="st24" d="M415.5,192c0.3-1,0.2-2.1-0.3-3c-0.3-0.4-0.9-0.9-1.5-0.7s-0.8,1.4-0.9,1.9c-0.1,0.8,0.3,1.6,1,1.9
				c0.1,0.1,0.2,0,0.3-0.1c0-0.1,0-0.2,0-0.2c-1.1-1.2-3.5-0.3-2.9,1.5c0.2,0.7,0.9,1.2,1.7,1.2c1.1-0.1,1.8-1.3,2.2-2.2l-0.4-0.1
				c-0.2,0.8,0,2,1.1,2.1c1,0,1.8-0.7,2.1-1.6c0.3-0.7-0.1-1.5-0.8-1.8c0,0-0.1,0-0.1,0c-0.9-0.3-1.3,0.4-1.8,1
				C415.1,192,415.3,192.3,415.5,192c0.1-0.2,0.3-0.3,0.4-0.5l1-0.3l0.5,1.7c-0.2,0.7-0.7,0.8-1.4,0.4c-0.9,0.2-1.2-0.2-0.9-1
				c0-0.2-0.2-0.4-0.4-0.1c-0.1,0.3-0.3,0.6-0.5,0.9c-0.5,0.7-0.9,1.1-1.7,0.8c-0.4,0.1-0.7-0.1-0.8-0.5c0,0,0,0,0,0
				c-0.4-0.5-0.3-1,0.3-1.6c0.6-0.3,1.3-0.2,1.7,0.3l0.2-0.3c-1.4-0.6-0.7-3.4,0.6-2.7c0.9,0.5,0.6,2.1,0.5,2.9
				C415.1,192.2,415.5,192.3,415.5,192z"/>
			<path class="st3" d="M419.6,194.7c0.6-0.5,1.1-1.2,1.5-1.9c0.4-0.7,0.4-1.6,0-2.3c-0.1-0.2-0.3-0.3-0.5-0.4
				c-0.3,0-0.5,0.1-0.7,0.2c-0.6,0.3-1.1,0.8-1.5,1.3c-0.4,0.6-0.4,1.3,0,1.9c0-1-0.8-1.8-1.8-1.8c-1,0-1.8,0.8-1.8,1.8
				c0,0.6,0.3,1.2,0.9,1.6c1.1,0.7,2.5,0.1,3.6-0.6c-0.8,0.5-1.1,1.6-0.6,2.4c0,0.1,0.1,0.1,0.1,0.2c0.3,0.3,0.8,0.4,1.2,0.4
				c1,0.1,2-0.5,2.4-1.5c0.2-1-0.9-2.1-1.8-1.6L419.6,194.7z"/>
			<path class="st24" d="M419.8,194.9c0.9-0.8,1.6-1.8,1.8-3c0-0.7-0.2-1.8-1-1.9s-1.8,0.8-2.3,1.3c-0.7,0.7-0.8,1.7-0.3,2.5
				c0.1,0.2,0.5,0.1,0.4-0.1c-0.2-1.9-2.9-2.9-3.8-0.9c-0.4,0.9-0.2,2,0.7,2.6c1.2,0.8,2.8,0.1,3.9-0.5l-0.3-0.4
				c-0.8,0.7-1.4,2-0.5,2.9s2.5,0.5,3.3-0.2c0.8-0.6,0.9-1.6,0.4-2.4c0,0-0.1-0.1-0.1-0.1c-0.7-0.8-1.6-0.4-2.5-0.2
				c-0.1,0-0.2,0.2-0.1,0.3c0,0.1,0.2,0.2,0.3,0.1c0.5-0.1,1.9-0.7,2.1,0.3l-0.6,1.8c-0.4,0.2-0.9,0.4-1.4,0.4l-1.4-1.1
				c0-0.6,0.3-1.1,0.8-1.4c0.2-0.2-0.1-0.5-0.3-0.4c-0.5,0.3-1,0.5-1.5,0.7c-0.9,0.1-2.2,0-2.5-1c-0.3-0.8,0.2-1.7,1-1.9
				c0.8-0.3,1.7,0.2,1.9,1c0.1,0.2,0.1,0.4,0.1,0.6l0.4-0.1V192c0.2-0.3,0.5-0.6,0.8-0.8c0.6-0.4,1.5-1.2,1.8,0.6
				c0.2,1.1-1,2.2-1.7,2.9C419.2,194.8,419.6,195.1,419.8,194.9z"/>
			<path class="st3" d="M413.5,189.8c0.1-0.6,0.1-1.3,0.1-1.9c-0.1-0.6-0.5-1.2-1.1-1.5c-0.2-0.1-0.3-0.1-0.5,0
				c-0.2,0.1-0.3,0.3-0.4,0.5c-0.2,0.5-0.4,1-0.4,1.6c0,0.6,0.4,1.1,0.9,1.3c-0.5-0.7-1.4-0.8-2.1-0.3c-0.7,0.5-0.8,1.4-0.3,2.1
				c0.3,0.4,0.8,0.6,1.3,0.6c1-0.1,1.6-1.1,2.1-2.1c-0.3,0.8,0.1,1.8,0.9,1.9c0.4,0,0.7-0.1,1-0.3c0.7-0.4,1.1-1.3,0.8-2.1
				c-0.3-0.8-1.6-0.9-1.9-0.2L413.5,189.8z"/>
			<path class="st24" d="M413.6,189.8c0.3-1,0.2-2.1-0.3-3c-0.3-0.4-0.9-0.9-1.5-0.7s-0.8,1.4-0.9,1.9c-0.1,0.8,0.3,1.6,1,1.9
				c0.1,0.1,0.2,0,0.3-0.1c0-0.1,0-0.2,0-0.2c-1.1-1.2-3.5-0.3-2.9,1.5c0.2,0.7,0.9,1.2,1.7,1.2c1.1-0.1,1.8-1.3,2.2-2.2l-0.4-0.1
				c-0.2,0.8,0,2,1.1,2.1c1,0,1.8-0.7,2.1-1.6c0.3-0.7-0.1-1.5-0.8-1.8c0,0-0.1,0-0.1,0c-0.9-0.3-1.3,0.4-1.8,1
				C413.2,189.8,413.5,190.1,413.6,189.8c0.1-0.2,0.3-0.3,0.4-0.5l1-0.3l0.5,1.7c-0.2,0.7-0.7,0.8-1.4,0.4c-0.9,0.2-1.2-0.2-0.9-1
				c0-0.2-0.2-0.4-0.4-0.1c-0.1,0.3-0.3,0.6-0.5,0.9c-0.5,0.7-0.9,1.1-1.7,0.8c-0.4,0.1-0.7-0.1-0.8-0.5c0,0,0,0,0,0
				c-0.4-0.5-0.3-1,0.3-1.6c0.6-0.3,1.3-0.2,1.7,0.3l0.2-0.3c-1.4-0.6-0.7-3.4,0.6-2.7c0.9,0.5,0.6,2.1,0.5,2.9
				C413.2,190,413.6,190.1,413.6,189.8z"/>
			<line class="st26" x1="402.5" y1="202.2" x2="406.5" y2="237"/>
			<line class="st26" x1="405.6" y1="199.2" x2="409.4" y2="237"/>
			<line class="st26" x1="409.6" y1="198.7" x2="411.5" y2="237"/>
			<line class="st26" x1="412.5" y1="198.5" x2="413.5" y2="237"/>
			<circle class="st24" cx="413.2" cy="217" r="10.3"/>
			<line class="st26" x1="416.7" y1="198.1" x2="416.6" y2="237"/>
			<line class="st26" x1="419.5" y1="198" x2="418.5" y2="237"/>
			<line class="st26" x1="422.3" y1="198.5" x2="420.9" y2="237"/>
			<path class="st3" d="M404.7,214.3h2.6c1.6,0,2.6,0.7,2.6,2.1l0,0c0,1.4-1.1,2.2-2.7,2.2h-0.6v1.6h-2L404.7,214.3z M407.2,217.2
				c0.5,0,0.8-0.2,0.8-0.6l0,0c0-0.4-0.3-0.6-0.8-0.6h-0.5v1.3L407.2,217.2z"/>
			<path class="st3" d="M410.3,217.3L410.3,217.3c0.1-1.8,1.6-3.1,3.4-3c1.6,0.1,2.9,1.4,3,3l0,0c-0.1,1.8-1.6,3.1-3.4,3
				C411.7,220.2,410.4,218.9,410.3,217.3z M414.7,217.3L414.7,217.3c0-0.7-0.5-1.3-1.2-1.3c0,0,0,0-0.1,0c-0.7,0-1.2,0.6-1.2,1.2
				c0,0,0,0,0,0.1l0,0c0,0.7,0.5,1.3,1.2,1.3c0,0,0,0,0.1,0C414.1,218.6,414.7,218,414.7,217.3C414.7,217.3,414.7,217.3,414.7,217.3
				z"/>
			<path class="st3" d="M417.2,214.3h2.6c1.6,0,2.6,0.7,2.6,2.1l0,0c0,1.4-1.1,2.2-2.7,2.2h-0.6v1.6h-2L417.2,214.3z M419.7,217.2
				c0.5,0,0.8-0.2,0.8-0.6l0,0c0-0.4-0.3-0.6-0.8-0.6h-0.5v1.3L419.7,217.2z"/>
			<line class="st26" x1="426" y1="197.4" x2="422.4" y2="237"/>
			<line class="st26" x1="400" y1="200.6" x2="404.1" y2="237"/>
			<path class="st3" d="M400.7,187c0.1-0.6,0.1-1.3,0.1-1.9c-0.1-0.6-0.5-1.2-1.1-1.5c-0.2-0.1-0.3-0.1-0.5,0
				c-0.2,0.1-0.3,0.3-0.4,0.5c-0.2,0.5-0.4,1-0.4,1.6c0,0.6,0.4,1.1,0.9,1.3c-0.5-0.7-1.4-0.8-2.1-0.3c-0.7,0.5-0.8,1.4-0.3,2.1
				c0.3,0.4,0.8,0.6,1.3,0.6c1-0.1,1.6-1.1,2.1-2.1c-0.3,0.8,0.1,1.8,0.9,1.9c0.4,0,0.7-0.1,1-0.3c0.7-0.4,1.1-1.3,0.8-2.1
				c-0.3-0.8-1.6-0.9-1.9-0.2L400.7,187z"/>
			<path class="st24" d="M400.9,187.1c0.3-1,0.2-2.1-0.3-3c-0.3-0.4-0.9-0.9-1.5-0.7s-0.8,1.4-0.9,1.9c-0.1,0.8,0.3,1.6,1,1.9
				c0.1,0.1,0.2,0,0.3-0.1c0-0.1,0-0.2,0-0.2c-1.1-1.2-3.5-0.3-2.9,1.5c0.2,0.7,0.9,1.2,1.7,1.2c1.1-0.1,1.8-1.3,2.2-2.2l-0.4-0.1
				c-0.2,0.8,0,2,1.1,2.1c1,0,1.8-0.7,2.1-1.6c0.3-0.7-0.1-1.5-0.8-1.8c0,0-0.1,0-0.1,0c-0.9-0.3-1.3,0.4-1.8,1
				C400.4,187.1,400.7,187.4,400.9,187.1c0.1-0.2,0.3-0.3,0.4-0.5l1-0.3l0.5,1.7c-0.2,0.7-0.7,0.8-1.4,0.4c-0.9,0.2-1.2-0.2-0.9-1
				c0-0.2-0.2-0.4-0.4-0.1c-0.1,0.3-0.3,0.6-0.5,0.9c-0.5,0.7-0.9,1.1-1.7,0.8c-0.4,0.1-0.7-0.1-0.8-0.5c0,0,0,0,0,0
				c-0.4-0.5-0.3-1,0.3-1.6c0.6-0.3,1.3-0.2,1.7,0.3l0.2-0.3c-1.4-0.6-0.7-3.4,0.6-2.7c0.9,0.5,0.6,2.1,0.5,2.9
				C400.5,187.2,400.8,187.3,400.9,187.1z"/>
			<path class="st3" d="M408,183.7c0.6-0.2,1.1-0.6,1.6-1c0.5-0.5,0.7-1.1,0.6-1.8c0-0.2-0.1-0.3-0.3-0.4c-0.2-0.1-0.4-0.1-0.6,0
				c-0.5,0.1-1.1,0.3-1.5,0.6c-0.5,0.3-0.7,0.9-0.5,1.4c0.3-0.8-0.1-1.6-0.9-1.9c-0.8-0.3-1.6,0.1-1.9,0.9c-0.2,0.5-0.1,1,0.3,1.4
				c0.6,0.8,1.9,0.7,2.9,0.5c-0.8,0.2-1.4,1.1-1,1.8c0.2,0.3,0.5,0.5,0.8,0.6c0.8,0.3,1.7,0.1,2.2-0.5c0.5-0.7-0.1-1.9-1-1.7
				L408,183.7z"/>
			<path class="st24" d="M408,183.9c1-0.3,1.7-1,2.2-1.9c0.2-0.5,0.2-1.3-0.3-1.6s-1.9,0.2-2.4,0.6c-0.5,0.4-0.8,1-0.6,1.7
				c0,0.1,0.1,0.2,0.2,0.1c0.1,0,0.1-0.1,0.1-0.1c0.4-1.7-1.8-3.1-2.9-1.4c-0.5,0.6-0.4,1.5,0.1,2.1c0.8,0.8,2,0.6,3,0.5l-0.1-0.4
				c-0.8,0.3-1.6,1.2-1.2,2.1c0.5,0.8,1.5,1.1,2.4,0.8c0.8-0.2,1.3-0.9,1.1-1.7c0-0.1,0-0.1,0-0.2c-0.3-0.9-1.1-0.8-1.9-0.9
				C407.7,183.5,407.7,183.9,408,183.9c0.7,0,2.3,0.4,1.2,1.6c-0.4,0.4-1,0.5-1.6,0.4c-1.4-0.3-1.2-1.7-0.1-2.2
				c0.1,0,0.2-0.1,0.1-0.2c0-0.1-0.1-0.2-0.2-0.1l0,0c-1,0.2-2.7,0.4-2.9-1c-0.1-0.6,0.2-1.2,0.8-1.3c0,0,0.1,0,0.1,0
				c0.6-0.2,1.3,0.2,1.5,0.8c0.1,0.2,0.1,0.5,0,0.7h0.4c-0.2-0.9,0.6-1.4,1.3-1.6l0.6-0.2c0.7,0,0.9,0.3,0.6,0.8
				c-0.2,1.1-1.1,1.6-2,2C407.6,183.7,407.8,184,408,183.9z"/>
			<path class="st3" d="M392,207.6c0.1-0.6,0.1-1.3,0.1-1.9c-0.1-0.6-0.5-1.2-1.1-1.5c-0.2-0.1-0.3-0.1-0.5,0
				c-0.2,0.1-0.3,0.3-0.4,0.5c-0.2,0.5-0.4,1-0.4,1.6c0,0.6,0.4,1.1,0.9,1.3c-0.5-0.7-1.4-0.8-2.1-0.3c-0.7,0.5-0.8,1.4-0.3,2.1
				c0.3,0.4,0.8,0.6,1.3,0.6c1-0.1,1.6-1.1,2.1-2.1c-0.3,0.8,0.1,1.8,0.9,1.9c0.4,0,0.7-0.1,1-0.3c0.7-0.4,1.1-1.3,0.8-2.1
				c-0.3-0.8-1.6-0.9-1.9-0.2L392,207.6z"/>
			<path class="st24" d="M392.1,207.6c0.3-1,0.2-2.1-0.3-3c-0.3-0.4-0.9-0.9-1.5-0.7s-0.8,1.4-0.9,1.9c-0.1,0.8,0.3,1.6,1,1.9
				c0.1,0.1,0.2,0,0.3-0.1c0-0.1,0-0.2,0-0.2c-1.1-1.2-3.5-0.3-2.9,1.5c0.2,0.7,0.9,1.2,1.7,1.2c1.1-0.1,1.8-1.3,2.2-2.2l-0.4-0.1
				c-0.2,0.8,0,2,1.1,2.1c1,0,1.8-0.7,2.1-1.6c0.3-0.7-0.1-1.5-0.8-1.8c0,0-0.1,0-0.1,0c-0.9-0.3-1.3,0.4-1.8,1
				C391.7,207.6,392,207.9,392.1,207.6c0.1-0.2,0.3-0.3,0.4-0.5l1-0.3l0.5,1.7c-0.2,0.7-0.7,0.8-1.4,0.4c-0.9,0.2-1.2-0.2-0.9-1
				c0-0.2-0.2-0.4-0.4-0.1c-0.1,0.3-0.3,0.6-0.5,0.9c-0.5,0.7-0.9,1.1-1.7,0.8c-0.4,0.1-0.7-0.1-0.8-0.5c0,0,0,0,0,0
				c-0.4-0.5-0.3-1,0.3-1.6c0.6-0.3,1.3-0.2,1.7,0.3l0.2-0.3c-1.4-0.6-0.7-3.4,0.6-2.7c0.9,0.5,0.6,2.1,0.5,2.9
				C391.7,207.8,392.1,207.9,392.1,207.6z"/>
			<path class="st3" d="M404.9,238.5c0.2-0.8,0.2-1.6,0.1-2.4c-0.1-0.8-0.7-1.5-1.4-1.9c-0.2-0.1-0.4-0.1-0.6,0
				c-0.2,0.2-0.4,0.4-0.5,0.6c-0.3,0.6-0.5,1.3-0.5,2c0,0.7,0.5,1.4,1.1,1.6c-0.6-0.8-1.8-1-2.6-0.4c-0.8,0.6-1,1.8-0.4,2.6
				c0.4,0.5,1,0.8,1.6,0.7c1.3-0.1,2.1-1.5,2.6-2.6c-0.4,1,0.2,2.3,1.2,2.4c0.4,0,0.9-0.1,1.2-0.4c0.9-0.6,1.4-1.7,1.1-2.7
				c-0.4-1-2-1.2-2.5-0.2L404.9,238.5z"/>
			<path class="st24" d="M405.1,238.6c0.2-1.2,0.4-2.7-0.4-3.8c-0.4-0.5-1.1-1.2-1.9-0.9s-1,1.8-1.1,2.4c-0.2,1,0.3,2,1.2,2.4
				c0.1,0.1,0.3,0,0.3-0.1c0-0.1,0-0.2,0-0.3c-1.4-1.6-4.4-0.4-3.6,1.9c0.3,0.9,1.2,1.6,2.1,1.5c1.5-0.1,2.3-1.6,2.8-2.8l-0.5-0.2
				c-0.3,1.1,0.1,2.5,1.4,2.7c1.2,0,2.3-0.8,2.6-2c0.4-0.9-0.1-2-1-2.3c0,0-0.1,0-0.1,0c-1.2-0.4-1.7,0.5-2.3,1.3
				c-0.2,0.2,0.1,0.6,0.4,0.4c0.2-0.3,0.3-0.5,0.6-0.7l1.3-0.4l0.6,2.1c-0.3,0.8-0.9,1-1.7,0.5c-1.2,0.2-1.5-0.2-1.1-1.2
				c0.1-0.3-0.3-0.4-0.5-0.2c-0.2,0.4-0.4,0.8-0.6,1.2c-0.6,0.9-1.1,1.3-2.2,1.1c-0.5,0.1-0.9-0.2-1-0.6c-0.5-0.6-0.4-1.3,0.4-2
				c0.7-0.4,1.7-0.2,2.2,0.4l0.3-0.4c-1.8-0.8-0.8-4.4,0.8-3.5c1.1,0.6,0.7,2.7,0.6,3.6C404.6,238.8,405.1,238.9,405.1,238.6z"/>
			<path class="st3" d="M410,242.6c0.8,0.2,1.6,0.2,2.4,0.1c0.8-0.1,1.5-0.7,1.9-1.4c0.1-0.2,0.1-0.4,0-0.6
				c-0.2-0.2-0.4-0.4-0.6-0.5c-0.6-0.3-1.3-0.5-2-0.5c-0.7,0-1.4,0.5-1.6,1.1c0.8-0.6,1-1.8,0.4-2.6c-0.6-0.8-1.8-1-2.6-0.4
				c-0.5,0.4-0.8,1-0.7,1.6c0.1,1.3,1.5,2.1,2.6,2.6c-1-0.4-2.3,0.2-2.4,1.2c0,0.4,0.1,0.9,0.4,1.2c0.6,0.9,1.7,1.4,2.7,1.1
				c1-0.4,1.2-2,0.2-2.4L410,242.6z"/>
			<path class="st24" d="M409.9,242.8c1.2,0.2,2.7,0.4,3.8-0.4c0.5-0.4,1.2-1.1,0.9-1.9s-1.8-1-2.4-1.1c-1-0.2-2,0.3-2.4,1.2
				c-0.1,0.1,0,0.3,0.1,0.3c0.1,0,0.2,0,0.3,0c1.5-1.4,0.4-4.4-1.9-3.6c-0.9,0.3-1.6,1.2-1.5,2.1c0.1,1.4,1.6,2.3,2.8,2.8l0.2-0.4
				c-1.1-0.3-2.5,0.1-2.7,1.4c0,1.2,0.8,2.3,2,2.6c0.9,0.4,2-0.1,2.3-1c0,0,0-0.1,0-0.1c0.4-1.2-0.5-1.7-1.3-2.3
				c-0.2-0.2-0.6,0.1-0.4,0.4c0.3,0.2,0.5,0.3,0.7,0.6l0.4,1.3l-2.1,0.6c-0.8-0.3-1-0.9-0.5-1.7c-0.2-1.2,0.2-1.5,1.2-1.1
				c0.3,0.1,0.5-0.3,0.2-0.4c-0.4-0.2-0.8-0.4-1.2-0.6c-0.9-0.6-1.3-1.1-1.1-2.2c-0.1-0.5,0.2-0.9,0.6-1c0.6-0.5,1.3-0.4,2,0.4
				c0.4,0.7,0.2,1.7-0.4,2.2l0.4,0.3c0.8-1.8,4.4-0.8,3.5,0.8c-0.6,1.1-2.7,0.7-3.6,0.6C409.8,242.3,409.6,242.8,409.9,242.8z"/>
		</g>
		<g id="veg">
			<circle class="st24" cx="937.1" cy="323.8" r="35.2"/>
			<path class="st3" d="M917.5,311.6c2.3,0,4.5,0,6.7,0c0.3,0,0.7,0.6,0.8,0.9c3,7.9,6,15.8,8.9,23.8c0,0.2,0.1,0.4,0.2,0.5
				c0.2,0.2,0.4,0.4,0.6,0.6c0.2-0.2,0.5-0.4,0.6-0.6c0.6-1.4,1-2.9,1.4-4.4c0.3-1.3,1.2-2.3,2.5-2.7c2.5-1,4.8-2.5,6.7-4.4
				c2.3-2.4,3.7-5.5,4-8.8c0.4-3.6,0.7-7.2,1.1-10.9l-3,4.4l-2.4-1.4l-0.3,0.1c2.4,1.5,2.5,3.3,1,5.4c-1.6-1-3-2.5-5.1-2.9
				c1.3,1.3,2.5,2.5,3.8,3.6c0.7,0.5,0.9,1.5,0.4,2.2c-0.3,0.7-0.6,1.4-0.9,2.1l-5.3-3.2l-0.2,0.4c1.8,1.1,3.2,2.8,4.1,4.7l-7.8,4.4
				c-2.1-11,6.6-21.9,17.4-21.6c0.3,5,0.9,10.1,0.9,15.1c0,3.9-1.8,7.3-4.6,10c-1.6,1.6-3.6,2.9-5.3,4.5c-0.6,0.5-1.1,1.1-1.5,1.8
				c-1.1,2.5-2.2,5.1-3.2,7.6c-0.1,0.6-0.7,1.1-1.4,1c-1.8-0.1-3.6,0-5.4,0c-0.4,0-0.8-0.3-1.1-0.6c-4.5-10.4-9-20.7-13.5-31.1
				C917.5,311.9,917.5,311.8,917.5,311.6z"/>
		</g>
	</g>
</g>
</svg>
