<?xml version="1.0" encoding="utf-8"?>
<!-- Generator: Adobe Illustrator 21.1.0, SVG Export Plug-In . SVG Version: 6.00 Build 0)  -->
<svg version="1.1" id="Layer_1" xmlns="http://www.w3.org/2000/svg" xmlns:xlink="http://www.w3.org/1999/xlink" x="0px" y="0px"
	 viewBox="0 0 896.1 597.3" style="enable-background:new 0 0 896.1 597.3;" xml:space="preserve">
<style type="text/css">
	.st0{fill:#050433;stroke:#FFFFFF;stroke-width:2.05;stroke-miterlimit:10;}
	.st1{fill:none;stroke:#FFFFFF;stroke-width:2.05;stroke-miterlimit:10;}
	.st2{opacity:0.69;}
	.st3{fill:#FFFFFF;stroke:#FFFFFF;stroke-width:0.26;stroke-miterlimit:10;}
	.st4{fill:#050433;stroke:#FFFFFF;stroke-width:0.26;stroke-miterlimit:10;}
	.st5{fill:none;stroke:#FCFDFF;stroke-width:2.05;stroke-miterlimit:10;}
	.st6{fill:none;stroke:#F9F9F9;stroke-width:2.05;stroke-miterlimit:10;}
	.st7{fill:none;stroke:#FFFFFF;stroke-width:3.07;stroke-miterlimit:10;}
	.st8{fill:#4A89F0;}
	.st9{fill:#FFFFFF;}
	.st10{fill:#85AD3A;}
	.st11{fill:#FFDE37;}
	.st12{fill:#FF4898;}
	.st13{fill:#EE2B34;}
	.st14{fill:#33B3A2;}
	.st15{fill:#F68332;}
	.st16{fill:none;stroke:#FFFFFF;stroke-width:1.68;stroke-miterlimit:10;}
	.st17{fill:none;stroke:#F68332;stroke-width:0.98;stroke-miterlimit:10;}
	.st18{fill:none;stroke:#F68332;stroke-miterlimit:10;}
	.st19{fill:none;stroke:#F68332;stroke-width:0.17;stroke-miterlimit:10;}
</style>
<title>Asset 2</title>
<g id="Layer_2">
	<g id="first_floor_plan">
		<g id="first_floor_map">
			<rect x="62.1" y="485.3" class="st0" width="300.8" height="72.4"/>
			<polygon class="st0" points="62.1,557.7 34.1,557.7 13.2,539.2 13.2,485.3 62.1,485.3 			"/>
			<rect x="13.2" y="439.4" class="st0" width="20" height="33.1"/>
			<polygon class="st0" points="688.4,84.9 703.2,99.7 666.4,136.5 643.5,113.6 632.6,102.9 607.1,77.3 370.6,75.9 370.6,35.8 
				693.3,35.8 715.5,57.9 			"/>
			<polygon class="st0" points="894.7,237.6 864.5,267.7 823.4,226.6 818,232.1 837.2,251.1 809.7,279.1 784.4,254.6 742.8,212.9 
				719.3,189.5 666.4,136.6 703.2,99.7 688.4,84.9 715.5,57.9 			"/>
			
				<rect x="598.8" y="428.9" transform="matrix(0.7071 -0.7071 0.7071 0.7071 -109.7105 610.4614)" class="st0" width="166.5" height="17.5"/>
			<polygon class="st0" points="800.7,290.1 666.4,426.6 603.7,364.8 656,312.5 633.3,289.8 633.3,259.3 649.1,259.1 665.1,275.3 
				725.9,215 			"/>
			<polygon class="st0" points="669.8,161.7 617.5,214.1 605.8,214.1 605.8,273.1 574.2,273.1 574.2,371.2 548.2,377.6 548.2,398.4 
				445.4,398.4 445.4,377.9 419.6,370.9 419.6,273.1 387.5,273.1 387.5,213.9 376.8,213.9 300.1,137.3 345.9,91.5 599.6,91.5 			"/>
			<polygon class="st0" points="385.2,356.5 294,447.7 141.3,295.3 263.7,172.9 286,150.8 307.5,171.9 321.1,185.5 362.6,227 
				344.8,244.9 309,280.6 318.1,289.5 347.6,259.6 363.8,259.6 362.7,288.8 340.1,311.4 			"/>
			<polyline class="st0" points="132.6,303.8 217.9,389.5 182.5,424.9 182.5,472.5 69.2,472.5 69.2,365.6 			"/>
			<rect x="36.6" y="439.4" class="st0" width="19.9" height="33.1"/>
			<rect x="33.1" y="399.5" class="st0" width="23.4" height="35.3"/>
			<rect x="13.2" y="363.3" class="st0" width="20" height="76.1"/>
			<rect x="39.3" y="356.1" class="st0" width="17.3" height="36"/>
			
				<rect x="52.5" y="290.5" transform="matrix(0.7072 -0.707 0.707 0.7072 -207.2093 135.9065)" class="st0" width="15.9" height="55.3"/>
			
				<rect x="25.5" y="318.3" transform="matrix(0.7071 -0.7071 0.7071 0.7071 -220.5293 124.1657)" class="st0" width="28.3" height="20"/>
			
				<rect x="18.6" y="263.7" transform="matrix(0.7071 -0.7071 0.7071 0.7071 -174.3254 120.8263)" class="st0" width="80.1" height="14.3"/>
			
				<rect x="75.2" y="284.9" transform="matrix(0.7071 -0.7071 0.7071 0.7071 -187.2647 152.4152)" class="st0" width="30.3" height="34.7"/>
			
				<rect x="52" y="327.4" transform="matrix(0.7072 -0.707 0.707 0.7072 -222.8051 141.8797)" class="st0" width="15.8" height="25.1"/>
			
				<rect x="257.3" y="74.2" transform="matrix(0.7071 -0.7071 0.7071 0.7071 19.5595 235.7167)" class="st0" width="74" height="40"/>
			
				<rect x="81.5" y="167.4" transform="matrix(0.7071 -0.7071 0.7071 0.7071 -94.0083 176.6449)" class="st0" width="169.5" height="68.9"/>
			
				<rect x="229.8" y="116.2" transform="matrix(0.7071 -0.7071 0.7071 0.7071 -22.4645 218.2599)" class="st0" width="44.9" height="40"/>
			<rect x="458.6" y="433.7" class="st0" width="78.4" height="30.6"/>
			<polygon class="st0" points="447,464.2 399.4,523.8 376.7,506.4 424.7,446.4 			"/>
			
				<rect x="574.6" y="443.4" transform="matrix(0.7071 -0.7071 0.7071 0.7071 -169.8346 558.9029)" class="st0" width="30.2" height="82.1"/>
			<polygon class="st0" points="398.8,524.5 373.6,557.7 362.9,557.7 362.9,507.2 376.3,507.2 			"/>
			<polyline class="st0" points="458.3,433.7 434.2,433.7 425.2,445.8 448.1,464.2 458.3,464.2 			"/>
			<polyline class="st0" points="537.3,464.2 537.3,433.7 561.3,433.7 570.8,444.2 549.5,465.5 548.2,464.2 			"/>
			
				<rect x="637.2" y="195.8" transform="matrix(0.7071 -0.7071 0.7071 0.7071 43.743 541.1232)" class="st0" width="75.8" height="44"/>
			<polygon class="st0" points="849.1,283.1 747.2,384.9 734.9,372.5 836.6,270.7 			"/>
			
				<rect x="98.1" y="245.7" transform="matrix(0.7072 -0.707 0.707 0.7072 -161.7638 154.77)" class="st0" width="15.8" height="54"/>
			<line class="st1" x1="81.2" y1="259.1" x2="92.4" y2="247.9"/>
			<polygon class="st0" points="33.2,349 33.1,363.3 13.2,363.3 13.2,339.9 22.6,331.2 36.8,345.4 			"/>
			<polyline class="st0" points="190.5,472.6 190.5,428.7 232.7,386.5 232.7,386.5 248.8,402.6 214,437.5 214,472.6 			"/>
			<g class="st2">
				<ellipse class="st0" cx="248.2" cy="449.7" rx="21.5" ry="18.1"/>
				<rect x="241.4" y="466.7" class="st0" width="13.9" height="5.9"/>
			</g>
			<path class="st3" d="M639.6,162.2l-1.1,0.4l-0.1-0.3l1.3-0.5h0.3v5.7h-0.4V162.2z"/>
			<path class="st3" d="M642.1,167c-0.6-0.6-0.8-1.4-0.7-2.2l0,0c0-1.7,0.9-3.1,2.3-3.1c0.6,0,1.2,0.2,1.6,0.7l-0.3,0.3
				c-0.4-0.4-0.9-0.6-1.4-0.6c-1.1,0-1.9,1.2-1.9,2.8v0.2c0.3-0.7,1-1.1,1.8-1.1c1-0.1,1.9,0.7,2,1.7c0,0,0,0,0,0.1l0,0
				c0,1-0.9,1.9-1.9,1.9h-0.1C643,167.6,642.5,167.4,642.1,167z M645.1,165.7L645.1,165.7c0-0.8-0.7-1.4-1.5-1.4h-0.1
				c-0.8,0-1.5,0.6-1.6,1.4l0,0c0,0.8,0.7,1.5,1.5,1.4c0,0,0,0,0.1,0C644.4,167.2,645.1,166.6,645.1,165.7
				C645.1,165.8,645.1,165.7,645.1,165.7L645.1,165.7z"/>
			<path class="st3" d="M647.3,162.2l-1.1,0.4l-0.1-0.3l1.3-0.5h0.3v5.7h-0.4V162.2z"/>
			<path class="st3" d="M724.2,133.5l-1.1,0.4l-0.1-0.3l1.3-0.5h0.3v5.7h-0.4V133.5z"/>
			<path class="st3" d="M726.7,138.3c-0.6-0.6-0.8-1.4-0.7-2.2l0,0c0-1.7,0.9-3.1,2.3-3.1c0.6,0,1.2,0.2,1.6,0.7l-0.3,0.3
				c-0.4-0.4-0.9-0.6-1.4-0.6c-1.1,0-1.9,1.2-1.9,2.8v0.2c0.4-0.7,1-1.1,1.8-1.1c1-0.1,1.9,0.7,2,1.7c0,0,0,0,0,0.1l0,0
				c0,1-0.9,1.9-1.9,1.9h-0.1C727.6,138.8,727.1,138.6,726.7,138.3z M729.7,137L729.7,137c0-0.8-0.7-1.4-1.5-1.4h-0.1
				c-0.8,0-1.5,0.6-1.6,1.4l0,0c0,0.8,0.7,1.5,1.5,1.4c0,0,0,0,0.1,0C729,138.5,729.6,137.9,729.7,137L729.7,137z"/>
			<path class="st3" d="M731.1,137.9l0.3-0.3c0.4,0.5,1,0.8,1.7,0.8c0.8,0,1.5-0.6,1.5-1.3V137l0,0c0-0.8-0.7-1.4-1.4-1.4h-0.1
				c-0.5,0-0.9,0.1-1.3,0.4l-0.3-0.2l0.2-2.8h3.2v0.4H732l-0.1,2.1c0.4-0.2,0.8-0.3,1.3-0.3c1-0.1,1.9,0.6,1.9,1.6v0.1l0,0
				c0,1-0.8,1.8-1.8,1.8c-0.1,0-0.1,0-0.2,0C732.3,138.8,731.6,138.5,731.1,137.9z"/>
			<path class="st3" d="M791.1,202.2l-1.1,0.4l-0.1-0.3l1.3-0.5h0.3v5.7h-0.4V202.2z"/>
			<path class="st3" d="M796.2,202.2h-3.3v-0.4h3.8v0.3l-2.6,5.4h-0.5L796.2,202.2z"/>
			<path class="st3" d="M800,206.1h-3l-0.1-0.3l3.2-4h0.4v4h0.9v0.4h-0.9v1.4H800V206.1z M800,205.7v-3.4l-2.7,3.3L800,205.7z"/>
			<path class="st3" d="M820.9,290.6l-1.1,0.4l-0.1-0.3l1.3-0.5h0.3v5.7h-0.4V290.6z"/>
			<path class="st3" d="M826,290.6h-3.3v-0.4h3.8v0.3l-2.6,5.4h-0.5L826,290.6z"/>
			<path class="st3" d="M828,295.4c-0.6-0.6-0.8-1.4-0.7-2.2l0,0c0-1.7,0.9-3.1,2.3-3.1c0.6,0,1.2,0.2,1.6,0.7l-0.3,0.3
				c-0.4-0.4-0.9-0.6-1.4-0.6c-1.1,0-1.9,1.2-1.9,2.8v0.2c0.4-0.7,1-1.1,1.8-1c1-0.1,1.9,0.7,2,1.7c0,0,0,0,0,0.1l0,0
				c0,1-0.9,1.9-1.9,1.9h-0.1C828.9,296,828.4,295.8,828,295.4z M831,294.2L831,294.2c0-0.8-0.7-1.4-1.5-1.4h-0.1
				c-0.8,0-1.5,0.6-1.6,1.4l0,0c0,0.8,0.7,1.5,1.5,1.4c0,0,0,0,0.1,0C830.3,295.7,831,295,831,294.2L831,294.2z"/>
			<path class="st3" d="M786.7,325.4l-1.1,0.4l-0.1-0.3l1.3-0.5h0.3v5.7h-0.4V325.4z"/>
			<path class="st3" d="M791.8,325.4h-3.3V325h3.8v0.3l-2.6,5.4h-0.5L791.8,325.4z"/>
			<path class="st3" d="M796.6,325.4h-3.3V325h3.8v0.3l-2.6,5.4H794L796.6,325.4z"/>
			<path class="st3" d="M754,358l-1.1,0.4l-0.1-0.3l1.3-0.5h0.3v5.7H754V358z"/>
			<path class="st3" d="M759.1,358h-3.3v-0.4h3.8v0.3l-2.6,5.4h-0.5L759.1,358z"/>
			<path class="st3" d="M760.4,361.7L760.4,361.7c0.1-0.7,0.6-1.3,1.3-1.4c-0.6-0.2-1-0.7-1.1-1.3l0,0c0-0.9,0.9-1.5,1.9-1.5
				s1.9,0.6,1.9,1.5l0,0c0,0.6-0.5,1.1-1.1,1.3c0.7,0.1,1.2,0.7,1.3,1.4l0,0c0,0.9-0.9,1.6-2.1,1.6S760.4,362.7,760.4,361.7z
				 M764.2,361.7L764.2,361.7c0-0.7-0.8-1.2-1.7-1.2s-1.7,0.5-1.7,1.2l0,0c0,0.6,0.6,1.2,1.7,1.2S764.2,362.4,764.2,361.7
				L764.2,361.7z M764,358.9L764,358.9c0-0.6-0.7-1.1-1.5-1.1s-1.5,0.5-1.5,1.1l0,0c0.1,0.8,0.9,1.4,1.7,1.3
				C763.4,360.1,763.9,359.6,764,358.9L764,358.9z"/>
			<path class="st3" d="M702.8,409.8l-1.1,0.4l-0.1-0.3l1.3-0.5h0.3v5.7h-0.4V409.8z"/>
			<path class="st3" d="M707.9,409.8h-3.3v-0.4h3.8v0.3l-2.6,5.4h-0.5L707.9,409.8z"/>
			<path class="st3" d="M712.9,412.1v-0.2c-0.3,0.7-1,1.1-1.8,1.1c-1,0.1-1.9-0.6-2-1.6v-0.1l0,0c0-1.1,0.9-1.9,1.9-1.9h0.1
				c0.5,0,1.1,0.2,1.4,0.6c0.5,0.6,0.8,1.4,0.7,2.2l0,0c0,1.8-1,3.1-2.3,3.1c-0.6,0-1.2-0.3-1.7-0.7l0.3-0.3
				c0.4,0.4,0.9,0.6,1.5,0.6C712.2,414.8,712.9,413.6,712.9,412.1z M712.8,411.1L712.8,411.1c0-0.8-0.7-1.5-1.6-1.4c0,0,0,0-0.1,0
				c-0.8,0-1.5,0.6-1.5,1.4v0.1l0,0c0,0.8,0.7,1.4,1.5,1.4h0.1C712,412.6,712.7,412,712.8,411.1
				C712.7,411.1,712.7,411.1,712.8,411.1L712.8,411.1z"/>
			<path class="st3" d="M441.9,444.5l-1.1,0.4l-0.1-0.3l1.3-0.5h0.3v5.7H442L441.9,444.5z"/>
			<path class="st3" d="M443.6,448.2L443.6,448.2c0.1-0.7,0.6-1.3,1.3-1.4c-0.6-0.2-1-0.7-1.1-1.3l0,0c0-0.9,0.9-1.5,1.9-1.5
				s1.9,0.6,1.9,1.5l0,0c0,0.6-0.5,1.1-1.1,1.3c0.7,0.1,1.2,0.7,1.3,1.4l0,0c0,0.9-0.9,1.6-2.1,1.6S443.6,449.2,443.6,448.2z
				 M447.4,448.2L447.4,448.2c0-0.7-0.8-1.2-1.7-1.2s-1.7,0.5-1.7,1.2l0,0c0,0.6,0.6,1.2,1.7,1.2S447.4,448.9,447.4,448.2
				L447.4,448.2z M447.2,445.5L447.2,445.5c0-0.6-0.6-1.1-1.5-1.1s-1.5,0.5-1.5,1.1l0,0c0.1,0.8,0.9,1.4,1.7,1.3
				C446.7,446.6,447.2,446.1,447.2,445.5L447.2,445.5z"/>
			<path class="st3" d="M452.5,446.7v-0.2c-0.3,0.7-1,1.1-1.8,1.1c-1,0.1-1.9-0.6-2-1.6v-0.1l0,0c0-1.1,0.9-1.9,1.9-1.9h0.1
				c0.5,0,1.1,0.2,1.4,0.6c0.6,0.6,0.8,1.4,0.8,2.2l0,0c0,1.8-1,3.1-2.3,3.1c-0.6,0-1.2-0.3-1.7-0.7l0.3-0.3
				c0.4,0.4,0.9,0.6,1.5,0.6C451.8,449.5,452.5,448.3,452.5,446.7z M452.4,445.7L452.4,445.7c0-0.8-0.7-1.5-1.6-1.4c0,0,0,0-0.1,0
				c-0.8,0-1.5,0.6-1.5,1.4c0,0,0,0,0,0.1l0,0c0,0.8,0.7,1.4,1.5,1.4h0.1C451.6,447.2,452.3,446.6,452.4,445.7L452.4,445.7z"/>
			<path class="st3" d="M149.5,529.9l-1.1,0.4l-0.1-0.3l1.3-0.5h0.3v5.7h-0.4V529.9z"/>
			<path class="st3" d="M152.2,529.9l-1.1,0.4L151,530l1.3-0.5h0.3v5.7h-0.4V529.9z"/>
			<path class="st3" d="M153.9,534.9l2.1-1.9c0.9-0.8,1.3-1.3,1.3-1.9c0-0.7-0.6-1.2-1.2-1.2l0,0c-0.7,0-1.3,0.4-1.7,1l-0.4-0.2
				c0.4-0.8,1.2-1.2,2-1.2c0.9-0.1,1.6,0.6,1.7,1.5c0,0,0,0,0,0.1l0,0c0,0.8-0.4,1.3-1.4,2.2l-1.7,1.6h3.2v0.4h-3.9L153.9,534.9z"/>
			<path class="st3" d="M88.6,530.1l-1.1,0.4l-0.1-0.3l1.3-0.5H89v5.7h-0.4V530.1z"/>
			<path class="st3" d="M91.3,530.1l-1.1,0.4l-0.1-0.3l1.3-0.5h0.3v5.7h-0.4V530.1z"/>
			<path class="st3" d="M93.8,534.9c-0.6-0.6-0.8-1.4-0.7-2.2l0,0c0-1.7,0.9-3.1,2.3-3.1c0.6,0,1.2,0.2,1.6,0.7l-0.3,0.3
				c-0.4-0.4-0.9-0.6-1.4-0.6c-1.1,0-1.9,1.2-1.9,2.8v0.2c0.4-0.7,1-1.1,1.8-1c1-0.1,1.9,0.7,2,1.7c0,0,0,0,0,0.1l0,0
				c0,1-0.9,1.9-1.9,1.9h-0.1C94.8,535.5,94.2,535.3,93.8,534.9z M96.8,533.6L96.8,533.6c0-0.8-0.7-1.4-1.5-1.4h-0.1
				c-0.8,0-1.5,0.6-1.6,1.4l0,0c0,0.8,0.7,1.5,1.5,1.4c0,0,0,0,0.1,0C96.1,535.2,96.8,534.5,96.8,533.6
				C96.8,533.7,96.8,533.7,96.8,533.6L96.8,533.6z"/>
			<path class="st3" d="M37.2,529.9l-1.1,0.4L36,530l1.3-0.5h0.3v5.7h-0.4L37.2,529.9z"/>
			<path class="st3" d="M40,529.9l-1.1,0.4l-0.1-0.3l1.3-0.5h0.3v5.7H40V529.9z"/>
			<path class="st3" d="M41.7,533.7L41.7,533.7c0.1-0.7,0.6-1.3,1.3-1.4c-0.6-0.2-1-0.7-1.1-1.3l0,0c0-0.9,0.9-1.5,1.9-1.5
				s1.9,0.6,1.9,1.5l0,0c0,0.6-0.5,1.1-1.1,1.3c0.7,0.1,1.2,0.7,1.3,1.4l0,0c0,0.9-0.9,1.6-2.1,1.6S41.7,534.6,41.7,533.7z
				 M45.4,533.7L45.4,533.7c0-0.7-0.8-1.2-1.7-1.2S42,533,42,533.7l0,0c0,0.6,0.6,1.2,1.7,1.2S45.4,534.3,45.4,533.7z M45.3,530.9
				L45.3,530.9c0-0.6-0.7-1.1-1.5-1.1s-1.5,0.5-1.5,1.1l0,0c0,0.7,0.7,1.2,1.5,1.2S45.3,531.6,45.3,530.9z"/>
			<path class="st3" d="M168,454.8l-1.1,0.4l-0.1-0.3l1.3-0.5h0.3v5.7H168V454.8z"/>
			<path class="st3" d="M170.7,454.8l-1.1,0.4l-0.1-0.3l1.3-0.5h0.3v5.7h-0.4V454.8z"/>
			<path class="st3" d="M173.4,454.8l-1.1,0.4l-0.1-0.3l1.3-0.5h0.3v5.7h-0.4V454.8z"/>
			<path class="st3" d="M86.5,398.5l-1.1,0.4l-0.1-0.3l1.3-0.5h0.3v5.7h-0.4V398.5z"/>
			<path class="st3" d="M88.2,403.4l2.1-1.9c0.9-0.9,1.3-1.3,1.3-1.9c0-0.7-0.6-1.2-1.2-1.2l0,0c-0.7,0-1.3,0.4-1.7,1l-0.3-0.2
				c0.4-0.8,1.2-1.2,2-1.2c0.9-0.1,1.6,0.6,1.7,1.5c0,0,0,0,0,0.1l0,0c0,0.8-0.4,1.3-1.4,2.2l-1.7,1.6h3.2v0.4h-3.9L88.2,403.4z"/>
			<path class="st3" d="M95.9,402.3h-3.1l-0.1-0.3l3.2-4h0.4v4h0.9v0.4h-0.9v1.3h-0.4L95.9,402.3z M95.9,402v-3.4l-2.7,3.4H95.9z"/>
			<path class="st3" d="M110.3,342.5l-1.1,0.4l-0.1-0.3l1.3-0.5h0.3v5.7h-0.4V342.5z"/>
			<path class="st3" d="M115.2,346.4h-3.1l-0.1-0.3l3.2-4h0.4v4h0.9v0.4h-0.9v1.4h-0.4L115.2,346.4z M115.2,346v-3.3l-2.7,3.4
				L115.2,346z"/>
			<path class="st3" d="M117.3,347.5l2.1-1.9c0.9-0.9,1.3-1.3,1.3-1.9c0-0.7-0.6-1.2-1.2-1.2l0,0c-0.7,0-1.3,0.4-1.7,1l-0.3-0.2
				c0.4-0.8,1.2-1.2,2-1.2c0.9-0.1,1.6,0.6,1.7,1.5c0,0,0,0,0,0.1l0,0c0,0.8-0.4,1.3-1.4,2.2l-1.7,1.6h3.2v0.4h-3.9v-0.4H117.3z"/>
			<path class="st3" d="M142.4,365.1l-1.1,0.4l-0.1-0.3l1.3-0.5h0.3v5.7h-0.4V365.1z"/>
			<path class="st3" d="M147.2,369h-3.1l-0.1-0.3l3.2-4h0.4v4h0.9v0.4h-0.9v1.4h-0.4V369z M147.2,368.7v-3.4l-2.7,3.4H147.2z"/>
			<path class="st3" d="M149.5,369.5l0.3-0.3c0.4,0.6,1.1,0.9,1.8,0.9c0.7,0.1,1.3-0.5,1.4-1.2l0,0l0,0c0-0.8-0.8-1.2-1.8-1.2h-0.3
				l-0.1-0.2l2-2.2h-3v-0.6h3.6v0.3l-1.9,2.2c1.1,0.1,2,0.6,2,1.6l0,0c0,1-0.9,1.7-1.8,1.7l0,0C150.7,370.5,150,370.1,149.5,369.5z"
				/>
			<path class="st3" d="M146.5,216.2l-1.1,0.4l-0.1-0.3l1.3-0.5h0.3v5.7h-0.4V216.2z"/>
			<path class="st3" d="M151.4,220.1h-3.1l-0.1-0.3l3.2-4h0.4v4h0.9v0.4h-0.9v1.4h-0.4L151.4,220.1z M151.4,219.7v-3.4l-2.7,3.3
				L151.4,219.7z"/>
			<path class="st3" d="M156.7,220.1h-3.1l-0.1-0.3l3.2-4h0.4v4h0.9v0.4h-0.9v1.4h-0.4L156.7,220.1z M156.7,219.7v-3.4l-2.7,3.4
				H156.7z"/>
			<path class="st3" d="M205,156.6l-1.1,0.4l-0.1-0.3l1.3-0.5h0.3v5.7H205V156.6z"/>
			<path class="st3" d="M209.9,160.5h-3.1l-0.1-0.3l3.2-4h0.4v4h0.9v0.4h-0.9v1.4h-0.4V160.5z M209.9,160.2v-3.4l-2.7,3.4H209.9z"/>
			<path class="st3" d="M212.9,161.4c-0.6-0.6-0.8-1.4-0.7-2.2l0,0c0-1.7,0.9-3.1,2.3-3.1c0.6,0,1.2,0.2,1.6,0.7l-0.3,0.3
				c-0.4-0.4-0.9-0.6-1.4-0.6c-1.1,0-1.9,1.2-1.9,2.8v0.2c0.4-0.7,1-1.1,1.8-1.1c1-0.1,1.9,0.7,2,1.7c0,0,0,0,0,0.1l0,0
				c0,1-0.9,1.9-1.9,1.9h-0.1C213.9,162,213.3,161.8,212.9,161.4z M215.9,160.1L215.9,160.1c0-0.8-0.7-1.4-1.5-1.4h-0.1
				c-0.8,0-1.5,0.6-1.6,1.4l0,0c0,0.8,0.7,1.5,1.5,1.4c0,0,0,0,0.1,0C215.2,161.6,215.9,161,215.9,160.1
				C215.9,160.2,215.9,160.2,215.9,160.1L215.9,160.1z"/>
			<path class="st3" d="M295.3,86.3l-1.1,0.4l-0.1-0.3l1.3-0.5h0.3v5.7h-0.4L295.3,86.3z"/>
			<path class="st3" d="M297,90.7l0.3-0.3c0.4,0.5,1,0.8,1.7,0.8c0.8,0,1.5-0.6,1.5-1.3v-0.1l0,0c0-0.8-0.7-1.4-1.4-1.4H299
				c-0.5,0-0.9,0.1-1.3,0.4l-0.3-0.2l0.2-2.8h3.2v0.4H298l-0.1,2.1c0.4-0.2,0.8-0.3,1.3-0.3c1-0.1,1.9,0.6,1.9,1.6v0.1l0,0
				c0,1-0.8,1.8-1.8,1.8c-0.1,0-0.1,0-0.2,0C298.2,91.6,297.5,91.3,297,90.7z"/>
			<path class="st3" d="M301.9,90.6l0.3-0.3c0.4,0.6,1.1,0.9,1.8,0.9c0.7,0.1,1.3-0.5,1.4-1.2l0,0l0,0c0-0.8-0.8-1.2-1.8-1.2h-0.3
				l-0.1-0.2l2-2.3h-3v-0.4h3.5v0.3l-1.9,2.2c1.1,0.1,2,0.6,2,1.6l0,0c0,1-0.8,1.7-1.8,1.7l0,0C303.2,91.7,302.4,91.3,301.9,90.6z"
				/>
			<path class="st3" d="M392.5,53.1l-1.1,0.4l-0.1-0.3l1.3-0.5h0.3v5.7h-0.4L392.5,53.1z"/>
			<path class="st3" d="M394.2,57.5l0.3-0.3c0.4,0.5,1,0.8,1.7,0.8c0.8,0.1,1.5-0.6,1.5-1.3l0,0l0,0c0-0.8-0.7-1.4-1.4-1.4h-0.1
				c-0.5,0-0.9,0.1-1.3,0.4l-0.3-0.2l0.2-2.8h3.2v0.4h-2.8l-0.2,2.1c0.4-0.2,0.8-0.3,1.3-0.3c1-0.1,1.9,0.6,1.9,1.6v0.1l0,0
				c0,1-0.8,1.8-1.8,1.8c-0.1,0-0.1,0-0.2,0C395.5,58.4,394.8,58.1,394.2,57.5z"/>
			<path class="st3" d="M399.1,57.5l0.3-0.3c0.4,0.5,1,0.8,1.7,0.8c0.8,0.1,1.5-0.6,1.5-1.3l0,0l0,0c0-0.8-0.7-1.4-1.4-1.4h-0.1
				c-0.5,0-0.9,0.1-1.3,0.4l-0.3-0.2l0.2-2.8h3.2v0.4H400l-0.1,2.1c0.4-0.2,0.8-0.3,1.3-0.3c1-0.1,1.9,0.6,1.9,1.6v0.1l0,0
				c0,1-0.8,1.8-1.8,1.8c-0.1,0-0.1,0-0.2,0C400.3,58.5,399.6,58.1,399.1,57.5z"/>
			<path class="st3" d="M654.1,73.3l-1.1,0.4l-0.1-0.3l1.3-0.5h0.3v5.7h-0.4V73.3z"/>
			<path class="st3" d="M655.8,77.8l0.3-0.3c0.4,0.5,1,0.8,1.7,0.8c0.8,0,1.5-0.6,1.5-1.3v-0.1l0,0c0-0.8-0.7-1.4-1.4-1.4h-0.1
				c-0.5,0-0.9,0.1-1.3,0.4l-0.3-0.2l0.2-2.8h3.2v0.4h-2.8l-0.1,2.1c0.4-0.2,0.8-0.3,1.3-0.3c1-0.1,1.8,0.6,1.9,1.6v0.1l0,0
				c0,1-0.8,1.8-1.8,1.8c-0.1,0-0.1,0-0.2,0C657.1,78.6,656.4,78.3,655.8,77.8z"/>
			<path class="st3" d="M663.9,73.3h-3.3v-0.4h3.8v0.3l-2.6,5.4h-0.5L663.9,73.3z"/>
			<path class="st4" d="M444,585.7h8.4v1.8H446v3h5.7v1.8H446v3h6.5v1.8H444V585.7z"/>
			<path class="st4" d="M458.9,585.6h1.9l5,11.4h-2.1l-1.1-2.7h-5.4L456,597h-2L458.9,585.6z M461.7,592.5l-2-4.5l-2,4.5H461.7z"/>
			<path class="st4" d="M466.7,595.4l1.2-1.4c1,0.9,2.2,1.5,3.6,1.5c1.2,0,2-0.6,2-1.4l0,0c0-0.8-0.5-1.2-2.6-1.7
				c-2.4-0.6-3.8-1.3-3.8-3.4l0,0c0-2,1.6-3.3,3.9-3.3c1.5,0,3,0.5,4.1,1.4l-1.1,1.5c-0.9-0.7-2-1.1-3.1-1.2c-1.2,0-1.8,0.6-1.8,1.3
				l0,0c0,0.9,0.5,1.3,2.7,1.8c2.4,0.6,3.6,1.5,3.6,3.3l0,0c0,2.1-1.7,3.4-4.1,3.4C469.7,597.2,468,596.6,466.7,595.4z"/>
			<path class="st4" d="M480.4,587.5h-3.6v-1.8h9.2v1.8h-3.6v9.5h-2L480.4,587.5z"/>
			<path class="st4" d="M493,585.7h4.5c2.7,0,4.3,1.5,4.3,3.8l0,0c0,2.5-2,3.9-4.5,3.9H495v3.7h-2V585.7z M497.3,591.6
				c1.5,0,2.5-0.8,2.5-2l0,0c0-1.3-1-2-2.5-2H495v4.1L497.3,591.6z"/>
			<path class="st4" d="M503.8,585.7h2v9.5h6v1.8h-8V585.7z"/>
			<path class="st4" d="M517.9,585.6h1.8l5,11.4h-2.1l-1.2-2.7H516l-1.2,2.7h-2L517.9,585.6z M520.8,592.5l-2-4.5l-2,4.5H520.8z"/>
			<path class="st4" d="M526.3,595.6l6.7-8.1h-6.5v-1.8h9.1v1.5l-6.7,8.1h6.7v1.8h-9.3V595.6z"/>
			<path class="st4" d="M542.1,585.6h1.9l5,11.4h-2.1l-1.2-2.7h-5.4l-1.2,2.7h-2L542.1,585.6z M545,592.5l-2-4.5l-2,4.5H545z"/>
			<line class="st1" x1="265.9" y1="150.1" x2="238.1" y2="122.2"/>
			<line class="st5" x1="294.2" y1="122.6" x2="265.9" y2="94.3"/>
			<line class="st5" x1="425.3" y1="76.2" x2="425.3" y2="35.8"/>
			<line class="st5" x1="641.6" y1="298.1" x2="664.7" y2="275"/>
			<line class="st5" x1="697.4" y1="270.5" x2="683.8" y2="256.8"/>
			<line class="st5" x1="719.5" y1="248.7" x2="705.8" y2="234.9"/>
			<line class="st5" x1="739.3" y1="228.5" x2="655.6" y2="312.2"/>
			<line class="st5" x1="675" y1="145.2" x2="739.3" y2="80.9"/>
			<line class="st5" x1="814.3" y1="317.8" x2="801.9" y2="305.4"/>
			<line class="st5" x1="781.7" y1="350.5" x2="769.3" y2="338.1"/>
			<line class="st5" x1="726.9" y1="405.2" x2="714.5" y2="392.8"/>
			<line class="st5" x1="699.6" y1="432.8" x2="687.1" y2="420.3"/>
			<line class="st5" x1="667.3" y1="464.9" x2="654.9" y2="452.5"/>
			<line class="st5" x1="589.7" y1="505.7" x2="611.1" y2="484.3"/>
			<line class="st5" x1="575.6" y1="491.6" x2="597" y2="470.2"/>
			<line class="st5" x1="549.7" y1="465.7" x2="571.1" y2="444.3"/>
			<line class="st5" x1="537.1" y1="464.2" x2="537.1" y2="433.7"/>
			<line class="st5" x1="458.3" y1="464.2" x2="458.3" y2="433.7"/>
			<line class="st5" x1="447.2" y1="464" x2="425.1" y2="446"/>
			<line class="st5" x1="436.1" y1="477.8" x2="413.1" y2="460.9"/>
			<line class="st5" x1="425.2" y1="492.9" x2="401.9" y2="474.9"/>
			<line class="st5" x1="412.7" y1="507.2" x2="389.9" y2="489.9"/>
			<line class="st5" x1="343.3" y1="557.7" x2="343.3" y2="485.3"/>
			<line class="st5" x1="298.3" y1="557.7" x2="298.3" y2="484.2"/>
			<line class="st5" x1="211.6" y1="557.7" x2="211.6" y2="485.3"/>
			<line class="st5" x1="184.6" y1="557.7" x2="184.6" y2="485.3"/>
			<line class="st5" x1="123.4" y1="558.7" x2="123.4" y2="485.3"/>
			<line class="st5" x1="60.3" y1="557.7" x2="60.3" y2="485.3"/>
			<line class="st5" x1="182.5" y1="439.4" x2="69.2" y2="439.4"/>
			<line class="st5" x1="136.3" y1="472.5" x2="136.3" y2="439.4"/>
			<line class="st5" x1="114.3" y1="472.5" x2="114.3" y2="439"/>
			<line class="st5" x1="92.5" y1="472.5" x2="92.5" y2="439"/>
			<line class="st5" x1="56.6" y1="416.2" x2="13.2" y2="416.2"/>
			<line class="st5" x1="33.1" y1="390.1" x2="13.2" y2="390.1"/>
			<line class="st5" x1="54.1" y1="285.6" x2="43.9" y2="275.4"/>
			<line class="st5" x1="74" y1="265.7" x2="63.8" y2="255.5"/>
			<line class="st5" x1="79.7" y1="313" x2="101.1" y2="291.5"/>
			<line class="st1" x1="217.7" y1="199.1" x2="168.9" y2="150.4"/>
			<line class="st5" x1="100.6" y1="278.4" x2="111.8" y2="267.2"/>
			<line class="st1" x1="357.7" y1="293.8" x2="335.6" y2="271.7"/>
			<polyline class="st1" points="205.4,376.9 159.1,423.2 85.1,350.1 			"/>
			<line class="st1" x1="786.6" y1="256.7" x2="850.4" y2="193"/>
			<line class="st1" x1="881.8" y1="224.7" x2="851.4" y2="255.1"/>
			<polyline class="st1" points="715.7,58.2 688.5,85.4 702.7,99.6 703.3,99 730.3,72 			"/>
			<polyline class="st1" points="326.2,111.2 348,132.9 362.2,119.6 374.8,119.6 374.8,91.5 			"/>
			<polyline class="st1" points="616.3,165.3 641.3,190.3 616.3,165.3 644.8,136.7 			"/>
			<polyline class="st6" points="670.3,270.1 677.2,277 672.3,281.9 679,288.7 			"/>
			<line class="st5" x1="643.4" y1="488.7" x2="631" y2="476.3"/>
			<line class="st5" x1="517.2" y1="464.2" x2="517.2" y2="433.7"/>
			<line class="st5" x1="480.3" y1="464.2" x2="480.3" y2="433.7"/>
			<polyline class="st1" points="350.4,239.3 330.3,219.2 342.8,206.8 289.4,260.2 341.4,312.3 			"/>
			<line class="st1" x1="309.8" y1="146.9" x2="335.9" y2="120.8"/>
			<line class="st1" x1="322.4" y1="134.3" x2="312.7" y2="124.6"/>
			<line class="st1" x1="768.8" y1="322.5" x2="707" y2="260.8"/>
			<line class="st1" x1="362.9" y1="523.9" x2="343.3" y2="523.9"/>
			<polyline class="st5" points="13.2,518.1 51.2,518.1 51.2,485.3 			"/>
			<line class="st5" x1="197.1" y1="410.2" x2="184.6" y2="397.8"/>
			<polyline class="st5" points="184.1,355.6 152.2,387.5 171.7,410.9 			"/>
			<line class="st5" x1="191.4" y1="390.8" x2="166" y2="374.2"/>
			<line class="st5" x1="178.4" y1="381.9" x2="194.4" y2="365.9"/>
			<polyline class="st5" points="148.1,319.4 131.8,336.1 116,320 			"/>
			<polyline class="st5" points="165.6,336.6 139.5,343.7 109.1,374.2 			"/>
			<polyline class="st5" points="159.1,423.2 159.1,438.8 159.1,438.3 159.1,472.5 			"/>
			<line class="st5" x1="45.8" y1="337" x2="68.2" y2="314.5"/>
			<line class="st1" x1="219.7" y1="431.9" x2="203.2" y2="415.9"/>
			<line class="st5" x1="320.4" y1="557.7" x2="320.4" y2="480.2"/>
			<line class="st5" x1="35.8" y1="304.6" x2="47" y2="293.4"/>
			<line class="st5" x1="42.3" y1="311.8" x2="74" y2="343.6"/>
			<line class="st5" x1="33.1" y1="365.6" x2="13.2" y2="365.6"/>
			<polyline class="st1" points="348,132.9 387.5,172.4 387,213.9 			"/>
			<line class="st1" x1="335.3" y1="172.5" x2="361.2" y2="146.6"/>
			<line class="st1" x1="352" y1="189.2" x2="377.9" y2="163.3"/>
			<line class="st5" x1="399.1" y1="524.2" x2="376.4" y2="506.8"/>
			<polyline class="st1" points="616.3,165.3 606.4,175.1 606.4,214.1 			"/>
			<line class="st5" x1="563.4" y1="479" x2="584.8" y2="457.6"/>
			<polyline class="st1" points="231.2,485.3 231.2,510 278.2,510 278.2,485.3 			"/>
			<line class="st5" x1="33.1" y1="439.4" x2="13.2" y2="439.4"/>
			<line class="st1" x1="317.7" y1="232.3" x2="261" y2="175.6"/>
			<line class="st1" x1="278.7" y1="193.8" x2="304" y2="168.5"/>
			<line class="st1" x1="304.6" y1="219.7" x2="330" y2="194.4"/>
			<line class="st1" x1="291.7" y1="206.8" x2="317" y2="181.4"/>
			<line class="st5" x1="666.1" y1="136.3" x2="702.7" y2="99.6"/>
			<line class="st7" x1="722.6" y1="192.8" x2="786.7" y2="128.6"/>
		</g>
	</g>
	<g id="Buttons">
		<g id="blue_7">
			<circle class="st8" cx="761" cy="234.8" r="19.5"/>
			<path class="st9" d="M765,228.1h-9.8v-3h13.7v2.6l-8.8,16.9h-3.8L765,228.1z"/>
		</g>
		<g id="blue_1">
			<circle class="st8" cx="93.9" cy="495.8" r="19.5"/>
			<path class="st9" d="M92.4,489l-3.6,1l-0.7-2.8l5.4-1.7h2.4v20.1h-3.5L92.4,489z"/>
		</g>
		<g id="blue_3">
			<circle class="st8" cx="859.4" cy="258.8" r="19.5"/>
			<path class="st9" d="M852.2,265.2l2.4-2.2c1.2,1.6,3.1,2.6,5.1,2.6c1.9,0,3.4-1.2,3.4-2.9v-0.1c0-1.9-1.8-3-4.5-3H857l-0.6-2.1
				l5.2-5.6h-8.4v-3h12.9v2.6l-5.4,5.6c2.9,0.4,5.7,1.9,5.7,5.4v0.1c0,3.6-2.8,6.2-6.8,6.2C856.8,268.7,854,267.5,852.2,265.2z"/>
		</g>
		<g id="blue_4">
			<circle class="st8" cx="123.5" cy="415" r="19.5"/>
			<path class="st9" d="M124.6,419.4h-9.8l-0.6-2.4l10.8-12.8h2.9v12.4h2.8v2.8h-2.8v4.4h-3.3L124.6,419.4L124.6,419.4z
				 M124.6,416.6v-7.7l-6.4,7.7H124.6z"/>
		</g>
		<g id="blue_5">
			<circle class="st8" cx="777.9" cy="175.8" r="19.5"/>
			<path class="st9" d="M770.8,182.6l2.1-2.5c1.3,1.4,3.1,2.2,5,2.3c2.3,0,3.9-1.3,3.9-3.4v-0.1c0-2-1.7-3.2-4-3.2
				c-1.2,0-2.5,0.3-3.6,0.9l-2.1-1.4l0.6-9.5h11.6v3h-8.7l-0.3,4.6c1-0.4,2-0.6,3.1-0.6c3.8,0,6.8,2,6.8,6.1v0.1
				c0,4-2.9,6.6-7.2,6.6C775.3,185.6,772.7,184.5,770.8,182.6z"/>
		</g>
		<g id="blue_8">
			<circle class="st8" cx="682.4" cy="157.1" r="19.5"/>
			<path class="st9" d="M674.9,161.6L674.9,161.6c0-2.4,1.3-3.9,3.5-4.8c-1.7-0.7-2.8-2.4-2.8-4.3v-0.1c0-3,2.9-5.2,6.8-5.2
				s6.8,2.2,6.8,5.2v0.1c0,1.9-1.1,3.6-2.8,4.3c2.1,1,3.5,2.4,3.5,4.7v0.1c0,3.5-3.2,5.6-7.4,5.6S674.9,164.9,674.9,161.6z
				 M686.4,161.4L686.4,161.4c0-1.8-1.8-3-4.1-3s-4.1,1.2-4.1,2.9v0.1c0,1.6,1.5,2.9,4.1,2.9S686.4,163,686.4,161.4L686.4,161.4z
				 M685.8,152.8L685.8,152.8c0-1.6-1.4-2.8-3.5-2.8s-3.5,1.2-3.5,2.7v0.1c0,1.7,1.5,2.9,3.5,2.9S685.8,154.5,685.8,152.8
				L685.8,152.8z"/>
		</g>
		<g id="blue_11_b">
			<circle class="st8" cx="640" cy="193.1" r="19.5"/>
			<path class="st9" d="M635,186.7l-3.5,1l-0.7-2.8l5.2-1.7h2.4v19.6H635V186.7z"/>
			<path class="st9" d="M646,186.7l-3.5,1l-0.7-2.8l5.2-1.7h2.4v19.6H646V186.7z"/>
		</g>
		<g id="blue_12">
			<circle class="st8" cx="421.5" cy="294.1" r="19.5"/>
			<path class="st9" d="M411.9,287.9l-3.5,1l-0.7-2.8l5.2-1.7h2.4V304h-3.4V287.9z"/>
			<path class="st9" d="M419.3,301.3l6.7-5.7c2.7-2.3,3.6-3.5,3.6-5.2c0-1.6-1.2-3-2.8-3c-0.1,0-0.2,0-0.3,0c-1.8,0-3,1-4.5,2.9
				l-2.4-1.9c1.9-2.6,3.7-4.1,7.2-4.1c3.8,0,6.4,2.3,6.4,5.8v0.1c0,3.1-1.6,4.7-5.1,7.5l-4,3.3h9.2v3h-14.1L419.3,301.3L419.3,301.3
				z"/>
		</g>
		<g id="green_2">
			<circle class="st10" cx="93.4" cy="563.5" r="19.5"/>
			<path class="st9" d="M86.4,570.7l6.7-5.7c2.7-2.3,3.6-3.5,3.6-5.2c0-1.6-1.2-3-2.8-3c-0.1,0-0.2,0-0.3,0c-1.8,0-3,1-4.5,2.9
				l-2.4-2c1.9-2.6,3.7-4.1,7.2-4.1c3.8,0,6.4,2.3,6.4,5.8v0.1c0,3.1-1.6,4.7-5.1,7.5l-4,3.3h9.2v3H86.3v-2.6H86.4z"/>
		</g>
		<g id="green_3">
			<circle class="st10" cx="186.5" cy="133.3" r="19.5"/>
			<path class="st9" d="M179.4,139.8l2.4-2.2c1.2,1.6,3.1,2.6,5.1,2.6c1.9,0,3.4-1.2,3.4-2.9v-0.1c0-1.9-1.8-3-4.5-3h-1.6l-0.6-2.1
				l5.2-5.6h-8.4v-3h12.9v2.6l-5.4,5.6c2.9,0.4,5.7,1.9,5.7,5.4v0.1c0,3.6-2.8,6.2-6.8,6.2C183.9,143.3,181.2,142,179.4,139.8z"/>
		</g>
		<g id="green_4">
			<circle class="st10" cx="34.4" cy="563.4" r="19.5"/>
			<path class="st9" d="M35.6,567.8h-9.8l-0.6-2.4L36,552.6h2.9V565h2.8v2.8h-2.8v4.4h-3.3V567.8z M35.6,565v-7.7l-6.4,7.7H35.6z"/>
		</g>
		<g id="yellow_4">
			<circle class="st11" cx="397.4" cy="27.4" r="19.5"/>
			<path class="st9" d="M398.6,31.8h-9.8l-0.6-2.4L399,16.6h2.9V29h2.8v2.8h-2.8v4.4h-3.3V31.8z M398.6,29v-7.7l-6.4,7.7H398.6z"/>
		</g>
		<g id="yellow_5">
			<circle class="st11" cx="126" cy="189" r="19.5"/>
			<path class="st9" d="M118.9,195.8l2.1-2.5c1.3,1.4,3.1,2.2,5,2.3c2.3,0,3.9-1.3,3.9-3.4v-0.1c0-2-1.7-3.2-4-3.2
				c-1.2,0-2.5,0.3-3.6,0.9l-2.1-1.4l0.6-9.5h11.6v3h-8.7l-0.3,4.6c1-0.4,2-0.6,3.1-0.6c3.8,0,6.8,2,6.8,6.1v0.1
				c0,4-2.9,6.6-7.2,6.6C123.4,198.8,120.8,197.7,118.9,195.8z"/>
		</g>
		<g id="yellow_6">
			<circle class="st11" cx="826.7" cy="161.3" r="19.5"/>
			<path class="st9" d="M821.5,169.3c-1.5-1.5-2.4-3.5-2.4-7.4v-0.1c0-5.9,2.8-10.6,8.3-10.6c2.2,0,4.3,0.7,5.9,2.2l-1.8,2.6
				c-1.2-1.1-2.7-1.7-4.2-1.7c-3.4,0-4.6,3.5-4.7,6.2c1.2-1.3,2.9-2,4.7-2c3.8,0,6.8,2.2,6.8,6.1v0.1c0,3.9-3.1,6.6-7.2,6.6
				C824.9,171.5,823,170.8,821.5,169.3z M830.7,164.9L830.7,164.9c0-2-1.6-3.4-4-3.4s-3.9,1.6-3.9,3.4v0.1c0,2,1.6,3.5,4,3.5
				S830.7,166.9,830.7,164.9z"/>
		</g>
		<g id="yellow_8">
			<circle class="st11" cx="383.5" cy="273.3" r="19.5"/>
			<path class="st9" d="M376.1,277.8L376.1,277.8c0-2.4,1.3-3.9,3.5-4.8c-1.7-0.7-2.8-2.4-2.8-4.3v-0.1c0-3,2.9-5.2,6.8-5.2
				s6.8,2.2,6.8,5.2v0.1c0,1.9-1.1,3.6-2.8,4.3c2.1,1,3.5,2.4,3.5,4.7l0,0c0,3.5-3.2,5.6-7.4,5.6S376.1,281.1,376.1,277.8z
				 M387.6,277.6L387.6,277.6c0-1.8-1.8-3-4.1-3s-4.1,1.2-4.1,2.9v0.1c0,1.6,1.5,2.9,4.1,2.9S387.6,279.2,387.6,277.6z M387,269
				L387,269c0-1.6-1.4-2.8-3.5-2.8s-3.5,1.2-3.5,2.7v0.1c0,1.7,1.5,2.9,3.5,2.9S387,270.7,387,269L387,269z"/>
		</g>
		<g id="pink_2">
			<circle class="st12" cx="153.4" cy="562.8" r="19.5"/>
			<path class="st9" d="M146.4,570l6.7-5.7c2.7-2.3,3.6-3.5,3.6-5.2c0-1.6-1.2-3-2.8-3c-0.1,0-0.2,0-0.3,0c-1.8,0-3,1-4.5,2.9
				l-2.4-1.9c1.9-2.6,3.7-4.1,7.2-4.1c3.8,0,6.4,2.3,6.4,5.8v0.1c0,3.1-1.6,4.7-5.1,7.5l-4,3.3h9.2v3h-14.1V570H146.4z"/>
		</g>
		<g id="pink_6">
			<circle class="st12" cx="588.6" cy="273.2" r="19.5"/>
			<path class="st9" d="M583.5,281.2c-1.5-1.5-2.4-3.5-2.4-7.4l0,0c0-5.9,2.8-10.6,8.3-10.6c2.2,0,4.3,0.7,5.9,2.2l-1.8,2.6
				c-1.2-1.1-2.7-1.7-4.2-1.7c-3.4,0-4.6,3.5-4.7,6.2c1.2-1.3,2.9-2,4.7-2c3.8,0,6.8,2.2,6.8,6.1v0.1c0,3.9-3.1,6.6-7.2,6.6
				C586.9,283.4,584.9,282.6,583.5,281.2z M592.7,276.8L592.7,276.8c0-2-1.6-3.5-4-3.5s-3.9,1.6-3.9,3.4v0.1c0,2,1.6,3.5,4,3.5
				S592.7,278.8,592.7,276.8z"/>
		</g>
		<g id="red_1">
			<circle class="st13" cx="185" cy="480.1" r="19.5"/>
			<path class="st9" d="M183.5,473.4l-3.6,1l-0.7-2.9l5.4-1.7h2.5v20.1h-3.5L183.5,473.4z"/>
		</g>
		<g id="red_2">
			<circle class="st13" cx="643.5" cy="27.1" r="19.5"/>
			<path class="st9" d="M636.5,34.3l6.7-5.7c2.7-2.3,3.6-3.5,3.6-5.2c0-1.6-1.2-3-2.8-3c-0.1,0-0.2,0-0.3,0c-1.8,0-3,1-4.5,2.9
				l-2.4-1.9c1.9-2.6,3.7-4.1,7.2-4.1c3.8,0,6.4,2.3,6.4,5.8v0.1c0,3.1-1.6,4.7-5.1,7.5l-4,3.3h9.2v3h-14.1L636.5,34.3L636.5,34.3z"
				/>
		</g>
		<g id="red_7">
			<circle class="st13" cx="690" cy="232.3" r="19.5"/>
			<path class="st9" d="M694,225.6h-9.8v-3h13.7v2.6l-8.8,16.9h-3.9L694,225.6z"/>
		</g>
		<g id="red_8_d">
			<circle class="st13" cx="757.3" cy="319.5" r="21.1"/>
			<path class="st9" d="M749.2,324.3L749.2,324.3c0-2.6,1.4-4.2,3.8-5.2c-1.9-0.8-3.1-2.7-3.1-4.7v-0.1c0-3.2,3.1-5.7,7.3-5.7
				s7.3,2.4,7.3,5.7v0.1c0,2-1.2,3.9-3.1,4.7c2.3,1.1,3.8,2.6,3.8,5.1v0.1c0,3.8-3.4,6.1-8,6.1S749.2,328,749.2,324.3z M761.7,324.1
				L761.7,324.1c0-2-1.9-3.3-4.4-3.3s-4.4,1.3-4.4,3.2v0.1c0,1.7,1.6,3.2,4.4,3.2S761.7,325.9,761.7,324.1z M761,314.8L761,314.8
				c0-1.7-1.5-3.1-3.8-3.1s-3.8,1.3-3.8,2.9v0.1c0,1.8,1.6,3.1,3.8,3.1S761,316.6,761,314.8L761,314.8z"/>
		</g>
		<g id="red_8_e">
			<circle class="st13" cx="425.3" cy="413.5" r="21.1"/>
			<path class="st9" d="M417.2,418.3L417.2,418.3c0-2.6,1.4-4.2,3.8-5.2c-1.9-0.8-3.1-2.7-3.1-4.7v-0.1c0-3.2,3.1-5.7,7.3-5.7
				s7.3,2.4,7.3,5.7v0.1c0,2-1.2,3.9-3.1,4.7c2.3,1.1,3.8,2.6,3.8,5.1v0.1c0,3.8-3.4,6.1-8,6.1S417.2,422,417.2,418.3z M429.7,418.1
				L429.7,418.1c0-2-1.9-3.3-4.4-3.3s-4.4,1.3-4.4,3.2v0.1c0,1.7,1.6,3.2,4.4,3.2S429.7,419.9,429.7,418.1L429.7,418.1z M429,408.8
				L429,408.8c0-1.7-1.5-3.1-3.8-3.1s-3.8,1.3-3.8,2.9v0.1c0,1.8,1.6,3.1,3.8,3.1S429,410.6,429,408.8L429,408.8z"/>
		</g>
		<g id="teal_1">
			<circle class="st14" cx="160" cy="327.3" r="19.5"/>
			<path class="st9" d="M158.5,320.6l-3.6,1l-0.7-2.9l5.4-1.7h2.4v20.1h-3.5L158.5,320.6z"/>
		</g>
		<g id="teal_3">
			<circle class="st14" cx="280.5" cy="67.3" r="19.5"/>
			<path class="st9" d="M273.4,73.8l2.4-2.2c1.2,1.6,3.1,2.6,5.1,2.6c1.9,0,3.4-1.2,3.4-2.9v-0.1c0-1.9-1.8-3-4.5-3h-1.6l-0.6-2.1
				l5.2-5.6h-8.4v-3h12.9v2.6l-5.4,5.6c2.9,0.4,5.7,1.9,5.7,5.4v0.1c0,3.6-2.8,6.2-6.8,6.2C277.9,77.3,275.2,76,273.4,73.8z"/>
		</g>
		<g id="teal_7">
			<circle class="st14" cx="764" cy="102.5" r="19.5"/>
			<path class="st9" d="M768,95.8h-9.8v-3h13.7v2.6l-8.8,16.9h-3.9L768,95.8z"/>
		</g>
		<g id="teal_9">
			<circle class="st14" cx="384" cy="315.3" r="19.5"/>
			<path class="st9" d="M388,316.1c-1.1,1.4-2.8,2.1-4.6,2.1c-4.1,0-6.9-2.4-6.9-6.2v-0.1c0-3.8,2.9-6.7,7.2-6.7
				c2-0.1,4,0.6,5.4,2.1c1.4,1.4,2.3,3.6,2.3,7.4v0.1c0,6.2-3.1,10.6-8.3,10.6c-2.3,0-4.5-0.8-6.2-2.3l1.9-2.6
				c1.2,1.1,2.8,1.8,4.4,1.8C386.7,322.3,387.9,318.7,388,316.1z M387.9,311.9L387.9,311.9c0-2.1-1.6-3.6-4.1-3.6
				c-2-0.2-3.7,1.3-3.8,3.3c0,0.1,0,0.2,0,0.3v0.1c0,2,1.6,3.5,4,3.5S387.8,313.7,387.9,311.9L387.9,311.9z"/>
		</g>
		<g id="samosa">
			<circle class="st15" cx="602.9" cy="336.3" r="35.2"/>
			<path class="st9" d="M598.2,337c-0.8-0.2-1.7-0.1-2.4,0.4c-4.6,2.5-9.2,5.3-14.4,6.1c-0.4,0-0.8,0.1-0.9,0.5s0.2,0.7,0.5,1
				l4.4,4.1c0.9,0.8,1.7,1.6,2.4,2.6c0.5,0.7,0.9,1.5,1.5,2.2c0.7,0.7,1.5,1.4,2.3,2c0.7,0.7,1.5,1.5,2.4,1.2s1.1-1.5,1.2-2.4
				c0.5-4.9,2.7-9.4,4.2-14c0.3-0.7,0.4-1.5,0.4-2.3c-0.1-0.8-0.7-1.4-1.5-1.5L598.2,337z"/>
			<path class="st15" d="M581,344.2c1.2,1.6,2.9,2.7,4.8,3c1.3,0.2,2.5,0.2,3.8,0c1.8-0.2,4.6-1.5,6.2-0.8c0.4,0.2,0.6-0.5,0.2-0.7
				c-1.8-0.7-3.7,0.4-5.6,0.7c-3.4,0.5-6.7,0.2-8.9-2.7C581.2,343.4,580.7,343.9,581,344.2L581,344.2z"/>
			<path class="st15" d="M593,355.4c-0.5-1.3-0.3-2.2,0.7-2.5c0.3-0.2,0.4-0.5,0.2-0.8c-0.6-1.2,0.2-1.6,1.1-2.2
				c0.3-0.2,0.4-0.5,0.2-0.8c-0.4-0.9,0.5-1.4,1.1-2c0.2-0.2,0.2-0.5,0.1-0.7c-0.4-0.6-0.2-1.4,0.3-1.9c0.2-0.2,0.2-0.5,0.1-0.7
				c0,0,2-5.9,1.6-5.6c0.6-0.4,0-1.4-0.6-1c-1,0.5-1.6,1.4-1.8,2.5c-0.1,0.7,0.4,0.9,0.2,1.7c-0.1,0.3-0.7,0.5-0.8,0.9
				c-0.2,0.6,0.2,1.2,0.1,1.7c-0.1,0.2-0.5,0.3-0.6,0.6c-0.2,0.8,0,2-0.2,2.4s-0.8,0.9-1,1.4c-0.1,0.2,0.2,0.9,0.1,1
				c-0.4,0.6-1.6,0.7-1.9,1.9c-0.1,0.3,0.4,0.8,0.4,1c0,0-0.5,0.3-0.6,0.6c-0.4,1.3-0.7,1.9,0.2,3.2c0.2,0.3,0.5,0.4,0.8,0.2
				C593.1,356.1,593.2,355.7,593,355.4L593,355.4z"/>
			<path class="st15" d="M595,345.8c-1.7,3-4.1,6.2-3.7,9.8l1.1-0.3c-1.4-3.3-3.4-6.6-6.4-8.6c-0.7-0.5-1.3,0.6-0.6,1
				c2.8,1.9,4.6,5.1,5.9,8.2c0.2,0.3,0.6,0.4,0.8,0.2c0.2-0.1,0.3-0.3,0.3-0.5c-0.4-3.3,2-6.4,3.5-9.2
				C596.4,345.7,595.4,345.1,595,345.8L595,345.8z"/>
			<path class="st9" d="M615.8,361.2c0.8,0,1.5-0.8,1.9-1.5c2.9-4.4,5.6-9,9.8-12.1c0.3-0.2,0.6-0.5,0.6-0.9s-0.5-0.5-0.8-0.6
				l-5.8-1.6c-1.1-0.3-2.2-0.7-3.3-1.2c-0.8-0.4-1.5-0.9-2.3-1.3c-1-0.3-2-0.6-3-0.8c-0.9-0.3-2-0.6-2.7,0s-0.3,1.8,0,2.7
				c1.8,4.5,2,9.5,2.8,14.4c0.1,0.8,0.3,1.5,0.8,2.2C614.3,361.2,615.1,361.5,615.8,361.2L615.8,361.2z"/>
			<path class="st15" d="M627.7,346.8c-2.1-1-4.5-1-6.5-0.1c-1.3,0.6-2.5,1.4-3.6,2.3s-2.4,2.8-3.9,2.8c-0.5,0-0.5,0.7,0,0.7
				c1.5-0.1,2.3-1.2,3.4-2.2c2.9-2.6,6.5-4.6,10.3-2.9C627.7,347.6,628.1,347,627.7,346.8L627.7,346.8z"/>
			<path class="st15" d="M611.8,342.5c1.1,0.9,1.2,1.8,0.5,2.6c-0.2,0.3-0.1,0.6,0.2,0.8c1.1,0.8,0.6,1.5,0,2.5
				c-0.1,0.2-0.1,0.5,0.1,0.7c0.8,0.6,0.4,1.4,0,2.3c-0.1,0.2,0,0.4,0.2,0.6c0.6,0.5,1.1,1,0.7,1.9c-0.1,0.3,0,0.5,0.3,0.7
				c-0.1,0,1,6.2,1.2,5.7c-0.3,0.7,0.7,1.3,1,0.6c0.6-1.3,0.8-1.8,0.3-3.1c-0.3-0.8-0.5-0.5-0.8-1.4c0-0.2,0.1-1.4,0-1.7
				s-0.8-0.5-0.8-0.8c-0.1-0.5,0.5-0.6,0.3-1.5c-0.1-0.4-0.6-0.7-0.7-1c-0.1-0.7,0,0.6-0.2-0.8c0,0,0.1-1.2,0.1-1.5
				c0,0.1-0.6-0.8-0.6-0.7c0.2-1.1,1-1.3,0.8-2.6c0-0.3-0.8-0.5-0.8-0.7c0,0.3,0.4-0.6,0.3-0.8c-0.3-1.3-0.4-1.9-1.7-2.7
				c-0.3-0.2-0.6-0.1-0.8,0.2C611.3,342,611.4,342.3,611.8,342.5L611.8,342.5z"/>
			<path class="st15" d="M614.5,351.9c0.1-3.4,0.7-7.4-1.4-10.4l-1,0.7c2.8,2.3,6.1,4.3,9.8,4.7c0.8,0.1,0.8-1.1,0-1.2
				c-3.3-0.4-6.4-2.3-8.9-4.4c-0.5-0.4-1.4,0.1-1,0.7c1.9,2.7,1.2,6.6,1.2,9.7c0,0.3,0.3,0.6,0.6,0.6
				C614.1,352.5,614.4,352.2,614.5,351.9L614.5,351.9z"/>
			<path class="st9" d="M607.2,330.6c0.7,0.5,1.6,0.6,2.4,0.3c5.2-1,10.4-2.2,15.6-1.4c0.3,0.1,0.8,0.1,1-0.2s0.1-0.7-0.1-1.1
				l-2.9-5.3c-0.6-1-1.1-2.1-1.5-3.2c-0.2-0.8-0.4-1.7-0.7-2.5c-0.5-0.9-1-1.8-1.5-2.6c-0.5-0.8-1-1.9-1.9-1.9s-1.5,1-1.9,1.9
				c-2,4.5-5.4,8.1-8.3,12c-0.5,0.6-0.9,1.3-1,2.1C606.1,329.5,606.5,330.3,607.2,330.6L607.2,330.6z"/>
			<path class="st15" d="M625.7,329.1c-0.7-2.1-2.3-3.9-4.4-4.7c-1.2-0.5-2.5-0.8-3.8-1c-1.5-0.2-4,0.2-5.2-0.9
				c-0.3-0.3-0.8,0.2-0.5,0.5c1.2,1.1,2.6,0.8,4.1,0.9c3.8,0.3,7.6,1.5,9.1,5.4C625.2,329.7,625.9,329.5,625.7,329.1L625.7,329.1z"
				/>
			<path class="st15" d="M617.8,314.7c0.1,1.4-0.5,2.1-1.5,2.1c-0.3,0.1-0.5,0.4-0.4,0.7c0.2,1.4-0.7,1.4-1.8,1.7
				c-0.3,0.1-0.4,0.3-0.4,0.6c0.1,1-0.8,1.3-1.7,1.6c-0.2,0.1-0.3,0.3-0.3,0.5c0.1,0.7-0.2,1.4-0.8,1.8c-0.2,0.1-0.4,0.3-0.4,0.6
				c0,1-0.9,1.3-1.5,2c-0.8,1,0.8,2.3-1.7,3c-0.3,0.1-0.5,0.4-0.4,0.7c0.1,0.3,0.4,0.5,0.7,0.4l0,0c1.1-0.2,2-0.9,2.4-1.9
				c0.3-0.8-0.1-0.9,0.5-1.6c0.4-0.6,1-0.4,1.3-1.2c0.1-0.3-0.1-0.9,0-1.1s-0.2,0-0.2,0.1c0.3-0.1,0.6-0.2,0.9-0.3
				c1.1-0.8,0.2-1.4,0.7-2.2c0.2-0.4,1.2-0.4,1.6-0.9c0.2-0.2,0.2-0.7,0.3-0.9s1.8-0.4,2.2-1.3c0.2-0.4-0.1-0.9,0.1-1.1
				s0.5-0.1,0.7-0.4c0.9-1.1,1.2-1.6,0.9-3.2C618.7,313.6,617.6,313.9,617.8,314.7L617.8,314.7z"/>
			<path class="st15" d="M612.9,323.2c2.5-2.3,5.8-4.6,6.5-8.2l-1.2-0.2c0.3,3.5,1.1,7.3,3.3,10.2c0.5,0.6,1.5,0,1-0.6
				c-2.1-2.7-2.8-6.2-3.2-9.6c-0.1-0.6-1-0.9-1.2-0.2c-0.7,3.3-3.9,5.5-6.2,7.6C611.5,322.9,612.3,323.8,612.9,323.2L612.9,323.2z"
				/>
			<path class="st9" d="M603,330.7c0.7-0.5,1.1-1.3,1.1-2.2c0.7-5.2,1.2-10.6,3.6-15.2c0.2-0.3,0.3-0.7,0.1-1s-0.7-0.3-1-0.2
				l-5.9,1.1c-1.1,0.2-2.3,0.4-3.5,0.4c-0.9,0-1.8-0.2-2.6-0.1c-1,0.2-2,0.4-3,0.6c-0.9,0.2-2.1,0.3-2.5,1.2s0.5,1.8,1.2,2.4
				c3.6,3.3,6,7.7,8.8,11.7c0.4,0.7,1,1.2,1.6,1.6C601.6,331.4,602.5,331.3,603,330.7L603,330.7z"/>
			<path class="st15" d="M607.4,312.6c-2.4,0-4.6,1.1-6.1,3c-0.8,0.9-1.4,2-2,3.1c-0.7,1.4-1.1,4-2.5,4.6c-0.4,0.2,0,0.8,0.4,0.6
				c1.7-0.8,2-3.4,2.8-4.9c1.5-3,3.7-5.6,7.4-5.6c0.2,0,0.3-0.2,0.3-0.4C607.6,312.7,607.5,312.6,607.4,312.6L607.4,312.6z"/>
			<path class="st15" d="M591.3,315.6c1.3,0.4,1.8,1.1,1.5,2.1c0,0.3,0.2,0.5,0.4,0.6c1.3,0.2,1.3,1,1.2,2.3c0,0.3,0.2,0.5,0.4,0.6
				c1,0.2,0.9,1,1,2c0,0.3,0.2,0.5,0.4,0.6c0.6,0.1,1.4,0.5,1.4,1.3c0,0.3,0.2,0.5,0.4,0.6c1.1,0.3,0.8,1.7,1.4,2.2
				c1,0.8,2.3,0.7,2.3,2.5c0,0.8,1.1,0.8,1.2,0c0.2-1.1-0.2-2.2-1.1-2.9c-0.7-0.6-1-0.6-1.4-1.4c-0.2-0.4-0.3-1-0.8-1.3
				c-0.2-0.2-1-0.1-1.1-0.2c0.5,0.6,0.2-0.9,0-1.2c-0.4-0.6-0.6-0.4-1.1-0.9c-0.7-0.7,0.3,1-0.6-0.6c-0.2-0.4,0-0.9-0.3-1.3
				c-0.2-0.2-0.7-0.4-0.8-0.6s0-0.5-0.1-1.3c0-0.5-0.1-0.9-0.5-1.3c-0.3-0.3-0.8-0.2-1.1-0.4s0.1-0.5-0.1-0.8
				c-0.9-1.2-1.2-1.6-2.8-1.8C590.5,314.4,590.5,315.6,591.3,315.6L591.3,315.6z"/>
			<path class="st15" d="M597.8,322.9c-1.4-3.1-2.6-6.9-5.7-8.7l-0.5,1.1c3.5,0.8,7.3,1.2,10.7,0c0.7-0.2,0.4-1.4-0.3-1.2
				c-3.2,1.1-6.8,0.7-10.1,0c-0.3-0.1-0.7,0.1-0.7,0.4c-0.1,0.3,0,0.5,0.3,0.7c2.9,1.6,4,5.4,5.3,8.3
				C597.1,324.2,598.1,323.6,597.8,322.9L597.8,322.9z"/>
			<path class="st9" d="M598.2,333.1c0-0.9-0.7-1.5-1.4-2c-4.2-3.2-8.6-6.3-11.4-10.7c-0.2-0.3-0.5-0.6-0.8-0.6s-0.6,0.4-0.7,0.8
				l-2,5.7c-0.4,1.1-0.8,2.2-1.4,3.2c-0.5,0.8-1,1.4-1.4,2.2c-0.4,1-0.7,1.9-1,2.9c-0.3,0.9-0.8,2-0.2,2.7s1.8,0.4,2.7,0.1
				c4.7-1.5,9.7-1.3,14.5-1.8c0.8,0,1.6-0.2,2.2-0.6C598.1,334.6,598.4,333.8,598.2,333.1L598.2,333.1z"/>
			<path class="st15" d="M584.7,320.2c-1.1,2-1.3,4.3-0.6,6.5c0.4,1.1,0.9,2.1,1.5,3.1c0.8,1.3,3,3.4,3,4.9c0,0.5,0.7,0.5,0.7,0
				c-0.1-1.9-1.5-2.9-2.6-4.4c-2-3-3.3-6.2-1.5-9.6C585.5,320.2,584.9,319.9,584.7,320.2L584.7,320.2z"/>
			<path class="st15" d="M579.3,335.7c1-0.9,1.9-1,2.6-0.2c0.2,0.1,0.5,0.1,0.7-0.1c0.9-1,1.5-0.6,2.5,0.1c0.2,0.1,0.5,0.1,0.7-0.1
				c0.7-0.7-0.2-1,2.2,0.1c0.2,0.1,0.5,0.1,0.7-0.1c0.4-0.6,1.2-0.8,1.8-0.6c0.3,0.2,0.6,0.1,0.8-0.2c0.3-0.5,2,0,2.7-0.1
				c1.6-0.2-0.3-2.6,3.1-0.7c0.7,0.4,1.2-0.6,0.6-1c-1.3-0.7-1.7-0.9-3.1-0.5c-1.1,0.3-2.2,0.5-3.4,0.5c-0.2,0-1,0.9-0.5,0.8
				c-0.5,0.1-1-0.7-1.7-0.5c-1,0.2-0.9,0.6-1.9,0.7c-0.5-0.1-1-0.2-1.5-0.2c0.1,0-0.9,0.5-0.7,0.6c-1-0.3-1.2-1.1-2.5-1
				c-0.3,0-0.5,0.8-0.7,0.8c0.2,0-0.6-0.5-0.8-0.5c-1.1-0.1-2.2,0.5-2.8,1.5C577.9,335.8,578.9,336.3,579.3,335.7L579.3,335.7z"/>
			<path class="st15" d="M588.8,333.7c-3.4-0.3-7.3-1.2-10.4,0.6l0.7,1c2.4-2.6,4.7-5.7,5.4-9.3c0.1-0.8-1-1.1-1.2-0.3
				c-0.6,3.3-2.8,6.3-5,8.7c-0.3,0.2-0.3,0.6-0.1,0.9s0.6,0.3,0.9,0.1l0,0c2.8-1.7,6.7-0.8,9.8-0.5
				C589.7,335.1,589.7,333.8,588.8,333.7L588.8,333.7z"/>
			<circle class="st16" cx="602.9" cy="335.8" r="30.5"/>
		</g>
		<g id="sweets">
			<circle class="st15" cx="357.3" cy="99.7" r="35.2"/>
			<rect x="344.6" y="94" class="st9" width="35.8" height="18.4"/>
			<path class="st9" d="M359.3,97.3c-0.1,0.1-0.3,0.3-0.3,0.4c0,0.9-0.1,1.9,0,2.8c0,0.5-0.1,0.6-0.6,0.6c-1-0.1-2.1-0.1-3.1-0.1
				c-0.6,0-1.2,0-1.9,0v-2.2h-0.3c0,0.6,0,1.1,0,1.7s-0.2,0.6-0.6,0.6c-1.4,0-2.8,0-4.1,0c-0.4,0-0.8-0.1-1.1-0.2l-0.4,10.9H346
				l0.4-7.6l-0.6-0.1v-3.8c-0.4,0.1-4.7,1.5-5.2,1.6c0,0.1-3.6,1.3-4.6,1.7c-0.5,0.2-0.7-0.1-0.9-0.5l-3-6.2c-1.4-3-2.9-5.9-4.3-8.9
				c-0.3-0.9-0.5-1.7-0.5-2.6l0.2-0.1c0.1,0.2,0.2,0.4,0.4,0.6c0.7,1.5,1.4,2.9,2.2,4.4c0.6,1.1,1.2,2.2,1.8,3.3
				c1.1,2.1,14.4,2.8,14.2,2.7c0.1-0.3,0.5-2.4,0.6-3.3c0.2-1.9,0.4-3.7,0.6-5.6c0-0.6-0.3-0.7-0.9-0.5c-0.2,0-0.4,0.1-0.6,0.1
				c0-0.2,0-0.3-0.1-0.4s0-0.2,0-0.3h-0.2l-1.5,4.4l-0.8-0.3c0,0-0.1,0-0.1,0.1c-1,2.1-2.2,2.1-4,1.7c-0.4-0.1-0.9-0.1-1.3,0
				c-1.7,0.5-3.3,1.1-5,1.6c-0.5,0.2-0.7,0-0.9-0.6l5.3-1.8c-0.1-0.2-0.2-0.4-0.3-0.7c0-0.2,0.1-0.4,0.3-0.6c0.1-0.1,0.3,0,0.5,0.1
				c0.7,0.4,1.5,0.8,2.1,1.1c0.2-0.2,0.4-0.4,0.6-0.6c0.1-0.1,0.3-0.4,0.3-0.4c-0.4-0.5,0-0.7,0.3-1c0.7-0.6,1.4-1,2.1-1.4
				c0.8-0.3,1.2-1.1,1-1.9c-0.4,0-0.9,0.1-1.3,0.2c-1.3,0.3-2.7,0.7-4,1.1c-0.6,0.2-1.1,0.6-1.5,1c-0.2,0.2-0.1,0.6-0.1,0.9
				c-1.9,0.6-3.7,1.2-5.6,1.8c-0.3,0-0.5,0-0.8,0v-0.3l2.9-1c0.8-0.3,1.7-0.5,2.5-0.8c0.3-0.2,0.5-0.4,0.7-0.6
				c0.4-0.4,0.7-1,1.2-1.2c1.3-0.5,2.6-0.8,4-1.2l0.7-0.2c-0.5-0.9-1-1.7-1.5-2.4c-0.1-0.1-0.3-0.2-0.5-0.2c-1.2,0-9,0.4-7.6-0.1
				c4-1.3,12.5-4.2,12.7-4.3s1.1-0.8,1.2-0.7l-0.4,0.5c1,1.3,0.2,2.9,0.3,4.4l1,0.1l0.1,0.2c-0.2,0.1-0.4,0.3-0.5,0.2
				c-0.9-0.2-1.3,0.3-1.5,1.1c0.2,0.1,0.4,0.2,0.6,0.3c0.4,0.2,0.5,0.4,0.2,0.8s-0.1,0.6,0.2,0.8c0.3-0.3,0.6-0.6,0.9-1
				c0.4-0.4,0.5-1,0.4-1.6c-0.1-0.5,0-1,0.1-1.4c0.3-0.9,0.6-1.9,0.9-2.8c0.1-0.3,0.2-0.6,0.4-1c-0.5-0.4-0.4-0.9,0.3-1.1
				c2-0.7,4.1-1.3,6.1-2c0.4-0.2,0.9,0,1.1,0.4l0,0c1.1,1.6,2.2,3.2,3.3,4.8c0.2,0.5,0.4,1,0.6,1.5l1.5,1.4c-0.7,0.3-1.3,0.5-2,0.7
				s-1.2,0.3-1.8,0.5c-0.1,0-0.2,0.2-0.2,0.3c0.1,0.1,0.2,0.2,0.3,0.2c0.6-0.2,0.5,0.1,0.4,0.5c-0.1,0.3-0.1,0.6-0.1,0.9
				c-1,0.1-2,0.2-3,0.2c-2-0.1-4.1,0.3-6,0.9c-0.2,0.1-0.3,0.1-0.5,0.2s-0.1,0.1-0.2,0.2l3.8,5.7c-0.5,0.5-0.9,0.5-1.3-0.2
				c-1-1.7-2.1-3.3-3.2-5c-0.1-0.2-0.5-0.5-0.7-0.4c-0.2,0.2-0.4,0.4-0.4,0.7c-0.1,0.5-0.1,0.9-0.1,1.4c-0.1,0.8,0.1,1.7,0.5,2.3
				c0.6,0.7,1,1.6,1.5,2.5l-0.8,0.3l-1.3-2.1h-0.2c-0.1,1,13.2-1.2,20-3.4c-0.1,0.6-0.2,1.2-0.2,1.9c0,0.8-0.3,1-1,1.2
				s-1.5,0.5-2.2,0.8v0.2h15.7v3.3h-0.2v-0.6h-0.1l1.1,14.9l-0.2,0.1c-0.1-0.2-0.4-0.4-0.4-0.5c-0.3-3.5-0.6-7.1-1-10.6
				c-0.1-1.3-0.2-2.5-0.4-3.9H375c-4.6,0-9.2,0-13.8,0.1C360.5,97,359.9,97.1,359.3,97.3L359.3,97.3z M348.3,87.2
				c2.7-0.8,5.5-1.1,8.3-0.8c-0.4-0.7-0.7-1.6-1.2-1.6c-1.6-0.2-3.3-0.2-4.9-0.2c-0.6-0.1-1.1,0-1.6,0.3c-0.3,0.3-0.3,1-0.4,1.6
				L348.3,87.2z M344,82c-0.3,0-0.5,0-0.6,0c-0.4,0.2-0.9,0.3-1,0.6s0.1,0.8,0.3,1.2c0.3,0.5,0.6,1,1,1.5c0.6,0.3,1.2,0.3,1.8,0.2
				l-0.5-0.2c1.5-1.1,0.4-2-0.2-2.9c-0.4-0.6-0.9-1.3-1.3-1.9l-0.1,0.1L344,82z M359.7,82.5l0.4-0.6l-0.1-0.1l-2.5,0.9
				c0,0.1,0.1,0.3,0.1,0.4c0.1,1.1,0.7,1.5,1.7,1.1c0.5-0.2,0.9-0.3,1.5-0.6L359.7,82.5z M357,83.1l-0.1-0.2l-3.5,1
				C354.7,84.1,356.1,84.4,357,83.1z"/>
			<path class="st9" d="M380.5,112.9c-0.3,1.3-0.6,2.5-1,3.7c-0.1,0.2-0.5,0.4-0.8,0.4c-3,0-6,0-9,0h-11.5c0.4,1,0.4,2.1,0,3.2
				c-0.3,0.7-0.8,1.2-1.5,1.6c-1.1,0.7-2.5,0.6-3.5-0.3c-1-0.8-1.5-2.1-1.1-3.3c0.1-0.4,0.2-0.7,0.3-1.2h-1.1c-1.7,0-3.4,0-5.1,0
				c-0.5,0-0.8-0.1-0.9-0.7c-0.2-1.1-0.5-2.2-0.7-3.4H380.5z M355.3,115.8c-0.9-0.1-1.9,0.2-2.4,1c-0.6,0.8-0.6,1.9,0,2.7
				c0.7,0.9,1.9,1.3,3,0.9c0.7-0.2,1.1-0.8,1.1-1.5c0.1-0.8-0.2-1.6-0.9-2.1c-0.6-0.4-1.5-0.3-1.9,0.3c-0.2,0.4-0.3,0.9-0.2,1.3
				c0.2,0.4,0.6,0.6,1,0.7c0.2,0,0.6-0.3,0.8-0.5c0.1-0.1-0.1-0.6-0.2-0.6c-0.3,0-0.6,0.1-0.9,0.2h-0.1c0-0.6,0.3-0.9,0.8-0.7
				c0.6,0.1,1,0.7,0.9,1.3c0,0.6-0.4,1.1-1,1.1c-0.7,0.1-1.3-0.2-1.6-0.8c-0.4-0.7-0.3-1.5,0.2-2.1
				C354.2,116.6,354.7,116.2,355.3,115.8L355.3,115.8z"/>
			<path class="st9" d="M372.2,106.4h-2.1c0-0.2-1-0.1-1.5,0c-0.4,0-0.9,0-1.3,0c-1.4,0-1.2,0.2-1.2-1.3c0-1.2,0-2.4,0-3.7h6.1
				V106.4z"/>
			<path class="st9" d="M373.4,112l-0.4-5.2h2.5c0.9,0,1.9,0,2.8,0c0.2,0,0.6,0.3,0.6,0.4c0.1,1.5,0.2,3,0.4,4.6h-2.4
				C376.9,111.6,374.6,111.6,373.4,112z"/>
			<path class="st9" d="M365.5,106.4h-6.2c0-1,0-1.9,0-2.9c0-0.7-0.1-1.5,0.2-1.9s1.2-0.1,1.9-0.1h4.1V106.4z"/>
			<path class="st9" d="M358.7,111.8h-5.4c0-1.6,0-3.1,0-4.7c0-0.1,0.3-0.3,0.5-0.4c1.5,0,2.9,0,4.4,0c0.2,0,0.5,0.3,0.5,0.4
				C358.7,108.8,358.7,110.3,358.7,111.8z"/>
			<path class="st9" d="M352.6,111.8h-5.4c0.1-1.6,0.1-3.1,0.2-4.7c0-0.2,0.2-0.3,0.3-0.3c1.6,0,3.3,0,4.9,0V111.8z"/>
			<path class="st9" d="M353.4,106.5v-5.1h3.1c0.6,0,1.2,0,1.8,0c0.4,0,0.6,0.1,0.6,0.5c0,1.4,0,2.9,0,4.3
				C357.6,106.6,354.6,106.1,353.4,106.5z"/>
			<path class="st9" d="M378.8,106.3H373c-0.1-1-0.2-1.9-0.3-2.9c0-0.4-0.1-0.9-0.2-1.3s0.2-0.8,0.7-0.8l4.7,0.1
				c0.2,0,0.3,0,0.5,0.1L378.8,106.3z"/>
			<path class="st9" d="M359.3,97.3h2.1l-0.6,2.8l-0.5-2.4l-0.3,0l0.6,2.8h0.4l0.7-2.8c0.3,0.6,0.6,1.3,0.9,2
				c0.1,0.2,0.3,0.4,0.4,0.6c0.1-0.2,0.2-0.5,0.3-0.7c0.1-0.6,0.2-1.3,0.4-1.9l0.6,2.6h0.3l0.3-2.4h-0.1l-0.3,1.5
				c-0.1-0.5-0.1-0.8-0.2-1.1s0-0.9-0.6-0.8c-0.2,0-0.4,0.5-0.5,0.9s-0.1,0.7-0.3,1.1l-0.7-2.2h3.2c0.1,1.1,0.1,2.2,0.1,3.3
				c0,0.1-0.3,0.4-0.5,0.4c-0.9,0.1-1.8,0.1-2.7,0.1s-2-0.1-3-0.1C359.3,99.8,359.3,98.6,359.3,97.3L359.3,97.3z"/>
			<path class="st9" d="M372.1,101.1h-6.2v-3.8h2.3c1,0,2,0,3,0c0.2,0,0.6,0.2,0.6,0.3C371.9,98.8,372,99.9,372.1,101.1z
				 M368.5,99.2l-0.1-0.3c0.3,0,0.6-0.1,0.8,0c0.2,0.2,0.3,0.5,0.3,0.8c-0.1,0.3-0.5,0.6-0.7,0.6c-0.6,0.1-1.2-0.4-1.2-1
				c0-0.3,0.1-0.7,0.3-0.9c0.1-0.3,0.5-0.4,0.9-0.7c-0.8-0.1-1.5,0.3-1.8,1c-0.2,0.6,0,1.2,0.5,1.6c0.6,0.5,1.4,0.5,2.1,0.1
				c0.6-0.4,0.7-1.2,0.3-1.7l0,0c-0.3-0.5-0.9-0.7-1.4-0.4c-0.4,0.2-0.6,0.7-0.5,1.1c0.1,0.2,0.6,0.3,1,0.4c0.1,0,0.2-0.3,0.3-0.4
				c-0.1-0.1-0.3-0.2-0.5-0.3C368.8,99,368.7,99.1,368.5,99.2z"/>
			<path class="st9" d="M376.5,97.8l0.5,2.6h0.3l0.3-2.2h-0.1l-0.2,1.2h-0.1c0-0.4-0.1-0.9-0.2-1.3c-0.1-0.2-0.3-0.3-0.5-0.5
				c-0.2,0.2-0.4,0.3-0.5,0.5c-0.1,0.5-0.2,1.1-0.4,1.6l-0.7-2.3c0.9,0,1.6,0,2.5,0c0.2,0,0.4,0.2,0.5,0.4c0.1,1,0.2,2,0.3,2.9
				c0,0.1-0.2,0.4-0.3,0.4c-1.8,0-3.6,0-5.4,0l-0.4-3.7h2.2l-0.6,2.4h-0.1l-0.5-2.2h-0.2l0.5,2.8c1.1-0.7,0.6-2,1.2-2.8
				c0.7,0.8,0.3,2,1.3,2.7C376.1,99.5,376.3,98.6,376.5,97.8z"/>
			<path class="st9" d="M353,106.4h-5.5c0-0.2-0.1-0.3-0.1-0.5c0-1.3,0.1-2.6,0.1-3.9c0-0.4,0.1-0.6,0.6-0.5c1.3,0.1,2.7,0.1,4,0
				c0.6,0,0.8,0.1,0.8,0.7C352.9,103.5,353,104.9,353,106.4z M349.9,102.3c-1,0-1.9,0.7-1.9,1.7c0,0.1,0,0.2,0,0.3
				c0.3,1.1,1.4,1.9,2.5,1.6c0.6-0.1,1.1-0.5,1.1-1.1c0.2-0.6-0.1-1.3-0.6-1.7c-0.4-0.1-0.8-0.2-1.2-0.3L349.9,102.3z"/>
			<path class="st9" d="M344,94c-1.1-0.6-1.3-1.6-0.7-3.4C344.6,91.6,343.7,92.9,344,94z"/>
			<path class="st9" d="M371.3,95.8"/>
			<path class="st9" d="M349.4,102.8c-0.2,0.4-0.3,0.9-0.3,1.3c0.1,0.5,0.5,0.8,1,0.7c0.1,0,0.3-0.1,0.4-0.2c0.1-0.2,0.1-0.4,0-0.6
				c-0.2-0.1-0.5-0.1-0.9-0.2c0.3-0.1,0.6-0.3,0.8-0.2c0.3,0.2,0.6,0.6,0.6,0.9c-0.1,0.4-0.4,0.7-0.7,0.9c-0.6,0.2-1.3-0.2-1.5-0.8
				c0,0,0,0,0-0.1C348.4,103.9,348.8,103.1,349.4,102.8z"/>
			<polygon class="st9" points="367.4,90.3 335.5,103.6 327.4,85.4 358.2,73 			"/>
			<line class="st17" x1="334.6" y1="104.3" x2="372.9" y2="90.6"/>
			<line class="st18" x1="349.6" y1="100.2" x2="349.6" y2="111.2"/>
			<line class="st18" x1="352.6" y1="99.2" x2="352.6" y2="111.2"/>
			<line class="st18" x1="356.6" y1="98.2" x2="356.6" y2="111.2"/>
			<line class="st18" x1="360.6" y1="97.2" x2="360.6" y2="110.2"/>
			<line class="st18" x1="364.6" y1="95.2" x2="364.6" y2="110.2"/>
			<line class="st18" x1="367.6" y1="95.2" x2="367.6" y2="110.2"/>
			<line class="st18" x1="371.6" y1="95.2" x2="371.6" y2="110.2"/>
			<line class="st18" x1="375.6" y1="95.2" x2="375.6" y2="109.2"/>
			<line class="st18" x1="346.1" y1="107.7" x2="379.1" y2="107.7"/>
			<line class="st18" x1="345.1" y1="104.7" x2="379.1" y2="104.7"/>
			<line class="st18" x1="349.1" y1="100.7" x2="379.1" y2="100.7"/>
			<path class="st15" d="M355.1,102.5c0-0.3-0.2-0.9-0.6-0.6c-0.5,0.4,0.2,1,0.3,1.3c0,0.1,0.1,0.1,0.2,0.1l0.1-0.1
				c0.2-0.2,1-1.1,0.2-1.2c-0.3-0.1-0.8,0.5-0.5,0.7s0.3,0,0.4-0.1s0.4-0.2,0.5-0.5c0-0.1-0.1-0.3-0.2-0.3c-0.3-0.1-0.4,0.2-0.5,0.4
				h0.3c-0.2-0.3-0.7-0.9-1.1-0.5s0.4,1.1,0.7,1.5c0,0.1,0.1,0.1,0.2,0.1c0,0,0,0,0.1-0.1c0.2-0.3,1.2-1,0.9-1.5
				c-0.3-0.3-0.7-0.3-1,0c-0.1,0.1-0.1,0.1-0.1,0.2c0,0.1,0.1,0.2,0.2,0.2c0.2-0.1,0.4-0.1,0.6-0.1l-0.2-0.1c0,0.1-0.7,0.6-0.8,0.7
				L355.1,102.5c-0.2-0.1-0.4-0.3-0.4-0.5c-0.1-0.2-0.4-0.1-0.3,0.1c0.1,0.4,0.5,0.7,0.4,1.1l0.2-0.1c-0.4-0.2-0.7-0.6-0.9-1
				c-0.1-0.1-0.1-0.2,0-0.4c0.1-0.3,0.2-0.3,0.4,0c0.1,0.1,0.2,0.3,0.4,0.4l0.2-0.3c-0.2,0-0.4-0.4-0.5-0.5s-0.3-0.1-0.4-0.1
				c-0.3,0.1-0.3,0.6-0.2,0.8s0.3,0.2,0.3,0s0.1-0.3,0.2-0.4c0.1-0.1,0-0.2-0.1-0.2c-0.4-0.1-0.6,0.2-0.5,0.6c0.1,0.7,1,0.7,1.2,1.4
				c0,0.1,0.1,0.1,0.2,0.1l0.1-0.1c0.3-0.5,1.3-0.9,1.1-1.7s-0.9-0.6-1.3-0.2c-0.1,0.1-0.1,0.2,0,0.2s0.2,0.1,0.2,0l0.6,0.1
				c0,0.2,0.4,0.2,0.3,0c-0.1-0.6-0.6-0.6-1-0.4l0.2,0.2c0.2-0.3,0.5-0.2,0.7,0.2c-0.1,0.1-0.1,0.3-0.2,0.4
				c-0.1,0.1-0.2,0.2-0.3,0.3c-0.2,0.2-0.4,0.4-0.5,0.6h0.3C355.4,102.8,355.3,102.6,355.1,102.5l-0.3-0.2c-0.1-0.1-0.2-0.1-0.3-0.2
				c-0.2-0.1-0.2-0.3,0-0.5l-0.1-0.2c-0.1,0.1-0.2,0.3-0.2,0.5h0.3c0-0.1,0-0.4,0.2-0.4s0.3,0.3,0.3,0.4c0.1,0.1,0.2,0.2,0.3,0.2
				c0.1,0,0.2,0,0.2-0.1s0-0.1,0-0.2c-0.3-0.3-1.1-1.2-1.4-0.4c-0.2,0.3,0.1,0.7,0.3,0.9c0.2,0.4,0.6,0.7,0.9,1
				c0.1,0.1,0.2,0,0.2-0.1c0.1-0.5-0.3-0.8-0.4-1.2l-0.3,0.1c0.1,0.3,0.2,0.5,0.4,0.8c0.1,0,0.1,0,0.2,0c0.3-0.2,0.5-0.4,0.7-0.6
				c0.1-0.1,0.2-0.2,0.2-0.4c0-0.1-0.1-0.1-0.2-0.1c-0.3,0-0.5,0-0.7,0.1l0.2,0.2l0.4-0.2c0.1,0.1,0.1,0.3,0,0.4
				c-0.1,0.1-0.2,0.2-0.3,0.3c-0.2,0.1-0.3,0.3-0.4,0.5h0.3C355.5,102.9,355.3,102.8,355.1,102.5c-0.1,0-0.3-0.1-0.3-0.2
				c0.1-0.3,0.3-0.3,0.4-0.1c0.1,0.1,0.1,0.1,0.1,0.2c0,0.1,0.1,0.1,0.2,0.1c0,0,0,0,0.1-0.1c0.2-0.3-0.2-0.1-0.2,0l0.2,0.1
				l-0.1,0.1c-0.1,0.2-0.2,0.3-0.3,0.4h0.3c0-0.1-0.1-0.2-0.1-0.3l-0.2-0.2c-0.2-0.3-0.2-0.3-0.1-0.1c0,0.2,0.3,0.2,0.3,0
				L355.1,102.5z"/>
			<path class="st15" d="M359,102.5c0-0.3-0.2-0.9-0.6-0.6c-0.5,0.4,0.2,1,0.3,1.3c0,0.1,0.1,0.1,0.2,0.1l0.1-0.1
				c0.2-0.2,1-1.1,0.2-1.2c-0.3-0.1-0.8,0.5-0.5,0.7s0.3,0,0.4-0.1s0.4-0.2,0.5-0.5c0-0.1-0.1-0.3-0.2-0.3c-0.3-0.1-0.4,0.2-0.5,0.4
				h0.3c-0.2-0.3-0.7-0.9-1.1-0.5s0.4,1.1,0.7,1.5c0,0.1,0.1,0.1,0.2,0.1c0,0,0,0,0.1-0.1c0.2-0.3,1.2-1,0.9-1.5
				c-0.3-0.3-0.7-0.3-1,0c-0.1,0.1-0.1,0.1-0.1,0.2c0,0.1,0.1,0.2,0.2,0.2c0.2-0.1,0.4-0.1,0.6-0.1l-0.2-0.1c0,0.1-0.7,0.6-0.8,0.7
				L359,102.5c-0.2-0.1-0.4-0.3-0.4-0.5c-0.1-0.2-0.4-0.1-0.3,0.1c0.1,0.4,0.5,0.7,0.4,1.1l0.2-0.1c-0.4-0.2-0.7-0.6-0.9-1
				c-0.1-0.1-0.1-0.2,0-0.4c0.1-0.3,0.2-0.3,0.4,0c0.1,0.1,0.2,0.3,0.4,0.4l0.2-0.3c-0.2,0-0.4-0.4-0.5-0.5s-0.3-0.1-0.4-0.1
				c-0.3,0.1-0.3,0.6-0.2,0.8s0.3,0.2,0.3,0s0.1-0.3,0.2-0.4c0.1-0.1,0-0.2-0.1-0.2c-0.4-0.1-0.6,0.2-0.5,0.6c0.1,0.7,1,0.7,1.2,1.4
				c0,0.1,0.1,0.1,0.2,0.1l0.1-0.1c0.3-0.5,1.3-0.9,1.1-1.7s-0.9-0.6-1.3-0.2c-0.1,0.1-0.1,0.2,0,0.2s0.2,0.1,0.2,0l0.6,0.1
				c0,0.2,0.4,0.2,0.3,0c-0.1-0.6-0.6-0.6-1-0.4l0.2,0.2c0.2-0.3,0.5-0.2,0.7,0.2c-0.1,0.1-0.1,0.3-0.2,0.4
				c-0.1,0.1-0.2,0.2-0.3,0.3c-0.2,0.2-0.4,0.4-0.5,0.6h0.3C359.3,102.8,359.2,102.6,359,102.5l-0.3-0.2c-0.1-0.1-0.2-0.1-0.3-0.2
				c-0.2-0.1-0.2-0.3,0-0.5l-0.1-0.2c-0.1,0.1-0.2,0.3-0.2,0.5h0.3c0-0.1,0-0.4,0.2-0.4s0.3,0.3,0.3,0.4c0.1,0.1,0.2,0.2,0.3,0.2
				c0.1,0,0.2,0,0.2-0.1s0-0.1,0-0.2c-0.3-0.3-1.1-1.2-1.4-0.4c-0.2,0.3,0.1,0.7,0.3,0.9c0.2,0.4,0.6,0.7,0.9,1
				c0.1,0.1,0.2,0,0.2-0.1c0.1-0.5-0.3-0.8-0.4-1.2l-0.3,0.1c0.1,0.3,0.2,0.5,0.4,0.8c0.1,0,0.1,0,0.2,0c0.3-0.2,0.5-0.4,0.7-0.6
				c0.1-0.1,0.2-0.2,0.2-0.4c0-0.1-0.1-0.1-0.2-0.1c-0.3,0-0.5,0-0.7,0.1l0.2,0.2l0.4-0.2c0.1,0.1,0.1,0.3,0,0.4
				c-0.1,0.1-0.2,0.2-0.3,0.3c-0.2,0.1-0.3,0.3-0.4,0.5h0.3C359.4,102.9,359.2,102.8,359,102.5c-0.1,0-0.3-0.1-0.3-0.2
				c0.1-0.3,0.3-0.3,0.4-0.1c0.1,0.1,0.1,0.1,0.1,0.2c0,0.1,0.1,0.1,0.2,0.1c0,0,0,0,0.1-0.1c0.2-0.3-0.2-0.1-0.2,0l0.2,0.1
				l-0.1,0.1c-0.1,0.2-0.2,0.3-0.3,0.4h0.3c0-0.1-0.1-0.2-0.1-0.3l-0.2-0.2c-0.2-0.3-0.2-0.3-0.1-0.1c0,0.2,0.3,0.2,0.3,0L359,102.5
				z"/>
			<path class="st15" d="M351.2,106.4c0-0.3-0.2-0.9-0.6-0.6c-0.5,0.4,0.2,1,0.3,1.3c0,0.1,0.1,0.1,0.2,0.1l0.1-0.1
				c0.2-0.2,1-1.1,0.2-1.2c-0.3-0.1-0.8,0.5-0.5,0.7s0.3,0,0.4-0.1s0.4-0.2,0.5-0.5c0-0.1-0.1-0.3-0.2-0.3c-0.3-0.1-0.4,0.2-0.5,0.4
				h0.3c-0.2-0.3-0.7-0.9-1.1-0.5s0.4,1.1,0.7,1.5c0,0.1,0.1,0.1,0.2,0.1c0,0,0,0,0.1-0.1c0.2-0.3,1.2-1,0.9-1.5
				c-0.3-0.3-0.7-0.3-1,0c-0.1,0.1-0.1,0.1-0.1,0.2c0,0.1,0.1,0.2,0.2,0.2c0.2-0.1,0.4-0.1,0.6-0.1l-0.2-0.1c0,0.1-0.7,0.6-0.8,0.7
				L351.2,106.4c-0.2-0.1-0.4-0.3-0.4-0.5c-0.1-0.2-0.4-0.1-0.3,0.1c0.1,0.4,0.5,0.7,0.4,1.1l0.2-0.1c-0.4-0.2-0.7-0.6-0.9-1
				c-0.1-0.1-0.1-0.2,0-0.4c0.1-0.3,0.2-0.3,0.4,0c0.1,0.1,0.2,0.3,0.4,0.4l0.2-0.3c-0.2,0-0.4-0.4-0.5-0.5s-0.3-0.1-0.4-0.1
				c-0.3,0.1-0.3,0.6-0.2,0.8s0.3,0.2,0.3,0s0.1-0.3,0.2-0.4c0.1-0.1,0-0.2-0.1-0.2c-0.4-0.1-0.6,0.2-0.5,0.6c0.1,0.7,1,0.7,1.2,1.4
				c0,0.1,0.1,0.1,0.2,0.1l0.1-0.1c0.3-0.5,1.3-0.9,1.1-1.7s-0.9-0.6-1.3-0.2c-0.1,0.1-0.1,0.2,0,0.2s0.2,0.1,0.2,0l0.6,0.1
				c0,0.2,0.4,0.2,0.3,0c-0.1-0.6-0.6-0.6-1-0.4l0.2,0.2c0.2-0.3,0.5-0.2,0.7,0.2c-0.1,0.1-0.1,0.3-0.2,0.4
				c-0.1,0.1-0.2,0.2-0.3,0.3c-0.2,0.2-0.4,0.4-0.5,0.6h0.3C351.5,106.7,351.4,106.5,351.2,106.4l-0.3-0.2c-0.1-0.1-0.2-0.1-0.3-0.2
				c-0.2-0.1-0.2-0.3,0-0.5l-0.1-0.2c-0.1,0.1-0.2,0.3-0.2,0.5h0.3c0-0.1,0-0.4,0.2-0.4s0.3,0.3,0.3,0.4c0.1,0.1,0.2,0.2,0.3,0.2
				c0.1,0,0.2,0,0.2-0.1s0-0.1,0-0.2c-0.3-0.3-1.1-1.2-1.4-0.4c-0.2,0.3,0.1,0.7,0.3,0.9c0.2,0.4,0.6,0.7,0.9,1
				c0.1,0.1,0.2,0,0.2-0.1c0.1-0.5-0.3-0.8-0.4-1.2l-0.3,0.1c0.1,0.3,0.2,0.5,0.4,0.8c0.1,0,0.1,0,0.2,0c0.3-0.2,0.5-0.4,0.7-0.6
				c0.1-0.1,0.2-0.2,0.2-0.4c0-0.1-0.1-0.1-0.2,0c-0.3,0-0.5,0-0.7,0.1l0.2,0.2l0.4-0.2c0.1,0.1,0.1,0.3,0,0.4
				c-0.1,0.1-0.2,0.2-0.3,0.3c-0.2,0.1-0.3,0.3-0.4,0.5h0.3c-0.1-0.2-0.3-0.3-0.5-0.5c-0.1-0.1-0.3-0.2-0.3-0.3
				c0.1-0.3,0.3-0.3,0.4-0.1c0.1,0.1,0.1,0.1,0.1,0.2c0,0.1,0.1,0.1,0.2,0.1c0,0,0,0,0.1-0.1c0.2-0.3-0.2-0.1-0.2,0l0.2,0.1
				l-0.1,0.1c-0.1,0.2-0.2,0.3-0.3,0.4h0.3c0-0.1-0.1-0.2-0.1-0.3l-0.2-0.2C351.1,106.2,351.1,106.2,351.2,106.4
				C351,106.6,351.3,106.6,351.2,106.4L351.2,106.4z"/>
			<path class="st15" d="M329.2,95.9c6.3-3.8,13.4-5.8,20.2-8.5c3-1.2,5.9-2.9,9-3.9c2.7-0.8,5.3-0.8,7.8-2.2c1-0.5,0.1-2-0.9-1.4
				c-2.8,1.5-6.1,1.4-9.1,2.6c-3.5,1.4-6.9,3.2-10.5,4.5c-6,2.2-11.9,4.2-17.4,7.5c-0.4,0.2-0.5,0.7-0.3,1.2
				C328.3,96,328.8,96.2,329.2,95.9L329.2,95.9z"/>
			<path class="st15" d="M339.6,80c3.3,0.3,5.9,7.2,6.9,9.8c1.1,2.8,1.9,5.6,2.7,8.5c0.1,0.4,0.6,0.7,1,0.6c0.4-0.1,0.7-0.6,0.6-1
				c-1.1-4.4-2.7-8.6-4.6-12.7c-1.4-2.8-3.2-6.5-6.6-6.8C338.6,78.3,338.6,80,339.6,80L339.6,80z"/>
			<path class="st15" d="M345.6,86c-2.1-0.4-8.5-1.7-8.8,1.9c-0.4,4.2,6.7,0.5,8.1,0.3c1-0.1,1.1-1.7,0-1.7h-5.6v1.7
				c2.2-0.1,4.5,0.1,6.6-0.2c0.9-0.1,1.3-0.1,1.7-0.8c0.8-1.2,0.8-3.2,1.3-4.6c0-1.1,0.6-1.5,1.6-1.4L350,82
				c-0.5,1.2-1.9,2.4-2.8,3.3l1.3,1l2.4-5.2h-1.4c0.2,0.4-2,3.1-2.3,3.5c-0.6,0.7-1.2,1.8-2.1,2.1c-0.9,0.1-1.8,0.1-2.7,0
				c-1.5,0-3.6-0.5-4.6,0.8c-0.4,0.5-0.2,1.5,0.6,1.4c0.5,0,1.1-0.1,1.6-0.2c1-0.2,0.6-1.9-0.5-1.6l-1.1,0.2l0.6,1.4
				c0.8-1.1,5-0.2,6.2-0.3c0.9,0,1.8-0.4,2.4-1.2c1.2-1.5,2.2-3,3.2-4.6c0.5-0.9,0.8-1.3,0.3-2.3c-0.2-0.4-0.7-0.5-1.1-0.3
				c-0.1,0.1-0.2,0.2-0.3,0.3l-2.4,5.2c-0.4,0.8,0.6,1.8,1.3,1c1.3-1.4,3.8-3.7,4.1-5.7c0.2-1-0.4-1.9-1.4-2.1c-0.3-0.1-0.6,0-0.9,0
				c-1.8,0.3-2.5,2.2-3,3.8s-0.4,3.4-2.3,3.8c-1.6,0.4-3.9,0.1-5.6,0.1c-0.5,0-0.8,0.4-0.8,0.8c0,0.5,0.4,0.8,0.8,0.8h5.6v-1.7
				c-1.3,0.1-2.7,0.5-3.9,1l-1.3,0.6c0-0.6,0.6-1.1,1.2-1.1c0.1,0,0.3,0,0.4,0.1c1.2-0.3,2.7,0.2,3.9,0.4S346.6,86.2,345.6,86
				L345.6,86z"/>
			
				<ellipse transform="matrix(0.7071 -0.7071 0.7071 0.7071 33.79 286.3603)" class="st19" cx="362.6" cy="102.4" rx="1.5" ry="1.5"/>
			<path class="st15" d="M361.9,103.5c0.5,0.3,1.2,0.2,1.6-0.3c0.3-0.6,0.1-1.3-0.4-1.6l0,0c-0.4-0.3-1-0.3-1.4,0.1
				C361.3,102.2,361.4,103,361.9,103.5c0.2,0,0.3-0.2,0.2-0.3c-0.3-0.2-0.5-0.6-0.4-1.1c0.1-0.4,0.5-0.6,0.9-0.5
				c0.1,0,0.3,0.1,0.4,0.2c0.3,0.2,0.4,0.6,0.4,1c-0.2,0.6-0.9,0.6-1.3,0.4C361.9,103.1,361.7,103.4,361.9,103.5L361.9,103.5z"/>
			<path class="st15" d="M362,103.4c0.8,0.3,1.7-0.7,0.9-1.3s-1.6,0.2-0.9,0.9s1.5-0.5,0.7-0.8s-0.6,0.9-0.1,0.5
				c0.1-0.1,0-0.3-0.2-0.2c0.5,0.1,0.4,0.3-0.2,0.4c0.2-0.7,0.4-0.8,0.7-0.2c0.1,0.4-0.6,0.7-0.9,0.6
				C361.9,103.1,361.8,103.4,362,103.4L362,103.4z"/>
			
				<ellipse transform="matrix(0.7071 -0.7071 0.7071 0.7071 29.2554 282.2168)" class="st19" cx="355.3" cy="105.8" rx="1.5" ry="1.5"/>
			<path class="st15" d="M354.6,106.8c0.5,0.3,1.2,0.2,1.6-0.3c0.3-0.6,0.1-1.3-0.4-1.6l0,0c-0.4-0.3-1-0.3-1.4,0.1
				C354,105.6,354.1,106.3,354.6,106.8c0.2,0,0.3-0.2,0.2-0.3c-0.3-0.2-0.5-0.6-0.4-1.1c0.1-0.4,0.5-0.6,0.9-0.5
				c0.1,0,0.3,0.1,0.4,0.2c0.3,0.2,0.4,0.6,0.4,1c-0.2,0.6-0.9,0.6-1.3,0.4C354.6,106.5,354.4,106.7,354.6,106.8L354.6,106.8z"/>
			<path class="st15" d="M354.7,106.8c0.8,0.3,1.7-0.7,0.9-1.3s-1.6,0.2-0.9,0.9s1.5-0.5,0.7-0.8s-0.6,0.9-0.1,0.5
				c0.1-0.1,0-0.3-0.2-0.2c0.5,0.1,0.4,0.3-0.2,0.4c0.2-0.7,0.4-0.8,0.7-0.2c0.1,0.4-0.6,0.7-0.9,0.6
				C354.6,106.5,354.5,106.7,354.7,106.8L354.7,106.8z"/>
			
				<ellipse transform="matrix(0.7071 -0.7071 0.7071 0.7071 30.2719 284.6052)" class="st19" cx="358.7" cy="105.8" rx="1.5" ry="1.5"/>
			<path class="st15" d="M358,106.8c0.5,0.3,1.2,0.2,1.6-0.3c0.3-0.6,0.1-1.3-0.4-1.6l0,0c-0.4-0.3-1-0.3-1.4,0.1
				c-0.3,0.6-0.2,1.3,0.3,1.7c0.1,0.1,0.3-0.1,0.2-0.2c-0.3-0.2-0.5-0.6-0.4-1.1c0.1-0.4,0.5-0.6,0.9-0.5c0.1,0,0.3,0.1,0.4,0.2
				c0.3,0.2,0.4,0.6,0.4,1c-0.2,0.6-0.9,0.6-1.3,0.4C357.9,106.5,357.8,106.7,358,106.8L358,106.8z"/>
			<path class="st15" d="M358.1,106.8c0.8,0.3,1.7-0.7,0.9-1.3s-1.6,0.2-0.9,0.9s1.5-0.5,0.7-0.8s-0.6,0.9-0.1,0.5
				c0.1-0.1,0-0.3-0.2-0.2c0.5,0.1,0.4,0.3-0.2,0.4c0.2-0.7,0.4-0.8,0.7-0.2c0.1,0.4-0.6,0.7-0.9,0.6
				C358,106.5,357.9,106.7,358.1,106.8L358.1,106.8z"/>
			
				<ellipse transform="matrix(0.7071 -0.7071 0.7071 0.7071 31.4017 287.3685)" class="st19" cx="362.6" cy="105.8" rx="1.5" ry="1.5"/>
			<path class="st15" d="M361.9,106.8c0.5,0.3,1.2,0.2,1.6-0.3c0.3-0.6,0.1-1.3-0.4-1.6l0,0c-0.4-0.3-1-0.3-1.4,0.1
				C361.3,105.6,361.4,106.3,361.9,106.8c0.2,0,0.3-0.2,0.2-0.3c-0.3-0.2-0.5-0.6-0.4-1.1c0.1-0.4,0.5-0.6,0.9-0.5
				c0.1,0,0.3,0.1,0.4,0.2c0.3,0.2,0.4,0.6,0.4,1c-0.2,0.6-0.9,0.6-1.3,0.4C361.9,106.5,361.7,106.7,361.9,106.8L361.9,106.8z"/>
			<path class="st15" d="M362,106.8c0.8,0.3,1.7-0.7,0.9-1.3s-1.6,0.2-0.9,0.9s1.5-0.5,0.7-0.8s-0.6,0.9-0.1,0.5
				c0.1-0.1,0-0.3-0.2-0.2c0.5,0.1,0.4,0.3-0.2,0.4c0.2-0.7,0.4-0.8,0.7-0.2c0.1,0.4-0.6,0.7-0.9,0.6
				C361.9,106.5,361.8,106.7,362,106.8L362,106.8z"/>
			
				<ellipse transform="matrix(0.7071 -0.7071 0.7071 0.7071 34.7732 288.8151)" class="st19" cx="366" cy="102.4" rx="1.5" ry="1.5"/>
			<path class="st15" d="M365.2,103.5c0.5,0.3,1.2,0.2,1.6-0.3c0.3-0.6,0.1-1.3-0.4-1.6l0,0c-0.4-0.3-1-0.2-1.4,0.2
				C364.6,102.3,364.8,103,365.2,103.5c0.2,0.1,0.4-0.1,0.2-0.2c-0.3-0.2-0.5-0.6-0.4-1.1c0.1-0.4,0.5-0.6,0.9-0.5
				c0.1,0,0.3,0.1,0.4,0.2c0.3,0.2,0.4,0.6,0.4,1c-0.2,0.6-0.9,0.6-1.3,0.4C365.2,103.2,365.1,103.4,365.2,103.5L365.2,103.5z"/>
			<path class="st15" d="M365.3,103.4c0.8,0.3,1.7-0.7,0.9-1.3s-1.6,0.2-0.9,0.9s1.5-0.5,0.7-0.8s-0.6,0.9-0.1,0.5
				c0.1-0.1,0-0.3-0.2-0.2c0.5,0.1,0.4,0.3-0.2,0.4c0.2-0.7,0.4-0.8,0.7-0.2c0.1,0.4-0.6,0.7-0.9,0.6
				C365.3,103.1,365.2,103.4,365.3,103.4L365.3,103.4z"/>
			
				<ellipse transform="matrix(0.7071 -0.7071 0.7071 0.7071 30.5097 278.4411)" class="st19" cx="351.4" cy="102.4" rx="1.5" ry="1.5"/>
			<path class="st15" d="M350.7,103.5c0.5,0.3,1.2,0.2,1.6-0.3c0.3-0.6,0.1-1.3-0.4-1.6l0,0c-0.4-0.3-1-0.3-1.4,0.1
				C350.1,102.2,350.2,103,350.7,103.5c0.2,0,0.3-0.2,0.2-0.3c-0.3-0.2-0.5-0.6-0.4-1.1c0.1-0.4,0.5-0.6,0.9-0.5
				c0.1,0,0.3,0.1,0.4,0.2c0.3,0.2,0.4,0.6,0.4,1c-0.2,0.6-0.9,0.6-1.3,0.4C350.7,103.1,350.5,103.4,350.7,103.5L350.7,103.5z"/>
			<path class="st15" d="M350.8,103.4c0.8,0.3,1.7-0.7,0.9-1.3s-1.6,0.2-0.9,0.9s1.5-0.5,0.7-0.8s-0.6,0.9-0.1,0.5
				c0.1-0.1,0-0.3-0.2-0.2c0.5,0.1,0.4,0.3-0.2,0.4c0.2-0.7,0.4-0.8,0.7-0.2c0.1,0.4-0.6,0.7-0.9,0.6
				C350.7,103.1,350.6,103.4,350.8,103.4L350.8,103.4z"/>
			
				<ellipse transform="matrix(0.7071 -0.7071 0.7071 0.7071 32.4141 289.761)" class="st19" cx="366" cy="105.8" rx="1.5" ry="1.5"/>
			<path class="st15" d="M365.2,106.8c0.5,0.3,1.2,0.2,1.6-0.3c0.3-0.6,0.1-1.3-0.4-1.6l0,0c-0.4-0.3-1-0.3-1.4,0.1
				C364.6,105.6,364.8,106.3,365.2,106.8c0.2,0,0.3-0.2,0.2-0.3c-0.3-0.2-0.5-0.6-0.4-1.1c0.1-0.4,0.5-0.6,0.9-0.5
				c0.1,0,0.3,0.1,0.4,0.2c0.3,0.2,0.4,0.6,0.4,1c-0.2,0.6-0.9,0.6-1.3,0.4C365.2,106.5,365.1,106.7,365.2,106.8L365.2,106.8z"/>
			<path class="st15" d="M365.3,106.8c0.8,0.3,1.7-0.7,0.9-1.3s-1.6,0.2-0.9,0.9s1.5-0.5,0.7-0.8s-0.6,0.9-0.1,0.5
				c0.1-0.1,0-0.3-0.2-0.2c0.5,0.1,0.4,0.3-0.2,0.4c0.2-0.7,0.4-0.8,0.7-0.2c0.1,0.4-0.6,0.7-0.9,0.6
				C365.3,106.5,365.2,106.7,365.3,106.8L365.3,106.8z"/>
			
				<ellipse transform="matrix(0.7071 -0.7071 0.7071 0.7071 26.8712 283.2292)" class="st19" cx="355.3" cy="109.2" rx="1.5" ry="1.5"/>
			<path class="st15" d="M354.6,110.2c0.5,0.3,1.2,0.2,1.6-0.3c0.3-0.6,0.1-1.3-0.4-1.6l0,0c-0.4-0.3-1-0.3-1.4,0.1
				C354,108.9,354.1,109.7,354.6,110.2c0.2,0,0.3-0.2,0.2-0.3c-0.3-0.2-0.5-0.6-0.4-1.1c0.1-0.4,0.5-0.6,0.9-0.5
				c0.1,0,0.3,0.1,0.4,0.2c0.3,0.2,0.4,0.6,0.4,1c-0.2,0.6-0.9,0.6-1.3,0.4C354.6,109.9,354.4,110.1,354.6,110.2L354.6,110.2z"/>
			<path class="st15" d="M354.7,110.1c0.8,0.3,1.7-0.7,0.9-1.3s-1.6,0.2-0.9,0.9s1.5-0.5,0.7-0.8s-0.6,0.9-0.1,0.5
				c0.1-0.1,0-0.3-0.2-0.2c0.5,0.1,0.4,0.3-0.2,0.4c0.2-0.7,0.4-0.8,0.7-0.2c0.1,0.4-0.6,0.7-0.9,0.6
				C354.6,109.8,354.5,110.1,354.7,110.1L354.7,110.1z"/>
			<path class="st15" d="M359,109.2c0-0.3-0.2-0.9-0.6-0.6c-0.5,0.4,0.2,1,0.3,1.3c0,0.1,0.1,0.1,0.2,0.1l0.1-0.1
				c0.2-0.2,1-1.1,0.2-1.2c-0.3-0.1-0.8,0.5-0.5,0.7s0.3,0,0.4-0.1s0.4-0.2,0.5-0.5c0-0.1-0.1-0.3-0.2-0.3c-0.3-0.1-0.4,0.2-0.5,0.4
				h0.3c-0.2-0.3-0.7-0.9-1.1-0.5s0.4,1.1,0.7,1.5c0,0.1,0.1,0.1,0.2,0.1c0,0,0,0,0.1-0.1c0.2-0.3,1.2-1,0.9-1.5
				c-0.3-0.3-0.7-0.3-1,0c-0.1,0.1-0.1,0.1-0.1,0.2c0,0.1,0.1,0.2,0.2,0.2c0.2-0.1,0.4-0.1,0.6-0.1l-0.2-0.1c0,0.1-0.7,0.6-0.8,0.7
				L359,109.2c-0.2-0.1-0.4-0.3-0.4-0.5c-0.1-0.2-0.4-0.1-0.3,0.1c0.1,0.4,0.5,0.7,0.4,1.1l0.2-0.1c-0.4-0.2-0.7-0.6-0.9-1
				c-0.1-0.1-0.1-0.2,0-0.4c0.1-0.3,0.2-0.3,0.4,0c0.1,0.1,0.2,0.3,0.4,0.4l0.2-0.3c-0.2,0-0.4-0.4-0.5-0.5s-0.3-0.1-0.4-0.1
				c-0.3,0.1-0.3,0.6-0.2,0.8s0.3,0.2,0.3,0s0.1-0.3,0.2-0.4c0.1-0.1,0-0.2-0.1-0.2c-0.4-0.1-0.6,0.2-0.5,0.6c0.1,0.7,1,0.7,1.2,1.4
				c0,0.1,0.1,0.1,0.2,0.1l0.1-0.1c0.3-0.5,1.3-0.9,1.1-1.7s-0.9-0.6-1.3-0.2c-0.1,0.1-0.1,0.2,0,0.2s0.2,0.1,0.2,0l0,0l0.6,0.1
				c0,0.2,0.4,0.2,0.3,0c-0.1-0.6-0.6-0.6-1-0.4l0.2,0.2c0.2-0.3,0.5-0.2,0.7,0.2c-0.1,0.1-0.1,0.3-0.2,0.4
				c-0.1,0.1-0.2,0.2-0.3,0.3c-0.2,0.2-0.4,0.4-0.5,0.6h0.3C359.3,109.5,359.2,109.3,359,109.2l-0.3-0.2c-0.1-0.1-0.2-0.1-0.3-0.2
				c-0.2-0.1-0.2-0.3,0-0.5l-0.1-0.2c-0.1,0.1-0.2,0.3-0.2,0.5h0.3c0-0.1,0-0.4,0.2-0.4s0.3,0.3,0.3,0.4c0.1,0.1,0.2,0.2,0.3,0.2
				c0.1,0,0.2,0,0.2-0.1s0-0.1,0-0.2c-0.3-0.3-1.1-1.2-1.4-0.4c-0.2,0.3,0.1,0.7,0.3,0.9c0.2,0.4,0.6,0.7,0.9,1
				c0.1,0.1,0.2,0,0.2-0.1c0.1-0.5-0.3-0.8-0.4-1.2l-0.3,0.1c0.1,0.3,0.2,0.5,0.4,0.8c0.1,0,0.1,0,0.2,0c0.3-0.2,0.5-0.4,0.7-0.6
				c0.1-0.1,0.2-0.2,0.2-0.4c0-0.1-0.1-0.1-0.2-0.1c-0.3,0-0.5,0-0.7,0.1l0.2,0.2l0.4-0.2c0.1,0.1,0.1,0.3,0,0.4
				c-0.1,0.1-0.2,0.2-0.3,0.3c-0.2,0.1-0.3,0.3-0.4,0.5h0.3C359.4,109.6,359.2,109.5,359,109.2c-0.1,0-0.3-0.1-0.3-0.2
				c0.1-0.3,0.3-0.3,0.4-0.1c0.1,0.1,0.1,0.1,0.1,0.2c0,0.1,0.1,0.1,0.2,0.1c0,0,0,0,0.1-0.1c0.2-0.3-0.2-0.1-0.2,0l0.2,0.1
				l-0.1,0.1c-0.1,0.2-0.2,0.3-0.3,0.4h0.3c0-0.1-0.1-0.2-0.1-0.3l-0.2-0.2c-0.2-0.3-0.2-0.3-0.1-0.1c0,0.2,0.3,0.2,0.3,0L359,109.2
				z"/>
			<path class="st15" d="M362.4,99.1c0-0.3-0.2-0.9-0.6-0.6c-0.5,0.4,0.2,1,0.3,1.3c0,0.1,0.1,0.1,0.2,0.1l0.1-0.1
				c0.2-0.2,1-1.1,0.2-1.2c-0.3-0.1-0.8,0.5-0.5,0.7s0.3,0,0.4-0.1s0.4-0.2,0.5-0.5c0-0.1-0.1-0.3-0.2-0.3c-0.3-0.1-0.4,0.2-0.5,0.4
				h0.3c-0.2-0.3-0.7-0.9-1.1-0.5s0.4,1.1,0.7,1.5c0,0.1,0.1,0.1,0.2,0.1c0,0,0,0,0.1-0.1c0.2-0.3,1.2-1,0.9-1.5
				c-0.3-0.3-0.7-0.3-1,0c-0.1,0.1-0.1,0.1-0.1,0.2c0,0.1,0.1,0.2,0.2,0.2c0.2-0.1,0.4-0.1,0.6-0.1l-0.2-0.1c0,0.1-0.7,0.6-0.8,0.7
				L362.4,99.1c-0.2-0.1-0.4-0.3-0.4-0.5c-0.1-0.2-0.4-0.1-0.3,0.1c0.1,0.4,0.5,0.7,0.4,1.1l0.2-0.1c-0.4-0.2-0.7-0.6-0.9-1
				c-0.1-0.1-0.1-0.2,0-0.4c0.1-0.3,0.2-0.3,0.4,0c0.1,0.1,0.2,0.3,0.4,0.4l0.2-0.3c-0.2,0-0.4-0.4-0.5-0.5s-0.3-0.1-0.4-0.1
				c-0.3,0.1-0.3,0.6-0.2,0.8s0.3,0.2,0.3,0s0.1-0.3,0.2-0.4c0.1-0.1,0-0.2-0.1-0.2c-0.4-0.1-0.6,0.2-0.5,0.6c0.1,0.7,1,0.7,1.2,1.4
				c0,0.1,0.1,0.1,0.2,0.1l0.1-0.1c0.3-0.5,1.3-0.9,1.1-1.7s-0.9-0.6-1.3-0.2c-0.1,0.1-0.1,0.2,0,0.2s0.2,0.1,0.2,0l0,0l0.6,0.1
				c0,0.2,0.4,0.2,0.3,0c-0.1-0.6-0.6-0.6-1-0.4l0.2,0.2c0.2-0.3,0.5-0.2,0.7,0.2c-0.1,0.1-0.1,0.3-0.2,0.4
				c-0.1,0.1-0.2,0.2-0.3,0.3c-0.2,0.2-0.4,0.4-0.5,0.6h0.3C362.7,99.4,362.6,99.2,362.4,99.1l-0.3-0.2c-0.1-0.1-0.2-0.1-0.3-0.2
				c-0.2-0.1-0.2-0.3,0-0.5l-0.1-0.2c-0.1,0.1-0.2,0.3-0.2,0.5h0.3c0-0.1,0-0.4,0.2-0.4s0.3,0.3,0.3,0.4c0.1,0.1,0.2,0.2,0.3,0.2
				c0.1,0,0.2,0,0.2-0.1s0-0.1,0-0.2c-0.3-0.3-1.1-1.2-1.4-0.4c-0.2,0.3,0.1,0.7,0.3,0.9c0.2,0.4,0.6,0.7,0.9,1
				c0.1,0.1,0.2,0,0.2-0.1c0.1-0.5-0.3-0.8-0.4-1.2l-0.3,0.1c0.1,0.3,0.2,0.5,0.4,0.8c0.1,0,0.1,0,0.2,0c0.3-0.2,0.5-0.4,0.7-0.6
				c0.1-0.1,0.2-0.2,0.2-0.4c0-0.1-0.1-0.1-0.2-0.1c-0.3,0-0.5,0-0.7,0.1l0.2,0.2l0.4-0.2c0.1,0.1,0.1,0.3,0,0.4
				c-0.1,0.1-0.2,0.2-0.3,0.3c-0.2,0.1-0.3,0.3-0.4,0.5h0.3C362.8,99.5,362.6,99.4,362.4,99.1c-0.1,0-0.3-0.1-0.3-0.2
				c0.1-0.3,0.3-0.3,0.4-0.1c0.1,0.1,0.1,0.1,0.1,0.2c0,0.1,0.1,0.1,0.2,0.1c0,0,0,0,0.1-0.1c0.2-0.3-0.2-0.1-0.2,0l0.2,0.1
				l-0.1,0.1c-0.1,0.2-0.2,0.3-0.3,0.4h0.3c0-0.1-0.1-0.2-0.1-0.3l-0.2-0.2c-0.2-0.3-0.2-0.3-0.1-0.1c0,0.2,0.3,0.2,0.3,0
				L362.4,99.1z"/>
			<path class="st15" d="M369.1,106.4c0-0.3-0.2-0.9-0.6-0.6c-0.5,0.4,0.2,1,0.3,1.3c0,0.1,0.1,0.1,0.2,0.1l0.1-0.1
				c0.2-0.2,1-1.1,0.2-1.2c-0.3-0.1-0.8,0.5-0.5,0.7s0.3,0,0.4-0.1s0.4-0.2,0.5-0.5c0-0.1-0.1-0.3-0.2-0.3c-0.3-0.1-0.4,0.2-0.5,0.4
				h0.3c-0.2-0.3-0.7-0.9-1.1-0.5s0.4,1.1,0.7,1.5c0,0.1,0.1,0.1,0.2,0.1c0,0,0,0,0.1-0.1c0.2-0.3,1.2-1,0.9-1.5
				c-0.3-0.3-0.7-0.3-1,0c-0.1,0.1-0.1,0.1-0.1,0.2c0,0.1,0.1,0.2,0.2,0.2c0.2-0.1,0.4-0.1,0.6-0.1l-0.2-0.1c0,0.1-0.7,0.6-0.8,0.7
				L369.1,106.4c-0.2-0.1-0.4-0.3-0.4-0.5c-0.1-0.2-0.4-0.1-0.3,0.1c0.1,0.4,0.5,0.7,0.4,1.1l0.2-0.1c-0.4-0.2-0.7-0.6-0.9-1
				c-0.1-0.1-0.1-0.2,0-0.4c0.1-0.3,0.2-0.3,0.4,0c0.1,0.1,0.2,0.3,0.4,0.4l0.2-0.3c-0.2,0-0.4-0.4-0.5-0.5s-0.3-0.1-0.4-0.1
				c-0.3,0.1-0.3,0.6-0.2,0.8s0.3,0.2,0.3,0s0.1-0.3,0.2-0.4c0.1-0.1,0-0.2-0.1-0.2c-0.4-0.1-0.6,0.2-0.5,0.6c0.1,0.7,1,0.7,1.2,1.4
				c0,0.1,0.1,0.1,0.2,0.1l0.1-0.1c0.3-0.5,1.3-0.9,1.1-1.7s-0.9-0.6-1.3-0.2c-0.1,0.1-0.1,0.2,0,0.2s0.2,0.1,0.2,0l0.6,0.1
				c0,0.2,0.4,0.2,0.3,0c-0.1-0.6-0.6-0.6-1-0.4l0.2,0.2c0.2-0.3,0.5-0.2,0.7,0.2c-0.1,0.1-0.1,0.3-0.2,0.4
				c-0.1,0.1-0.2,0.2-0.3,0.3c-0.2,0.2-0.4,0.4-0.5,0.6h0.3C369.4,106.7,369.3,106.5,369.1,106.4l-0.3-0.2c-0.1-0.1-0.2-0.1-0.3-0.2
				c-0.2-0.1-0.2-0.3,0-0.5l-0.1-0.2c-0.1,0.1-0.2,0.3-0.2,0.5h0.3c0-0.1,0-0.4,0.2-0.4s0.3,0.3,0.3,0.4c0.1,0.1,0.2,0.2,0.3,0.2
				c0.1,0,0.2,0,0.2-0.1s0-0.1,0-0.2c-0.3-0.3-1.1-1.2-1.4-0.4c-0.2,0.3,0.1,0.7,0.3,0.9c0.2,0.4,0.6,0.7,0.9,1
				c0.1,0.1,0.2,0,0.2-0.1c0.1-0.5-0.3-0.8-0.4-1.2l-0.3,0.1c0.1,0.3,0.2,0.5,0.4,0.8c0.1,0,0.1,0,0.2,0c0.3-0.2,0.5-0.4,0.7-0.6
				c0.1-0.1,0.2-0.2,0.2-0.4c0-0.1-0.1-0.1-0.2-0.1c-0.3,0-0.5,0-0.7,0.1l0.2,0.2l0.4-0.2c0.1,0.1,0.1,0.3,0,0.4
				c-0.1,0.1-0.2,0.2-0.3,0.3c-0.2,0.1-0.3,0.3-0.4,0.5h0.3C369.5,106.8,369.3,106.7,369.1,106.4c-0.1,0-0.3-0.1-0.3-0.2
				c0.1-0.3,0.3-0.3,0.4-0.1c0.1,0.1,0.1,0.1,0.1,0.2c0,0.1,0.1,0.1,0.2,0.1c0,0,0,0,0.1-0.1c0.2-0.3-0.2-0.1-0.2,0l0.2,0.1
				l-0.1,0.1c-0.1,0.2-0.2,0.3-0.3,0.4h0.3c-0.1-0.1-0.2-0.1-0.3-0.1l-0.2-0.2c-0.2-0.3-0.2-0.3-0.1-0.1
				C368.8,106.6,369.1,106.6,369.1,106.4L369.1,106.4z"/>
			<path class="st15" d="M373.6,106.4c0-0.3-0.2-0.9-0.6-0.6c-0.5,0.4,0.2,1,0.3,1.3c0,0.1,0.1,0.1,0.2,0.1l0.1-0.1
				c0.2-0.2,1-1.1,0.2-1.2c-0.3-0.1-0.8,0.5-0.5,0.7s0.3,0,0.4-0.1s0.4-0.2,0.5-0.5c0-0.1-0.1-0.3-0.2-0.3c-0.3-0.1-0.4,0.2-0.5,0.4
				h0.3c-0.2-0.3-0.7-0.9-1.1-0.5s0.4,1.1,0.7,1.5c0,0.1,0.1,0.1,0.2,0.1c0,0,0,0,0.1-0.1c0.2-0.3,1.2-1,0.9-1.5
				c-0.3-0.3-0.7-0.3-1,0c-0.1,0.1-0.1,0.1-0.1,0.2c0,0.1,0.1,0.2,0.2,0.2c0.2-0.1,0.4-0.1,0.6-0.1l-0.2-0.1c0,0.1-0.7,0.6-0.8,0.7
				L373.6,106.4c-0.2-0.1-0.4-0.3-0.4-0.5c-0.1-0.2-0.4-0.1-0.3,0.1c0.1,0.4,0.5,0.7,0.4,1.1l0.2-0.1c-0.4-0.2-0.7-0.6-0.9-1
				c-0.1-0.1-0.1-0.2,0-0.4c0.1-0.3,0.2-0.3,0.4,0c0.1,0.1,0.2,0.3,0.4,0.4l0.2-0.3c-0.2,0-0.4-0.4-0.5-0.5s-0.3-0.1-0.4-0.1
				c-0.3,0.1-0.3,0.6-0.2,0.8s0.3,0.2,0.3,0s0.1-0.3,0.2-0.4c0.1-0.1,0-0.2-0.1-0.2c-0.4-0.1-0.6,0.2-0.5,0.6c0.1,0.7,1,0.7,1.2,1.4
				c0,0.1,0.1,0.1,0.2,0.1l0.1-0.1c0.3-0.5,1.3-0.9,1.1-1.7s-0.9-0.6-1.3-0.2c-0.1,0.1-0.1,0.2,0,0.2s0.2,0.1,0.2,0l0.6,0.1
				c0,0.2,0.4,0.2,0.3,0c-0.1-0.6-0.6-0.6-1-0.4l0.2,0.2c0.2-0.3,0.5-0.2,0.7,0.2c-0.1,0.1-0.1,0.3-0.2,0.4
				c-0.1,0.1-0.2,0.2-0.3,0.3c-0.2,0.2-0.4,0.4-0.5,0.6h0.3C373.9,106.7,373.8,106.5,373.6,106.4l-0.3-0.2c-0.1-0.1-0.2-0.1-0.3-0.2
				c-0.2-0.1-0.2-0.3,0-0.5l-0.1-0.2c-0.1,0.1-0.2,0.3-0.2,0.5h0.3c0-0.1,0-0.4,0.2-0.4s0.3,0.3,0.3,0.4c0.1,0.1,0.2,0.2,0.3,0.2
				c0.1,0,0.2,0,0.2-0.1s0-0.1,0-0.2c-0.3-0.3-1.1-1.2-1.4-0.4c-0.2,0.3,0.1,0.7,0.3,0.9c0.2,0.4,0.6,0.7,0.9,1
				c0.1,0.1,0.2,0,0.2-0.1c0.1-0.5-0.3-0.8-0.4-1.2l-0.3,0.1c0.1,0.3,0.2,0.5,0.4,0.8c0.1,0,0.1,0,0.2,0c0.3-0.2,0.5-0.4,0.7-0.6
				c0.1-0.1,0.2-0.2,0.2-0.4c0-0.1-0.1-0.1-0.2-0.1c-0.3,0-0.5,0-0.7,0.1l0.2,0.2l0.4-0.2c0.1,0.1,0.1,0.3,0,0.4
				c-0.1,0.1-0.2,0.2-0.3,0.3c-0.2,0.1-0.3,0.3-0.4,0.5h0.3C374,106.8,373.8,106.7,373.6,106.4c-0.1,0-0.3-0.1-0.3-0.2
				c0.1-0.3,0.3-0.3,0.4-0.1c0.1,0.1,0.1,0.1,0.1,0.2c0,0.1,0.1,0.1,0.2,0.1c0,0,0,0,0.1-0.1c0.2-0.3-0.2-0.1-0.2,0l0.2,0.1
				l-0.1,0.1c-0.1,0.2-0.2,0.3-0.3,0.4h0.3c0-0.1-0.1-0.2-0.1-0.3l-0.2-0.2c-0.2-0.3-0.2-0.3-0.1-0.1c0,0.2,0.3,0.2,0.3,0
				L373.6,106.4z"/>
			<path class="st15" d="M369.7,103.1c0-0.3-0.2-0.9-0.6-0.6c-0.5,0.4,0.2,1,0.3,1.3c0,0.1,0.1,0.1,0.2,0.1l0.1-0.1
				c0.2-0.2,1-1.1,0.2-1.2c-0.3-0.1-0.8,0.5-0.5,0.7s0.3,0,0.4-0.1s0.4-0.2,0.5-0.5c0-0.1-0.1-0.3-0.2-0.3c-0.3-0.1-0.4,0.2-0.5,0.4
				h0.3c-0.2-0.3-0.7-0.9-1.1-0.5s0.4,1.1,0.7,1.5c0,0.1,0.1,0.1,0.2,0.1c0,0,0,0,0.1-0.1c0.2-0.3,1.2-1,0.9-1.5
				c-0.3-0.3-0.7-0.3-1,0c-0.1,0.1-0.1,0.1-0.1,0.2c0,0.1,0.1,0.2,0.2,0.2c0.2-0.1,0.4-0.1,0.6-0.1l-0.2-0.1c0,0.1-0.7,0.6-0.8,0.7
				L369.7,103.1c-0.2-0.1-0.4-0.3-0.4-0.5c-0.1-0.2-0.4-0.1-0.3,0.1c0.1,0.4,0.5,0.7,0.4,1.1l0.2-0.1c-0.4-0.2-0.7-0.6-0.9-1
				c-0.1-0.1-0.1-0.2,0-0.4c0.1-0.3,0.2-0.3,0.4,0c0.1,0.1,0.2,0.3,0.4,0.4l0.2-0.3c-0.2,0-0.4-0.4-0.5-0.5s-0.3-0.1-0.4-0.1
				c-0.3,0.1-0.3,0.6-0.2,0.8s0.3,0.2,0.3,0s0.1-0.3,0.2-0.4c0.1-0.1,0-0.2-0.1-0.2c-0.4-0.1-0.6,0.2-0.5,0.6c0.1,0.7,1,0.7,1.2,1.4
				c0,0.1,0.1,0.1,0.2,0.1l0.1-0.1c0.3-0.5,1.3-0.9,1.1-1.7s-0.9-0.6-1.3-0.2c-0.1,0.1-0.1,0.2,0,0.2s0.2,0.1,0.2,0l0.6,0.1
				c0,0.2,0.4,0.2,0.3,0c-0.1-0.6-0.6-0.6-1-0.4l0.2,0.2c0.2-0.3,0.5-0.2,0.7,0.2c-0.1,0.1-0.1,0.3-0.2,0.4
				c-0.1,0.1-0.2,0.2-0.3,0.3c-0.2,0.2-0.4,0.4-0.5,0.6h0.3C370,103.4,369.9,103.2,369.7,103.1l-0.3-0.2c-0.1-0.1-0.2-0.1-0.3-0.2
				c-0.2-0.1-0.2-0.3,0-0.5L369,102c-0.1,0.1-0.2,0.3-0.2,0.5h0.3c0-0.1,0-0.4,0.2-0.4s0.3,0.3,0.3,0.4c0.1,0.1,0.2,0.2,0.3,0.2
				c0.1,0,0.2,0,0.2-0.1s0-0.1,0-0.2c-0.3-0.3-1.1-1.2-1.4-0.4c-0.2,0.3,0.1,0.7,0.3,0.9c0.2,0.4,0.6,0.7,0.9,1
				c0.1,0.1,0.2,0,0.2-0.1c0.1-0.5-0.3-0.8-0.4-1.2l-0.3,0.1c0.1,0.3,0.2,0.5,0.4,0.8c0.1,0,0.1,0,0.2,0c0.3-0.2,0.5-0.4,0.7-0.6
				c0.1-0.1,0.2-0.2,0.2-0.4c0-0.1-0.1-0.1-0.2-0.1c-0.3,0-0.5,0-0.7,0.1l0.2,0.2l0.4-0.2c0.1,0.1,0.1,0.3,0,0.4
				c-0.1,0.1-0.2,0.2-0.3,0.3c-0.2,0.1-0.3,0.3-0.4,0.5h0.3C370.1,103.5,369.9,103.4,369.7,103.1c-0.1,0-0.3-0.1-0.3-0.2
				c0.1-0.3,0.3-0.3,0.4-0.1c0.1,0.1,0.1,0.1,0.1,0.2c0,0.1,0.1,0.1,0.2,0.1c0,0,0,0,0.1-0.1c0.2-0.3-0.2-0.1-0.2,0l0.2,0.1
				l-0.1,0.1c-0.1,0.2-0.2,0.3-0.3,0.4h0.3c0-0.1-0.1-0.2-0.1-0.3l-0.2-0.2c-0.2-0.3-0.2-0.3-0.1-0.1c0,0.2,0.3,0.2,0.3,0
				L369.7,103.1z"/>
			<path class="st9" d="M360.5,120.2c0.3-0.6,0.3-2-0.7-1.8c-1.4,0.2-0.4,2.2-0.4,3c0,0.2,0.2,0.4,0.4,0.4c0.1,0,0.1,0,0.2,0
				c0.6-0.4,2.8-1.2,1.8-2.2c-0.6-0.6-2.1,0-1.9,0.9c0.1,0.3,0.4,0.4,0.7,0.4c0.6,0,1.2-0.2,1.6-0.6c0.2-0.3,0.2-0.7-0.1-0.9
				c-0.5-0.4-1,0.1-1.4,0.4l0.5,0.2c-0.1-0.8-0.8-2.6-1.9-1.8s0,2.7,0.3,3.8c0.1,0.2,0.3,0.3,0.5,0.3h0.1c0.7-0.5,3.3-0.9,3.2-2.2
				c-0.1-1.1-1.9-1.3-2.5-0.6c-0.1,0.1-0.1,0.4,0,0.5l0.1,0.1c0.3,0.1,0.7,0.2,1,0.2c0.5,0.1,0.5,0.1-0.1-0.1l-0.5,0.2
				c-0.2,0.1-0.7,0.4-0.9,0.2s-0.1-0.9-0.1-1.2c0-0.5-0.7-0.4-0.7,0c-0.1,0.8,0.4,1.8-0.1,2.5h0.6c-0.5-0.9-0.8-1.8-1-2.8
				c0-0.3-0.1-0.6-0.1-0.9c0.6-0.5,1-0.5,1.2,0c0.2,0.4,0.3,0.9,0.4,1.3l0.5-0.4c-0.3-0.2-0.3-1-0.5-1.4s-0.5-0.6-0.9-0.7
				c-0.8-0.1-1.1,0.9-1.2,1.5c0,0.4,0.5,0.4,0.7,0.2c0.1-0.3,0.4-0.5,0.7-0.7c0.2-0.1,0.2-0.3,0.1-0.5c0,0,0-0.1-0.1-0.1
				c-0.4-0.4-1-0.4-1.4,0c-0.1,0.1-0.2,0.3-0.3,0.5c-0.5,1.6,1.5,2.6,1.2,4.1c0,0.2,0.1,0.4,0.3,0.4c0.1,0,0.2,0,0.3-0.1
				c1.1-0.8,3.6-0.8,3.9-2.4s-1.5-2-2.6-1.5c-0.2,0.1-0.2,0.3-0.1,0.5c0.1,0.1,0.2,0.2,0.3,0.2c0.5-0.1,0.9,0.1,1.1,0.7
				c-0.2,0.4,0.5,0.6,0.7,0.2c0.4-1.2-0.9-1.7-1.8-1.6l0.2,0.7c1.2-0.4,1.6,0,1.3,1.1c-0.2,0.2-0.4,0.3-0.6,0.4
				c-0.4,0.2-0.8,0.3-1.2,0.4c-0.6,0.2-1.2,0.4-1.7,0.8l0.6,0.4c0.1-0.5,0-1-0.2-1.5c-0.1-0.3-0.3-0.6-0.5-0.8
				c-0.1-0.2-0.2-0.4-0.3-0.6c-0.3-0.4-0.3-1,0.1-1.3c0,0,0.1,0,0.1-0.1l0.1-0.6c-0.4,0.2-0.7,0.5-0.9,0.9l0.7,0.2l0.8-0.4
				c0.1,0.2,0.2,0.3,0.2,0.5s0.1,0.4,0.1,0.6c0.1,0.2,0.2,0.4,0.5,0.5c0.2,0.1,0.4,0,0.5-0.1c0-0.1,0.1-0.2,0-0.3
				c-0.1-0.8-0.4-1.6-1-2.2c-0.5-0.4-1.1-0.4-1.6-0.1c-0.6,0.5-0.4,1.3-0.3,1.9c0.2,1.1,0.5,2.2,1.1,3.1c0.1,0.2,0.3,0.2,0.5,0.1
				l0.1-0.1c0.6-0.9,0.1-1.9,0.2-2.9h-0.7c0,0.6-0.3,2.1,0.7,2.1c0.6-0.1,1.2-0.3,1.8-0.6c0.4-0.1,0.7-0.2,0.9-0.7
				c0-0.1,0-0.3-0.1-0.4c-0.4-0.4-1.2-0.4-1.7-0.5l0.2,0.6c0.8-0.4,1.1-0.3,0.9,0.3c0.1,0.2,0,0.4-0.2,0.5h-0.1
				c-0.3,0.1-0.6,0.3-0.9,0.3c-0.4,0.1-0.9,0.3-1.2,0.6l0.5,0.2c-0.1-0.6-0.4-1.1-0.6-1.6c0-0.1-0.5-1.8,0.5-1.1
				c0.2,0.1,0.3,0.9,0.3,1.1c0.1,0.2,0.3,0.3,0.5,0.3h0.1c0.2-0.2,0.5-0.3,0-0.3h-0.1c-0.3,0-0.4,0.1-0.1,0.2s0.3,0.2,0.1,0.2
				l-0.4,0.2l-0.9,0.5l0.5,0.3c0-0.3,0-0.7-0.1-1l-0.2-0.5c0-0.7,0-0.7,0,0c-0.1,0.2,0,0.4,0.2,0.5
				C360.1,120.4,360.3,120.3,360.5,120.2L360.5,120.2z"/>
		</g>
		<g id="sushi">
			<circle class="st15" cx="126.1" cy="275.6" r="35.2"/>
			<path class="st9" d="M148.2,249.1c2.6,1.4-3.9,4.5-18.6,14.4c-0.7,0.5-1.6,1.3-2.3-0.2C142.7,252.1,132.9,260.4,148.2,249.1z"/>
			<path class="st9" d="M119.7,267.7c-1.5-0.9-0.7-1.6-0.1-2.2L132,252c7.6-8.3,13.1-9.9,7.8-4.5l-19,19.1
				C120.4,266.9,120.1,267.2,119.7,267.7z"/>
			<path class="st9" d="M102.9,282c0-1.6,0.1-3.2,0-4.7c-0.2-2.1,1-4,3-4.7c4-1.9,8.6-1.9,12.6,0c1.9,0.8,3.2,2.7,3,4.8
				c-0.1,3.2-0.1,6.5,0,9.7c0.1,2.4-1,4.2-3.2,4.8c-2.8,0.8-6,1.4-8.8,1.1c-4.6-0.6-7.2-2.1-6.7-7.4
				C102.9,284.3,102.9,283.2,102.9,282z M112.2,271.7c-2.4,0.1-4.8,0.8-6.8,2c-2.5,1.4-2.4,3.5-0.1,5.2c3.4,2.5,10.5,2.5,13.8,0
				c2.2-1.6,2.3-3.9-0.2-5.2C116.9,272.5,114.6,271.8,112.2,271.7z"/>
			<ellipse class="st15" cx="112.2" cy="276.6" rx="8.8" ry="4.9"/>
			<path class="st9" d="M124.7,285.9c0-1.6,0.1-3.2,0-4.7c-0.2-2.1,1-4,3-4.7c4-1.9,8.6-1.9,12.6,0c1.9,0.8,3.2,2.7,3,4.8
				c-0.1,3.2-0.1,6.5,0,9.7c0.1,2.4-1,4.2-3.2,4.8c-2.8,0.8-6,1.4-8.8,1.1c-4.6-0.6-7.2-2.1-6.7-7.4
				C124.7,288.3,124.7,287.1,124.7,285.9z M134,275.6c-2.4,0.1-4.8,0.8-6.8,2c-2.5,1.4-2.4,3.5-0.1,5.2c3.4,2.5,10.5,2.5,13.8,0
				c2.2-1.6,2.3-3.9-0.2-5.2C138.7,276.4,136.4,275.7,134,275.6z"/>
			<ellipse class="st15" cx="134.1" cy="280.5" rx="8.8" ry="4.9"/>
			<ellipse class="st9" cx="133.8" cy="280.5" rx="3.7" ry="2.2"/>
			<ellipse class="st9" cx="112" cy="275.5" rx="3.7" ry="2.2"/>
		</g>
		<g id="drinks">
			<circle class="st15" cx="304.5" cy="472.7" r="35.2"/>
			<path class="st9" d="M292.9,458.8h26.3c-0.1,2.7-0.2,5.2-0.4,7.7c-0.6,9.1-1.2,18.3-1.8,27.4c-0.2,3.1-0.9,3.9-4.1,3.9
				c-4.8,0-9.6,0-14.4,0c-2,0-3.4-0.9-3.5-2.9C294.4,483,293.6,471.1,292.9,458.8z M295.4,461.4l2.1,34.1c5.5,0,10.6,0.1,15.7-0.1
				c0.6,0,1.5-1.2,1.6-1.9c0.5-5.3,0.7-10.6,1-15.9s0.6-10.7,0.9-16.1c-3.2-1.1-1.7,2.1-3.1,2.8l-2.3-0.1v-2.9L295.4,461.4z"/>
			<path class="st9" d="M304.4,457.8c-0.5-0.5-0.9-1.1-1.3-1.7c-1.9-4.8-5.5-7.1-10.3-6.7c-4.3,0.6-7.7,4-8.2,8.3
				c-0.6,4.2,1.9,8.1,6.3,10.1c0.8,0.5,1.6,1.1,2.3,1.8c-5.8,0.3-10.5-4.9-10.5-10.7c-0.1-6.2,4.9-11.4,11.2-11.4c0.1,0,0.1,0,0.2,0
				C300,447.5,305.1,452.2,304.4,457.8z"/>
			<path class="st9" d="M315.2,457.7h-2.9c0.4-1.9,0.4-3.8,1.2-5.3c0.6-1.3,1.7-2.4,3.1-2.9c2.5-0.6,5-0.9,7.6-1
				c0.7,0,1.4,0.8,2.1,1.2c-0.6,0.6-1.2,1.4-1.9,1.6c-1.6,0.4-3.2,0.6-4.8,0.6c-2.6-0.1-3.8,1-3.8,3.6
				C315.6,456.3,315.4,457,315.2,457.7z"/>
			<path class="st9" d="M299.7,452.1l-5.2,5.6v-7.8L299.7,452.1z"/>
			<path class="st9" d="M293.2,449.8v7.6l-0.5,0.3l-4.4-5.5L293.2,449.8z"/>
			<path class="st9" d="M286.6,454l5.5,4.9h-6.7L286.6,454z"/>
			<path class="st9" d="M287.4,464.3l-2.1-4h6.4l0.4,0.5L287.4,464.3z"/>
			<path class="st9" d="M297.1,457.5l4-3.6l1.7,3.6H297.1z"/>
			<path class="st9" d="M292.3,467.3l-3.8-1.5l3.5-3.7L292.3,467.3z"/>
			<path class="st9" d="M296.6,465.6c0.5,8.6,1,17.1,1.6,25.5c0.3,0.9,1,1.5,1.9,1.7c4,0.2,8,0.1,12,0.1c1.3,0,1.9-0.7,1.9-2.1
				c0.2-3.8,0.5-7.7,0.8-11.5c0.3-4.5,0.5-9,0.8-13.7L296.6,465.6z"/>
			<path class="st9" d="M296.6,465.6h19c-0.2,4.7-0.5,9.2-0.8,13.7c-0.2,3.8-0.6,7.7-0.8,11.5c-0.1,1.4-0.6,2.1-1.9,2.1
				c-4,0-8,0.1-12-0.1c-0.9-0.2-1.6-0.9-1.9-1.7C297.5,482.7,297.1,474.2,296.6,465.6z M306.5,479.3c-2.5,0.8-5.3,1.1-7,2.6
				c-0.8,0.6,0.5,3.7,0.9,5.7c0.1,0.4,0.1,1,0.3,1.2c0.6,0.5,1.3,1.1,1.9,1c7.1-0.9,7.6-1.8,5.5-8.6c0-0.4-0.2-0.7-0.3-1
				C307.3,479.9,306.9,479.6,306.5,479.3L306.5,479.3z M302.9,479.1c1.3-0.3,2.8-0.2,3.7-0.9c1.4-1.1,2.5-2.5,3.3-4
				c0.1-0.2-1.1-1.6-2-2.1c-5-3-5-3-7.9,2C298.5,476.5,299.9,478.9,302.9,479.1L302.9,479.1z M314.2,479.5l-3.5-3.2
				c-2.8,2.3-1.5,4.6-0.5,7.4L314.2,479.5z"/>
		</g>
	</g>
</g>
</svg>
