<?xml version="1.0" encoding="utf-8"?>
<!-- Generator: Adobe Illustrator 21.0.0, SVG Export Plug-In . SVG Version: 6.00 Build 0)  -->
<svg version="1.1" id="Layer_1" xmlns="http://www.w3.org/2000/svg" xmlns:xlink="http://www.w3.org/1999/xlink" x="0px" y="0px"
	 viewBox="0 0 926.1 640.4" style="enable-background:new 0 0 926.1 640.4;" xml:space="preserve">
<style type="text/css">
	.st0{fill:#000411;stroke:#FFFFFF;stroke-width:2.05;stroke-miterlimit:10;}
	.st1{fill:none;stroke:#FFFFFF;stroke-width:2.05;stroke-miterlimit:10;}
	.st2{fill:#FFFFFF;stroke:#FFFFFF;stroke-width:0.26;stroke-miterlimit:10;}
	.st3{fill:none;stroke:#FCFDFF;stroke-width:2.05;stroke-miterlimit:10;}
	.st4{fill:none;stroke:#F9F9F9;stroke-width:2.05;stroke-miterlimit:10;}
	.st5{fill:none;stroke:#FFFFFF;stroke-width:3.07;stroke-miterlimit:10;}
	.st6{fill:#1295C6;}
	.st7{fill:#FFFFFF;}
	.st8{fill:#F2682F;}
	.st9{fill:#D22532;}
	.st10{fill:#FF4799;}
	.st11{fill:#6B626E;}
	.st12{fill:#FFFFFF;stroke:#6B626E;stroke-width:0.5;stroke-miterlimit:10;}
	.st13{fill:#6B517D;}
	.st14{fill-rule:evenodd;clip-rule:evenodd;fill:#FFFFFF;}
	.st15{fill:#6C626E;}
	.st16{fill:#6E6470;}
	.st17{fill:none;stroke:#FFFFFF;stroke-width:0.9286;stroke-miterlimit:10;}
</style>
<title>Asset 2</title>
<g id="first_floor_map">
	<rect x="77.1" y="506.9" class="st0" width="300.8" height="72.4"/>
	<polygon class="st0" points="77.1,579.3 49.1,579.3 28.2,560.8 28.2,506.9 77.1,506.9 	"/>
	<rect x="28.2" y="461" class="st0" width="20" height="33.1"/>
	<polygon class="st0" points="703.4,106.5 718.2,121.3 681.4,158.1 658.5,135.2 647.6,124.5 622.1,98.9 385.6,97.5 385.6,57.4 
		708.3,57.4 730.5,79.5 	"/>
	<polygon class="st0" points="909.7,259.2 879.5,289.3 838.4,248.2 833,253.7 852.2,272.7 824.7,300.7 799.4,276.2 757.8,234.5 
		734.3,211.1 681.4,158.2 718.2,121.3 703.4,106.5 730.5,79.5 	"/>
	
		<rect x="613.8" y="450.4" transform="matrix(0.7071 -0.7071 0.7071 0.7071 -120.5457 627.3726)" class="st0" width="166.5" height="17.5"/>
	<polygon class="st0" points="815.7,311.7 681.4,448.2 618.7,386.4 671,334.1 648.3,311.4 648.3,280.9 664.1,280.7 680.1,296.9 
		740.9,236.6 	"/>
	<polygon class="st0" points="684.8,183.3 632.5,235.7 620.8,235.7 620.8,294.7 589.2,294.7 589.2,392.8 563.2,399.2 563.2,420 
		460.4,420 460.4,399.5 434.6,392.5 434.6,294.7 402.5,294.7 402.5,235.5 391.8,235.5 315.1,158.9 360.9,113.1 614.6,113.1 	"/>
	<polygon class="st0" points="400.2,378.1 309,469.3 156.3,316.9 278.7,194.5 301,172.4 322.5,193.5 336.1,207.1 377.6,248.6 
		359.8,266.5 324,302.2 333.1,311.1 362.6,281.2 378.8,281.2 377.7,310.4 355.1,333 	"/>
	<polyline class="st0" points="147.6,325.4 232.9,411.1 197.5,446.5 197.5,494.1 84.2,494.1 84.2,387.2 	"/>
	<rect x="51.6" y="461" class="st0" width="19.9" height="33.1"/>
	<rect x="48.1" y="421.1" class="st0" width="23.4" height="35.3"/>
	<rect x="28.2" y="384.9" class="st0" width="20" height="76.1"/>
	<rect x="54.3" y="377.7" class="st0" width="17.3" height="36"/>
	
		<rect x="67.5" y="312.1" transform="matrix(0.7072 -0.707 0.707 0.7072 -218.0822 152.8289)" class="st0" width="15.9" height="55.3"/>
	
		<rect x="40.5" y="339.8" transform="matrix(0.7071 -0.7071 0.7071 0.7071 -231.3542 141.105)" class="st0" width="28.3" height="20"/>
	
		<rect x="33.6" y="285.3" transform="matrix(0.7071 -0.7071 0.7071 0.7071 -185.1986 137.74)" class="st0" width="80.1" height="14.3"/>
	
		<rect x="90.2" y="306.5" transform="matrix(0.7071 -0.7071 0.7071 0.7071 -198.1069 169.3303)" class="st0" width="30.3" height="34.7"/>
	
		<rect x="67" y="348.9" transform="matrix(0.7072 -0.707 0.707 0.7072 -233.6476 158.8011)" class="st0" width="15.8" height="25.1"/>
	<rect x="272.3" y="95.8" transform="matrix(0.7071 -0.7071 0.7071 0.7071 8.7164 252.5984)" class="st0" width="74" height="40"/>
	
		<rect x="96.5" y="188.9" transform="matrix(0.7071 -0.7071 0.7071 0.7071 -104.8506 193.6068)" class="st0" width="169.5" height="68.9"/>
	
		<rect x="244.8" y="137.8" transform="matrix(0.7071 -0.7071 0.7071 0.7071 -33.2833 235.1521)" class="st0" width="44.9" height="40"/>
	<rect x="473.6" y="455.3" class="st0" width="78.4" height="30.6"/>
	<polygon class="st0" points="462,485.8 414.4,545.4 391.7,528 439.7,468 	"/>
	
		<rect x="589.6" y="465" transform="matrix(0.7071 -0.7071 0.7071 0.7071 -180.7062 575.8011)" class="st0" width="30.2" height="82.1"/>
	<polygon class="st0" points="413.8,546.1 388.6,579.3 377.9,579.3 377.9,528.8 391.3,528.8 	"/>
	<polyline class="st0" points="473.3,455.3 449.2,455.3 440.2,467.4 463.1,485.8 473.3,485.8 	"/>
	<polyline class="st0" points="552.3,485.8 552.3,455.3 576.3,455.3 585.8,465.8 564.5,487.1 563.2,485.8 	"/>
	
		<rect x="652.2" y="217.3" transform="matrix(0.7071 -0.7071 0.7071 0.7071 32.907 558.0804)" class="st0" width="75.8" height="44"/>
	<polygon class="st0" points="864.1,304.7 762.2,406.5 749.9,394.1 851.6,292.3 	"/>
	
		<rect x="113.1" y="267.2" transform="matrix(0.7072 -0.707 0.707 0.7072 -172.5962 171.6986)" class="st0" width="15.8" height="54"/>
	<line class="st1" x1="96.2" y1="280.7" x2="107.4" y2="269.5"/>
	<polygon class="st0" points="48.2,370.6 48.1,384.9 28.2,384.9 28.2,361.5 37.6,352.8 51.8,367 	"/>
	<polyline class="st0" points="205.5,494.2 205.5,450.3 247.7,408.1 247.7,408.1 263.8,424.2 229,459.1 229,494.2 	"/>
	<path class="st2" d="M654.6,183.8l-1.1,0.4l-0.1-0.3l1.3-0.5h0.3v5.7h-0.4V183.8z"/>
	<path class="st2" d="M657.1,188.6c-0.6-0.6-0.8-1.4-0.7-2.2l0,0c0-1.7,0.9-3.1,2.3-3.1c0.6,0,1.2,0.2,1.6,0.7l-0.3,0.3
		c-0.4-0.4-0.9-0.6-1.4-0.6c-1.1,0-1.9,1.2-1.9,2.8v0.2c0.3-0.7,1-1.1,1.8-1.1c1-0.1,1.9,0.7,2,1.7c0,0,0,0,0,0.1l0,0
		c0,1-0.9,1.9-1.9,1.9h-0.1C658,189.2,657.5,189,657.1,188.6z M660.1,187.3L660.1,187.3c0-0.8-0.7-1.4-1.5-1.4h-0.1
		c-0.8,0-1.5,0.6-1.6,1.4l0,0c0,0.8,0.7,1.5,1.5,1.4c0,0,0,0,0.1,0C659.4,188.8,660.1,188.2,660.1,187.3
		C660.1,187.4,660.1,187.3,660.1,187.3L660.1,187.3z"/>
	<path class="st2" d="M662.3,183.8l-1.1,0.4l-0.1-0.3l1.3-0.5h0.3v5.7h-0.4V183.8z"/>
	<path class="st2" d="M739.2,155.1l-1.1,0.4l-0.1-0.3l1.3-0.5h0.3v5.7h-0.4V155.1z"/>
	<path class="st2" d="M741.7,159.9c-0.6-0.6-0.8-1.4-0.7-2.2l0,0c0-1.7,0.9-3.1,2.3-3.1c0.6,0,1.2,0.2,1.6,0.7l-0.3,0.3
		c-0.4-0.4-0.9-0.6-1.4-0.6c-1.1,0-1.9,1.2-1.9,2.8v0.2c0.4-0.7,1-1.1,1.8-1.1c1-0.1,1.9,0.7,2,1.7c0,0,0,0,0,0.1l0,0
		c0,1-0.9,1.9-1.9,1.9h-0.1C742.6,160.4,742.1,160.2,741.7,159.9z M744.7,158.6L744.7,158.6c0-0.8-0.7-1.4-1.5-1.4h-0.1
		c-0.8,0-1.5,0.6-1.6,1.4l0,0c0,0.8,0.7,1.5,1.5,1.4c0,0,0,0,0.1,0C744,160.1,744.6,159.5,744.7,158.6L744.7,158.6z"/>
	<path class="st2" d="M746.1,159.5l0.3-0.3c0.4,0.5,1,0.8,1.7,0.8c0.8,0,1.5-0.6,1.5-1.3v-0.1l0,0c0-0.8-0.7-1.4-1.4-1.4h-0.1
		c-0.5,0-0.9,0.1-1.3,0.4l-0.3-0.2l0.2-2.8h3.2v0.4H747l-0.1,2.1c0.4-0.2,0.8-0.3,1.3-0.3c1-0.1,1.9,0.6,1.9,1.6v0.1l0,0
		c0,1-0.8,1.8-1.8,1.8c-0.1,0-0.1,0-0.2,0C747.3,160.4,746.6,160.1,746.1,159.5z"/>
	<path class="st2" d="M806.1,223.8l-1.1,0.4l-0.1-0.3l1.3-0.5h0.3v5.7h-0.4V223.8z"/>
	<path class="st2" d="M811.2,223.8h-3.3v-0.4h3.8v0.3l-2.6,5.4h-0.5L811.2,223.8z"/>
	<path class="st2" d="M815,227.7h-3l-0.1-0.3l3.2-4h0.4v4h0.9v0.4h-0.9v1.4H815V227.7z M815,227.3v-3.4l-2.7,3.3L815,227.3z"/>
	<path class="st2" d="M835.9,312.2l-1.1,0.4l-0.1-0.3l1.3-0.5h0.3v5.7h-0.4V312.2z"/>
	<path class="st2" d="M841,312.2h-3.3v-0.4h3.8v0.3l-2.6,5.4h-0.5L841,312.2z"/>
	<path class="st2" d="M843,317c-0.6-0.6-0.8-1.4-0.7-2.2l0,0c0-1.7,0.9-3.1,2.3-3.1c0.6,0,1.2,0.2,1.6,0.7l-0.3,0.3
		c-0.4-0.4-0.9-0.6-1.4-0.6c-1.1,0-1.9,1.2-1.9,2.8v0.2c0.4-0.7,1-1.1,1.8-1c1-0.1,1.9,0.7,2,1.7c0,0,0,0,0,0.1l0,0
		c0,1-0.9,1.9-1.9,1.9h-0.1C843.9,317.6,843.4,317.4,843,317z M846,315.8L846,315.8c0-0.8-0.7-1.4-1.5-1.4h-0.1
		c-0.8,0-1.5,0.6-1.6,1.4l0,0c0,0.8,0.7,1.5,1.5,1.4c0,0,0,0,0.1,0C845.3,317.3,846,316.6,846,315.8L846,315.8z"/>
	<path class="st2" d="M801.7,347l-1.1,0.4l-0.1-0.3l1.3-0.5h0.3v5.7h-0.4V347z"/>
	<path class="st2" d="M806.8,347h-3.3v-0.4h3.8v0.3l-2.6,5.4h-0.5L806.8,347z"/>
	<path class="st2" d="M811.6,347h-3.3v-0.4h3.8v0.3l-2.6,5.4H809L811.6,347z"/>
	<path class="st2" d="M769,379.6l-1.1,0.4l-0.1-0.3l1.3-0.5h0.3v5.7H769V379.6z"/>
	<path class="st2" d="M774.1,379.6h-3.3v-0.4h3.8v0.3l-2.6,5.4h-0.5L774.1,379.6z"/>
	<path class="st2" d="M775.4,383.3L775.4,383.3c0.1-0.7,0.6-1.3,1.3-1.4c-0.6-0.2-1-0.7-1.1-1.3l0,0c0-0.9,0.9-1.5,1.9-1.5
		s1.9,0.6,1.9,1.5l0,0c0,0.6-0.5,1.1-1.1,1.3c0.7,0.1,1.2,0.7,1.3,1.4l0,0c0,0.9-0.9,1.6-2.1,1.6S775.4,384.3,775.4,383.3z
		 M779.2,383.3L779.2,383.3c0-0.7-0.8-1.2-1.7-1.2s-1.7,0.5-1.7,1.2l0,0c0,0.6,0.6,1.2,1.7,1.2S779.2,384,779.2,383.3L779.2,383.3z
		 M779,380.5L779,380.5c0-0.6-0.7-1.1-1.5-1.1s-1.5,0.5-1.5,1.1l0,0c0.1,0.8,0.9,1.4,1.7,1.3C778.4,381.7,778.9,381.2,779,380.5
		L779,380.5z"/>
	<path class="st2" d="M717.8,431.4l-1.1,0.4l-0.1-0.3l1.3-0.5h0.3v5.7h-0.4V431.4z"/>
	<path class="st2" d="M722.9,431.4h-3.3V431h3.8v0.3l-2.6,5.4h-0.5L722.9,431.4z"/>
	<path class="st2" d="M727.9,433.7v-0.2c-0.3,0.7-1,1.1-1.8,1.1c-1,0.1-1.9-0.6-2-1.6v-0.1l0,0c0-1.1,0.9-1.9,1.9-1.9h0.1
		c0.5,0,1.1,0.2,1.4,0.6c0.5,0.6,0.8,1.4,0.7,2.2l0,0c0,1.8-1,3.1-2.3,3.1c-0.6,0-1.2-0.3-1.7-0.7l0.3-0.3c0.4,0.4,0.9,0.6,1.5,0.6
		C727.2,436.4,727.9,435.2,727.9,433.7z M727.8,432.7L727.8,432.7c0-0.8-0.7-1.5-1.6-1.4c0,0,0,0-0.1,0c-0.8,0-1.5,0.6-1.5,1.4v0.1
		l0,0c0,0.8,0.7,1.4,1.5,1.4h0.1C727,434.2,727.7,433.6,727.8,432.7C727.7,432.7,727.7,432.7,727.8,432.7L727.8,432.7z"/>
	<path class="st2" d="M164.5,551.5l-1.1,0.4l-0.1-0.3l1.3-0.5h0.3v5.7h-0.4V551.5z"/>
	<path class="st2" d="M167.2,551.5l-1.1,0.4l-0.1-0.3l1.3-0.5h0.3v5.7h-0.4L167.2,551.5L167.2,551.5z"/>
	<path class="st2" d="M168.9,556.5l2.1-1.9c0.9-0.8,1.3-1.3,1.3-1.9c0-0.7-0.6-1.2-1.2-1.2l0,0c-0.7,0-1.3,0.4-1.7,1l-0.4-0.2
		c0.4-0.8,1.2-1.2,2-1.2c0.9-0.1,1.6,0.6,1.7,1.5c0,0,0,0,0,0.1l0,0c0,0.8-0.4,1.3-1.4,2.2l-1.7,1.6h3.2v0.4h-3.9L168.9,556.5z"/>
	<path class="st2" d="M103.6,551.7l-1.1,0.4l-0.1-0.3l1.3-0.5h0.3v5.7h-0.4V551.7z"/>
	<path class="st2" d="M106.3,551.7l-1.1,0.4l-0.1-0.3l1.3-0.5h0.3v5.7h-0.4L106.3,551.7z"/>
	<path class="st2" d="M108.8,556.5c-0.6-0.6-0.8-1.4-0.7-2.2l0,0c0-1.7,0.9-3.1,2.3-3.1c0.6,0,1.2,0.2,1.6,0.7l-0.3,0.3
		c-0.4-0.4-0.9-0.6-1.4-0.6c-1.1,0-1.9,1.2-1.9,2.8v0.2c0.4-0.7,1-1.1,1.8-1c1-0.1,1.9,0.7,2,1.7c0,0,0,0,0,0.1l0,0
		c0,1-0.9,1.9-1.9,1.9h-0.1C109.8,557.1,109.2,556.9,108.8,556.5z M111.8,555.2L111.8,555.2c0-0.8-0.7-1.4-1.5-1.4h-0.1
		c-0.8,0-1.5,0.6-1.6,1.4l0,0c0,0.8,0.7,1.5,1.5,1.4c0,0,0,0,0.1,0C111.1,556.8,111.8,556.1,111.8,555.2
		C111.8,555.3,111.8,555.3,111.8,555.2L111.8,555.2z"/>
	<path class="st2" d="M52.2,551.5l-1.1,0.4l-0.1-0.3l1.3-0.5h0.3v5.7h-0.4L52.2,551.5z"/>
	<path class="st2" d="M55,551.5l-1.1,0.4l-0.1-0.3l1.3-0.5h0.3v5.7H55V551.5z"/>
	<path class="st2" d="M56.7,555.3L56.7,555.3c0.1-0.7,0.6-1.3,1.3-1.4c-0.6-0.2-1-0.7-1.1-1.3l0,0c0-0.9,0.9-1.5,1.9-1.5
		s1.9,0.6,1.9,1.5l0,0c0,0.6-0.5,1.1-1.1,1.3c0.7,0.1,1.2,0.7,1.3,1.4l0,0c0,0.9-0.9,1.6-2.1,1.6S56.7,556.2,56.7,555.3z
		 M60.4,555.3L60.4,555.3c0-0.7-0.8-1.2-1.7-1.2s-1.7,0.5-1.7,1.2l0,0c0,0.6,0.6,1.2,1.7,1.2S60.4,555.9,60.4,555.3z M60.3,552.5
		L60.3,552.5c0-0.6-0.7-1.1-1.5-1.1s-1.5,0.5-1.5,1.1l0,0c0,0.7,0.7,1.2,1.5,1.2S60.3,553.2,60.3,552.5z"/>
	<path class="st2" d="M183,476.4l-1.1,0.4l-0.1-0.3l1.3-0.5h0.3v5.7H183V476.4z"/>
	<path class="st2" d="M185.7,476.4l-1.1,0.4l-0.1-0.3l1.3-0.5h0.3v5.7h-0.4V476.4z"/>
	<path class="st2" d="M188.4,476.4l-1.1,0.4l-0.1-0.3l1.3-0.5h0.3v5.7h-0.4V476.4z"/>
	<path class="st2" d="M101.5,420.1l-1.1,0.4l-0.1-0.3l1.3-0.5h0.3v5.7h-0.4L101.5,420.1z"/>
	<path class="st2" d="M103.2,425l2.1-1.9c0.9-0.9,1.3-1.3,1.3-1.9c0-0.7-0.6-1.2-1.2-1.2l0,0c-0.7,0-1.3,0.4-1.7,1l-0.3-0.2
		c0.4-0.8,1.2-1.2,2-1.2c0.9-0.1,1.6,0.6,1.7,1.5c0,0,0,0,0,0.1l0,0c0,0.8-0.4,1.3-1.4,2.2L104,425h3.2v0.4h-3.9L103.2,425z"/>
	<path class="st2" d="M110.9,423.9h-3.1l-0.1-0.3l3.2-4h0.4v4h0.9v0.4h-0.9v1.3h-0.4V423.9z M110.9,423.6v-3.4l-2.7,3.4H110.9z"/>
	<path class="st2" d="M125.3,364.1l-1.1,0.4l-0.1-0.3l1.3-0.5h0.3v5.7h-0.4L125.3,364.1z"/>
	<path class="st2" d="M130.2,368h-3.1l-0.1-0.3l3.2-4h0.4v4h0.9v0.4h-0.9v1.4h-0.4V368z M130.2,367.6v-3.3l-2.7,3.4L130.2,367.6z"/>
	<path class="st2" d="M132.3,369.1l2.1-1.9c0.9-0.9,1.3-1.3,1.3-1.9c0-0.7-0.6-1.2-1.2-1.2l0,0c-0.7,0-1.3,0.4-1.7,1l-0.3-0.2
		c0.4-0.8,1.2-1.2,2-1.2c0.9-0.1,1.6,0.6,1.7,1.5c0,0,0,0,0,0.1l0,0c0,0.8-0.4,1.3-1.4,2.2l-1.7,1.6h3.2v0.4h-3.9v-0.4H132.3z"/>
	<path class="st2" d="M157.4,386.7l-1.1,0.4l-0.1-0.3l1.3-0.5h0.3v5.7h-0.4V386.7z"/>
	<path class="st2" d="M162.2,390.6h-3.1l-0.1-0.3l3.2-4h0.4v4h0.9v0.4h-0.9v1.4h-0.4L162.2,390.6L162.2,390.6z M162.2,390.3v-3.4
		l-2.7,3.4H162.2z"/>
	<path class="st2" d="M164.5,391.1l0.3-0.3c0.4,0.6,1.1,0.9,1.8,0.9c0.7,0.1,1.3-0.5,1.4-1.2l0,0l0,0c0-0.8-0.8-1.2-1.8-1.2h-0.3
		l-0.1-0.2l2-2.2h-3v-0.6h3.6v0.3l-1.9,2.2c1.1,0.1,2,0.6,2,1.6l0,0c0,1-0.9,1.7-1.8,1.7l0,0C165.7,392.1,165,391.7,164.5,391.1z"/>
	<path class="st2" d="M161.5,237.8l-1.1,0.4l-0.1-0.3l1.3-0.5h0.3v5.7h-0.4V237.8z"/>
	<path class="st2" d="M166.4,241.7h-3.1l-0.1-0.3l3.2-4h0.4v4h0.9v0.4h-0.9v1.4h-0.4L166.4,241.7z M166.4,241.3v-3.4l-2.7,3.3
		L166.4,241.3z"/>
	<path class="st2" d="M171.7,241.7h-3.1l-0.1-0.3l3.2-4h0.4v4h0.9v0.4h-0.9v1.4h-0.4L171.7,241.7z M171.7,241.3v-3.4l-2.7,3.4H171.7
		z"/>
	<path class="st2" d="M220,178.2l-1.1,0.4l-0.1-0.3l1.3-0.5h0.3v5.7H220V178.2z"/>
	<path class="st2" d="M224.9,182.1h-3.1l-0.1-0.3l3.2-4h0.4v4h0.9v0.4h-0.9v1.4h-0.4L224.9,182.1L224.9,182.1z M224.9,181.8v-3.4
		l-2.7,3.4H224.9z"/>
	<path class="st2" d="M227.9,183c-0.6-0.6-0.8-1.4-0.7-2.2l0,0c0-1.7,0.9-3.1,2.3-3.1c0.6,0,1.2,0.2,1.6,0.7l-0.3,0.3
		c-0.4-0.4-0.9-0.6-1.4-0.6c-1.1,0-1.9,1.2-1.9,2.8v0.2c0.4-0.7,1-1.1,1.8-1.1c1-0.1,1.9,0.7,2,1.7c0,0,0,0,0,0.1l0,0
		c0,1-0.9,1.9-1.9,1.9h-0.1C228.9,183.6,228.3,183.4,227.9,183z M230.9,181.7L230.9,181.7c0-0.8-0.7-1.4-1.5-1.4h-0.1
		c-0.8,0-1.5,0.6-1.6,1.4l0,0c0,0.8,0.7,1.5,1.5,1.4c0,0,0,0,0.1,0C230.2,183.2,230.9,182.6,230.9,181.7
		C230.9,181.8,230.9,181.8,230.9,181.7L230.9,181.7z"/>
	<path class="st2" d="M310.3,107.9l-1.1,0.4l-0.1-0.3l1.3-0.5h0.3v5.7h-0.4L310.3,107.9z"/>
	<path class="st2" d="M312,112.3l0.3-0.3c0.4,0.5,1,0.8,1.7,0.8c0.8,0,1.5-0.6,1.5-1.3v-0.1l0,0c0-0.8-0.7-1.4-1.4-1.4H314
		c-0.5,0-0.9,0.1-1.3,0.4l-0.3-0.2l0.2-2.8h3.2v0.4H313l-0.1,2.1c0.4-0.2,0.8-0.3,1.3-0.3c1-0.1,1.9,0.6,1.9,1.6v0.1l0,0
		c0,1-0.8,1.8-1.8,1.8c-0.1,0-0.1,0-0.2,0C313.2,113.2,312.5,112.9,312,112.3z"/>
	<path class="st2" d="M316.9,112.2l0.3-0.3c0.4,0.6,1.1,0.9,1.8,0.9c0.7,0.1,1.3-0.5,1.4-1.2l0,0l0,0c0-0.8-0.8-1.2-1.8-1.2h-0.3
		l-0.1-0.2l2-2.3h-3v-0.4h3.5v0.3l-1.9,2.2c1.1,0.1,2,0.6,2,1.6l0,0c0,1-0.8,1.7-1.8,1.7l0,0C318.2,113.3,317.4,112.9,316.9,112.2z"
		/>
	<path class="st2" d="M407.5,74.7l-1.1,0.4l-0.1-0.3l1.3-0.5h0.3V80h-0.4L407.5,74.7z"/>
	<path class="st2" d="M409.2,79.1l0.3-0.3c0.4,0.5,1,0.8,1.7,0.8c0.8,0.1,1.5-0.6,1.5-1.3l0,0l0,0c0-0.8-0.7-1.4-1.4-1.4h-0.1
		c-0.5,0-0.9,0.1-1.3,0.4l-0.3-0.2l0.2-2.8h3.2v0.4h-2.8l-0.2,2.1c0.4-0.2,0.8-0.3,1.3-0.3c1-0.1,1.9,0.6,1.9,1.6v0.1l0,0
		c0,1-0.8,1.8-1.8,1.8c-0.1,0-0.1,0-0.2,0C410.5,80,409.8,79.7,409.2,79.1z"/>
	<path class="st2" d="M414.1,79.1l0.3-0.3c0.4,0.5,1,0.8,1.7,0.8c0.8,0.1,1.5-0.6,1.5-1.3l0,0l0,0c0-0.8-0.7-1.4-1.4-1.4h-0.1
		c-0.5,0-0.9,0.1-1.3,0.4l-0.3-0.2l0.2-2.8h3.2v0.4H415l-0.1,2.1c0.4-0.2,0.8-0.3,1.3-0.3c1-0.1,1.9,0.6,1.9,1.6v0.1l0,0
		c0,1-0.8,1.8-1.8,1.8c-0.1,0-0.1,0-0.2,0C415.3,80.1,414.6,79.7,414.1,79.1z"/>
	<path class="st2" d="M669.1,94.9l-1.1,0.4l-0.1-0.3l1.3-0.5h0.3v5.7h-0.4V94.9z"/>
	<path class="st2" d="M670.8,99.4l0.3-0.3c0.4,0.5,1,0.8,1.7,0.8c0.8,0,1.5-0.6,1.5-1.3v-0.1l0,0c0-0.8-0.7-1.4-1.4-1.4h-0.1
		c-0.5,0-0.9,0.1-1.3,0.4l-0.3-0.2l0.2-2.8h3.2v0.4h-2.8l-0.1,2.1c0.4-0.2,0.8-0.3,1.3-0.3c1-0.1,1.8,0.6,1.9,1.6v0.1l0,0
		c0,1-0.8,1.8-1.8,1.8c-0.1,0-0.1,0-0.2,0C672.1,100.2,671.4,99.9,670.8,99.4z"/>
	<path class="st2" d="M678.9,94.9h-3.3v-0.4h3.8v0.3l-2.6,5.4h-0.5L678.9,94.9z"/>
	<line class="st1" x1="280.9" y1="171.7" x2="253.1" y2="143.8"/>
	<line class="st3" x1="309.2" y1="144.2" x2="280.9" y2="115.9"/>
	<g>
		<path class="st2" d="M125.1,301l-1.1,0.4l-0.1-0.3l1.3-0.5h0.3v5.7h-0.4L125.1,301z"/>
		<path class="st2" d="M131.7,305.3l0.3-0.3c0.4,0.6,1.1,0.9,1.8,0.9c0.7,0.1,1.3-0.5,1.4-1.2l0,0l0,0c0-0.8-0.8-1.2-1.8-1.2h-0.3
			l-0.1-0.2l2-2.3h-3v-0.4h3.5v0.3l-1.9,2.2c1.1,0.1,2,0.6,2,1.6l0,0c0,1-0.8,1.7-1.8,1.7l0,0C133,306.4,132.2,306,131.7,305.3z"/>
		<path class="st2" d="M126.8,305.3l0.3-0.3c0.4,0.6,1.1,0.9,1.8,0.9c0.7,0.1,1.3-0.5,1.4-1.2l0,0l0,0c0-0.8-0.8-1.2-1.8-1.2h-0.3
			l-0.1-0.2l2-2.3h-3v-0.4h3.5v0.3l-1.9,2.2c1.1,0.1,2,0.6,2,1.6l0,0c0,1-0.8,1.7-1.8,1.7l0,0C128.1,306.4,127.3,306,126.8,305.3z"
			/>
	</g>
	<line class="st3" x1="440.3" y1="97.8" x2="440.3" y2="57.4"/>
	<line class="st3" x1="656.6" y1="319.7" x2="679.7" y2="296.6"/>
	<line class="st3" x1="712.4" y1="292.1" x2="698.8" y2="278.4"/>
	<line class="st3" x1="734.5" y1="270.3" x2="720.8" y2="256.5"/>
	<line class="st3" x1="754.3" y1="250.1" x2="670.6" y2="333.8"/>
	<line class="st3" x1="690" y1="166.8" x2="754.3" y2="102.5"/>
	<line class="st3" x1="829.3" y1="339.4" x2="816.9" y2="327"/>
	<line class="st3" x1="796.7" y1="372.1" x2="784.3" y2="359.7"/>
	<line class="st3" x1="741.9" y1="426.8" x2="729.5" y2="414.4"/>
	<line class="st3" x1="714.6" y1="454.4" x2="702.1" y2="441.9"/>
	<line class="st3" x1="682.3" y1="486.5" x2="669.9" y2="474.1"/>
	<line class="st3" x1="604.7" y1="527.3" x2="626.1" y2="505.9"/>
	<line class="st3" x1="590.6" y1="513.2" x2="612" y2="491.8"/>
	<line class="st3" x1="564.7" y1="487.3" x2="586.1" y2="465.9"/>
	<line class="st3" x1="552.1" y1="485.8" x2="552.1" y2="455.3"/>
	<line class="st3" x1="473.3" y1="485.8" x2="473.3" y2="455.3"/>
	<line class="st3" x1="462.2" y1="485.6" x2="440.1" y2="467.6"/>
	<line class="st3" x1="451.1" y1="499.4" x2="428.1" y2="482.5"/>
	<line class="st3" x1="440.2" y1="514.5" x2="416.9" y2="496.5"/>
	<line class="st3" x1="427.7" y1="528.8" x2="404.9" y2="511.5"/>
	<line class="st3" x1="358.3" y1="579.3" x2="358.3" y2="506.9"/>
	<line class="st3" x1="313.3" y1="579.3" x2="313.3" y2="505.8"/>
	<line class="st3" x1="226.6" y1="579.3" x2="226.6" y2="506.9"/>
	<line class="st3" x1="199.6" y1="579.3" x2="199.6" y2="506.9"/>
	<line class="st3" x1="138.4" y1="580.3" x2="138.4" y2="506.9"/>
	<line class="st3" x1="75.3" y1="579.3" x2="75.3" y2="506.9"/>
	<line class="st3" x1="197.5" y1="461" x2="84.2" y2="461"/>
	<line class="st3" x1="151.3" y1="494.1" x2="151.3" y2="461"/>
	<line class="st3" x1="129.3" y1="494.1" x2="129.3" y2="460.6"/>
	<line class="st3" x1="107.5" y1="494.1" x2="107.5" y2="460.6"/>
	<line class="st3" x1="71.6" y1="437.8" x2="28.2" y2="437.8"/>
	<line class="st3" x1="48.1" y1="411.7" x2="28.2" y2="411.7"/>
	<line class="st3" x1="69.1" y1="307.2" x2="58.9" y2="297"/>
	<line class="st3" x1="89" y1="287.3" x2="78.8" y2="277.1"/>
	<line class="st3" x1="94.7" y1="334.6" x2="116.1" y2="313.1"/>
	<line class="st1" x1="232.7" y1="220.7" x2="183.9" y2="172"/>
	<line class="st3" x1="115.6" y1="300" x2="126.8" y2="288.8"/>
	<line class="st1" x1="372.7" y1="315.4" x2="350.6" y2="293.3"/>
	<polyline class="st1" points="220.4,398.5 174.1,444.8 100.1,371.7 	"/>
	<line class="st1" x1="801.6" y1="278.3" x2="865.4" y2="214.6"/>
	<line class="st1" x1="896.8" y1="246.3" x2="866.4" y2="276.7"/>
	<polyline class="st1" points="730.7,79.8 703.5,107 717.7,121.2 718.3,120.6 745.3,93.6 	"/>
	<polyline class="st1" points="341.2,132.8 363,154.5 377.2,141.2 389.8,141.2 389.8,113.1 	"/>
	<polyline class="st1" points="631.3,186.9 656.3,211.9 631.3,186.9 659.8,158.3 	"/>
	<polyline class="st4" points="685.3,291.7 692.2,298.6 687.3,303.5 694,310.3 	"/>
	<line class="st3" x1="658.4" y1="510.3" x2="646" y2="497.9"/>
	<line class="st3" x1="532.2" y1="485.8" x2="532.2" y2="455.3"/>
	<line class="st3" x1="495.3" y1="485.8" x2="495.3" y2="455.3"/>
	<polyline class="st1" points="365.4,260.9 345.3,240.8 357.8,228.4 304.4,281.8 356.4,333.9 	"/>
	<line class="st1" x1="324.8" y1="168.5" x2="350.9" y2="142.4"/>
	<line class="st1" x1="337.4" y1="155.9" x2="327.7" y2="146.2"/>
	<line class="st1" x1="783.8" y1="344.1" x2="722" y2="282.4"/>
	<line class="st1" x1="377.9" y1="545.5" x2="358.3" y2="545.5"/>
	<polyline class="st3" points="28.2,539.7 66.2,539.7 66.2,506.9 	"/>
	<line class="st3" x1="212.1" y1="431.8" x2="199.6" y2="419.4"/>
	<polyline class="st3" points="199.1,377.2 167.2,409.1 186.7,432.5 	"/>
	<line class="st3" x1="206.4" y1="412.4" x2="181" y2="395.8"/>
	<line class="st3" x1="193.4" y1="403.5" x2="209.4" y2="387.5"/>
	<polyline class="st3" points="163.1,341 146.8,357.7 131,341.6 	"/>
	<polyline class="st3" points="180.6,358.2 154.5,365.3 124.1,395.8 	"/>
	<polyline class="st3" points="174.1,444.8 174.1,460.4 174.1,459.9 174.1,494.1 	"/>
	<line class="st3" x1="60.8" y1="358.6" x2="83.2" y2="336.1"/>
	<line class="st1" x1="234.7" y1="453.5" x2="218.2" y2="437.5"/>
	<line class="st3" x1="335.4" y1="579.3" x2="335.4" y2="501.8"/>
	<line class="st3" x1="50.8" y1="326.2" x2="62" y2="315"/>
	<line class="st3" x1="57.3" y1="333.4" x2="89" y2="365.2"/>
	<line class="st3" x1="48.1" y1="387.2" x2="28.2" y2="387.2"/>
	<polyline class="st1" points="363,154.5 402.5,194 402,235.5 	"/>
	<line class="st1" x1="350.3" y1="194.1" x2="376.2" y2="168.2"/>
	<line class="st1" x1="367" y1="210.8" x2="392.9" y2="184.9"/>
	<line class="st3" x1="414.1" y1="545.8" x2="391.4" y2="528.4"/>
	<polyline class="st1" points="631.3,186.9 621.4,196.7 621.4,235.7 	"/>
	<line class="st3" x1="578.4" y1="500.6" x2="599.8" y2="479.2"/>
	<polyline class="st1" points="246.2,506.9 246.2,531.6 293.2,531.6 293.2,506.9 	"/>
	<line class="st3" x1="48.1" y1="461" x2="28.2" y2="461"/>
	<line class="st1" x1="332.7" y1="253.9" x2="276" y2="197.2"/>
	<line class="st1" x1="293.7" y1="215.4" x2="319" y2="190.1"/>
	<line class="st1" x1="319.6" y1="241.3" x2="345" y2="216"/>
	<line class="st1" x1="306.7" y1="228.4" x2="332" y2="203"/>
	<line class="st3" x1="681.1" y1="157.9" x2="717.7" y2="121.2"/>
	<line class="st5" x1="737.6" y1="214.4" x2="801.7" y2="150.2"/>
</g>
<g id="Buttons">
	<g id="_x30_5_1_">
		<circle class="st6" cx="624.4" cy="316.1" r="15.6"/>
		<g>
			<g>
				<g>
					<path class="st7" d="M619,321.3l1.6-1.9c1.2,1.1,2.4,1.7,3.7,1.7c1.7,0,2.9-1,2.9-2.5l0,0c0-1.5-1.2-2.4-3-2.4
						c-1,0-1.9,0.3-2.7,0.6l-1.5-1l0.4-7.1h8.7v2.3h-6.5l-0.2,3.4c0.7-0.2,1.3-0.4,2.3-0.4c2.8,0,5.1,1.5,5.1,4.6l0,0
						c0,3-2.2,4.9-5.4,4.9C622.1,323.6,620.4,322.7,619,321.3z"/>
				</g>
			</g>
		</g>
	</g>
	<g id="_x30_6_1_">
		<circle class="st8" cx="194.3" cy="231.4" r="15.6"/>
		<g>
			<g>
				<g>
					<path class="st7" d="M190.5,237.4c-1.1-1.1-1.8-2.6-1.8-5.6v0c0-4.5,2.1-7.9,6.2-7.9c1.9,0,3.2,0.6,4.5,1.6l-1.4,2
						c-1-0.8-1.9-1.3-3.2-1.3c-2.5,0-3.5,2.6-3.5,4.6c0.9-0.9,1.9-1.5,3.5-1.5c2.8,0,5.1,1.7,5.1,4.6v0c0,2.9-2.4,5-5.4,5
						C192.7,238.9,191.4,238.3,190.5,237.4z M197.4,234.1L197.4,234.1c0-1.5-1.2-2.6-3-2.6c-1.8,0-3,1.2-3,2.6v0
						c0,1.5,1.2,2.6,3,2.6C196.3,236.7,197.4,235.6,197.4,234.1z"/>
				</g>
			</g>
		</g>
	</g>
	<g id="_x30_7_1_">
		<circle class="st8" cx="241.7" cy="197.4" r="15.6"/>
		<g>
			<g>
				<g>
					<path class="st7" d="M243.9,192.3h-7.3v-2.2h10.2v1.9l-6.6,12.6h-2.9L243.9,192.3z"/>
				</g>
			</g>
		</g>
	</g>
	<g id="_x30_8_1_">
		<circle class="st9" cx="783" cy="206.3" r="15.6"/>
		<g>
			<g>
				<g>
					<path class="st7" d="M777.5,209.6L777.5,209.6c0-1.8,1-2.9,2.6-3.6c-1.2-0.6-2.1-1.6-2.1-3.2v0c0-2.2,2.1-3.9,5.1-3.9
						c2.9,0,5.1,1.7,5.1,3.9v0c0,1.6-0.9,2.6-2.1,3.2c1.6,0.7,2.6,1.8,2.6,3.5v0c0,2.6-2.4,4.2-5.6,4.2
						C779.8,213.8,777.5,212.1,777.5,209.6z M786.1,209.4L786.1,209.4c0-1.4-1.3-2.2-3.1-2.2s-3,0.9-3,2.2v0c0,1.2,1.1,2.2,3,2.2
						C784.9,211.6,786.1,210.6,786.1,209.4z M785.6,203L785.6,203c0-1.2-1-2.1-2.6-2.1c-1.6,0-2.6,0.9-2.6,2v0
						c0,1.3,1.1,2.2,2.6,2.2C784.5,205.1,785.6,204.3,785.6,203z"/>
				</g>
			</g>
		</g>
	</g>
	<g id="_x31_2_1_">
		<circle class="st6" cx="109.3" cy="527.9" r="15.6"/>
		<g>
			<g>
				<g>
					<path class="st7" d="M103.3,523.2l-2.6,0.7l-0.5-2.1l3.9-1.2h1.8v14.7h-2.5V523.2z"/>
				</g>
				<g>
					<path class="st7" d="M108,533.3l5-4.3c2-1.7,2.7-2.6,2.7-3.9c0-1.4-1-2.3-2.4-2.3s-2.2,0.7-3.3,2.2l-1.8-1.4
						c1.4-1.9,2.8-3,5.4-3c2.8,0,4.8,1.7,4.8,4.3v0c0,2.3-1.2,3.5-3.8,5.6l-3,2.5h6.9v2.2H108V533.3z"/>
				</g>
			</g>
		</g>
	</g>
	<g id="_x31_8_1_">
		<circle class="st10" cx="423.7" cy="95.8" r="15.6"/>
		<g>
			<g>
				<g>
					<path class="st7" d="M417.4,91l-2.6,0.7l-0.5-2.1l3.9-1.2h1.8v14.7h-2.5V91z"/>
				</g>
				<g>
					<path class="st7" d="M422,99.1L422,99.1c0-1.8,1-2.9,2.6-3.6c-1.2-0.6-2.1-1.6-2.1-3.2v0c0-2.2,2.1-3.9,5.1-3.9
						s5.1,1.7,5.1,3.9v0c0,1.6-0.9,2.6-2.1,3.2c1.6,0.7,2.6,1.8,2.6,3.5v0c0,2.6-2.4,4.2-5.6,4.2C424.4,103.3,422,101.6,422,99.1z
						 M430.6,99L430.6,99c0-1.4-1.3-2.2-3.1-2.2c-1.7,0-3,0.9-3,2.2v0c0,1.2,1.1,2.2,3,2.2C429.5,101.1,430.6,100.2,430.6,99z
						 M430.1,92.5L430.1,92.5c0-1.2-1-2.1-2.6-2.1c-1.6,0-2.6,0.9-2.6,2v0c0,1.3,1.1,2.2,2.6,2.2C429,94.7,430.1,93.8,430.1,92.5z"
						/>
				</g>
			</g>
		</g>
	</g>
	<g id="_x31_9_1_">
		<circle class="st10" cx="367.6" cy="102.2" r="15.6"/>
		<g>
			<g>
				<g>
					<path class="st7" d="M361.1,97.4l-2.6,0.7l-0.5-2.1l3.9-1.2h1.8v14.7h-2.5V97.4z"/>
				</g>
				<g>
					<path class="st7" d="M374.5,102.8c-0.8,1-1.9,1.6-3.4,1.6c-3.1,0-5.2-1.8-5.2-4.6v0c0-2.8,2.2-5,5.4-5c1.8,0,3,0.5,4.1,1.5
						c1.1,1.1,1.7,2.7,1.7,5.6v0c0,4.7-2.3,7.9-6.2,7.9c-2,0-3.4-0.7-4.7-1.7l1.4-2c1.1,0.9,2.1,1.4,3.3,1.4
						C373.6,107.4,374.5,104.7,374.5,102.8z M374.4,99.6L374.4,99.6c0-1.6-1.2-2.7-3-2.7c-1.8,0-2.9,1.2-2.9,2.7v0
						c0,1.5,1.2,2.6,3,2.6C373.3,102.2,374.4,101,374.4,99.6z"/>
				</g>
			</g>
		</g>
	</g>
	<g id="_x31_3_1_">
		<circle class="st6" cx="156.3" cy="362.9" r="15.6"/>
		<g>
			<g>
				<g>
					<path class="st7" d="M150.3,358l-2.6,0.7l-0.5-2.1l3.9-1.2h1.8v14.7h-2.5V358z"/>
				</g>
				<g>
					<path class="st7" d="M154.8,367.8l1.8-1.7c1,1.2,2.2,1.9,3.8,1.9c1.4,0,2.5-0.9,2.5-2.2v0c0-1.4-1.3-2.2-3.3-2.2h-1.2l-0.4-1.6
						l3.9-4.2h-6.3v-2.2h9.6v1.9l-4.1,4.2c2.2,0.3,4.3,1.4,4.3,4.1v0c0,2.7-2.1,4.6-5.1,4.6C157.9,370.3,156,369.3,154.8,367.8z"/>
				</g>
			</g>
		</g>
	</g>
	<g id="_x33_1">
		<circle class="st9" cx="656.5" cy="205.6" r="15.6"/>
		<g>
			<g>
				<g>
					<path class="st7" d="M647.8,210.5l1.8-1.7c1,1.2,2.2,1.9,3.8,1.9c1.4,0,2.5-0.9,2.5-2.2v0c0-1.4-1.3-2.2-3.3-2.2h-1.2l-0.4-1.6
						l3.9-4.2h-6.3v-2.2h9.6v1.9l-4.1,4.2c2.2,0.3,4.3,1.4,4.3,4.1v0c0,2.7-2.1,4.6-5.1,4.6C650.9,213,649.1,212,647.8,210.5z"/>
				</g>
				<g>
					<path class="st7" d="M662.6,200.7l-2.6,0.7l-0.5-2.1l3.9-1.2h1.8v14.7h-2.5V200.7z"/>
				</g>
			</g>
		</g>
	</g>
	<g id="_x33_2">
		<circle class="st9" cx="649" cy="95.9" r="15.6"/>
		<g>
			<g>
				<g>
					<path class="st7" d="M637.7,100.9l1.8-1.7c1,1.2,2.2,1.9,3.8,1.9c1.4,0,2.5-0.9,2.5-2.2v0c0-1.4-1.3-2.2-3.3-2.2h-1.2l-0.4-1.6
						l3.9-4.2h-6.3v-2.2h9.6v1.9l-4.1,4.2c2.2,0.3,4.3,1.4,4.3,4.1v0c0,2.7-2.1,4.6-5.1,4.6C640.8,103.4,638.9,102.4,637.7,100.9z"
						/>
				</g>
				<g>
					<path class="st7" d="M649.8,101.2l5-4.3c2-1.7,2.7-2.6,2.7-3.9c0-1.4-1-2.3-2.4-2.3s-2.2,0.7-3.3,2.2l-1.8-1.4
						c1.4-1.9,2.8-3,5.4-3c2.9,0,4.8,1.7,4.8,4.3v0c0,2.3-1.2,3.5-3.8,5.6l-3,2.5h6.9v2.2h-10.5V101.2z"/>
				</g>
			</g>
		</g>
	</g>
	<g id="_x33_3">
		<circle class="st6" cx="107.1" cy="305.7" r="15.6"/>
		<g>
			<g>
				<g>
					<path class="st7" d="M95.8,310.5l1.8-1.7c1,1.2,2.2,1.9,3.8,1.9c1.4,0,2.5-0.9,2.5-2.2v0c0-1.4-1.3-2.2-3.3-2.2h-1.2l-0.4-1.6
						l3.9-4.2h-6.3v-2.2h9.6v1.9l-4.1,4.2c2.2,0.3,4.3,1.4,4.3,4.1v0c0,2.7-2.1,4.6-5.1,4.6C98.9,313.1,97.1,312,95.8,310.5z"/>
				</g>
				<g>
					<path class="st7" d="M107.8,310.5l1.8-1.7c1,1.2,2.2,1.9,3.8,1.9c1.4,0,2.5-0.9,2.5-2.2v0c0-1.4-1.3-2.2-3.3-2.2h-1.2l-0.4-1.6
						l3.9-4.2h-6.3v-2.2h9.6v1.9l-4.1,4.2c2.2,0.3,4.3,1.4,4.3,4.1v0c0,2.7-2.1,4.6-5.1,4.6C110.8,313.1,109,312,107.8,310.5z"/>
				</g>
			</g>
		</g>
	</g>
	<g id="_x33_6">
		<circle class="st10" cx="412.7" cy="56.4" r="15.6"/>
		<g>
			<g>
				<g>
					<path class="st7" d="M401,61.4l1.8-1.7c1,1.2,2.2,1.9,3.8,1.9c1.4,0,2.5-0.9,2.5-2.2v0c0-1.4-1.3-2.2-3.3-2.2h-1.2l-0.4-1.6
						l3.9-4.2h-6.3v-2.2h9.6v1.9l-4.1,4.2c2.2,0.3,4.3,1.4,4.3,4.1v0c0,2.7-2.1,4.6-5.1,4.6C404.1,64,402.3,62.9,401,61.4z"/>
				</g>
				<g>
					<path class="st7" d="M415,62.4c-1.1-1.1-1.8-2.6-1.8-5.6v0c0-4.5,2.1-7.9,6.2-7.9c1.9,0,3.2,0.6,4.5,1.6l-1.4,2
						c-1-0.8-1.9-1.3-3.2-1.3c-2.5,0-3.5,2.6-3.5,4.6c0.9-0.9,1.9-1.5,3.5-1.5c2.8,0,5.1,1.7,5.1,4.6v0c0,2.9-2.4,5-5.4,5
						C417.3,64,416,63.4,415,62.4z M421.9,59.1L421.9,59.1c0-1.5-1.2-2.6-3-2.6c-1.8,0-3,1.2-3,2.6v0c0,1.5,1.2,2.6,3,2.6
						C420.8,61.7,421.9,60.6,421.9,59.1z"/>
				</g>
			</g>
		</g>
	</g>
	<g id="_x33_9">
		<circle class="st9" cx="695.1" cy="251.8" r="15.6"/>
		<g>
			<g>
				<g>
					<path class="st7" d="M683.4,256.8l1.8-1.7c1,1.2,2.2,1.9,3.8,1.9c1.4,0,2.5-0.9,2.5-2.2v0c0-1.4-1.3-2.2-3.3-2.2H687l-0.4-1.6
						l3.9-4.2h-6.3v-2.2h9.6v1.9l-4.1,4.2c2.2,0.3,4.3,1.4,4.3,4.1v0c0,2.7-2.1,4.6-5.1,4.6C686.4,259.3,684.6,258.3,683.4,256.8z"
						/>
				</g>
				<g>
					<path class="st7" d="M704.1,252.4c-0.8,1-1.9,1.6-3.4,1.6c-3.1,0-5.2-1.8-5.2-4.6v0c0-2.9,2.2-5,5.4-5c1.8,0,3,0.5,4.1,1.5
						c1.1,1.1,1.7,2.7,1.7,5.6v0c0,4.7-2.3,7.9-6.2,7.9c-2,0-3.4-0.7-4.7-1.7l1.4-2c1.1,0.9,2.1,1.4,3.3,1.4
						C703.2,257,704.1,254.3,704.1,252.4z M704,249.2L704,249.2c0-1.6-1.2-2.7-3-2.7c-1.8,0-2.9,1.2-2.9,2.7v0c0,1.5,1.2,2.6,3,2.6
						C702.9,251.8,704,250.6,704,249.2z"/>
				</g>
			</g>
		</g>
	</g>
	<g id="_x34_0">
		<circle class="st9" cx="808.9" cy="309.4" r="15.6"/>
		<g>
			<g>
				<g>
					<path class="st7" d="M803.5,313.4h-7.3l-0.5-1.8l8.1-9.6h2.2v9.3h2.1v2.1H806v3.3h-2.5V313.4z M803.5,311.3v-5.8l-4.8,5.8
						H803.5z"/>
				</g>
				<g>
					<path class="st7" d="M809.4,309.5L809.4,309.5c0-4.2,2.5-7.6,6.4-7.6c3.8,0,6.3,3.3,6.3,7.5v0c0,4.2-2.5,7.5-6.4,7.5
						S809.4,313.6,809.4,309.5z M819.4,309.5L819.4,309.5c0-2.9-1.5-5.3-3.7-5.3c-2.2,0-3.7,2.3-3.7,5.2v0c0,2.9,1.5,5.2,3.7,5.2
						C818,314.6,819.4,312.3,819.4,309.5z"/>
				</g>
			</g>
		</g>
	</g>
	<g id="_x34_2">
		<circle class="st10" cx="324" cy="91.4" r="15.6"/>
		<g>
			<g>
				<g>
					<path class="st7" d="M319.8,95.5h-7.3l-0.5-1.8l8.1-9.6h2.2v9.3h2.1v2.1h-2.1v3.3h-2.5V95.5z M319.8,93.4v-5.8l-4.8,5.8H319.8z
						"/>
				</g>
				<g>
					<path class="st7" d="M325.5,96.8l5-4.3c2-1.7,2.7-2.6,2.7-3.9c0-1.4-1-2.3-2.4-2.3c-1.3,0-2.2,0.7-3.3,2.2l-1.8-1.4
						c1.4-1.9,2.8-3,5.4-3c2.9,0,4.8,1.7,4.8,4.3v0c0,2.3-1.2,3.5-3.8,5.6l-3,2.5h6.9v2.2h-10.5V96.8z"/>
				</g>
			</g>
		</g>
	</g>
	<g id="_x34_6">
		<circle class="st9" cx="720.5" cy="192.4" r="15.6"/>
		<g>
			<g>
				<g>
					<path class="st7" d="M715.9,196.4h-7.3l-0.5-1.8l8.1-9.6h2.2v9.3h2.1v2.1h-2.1v3.3h-2.5V196.4z M715.9,194.3v-5.8l-4.8,5.8
						H715.9z"/>
				</g>
				<g>
					<path class="st7" d="M723.5,198.4c-1.1-1.1-1.8-2.6-1.8-5.6v0c0-4.5,2.1-7.9,6.2-7.9c1.9,0,3.2,0.6,4.5,1.6l-1.4,2
						c-1-0.8-1.9-1.3-3.2-1.3c-2.5,0-3.5,2.6-3.5,4.6c0.9-0.9,1.9-1.5,3.5-1.5c2.8,0,5.1,1.7,5.1,4.6v0c0,2.9-2.4,5-5.4,5
						C725.8,200,724.5,199.4,723.5,198.4z M730.4,195.1L730.4,195.1c0-1.5-1.2-2.6-3-2.6c-1.8,0-3,1.2-3,2.6v0c0,1.5,1.2,2.6,3,2.6
						C729.3,197.7,730.4,196.6,730.4,195.1z"/>
				</g>
			</g>
		</g>
	</g>
	<g id="_x34_7">
		<circle class="st9" cx="802.9" cy="249.3" r="15.6"/>
		<g>
			<g>
				<g>
					<path class="st7" d="M799,253.4h-7.3l-0.5-1.8l8.1-9.6h2.2v9.3h2.1v2.1h-2.1v3.3H799V253.4z M799,251.3v-5.8l-4.8,5.8H799z"/>
				</g>
				<g>
					<path class="st7" d="M811.7,244.4h-7.3v-2.2h10.2v1.9l-6.6,12.6h-2.9L811.7,244.4z"/>
				</g>
			</g>
		</g>
	</g>
	<g id="_x34_8">
		<circle class="st9" cx="766.2" cy="249.3" r="15.6"/>
		<g>
			<g>
				<g>
					<path class="st7" d="M761.7,253.4h-7.3l-0.5-1.8l8.1-9.6h2.2v9.3h2.1v2.1h-2.1v3.3h-2.5V253.4z M761.7,251.3v-5.8l-4.8,5.8
						H761.7z"/>
				</g>
				<g>
					<path class="st7" d="M767.4,252.7L767.4,252.7c0-1.8,1-2.9,2.6-3.6c-1.2-0.6-2.1-1.6-2.1-3.2v0c0-2.2,2.1-3.9,5.1-3.9
						c2.9,0,5.1,1.7,5.1,3.9v0c0,1.6-0.9,2.6-2.1,3.2c1.6,0.7,2.6,1.8,2.6,3.5v0c0,2.6-2.4,4.2-5.6,4.2S767.4,255.2,767.4,252.7z
						 M776,252.5L776,252.5c0-1.4-1.3-2.2-3.1-2.2s-3,0.9-3,2.2v0c0,1.2,1.1,2.2,3,2.2C774.8,254.7,776,253.7,776,252.5z
						 M775.5,246.1L775.5,246.1c0-1.2-1-2.1-2.6-2.1c-1.6,0-2.6,0.9-2.6,2v0c0,1.3,1.1,2.2,2.6,2.2
						C774.4,248.2,775.5,247.3,775.5,246.1z"/>
				</g>
			</g>
		</g>
	</g>
	<g id="_x34_9">
		<circle class="st9" cx="695.5" cy="80.4" r="15.6"/>
		<g>
			<g>
				<g>
					<path class="st7" d="M690.9,84.4h-7.3l-0.5-1.8l8.1-9.6h2.2v9.3h2.1v2.1h-2.1v3.3h-2.5V84.4z M690.9,82.3v-5.8l-4.8,5.8H690.9z
						"/>
				</g>
				<g>
					<path class="st7" d="M705.2,81c-0.8,1-1.9,1.6-3.4,1.6c-3.1,0-5.2-1.8-5.2-4.6v0c0-2.8,2.2-5,5.4-5c1.8,0,3,0.5,4.1,1.5
						c1.1,1.1,1.7,2.7,1.7,5.6v0c0,4.7-2.3,7.9-6.2,7.9c-2,0-3.4-0.7-4.7-1.7l1.4-2c1.1,0.9,2.1,1.4,3.3,1.4
						C704.3,85.6,705.2,82.9,705.2,81z M705.1,77.8L705.1,77.8c0-1.6-1.2-2.7-3-2.7c-1.8,0-2.9,1.2-2.9,2.7v0c0,1.5,1.2,2.6,3,2.6
						C704,80.4,705.1,79.2,705.1,77.8z"/>
				</g>
			</g>
		</g>
	</g>
	<g id="_x35_1">
		<circle class="st9" cx="528.1" cy="105.6" r="15.6"/>
		<g>
			<g>
				<g>
					<path class="st7" d="M519.4,110.8l1.6-1.9c1.2,1.1,2.4,1.7,3.7,1.7c1.7,0,2.9-1,2.9-2.5v0c0-1.5-1.2-2.4-3-2.4
						c-1,0-1.9,0.3-2.7,0.6l-1.5-1l0.4-7.1h8.7v2.3H523l-0.2,3.4c0.7-0.2,1.3-0.4,2.3-0.4c2.8,0,5.1,1.5,5.1,4.6v0
						c0,3-2.2,4.9-5.4,4.9C522.6,113.1,520.8,112.2,519.4,110.8z"/>
				</g>
				<g>
					<path class="st7" d="M534.2,100.7l-2.6,0.7l-0.5-2.1l3.9-1.2h1.8v14.7h-2.5V100.7z"/>
				</g>
			</g>
		</g>
	</g>
	<g id="_x35_2">
		<circle class="st6" cx="173.5" cy="461.4" r="15.6"/>
		<g>
			<g>
				<g>
					<path class="st7" d="M162.3,466.7l1.6-1.9c1.2,1.1,2.4,1.7,3.7,1.7c1.7,0,2.9-1,2.9-2.5v0c0-1.5-1.2-2.4-3-2.4
						c-1,0-1.9,0.3-2.7,0.6l-1.5-1l0.4-7.1h8.7v2.3h-6.5l-0.2,3.4c0.7-0.2,1.3-0.4,2.3-0.4c2.8,0,5.1,1.5,5.1,4.6v0
						c0,3-2.2,4.9-5.4,4.9C165.4,468.9,163.7,468,162.3,466.7z"/>
				</g>
				<g>
					<path class="st7" d="M174.2,466.7l5-4.3c2-1.7,2.7-2.6,2.7-3.9c0-1.4-1-2.3-2.4-2.3s-2.2,0.7-3.3,2.2l-1.8-1.4
						c1.4-1.9,2.8-3,5.4-3c2.8,0,4.8,1.7,4.8,4.3v0c0,2.3-1.2,3.5-3.8,5.6l-3,2.5h6.9v2.2h-10.5V466.7z"/>
				</g>
			</g>
		</g>
	</g>
	<g id="_x35_3">
		<circle class="st6" cx="169.3" cy="527.9" r="15.6"/>
		<g>
			<g>
				<g>
					<path class="st7" d="M158.1,533.1l1.6-1.9c1.2,1.1,2.4,1.7,3.7,1.7c1.7,0,2.9-1,2.9-2.5v0c0-1.5-1.2-2.4-3-2.4
						c-1,0-1.9,0.3-2.7,0.6l-1.5-1l0.4-7.1h8.7v2.3h-6.5l-0.2,3.4c0.7-0.2,1.3-0.4,2.3-0.4c2.8,0,5.1,1.5,5.1,4.6v0
						c0,3-2.2,4.9-5.4,4.9C161.2,535.3,159.5,534.4,158.1,533.1z"/>
				</g>
				<g>
					<path class="st7" d="M169.9,532.8l1.8-1.7c1,1.2,2.2,1.9,3.8,1.9c1.4,0,2.5-0.9,2.5-2.2v0c0-1.4-1.3-2.2-3.3-2.2h-1.2l-0.4-1.6
						l3.9-4.2h-6.3v-2.2h9.6v1.9l-4.1,4.2c2.2,0.3,4.3,1.4,4.3,4.1v0c0,2.7-2.1,4.6-5.1,4.6C173,535.3,171.1,534.3,169.9,532.8z"/>
				</g>
			</g>
		</g>
	</g>
	<g id="_x35_4">
		<circle class="st9" cx="586.2" cy="105.6" r="15.6"/>
		<g>
			<g>
				<g>
					<path class="st7" d="M574.2,110.8l1.6-1.9c1.2,1.1,2.4,1.7,3.7,1.7c1.7,0,2.9-1,2.9-2.5v0c0-1.5-1.2-2.4-3-2.4
						c-1,0-1.9,0.3-2.7,0.6l-1.5-1l0.4-7.1h8.7v2.3h-6.5l-0.2,3.4c0.7-0.2,1.3-0.4,2.3-0.4c2.8,0,5.1,1.5,5.1,4.6v0
						c0,3-2.2,4.9-5.4,4.9C577.3,113.1,575.5,112.2,574.2,110.8z"/>
				</g>
				<g>
					<path class="st7" d="M593.8,109.5h-7.3l-0.5-1.8l8.1-9.6h2.2v9.3h2.1v2.1h-2.1v3.3h-2.5V109.5z M593.8,107.4v-5.8l-4.8,5.8
						H593.8z"/>
				</g>
			</g>
		</g>
	</g>
	<g id="mexican_1_">
		<circle id="mexican" class="st11" cx="402.7" cy="329.8" r="19.5"/>
		<g>
			<path class="st7" d="M411.6,321.1c0,0-0.5,0.9-0.5,0.9c2.1,0.7,3.4,1.7,3.4,2.8c0,0.1,0,0.2,0,0.2c-0.8-0.8-2.2-1.4-4.1-1.9
				l-0.6,1l-2.8,4.4l-0.4,0.6c2.3-0.2,4.3-0.6,5.8-1c-1.1,1.3-5,2.3-9.6,2.3c-4.6,0-8.5-1-9.6-2.3c2.2,0.7,5.7,1.2,9.6,1.2
				c0.8,0,1.5,0,2.2-0.1l0.1-0.1l0.3-0.5c0,0,3.5-5.1,3.5-5.1c0.5-0.8,1.1-1.6,1.6-2.4c0,0,0-0.1,0-0.1c0,0,0-0.1,0-0.1
				c0-0.1,0.1-0.1,0.1-0.2c0-0.1,0-0.1,0.1-0.2c0.2-0.5,0.2-1,0-1.5c-0.1-0.2-0.2-0.5-0.4-0.7c-0.1-0.1-0.2-0.2-0.3-0.3
				c0,0-0.1-0.1-0.1-0.1c0,0-0.1,0-0.1-0.1c0,0,0,0-0.1-0.1c-0.8-0.5-1.5-1.1-2.4-1.5c-0.6-0.3-1.5-0.2-2.1,0.1
				c-0.5,0.2-0.9,0.7-1.1,1.1c0,0.1-0.1,0.1-0.1,0.2c0,0.1,0,0.1-0.1,0.2c0,0-1.5,4.6-2.1,6.3l0.3-2.3c-0.1,0-0.2,0-0.3,0
				c-5,0.1-9.3,1.3-11,2.9c0-0.1,0-0.2,0-0.2c0-2.2,5.3-4,11.8-4l0.2-1c-6.9,0-13.8,1.9-13.8,5.7c0,2.3,0.6,4.5,1.6,6.4l3,6.6
				c0.5,1.2,2.2,1.2,2.7,0l0,0c-1.4-1.2-2.2-2.4-2.2-2.4c0.8,0.8,2.5,1.6,2.5,1.6c0.7,0.4,1.5,0.6,2.3,0.9l1.6,3.4
				c0.9,1.8,3.4,1.8,4.3,0l1.6-3.4c0.8-0.2,1.5-0.5,2.3-0.9l0,0.1v-0.1c0,0,1.8-0.8,2.5-1.6c0,0-0.8,1.2-2.2,2.4
				c0.5,1.2,2.2,1.2,2.7,0l3-6.6c1-1.9,1.6-4.1,1.6-6.4C416.4,323.5,414.5,322,411.6,321.1z"/>
		</g>
	</g>
	<g id="drinks">
		<circle class="st11" cx="673.8" cy="159.9" r="19.5"/>
		<g>
			<path class="st7" d="M667.5,152.2c4.9,0,9.7,0,14.6,0c-0.1,1.5-0.1,2.9-0.2,4.3c-0.3,5.1-0.7,10.1-1,15.2
				c-0.1,1.7-0.5,2.2-2.2,2.2c-2.6,0-5.3,0-7.9,0c-1.1,0-1.9-0.5-1.9-1.6C668.2,165.6,667.9,159,667.5,152.2z M668.8,153.6
				c0.4,6.4,0.8,12.6,1.1,18.9c3,0,5.9,0,8.7,0c0.3,0,0.8-0.7,0.9-1.1c0.2-2.9,0.4-5.8,0.6-8.8c0.2-3,0.3-5.9,0.5-8.9
				c-1.7-0.6-0.9,1.1-1.7,1.6c-0.3,0-0.8,0-1.3-0.1c0-0.6,0-1,0-1.6C674.7,153.6,671.9,153.6,668.8,153.6z"/>
			<path class="st7" d="M673.8,151.6c-0.2-0.3-0.6-0.6-0.7-0.9c-1.1-2.7-3-3.9-5.7-3.7c-2.3,0.2-4.2,2.2-4.6,4.6
				c-0.3,2.3,1.1,4.5,3.5,5.6c0.4,0.2,0.7,0.5,1.3,1c-3.2,0.1-5.8-2.7-5.8-5.9c0-3.5,2.8-6.3,6.3-6.3
				C671.3,145.9,674.2,148.5,673.8,151.6z"/>
			<path class="st7" d="M679.8,151.5c-0.6,0-1,0-1.6,0c0.2-1,0.2-2.1,0.6-2.9c0.3-0.7,1-1.4,1.7-1.6c1.3-0.4,2.8-0.5,4.2-0.5
				c0.4,0,0.8,0.4,1.2,0.7c-0.3,0.3-0.6,0.8-1,0.9c-0.9,0.2-1.8,0.3-2.7,0.3c-1.4,0-2.1,0.6-2.1,2
				C680,150.7,679.9,151.1,679.8,151.5z"/>
			<path class="st7" d="M671.2,148.5c-1,1.1-1.9,2-2.9,3.1c0-1.4,0-2.7,0-4.3C669.5,147.7,670.5,148.1,671.2,148.5z"/>
			<path class="st7" d="M667.6,147.2c0,1.7,0,2.9,0,4.2c-0.1,0.1-0.2,0.1-0.3,0.2c-0.8-1-1.5-1.9-2.4-3
				C665.6,148.2,666.5,147.8,667.6,147.2z"/>
			<path class="st7" d="M664,149.5c1.1,1,2,1.8,3,2.7c-1.3,0-2.3,0-3.7,0C663.5,151.3,663.8,150.4,664,149.5z"/>
			<path class="st7" d="M664.4,155.2c-0.3-0.5-0.7-1.3-1.2-2.2c1.4,0,2.4,0,3.5,0c0.1,0.1,0.1,0.2,0.2,0.3
				C666.1,153.9,665.3,154.5,664.4,155.2z"/>
			<path class="st7" d="M669.8,151.4c0.8-0.7,1.4-1.3,2.2-2c0.2,0.5,0.6,1.2,1,2C671.8,151.4,670.8,151.4,669.8,151.4z"/>
			<path class="st7" d="M667.1,156.9c-0.8-0.3-1.3-0.5-2.1-0.9c0.6-0.7,1.2-1.2,1.9-2C667.1,155.1,667.1,155.9,667.1,156.9z"/>
			<path class="st7" d="M669.5,155.9c0.3,4.8,0.5,9.4,0.9,14.1c0,0.4,0.7,0.9,1.1,1c2.2,0.1,4.4,0.1,6.6,0c0.7,0,1-0.4,1.1-1.2
				c0.1-2.1,0.3-4.2,0.4-6.4c0.2-2.5,0.3-5,0.4-7.6C676.4,155.9,673,155.9,669.5,155.9z"/>
			<path class="st7" d="M669.5,155.9c3.6,0,7,0,10.5,0c-0.1,2.6-0.3,5.1-0.4,7.6c-0.1,2.1-0.3,4.2-0.4,6.4c0,0.8-0.3,1.2-1.1,1.2
				c-2.2,0-4.4,0.1-6.6,0c-0.4,0-1-0.6-1.1-1C670,165.4,669.8,160.7,669.5,155.9z M674.9,163.5c-1.4,0.5-2.9,0.6-3.9,1.4
				c-0.4,0.4,0.3,2.1,0.5,3.1c0,0.2,0,0.5,0.2,0.7c0.3,0.3,0.7,0.6,1.1,0.6c3.9-0.5,4.2-1,3-4.7c-0.1-0.2-0.1-0.4-0.2-0.5
				C675.4,163.8,675.2,163.7,674.9,163.5z M672.9,163.4c0.7-0.2,1.6-0.1,2.1-0.5c0.8-0.6,1.3-1.4,1.8-2.2c0.1-0.1-0.6-0.9-1.1-1.2
				c-2.8-1.7-2.8-1.7-4.4,1.1C670.6,161.9,671.3,163.3,672.9,163.4z M679.2,163.6c-0.7-0.7-1.3-1.2-1.9-1.8
				c-1.6,1.3-0.8,2.6-0.3,4.1C677.8,165.1,678.4,164.5,679.2,163.6z"/>
		</g>
	</g>
	<g id="veggie_heaven">
		<circle class="st11" cx="845" cy="287.5" r="19.5"/>
		<path class="st7" d="M834.1,280.8c1.3,0,2.5,0,3.7,0c0.2,0,0.4,0.3,0.5,0.5c1.7,4.4,3.3,8.8,4.9,13.1c0,0.1,0.1,0.2,0.1,0.3
			c0.1,0.1,0.2,0.2,0.3,0.3c0.1-0.1,0.3-0.2,0.3-0.4c0.3-0.8,0.6-1.6,0.8-2.4c0.2-0.8,0.6-1.2,1.4-1.5c1.4-0.6,2.6-1.4,3.7-2.4
			c1.3-1.4,2-3,2.2-4.9c0.2-2,0.4-4,0.6-6c-0.5,0.8-1.1,1.6-1.6,2.4c-0.4-0.3-0.9-0.5-1.3-0.8c-0.1,0-0.1,0.1-0.2,0.1
			c1.3,0.8,1.4,1.8,0.6,3c-0.9-0.5-1.6-1.4-2.8-1.6c0.7,0.7,1.4,1.4,2.1,2c0.4,0.4,0.5,0.7,0.2,1.2c-0.2,0.4-0.4,0.8-0.5,1.2
			c-1-0.6-2-1.2-2.9-1.8c0,0.1-0.1,0.1-0.1,0.2c0.9,0.6,1.8,1.4,2.3,2.6c-1.4,0.8-2.8,1.6-4.3,2.4c-1.2-6.1,3.7-12.1,9.6-11.9
			c0.2,2.8,0.5,5.6,0.5,8.4c0,2.2-1,4-2.5,5.5c-0.9,0.9-2,1.6-2.9,2.5c-0.3,0.3-0.6,0.6-0.8,1c-0.6,1.4-1.2,2.8-1.8,4.2
			c-0.2,0.4-0.3,0.5-0.8,0.5c-1,0-2,0-3,0c-0.2,0-0.5-0.2-0.6-0.4c-2.5-5.7-5-11.5-7.4-17.2C834.1,281.1,834.1,281,834.1,280.8z"/>
	</g>
	<g id="sushi">
		<circle class="st11" cx="196.7" cy="358.4" r="19.5"/>
		<path class="st7" d="M208.9,343.8c1.4,0.8-2.1,2.5-10.3,8c-0.4,0.3-0.9,0.7-1.3-0.1C205.9,345.4,200.4,350,208.9,343.8z"/>
		<path class="st7" d="M193.1,354.1c-0.8-0.5-0.4-0.9-0.1-1.2c2.3-2.5,4.6-5,6.8-7.4c4.2-4.6,7.2-5.5,4.3-2.5
			c-4,4.1-6.5,6.5-10.5,10.5C193.5,353.6,193.4,353.8,193.1,354.1z"/>
		<path class="st7" d="M183.8,362c0-0.9,0.1-1.7,0-2.6c-0.1-1.3,0.5-2.1,1.7-2.6c2.3-1,4.7-1,7,0c1.1,0.5,1.7,1.4,1.7,2.6
			c0,1.8,0,3.6,0,5.4c0,1.3-0.6,2.3-1.8,2.7c-1.6,0.4-3.3,0.8-4.9,0.6c-2.5-0.3-4-1.2-3.7-4.1C183.9,363.3,183.8,362.6,183.8,362z
			 M189,356.3c-1.4,0-2.7,0.5-3.8,1.1c-1.4,0.7-1.3,2-0.1,2.9c1.9,1.4,5.8,1.4,7.7,0c1.2-0.9,1.3-2.1-0.1-2.9
			C191.6,356.8,190.4,356.3,189,356.3z"/>
		<ellipse class="st11" cx="189" cy="359" rx="4.9" ry="2.7"/>
		<path class="st7" d="M195.9,364.2c0-0.9,0.1-1.7,0-2.6c-0.1-1.3,0.5-2.1,1.7-2.6c2.3-1,4.7-1,7,0c1.1,0.5,1.7,1.4,1.7,2.6
			c0,1.8,0,3.6,0,5.4c0,1.3-0.6,2.3-1.8,2.7c-1.6,0.4-3.3,0.8-4.9,0.6c-2.5-0.3-4-1.2-3.7-4.1C195.9,365.5,195.9,364.8,195.9,364.2z
			 M201,358.5c-1.4,0-2.7,0.5-3.8,1.1c-1.4,0.7-1.3,2-0.1,2.9c1.9,1.4,5.8,1.4,7.7,0c1.2-0.9,1.3-2.1-0.1-2.9
			C203.7,359,202.5,358.5,201,358.5z"/>
		<ellipse class="st11" cx="201.1" cy="361.2" rx="4.9" ry="2.7"/>
		<ellipse class="st7" cx="200.9" cy="361.2" rx="2" ry="1.2"/>
		<ellipse class="st7" cx="188.9" cy="358.4" rx="2" ry="1.2"/>
	</g>
	<g id="asian_2_">
		<circle class="st11" cx="249.1" cy="475.6" r="19.5"/>
		<g>
			<path class="st7" d="M254.8,480.8c0-0.3-0.1-0.4-0.2-0.4l0,0c-0.9-0.1-1.8-0.3-2.7-0.4c0,0-0.1-0.1-0.1-0.1c0,0,0,0,0,0
				c-0.1-0.2-0.3-0.3-0.2-0.5c0.1-0.3-0.1-0.5-0.3-0.6c0.3,0.1-0.1-0.3-0.1-0.4c-0.1-0.1-0.2-0.1-0.2-0.2c-0.1-0.2-0.3-0.3-0.5-0.3
				c-0.1,0-0.2-0.1-0.2-0.1c0-0.1-0.1-0.2-0.1-0.3c-0.1-0.2-0.2-0.3-0.4-0.3c-0.1-0.2-0.2-0.4-0.4-0.4c-0.1,0-0.1-0.1-0.2-0.1
				c0-0.2,0-0.3-0.1-0.4l-2.8,4.9c0,0,0,0.1-0.1,0.1c3-0.1,5-0.5,6.3-0.8c0-0.1,0-0.1-0.1-0.2c0,0-0.1-0.1-0.1-0.1
				c0.5,0.1,0.9,0.1,1.4,0.2c-1.3,0.3-3.6,1-7.6,1.1c-0.1,0-0.2,0-0.3,0c0,0,0,0,0,0c0,0,0,0,0,0c-4,0-6.2-0.8-7.2-1.2
				c0.4-0.1,1.2-0.2,2.1-0.3c-0.1,0.1-0.2,0.2-0.2,0.4c-0.1,0.1-0.1,0.2,0,0.4c1.2,0.3,2.7,0.6,4.9,0.6c-0.2-0.2-0.3-0.4-0.1-0.7
				l2.5-4.7c0,0-0.1-0.1-0.2-0.1c-0.1-0.1-0.2-0.2-0.3-0.2l-3.7,3.7c-0.1,0.1-0.2,0.2-0.4,0.2c-0.1,0-0.3-0.1-0.4-0.2l-0.1-0.1
				c-0.2-0.2-0.2-0.5,0-0.8l3.1-3.2c0,0-0.1,0-0.1,0c-0.2,0-0.4,0.1-0.5,0.2c-0.5,0.3-0.4,0.2-0.1,0.4c-0.2-0.1-0.5-0.1-0.6,0.1
				c0,0-0.1,0.1-0.1,0.1c0,0-0.1,0-0.1,0c-0.3-0.2-0.7,0.1-0.7,0.5c-0.1,0-0.2,0.1-0.2,0.2c-0.1,0.2-0.4,0.5-0.6,0.7
				c-0.3,0-0.5,0.4-0.4,0.7c0,0,0,0,0,0c-0.1,0-0.3,0-0.4,0c-0.1,0-0.2,0.1-0.2,0.1c-0.2,0.1-0.3,0.4-0.2,0.6
				c-0.1,0.1-0.1,0.2-0.2,0.3c-0.2,0.1-0.2,0.3-0.2,0.4c-2.1,0.2-3.2,0.5-3.2,0.5l0,0c-0.1,0-0.2,0.1-0.2,0.3
				c0,3.6,1.5,8.7,5.4,10.4c0.2,0.5,0.8,0.9,1.2,0.8h3.8c0.5,0.1,1.2-0.5,1.3-1C252.8,489.1,254.6,485,254.8,480.8z M238.5,481.9
				l2.1,0.4c0,0,0.2,4.2,2.7,7.4c0,0.1,0,0.1-0.1,0.2C241.6,488.6,238.1,485.5,238.5,481.9z"/>
			<path class="st12" d="M243,479.6c-0.1,0-0.2,0-0.3-0.1l-0.1-0.1c-0.2-0.2-0.2-0.4,0-0.6l17-17.8c0,0,0.1,0,0.1,0c0,0,0,0,0,0
				c0,0,0.1,0,0.1,0l0.9,0.9c0,0,0,0.1,0,0.1c0,0,0,0.1,0,0.1l-17.5,17.3C243.2,479.6,243.1,479.6,243,479.6L243,479.6z"/>
			<path class="st7" d="M254.3,466.4l3.6-6.2c0.1-0.1,0-0.2-0.1-0.3l-0.8-0.4c-0.1-0.1-0.2,0-0.3,0.1l-5.3,9.9L254.3,466.4z"/>
			<path class="st12" d="M248.7,474.2l-3.6,6.7c-0.1,0.2,0,0.4,0.2,0.5l0.1,0c0.1,0,0.1,0.1,0.2,0.1c0.1,0,0.3-0.1,0.4-0.2l5.7-10
				c0,0,0,0,0-0.1L248.7,474.2z"/>
		</g>
	</g>
	<g id="coffee">
		<circle class="st13" cx="356.5" cy="67.4" r="19.5"/>
		<path class="st14" d="M366.8,69.7c-0.8,0.5-1.7,0.6-2.5,0.5c-0.1,0.3-0.2,0.5-0.4,0.7c1.7,0.6,2.7,1.4,2.7,2.2
			c0,1.8-4.6,3.3-10.3,3.3c-5.7,0-10.3-1.5-10.3-3.3c0-0.9,1-1.6,2.7-2.2c-1.3-2.4-2.1-5.4-2.2-8.7h0c0,0,0,0,0,0
			c0-0.8,2.7-1.5,6.4-1.8c0.1,0.2,0.3,0.3,0.4,0.4c-3.3,0.2-5.7,0.8-5.7,1.5c0,0.9,3.8,1.6,8.5,1.6c4.7,0,8.5-0.7,8.5-1.6
			c0-0.7-2.5-1.3-5.9-1.6c0.1-0.1,0.1-0.3,0.2-0.4c4.1,0.2,7.1,0.9,7.1,1.8c0,0,0,0.1,0,0.1c0,0.6-0.1,1.2-0.1,1.7
			c1.1-0.1,2.1,0.4,2.6,1.3C369.3,66.8,368.6,68.7,366.8,69.7z M350.1,64.8c-1,0-2-0.4-2-0.4c0.4,6.6,3.2,5.8,3.2,5.8
			C350.5,69.8,350.1,64.8,350.1,64.8z M362.7,72.8C362.6,72.8,362.6,72.8,362.7,72.8c-0.7,0.9-3.3,1.6-6.4,1.6
			c-3.2,0-5.9-0.7-6.4-1.7c-0.1,0.1-0.1,0.3-0.1,0.4c0,1.1,2.9,2.1,6.5,2.1c3.6,0,6.5-0.9,6.5-2.1C362.7,73,362.7,72.9,362.7,72.8z
			 M364.5,69.1L364.5,69.1c0,0,0.1,0,0.1,0L364.5,69.1z M367.4,66.1c-0.3-0.5-0.9-0.8-1.5-0.8c0,0.2-0.5,2.7-1,3.8
			c0.4,0,0.9-0.1,1.3-0.4C367.3,68.2,367.9,67,367.4,66.1z M358.8,60.2c-0.2,0.3-0.4,1-0.4,1l0,0c-0.5,1.5,0.5,2,0.8,2.1
			c-0.4-0.1-2.6-0.8-2.6-2.2l0,0c0,0,0,0,0,0c0-0.1,0-0.2,0-0.2c0,0,0,0,0,0c0-0.2,0.1-0.3,0.2-0.4c0,0,0,0,0,0c0,0,0,0,0-0.1
			c0.1-0.1,0.1-0.2,0.1-0.2c0,0,0,0,0,0l0,0c0.1-0.2,0.3-0.4,0.6-0.6c2.7-2.6,1.6-3.1,0.9-3.8c0,0,3.1,0.5,0.9,3.8
			C359.1,59.8,358.9,60,358.8,60.2z M359.2,63.3C359.2,63.3,359.3,63.3,359.2,63.3C359.3,63.3,359.2,63.3,359.2,63.3z M356.4,60.8
			c-0.1,0-0.1,0-0.2,0c-0.3,0-0.5,0-0.8,0c0-0.1,0-0.3,0-0.4c0.3,0,0.7,0,1,0c0,0,0.1,0,0.1,0C356.4,60.7,356.4,60.8,356.4,60.8
			L356.4,60.8z M356.8,57.4c-1.1,1.1-1.6,2-1.7,2.7l0,0c0,0,0,0.4,0,0.6c0,0,0,0,0,0c0,0,0,0,0,0c0,0.1,0,0.1,0.1,0.2
			c0.3,1.1,1.6,1.6,1.6,1.6s-1.9-0.6-3-1.7c0,0,0,0,0,0c-0.2-0.2-0.4-0.5-0.4-0.5l0,0c-0.5-0.8-0.4-1.8,1-2.9c4-3.1,2-4.1,1.2-5.1
			C355.7,52.3,360.7,53.7,356.8,57.4z"/>
	</g>
	<g id="mezze">
		<circle class="st15" cx="611.2" cy="361.3" r="19.5"/>
		<g>
			<path class="st7" d="M608.6,361.7c-0.4-0.2-0.9,0-1.3,0.2c-2.5,1.4-5.1,2.9-8,3.4c-0.2,0-0.4,0.1-0.5,0.3
				c-0.1,0.2,0.1,0.4,0.2,0.5c0.8,0.8,1.6,1.5,2.4,2.3c0.5,0.4,0.9,0.9,1.3,1.4c0.3,0.4,0.5,0.8,0.8,1.2c0.4,0.4,0.8,0.7,1.3,1.1
				c0.4,0.4,0.8,0.8,1.3,0.7c0.5-0.2,0.6-0.8,0.7-1.3c0.3-2.7,1.5-5.2,2.3-7.7c0.1-0.4,0.3-0.8,0.2-1.3S609,361.7,608.6,361.7
				L608.6,361.7z"/>
		</g>
		<g>
			<g>
				<path class="st16" d="M599.1,365.7c0.7,0.9,1.6,1.5,2.7,1.7c0.7,0.1,1.4,0.1,2.1,0c1-0.1,2.5-0.8,3.4-0.5
					c0.2,0.1,0.3-0.3,0.1-0.4c-1-0.4-2,0.2-3.1,0.4c-1.9,0.3-3.7,0.1-4.9-1.5C599.2,365.2,598.9,365.5,599.1,365.7L599.1,365.7z"/>
			</g>
		</g>
		<g>
			<g>
				<path class="st16" d="M605.7,371.9c-0.3-0.7-0.1-1.2,0.4-1.4c0.2-0.1,0.2-0.3,0.1-0.4c-0.3-0.7,0.1-0.9,0.6-1.2
					c0.2-0.1,0.2-0.3,0.1-0.4c-0.2-0.5,0.3-0.8,0.6-1.1c0.1-0.1,0.1-0.3,0.1-0.4c-0.2-0.4-0.2-0.7,0.2-1c0.1-0.1,0.1-0.3,0.1-0.4
					c0,0,1.1-3.3,0.9-3.1c0.3-0.2,0-0.8-0.3-0.6c-0.5,0.4-0.9,0.7-1,1.4c0,0.4,0.2,0.5,0.1,0.9c0,0.2-0.4,0.3-0.4,0.5
					c-0.1,0.3,0.1,0.7,0,0.9c0,0.1-0.3,0.2-0.3,0.3c-0.1,0.4,0,1.1-0.1,1.3c-0.1,0.3-0.4,0.5-0.6,0.8c-0.1,0.1,0.1,0.5,0.1,0.5
					c-0.2,0.3-0.9,0.4-1,1c0,0.2,0.2,0.4,0.2,0.6c0,0-0.3,0.2-0.3,0.3c-0.2,0.7-0.4,1,0.1,1.8C605.4,372.5,605.9,372.2,605.7,371.9
					L605.7,371.9z"/>
			</g>
		</g>
		<g>
			<g>
				<path class="st16" d="M606.8,366.5c-0.9,1.6-2.2,3.4-2,5.4c0.2-0.1,0.4-0.1,0.6-0.2c-0.8-1.8-1.9-3.6-3.5-4.8
					c-0.4-0.2-0.7,0.3-0.3,0.6c1.5,1.1,2.5,2.8,3.3,4.5c0.1,0.3,0.7,0.2,0.6-0.2c-0.2-1.8,1.1-3.5,1.9-5.1
					C607.6,366.5,607,366.2,606.8,366.5L606.8,366.5z"/>
			</g>
		</g>
		<g>
			<path class="st7" d="M618.3,375c0.5,0,0.8-0.5,1.1-0.8c1.6-2.4,3.1-5,5.4-6.7c0.2-0.1,0.3-0.3,0.3-0.5c0-0.2-0.3-0.3-0.5-0.4
				c-1.1-0.3-2.1-0.6-3.2-0.9c-0.6-0.2-1.2-0.3-1.8-0.6c-0.4-0.2-0.8-0.5-1.3-0.7c-0.5-0.2-1.1-0.3-1.6-0.4c-0.5-0.1-1.1-0.4-1.5,0
				c-0.4,0.4-0.2,1,0,1.5c1,2.5,1.1,5.3,1.6,7.9c0.1,0.4,0.2,0.9,0.4,1.2C617.5,375,618,375.2,618.3,375L618.3,375z"/>
		</g>
		<g>
			<g>
				<path class="st16" d="M624.9,367.1c-1.2-0.5-2.4-0.6-3.6,0c-0.7,0.3-1.4,0.8-2,1.2c-0.6,0.5-1.3,1.5-2.2,1.6
					c-0.3,0-0.3,0.4,0,0.4c0.9,0,1.3-0.7,1.9-1.2c1.6-1.4,3.6-2.5,5.7-1.6C624.9,367.5,625.1,367.2,624.9,367.1L624.9,367.1z"/>
			</g>
		</g>
		<g>
			<g>
				<path class="st16" d="M616.1,364.7c0.6,0.5,0.7,1,0.3,1.4c-0.1,0.2,0,0.3,0.1,0.4c0.6,0.4,0.3,0.8,0,1.4
					c-0.1,0.1-0.1,0.3,0.1,0.4c0.4,0.4,0.2,0.8,0,1.3c0,0.1,0,0.2,0.1,0.3c0.3,0.3,0.6,0.5,0.4,1.1c-0.1,0.1,0,0.3,0.1,0.4
					c0,0,0.6,3.4,0.7,3.2c-0.2,0.4,0.4,0.7,0.6,0.3c0.3-0.7,0.5-1,0.2-1.7c-0.2-0.5-0.3-0.2-0.4-0.8c0-0.1,0.1-0.8,0-1
					c0-0.2-0.4-0.3-0.4-0.4c0-0.3,0.3-0.4,0.2-0.8c0-0.2-0.3-0.4-0.4-0.5c-0.1-0.4,0,0.3-0.1-0.5c0,0,0.1-0.6,0.1-0.8
					c0,0-0.3-0.5-0.3-0.4c0.1-0.6,0.5-0.7,0.4-1.4c0-0.2-0.4-0.3-0.5-0.4c0,0.2,0.2-0.4,0.2-0.5c-0.2-0.7-0.2-1-0.9-1.5
					C616.1,363.9,615.7,364.5,616.1,364.7L616.1,364.7z"/>
			</g>
		</g>
		<g>
			<g>
				<path class="st16" d="M617.6,369.9c0-1.9,0.4-4.1-0.8-5.7c-0.2,0.1-0.4,0.3-0.5,0.4c1.6,1.3,3.4,2.4,5.4,2.6
					c0.4,0,0.4-0.6,0-0.7c-1.8-0.2-3.5-1.3-4.9-2.4c-0.3-0.2-0.8,0.1-0.5,0.4c1,1.5,0.7,3.6,0.7,5.4
					C616.9,370.3,617.6,370.3,617.6,369.9L617.6,369.9z"/>
			</g>
		</g>
		<g>
			<path class="st7" d="M613.5,358.1c0.3,0.3,0.9,0.3,1.3,0.2c2.8-0.5,5.7-1.2,8.6-0.8c0.2,0,0.4,0.1,0.6-0.1c0.1-0.2,0-0.4-0.1-0.6
				c-0.5-1-1.1-1.9-1.6-2.9c-0.3-0.6-0.6-1.1-0.8-1.8c-0.1-0.5-0.2-1-0.4-1.4c-0.2-0.5-0.6-1-0.8-1.5c-0.3-0.5-0.5-1.1-1.1-1.1
				c-0.5,0-0.8,0.6-1.1,1.1c-1.1,2.5-3,4.5-4.6,6.6c-0.3,0.3-0.5,0.7-0.6,1.1S613.2,358,613.5,358.1L613.5,358.1z"/>
		</g>
		<g>
			<g>
				<path class="st16" d="M623.8,357.3c-0.4-1.2-1.2-2.1-2.4-2.6c-0.7-0.3-1.4-0.4-2.1-0.6c-0.8-0.1-2.2,0.1-2.9-0.5
					c-0.2-0.2-0.5,0.1-0.3,0.3c0.6,0.6,1.4,0.4,2.3,0.5c2.1,0.2,4.2,0.8,5,3C623.5,357.6,623.9,357.5,623.8,357.3L623.8,357.3z"/>
			</g>
		</g>
		<g>
			<g>
				<path class="st16" d="M619.4,349.4c0,0.8-0.2,1.2-0.8,1.2c-0.2,0-0.2,0.2-0.2,0.4c0.1,0.7-0.4,0.8-1,0.9c-0.1,0-0.2,0.2-0.2,0.3
					c0.1,0.6-0.4,0.7-0.9,0.9c-0.1,0-0.2,0.2-0.2,0.3c0,0.4-0.1,0.8-0.4,1c-0.1,0.1-0.2,0.2-0.2,0.3c0,0.6-0.5,0.7-0.9,1.1
					c-0.5,0.5,0.4,1.3-0.9,1.7c-0.4,0.1-0.2,0.7,0.2,0.6c0.6-0.2,1.1-0.4,1.3-1c0.2-0.4-0.1-0.5,0.2-0.9c0.2-0.3,0.6-0.2,0.7-0.7
					c0.1-0.2-0.1-0.5,0-0.6c0.1-0.1-0.1,0-0.1,0.1c0,0,0.4-0.1,0.5-0.2c0.6-0.4,0.1-0.8,0.4-1.2c0.1-0.2,0.7-0.2,0.9-0.5
					c0.1-0.1,0.1-0.4,0.2-0.5c0.1-0.2,1-0.2,1.2-0.7c0.1-0.2,0-0.5,0-0.6c0-0.1,0.2,0,0.4-0.2c0.5-0.6,0.7-0.9,0.5-1.8
					C619.9,348.8,619.3,349,619.4,349.4L619.4,349.4z"/>
			</g>
		</g>
		<g>
			<g>
				<path class="st16" d="M616.7,354c1.4-1.3,3.2-2.6,3.6-4.5c-0.2,0-0.4-0.1-0.7-0.1c0.2,2,0.6,4,1.8,5.6c0.3,0.3,0.8,0,0.6-0.3
					c-1.1-1.5-1.6-3.5-1.8-5.3c0-0.3-0.6-0.5-0.7-0.1c-0.4,1.8-2.1,3-3.4,4.2C615.9,353.9,616.4,354.3,616.7,354L616.7,354z"/>
			</g>
		</g>
		<g>
			<path class="st7" d="M611.2,358.2c0.4-0.2,0.5-0.8,0.6-1.2c0.4-2.9,0.6-5.8,2-8.4c0.1-0.2,0.2-0.4,0.1-0.6
				c-0.1-0.2-0.4-0.2-0.6-0.1c-1.1,0.2-2.2,0.4-3.3,0.6c-0.6,0.1-1.3,0.2-1.9,0.2c-0.5,0-1-0.1-1.5-0.1c-0.6,0-1.1,0.2-1.7,0.3
				c-0.5,0.1-1.2,0.2-1.4,0.7c-0.2,0.5,0.3,1,0.7,1.3c2,1.8,3.3,4.3,4.9,6.5c0.2,0.4,0.5,0.7,0.9,0.9
				C610.5,358.5,611,358.5,611.2,358.2L611.2,358.2z"/>
		</g>
		<g>
			<g>
				<path class="st16" d="M613.7,348.2c-1.4,0-2.5,0.6-3.3,1.6c-0.4,0.5-0.8,1.1-1.1,1.7c-0.4,0.7-0.6,2.2-1.4,2.6
					c-0.2,0.1,0,0.4,0.2,0.3c0.9-0.4,1.1-1.9,1.5-2.7c0.9-1.7,2.1-3.1,4.1-3.1C613.9,348.6,613.9,348.2,613.7,348.2L613.7,348.2z"/>
			</g>
		</g>
		<g>
			<g>
				<path class="st16" d="M604.8,349.8c0.7,0.2,1,0.6,0.8,1.2c0,0.1,0.1,0.3,0.2,0.3c0.7,0.1,0.7,0.6,0.6,1.3c0,0.1,0.1,0.3,0.2,0.3
					c0.5,0.1,0.5,0.6,0.6,1.1c0,0.1,0.1,0.3,0.2,0.3c0.4,0.1,0.8,0.3,0.8,0.7c0,0.1,0.1,0.3,0.2,0.3c0.6,0.2,0.4,0.9,0.8,1.2
					c0.5,0.4,1.3,0.4,1.3,1.4c0,0.4,0.6,0.4,0.6,0c0-0.7-0.1-1.2-0.6-1.6c-0.4-0.3-0.5-0.3-0.8-0.8c-0.1-0.2-0.2-0.5-0.4-0.7
					c-0.1-0.1-0.5,0-0.6-0.1c0.3,0.3,0.1-0.5,0-0.7c-0.2-0.3-0.4-0.2-0.6-0.5c-0.4-0.4,0.2,0.6-0.3-0.3c-0.1-0.2,0-0.5-0.2-0.7
					c-0.1-0.1-0.4-0.2-0.4-0.3c-0.1-0.1,0-0.3,0-0.7c0-0.3,0-0.5-0.2-0.7c-0.2-0.1-0.5-0.1-0.6-0.2c-0.1-0.1,0.1-0.3-0.1-0.4
					c-0.5-0.7-0.7-0.9-1.5-1C604.4,349.2,604.4,349.8,604.8,349.8L604.8,349.8z"/>
			</g>
		</g>
		<g>
			<g>
				<path class="st16" d="M608.3,353.9c-0.8-1.7-1.4-3.8-3.2-4.8c-0.1,0.2-0.2,0.4-0.3,0.6c1.9,0.4,4,0.7,5.9,0
					c0.4-0.1,0.2-0.8-0.2-0.6c-1.8,0.6-3.8,0.4-5.6,0c-0.4-0.1-0.6,0.4-0.3,0.6c1.6,0.9,2.2,3,2.9,4.6
					C607.9,354.6,608.5,354.2,608.3,353.9L608.3,353.9z"/>
			</g>
		</g>
		<g>
			<path class="st7" d="M608.6,359.5c0-0.5-0.4-0.8-0.8-1.1c-2.3-1.8-4.7-3.5-6.3-5.9c-0.1-0.2-0.2-0.4-0.4-0.3
				c-0.2,0-0.3,0.2-0.4,0.4c-0.4,1-0.7,2.1-1.1,3.1c-0.2,0.6-0.4,1.2-0.8,1.8c-0.3,0.4-0.6,0.8-0.8,1.2c-0.2,0.5-0.3,1.1-0.5,1.6
				c-0.2,0.5-0.4,1.1-0.1,1.5c0.3,0.4,1,0.2,1.5,0.1c2.6-0.8,5.3-0.7,8-1c0.4,0,0.9-0.1,1.2-0.3S608.8,359.8,608.6,359.5
				L608.6,359.5z"/>
		</g>
		<g>
			<g>
				<path class="st16" d="M601.1,352.4c-0.6,1.2-0.7,2.3-0.3,3.6c0.2,0.6,0.5,1.2,0.8,1.7c0.4,0.7,1.6,1.9,1.7,2.7
					c0,0.3,0.4,0.3,0.4,0c0-1.1-0.8-1.6-1.4-2.4c-1.1-1.6-1.8-3.4-0.8-5.3C601.6,352.4,601.3,352.2,601.1,352.4L601.1,352.4z"/>
			</g>
		</g>
		<g>
			<g>
				<path class="st16" d="M598.2,361c0.6-0.5,1-0.6,1.4-0.1c0.1,0.1,0.3,0.1,0.4-0.1c0.5-0.6,0.8-0.3,1.4,0.1c0.1,0.1,0.3,0,0.4-0.1
					c0.4-0.4-0.1-0.6,1.2,0.1c0.1,0.1,0.3,0.1,0.4-0.1c0.2-0.3,0.6-0.5,1-0.3c0.2,0.1,0.3,0,0.4-0.1c0.2-0.3,1.1,0,1.5,0
					c0.9-0.1-0.2-1.4,1.7-0.4c0.4,0.2,0.7-0.4,0.3-0.6c-0.7-0.4-1-0.5-1.7-0.3c-0.7,0.2-1.1,0.2-1.9,0.3c-0.1,0-0.6,0.5-0.2,0.4
					c-0.3,0.1-0.5-0.4-0.9-0.3c-0.6,0.1-0.5,0.4-1,0.4c0.2,0-0.7-0.1-0.8-0.1c0,0-0.5,0.3-0.4,0.3c-0.6-0.1-0.7-0.6-1.4-0.6
					c-0.2,0-0.3,0.4-0.4,0.4c0.1,0-0.3-0.3-0.5-0.3c-0.8,0.1-1.1,0.2-1.5,0.8C597.4,361,597.9,361.3,598.2,361L598.2,361z"/>
			</g>
		</g>
		<g>
			<g>
				<path class="st16" d="M603.4,359.9c-1.9-0.2-4-0.7-5.8,0.4c0.1,0.2,0.3,0.4,0.4,0.5c1.3-1.4,2.6-3.2,3-5.1
					c0.1-0.4-0.6-0.6-0.6-0.2c-0.3,1.8-1.5,3.5-2.8,4.8c-0.3,0.3,0.1,0.7,0.4,0.5c1.6-0.9,3.7-0.4,5.4-0.3
					C603.8,360.6,603.8,359.9,603.4,359.9L603.4,359.9z"/>
			</g>
		</g>
		<circle class="st17" cx="611.2" cy="361" r="16.9"/>
	</g>
</g>
</svg>
