<?xml version="1.0" encoding="utf-8"?>
<!-- Generator: Adobe Illustrator 21.1.0, SVG Export Plug-In . SVG Version: 6.00 Build 0)  -->
<svg version="1.1" id="Layer_1" xmlns="http://www.w3.org/2000/svg" xmlns:xlink="http://www.w3.org/1999/xlink" x="0px" y="0px"
	 viewBox="0 0 926.1 640.4" style="enable-background:new 0 0 926.1 640.4;" xml:space="preserve">
<style type="text/css">
	.st0{fill:#000411;stroke:#FFFFFF;stroke-width:2.05;stroke-miterlimit:10;}
	.st1{fill:none;stroke:#FFFFFF;stroke-width:2.05;stroke-miterlimit:10;}
	.st2{fill:#FFFFFF;stroke:#FFFFFF;stroke-width:0.26;stroke-miterlimit:10;}
	.st3{fill:none;stroke:#FCFDFF;stroke-width:2.05;stroke-miterlimit:10;}
	.st4{fill:none;stroke:#F9F9F9;stroke-width:2.05;stroke-miterlimit:10;}
	.st5{fill:none;stroke:#FFFFFF;stroke-width:3.07;stroke-miterlimit:10;}
</style>
<title>Asset 2</title>
<g id="first_floor_map">
	<rect x="77.1" y="506.9" class="st0" width="300.8" height="72.4"/>
	<polygon class="st0" points="77.1,579.3 49.1,579.3 28.2,560.8 28.2,506.9 77.1,506.9 	"/>
	<rect x="28.2" y="461" class="st0" width="20" height="33.1"/>
	<polygon class="st0" points="703.4,106.5 718.2,121.3 681.4,158.1 658.5,135.2 647.6,124.5 622.1,98.9 385.6,97.5 385.6,57.4 
		708.3,57.4 730.5,79.5 	"/>
	<polygon class="st0" points="909.7,259.2 879.5,289.3 838.4,248.2 833,253.7 852.2,272.7 824.7,300.7 799.4,276.2 757.8,234.5 
		734.3,211.1 681.4,158.2 718.2,121.3 703.4,106.5 730.5,79.5 	"/>
	
		<rect x="613.8" y="450.4" transform="matrix(0.7071 -0.7071 0.7071 0.7071 -120.523 627.3387)" class="st0" width="166.5" height="17.5"/>
	<polygon class="st0" points="815.7,311.7 681.4,448.2 618.7,386.4 671,334.1 648.3,311.4 648.3,280.9 664.1,280.7 680.1,296.9 
		740.9,236.6 	"/>
	<polygon class="st0" points="684.8,183.3 632.5,235.7 620.8,235.7 620.8,294.7 589.2,294.7 589.2,392.8 563.2,399.2 563.2,420 
		460.4,420 460.4,399.5 434.6,392.5 434.6,294.7 402.5,294.7 402.5,235.5 391.8,235.5 315.1,158.9 360.9,113.1 614.6,113.1 	"/>
	<polygon class="st0" points="400.2,378.1 309,469.3 156.3,316.9 278.7,194.5 301,172.4 322.5,193.5 336.1,207.1 377.6,248.6 
		359.8,266.5 324,302.2 333.1,311.1 362.6,281.2 378.8,281.2 377.7,310.4 355.1,333 	"/>
	<polyline class="st0" points="147.6,325.4 232.9,411.1 197.5,446.5 197.5,494.1 84.2,494.1 84.2,387.2 	"/>
	<rect x="51.6" y="461" class="st0" width="19.9" height="33.1"/>
	<rect x="48.1" y="421.1" class="st0" width="23.4" height="35.3"/>
	<rect x="28.2" y="384.9" class="st0" width="20" height="76.1"/>
	<rect x="54.3" y="377.7" class="st0" width="17.3" height="36"/>
	
		<rect x="67.5" y="312.1" transform="matrix(0.7072 -0.707 0.707 0.7072 -218.1106 152.8429)" class="st0" width="15.9" height="55.3"/>
	
		<rect x="40.5" y="339.8" transform="matrix(0.7071 -0.7071 0.7071 0.7071 -231.3484 141.0866)" class="st0" width="28.3" height="20"/>
	
		<rect x="33.6" y="285.3" transform="matrix(0.7071 -0.7071 0.7071 0.7071 -185.2182 137.7507)" class="st0" width="80.1" height="14.3"/>
	
		<rect x="90.2" y="306.5" transform="matrix(0.7071 -0.7071 0.7071 0.7071 -198.1183 169.3633)" class="st0" width="30.3" height="34.7"/>
	
		<rect x="67" y="348.9" transform="matrix(0.7072 -0.707 0.707 0.7072 -233.6372 158.7656)" class="st0" width="15.8" height="25.1"/>
	<rect x="272.3" y="95.8" transform="matrix(0.7071 -0.7071 0.7071 0.7071 8.7282 252.621)" class="st0" width="74" height="40"/>
	
		<rect x="96.5" y="188.9" transform="matrix(0.7071 -0.7071 0.7071 0.7071 -104.8659 193.5827)" class="st0" width="169.5" height="68.9"/>
	
		<rect x="244.8" y="137.8" transform="matrix(0.7071 -0.7071 0.7071 0.7071 -33.2717 235.1949)" class="st0" width="44.9" height="40"/>
	<rect x="473.6" y="455.3" class="st0" width="78.4" height="30.6"/>
	<polygon class="st0" points="462,485.8 414.4,545.4 391.7,528 439.7,468 	"/>
	
		<rect x="589.6" y="465" transform="matrix(0.7071 -0.7071 0.7071 0.7071 -180.7143 575.8084)" class="st0" width="30.2" height="82.1"/>
	<polygon class="st0" points="413.8,546.1 388.6,579.3 377.9,579.3 377.9,528.8 391.3,528.8 	"/>
	<polyline class="st0" points="473.3,455.3 449.2,455.3 440.2,467.4 463.1,485.8 473.3,485.8 	"/>
	<polyline class="st0" points="552.3,485.8 552.3,455.3 576.3,455.3 585.8,465.8 564.5,487.1 563.2,485.8 	"/>
	
		<rect x="652.2" y="217.3" transform="matrix(0.7071 -0.7071 0.7071 0.7071 32.8968 558.0594)" class="st0" width="75.8" height="44"/>
	<polygon class="st0" points="864.1,304.7 762.2,406.5 749.9,394.1 851.6,292.3 	"/>
	
		<rect x="113.1" y="267.2" transform="matrix(0.7072 -0.707 0.707 0.7072 -172.5879 171.6724)" class="st0" width="15.8" height="54"/>
	<line class="st1" x1="96.2" y1="280.7" x2="107.4" y2="269.5"/>
	<polygon class="st0" points="48.2,370.6 48.1,384.9 28.2,384.9 28.2,361.5 37.6,352.8 51.8,367 	"/>
	<polyline class="st0" points="205.5,494.2 205.5,450.3 247.7,408.1 247.7,408.1 263.8,424.2 229,459.1 229,494.2 	"/>
	<path class="st2" d="M654.6,183.8l-1.1,0.4l-0.1-0.3l1.3-0.5h0.3v5.7h-0.4V183.8z"/>
	<path class="st2" d="M657.1,188.6c-0.6-0.6-0.8-1.4-0.7-2.2l0,0c0-1.7,0.9-3.1,2.3-3.1c0.6,0,1.2,0.2,1.6,0.7l-0.3,0.3
		c-0.4-0.4-0.9-0.6-1.4-0.6c-1.1,0-1.9,1.2-1.9,2.8v0.2c0.3-0.7,1-1.1,1.8-1.1c1-0.1,1.9,0.7,2,1.7c0,0,0,0,0,0.1l0,0
		c0,1-0.9,1.9-1.9,1.9h-0.1C658,189.2,657.5,189,657.1,188.6z M660.1,187.3L660.1,187.3c0-0.8-0.7-1.4-1.5-1.4h-0.1
		c-0.8,0-1.5,0.6-1.6,1.4l0,0c0,0.8,0.7,1.5,1.5,1.4c0,0,0,0,0.1,0C659.4,188.8,660.1,188.2,660.1,187.3
		C660.1,187.4,660.1,187.3,660.1,187.3L660.1,187.3z"/>
	<path class="st2" d="M662.3,183.8l-1.1,0.4l-0.1-0.3l1.3-0.5h0.3v5.7h-0.4V183.8z"/>
	<path class="st2" d="M739.2,155.1l-1.1,0.4l-0.1-0.3l1.3-0.5h0.3v5.7h-0.4V155.1z"/>
	<path class="st2" d="M741.7,159.9c-0.6-0.6-0.8-1.4-0.7-2.2l0,0c0-1.7,0.9-3.1,2.3-3.1c0.6,0,1.2,0.2,1.6,0.7l-0.3,0.3
		c-0.4-0.4-0.9-0.6-1.4-0.6c-1.1,0-1.9,1.2-1.9,2.8v0.2c0.4-0.7,1-1.1,1.8-1.1c1-0.1,1.9,0.7,2,1.7c0,0,0,0,0,0.1l0,0
		c0,1-0.9,1.9-1.9,1.9h-0.1C742.6,160.4,742.1,160.2,741.7,159.9z M744.7,158.6L744.7,158.6c0-0.8-0.7-1.4-1.5-1.4h-0.1
		c-0.8,0-1.5,0.6-1.6,1.4l0,0c0,0.8,0.7,1.5,1.5,1.4c0,0,0,0,0.1,0C744,160.1,744.6,159.5,744.7,158.6L744.7,158.6z"/>
	<path class="st2" d="M746.1,159.5l0.3-0.3c0.4,0.5,1,0.8,1.7,0.8c0.8,0,1.5-0.6,1.5-1.3v-0.1l0,0c0-0.8-0.7-1.4-1.4-1.4h-0.1
		c-0.5,0-0.9,0.1-1.3,0.4l-0.3-0.2l0.2-2.8h3.2v0.4H747l-0.1,2.1c0.4-0.2,0.8-0.3,1.3-0.3c1-0.1,1.9,0.6,1.9,1.6v0.1l0,0
		c0,1-0.8,1.8-1.8,1.8c-0.1,0-0.1,0-0.2,0C747.3,160.4,746.6,160.1,746.1,159.5z"/>
	<path class="st2" d="M806.1,223.8l-1.1,0.4l-0.1-0.3l1.3-0.5h0.3v5.7h-0.4V223.8z"/>
	<path class="st2" d="M811.2,223.8h-3.3v-0.4h3.8v0.3l-2.6,5.4h-0.5L811.2,223.8z"/>
	<path class="st2" d="M815,227.7h-3l-0.1-0.3l3.2-4h0.4v4h0.9v0.4h-0.9v1.4H815V227.7z M815,227.3v-3.4l-2.7,3.3L815,227.3z"/>
	<path class="st2" d="M835.9,312.2l-1.1,0.4l-0.1-0.3l1.3-0.5h0.3v5.7h-0.4V312.2z"/>
	<path class="st2" d="M841,312.2h-3.3v-0.4h3.8v0.3l-2.6,5.4h-0.5L841,312.2z"/>
	<path class="st2" d="M843,317c-0.6-0.6-0.8-1.4-0.7-2.2l0,0c0-1.7,0.9-3.1,2.3-3.1c0.6,0,1.2,0.2,1.6,0.7l-0.3,0.3
		c-0.4-0.4-0.9-0.6-1.4-0.6c-1.1,0-1.9,1.2-1.9,2.8v0.2c0.4-0.7,1-1.1,1.8-1c1-0.1,1.9,0.7,2,1.7c0,0,0,0,0,0.1l0,0
		c0,1-0.9,1.9-1.9,1.9h-0.1C843.9,317.6,843.4,317.4,843,317z M846,315.8L846,315.8c0-0.8-0.7-1.4-1.5-1.4h-0.1
		c-0.8,0-1.5,0.6-1.6,1.4l0,0c0,0.8,0.7,1.5,1.5,1.4c0,0,0,0,0.1,0C845.3,317.3,846,316.6,846,315.8L846,315.8z"/>
	<path class="st2" d="M801.7,347l-1.1,0.4l-0.1-0.3l1.3-0.5h0.3v5.7h-0.4V347z"/>
	<path class="st2" d="M806.8,347h-3.3v-0.4h3.8v0.3l-2.6,5.4h-0.5L806.8,347z"/>
	<path class="st2" d="M811.6,347h-3.3v-0.4h3.8v0.3l-2.6,5.4H809L811.6,347z"/>
	<path class="st2" d="M769,379.6l-1.1,0.4l-0.1-0.3l1.3-0.5h0.3v5.7H769V379.6z"/>
	<path class="st2" d="M774.1,379.6h-3.3v-0.4h3.8v0.3l-2.6,5.4h-0.5L774.1,379.6z"/>
	<path class="st2" d="M775.4,383.3L775.4,383.3c0.1-0.7,0.6-1.3,1.3-1.4c-0.6-0.2-1-0.7-1.1-1.3l0,0c0-0.9,0.9-1.5,1.9-1.5
		s1.9,0.6,1.9,1.5l0,0c0,0.6-0.5,1.1-1.1,1.3c0.7,0.1,1.2,0.7,1.3,1.4l0,0c0,0.9-0.9,1.6-2.1,1.6S775.4,384.3,775.4,383.3z
		 M779.2,383.3L779.2,383.3c0-0.7-0.8-1.2-1.7-1.2s-1.7,0.5-1.7,1.2l0,0c0,0.6,0.6,1.2,1.7,1.2S779.2,384,779.2,383.3L779.2,383.3z
		 M779,380.5L779,380.5c0-0.6-0.7-1.1-1.5-1.1s-1.5,0.5-1.5,1.1l0,0c0.1,0.8,0.9,1.4,1.7,1.3C778.4,381.7,778.9,381.2,779,380.5
		L779,380.5z"/>
	<path class="st2" d="M717.8,431.4l-1.1,0.4l-0.1-0.3l1.3-0.5h0.3v5.7h-0.4V431.4z"/>
	<path class="st2" d="M722.9,431.4h-3.3V431h3.8v0.3l-2.6,5.4h-0.5L722.9,431.4z"/>
	<path class="st2" d="M727.9,433.7v-0.2c-0.3,0.7-1,1.1-1.8,1.1c-1,0.1-1.9-0.6-2-1.6v-0.1l0,0c0-1.1,0.9-1.9,1.9-1.9h0.1
		c0.5,0,1.1,0.2,1.4,0.6c0.5,0.6,0.8,1.4,0.7,2.2l0,0c0,1.8-1,3.1-2.3,3.1c-0.6,0-1.2-0.3-1.7-0.7l0.3-0.3c0.4,0.4,0.9,0.6,1.5,0.6
		C727.2,436.4,727.9,435.2,727.9,433.7z M727.8,432.7L727.8,432.7c0-0.8-0.7-1.5-1.6-1.4c0,0,0,0-0.1,0c-0.8,0-1.5,0.6-1.5,1.4v0.1
		l0,0c0,0.8,0.7,1.4,1.5,1.4h0.1C727,434.2,727.7,433.6,727.8,432.7C727.7,432.7,727.7,432.7,727.8,432.7L727.8,432.7z"/>
	<path class="st2" d="M164.5,551.5l-1.1,0.4l-0.1-0.3l1.3-0.5h0.3v5.7h-0.4V551.5z"/>
	<path class="st2" d="M167.2,551.5l-1.1,0.4l-0.1-0.3l1.3-0.5h0.3v5.7h-0.4V551.5L167.2,551.5z"/>
	<path class="st2" d="M168.9,556.5l2.1-1.9c0.9-0.8,1.3-1.3,1.3-1.9c0-0.7-0.6-1.2-1.2-1.2l0,0c-0.7,0-1.3,0.4-1.7,1l-0.4-0.2
		c0.4-0.8,1.2-1.2,2-1.2c0.9-0.1,1.6,0.6,1.7,1.5c0,0,0,0,0,0.1l0,0c0,0.8-0.4,1.3-1.4,2.2l-1.7,1.6h3.2v0.4h-3.9L168.9,556.5z"/>
	<path class="st2" d="M103.6,551.7l-1.1,0.4l-0.1-0.3l1.3-0.5h0.3v5.7h-0.4C103.6,557,103.6,551.7,103.6,551.7z"/>
	<path class="st2" d="M106.3,551.7l-1.1,0.4l-0.1-0.3l1.3-0.5h0.3v5.7h-0.4L106.3,551.7z"/>
	<path class="st2" d="M108.8,556.5c-0.6-0.6-0.8-1.4-0.7-2.2l0,0c0-1.7,0.9-3.1,2.3-3.1c0.6,0,1.2,0.2,1.6,0.7l-0.3,0.3
		c-0.4-0.4-0.9-0.6-1.4-0.6c-1.1,0-1.9,1.2-1.9,2.8v0.2c0.4-0.7,1-1.1,1.8-1c1-0.1,1.9,0.7,2,1.7c0,0,0,0,0,0.1l0,0
		c0,1-0.9,1.9-1.9,1.9h-0.1C109.8,557.1,109.2,556.9,108.8,556.5z M111.8,555.2L111.8,555.2c0-0.8-0.7-1.4-1.5-1.4h-0.1
		c-0.8,0-1.5,0.6-1.6,1.4l0,0c0,0.8,0.7,1.5,1.5,1.4c0,0,0,0,0.1,0C111.1,556.8,111.8,556.1,111.8,555.2
		C111.8,555.3,111.8,555.3,111.8,555.2L111.8,555.2z"/>
	<path class="st2" d="M52.2,551.5l-1.1,0.4l-0.1-0.3l1.3-0.5h0.3v5.7h-0.4V551.5z"/>
	<path class="st2" d="M55,551.5l-1.1,0.4l-0.1-0.3l1.3-0.5h0.3v5.7H55V551.5z"/>
	<path class="st2" d="M56.7,555.3L56.7,555.3c0.1-0.7,0.6-1.3,1.3-1.4c-0.6-0.2-1-0.7-1.1-1.3l0,0c0-0.9,0.9-1.5,1.9-1.5
		s1.9,0.6,1.9,1.5l0,0c0,0.6-0.5,1.1-1.1,1.3c0.7,0.1,1.2,0.7,1.3,1.4l0,0c0,0.9-0.9,1.6-2.1,1.6S56.7,556.2,56.7,555.3z
		 M60.4,555.3L60.4,555.3c0-0.7-0.8-1.2-1.7-1.2s-1.7,0.5-1.7,1.2l0,0c0,0.6,0.6,1.2,1.7,1.2S60.4,555.9,60.4,555.3z M60.3,552.5
		L60.3,552.5c0-0.6-0.7-1.1-1.5-1.1s-1.5,0.5-1.5,1.1l0,0c0,0.7,0.7,1.2,1.5,1.2S60.3,553.2,60.3,552.5z"/>
	<path class="st2" d="M183,476.4l-1.1,0.4l-0.1-0.3l1.3-0.5h0.3v5.7H183V476.4z"/>
	<path class="st2" d="M185.7,476.4l-1.1,0.4l-0.1-0.3l1.3-0.5h0.3v5.7h-0.4V476.4z"/>
	<path class="st2" d="M188.4,476.4l-1.1,0.4l-0.1-0.3l1.3-0.5h0.3v5.7h-0.4V476.4z"/>
	<path class="st2" d="M101.5,420.1l-1.1,0.4l-0.1-0.3l1.3-0.5h0.3v5.7h-0.4L101.5,420.1z"/>
	<path class="st2" d="M103.2,425l2.1-1.9c0.9-0.9,1.3-1.3,1.3-1.9c0-0.7-0.6-1.2-1.2-1.2l0,0c-0.7,0-1.3,0.4-1.7,1l-0.3-0.2
		c0.4-0.8,1.2-1.2,2-1.2c0.9-0.1,1.6,0.6,1.7,1.5c0,0,0,0,0,0.1l0,0c0,0.8-0.4,1.3-1.4,2.2L104,425h3.2v0.4h-3.9L103.2,425z"/>
	<path class="st2" d="M110.9,423.9h-3.1l-0.1-0.3l3.2-4h0.4v4h0.9v0.4h-0.9v1.3h-0.4V423.9z M110.9,423.6v-3.4l-2.7,3.4H110.9z"/>
	<path class="st2" d="M125.3,364.1l-1.1,0.4l-0.1-0.3l1.3-0.5h0.3v5.7h-0.4L125.3,364.1z"/>
	<path class="st2" d="M130.2,368h-3.1l-0.1-0.3l3.2-4h0.4v4h0.9v0.4h-0.9v1.4h-0.4V368z M130.2,367.6v-3.3l-2.7,3.4L130.2,367.6z"/>
	<path class="st2" d="M132.3,369.1l2.1-1.9c0.9-0.9,1.3-1.3,1.3-1.9c0-0.7-0.6-1.2-1.2-1.2l0,0c-0.7,0-1.3,0.4-1.7,1l-0.3-0.2
		c0.4-0.8,1.2-1.2,2-1.2c0.9-0.1,1.6,0.6,1.7,1.5c0,0,0,0,0,0.1l0,0c0,0.8-0.4,1.3-1.4,2.2l-1.7,1.6h3.2v0.4h-3.9v-0.4H132.3z"/>
	<path class="st2" d="M157.4,386.7l-1.1,0.4l-0.1-0.3l1.3-0.5h0.3v5.7h-0.4V386.7z"/>
	<path class="st2" d="M162.2,390.6h-3.1l-0.1-0.3l3.2-4h0.4v4h0.9v0.4h-0.9v1.4h-0.4L162.2,390.6L162.2,390.6z M162.2,390.3v-3.4
		l-2.7,3.4H162.2z"/>
	<path class="st2" d="M164.5,391.1l0.3-0.3c0.4,0.6,1.1,0.9,1.8,0.9c0.7,0.1,1.3-0.5,1.4-1.2l0,0l0,0c0-0.8-0.8-1.2-1.8-1.2h-0.3
		l-0.1-0.2l2-2.2h-3v-0.6h3.6v0.3l-1.9,2.2c1.1,0.1,2,0.6,2,1.6l0,0c0,1-0.9,1.7-1.8,1.7l0,0C165.7,392.1,165,391.7,164.5,391.1z"/>
	<path class="st2" d="M161.5,237.8l-1.1,0.4l-0.1-0.3l1.3-0.5h0.3v5.7h-0.4V237.8z"/>
	<path class="st2" d="M166.4,241.7h-3.1l-0.1-0.3l3.2-4h0.4v4h0.9v0.4h-0.9v1.4h-0.4L166.4,241.7z M166.4,241.3v-3.4l-2.7,3.3
		L166.4,241.3z"/>
	<path class="st2" d="M171.7,241.7h-3.1l-0.1-0.3l3.2-4h0.4v4h0.9v0.4h-0.9v1.4h-0.4L171.7,241.7z M171.7,241.3v-3.4l-2.7,3.4H171.7
		z"/>
	<path class="st2" d="M220,178.2l-1.1,0.4l-0.1-0.3l1.3-0.5h0.3v5.7H220V178.2z"/>
	<path class="st2" d="M224.9,182.1h-3.1l-0.1-0.3l3.2-4h0.4v4h0.9v0.4h-0.9v1.4h-0.4L224.9,182.1L224.9,182.1z M224.9,181.8v-3.4
		l-2.7,3.4H224.9z"/>
	<path class="st2" d="M227.9,183c-0.6-0.6-0.8-1.4-0.7-2.2l0,0c0-1.7,0.9-3.1,2.3-3.1c0.6,0,1.2,0.2,1.6,0.7l-0.3,0.3
		c-0.4-0.4-0.9-0.6-1.4-0.6c-1.1,0-1.9,1.2-1.9,2.8v0.2c0.4-0.7,1-1.1,1.8-1.1c1-0.1,1.9,0.7,2,1.7c0,0,0,0,0,0.1l0,0
		c0,1-0.9,1.9-1.9,1.9h-0.1C228.9,183.6,228.3,183.4,227.9,183z M230.9,181.7L230.9,181.7c0-0.8-0.7-1.4-1.5-1.4h-0.1
		c-0.8,0-1.5,0.6-1.6,1.4l0,0c0,0.8,0.7,1.5,1.5,1.4c0,0,0,0,0.1,0C230.2,183.2,230.9,182.6,230.9,181.7
		C230.9,181.8,230.9,181.8,230.9,181.7L230.9,181.7z"/>
	<path class="st2" d="M310.3,107.9l-1.1,0.4l-0.1-0.3l1.3-0.5h0.3v5.7h-0.4L310.3,107.9z"/>
	<path class="st2" d="M312,112.3l0.3-0.3c0.4,0.5,1,0.8,1.7,0.8c0.8,0,1.5-0.6,1.5-1.3v-0.1l0,0c0-0.8-0.7-1.4-1.4-1.4H314
		c-0.5,0-0.9,0.1-1.3,0.4l-0.3-0.2l0.2-2.8h3.2v0.4H313l-0.1,2.1c0.4-0.2,0.8-0.3,1.3-0.3c1-0.1,1.9,0.6,1.9,1.6v0.1l0,0
		c0,1-0.8,1.8-1.8,1.8c-0.1,0-0.1,0-0.2,0C313.2,113.2,312.5,112.9,312,112.3z"/>
	<path class="st2" d="M316.9,112.2l0.3-0.3c0.4,0.6,1.1,0.9,1.8,0.9c0.7,0.1,1.3-0.5,1.4-1.2l0,0l0,0c0-0.8-0.8-1.2-1.8-1.2h-0.3
		l-0.1-0.2l2-2.3h-3v-0.4h3.5v0.3l-1.9,2.2c1.1,0.1,2,0.6,2,1.6l0,0c0,1-0.8,1.7-1.8,1.7l0,0C318.2,113.3,317.4,112.9,316.9,112.2z"
		/>
	<path class="st2" d="M407.5,74.7l-1.1,0.4l-0.1-0.3l1.3-0.5h0.3V80h-0.4L407.5,74.7z"/>
	<path class="st2" d="M409.2,79.1l0.3-0.3c0.4,0.5,1,0.8,1.7,0.8c0.8,0.1,1.5-0.6,1.5-1.3l0,0l0,0c0-0.8-0.7-1.4-1.4-1.4h-0.1
		c-0.5,0-0.9,0.1-1.3,0.4l-0.3-0.2l0.2-2.8h3.2v0.4h-2.8l-0.2,2.1c0.4-0.2,0.8-0.3,1.3-0.3c1-0.1,1.9,0.6,1.9,1.6v0.1l0,0
		c0,1-0.8,1.8-1.8,1.8c-0.1,0-0.1,0-0.2,0C410.5,80,409.8,79.7,409.2,79.1z"/>
	<path class="st2" d="M414.1,79.1l0.3-0.3c0.4,0.5,1,0.8,1.7,0.8c0.8,0.1,1.5-0.6,1.5-1.3l0,0l0,0c0-0.8-0.7-1.4-1.4-1.4h-0.1
		c-0.5,0-0.9,0.1-1.3,0.4l-0.3-0.2l0.2-2.8h3.2v0.4H415l-0.1,2.1c0.4-0.2,0.8-0.3,1.3-0.3c1-0.1,1.9,0.6,1.9,1.6v0.1l0,0
		c0,1-0.8,1.8-1.8,1.8c-0.1,0-0.1,0-0.2,0C415.3,80.1,414.6,79.7,414.1,79.1z"/>
	<path class="st2" d="M669.1,94.9l-1.1,0.4l-0.1-0.3l1.3-0.5h0.3v5.7h-0.4V94.9z"/>
	<path class="st2" d="M670.8,99.4l0.3-0.3c0.4,0.5,1,0.8,1.7,0.8c0.8,0,1.5-0.6,1.5-1.3v-0.1l0,0c0-0.8-0.7-1.4-1.4-1.4h-0.1
		c-0.5,0-0.9,0.1-1.3,0.4l-0.3-0.2l0.2-2.8h3.2v0.4h-2.8l-0.1,2.1c0.4-0.2,0.8-0.3,1.3-0.3c1-0.1,1.8,0.6,1.9,1.6v0.1l0,0
		c0,1-0.8,1.8-1.8,1.8c-0.1,0-0.1,0-0.2,0C672.1,100.2,671.4,99.9,670.8,99.4z"/>
	<path class="st2" d="M678.9,94.9h-3.3v-0.4h3.8v0.3l-2.6,5.4h-0.5L678.9,94.9z"/>
	<line class="st1" x1="280.9" y1="171.7" x2="253.1" y2="143.8"/>
	<line class="st3" x1="309.2" y1="144.2" x2="280.9" y2="115.9"/>
	<g>
		<path class="st2" d="M125.1,301l-1.1,0.4l-0.1-0.3l1.3-0.5h0.3v5.7h-0.4L125.1,301z"/>
		<path class="st2" d="M131.7,305.3l0.3-0.3c0.4,0.6,1.1,0.9,1.8,0.9c0.7,0.1,1.3-0.5,1.4-1.2l0,0l0,0c0-0.8-0.8-1.2-1.8-1.2h-0.3
			l-0.1-0.2l2-2.3h-3v-0.4h3.5v0.3l-1.9,2.2c1.1,0.1,2,0.6,2,1.6l0,0c0,1-0.8,1.7-1.8,1.7l0,0C133,306.4,132.2,306,131.7,305.3z"/>
		<path class="st2" d="M126.8,305.3l0.3-0.3c0.4,0.6,1.1,0.9,1.8,0.9c0.7,0.1,1.3-0.5,1.4-1.2l0,0l0,0c0-0.8-0.8-1.2-1.8-1.2h-0.3
			l-0.1-0.2l2-2.3h-3v-0.4h3.5v0.3l-1.9,2.2c1.1,0.1,2,0.6,2,1.6l0,0c0,1-0.8,1.7-1.8,1.7l0,0C128.1,306.4,127.3,306,126.8,305.3z"
			/>
	</g>
	<line class="st3" x1="440.3" y1="97.8" x2="440.3" y2="57.4"/>
	<line class="st3" x1="656.6" y1="319.7" x2="679.7" y2="296.6"/>
	<line class="st3" x1="712.4" y1="292.1" x2="698.8" y2="278.4"/>
	<line class="st3" x1="734.5" y1="270.3" x2="720.8" y2="256.5"/>
	<line class="st3" x1="754.3" y1="250.1" x2="670.6" y2="333.8"/>
	<line class="st3" x1="690" y1="166.8" x2="754.3" y2="102.5"/>
	<line class="st3" x1="829.3" y1="339.4" x2="816.9" y2="327"/>
	<line class="st3" x1="796.7" y1="372.1" x2="784.3" y2="359.7"/>
	<line class="st3" x1="741.9" y1="426.8" x2="729.5" y2="414.4"/>
	<line class="st3" x1="714.6" y1="454.4" x2="702.1" y2="441.9"/>
	<line class="st3" x1="682.3" y1="486.5" x2="669.9" y2="474.1"/>
	<line class="st3" x1="604.7" y1="527.3" x2="626.1" y2="505.9"/>
	<line class="st3" x1="590.6" y1="513.2" x2="612" y2="491.8"/>
	<line class="st3" x1="564.7" y1="487.3" x2="586.1" y2="465.9"/>
	<line class="st3" x1="552.1" y1="485.8" x2="552.1" y2="455.3"/>
	<line class="st3" x1="473.3" y1="485.8" x2="473.3" y2="455.3"/>
	<line class="st3" x1="462.2" y1="485.6" x2="440.1" y2="467.6"/>
	<line class="st3" x1="451.1" y1="499.4" x2="428.1" y2="482.5"/>
	<line class="st3" x1="440.2" y1="514.5" x2="416.9" y2="496.5"/>
	<line class="st3" x1="427.7" y1="528.8" x2="404.9" y2="511.5"/>
	<line class="st3" x1="358.3" y1="579.3" x2="358.3" y2="506.9"/>
	<line class="st3" x1="313.3" y1="579.3" x2="313.3" y2="505.8"/>
	<line class="st3" x1="226.6" y1="579.3" x2="226.6" y2="506.9"/>
	<line class="st3" x1="199.6" y1="579.3" x2="199.6" y2="506.9"/>
	<line class="st3" x1="138.4" y1="580.3" x2="138.4" y2="506.9"/>
	<line class="st3" x1="75.3" y1="579.3" x2="75.3" y2="506.9"/>
	<line class="st3" x1="197.5" y1="461" x2="84.2" y2="461"/>
	<line class="st3" x1="151.3" y1="494.1" x2="151.3" y2="461"/>
	<line class="st3" x1="129.3" y1="494.1" x2="129.3" y2="460.6"/>
	<line class="st3" x1="107.5" y1="494.1" x2="107.5" y2="460.6"/>
	<line class="st3" x1="71.6" y1="437.8" x2="28.2" y2="437.8"/>
	<line class="st3" x1="48.1" y1="411.7" x2="28.2" y2="411.7"/>
	<line class="st3" x1="69.1" y1="307.2" x2="58.9" y2="297"/>
	<line class="st3" x1="89" y1="287.3" x2="78.8" y2="277.1"/>
	<line class="st3" x1="94.7" y1="334.6" x2="116.1" y2="313.1"/>
	<line class="st1" x1="232.7" y1="220.7" x2="183.9" y2="172"/>
	<line class="st3" x1="115.6" y1="300" x2="126.8" y2="288.8"/>
	<line class="st1" x1="372.7" y1="315.4" x2="350.6" y2="293.3"/>
	<polyline class="st1" points="220.4,398.5 174.1,444.8 100.1,371.7 	"/>
	<line class="st1" x1="801.6" y1="278.3" x2="865.4" y2="214.6"/>
	<line class="st1" x1="896.8" y1="246.3" x2="866.4" y2="276.7"/>
	<polyline class="st1" points="730.7,79.8 703.5,107 717.7,121.2 718.3,120.6 745.3,93.6 	"/>
	<polyline class="st1" points="341.2,132.8 363,154.5 377.2,141.2 389.8,141.2 389.8,113.1 	"/>
	<polyline class="st1" points="631.3,186.9 656.3,211.9 631.3,186.9 659.8,158.3 	"/>
	<polyline class="st4" points="685.3,291.7 692.2,298.6 687.3,303.5 694,310.3 	"/>
	<line class="st3" x1="658.4" y1="510.3" x2="646" y2="497.9"/>
	<line class="st3" x1="532.2" y1="485.8" x2="532.2" y2="455.3"/>
	<line class="st3" x1="495.3" y1="485.8" x2="495.3" y2="455.3"/>
	<polyline class="st1" points="365.4,260.9 345.3,240.8 357.8,228.4 304.4,281.8 356.4,333.9 	"/>
	<line class="st1" x1="324.8" y1="168.5" x2="350.9" y2="142.4"/>
	<line class="st1" x1="337.4" y1="155.9" x2="327.7" y2="146.2"/>
	<line class="st1" x1="783.8" y1="344.1" x2="722" y2="282.4"/>
	<line class="st1" x1="377.9" y1="545.5" x2="358.3" y2="545.5"/>
	<polyline class="st3" points="28.2,539.7 66.2,539.7 66.2,506.9 	"/>
	<line class="st3" x1="212.1" y1="431.8" x2="199.6" y2="419.4"/>
	<polyline class="st3" points="199.1,377.2 167.2,409.1 186.7,432.5 	"/>
	<line class="st3" x1="206.4" y1="412.4" x2="181" y2="395.8"/>
	<line class="st3" x1="193.4" y1="403.5" x2="209.4" y2="387.5"/>
	<polyline class="st3" points="163.1,341 146.8,357.7 131,341.6 	"/>
	<polyline class="st3" points="180.6,358.2 154.5,365.3 124.1,395.8 	"/>
	<polyline class="st3" points="174.1,444.8 174.1,460.4 174.1,459.9 174.1,494.1 	"/>
	<line class="st3" x1="60.8" y1="358.6" x2="83.2" y2="336.1"/>
	<line class="st1" x1="234.7" y1="453.5" x2="218.2" y2="437.5"/>
	<line class="st3" x1="335.4" y1="579.3" x2="335.4" y2="501.8"/>
	<line class="st3" x1="50.8" y1="326.2" x2="62" y2="315"/>
	<line class="st3" x1="57.3" y1="333.4" x2="89" y2="365.2"/>
	<line class="st3" x1="48.1" y1="387.2" x2="28.2" y2="387.2"/>
	<polyline class="st1" points="363,154.5 402.5,194 402,235.5 	"/>
	<line class="st1" x1="350.3" y1="194.1" x2="376.2" y2="168.2"/>
	<line class="st1" x1="367" y1="210.8" x2="392.9" y2="184.9"/>
	<line class="st3" x1="414.1" y1="545.8" x2="391.4" y2="528.4"/>
	<polyline class="st1" points="631.3,186.9 621.4,196.7 621.4,235.7 	"/>
	<line class="st3" x1="578.4" y1="500.6" x2="599.8" y2="479.2"/>
	<polyline class="st1" points="246.2,506.9 246.2,531.6 293.2,531.6 293.2,506.9 	"/>
	<line class="st3" x1="48.1" y1="461" x2="28.2" y2="461"/>
	<line class="st1" x1="332.7" y1="253.9" x2="276" y2="197.2"/>
	<line class="st1" x1="293.7" y1="215.4" x2="319" y2="190.1"/>
	<line class="st1" x1="319.6" y1="241.3" x2="345" y2="216"/>
	<line class="st1" x1="306.7" y1="228.4" x2="332" y2="203"/>
	<line class="st3" x1="681.1" y1="157.9" x2="717.7" y2="121.2"/>
	<line class="st5" x1="737.6" y1="214.4" x2="801.7" y2="150.2"/>
</g>
</svg>
