<?xml version="1.0" encoding="utf-8"?>
<!-- Generator: Adobe Illustrator 21.0.0, SVG Export Plug-In . SVG Version: 6.00 Build 0)  -->
<svg version="1.1" id="Layer_1" xmlns="http://www.w3.org/2000/svg" xmlns:xlink="http://www.w3.org/1999/xlink" x="0px" y="0px"
	 viewBox="0 0 926.1 640.4" style="enable-background:new 0 0 926.1 640.4;" xml:space="preserve">
<style type="text/css">
	.st0{fill:#050433;}
	.st1{fill:#050433;stroke:#FFFFFF;stroke-width:2.15;stroke-miterlimit:10;}
	.st2{fill:#FFFFFF;}
	.st3{fill:#FFFFFF;stroke:#FFFFFF;stroke-width:0.27;stroke-miterlimit:10;}
	.st4{fill:#050433;stroke:#050433;stroke-width:0.27;stroke-miterlimit:10;}
	.st5{fill:#050433;stroke:#050433;stroke-width:0.25;stroke-miterlimit:10;}
	.st6{fill:#CFD0D2;}
	.st7{fill:#FFFFFF;stroke:#FFFFFF;stroke-width:2.15;stroke-miterlimit:10;}
	.st8{fill:none;stroke:#CFD0D2;stroke-width:2.15;stroke-miterlimit:10;}
	.st9{fill:#1B75BB;stroke:#CFD0D2;stroke-width:2.15;stroke-miterlimit:10;}
	.st10{fill:#00A14B;stroke:#FFFFFF;stroke-width:2.15;stroke-miterlimit:10;}
	.st11{fill:none;stroke:#FFFFFF;stroke-width:2.15;stroke-miterlimit:10;}
	.st12{fill:#00A14B;stroke:#CFD0D2;stroke-width:2.15;stroke-miterlimit:10;}
	.st13{fill:#1295C6;}
	.st14{fill:#6B517D;}
	.st15{fill:#F2682F;}
	.st16{fill:#34B04A;}
	.st17{fill:#FEDB00;}
	.st18{fill:#D22532;}
</style>
<title>Asset 1</title>
<g id="ground_floor_plan">
	<g id="ground_floor_map-2">
		<polygon class="st0" points="703.5,166.4 650.3,219.5 638.5,219.5 638.5,279.5 606.4,279.5 606.4,379 579.9,385.5 579.9,406.6 
			475.6,406.6 475.6,385.8 449.4,378.8 449.4,279.5 416.8,279.5 416.8,219.4 405.9,219.4 328.1,141.5 374.6,95 632.1,95 		"/>
		<polygon class="st0" points="416.9,511 391.5,543.6 258.1,543.6 258.1,491.9 390.9,491.9 		"/>
		<rect x="43.2" y="491.9" class="st0" width="40.5" height="51.8"/>
		<rect x="43.2" y="389.8" class="st0" width="40.5" height="47.8"/>
		<rect x="43.2" y="437.7" class="st0" width="40.5" height="42.4"/>
		<polygon class="st1" points="153.4,294.4 112.9,334.9 88.8,359 83.7,364.1 83.7,389.8 43.2,389.8 43.2,328.7 115.5,256.4 		"/>
		<rect x="83.7" y="491.9" class="st0" width="121.9" height="51.8"/>
		<polygon class="st0" points="719.6,90.2 733.5,104.1 695.6,141.1 673.9,119.4 682.9,94.6 700.9,94.6 700.9,80.8 367,80.8 
			353.7,94.1 333.9,113.9 306,86.1 345.2,46.9 351.8,40.3 724.5,40.3 747,62.8 		"/>
		<polygon class="st0" points="898.2,213.9 878.4,233.7 873.2,228.4 862.8,238.8 860.4,236.4 854.4,242.5 845.7,233.8 817,262.5 
			704.1,149.6 748.4,105.3 740.3,97.3 760.9,76.7 		"/>
		
			<rect x="624" y="438" transform="matrix(0.7071 -0.7071 0.7071 0.7071 -108.4819 631.9117)" class="st0" width="169.1" height="17.8"/>
		<polygon class="st0" points="926.1,241.9 896,272 884.5,260.5 914.6,230.4 		"/>
		<polygon class="st0" points="914.6,230.4 884.5,260.5 874.2,250.2 884.5,239.8 878.4,233.7 898.2,213.9 		"/>
		
			<rect x="306" y="86.1" transform="matrix(0.7071 -0.7071 0.7071 0.7071 17.1932 253.1199)" class="st0" width="16.3" height="39.4"/>
		
			<rect x="294.6" y="97.6" transform="matrix(0.7071 -0.7071 0.7071 0.7071 5.6995 248.4056)" class="st0" width="16.2" height="39.4"/>
		<polygon class="st0" points="310.9,136.9 300.2,147.6 291.3,138.8 285.4,144.8 266.4,125.8 283,109.1 		"/>
		<polygon class="st0" points="288,159.8 251.2,196.6 213.2,158.7 240.4,131.5 250.5,141.6 266.4,125.8 285.4,144.8 279.2,151 		"/>
		<polygon class="st0" points="251.2,196.6 227.3,220.5 153.4,294.4 115.5,256.4 213.2,158.7 		"/>
		<polygon class="st0" points="831.5,295.2 694.2,432.5 633.5,371.6 686.6,318.5 663.6,295.5 663.6,261.6 680.5,278.5 694.7,264.3 
			663.3,232.9 716.2,180 774.3,238.1 		"/>
		<polygon class="st0" points="415.4,364.1 322.8,456.7 167.8,302 292,177.7 313.8,199.5 336.5,176.7 350.4,190.5 328.1,212.8 
			350.4,235.1 317.9,267.6 337.9,287.2 351.6,300.9 392.5,260 392.5,295.4 369.6,318.3 		"/>
		
			<rect x="298.2" y="161.8" transform="matrix(0.7071 -0.7071 0.7071 0.7071 -33.2489 274.1163)" class="st0" width="32.2" height="30.8"/>
		<polygon class="st0" points="372.6,212.8 350.4,235.1 328.1,212.8 350.4,190.5 		"/>
		<polygon class="st0" points="392.4,232.6 337.9,287.2 317.9,267.6 350.4,235.1 372.6,212.8 		"/>
		<polygon class="st0" points="268.5,418.2 206.5,480.5 169.5,443.5 130.4,482.5 97.7,449.7 116,431.4 98,413.4 118.6,392.8 
			97.6,371.9 121.5,347.9 159.9,309.6 		"/>
		
			<rect x="824.8" y="241.6" transform="matrix(0.7071 -0.7071 0.7071 0.7071 61.3142 674.7233)" class="st1" width="40.6" height="43.5"/>
		<polygon class="st0" points="825.1,342.9 790.2,377.8 777.9,365.5 812.8,330.7 		"/>
		<rect x="205.6" y="491.9" class="st0" width="52.5" height="51.8"/>
		<polygon class="st1" points="760.9,76.7 740.3,97.3 733.5,104.1 719.6,90.2 747,62.8 		"/>
		<path class="st2" d="M487.3,277h3.5c0.8,0,1.7,0.2,2.3,0.8c0.4,0.5,0.7,1.1,0.7,1.7l0,0c0,1.1-0.8,2.2-1.9,2.4l2.1,3h-1.7
			l-1.9-2.8h-1.7v2.8h-1.4V277z M490.7,280.9c1,0,1.6-0.5,1.6-1.3l0,0c0-0.9-0.6-1.3-1.6-1.3h-2v2.7L490.7,280.9z"/>
		<path class="st2" d="M495.4,277h5.9v1.2h-4.5v2.1h4v1.2h-4v2.1h4.5v1.2h-5.9V277z"/>
		<path class="st2" d="M503,277h3c2.2-0.1,4.1,1.5,4.2,3.7c0,0.1,0,0.2,0,0.3l0,0c0,2.2-1.8,4-4,4c-0.1,0-0.1,0-0.2,0h-3V277z
			 M504.4,278.3v5.4h1.6c1.4,0.1,2.7-1,2.7-2.4c0-0.1,0-0.2,0-0.3l0,0c0.1-1.4-1.1-2.6-2.5-2.7c-0.1,0-0.2,0-0.2,0H504.4z"/>
		<path class="st2" d="M517.2,278.3h-2.5V277h6.4v1.3h-2.5v6.6h-1.4V278.3z"/>
		<path class="st2" d="M522.6,277h1.4v3.3h3.8V277h1.4v7.9h-1.4v-3.3H524v3.3h-1.4V277z"/>
		<path class="st2" d="M531.2,277h5.8v1.2h-4.5v2.1h4v1.2h-4v2.1h4.5v1.2h-5.9L531.2,277z"/>
		<path class="st2" d="M541.5,277h1.3l3.5,8h-1.5l-0.8-1.9h-3.7l-0.8,1.9H538L541.5,277z M543.5,281.8l-1.4-3.2l-1.4,3.2H543.5z"/>
		<path class="st2" d="M548.6,278.3h-2.5V277h6.4v1.3H550v6.6h-1.4V278.3z"/>
		<path class="st2" d="M560.4,277h3.5c0.8,0,1.7,0.2,2.3,0.8c0.4,0.5,0.7,1.1,0.7,1.7l0,0c0,1.1-0.8,2.2-1.9,2.4l2.1,3h-1.7
			l-1.9-2.8h-1.7v2.8h-1.4L560.4,277L560.4,277z M563.8,280.9c1,0,1.6-0.5,1.6-1.3l0,0c0-0.9-0.6-1.3-1.6-1.3h-2v2.7L563.8,280.9z"
			/>
		<path class="st2" d="M553.5,277h5.9v1.2h-4.5v2.1h4v1.2h-4v2.1h4.5v1.2h-5.9V277z"/>
		<path class="st2" d="M275.8,350.8h3.5c0.8,0,1.5,0.2,2.1,0.7c0.4,0.3,0.5,0.8,0.5,1.3l0,0c0,0.8-0.4,1.5-1.1,1.8
			c0.9,0.2,1.6,1,1.6,1.9l0,0c0,1.4-1.2,2.2-2.9,2.2h-3.7V350.8z M280.5,353c0-0.6-0.5-1-1.4-1h-2v2.1h1.9
			C279.9,354.1,280.5,353.8,280.5,353L280.5,353z M279.3,355.3h-2.2v2.2h2.3c1,0,1.5-0.4,1.5-1.1l0,0
			C281,355.7,280.4,355.3,279.3,355.3L279.3,355.3z"/>
		<path class="st2" d="M283.9,350.8h1.4v6.6h4.2v1.3H284L283.9,350.8z"/>
		<path class="st2" d="M293.7,350.7h1.3l3.5,8H297l-0.8-1.9h-3.7l-0.8,1.9h-1.4L293.7,350.7z M295.7,355.5l-1.4-3.2l-1.4,3.2H295.7z
			"/>
		<path class="st2" d="M299,354.8L299,354.8c-0.1-2.2,1.7-4,3.9-4.1c0.1,0,0.1,0,0.2,0c1.2,0,2.3,0.4,3.1,1.2l-0.9,1
			c-0.6-0.6-1.4-1-2.2-1c-1.5,0-2.6,1.2-2.6,2.7v0.1l0,0c-0.1,1.5,1.1,2.7,2.5,2.8c0,0,0,0,0.1,0c0.9,0,1.7-0.4,2.3-1l0.9,0.9
			c-0.8,0.9-2,1.4-3.2,1.4C300.8,358.8,299,357,299,354.8L299,354.8z"/>
		<path class="st2" d="M307.7,350.8h1.4v4l3.8-4h1.7l-3.3,3.4l3.5,4.5H313l-2.7-3.6l-1.2,1.3v2.3h-1.4L307.7,350.8L307.7,350.8z"/>
		<path class="st2" d="M319.3,350.8h3.5c0.8,0,1.5,0.2,2.1,0.7c0.4,0.3,0.5,0.8,0.5,1.3l0,0c0,0.8-0.4,1.5-1.1,1.8
			c0.9,0.2,1.6,1,1.6,1.9l0,0c0,1.4-1.2,2.2-2.9,2.2h-3.7V350.8z M324.1,353c0-0.6-0.5-1-1.4-1h-2v2.1h1.9
			C323.5,354.1,324.1,353.8,324.1,353L324.1,353z M322.9,355.3h-2.2v2.2h2.3c1,0,1.5-0.4,1.5-1.1l0,0
			C324.5,355.7,324,355.3,322.9,355.3L322.9,355.3z"/>
		<path class="st2" d="M327.1,354.8L327.1,354.8c0-2.3,1.9-4.1,4.1-4.1c2.3,0,4.1,1.9,4.1,4.1l0,0c0,2.3-1.9,4.1-4.1,4.1
			S327.1,357.1,327.1,354.8z M333.9,354.8L333.9,354.8c0.1-1.5-1.1-2.8-2.6-2.8h-0.1c-1.5,0-2.7,1.2-2.7,2.7v0.1l0,0
			c-0.1,1.5,1.1,2.7,2.6,2.8h0.1c1.5,0,2.7-1.2,2.7-2.6C333.9,354.9,333.9,354.8,333.9,354.8z"/>
		<path class="st2" d="M343.2,350.8l-2.8,3.9l2.9,4h-1.6l-2.1-3l-2.1,3h-1.6l2.9-4l-2.8-3.9h1.6l2,2.9l2-2.9H343.2z"/>
		<path class="st2" d="M285,365.7h-2.5v-1.3h6.4v1.3h-2.5v6.6H285V365.7z"/>
		<path class="st2" d="M290.4,364.4h1.4v3.3h3.8v-3.3h1.4v7.9h-1.4V369h-3.8v3.3h-1.4V364.4z"/>
		<path class="st2" d="M298.9,364.4h5.9v1.2h-4.5v2.1h4v1.2h-4v2.1h4.5v1.2h-5.9V364.4z"/>
		<path class="st2" d="M309.3,364.3h1.3l3.5,8h-1.5l-0.8-1.9h-3.7l-0.8,1.9h-1.4L309.3,364.3z M311.3,369.1l-1.4-3.2l-1.4,3.2H311.3
			z"/>
		<path class="st2" d="M316.4,365.7h-2.5v-1.3h6.4v1.3h-2.5v6.6h-1.4V365.7z"/>
		<path class="st2" d="M328.2,364.4h3.5c0.8,0,1.7,0.2,2.3,0.8c0.4,0.5,0.7,1.1,0.7,1.7l0,0c0,1.1-0.8,2.2-1.9,2.4l2.1,3h-1.6
			l-1.9-2.8h-1.7v2.8h-1.4L328.2,364.4z M331.6,368.3c1,0,1.6-0.5,1.6-1.3l0,0c0-0.9-0.6-1.3-1.6-1.3h-2v2.7L331.6,368.3z"/>
		<path class="st2" d="M321.3,364.4h5.9v1.2h-4.5v2.1h4v1.2h-4v2.1h4.5v1.2h-5.9V364.4z"/>
		<path class="st3" d="M316.5,525.8L316.5,525.8c0-1.9,1.1-3.5,2.9-3.5s2.8,1.6,2.8,3.5l0,0c0,1.9-1.1,3.5-2.8,3.5
			S316.5,527.7,316.5,525.8z M321.4,525.8L321.4,525.8c0-1.5-0.8-2.8-2-2.8s-2,1.3-2,2.8l0,0c0,1.5,0.8,2.8,2.1,2.8
			S321.4,527.3,321.4,525.8z"/>
		<path class="st3" d="M323.4,525.8L323.4,525.8c0-1.9,1.1-3.5,2.9-3.5s2.8,1.6,2.8,3.5l0,0c0,1.9-1.1,3.5-2.8,3.5
			S323.4,527.7,323.4,525.8z M328.2,525.8L328.2,525.8c0-1.5-0.8-2.8-2-2.8s-2,1.3-2,2.8l0,0c0,1.5,0.8,2.8,2.1,2.8
			S328.2,527.3,328.2,525.8z"/>
		<path class="st3" d="M333.8,527.5h-3.5l-0.2-0.6l3.8-4.6h0.7v4.5h1v0.6h-1v1.6h-0.7L333.8,527.5L333.8,527.5z M333.8,526.9v-3.5
			l-2.8,3.5H333.8z"/>
		<path class="st3" d="M55.5,458.7L55.5,458.7c0-1.9,1.1-3.5,2.8-3.5s2.8,1.6,2.8,3.5l0,0c0,1.9-1.1,3.5-2.8,3.5
			S55.5,460.6,55.5,458.7z M60.3,458.7L60.3,458.7c0-1.5-0.8-2.8-2.1-2.8s-2,1.3-2,2.8l0,0c0,1.5,0.8,2.8,2.1,2.8
			S60.3,460.1,60.3,458.7z"/>
		<path class="st3" d="M63.4,456l-1.3,0.4l-0.2-0.6l1.6-0.6h0.6v6.8h-0.8v-6L63.4,456L63.4,456z"/>
		<path class="st3" d="M65.7,458.7L65.7,458.7c0-1.9,1.1-3.5,2.8-3.5s2.8,1.6,2.8,3.5l0,0c0,1.9-1.1,3.5-2.8,3.5
			S65.7,460.6,65.7,458.7z M70.6,458.7L70.6,458.7c0-1.5-0.8-2.8-2.1-2.8s-2,1.3-2,2.8l0,0c0,1.5,0.8,2.8,2.1,2.8
			S70.6,460.1,70.6,458.7z"/>
		<path class="st3" d="M53.4,367.3L53.4,367.3c0-1.9,1.1-3.5,2.8-3.5s2.8,1.6,2.8,3.5l0,0c0,1.9-1.1,3.5-2.8,3.5
			S53.4,369.2,53.4,367.3z M58.2,367.3L58.2,367.3c0-1.5-0.8-2.8-2.1-2.8s-2,1.3-2,2.8l0,0c0,1.5,0.8,2.8,2.1,2.8
			S58.2,368.8,58.2,367.3z"/>
		<path class="st3" d="M61.3,364.7l-1.3,0.4l-0.2-0.6l1.6-0.6h0.5v6.8h-0.8L61.3,364.7z"/>
		<path class="st3" d="M63.5,369.6l0.6-0.5c0.5,0.6,1.2,1,2,1c0.7,0.1,1.4-0.5,1.5-1.2v-0.1l0,0c0-0.8-0.8-1.3-1.9-1.3h-0.4
			l-0.2-0.5l2.1-2.4h-3.3v-0.7h4.3v0.6l-2.2,2.3c1.2,0.1,2.2,0.7,2.2,1.9l0,0c0,1.2-1,2.1-2.2,2c0,0,0,0-0.1,0
			C65,370.8,64.1,370.3,63.5,369.6z"/>
		<path class="st3" d="M105.1,298L105.1,298c0-1.9,1.1-3.5,2.9-3.5s2.8,1.6,2.8,3.5l0,0c0,1.9-1.1,3.5-2.8,3.5
			S105.1,299.9,105.1,298z M110,298L110,298c0-1.5-0.8-2.8-2.1-2.8s-2,1.3-2,2.8l0,0c0,1.5,0.8,2.8,2.1,2.8S110,299.5,110,298
			L110,298z"/>
		<path class="st3" d="M113.1,295.4l-1.3,0.4l-0.2-0.6l1.6-0.6h0.6v6.8H113L113.1,295.4L113.1,295.4z"/>
		<path class="st3" d="M115.3,300.4l0.5-0.5c0.5,0.5,1.2,0.9,1.9,0.9c0.8,0.1,1.6-0.6,1.6-1.4v-0.1l0,0c0-0.8-0.7-1.5-1.6-1.4h-0.1
			c-0.5,0-1,0.1-1.4,0.4l-0.5-0.3l0.2-3.3h3.9v0.7h-3.2l-0.1,2.1c0.4-0.2,0.9-0.3,1.3-0.3c1.1-0.1,2.2,0.7,2.3,1.8
			c0,0.1,0,0.1,0,0.2l0,0c0,1.2-1,2.2-2.2,2.2c-0.1,0-0.1,0-0.2,0C116.8,301.4,115.9,301.1,115.3,300.4z"/>
		<path class="st3" d="M166,237.4L166,237.4c0-1.9,1.1-3.5,2.9-3.5s2.8,1.6,2.8,3.5l0,0c0,1.9-1.1,3.5-2.8,3.5S166,239.2,166,237.4z
			 M170.9,237.4L170.9,237.4c0-1.5-0.8-2.8-2.1-2.8s-2,1.3-2,2.8l0,0c0,1.5,0.8,2.8,2.1,2.8S170.9,238.8,170.9,237.4L170.9,237.4z"
			/>
		<path class="st3" d="M173.9,234.7l-1.3,0.4l-0.2-0.6l1.6-0.6h0.6v6.8h-0.8L173.9,234.7L173.9,234.7z"/>
		<path class="st3" d="M180.5,237.3v-0.1c-0.4,0.7-1.1,1.1-1.9,1.1c-1.2,0.1-2.2-0.7-2.3-1.9c0-0.1,0-0.1,0-0.2l0,0
			c0-1.3,1-2.3,2.3-2.3h0.1c0.7,0,1.3,0.2,1.8,0.7c0.6,0.7,0.9,1.7,0.8,2.6l0,0c0,2.1-1.1,3.6-2.8,3.6c-0.8,0-1.5-0.3-2.1-0.8
			l0.4-0.6c0.4,0.4,1,0.7,1.6,0.7C179.8,240.1,180.5,238.8,180.5,237.3z M180.3,236.1L180.3,236.1c0-0.9-0.8-1.6-1.6-1.5h-0.1
			c-0.8,0-1.6,0.6-1.6,1.5v0.1l0,0c0,0.8,0.7,1.5,1.5,1.5h0.1C179.5,237.7,180.3,237,180.3,236.1L180.3,236.1z"/>
		<path class="st3" d="M473.3,60.5L473.3,60.5c0-1.9,1.1-3.5,2.8-3.5s2.9,1.6,2.9,3.4l0,0c0,1.9-1.1,3.5-2.8,3.5
			S473.3,62.4,473.3,60.5z M478.2,60.5L478.2,60.5c0-1.5-0.8-2.8-2-2.8s-2,1.3-2,2.8l0,0c0,1.5,0.8,2.8,2.1,2.8
			S478.2,61.9,478.2,60.5z"/>
		<path class="st3" d="M479.9,63.2l2.4-2.2c1-0.9,1.4-1.4,1.4-2.1s-0.6-1.3-1.3-1.3c0,0,0,0-0.1,0c-0.8,0-1.4,0.5-1.8,1.2l-0.6-0.4
			c0.5-0.9,1.4-1.5,2.4-1.4c1.1-0.1,2,0.7,2.1,1.8v0.1l0,0c0,1-0.5,1.6-1.7,2.6l-1.8,1.6h3.6v0.7h-4.7L479.9,63.2z"/>
		<path class="st3" d="M490,60.4L490,60.4c-0.4,0.6-1.1,1-1.9,1c-1.2,0.1-2.2-0.7-2.3-1.9c0-0.1,0-0.1,0-0.2l0,0
			c0-1.3,1-2.3,2.3-2.3h0.1c0.7,0,1.3,0.2,1.8,0.7c0.6,0.7,0.9,1.7,0.8,2.6l0,0c0,2.1-1.1,3.6-2.8,3.6c-0.8,0-1.5-0.3-2-0.8l0.4-0.6
			c0.4,0.4,1,0.7,1.7,0.7C489.3,63.2,490,61.9,490,60.4z M489.9,59.2L489.9,59.2c0-0.9-0.8-1.5-1.7-1.5l0,0c-0.8,0-1.6,0.6-1.6,1.5
			v0.1l0,0c0,0.8,0.7,1.5,1.6,1.4h0.1C489.1,60.8,489.8,60.1,489.9,59.2L489.9,59.2L489.9,59.2z"/>
		<path class="st3" d="M506.6,138.3L506.6,138.3c0-1.9,1.1-3.5,2.8-3.5s2.8,1.6,2.8,3.4l0,0c0,1.9-1.1,3.5-2.8,3.5
			S506.6,140.1,506.6,138.3z M511.5,138.3L511.5,138.3c0-1.5-0.8-2.8-2-2.8s-2,1.3-2,2.8l0,0c0,1.5,0.8,2.8,2.1,2.8
			S511.5,139.7,511.5,138.3z"/>
		<path class="st3" d="M513.3,140.5l0.6-0.5c0.5,0.6,1.2,1,2,1c0.7,0.1,1.4-0.5,1.5-1.2v-0.1l0,0c0-0.8-0.8-1.3-1.9-1.3H515
			l-0.2-0.4l2.1-2.4h-3.3v-0.7h4.3v0.6l-2.1,2.3c1.2,0.1,2.2,0.7,2.2,1.9l0,0c0,1.2-1,2.1-2.2,2c0,0,0,0-0.1,0
			C514.8,141.8,513.9,141.3,513.3,140.5z"/>
		<path class="st3" d="M519.2,138.3L519.2,138.3c0-1.9,1.1-3.5,2.8-3.5s2.8,1.6,2.8,3.4l0,0c0,1.9-1.1,3.5-2.8,3.5
			S519.2,140.1,519.2,138.3z M524.1,138.3L524.1,138.3c0-1.5-0.8-2.8-2-2.8s-2,1.3-2,2.8l0,0c0,1.5,0.8,2.8,2.1,2.8
			S524.1,139.7,524.1,138.3z"/>
		<path class="st3" d="M753.2,144.3L753.2,144.3c0-1.9,1.1-3.5,2.8-3.5s2.8,1.6,2.8,3.4l0,0c0,1.9-1.1,3.5-2.8,3.5
			S753.2,146.2,753.2,144.3z M758.1,144.3L758.1,144.3c0-1.5-0.8-2.8-2-2.8s-2,1.3-2,2.8l0,0c0,1.5,0.8,2.8,2.1,2.8
			S758.1,145.8,758.1,144.3z"/>
		<path class="st3" d="M763.6,146.1h-3.5l-0.2-0.6l3.8-4.6h0.7v4.5h1v0.6h-1v1.6h-0.7L763.6,146.1L763.6,146.1z M763.6,145.4v-3.5
			l-2.8,3.5H763.6z"/>
		<path class="st3" d="M767.4,141.7l-1.3,0.4l-0.2-0.6l1.6-0.6h0.6v6.8h-0.8v-6L767.4,141.7L767.4,141.7z"/>
		<path class="st3" d="M770.8,190.3L770.8,190.3c0-1.9,1.1-3.5,2.8-3.5s2.8,1.6,2.8,3.4l0,0c0,1.9-1.1,3.5-2.8,3.5
			S770.8,192.1,770.8,190.3z M775.7,190.3L775.7,190.3c0-1.5-0.8-2.8-2-2.8s-2,1.3-2,2.8l0,0c0,1.5,0.8,2.8,2.1,2.8
			S775.7,191.7,775.7,190.3z"/>
		<path class="st3" d="M781.2,192h-3.5l-0.2-0.6l3.8-4.6h0.7v4.5h1v0.6h-1v1.6h-0.7L781.2,192L781.2,192z M781.2,191.4v-3.5
			l-2.8,3.5H781.2z"/>
		<path class="st3" d="M783.9,193l2.4-2.1c1-0.9,1.4-1.4,1.4-2.1c0-0.7-0.6-1.3-1.3-1.3h-0.1c-0.8,0-1.4,0.5-1.8,1.1l-0.6-0.4
			c0.5-0.9,1.4-1.5,2.4-1.4c1.1-0.1,2,0.7,2.1,1.8v0.1l0,0c0,1-0.5,1.6-1.7,2.6l-1.8,1.6h3.6v0.7H784L783.9,193z"/>
		<path class="st3" d="M818.4,205.1L818.4,205.1c0-1.9,1.1-3.5,2.8-3.5s2.8,1.6,2.8,3.4l0,0c0,1.9-1.1,3.5-2.8,3.5
			S818.4,206.9,818.4,205.1z M823.3,205.1L823.3,205.1c0-1.5-0.8-2.8-2-2.8s-2,1.3-2,2.8l0,0c0,1.5,0.8,2.8,2.1,2.8
			S823.3,206.5,823.3,205.1z"/>
		<path class="st3" d="M828.8,206.8h-3.5l-0.2-0.6l3.8-4.6h0.7v4.5h1v0.6h-1v1.6h-0.7L828.8,206.8z M828.8,206.2v-3.5l-2.8,3.5
			H828.8z"/>
		<path class="st3" d="M831.6,207.3l0.6-0.5c0.5,0.6,1.2,1,2,1c0.7,0.1,1.4-0.5,1.5-1.2v-0.1l0,0c0-0.8-0.8-1.3-1.9-1.3h-0.4
			l-0.2-0.4l2.1-2.4H832v-0.7h4.3v0.6l-2.1,2.3c1.2,0.1,2.2,0.7,2.2,1.9l0,0c0,1.2-1,2.1-2.2,2c0,0,0,0-0.1,0
			C833.2,208.5,832.2,208.1,831.6,207.3z"/>
		<path class="st3" d="M780.2,283.8L780.2,283.8c0-1.9,1.1-3.5,2.8-3.5s2.8,1.6,2.8,3.5l0,0c0,1.9-1.1,3.5-2.8,3.5
			S780.2,285.7,780.2,283.8z M785.1,283.8L785.1,283.8c0-1.5-0.8-2.8-2-2.8s-2,1.3-2,2.8l0,0c0,1.5,0.8,2.8,2.1,2.8
			S785.1,285.3,785.1,283.8z"/>
		<path class="st3" d="M790.6,285.6H787l-0.2-0.6l3.8-4.6h0.7v4.5h1v0.6h-1v1.6h-0.7V285.6z M790.6,285v-3.5l-2.8,3.5H790.6z"/>
		<path class="st3" d="M793.4,286.2l0.5-0.5c0.5,0.5,1.2,0.9,1.9,0.9c0.8,0.1,1.6-0.6,1.6-1.4v-0.1l0,0c0-0.8-0.7-1.5-1.6-1.4h-0.1
			c-0.5,0-1,0.1-1.4,0.4l-0.5-0.3l0.2-3.3h3.9v0.7h-3.2l-0.1,2.1c0.4-0.2,0.9-0.3,1.3-0.3c1.1-0.1,2.2,0.7,2.3,1.8
			c0,0.1,0,0.1,0,0.2l0,0c0,1.2-1,2.2-2.2,2.2c-0.1,0-0.1,0-0.2,0C794.9,287.3,794,286.9,793.4,286.2z"/>
		<path class="st3" d="M724.6,228.8L724.6,228.8c0-1.9,1.1-3.5,2.8-3.5s2.8,1.6,2.8,3.5l0,0c0,1.9-1.1,3.5-2.8,3.5
			S724.6,230.7,724.6,228.8z M729.5,228.8L729.5,228.8c0-1.5-0.8-2.8-2-2.8s-2,1.3-2,2.8l0,0c0,1.5,0.8,2.8,2.1,2.8
			S729.5,230.2,729.5,228.8z"/>
		<path class="st3" d="M731.3,231l0.6-0.5c0.5,0.6,1.2,1,2,1c0.7,0.1,1.4-0.5,1.5-1.2v-0.1l0,0c0-0.8-0.8-1.3-1.9-1.3H733l-0.2-0.5
			l2.1-2.4h-3.3v-0.7h4.3v0.6l-2.1,2.3c1.2,0.1,2.2,0.7,2.2,1.9l0,0c0,1.2-1,2.1-2.2,2c0,0,0,0-0.1,0
			C732.8,232.3,731.9,231.8,731.3,231z"/>
		<path class="st3" d="M738.1,231.6c-0.6-0.7-1-1.7-0.8-2.6l0,0c0-2,1-3.6,2.8-3.6c0.7,0,1.5,0.3,2,0.8l-0.4,0.6
			c-0.4-0.4-1-0.6-1.6-0.7c-1.3,0-2,1.4-2,2.9v0.1c0.4-0.6,1.1-1,1.9-1c1.2-0.1,2.2,0.8,2.3,2v0.1l0,0c0,1.3-1.1,2.3-2.3,2.2h-0.1
			C739.2,232.3,738.6,232,738.1,231.6z M741.5,230L741.5,230c0-0.8-0.7-1.5-1.5-1.4h-0.1c-0.9-0.1-1.6,0.6-1.7,1.5l0,0l0,0
			c0,0.9,0.8,1.5,1.6,1.5h0.1c0.8,0.1,1.6-0.6,1.6-1.4C741.5,230.1,741.5,230.1,741.5,230L741.5,230z"/>
		<path class="st3" d="M285.9,237.4L285.9,237.4c0-1.9,1.1-3.5,2.9-3.5s2.8,1.6,2.8,3.5l0,0c0,1.9-1.1,3.5-2.8,3.5
			S285.9,239.2,285.9,237.4z M290.8,237.4L290.8,237.4c0-1.5-0.8-2.8-2-2.8s-2,1.3-2,2.8l0,0c0,1.5,0.8,2.8,2.1,2.8
			S290.8,238.8,290.8,237.4L290.8,237.4z"/>
		<path class="st3" d="M292.5,240.1l2.4-2.1c1-0.9,1.4-1.4,1.4-2.1s-0.6-1.3-1.3-1.3h-0.1c-0.8,0-1.4,0.5-1.8,1.1l-0.6-0.4
			c0.5-0.9,1.4-1.5,2.4-1.4c1.1-0.1,2,0.7,2.1,1.8v0.1l0,0c0,1-0.5,1.6-1.7,2.6l-1.8,1.6h3.6v0.7h-4.7L292.5,240.1z"/>
		<path class="st3" d="M298.3,239.8l0.5-0.5c0.5,0.5,1.2,0.9,1.9,0.9c0.8,0.1,1.6-0.6,1.6-1.4v-0.1l0,0c0-0.8-0.7-1.5-1.6-1.4h-0.1
			c-0.5,0-1,0.1-1.4,0.4l-0.5-0.3l0.2-3.3h3.9v0.7h-3.2l-0.1,2.1c0.4-0.2,0.9-0.3,1.3-0.3c1.1-0.1,2.2,0.7,2.3,1.8
			c0,0.1,0,0.1,0,0.2l0,0c0,1.2-1,2.2-2.2,2.2c-0.1,0-0.1,0-0.2,0C299.8,240.8,298.9,240.4,298.3,239.8z"/>
		<path class="st3" d="M243.1,277.1L243.1,277.1c0-1.9,1.1-3.5,2.9-3.5s2.8,1.6,2.8,3.5l0,0c0,1.9-1.1,3.5-2.8,3.5
			S243.1,279,243.1,277.1z M248,277.1L248,277.1c0-1.5-0.8-2.8-2-2.8s-2,1.3-2,2.8l0,0c0,1.5,0.8,2.8,2.1,2.8S248,278.6,248,277.1
			L248,277.1z"/>
		<path class="st3" d="M249.8,279.9l2.4-2.1c1-0.9,1.4-1.4,1.4-2.1s-0.6-1.3-1.3-1.3h-0.1c-0.8,0-1.4,0.5-1.8,1.1l-0.6-0.4
			c0.5-0.9,1.4-1.4,2.4-1.4c1.1-0.1,2,0.7,2.1,1.8v0.1l0,0c0,1-0.5,1.6-1.7,2.6l-1.8,1.6h3.6v0.7h-4.7L249.8,279.9z"/>
		<path class="st3" d="M256.8,274.5l-1.3,0.4l-0.2-0.6l1.6-0.6h0.6v6.8h-0.8L256.8,274.5z"/>
		<path class="st3" d="M195.3,407h5v1h-3.8v1.7h3.4v1h-3.4v1.8h3.8v1h-5V407z"/>
		<path class="st3" d="M207.7,413.9l-0.8-0.7c-0.6,0.4-1.3,0.6-2,0.6c-1.9,0-3.4-1.4-3.5-3.3v-0.1l0,0c0.1-1.9,1.8-3.4,3.8-3.2
			c1.7,0.1,3.1,1.5,3.2,3.2l0,0c0,0.7-0.2,1.5-0.7,2.1l0.8,0.6L207.7,413.9z M206.1,412.5l-1.2-1l0.8-0.9l1.2,1.1
			c0.2-0.4,0.3-0.8,0.3-1.3l0,0c0-1.3-0.9-2.3-2.2-2.4c0,0,0,0-0.1,0c-1.3,0-2.3,1-2.3,2.3v0.1l0,0c0,1.3,1,2.3,2.2,2.4
			C205.3,412.7,205.7,412.6,206.1,412.5L206.1,412.5z"/>
		<path class="st3" d="M209.7,410.9V407h1.2v3.8c0,1.2,0.6,1.9,1.7,1.9s1.7-0.6,1.7-1.9v-3.9h1.2v3.8c0.2,1.5-0.9,2.8-2.3,3
			c-0.2,0-0.4,0-0.6,0c-1.5,0.1-2.7-1-2.9-2.4C209.7,411.3,209.7,411.1,209.7,410.9z"/>
		<path class="st3" d="M217.1,407h1.2v6.7h-1.2V407z"/>
		<path class="st3" d="M220.1,407h2.6c1.2-0.2,2.4,0.7,2.5,1.9c0,0.1,0,0.2,0,0.3l0,0c0,1.5-1.2,2.3-2.7,2.3h-1.3v2.1H220V407H220.1
			z M222.7,410.5c0.9,0,1.5-0.5,1.5-1.2l0,0c0-0.8-0.6-1.2-1.5-1.2h-1.4v2.4L222.7,410.5z"/>
		<path class="st3" d="M226.5,407h1.3l2,3.2l2-3.2h1.3v6.7h-1.2v-4.8l-2.1,3.2l0,0l-2.1-3.1v4.8h-1.2V407z"/>
		<path class="st3" d="M234.8,407h5v1H236v1.7h3.4v1H236v1.8h3.8v1h-5V407z"/>
		<path class="st3" d="M241.3,407h1.1l3.6,4.6V407h1.2v6.7h-1l-3.7-4.8v4.8h-1.2L241.3,407L241.3,407z"/>
		<path class="st3" d="M250.5,408.1h-2.1V407h5.5v1.1h-2.1v5.6h-1.2L250.5,408.1L250.5,408.1z"/>
		<path class="st3" d="M204.5,421.9L204.5,421.9c0-1.9,1.5-3.4,3.3-3.5h0.1c1,0,1.9,0.3,2.6,1l-0.8,0.9c-0.5-0.5-1.2-0.8-1.9-0.8
			c-1.2,0-2.2,1.1-2.2,2.3c0,0,0,0,0,0.1l0,0c-0.1,1.2,0.9,2.3,2.1,2.4c0,0,0,0,0.1,0c0.7,0,1.4-0.3,1.9-0.9l0.8,0.8
			c-0.7,0.8-1.7,1.2-2.7,1.2C206.1,425.3,204.6,423.8,204.5,421.9C204.5,422,204.5,421.9,204.5,421.9z"/>
		<path class="st3" d="M211.9,418.5h5v1h-3.8v1.7h3.4v1h-3.4v1.8h3.8v1h-5V418.5z"/>
		<path class="st3" d="M218.3,418.5h1.1l3.6,4.6v-4.6h1.2v6.7h-1l-3.7-4.8v4.8h-1.2L218.3,418.5L218.3,418.5z"/>
		<path class="st3" d="M227.5,419.6h-2.1v-1.1h5.5v1.1h-2.1v5.6h-1.2L227.5,419.6L227.5,419.6z"/>
		<path class="st3" d="M232.1,418.5h5v1h-3.8v1.7h3.4v1h-3.4v1.8h3.8v1h-5V418.5z"/>
		<path class="st3" d="M238.5,418.5h3c0.7,0,1.4,0.2,1.9,0.7c0.4,0.4,0.6,0.9,0.6,1.5l0,0c0,1-0.6,1.8-1.6,2l1.8,2.5h-1.4l-1.6-2.3
			h-1.5v2.3h-1.2V418.5z M241.4,421.9c0.8,0,1.4-0.4,1.4-1.1l0,0c0-0.7-0.5-1.1-1.4-1.1h-1.7v2.2H241.4z"/>
		<path class="st3" d="M679.7,353.9h3.4c0.7-0.1,1.5,0.2,2,0.7c0.3,0.3,0.5,0.8,0.5,1.2l0,0c0,0.7-0.4,1.4-1.1,1.7
			c0.9,0.2,1.5,0.9,1.5,1.8l0,0c0,1.4-1.1,2.1-2.8,2.1h-3.5L679.7,353.9z M684.2,356.1c0-0.6-0.5-1-1.3-1H681v2h1.8
			C683.7,357.1,684.2,356.7,684.2,356.1z M683.1,358.2H681v2.1h2.2c0.9,0,1.5-0.4,1.5-1l0,0C684.7,358.6,684.1,358.2,683.1,358.2
			L683.1,358.2z"/>
		<path class="st3" d="M687.5,353.9h1.3v6.3h4v1.2h-5.3V353.9z"/>
		<path class="st3" d="M693.8,358.3v-4.4h1.3v4.3c0,1.4,0.7,2.1,1.9,2.1s1.9-0.7,1.9-2.1v-4.4h1.3v4.3c0,2.2-1.3,3.4-3.2,3.4
			c-1.7,0.1-3.1-1.1-3.2-2.8C693.8,358.6,693.8,358.4,693.8,358.3z"/>
		<path class="st3" d="M702.1,353.9h5.6v1.2h-4.3v2h3.8v1.2h-3.8v2h4.3v1.2H702L702.1,353.9z"/>
		<path class="st3" d="M712.5,353.9h1.3v3.1h3.6v-3.1h1.3v7.5h-1.3v-3.2h-3.6v3.2h-1.3V353.9z"/>
		<path class="st3" d="M723.4,353.9h1.2l3.3,7.6h-1.4l-0.8-1.8h-3.6l-0.8,1.8h-1.4L723.4,353.9z M725.3,358.5l-1.3-3l-1.3,3H725.3z"
			/>
		<path class="st3" d="M729.3,353.9h1.3v6.3h4v1.2h-5.3V353.9z"/>
		<path class="st3" d="M735.9,353.9h1.3v6.3h4v1.2H736L735.9,353.9z"/>
		<path class="st3" d="M279.3,510h3c1.8,0,2.9,1,2.9,2.5l0,0c0,1.7-1.4,2.6-3,2.6h-1.5v2.4h-1.3L279.3,510z M282.2,514
			c1,0,1.6-0.6,1.6-1.3l0,0c0-0.9-0.6-1.3-1.6-1.3h-1.5v2.7L282.2,514z"/>
		<path class="st3" d="M286.5,510h3.4c0.8-0.1,1.6,0.2,2.2,0.8c0.4,0.4,0.6,1,0.6,1.6l0,0c0,1.1-0.7,2-1.8,2.3l2,2.9h-1.6l-1.9-2.6
			h-1.7v2.6h-1.3L286.5,510z M289.8,513.8c1,0,1.5-0.5,1.5-1.3l0,0c0-0.8-0.6-1.2-1.6-1.2h-1.9v2.5H289.8z"/>
		<path class="st3" d="M294,513.8L294,513.8c0.1-2.2,2-3.9,4.1-3.7c2,0.1,3.6,1.7,3.7,3.7l0,0c-0.1,2.2-2,3.9-4.1,3.7
			C295.7,517.5,294.1,515.9,294,513.8z M300.5,513.8L300.5,513.8c0.1-1.4-1.1-2.6-2.5-2.7h-0.1c-1.4,0-2.6,1.1-2.6,2.5v0.1l0,0
			c0,1.4,1.1,2.6,2.5,2.7h0.1c1.4,0,2.5-1.1,2.5-2.5C300.5,513.9,300.5,513.9,300.5,513.8L300.5,513.8z"/>
		<path class="st3" d="M302.4,516.5l0.9-0.9c0.3,0.5,0.9,0.9,1.5,0.9c0.7,0,1.2-0.5,1.2-1.5v-4.9h1.4v5c0,0.7-0.2,1.5-0.7,2
			s-1.2,0.7-1.8,0.7C303.9,517.7,303,517.3,302.4,516.5z"/>
		<path class="st3" d="M309.2,510h5.6v1.2h-4.3v2h3.8v1.2h-3.8v2h4.3v1.2h-5.7V510H309.2z"/>
		<path class="st3" d="M316.1,513.8L316.1,513.8c0-2.1,1.6-3.9,3.7-3.9c0.1,0,0.1,0,0.2,0c1.1-0.1,2.2,0.4,3,1.2l-0.9,1
			c-0.5-0.6-1.3-0.9-2.1-0.9c-1.4,0-2.5,1.2-2.5,2.6c0,0,0,0,0,0.1l0,0c-0.1,1.4,1,2.6,2.4,2.7h0.1c0.8,0,1.6-0.4,2.2-1l0.9,0.9
			c-0.8,0.9-1.9,1.4-3.1,1.3c-2.1,0.1-3.8-1.6-3.9-3.7C316.1,513.9,316.1,513.9,316.1,513.8z"/>
		<path class="st3" d="M326.2,511.3h-2.4v-1.2h6.2v1.2h-2.4v6.3h-1.3L326.2,511.3z"/>
		<path class="st3" d="M334.1,516.5l0.8-1c0.6,0.6,1.5,1,2.4,1c0.8,0,1.3-0.4,1.3-1l0,0c0-0.5-0.3-0.8-1.7-1.2
			c-1.6-0.4-2.5-0.9-2.5-2.2l0,0c0.1-1.3,1.1-2.3,2.4-2.2c0.1,0,0.1,0,0.2,0c1,0,2,0.3,2.7,1l-0.7,1c-0.6-0.5-1.3-0.7-2-0.8
			c-0.8,0-1.2,0.4-1.2,0.9l0,0c0,0.6,0.4,0.8,1.8,1.2s2.4,1,2.4,2.2l0,0c0,1.4-1.1,2.2-2.7,2.2C336.1,517.7,335,517.3,334.1,516.5z"
			/>
		<path class="st3" d="M341.5,510h3c1.8,0,2.9,1,2.9,2.5l0,0c0,1.7-1.4,2.6-3,2.6h-1.5v2.4h-1.4V510z M344.4,514
			c1,0,1.6-0.6,1.6-1.3l0,0c0-0.9-0.6-1.3-1.6-1.3h-1.5v2.7L344.4,514z"/>
		<path class="st3" d="M350.6,510h1.2l3.3,7.6h-1.4l-0.8-1.8h-3.6l-0.8,1.8h-1.4L350.6,510z M352.5,514.6l-1.3-3l-1.3,3H352.5z"/>
		<path class="st3" d="M355.7,513.8L355.7,513.8c0-2.1,1.6-3.9,3.7-3.9c0.1,0,0.1,0,0.2,0c1.1-0.1,2.2,0.4,3,1.2l-0.9,1
			c-0.5-0.6-1.3-0.9-2.1-0.9c-1.4,0-2.5,1.2-2.5,2.6c0,0,0,0,0,0.1l0,0c-0.1,1.4,1,2.6,2.4,2.7h0.1c0.8,0,1.6-0.4,2.2-1l0.9,0.9
			c-0.8,0.9-1.9,1.4-3.1,1.3c-2.1,0-3.8-1.7-3.8-3.8C355.7,513.9,355.7,513.9,355.7,513.8z"/>
		<path class="st3" d="M364,510h5.6v1.2h-4.3v2h3.8v1.2h-3.8v2h4.3v1.2H364V510z"/>
		<path class="st4" d="M513.2,417.6h1.2v5.6h3.5v1.1h-4.7V417.6z"/>
		<path class="st4" d="M518.5,420.9L518.5,420.9c0.1-1.9,1.8-3.4,3.8-3.2c1.7,0.1,3.1,1.5,3.2,3.2l0,0c-0.1,1.9-1.8,3.4-3.8,3.2
			C520,424,518.6,422.7,518.5,420.9z M524.2,420.9L524.2,420.9c0-1.3-0.9-2.3-2.2-2.4c0,0,0,0-0.1,0c-1.3,0-2.3,1-2.3,2.3v0.1l0,0
			c0,1.3,0.9,2.3,2.2,2.4h0.1c1.2,0,2.3-1,2.3-2.3C524.2,421,524.2,421,524.2,420.9L524.2,420.9z"/>
		<path class="st4" d="M526.9,417.6h3c0.6,0,1.3,0.2,1.8,0.6c0.3,0.3,0.5,0.7,0.5,1.1l0,0c0,0.7-0.4,1.3-1,1.5
			c0.8,0.2,1.3,0.8,1.3,1.6l0,0c0,1.2-1,1.8-2.5,1.8h-3.1V417.6z M530.9,419.5c0-0.5-0.4-0.9-1.2-0.9H528v1.8h1.6
			C530.4,420.4,530.9,420.1,530.9,419.5L530.9,419.5z M529.9,421.4H528v1.8h2c0.8,0,1.3-0.3,1.3-0.9l0,0
			C531.3,421.7,530.9,421.4,529.9,421.4L529.9,421.4z"/>
		<path class="st4" d="M533.8,417.6h3c0.6,0,1.3,0.2,1.8,0.6c0.3,0.3,0.5,0.7,0.5,1.1l0,0c0,0.7-0.4,1.3-1,1.5
			c0.8,0.2,1.3,0.8,1.3,1.6l0,0c0,1.2-1,1.8-2.5,1.8h-3.1V417.6z M537.8,419.5c0-0.5-0.4-0.9-1.2-0.9H535v1.8h1.6
			C537.4,420.4,537.9,420.1,537.8,419.5L537.8,419.5z M536.8,421.4H535v1.8h2c0.8,0,1.3-0.3,1.3-0.9l0,0
			C538.2,421.7,537.8,421.4,536.8,421.4L536.8,421.4z"/>
		<path class="st4" d="M542.4,421.6l-2.7-4.1h1.4l1.9,3l1.9-3h1.3l-2.7,4v2.7h-1.2L542.4,421.6z"/>
		<g>
			<path class="st5" d="M479.3,553.7h8.4v1.8h-6.4v3h5.7v1.8h-5.7v3h6.5v1.8h-8.5V553.7z"/>
			<path class="st5" d="M494.2,553.6h1.8l5,11.5h-2l-1.2-2.8h-5.4l-1.2,2.8h-2L494.2,553.6z M497.1,560.6l-2-4.5l-2,4.5H497.1z"/>
			<path class="st5" d="M502.1,563.4l1.2-1.4c1,0.9,2.2,1.5,3.6,1.5c1.2,0,2-0.6,2-1.4l0,0c0-0.8-0.5-1.2-2.6-1.7
				c-2.4-0.6-3.8-1.3-3.8-3.4l0,0c0-2,1.6-3.3,3.9-3.3c1.5,0,3,0.5,4.1,1.4l-1.1,1.5c-0.9-0.7-2-1.1-3.1-1.2c-1.2,0-1.8,0.6-1.8,1.3
				l0,0c0,0.9,0.5,1.3,2.7,1.8c2.4,0.6,3.6,1.5,3.6,3.3l0,0c0,2.1-1.7,3.4-4.1,3.4C505,565.3,503.4,564.6,502.1,563.4z"/>
			<path class="st5" d="M515.8,555.6h-3.6v-1.9h9.2v1.8h-3.6v9.5h-2L515.8,555.6z"/>
			<path class="st5" d="M528.4,553.7h4.5c2.7,0,4.3,1.5,4.3,3.8l0,0c0,2.5-2,3.9-4.5,3.9h-2.3v3.7h-2V553.7z M532.7,559.6
				c1.5,0,2.5-0.8,2.5-2l0,0c0-1.3-1-2-2.5-2h-2.3v4.1L532.7,559.6z"/>
			<path class="st5" d="M539.2,553.7h2v9.5h6v1.8h-8V553.7z"/>
			<path class="st5" d="M553.3,553.6h1.8l5,11.5H558l-1.2-2.8h-5.4l-1.2,2.8h-2L553.3,553.6z M556.2,560.6l-2-4.5l-2,4.5H556.2z"/>
			<path class="st5" d="M561.7,563.6l6.7-8.1h-6.5v-1.8h9.1v1.5l-6.7,8.1h6.7v1.8h-9.3V563.6z"/>
			<path class="st5" d="M577.5,553.6h1.8l5,11.5h-2.1l-1.2-2.8h-5.4l-1.2,2.8h-2L577.5,553.6z M580.4,560.6l-2-4.5l-2,4.5H580.4z"/>
		</g>
		<rect x="257.6" y="491.5" class="st6" width="1.1" height="0.4"/>
		<rect x="42.8" y="437.1" class="st6" width="0.4" height="1.1"/>
		
			<rect x="69.3" y="313.2" transform="matrix(0.7071 -0.7071 0.7071 0.7071 -219.8438 148.918)" class="st7" width="1.1" height="53.3"/>
		
			<rect x="93.4" y="289.1" transform="matrix(0.7071 -0.7071 0.7071 0.7071 -195.7335 158.8978)" class="st7" width="1.1" height="53.3"/>
		
			<rect x="207.8" y="174.6" transform="matrix(0.7071 -0.7071 0.7071 0.7071 -81.4137 206.3341)" class="st7" width="1.1" height="53.7"/>
		
			<rect x="279.6" y="120" transform="matrix(0.7071 -0.7071 0.7071 0.7071 -16.592 238.9638)" class="st7" width="1.1" height="39"/>
		<polygon class="st6" points="153.1,294.8 153.1,294.7 153.8,294 		"/>
		<polygon class="st6" points="115.1,256.8 115,256.7 115.8,256 		"/>
		
			<rect x="263.8" y="135.8" transform="matrix(0.7071 -0.7071 0.7071 0.7071 -32.3768 232.3957)" class="st7" width="1.1" height="39"/>
		
			<rect x="252.5" y="196.9" transform="matrix(0.6869 -0.7267 0.7267 0.6869 -63.9781 245.5854)" class="st6" width="1.1" height="0.3"/>
		
			<rect x="299.7" y="147.7" transform="matrix(0.7092 -0.705 0.705 0.7092 -16.8641 254.659)" class="st6" width="1.1" height="0.1"/>
		
			<rect x="287.5" y="159.8" transform="matrix(0.705 -0.7092 0.7092 0.705 -28.4026 251.4453)" class="st6" width="1.1" height="0.1"/>
		<path class="st8" d="M266.5,125.6"/>
		
			<rect x="310.4" y="136.9" transform="matrix(0.7483 -0.6634 0.6634 0.7483 -12.5798 240.7631)" class="st6" width="1.1" height="0.1"/>
		
			<rect x="321.9" y="125.5" transform="matrix(0.6654 -0.7465 0.7465 0.6654 14.1627 282.7448)" class="st6" width="1.1" height="0.1"/>
		
			<rect x="339.3" y="60.8" transform="matrix(0.707 -0.7072 0.7072 0.707 42.7379 263.8903)" class="st7" width="1.1" height="39.1"/>
		<polygon class="st7" points="375.9,80.7 374.8,80.7 374.8,71.7 369.3,71.7 344.8,47.3 345.6,46.5 369.7,70.6 375.9,70.6 		"/>
		<rect x="387" y="40.3" class="st7" width="1.1" height="40.4"/>
		<rect x="399.5" y="40.4" class="st7" width="1.1" height="40.4"/>
		<rect x="562.9" y="40.4" class="st7" width="1.1" height="40.3"/>
		<rect x="593.5" y="40.4" class="st7" width="1.1" height="40.3"/>
		<rect x="624" y="40.4" class="st7" width="1.1" height="40.4"/>
		<rect x="645.4" y="40.4" class="st7" width="1.1" height="40.3"/>
		<rect x="688.9" y="40.4" class="st7" width="1.1" height="40.3"/>
		<path class="st8" d="M700.1,153.6"/>
		<path class="st8" d="M704.1,149.6"/>
		<path class="st8" d="M760.9,76.7"/>
		<polygon class="st7" points="751.3,196.7 750.5,196 786.1,160.4 798.1,172.4 827,143.5 827.8,144.2 798.1,174 786.1,162 		"/>
		<polygon class="st7" points="775.1,220.6 774.3,219.8 809.1,185 797.7,173.6 798.5,172.8 810.6,185 		"/>
		
			<rect x="838.3" y="215.2" transform="matrix(0.7071 -0.7071 0.7071 0.7071 100.4202 673.8913)" class="st7" width="50.8" height="1.1"/>
		<path class="st8" d="M897.7,213.3"/>
		
			<rect x="824.6" y="342.9" transform="matrix(0.7071 -0.7071 0.7071 0.7071 -0.8107 683.9251)" class="st6" width="1.1" height="0.1"/>
		
			<rect x="745" y="184.5" transform="matrix(0.706 -0.7082 0.7082 0.706 30.8358 606.1874)" class="st7" width="1.1" height="162.9"/>
		
			<rect x="740.3" y="251.6" transform="matrix(0.7071 -0.7071 0.7071 0.7071 44.3641 611.3878)" class="st7" width="39.8" height="1.1"/>
		<polygon class="st7" points="226.1,360.2 225.3,359.4 265.9,318.7 317.7,267.1 318.5,267.8 266.7,319.5 		"/>
		<path class="st8" d="M208.4,261.3"/>
		
			<rect x="266.4" y="219.7" transform="matrix(0.7097 -0.7045 0.7045 0.7097 -106.0372 263.6906)" class="st7" width="1.1" height="81.6"/>
		
			<rect x="236.8" y="249.3" transform="matrix(0.7071 -0.7071 0.7071 0.7071 -135.6739 252.8274)" class="st7" width="1.1" height="81.8"/>
		<path class="st9" d="M733.5,104.1"/>
		<path class="st9" d="M740.3,97.2"/>
		
			<rect x="874.2" y="222.6" transform="matrix(0.7071 -0.7071 0.7071 0.7071 102.6089 694.0029)" class="st7" width="29.7" height="1.1"/>
		<polyline class="st10" points="121.5,347.9 149.6,376.1 230.1,456.7 		"/>
		
			<rect x="175.3" y="325.5" transform="matrix(0.7076 -0.7066 0.7066 0.7076 -232.8957 241.9104)" class="st7" width="1.1" height="153.7"/>
		<line class="st11" x1="187.4" y1="337" x2="149.6" y2="376.1"/>
		
			<rect x="141.4" y="356" transform="matrix(0.6948 -0.7192 0.7192 0.6948 -204.9922 230.0591)" class="st7" width="54.3" height="1.1"/>
		<line class="st11" x1="214.2" y1="363.9" x2="175.6" y2="402.3"/>
		
			<rect x="167.7" y="382.6" transform="matrix(0.7086 -0.7056 0.7056 0.7086 -213.5599 249.2155)" class="st7" width="54.5" height="1.1"/>
		<line class="st11" x1="118.6" y1="392.8" x2="142.5" y2="368.9"/>
		
			<rect x="113.6" y="380.3" transform="matrix(0.7071 -0.7071 0.7071 0.7071 -231.0758 203.8242)" class="st7" width="33.8" height="1.1"/>
		<path class="st12" d="M108.8,424.3"/>
		<polygon class="st7" points="155.9,457.1 115.2,416.4 107.8,423.3 107.1,422.6 115.3,414.9 156.6,456.3 		"/>
		<polygon class="st7" points="168.9,444 160.9,435.2 184.9,411.4 185.7,412.2 162.4,435.2 169.7,443.3 		"/>
		<line class="st11" x1="190.2" y1="464.2" x2="214.2" y2="440.7"/>
		
			<rect x="185.4" y="451.9" transform="matrix(0.7163 -0.6978 0.6978 0.7163 -258.3588 269.4641)" class="st7" width="33.6" height="1.1"/>
		
			<rect x="736" y="86.4" transform="matrix(0.7071 -0.7071 0.7071 0.7071 158.3461 556.1722)" class="st2" width="29.1" height="1.1"/>
		
			<rect x="878.3" y="244.9" transform="matrix(0.7071 -0.7071 0.7071 0.7071 89.9259 708.0105)" class="st7" width="42.6" height="1.1"/>
		<polygon class="st7" points="638.3,219.5 637.3,174.8 417.2,174.8 417,219.4 415.9,219.4 416.1,173.8 638.3,173.8 638.4,174.3 
			639.4,219.5 		"/>
		<rect x="43.2" y="437.1" class="st7" width="40.5" height="1.1"/>
		
			<rect x="133.9" y="249" transform="matrix(0.7071 -0.7071 0.7071 0.7071 -155.535 175.8037)" class="st7" width="1.1" height="53.3"/>
		
			<rect x="231.6" y="150.8" transform="matrix(0.7071 -0.7071 0.7071 0.7071 -57.6207 216.1878)" class="st7" width="1.1" height="53.7"/>
		
			<rect x="307.9" y="91.7" transform="matrix(0.7071 -0.7071 0.7071 0.7071 11.4927 250.7646)" class="st7" width="1.1" height="39.6"/>
		
			<rect x="320.7" y="79.2" transform="matrix(0.7071 -0.7071 0.7071 0.7071 24.2407 256.103)" class="st7" width="1.1" height="39.2"/>
		<polygon class="st7" points="313.9,200.4 313.5,200 313.3,200.2 291.4,178.3 292.2,177.6 313.7,199.1 336.2,176.3 336.9,177.1 
			314.4,199.8 314.5,199.9 		"/>
		<polygon class="st7" points="350,235.5 327.8,213.5 327.8,213.5 327.2,212.9 327.6,212.5 327.4,212.3 349.8,189.9 350.5,190.7 
			328.5,212.7 350.7,234.7 		"/>
		<polygon class="st7" points="337.5,287.6 318.1,268.2 318.1,268.2 317.5,267.6 317.9,267.2 317.7,267.1 372.2,212.4 373,213.2 
			318.8,267.4 338.2,286.8 		"/>
		<rect x="82.8" y="491.9" class="st7" width="1.1" height="51.8"/>
		<rect x="205" y="491.9" class="st2" width="1.1" height="51.8"/>
		<rect x="257.6" y="492.5" class="st2" width="1.1" height="51"/>
		<rect x="257.6" y="491.9" class="st7" width="1.1" height="51.8"/>
		<rect x="204.3" y="492.1" class="st7" width="1.1" height="51.8"/>
	</g>
</g>
<g id="Buttons">
	<g id="_x30_1_1_">
		<circle class="st13" cx="483.7" cy="589" r="19.5"/>
		<g>
			<g>
				<g>
					<path class="st2" d="M484.1,583.1l-3.3,0.9l-0.7-2.6l4.9-1.6h2.2v18.3h-3.2V583.1z"/>
				</g>
			</g>
		</g>
	</g>
	<g id="_x30_2_1_">
		<circle class="st14" cx="367.8" cy="445.2" r="19.5"/>
		<g>
			<g>
				<g>
					<path class="st2" d="M361.2,451.9l6.3-5.3c2.5-2.1,3.4-3.3,3.4-4.9c0-1.8-1.3-2.8-2.9-2.8s-2.8,0.9-4.2,2.7l-2.3-1.8
						c1.7-2.4,3.5-3.8,6.7-3.8c3.6,0,6,2.2,6,5.4v0.1c0,2.9-1.5,4.4-4.7,7l-3.7,3.1h8.7v2.8h-13.2V451.9z"/>
				</g>
			</g>
		</g>
	</g>
	<g id="_x30_3_1_">
		<circle class="st15" cx="64.2" cy="307.2" r="19.5"/>
		<g>
			<g>
				<g>
					<path class="st2" d="M57.5,313.2l2.2-2.1c1.3,1.5,2.8,2.4,4.8,2.4c1.8,0,3.1-1.1,3.1-2.8v-0.1c0-1.8-1.6-2.8-4.2-2.8H62l-0.5-2
						l4.9-5.2h-7.9v-2.8h12v2.4l-5.1,5.2c2.8,0.3,5.4,1.7,5.4,5.1v0.1c0,3.4-2.6,5.8-6.4,5.8C61.3,316.4,59,315.1,57.5,313.2z"/>
				</g>
			</g>
		</g>
	</g>
	<g id="_x30_4_1_">
		<circle class="st15" cx="318.2" cy="319.2" r="19.5"/>
		<g>
			<g>
				<g>
					<path class="st2" d="M320.2,324.3h-9.2l-0.6-2.3l10.1-12h2.7v11.6h2.6v2.6h-2.6v4.1h-3.1V324.3z M320.2,321.6v-7.2l-6,7.2
						H320.2z"/>
				</g>
			</g>
		</g>
	</g>
	<g id="_x30_5_1_">
		<circle class="st15" cx="820.2" cy="299.2" r="19.5"/>
		<g>
			<g>
				<g>
					<path class="st2" d="M813.5,305.7l2-2.3c1.5,1.4,3,2.2,4.7,2.2c2.2,0,3.6-1.2,3.6-3.1v-0.1c0-1.8-1.6-3-3.8-3
						c-1.3,0-2.4,0.4-3.4,0.8l-1.9-1.3l0.5-8.9h10.9v2.8H818l-0.3,4.3c0.9-0.3,1.7-0.5,2.9-0.5c3.5,0,6.3,1.9,6.3,5.7v0.1
						c0,3.7-2.7,6.2-6.8,6.2C817.4,308.4,815.2,307.3,813.5,305.7z"/>
				</g>
			</g>
		</g>
	</g>
	<g id="_x30_9_1_">
		<circle class="st13" cx="713.2" cy="288.2" r="19.5"/>
		<g>
			<g>
				<g>
					<path class="st2" d="M716.9,288.9c-1,1.2-2.4,2-4.3,2c-3.9,0-6.4-2.3-6.4-5.8v-0.1c0-3.6,2.8-6.3,6.8-6.3
						c2.3,0,3.8,0.6,5.1,1.9c1.3,1.4,2.2,3.4,2.2,6.9v0.1c0,5.9-2.9,9.9-7.8,9.9c-2.5,0-4.3-0.9-5.8-2.2l1.7-2.4
						c1.4,1.1,2.6,1.7,4.2,1.7C715.7,294.7,716.9,291.4,716.9,288.9z M716.8,284.9L716.8,284.9c0-1.9-1.5-3.4-3.8-3.4
						c-2.3,0-3.6,1.5-3.6,3.4v0.1c0,1.9,1.5,3.3,3.7,3.3C715.4,288.2,716.8,286.7,716.8,284.9z"/>
				</g>
			</g>
		</g>
	</g>
	<g id="_x31_0_1_">
		<circle class="st13" cx="92.5" cy="465.2" r="19.5"/>
		<g>
			<g>
				<g>
					<path class="st2" d="M83.6,459.2l-3.3,0.9l-0.7-2.6l4.9-1.6h2.2v18.3h-3.2V459.2z"/>
				</g>
				<g>
					<path class="st2" d="M89.6,465.2L89.6,465.2c0-5.3,3.2-9.5,8-9.5c4.8,0,7.9,4.2,7.9,9.4v0.1c0,5.2-3.2,9.4-8,9.4
						S89.6,470.4,89.6,465.2z M102.1,465.2L102.1,465.2c0-3.6-1.8-6.6-4.7-6.6s-4.6,2.9-4.6,6.5v0.1c0,3.6,1.8,6.5,4.7,6.5
						S102.1,468.8,102.1,465.2z"/>
				</g>
			</g>
		</g>
	</g>
	<g id="_x31_1_1_">
		<circle class="st13" cx="718.2" cy="196.2" r="19.5"/>
		<g>
			<g>
				<g>
					<path class="st2" d="M714,190.3l-3.3,0.9l-0.7-2.6l4.9-1.6h2.2v18.3H714V190.3z"/>
				</g>
				<g>
					<path class="st2" d="M723.1,190.3l-3.3,0.9l-0.7-2.6l4.9-1.6h2.2v18.3h-3.2V190.3z"/>
				</g>
			</g>
		</g>
	</g>
	<g id="_x31_5_1_">
		<circle class="st13" cx="579.2" cy="588.2" r="19.5"/>
		<g>
			<g>
				<g>
					<path class="st2" d="M571.6,582.1l-3.3,0.9l-0.7-2.6l4.9-1.6h2.2v18.3h-3.2V582.1z"/>
				</g>
				<g>
					<path class="st2" d="M577.3,594.7l2-2.3c1.5,1.4,3,2.2,4.7,2.2c2.2,0,3.6-1.2,3.6-3.1v-0.1c0-1.8-1.6-3-3.8-3
						c-1.3,0-2.4,0.4-3.4,0.8l-1.9-1.3l0.5-8.9h10.9v2.8h-8.1l-0.3,4.3c0.9-0.3,1.7-0.5,2.9-0.5c3.5,0,6.3,1.9,6.3,5.7v0.1
						c0,3.7-2.7,6.2-6.8,6.2C581.2,597.5,579,596.4,577.3,594.7z"/>
				</g>
			</g>
		</g>
	</g>
	<g id="_x31_6_1_">
		<circle class="st16" cx="232.7" cy="442.7" r="19.5"/>
		<g>
			<g>
				<g>
					<path class="st2" d="M224.6,436.7l-3.3,0.9l-0.7-2.6l4.9-1.6h2.2v18.3h-3.2V436.7z"/>
				</g>
				<g>
					<path class="st2" d="M232.8,450.2c-1.4-1.4-2.2-3.3-2.2-6.9v-0.1c0-5.6,2.7-9.9,7.8-9.9c2.4,0,4,0.8,5.6,2l-1.7,2.5
						c-1.3-1-2.3-1.6-4-1.6c-3.2,0-4.3,3.3-4.4,5.8c1.1-1.1,2.4-1.8,4.4-1.8c3.5,0,6.3,2.1,6.3,5.7v0.1c0,3.6-2.9,6.2-6.8,6.2
						C235.6,452.1,234,451.4,232.8,450.2z M241.4,446L241.4,446c0-1.9-1.5-3.2-3.7-3.2s-3.7,1.5-3.7,3.2v0.1c0,1.8,1.5,3.2,3.8,3.2
						C240.1,449.3,241.4,447.9,241.4,446z"/>
				</g>
			</g>
		</g>
	</g>
	<g id="_x31_7_1_">
		<circle class="st17" cx="425.2" cy="60.2" r="19.5"/>
		<g>
			<g>
				<g>
					<path class="st2" d="M417.6,54.3l-3.3,0.9l-0.7-2.6l4.9-1.6h2.2v18.3h-3.2V54.3z"/>
				</g>
				<g>
					<path class="st2" d="M433,54h-9.2v-2.8h12.8v2.4l-8.2,15.8h-3.6L433,54z"/>
				</g>
			</g>
		</g>
	</g>
	<g id="_x32_0_1_">
		<circle class="st17" cx="531.2" cy="588.2" r="19.5"/>
		<g>
			<g>
				<g>
					<path class="st2" d="M515.8,594.8l6.3-5.3c2.5-2.1,3.4-3.3,3.4-4.9c0-1.8-1.3-2.8-2.9-2.8s-2.8,0.9-4.2,2.7l-2.3-1.8
						c1.7-2.4,3.5-3.8,6.7-3.8c3.6,0,6,2.2,6,5.4v0.1c0,2.9-1.5,4.4-4.7,7l-3.7,3.1h8.7v2.8h-13.2V594.8z"/>
				</g>
				<g>
					<path class="st2" d="M530.7,588.2L530.7,588.2c0-5.3,3.2-9.5,8-9.5c4.8,0,7.9,4.2,7.9,9.4v0.1c0,5.2-3.2,9.4-8,9.4
						S530.7,593.4,530.7,588.2z M543.3,588.2L543.3,588.2c0-3.6-1.8-6.6-4.7-6.6s-4.6,2.9-4.6,6.5v0.1c0,3.6,1.8,6.5,4.7,6.5
						C541.5,594.7,543.3,591.8,543.3,588.2z"/>
				</g>
			</g>
		</g>
	</g>
	<g id="_x32_2_1_">
		<circle class="st18" cx="451.2" cy="463.2" r="19.5"/>
		<g>
			<g>
				<g>
					<path class="st2" d="M437.2,469.9l6.3-5.3c2.5-2.1,3.4-3.3,3.4-4.9c0-1.8-1.3-2.8-2.9-2.8s-2.8,0.9-4.2,2.7l-2.3-1.8
						c1.7-2.4,3.5-3.8,6.7-3.8c3.6,0,6,2.2,6,5.4v0.1c0,2.9-1.5,4.4-4.7,7l-3.7,3.1h8.7v2.8h-13.2V469.9z"/>
				</g>
				<g>
					<path class="st2" d="M452,469.9l6.3-5.3c2.5-2.1,3.4-3.3,3.4-4.9c0-1.8-1.3-2.8-2.9-2.8s-2.8,0.9-4.2,2.7l-2.3-1.8
						c1.7-2.4,3.5-3.8,6.7-3.8c3.6,0,6,2.2,6,5.4v0.1c0,2.9-1.5,4.4-4.7,7l-3.7,3.1h8.7v2.8H452V469.9z"/>
				</g>
			</g>
		</g>
	</g>
	<g id="_x32_3_1_">
		<circle class="st13" cx="764.2" cy="231.2" r="19.5"/>
		<g>
			<g>
				<g>
					<path class="st2" d="M750.2,237.7l6.3-5.3c2.5-2.1,3.4-3.3,3.4-4.9c0-1.8-1.3-2.8-2.9-2.8s-2.8,0.9-4.2,2.7l-2.3-1.8
						c1.7-2.4,3.5-3.8,6.7-3.8c3.6,0,6,2.2,6,5.4v0.1c0,2.9-1.5,4.4-4.7,7l-3.7,3.1h8.7v2.8h-13.2V237.7z"/>
				</g>
				<g>
					<path class="st2" d="M764.8,237.4l2.2-2.1c1.3,1.5,2.8,2.4,4.8,2.4c1.8,0,3.1-1.1,3.1-2.8v-0.1c0-1.8-1.6-2.8-4.2-2.8h-1.5
						l-0.5-2l4.9-5.2h-7.9v-2.8h12v2.4l-5.1,5.2c2.8,0.3,5.4,1.7,5.4,5.1v0.1c0,3.4-2.6,5.8-6.4,5.8
						C768.6,240.6,766.4,239.2,764.8,237.4z"/>
				</g>
			</g>
		</g>
	</g>
	<g id="_x32_4_1_">
		<circle class="st16" cx="654.2" cy="240.2" r="19.5"/>
		<g>
			<g>
				<g>
					<path class="st2" d="M639.5,246.9l6.3-5.3c2.5-2.1,3.4-3.3,3.4-4.9c0-1.8-1.3-2.8-2.9-2.8s-2.8,0.9-4.2,2.7l-2.3-1.8
						c1.7-2.4,3.5-3.8,6.7-3.8c3.6,0,6,2.2,6,5.4v0.1c0,2.9-1.5,4.4-4.7,7l-3.7,3.1h8.7v2.8h-13.2V246.9z"/>
				</g>
				<g>
					<path class="st2" d="M663.2,245.3H654l-0.6-2.3l10.1-12h2.7v11.6h2.6v2.6h-2.6v4.1h-3.1V245.3z M663.2,242.7v-7.2l-6,7.2H663.2
						z"/>
				</g>
			</g>
		</g>
	</g>
	<g id="_x32_5_1_">
		<circle class="st15" cx="407.2" cy="413.2" r="19.5"/>
		<g>
			<g>
				<g>
					<path class="st2" d="M393.1,419.7l6.3-5.3c2.5-2.1,3.4-3.3,3.4-4.9c0-1.8-1.3-2.8-2.9-2.8s-2.8,0.9-4.2,2.7l-2.3-1.8
						c1.7-2.4,3.5-3.8,6.7-3.8c3.6,0,6,2.2,6,5.4v0.1c0,2.9-1.5,4.4-4.7,7l-3.7,3.1h8.7v2.8h-13.2V419.7z"/>
				</g>
				<g>
					<path class="st2" d="M407.8,419.8l2-2.3c1.5,1.4,3,2.2,4.7,2.2c2.2,0,3.6-1.2,3.6-3.1v-0.1c0-1.8-1.6-3-3.8-3
						c-1.3,0-2.4,0.4-3.4,0.8L409,413l0.5-8.9h10.9v2.8h-8.1l-0.3,4.3c0.9-0.3,1.7-0.5,2.9-0.5c3.5,0,6.3,1.9,6.3,5.7v0.1
						c0,3.7-2.7,6.2-6.8,6.2C411.7,422.6,409.5,421.4,407.8,419.8z"/>
				</g>
			</g>
		</g>
	</g>
	<g id="_x32_6_1_">
		<circle class="st13" cx="645.2" cy="423.2" r="19.5"/>
		<g>
			<g>
				<g>
					<path class="st2" d="M630.7,429.8l6.3-5.3c2.5-2.1,3.4-3.3,3.4-4.9c0-1.8-1.3-2.8-2.9-2.8s-2.8,0.9-4.2,2.7l-2.3-1.8
						c1.7-2.4,3.5-3.8,6.7-3.8c3.6,0,6,2.2,6,5.4v0.1c0,2.9-1.5,4.4-4.7,7l-3.7,3.1h8.7v2.8h-13.2V429.8z"/>
				</g>
				<g>
					<path class="st2" d="M647.9,430.7c-1.4-1.4-2.2-3.3-2.2-6.9v-0.1c0-5.6,2.7-9.9,7.8-9.9c2.4,0,4,0.8,5.6,2l-1.7,2.5
						c-1.3-1-2.3-1.6-4-1.6c-3.2,0-4.3,3.3-4.4,5.8c1.1-1.1,2.4-1.8,4.4-1.8c3.5,0,6.3,2.1,6.3,5.7v0.1c0,3.6-2.9,6.2-6.8,6.2
						C650.7,432.6,649.1,431.9,647.9,430.7z M656.5,426.5L656.5,426.5c0-1.9-1.5-3.2-3.7-3.2s-3.7,1.5-3.7,3.2v0.1
						c0,1.8,1.5,3.2,3.8,3.2S656.5,428.4,656.5,426.5z"/>
				</g>
			</g>
		</g>
	</g>
	<g id="_x32_7_1_">
		<circle class="st16" cx="156.2" cy="509.2" r="19.5"/>
		<g>
			<g>
				<g>
					<path class="st2" d="M142.3,515.9l6.3-5.3c2.5-2.1,3.4-3.3,3.4-4.9c0-1.8-1.3-2.8-2.9-2.8s-2.8,0.9-4.2,2.7l-2.3-1.8
						c1.7-2.4,3.5-3.8,6.7-3.8c3.6,0,6,2.2,6,5.4v0.1c0,2.9-1.5,4.4-4.7,7l-3.7,3.1h8.7v2.8h-13.2V515.9z"/>
				</g>
				<g>
					<path class="st2" d="M166.5,503h-9.2v-2.8h12.8v2.4l-8.2,15.8h-3.6L166.5,503z"/>
				</g>
			</g>
		</g>
	</g>
	<g id="_x32_8">
		<circle class="st16" cx="281.8" cy="211.5" r="19.5"/>
		<g>
			<g>
				<g>
					<path class="st2" d="M267.5,218.1l6.3-5.3c2.5-2.1,3.4-3.3,3.4-4.9c0-1.8-1.3-2.8-2.9-2.8s-2.8,0.9-4.2,2.7l-2.3-1.8
						c1.7-2.4,3.5-3.8,6.7-3.8c3.6,0,6,2.2,6,5.4v0.1c0,2.9-1.5,4.4-4.7,7l-3.7,3.1h8.7v2.8h-13.2V218.1z"/>
				</g>
				<g>
					<path class="st2" d="M282.2,215.7L282.2,215.7c0-2.2,1.2-3.6,3.3-4.5c-1.5-0.8-2.7-2-2.7-4.1v-0.1c0-2.8,2.7-4.9,6.3-4.9
						s6.3,2.1,6.3,4.9v0.1c0,2-1.1,3.2-2.7,4.1c2,0.9,3.3,2.2,3.3,4.4v0.1c0,3.2-3,5.3-6.9,5.3C285.2,220.9,282.2,218.8,282.2,215.7
						z M293,215.5L293,215.5c0-1.7-1.7-2.8-3.8-2.8s-3.8,1.1-3.8,2.8v0.1c0,1.5,1.4,2.7,3.8,2.7S293,217,293,215.5z M292.4,207.5
						L292.4,207.5c0-1.5-1.3-2.6-3.2-2.6s-3.2,1.1-3.2,2.5v0.1c0,1.6,1.4,2.7,3.2,2.7S292.4,209,292.4,207.5z"/>
				</g>
			</g>
		</g>
	</g>
	<g id="_x32_9">
		<circle class="st16" cx="234.2" cy="254.2" r="19.5"/>
		<g>
			<g>
				<g>
					<path class="st2" d="M219.6,260.8l6.3-5.3c2.5-2.1,3.4-3.3,3.4-4.9c0-1.8-1.3-2.8-2.9-2.8s-2.8,0.9-4.2,2.7l-2.3-1.8
						c1.7-2.4,3.5-3.8,6.7-3.8c3.6,0,6,2.2,6,5.4v0.1c0,2.9-1.5,4.4-4.7,7l-3.7,3.1h8.7v2.8h-13.2V260.8z"/>
				</g>
				<g>
					<path class="st2" d="M245.4,254.9c-1,1.2-2.4,2-4.3,2c-3.9,0-6.4-2.3-6.4-5.8v-0.1c0-3.6,2.8-6.3,6.8-6.3
						c2.3,0,3.8,0.6,5.1,1.9c1.3,1.4,2.2,3.4,2.2,6.9v0.1c0,5.8-2.9,9.9-7.8,9.9c-2.5,0-4.3-0.9-5.8-2.2l1.7-2.4
						c1.4,1.1,2.6,1.7,4.2,1.7C244.2,260.7,245.4,257.4,245.4,254.9z M245.3,250.9L245.3,250.9c0-1.9-1.5-3.4-3.8-3.4
						c-2.3,0-3.6,1.5-3.6,3.4v0.1c0,1.9,1.5,3.2,3.7,3.2C243.9,254.2,245.3,252.7,245.3,250.9z"/>
				</g>
			</g>
		</g>
	</g>
	<g id="_x33_0">
		<circle class="st18" cx="813.2" cy="231.2" r="19.5"/>
		<g>
			<g>
				<g>
					<path class="st2" d="M797.6,237.4l2.2-2.1c1.3,1.5,2.8,2.4,4.8,2.4c1.8,0,3.1-1.1,3.1-2.8v-0.1c0-1.8-1.6-2.8-4.2-2.8h-1.5
						l-0.5-2l4.9-5.2h-7.9v-2.8h12v2.4l-5.1,5.2c2.8,0.3,5.4,1.7,5.4,5.1v0.1c0,3.4-2.6,5.8-6.4,5.8
						C801.4,240.6,799.2,239.3,797.6,237.4z"/>
				</g>
				<g>
					<path class="st2" d="M812.9,231.2L812.9,231.2c0-5.3,3.2-9.5,8-9.5c4.8,0,7.9,4.2,7.9,9.4v0.1c0,5.2-3.2,9.4-8,9.4
						S812.9,236.4,812.9,231.2z M825.4,231.2L825.4,231.2c0-3.6-1.8-6.6-4.7-6.6c-2.8,0-4.6,2.9-4.6,6.5v0.1c0,3.6,1.8,6.5,4.7,6.5
						S825.4,234.8,825.4,231.2z"/>
				</g>
			</g>
		</g>
	</g>
	<g id="_x33_4">
		<circle class="st16" cx="262.8" cy="443.5" r="19.5"/>
		<g>
			<g>
				<g>
					<path class="st2" d="M247.7,449.7l2.2-2.1c1.3,1.5,2.8,2.4,4.8,2.4c1.8,0,3.1-1.1,3.1-2.8v-0.1c0-1.8-1.6-2.8-4.2-2.8h-1.5
						l-0.5-2l4.9-5.2h-7.9v-2.8h12v2.4l-5.1,5.2c2.8,0.3,5.4,1.7,5.4,5.1v0.1c0,3.4-2.6,5.8-6.4,5.8
						C251.5,452.9,249.2,451.5,247.7,449.7z"/>
				</g>
				<g>
					<path class="st2" d="M272.2,448.5H263l-0.6-2.3l10.1-12h2.7v11.6h2.6v2.6h-2.6v4.1h-3.1V448.5z M272.2,445.8v-7.2l-6,7.2H272.2
						z"/>
				</g>
			</g>
		</g>
	</g>
	<g id="_x33_5">
		<circle class="st17" cx="514.6" cy="60" r="19.5"/>
		<g>
			<g>
				<g>
					<path class="st2" d="M500.5,66.1l2.2-2.1c1.3,1.5,2.8,2.4,4.8,2.4c1.8,0,3.1-1.1,3.1-2.8v-0.1c0-1.8-1.6-2.8-4.2-2.8H505
						l-0.5-2l4.9-5.2h-7.9v-2.8h12v2.4l-5.1,5.2c2.8,0.3,5.4,1.7,5.4,5.1v0.1c0,3.4-2.6,5.8-6.4,5.8C504.3,69.3,502,67.9,500.5,66.1
						z"/>
				</g>
				<g>
					<path class="st2" d="M515.3,66.5l2-2.3c1.5,1.4,3,2.2,4.7,2.2c2.2,0,3.6-1.2,3.6-3.1v-0.1c0-1.8-1.6-3-3.8-3
						c-1.3,0-2.4,0.4-3.4,0.8l-1.9-1.3l0.5-8.9H528v2.8h-8.1l-0.3,4.3c0.9-0.3,1.7-0.5,2.9-0.5c3.5,0,6.3,1.9,6.3,5.7v0.1
						c0,3.7-2.7,6.2-6.8,6.2C519.2,69.3,517.1,68.2,515.3,66.5z"/>
				</g>
			</g>
		</g>
	</g>
	<g id="_x33_7">
		<circle class="st18" cx="726.5" cy="149.5" r="19.5"/>
		<g>
			<g>
				<g>
					<path class="st2" d="M712.6,155.6l2.2-2.1c1.3,1.5,2.8,2.4,4.8,2.4c1.8,0,3.1-1.1,3.1-2.8v-0.1c0-1.8-1.6-2.8-4.2-2.8h-1.5
						l-0.5-2l4.9-5.2h-7.9v-2.8h12v2.4l-5.1,5.2c2.8,0.3,5.4,1.7,5.4,5.1v0.1c0,3.4-2.6,5.8-6.4,5.8
						C716.4,158.8,714.2,157.4,712.6,155.6z"/>
				</g>
				<g>
					<path class="st2" d="M736.8,143.1h-9.2v-2.8h12.8v2.4l-8.2,15.8h-3.6L736.8,143.1z"/>
				</g>
			</g>
		</g>
	</g>
	<g id="_x33_8">
		<circle class="st18" cx="649.5" cy="148.8" r="19.5"/>
		<g>
			<g>
				<g>
					<path class="st2" d="M635,155l2.2-2.1c1.3,1.5,2.8,2.4,4.8,2.4c1.8,0,3.1-1.1,3.1-2.8v-0.1c0-1.8-1.6-2.8-4.2-2.8h-1.5l-0.5-2
						l4.9-5.2H636v-2.8h12v2.4l-5.1,5.2c2.8,0.3,5.4,1.7,5.4,5.1v0.1c0,3.4-2.6,5.8-6.4,5.8C638.8,158.2,636.5,156.9,635,155z"/>
				</g>
				<g>
					<path class="st2" d="M650,152.9L650,152.9c0-2.2,1.2-3.6,3.3-4.5c-1.5-0.8-2.7-2-2.7-4.1v-0.1c0-2.8,2.7-4.9,6.3-4.9
						c3.6,0,6.3,2.1,6.3,4.9v0.1c0,2-1.1,3.2-2.7,4.1c2,0.9,3.3,2.2,3.3,4.4v0.1c0,3.2-3,5.3-6.9,5.3S650,156.1,650,152.9z
						 M660.8,152.7L660.8,152.7c0-1.7-1.7-2.8-3.8-2.8s-3.8,1.1-3.8,2.8v0.1c0,1.5,1.4,2.7,3.8,2.7
						C659.4,155.5,660.8,154.2,660.8,152.7z M660.2,144.7L660.2,144.7c0-1.5-1.3-2.6-3.2-2.6c-1.9,0-3.2,1.1-3.2,2.5v0.1
						c0,1.6,1.4,2.7,3.2,2.7C658.8,147.4,660.2,146.2,660.2,144.7z"/>
				</g>
			</g>
		</g>
	</g>
	<g id="_x34_0">
		<circle class="st18" cx="91.5" cy="371.5" r="19.5"/>
		<g>
			<g>
				<g>
					<path class="st2" d="M84.8,376.5h-9.2l-0.6-2.3l10.1-12h2.7v11.6h2.6v2.6h-2.6v4.1h-3.1V376.5z M84.8,373.9v-7.2l-6,7.2H84.8z"
						/>
				</g>
				<g>
					<path class="st2" d="M92.1,371.6L92.1,371.6c0-5.3,3.2-9.5,8-9.5c4.8,0,7.9,4.2,7.9,9.4v0.1c0,5.2-3.2,9.4-8,9.4
						S92.1,376.8,92.1,371.6z M104.7,371.6L104.7,371.6c0-3.6-1.8-6.6-4.7-6.6c-2.8,0-4.6,2.9-4.6,6.5v0.1c0,3.6,1.8,6.5,4.7,6.5
						C102.9,378,104.7,375.1,104.7,371.6z"/>
				</g>
			</g>
		</g>
	</g>
	<g id="_x34_0_1_">
		<circle class="st18" cx="800.8" cy="170.8" r="19.5"/>
		<g>
			<g>
				<g>
					<path class="st2" d="M794.1,175.9H785l-0.6-2.3l10.1-12h2.7v11.6h2.6v2.6h-2.6v4.1h-3.1V175.9z M794.1,173.2V166l-6,7.2H794.1z
						"/>
				</g>
				<g>
					<path class="st2" d="M801.5,170.9L801.5,170.9c0-5.3,3.2-9.5,8-9.5c4.8,0,7.9,4.2,7.9,9.4v0.1c0,5.2-3.2,9.4-8,9.4
						S801.5,176.1,801.5,170.9z M814,170.9L814,170.9c0-3.6-1.8-6.6-4.7-6.6c-2.8,0-4.6,2.9-4.6,6.5v0.1c0,3.6,1.8,6.5,4.7,6.5
						C812.3,177.4,814,174.5,814,170.9z"/>
				</g>
			</g>
		</g>
	</g>
	<g id="_x34_0_2_">
		<circle class="st18" cx="860.2" cy="278.8" r="19.5"/>
		<g>
			<g>
				<g>
					<path class="st2" d="M853.5,283.9h-9.2l-0.6-2.3l10.1-12h2.7v11.6h2.6v2.6h-2.6v4.1h-3.1V283.9z M853.5,281.2V274l-6,7.2H853.5
						z"/>
				</g>
				<g>
					<path class="st2" d="M860.8,278.9L860.8,278.9c0-5.3,3.2-9.5,8-9.5c4.8,0,7.9,4.2,7.9,9.4v0.1c0,5.2-3.2,9.4-8,9.4
						S860.8,284.1,860.8,278.9z M873.4,278.9L873.4,278.9c0-3.6-1.8-6.6-4.7-6.6c-2.8,0-4.6,2.9-4.6,6.5v0.1c0,3.6,1.8,6.5,4.7,6.5
						C871.6,285.4,873.4,282.5,873.4,278.9z"/>
				</g>
			</g>
		</g>
	</g>
	<g id="_x34_1">
		<circle class="st16" cx="141.8" cy="240.9" r="19.5"/>
		<g>
			<g>
				<g>
					<path class="st2" d="M140.1,245.9h-9.2l-0.6-2.3l10.1-12h2.7v11.6h2.6v2.6h-2.6v4.1h-3.1V245.9z M140.1,243.3v-7.2l-6,7.2
						H140.1z"/>
				</g>
				<g>
					<path class="st2" d="M150,234.9l-3.3,0.9l-0.7-2.6l4.9-1.6h2.2V250H150V234.9z"/>
				</g>
			</g>
		</g>
	</g>
	<g id="_x34_3">
		<circle class="st18" cx="102.3" cy="267.7" r="19.5"/>
		<g>
			<g>
				<g>
					<path class="st2" d="M97,272.6h-9.2l-0.6-2.3l10.1-12h2.7V270h2.6v2.6h-2.6v4.1H97V272.6z M97,270v-7.2l-6,7.2H97z"/>
				</g>
				<g>
					<path class="st2" d="M104,273.8l2.2-2.1c1.3,1.5,2.8,2.4,4.8,2.4c1.8,0,3.1-1.1,3.1-2.8v-0.1c0-1.8-1.6-2.8-4.2-2.8h-1.5
						l-0.5-2l4.9-5.2H105v-2.8h12v2.4l-5.1,5.2c2.8,0.3,5.4,1.7,5.4,5.1v0.1c0,3.4-2.6,5.8-6.4,5.8C107.8,277,105.5,275.7,104,273.8
						z"/>
				</g>
			</g>
		</g>
	</g>
	<g id="_x34_4">
		<circle class="st18" cx="596.2" cy="477.2" r="19.5"/>
		<g>
			<g>
				<g>
					<path class="st2" d="M590,482.3h-9.2l-0.6-2.3l10.1-12h2.7v11.6h2.6v2.6H593v4.1H590V482.3z M590,479.6v-7.2l-6,7.2H590z"/>
				</g>
				<g>
					<path class="st2" d="M606.5,482.3h-9.2l-0.6-2.3l10.1-12h2.7v11.6h2.6v2.6h-2.6v4.1h-3.1V482.3z M606.5,479.6v-7.2l-6,7.2
						H606.5z"/>
				</g>
			</g>
		</g>
	</g>
	<g id="_x34_5">
		<circle class="st18" cx="573.2" cy="86.2" r="19.5"/>
		<g>
			<g>
				<g>
					<path class="st2" d="M567.8,91.1h-9.2l-0.6-2.3l10.1-12h2.7v11.6h2.6v2.6h-2.6v4.1h-3.1V91.1z M567.8,88.5v-7.2l-6,7.2H567.8z"
						/>
				</g>
				<g>
					<path class="st2" d="M574.9,92.7l2-2.3c1.5,1.4,3,2.2,4.7,2.2c2.2,0,3.6-1.2,3.6-3.1v-0.1c0-1.8-1.6-3-3.8-3
						c-1.3,0-2.4,0.4-3.4,0.8l-1.9-1.3l0.5-8.9h10.9v2.8h-8.1l-0.3,4.3c0.9-0.3,1.7-0.5,2.9-0.5c3.5,0,6.3,1.9,6.3,5.7v0.1
						c0,3.7-2.7,6.2-6.8,6.2C578.8,95.5,576.6,94.4,574.9,92.7z"/>
				</g>
			</g>
		</g>
	</g>
	<g id="_x35_0">
		<circle class="st18" cx="280.7" cy="459.7" r="19.5"/>
		<g>
			<g>
				<g>
					<path class="st2" d="M265.1,466.4l2-2.3c1.5,1.4,3,2.2,4.7,2.2c2.2,0,3.6-1.2,3.6-3.1V463c0-1.8-1.6-3-3.8-3
						c-1.3,0-2.4,0.4-3.4,0.8l-1.9-1.3l0.5-8.9h10.9v2.8h-8.1l-0.3,4.3c0.9-0.3,1.7-0.5,2.9-0.5c3.5,0,6.3,1.9,6.3,5.7v0.1
						c0,3.7-2.7,6.2-6.8,6.2C269,469.2,266.8,468,265.1,466.4z"/>
				</g>
				<g>
					<path class="st2" d="M280.4,459.8L280.4,459.8c0-5.3,3.2-9.5,8-9.5c4.8,0,7.9,4.2,7.9,9.4v0.1c0,5.2-3.2,9.4-8,9.4
						S280.4,465,280.4,459.8z M292.9,459.8L292.9,459.8c0-3.6-1.8-6.6-4.7-6.6s-4.6,2.9-4.6,6.5v0.1c0,3.6,1.8,6.5,4.7,6.5
						S292.9,463.4,292.9,459.8z"/>
				</g>
			</g>
		</g>
	</g>
</g>
</svg>
