<?xml version="1.0" encoding="utf-8"?>
<!-- Generator: Adobe Illustrator 21.1.0, SVG Export Plug-In . SVG Version: 6.00 Build 0)  -->
<svg version="1.1" id="Layer_1" xmlns="http://www.w3.org/2000/svg" xmlns:xlink="http://www.w3.org/1999/xlink" x="0px" y="0px"
	 viewBox="0 0 926.1 1260.7" style="enable-background:new 0 0 926.1 1260.7;" xml:space="preserve">
<style type="text/css">
	.st0{fill:#000411;}
	.st1{fill:#000411;stroke:#FFFFFF;stroke-width:2.15;stroke-miterlimit:10;}
	.st2{fill:#FFFFFF;}
	.st3{fill:#FFFFFF;stroke:#FFFFFF;stroke-width:0.27;stroke-miterlimit:10;}
	.st4{fill:#000411;stroke:#050433;stroke-width:0.27;stroke-miterlimit:10;}
	.st5{fill:#000411;stroke:#050433;stroke-width:0.25;stroke-miterlimit:10;}
	.st6{fill:#CFD0D2;}
	.st7{fill:#FFFFFF;stroke:#FFFFFF;stroke-width:2.15;stroke-miterlimit:10;}
	.st8{fill:none;stroke:#CFD0D2;stroke-width:2.15;stroke-miterlimit:10;}
	.st9{fill:#1B75BB;stroke:#CFD0D2;stroke-width:2.15;stroke-miterlimit:10;}
	.st10{fill:#00A14B;stroke:#FFFFFF;stroke-width:2.15;stroke-miterlimit:10;}
	.st11{fill:none;stroke:#FFFFFF;stroke-width:2.15;stroke-miterlimit:10;}
	.st12{fill:#00A14B;stroke:#CFD0D2;stroke-width:2.15;stroke-miterlimit:10;}
	.st13{fill:#000411;stroke:#FFFFFF;stroke-width:2.05;stroke-miterlimit:10;}
	.st14{fill:none;stroke:#FFFFFF;stroke-width:2.05;stroke-miterlimit:10;}
	.st15{fill:#FFFFFF;stroke:#FFFFFF;stroke-width:0.26;stroke-miterlimit:10;}
	.st16{fill:none;stroke:#FCFDFF;stroke-width:2.05;stroke-miterlimit:10;}
	.st17{fill:none;stroke:#F9F9F9;stroke-width:2.05;stroke-miterlimit:10;}
	.st18{fill:none;stroke:#FFFFFF;stroke-width:3.07;stroke-miterlimit:10;}
</style>
<g id="ground_floor_map-2">
	<polygon class="st0" points="688.3,804.6 635.1,857.7 623.3,857.7 623.3,917.7 591.2,917.7 591.2,1017.2 564.7,1023.7 
		564.7,1044.8 460.4,1044.8 460.4,1024 434.2,1017 434.2,917.7 401.6,917.7 401.6,857.6 390.7,857.6 312.9,779.7 359.4,733.2 
		616.9,733.2 	"/>
	<polygon class="st0" points="401.7,1149.2 376.3,1181.8 242.9,1181.8 242.9,1130.1 375.7,1130.1 	"/>
	<rect x="28" y="1130.1" class="st0" width="40.5" height="51.8"/>
	<rect x="28" y="1028" class="st0" width="40.5" height="47.8"/>
	<rect x="28" y="1075.9" class="st0" width="40.5" height="42.4"/>
	<polygon class="st1" points="138.2,932.6 97.7,973.1 73.6,997.2 68.5,1002.3 68.5,1028 28,1028 28,966.9 100.3,894.6 	"/>
	<rect x="68.5" y="1130.1" class="st0" width="121.9" height="51.8"/>
	<polygon class="st0" points="704.4,728.4 718.3,742.3 680.4,779.3 658.7,757.6 667.7,732.8 685.7,732.8 685.7,719 351.8,719 
		338.5,732.3 318.7,752.1 290.8,724.3 330,685.1 336.6,678.5 709.3,678.5 731.8,701 	"/>
	<polygon class="st0" points="883,852.1 863.2,871.9 858,866.6 847.6,877 845.2,874.6 839.2,880.7 830.5,872 801.8,900.7 
		688.9,787.8 733.2,743.5 725.1,735.5 745.7,714.9 	"/>
	
		<rect x="608.8" y="1076.2" transform="matrix(0.7071 -0.7071 0.7071 0.7071 -564.1908 808.079)" class="st0" width="169.1" height="17.8"/>
	<polygon class="st0" points="910.9,880.1 880.8,910.2 869.3,898.7 899.4,868.6 	"/>
	<polygon class="st0" points="899.4,868.6 869.3,898.7 859,888.4 869.3,878 863.2,871.9 883,852.1 	"/>
	
		<rect x="290.8" y="724.3" transform="matrix(0.7071 -0.7071 0.7071 0.7071 -438.5157 429.2923)" class="st0" width="16.3" height="39.4"/>
	
		<rect x="279.4" y="735.8" transform="matrix(0.7071 -0.7071 0.7071 0.7071 -450.0017 424.5684)" class="st0" width="16.2" height="39.4"/>
	<polygon class="st0" points="295.7,775.1 285,785.8 276.1,777 270.2,783 251.2,764 267.8,747.3 	"/>
	<polygon class="st0" points="272.8,798 236,834.8 198,796.9 225.2,769.7 235.3,779.8 251.2,764 270.2,783 264,789.2 	"/>
	<polygon class="st0" points="236,834.8 212.1,858.7 138.2,932.6 100.3,894.6 198,796.9 	"/>
	<polygon class="st0" points="816.3,933.4 679,1070.7 618.3,1009.8 671.4,956.7 648.4,933.7 648.4,899.8 665.3,916.7 679.5,902.5 
		648.1,871.1 701,818.2 759.1,876.3 	"/>
	<polygon class="st0" points="400.2,1002.3 307.6,1094.9 152.6,940.2 276.8,815.9 298.6,837.7 321.3,814.9 335.2,828.7 312.9,851 
		335.2,873.3 302.7,905.8 322.7,925.4 336.4,939.1 377.3,898.2 377.3,933.6 354.4,956.5 	"/>
	
		<rect x="283" y="800" transform="matrix(0.7071 -0.7071 0.7071 0.7071 -488.9607 450.3053)" class="st0" width="32.2" height="30.8"/>
	<polygon class="st0" points="357.4,851 335.2,873.3 312.9,851 335.2,828.7 	"/>
	<polygon class="st0" points="377.2,870.8 322.7,925.4 302.7,905.8 335.2,873.3 357.4,851 	"/>
	<polygon class="st0" points="253.3,1056.4 191.3,1118.7 154.3,1081.7 115.2,1120.7 82.5,1087.9 100.8,1069.6 82.8,1051.6 
		103.4,1031 82.4,1010.1 106.3,986.1 144.7,947.8 	"/>
	
		<rect x="809.6" y="879.8" transform="matrix(0.7071 -0.7071 0.7071 0.7071 -394.4033 850.8762)" class="st1" width="40.6" height="43.5"/>
	<polygon class="st0" points="809.9,981.1 775,1016 762.7,1003.7 797.6,968.9 	"/>
	<rect x="190.4" y="1130.1" class="st0" width="52.5" height="51.8"/>
	<polygon class="st1" points="745.7,714.9 725.1,735.5 718.3,742.3 704.4,728.4 731.8,701 	"/>
	<path class="st2" d="M472.1,915.2h3.5c0.8,0,1.7,0.2,2.3,0.8c0.4,0.5,0.7,1.1,0.7,1.7l0,0c0,1.1-0.8,2.2-1.9,2.4l2.1,3h-1.7
		l-1.9-2.8h-1.7v2.8h-1.4V915.2z M475.5,919.1c1,0,1.6-0.5,1.6-1.3l0,0c0-0.9-0.6-1.3-1.6-1.3h-2v2.7L475.5,919.1z"/>
	<path class="st2" d="M480.2,915.2h5.9v1.2h-4.5v2.1h4v1.2h-4v2.1h4.5v1.2h-5.9V915.2z"/>
	<path class="st2" d="M487.8,915.2h3c2.2-0.1,4.1,1.5,4.2,3.7c0,0.1,0,0.2,0,0.3l0,0c0,2.2-1.8,4-4,4c-0.1,0-0.1,0-0.2,0h-3V915.2z
		 M489.2,916.5v5.4h1.6c1.4,0.1,2.7-1,2.7-2.4c0-0.1,0-0.2,0-0.3l0,0c0.1-1.4-1.1-2.6-2.5-2.7c-0.1,0-0.2,0-0.2,0H489.2z"/>
	<path class="st2" d="M502,916.5h-2.5v-1.3h6.4v1.3h-2.5v6.6H502V916.5z"/>
	<path class="st2" d="M507.4,915.2h1.4v3.3h3.8v-3.3h1.4v7.9h-1.4v-3.3h-3.8v3.3h-1.4V915.2z"/>
	<path class="st2" d="M516,915.2h5.8v1.2h-4.5v2.1h4v1.2h-4v2.1h4.5v1.2h-5.9L516,915.2z"/>
	<path class="st2" d="M526.3,915.2h1.3l3.5,8h-1.5l-0.8-1.9h-3.7l-0.8,1.9h-1.5L526.3,915.2z M528.3,920l-1.4-3.2l-1.4,3.2H528.3z"
		/>
	<path class="st2" d="M533.4,916.5h-2.5v-1.3h6.4v1.3h-2.5v6.6h-1.4V916.5z"/>
	<path class="st2" d="M545.2,915.2h3.5c0.8,0,1.7,0.2,2.3,0.8c0.4,0.5,0.7,1.1,0.7,1.7l0,0c0,1.1-0.8,2.2-1.9,2.4l2.1,3h-1.7
		l-1.9-2.8h-1.7v2.8h-1.4L545.2,915.2L545.2,915.2z M548.6,919.1c1,0,1.6-0.5,1.6-1.3l0,0c0-0.9-0.6-1.3-1.6-1.3h-2v2.7L548.6,919.1
		z"/>
	<path class="st2" d="M538.3,915.2h5.9v1.2h-4.5v2.1h4v1.2h-4v2.1h4.5v1.2h-5.9V915.2z"/>
	<path class="st2" d="M260.6,989h3.5c0.8,0,1.5,0.2,2.1,0.7c0.4,0.3,0.5,0.8,0.5,1.3l0,0c0,0.8-0.4,1.5-1.1,1.8
		c0.9,0.2,1.6,1,1.6,1.9l0,0c0,1.4-1.2,2.2-2.9,2.2h-3.7V989z M265.3,991.2c0-0.6-0.5-1-1.4-1h-2v2.1h1.9
		C264.7,992.3,265.3,992,265.3,991.2L265.3,991.2z M264.1,993.5h-2.2v2.2h2.3c1,0,1.5-0.4,1.5-1.1l0,0
		C265.8,993.9,265.2,993.5,264.1,993.5L264.1,993.5z"/>
	<path class="st2" d="M268.7,989h1.4v6.6h4.2v1.3h-5.5L268.7,989z"/>
	<path class="st2" d="M278.5,988.9h1.3l3.5,8h-1.5L281,995h-3.7l-0.8,1.9h-1.4L278.5,988.9z M280.5,993.7l-1.4-3.2l-1.4,3.2H280.5z"
		/>
	<path class="st2" d="M283.8,993L283.8,993c-0.1-2.2,1.7-4,3.9-4.1c0.1,0,0.1,0,0.2,0c1.2,0,2.3,0.4,3.1,1.2l-0.9,1
		c-0.6-0.6-1.4-1-2.2-1c-1.5,0-2.6,1.2-2.6,2.7v0.1l0,0c-0.1,1.5,1.1,2.7,2.5,2.8c0,0,0,0,0.1,0c0.9,0,1.7-0.4,2.3-1l0.9,0.9
		c-0.8,0.9-2,1.4-3.2,1.4C285.6,997,283.8,995.2,283.8,993L283.8,993z"/>
	<path class="st2" d="M292.5,989h1.4v4l3.8-4h1.7l-3.3,3.4l3.5,4.5h-1.8l-2.7-3.6l-1.2,1.3v2.3h-1.4V989L292.5,989z"/>
	<path class="st2" d="M304.1,989h3.5c0.8,0,1.5,0.2,2.1,0.7c0.4,0.3,0.5,0.8,0.5,1.3l0,0c0,0.8-0.4,1.5-1.1,1.8
		c0.9,0.2,1.6,1,1.6,1.9l0,0c0,1.4-1.2,2.2-2.9,2.2h-3.7V989z M308.9,991.2c0-0.6-0.5-1-1.4-1h-2v2.1h1.9
		C308.3,992.3,308.9,992,308.9,991.2L308.9,991.2z M307.7,993.5h-2.2v2.2h2.3c1,0,1.5-0.4,1.5-1.1l0,0
		C309.3,993.9,308.8,993.5,307.7,993.5L307.7,993.5z"/>
	<path class="st2" d="M311.9,993L311.9,993c0-2.3,1.9-4.1,4.1-4.1c2.3,0,4.1,1.9,4.1,4.1l0,0c0,2.3-1.9,4.1-4.1,4.1
		S311.9,995.3,311.9,993z M318.7,993L318.7,993c0.1-1.5-1.1-2.8-2.6-2.8H316c-1.5,0-2.7,1.2-2.7,2.7v0.1l0,0
		c-0.1,1.5,1.1,2.7,2.6,2.8h0.1c1.5,0,2.7-1.2,2.7-2.6C318.7,993.1,318.7,993,318.7,993z"/>
	<path class="st2" d="M328,989l-2.8,3.9l2.9,4h-1.6l-2.1-3l-2.1,3h-1.6l2.9-4l-2.8-3.9h1.6l2,2.9l2-2.9H328z"/>
	<path class="st2" d="M269.8,1003.9h-2.5v-1.3h6.4v1.3h-2.5v6.6h-1.4V1003.9z"/>
	<path class="st2" d="M275.2,1002.6h1.4v3.3h3.8v-3.3h1.4v7.9h-1.4v-3.3h-3.8v3.3h-1.4V1002.6z"/>
	<path class="st2" d="M283.7,1002.6h5.9v1.2h-4.5v2.1h4v1.2h-4v2.1h4.5v1.2h-5.9V1002.6z"/>
	<path class="st2" d="M294.1,1002.5h1.3l3.5,8h-1.5l-0.8-1.9h-3.7l-0.8,1.9h-1.4L294.1,1002.5z M296.1,1007.3l-1.4-3.2l-1.4,3.2
		H296.1z"/>
	<path class="st2" d="M301.2,1003.9h-2.5v-1.3h6.4v1.3h-2.5v6.6h-1.4V1003.9z"/>
	<path class="st2" d="M313,1002.6h3.5c0.8,0,1.7,0.2,2.3,0.8c0.4,0.5,0.7,1.1,0.7,1.7l0,0c0,1.1-0.8,2.2-1.9,2.4l2.1,3h-1.6
		l-1.9-2.8h-1.7v2.8h-1.4L313,1002.6z M316.4,1006.5c1,0,1.6-0.5,1.6-1.3l0,0c0-0.9-0.6-1.3-1.6-1.3h-2v2.7L316.4,1006.5z"/>
	<path class="st2" d="M306.1,1002.6h5.9v1.2h-4.5v2.1h4v1.2h-4v2.1h4.5v1.2h-5.9V1002.6z"/>
	<path class="st3" d="M301.3,1164L301.3,1164c0-1.9,1.1-3.5,2.9-3.5s2.8,1.6,2.8,3.5l0,0c0,1.9-1.1,3.5-2.8,3.5
		S301.3,1165.9,301.3,1164z M306.2,1164L306.2,1164c0-1.5-0.8-2.8-2-2.8s-2,1.3-2,2.8l0,0c0,1.5,0.8,2.8,2.1,2.8
		S306.2,1165.5,306.2,1164z"/>
	<path class="st3" d="M308.2,1164L308.2,1164c0-1.9,1.1-3.5,2.9-3.5s2.8,1.6,2.8,3.5l0,0c0,1.9-1.1,3.5-2.8,3.5
		S308.2,1165.9,308.2,1164z M313,1164L313,1164c0-1.5-0.8-2.8-2-2.8s-2,1.3-2,2.8l0,0c0,1.5,0.8,2.8,2.1,2.8S313,1165.5,313,1164z"
		/>
	<path class="st3" d="M318.6,1165.7h-3.5l-0.2-0.6l3.8-4.6h0.7v4.5h1v0.6h-1v1.6h-0.7L318.6,1165.7L318.6,1165.7z M318.6,1165.1
		v-3.5l-2.8,3.5H318.6z"/>
	<path class="st3" d="M40.3,1096.9L40.3,1096.9c0-1.9,1.1-3.5,2.8-3.5s2.8,1.6,2.8,3.5l0,0c0,1.9-1.1,3.5-2.8,3.5
		S40.3,1098.8,40.3,1096.9z M45.1,1096.9L45.1,1096.9c0-1.5-0.8-2.8-2.1-2.8s-2,1.3-2,2.8l0,0c0,1.5,0.8,2.8,2.1,2.8
		S45.1,1098.3,45.1,1096.9z"/>
	<path class="st3" d="M48.2,1094.2l-1.3,0.4l-0.2-0.6l1.6-0.6h0.6v6.8h-0.8v-6H48.2L48.2,1094.2z"/>
	<path class="st3" d="M50.5,1096.9L50.5,1096.9c0-1.9,1.1-3.5,2.8-3.5s2.8,1.6,2.8,3.5l0,0c0,1.9-1.1,3.5-2.8,3.5
		S50.5,1098.8,50.5,1096.9z M55.4,1096.9L55.4,1096.9c0-1.5-0.8-2.8-2.1-2.8s-2,1.3-2,2.8l0,0c0,1.5,0.8,2.8,2.1,2.8
		S55.4,1098.3,55.4,1096.9z"/>
	<path class="st3" d="M38.2,1005.5L38.2,1005.5c0-1.9,1.1-3.5,2.8-3.5s2.8,1.6,2.8,3.5l0,0c0,1.9-1.1,3.5-2.8,3.5
		S38.2,1007.4,38.2,1005.5z M43,1005.5L43,1005.5c0-1.5-0.8-2.8-2.1-2.8s-2,1.3-2,2.8l0,0c0,1.5,0.8,2.8,2.1,2.8S43,1007,43,1005.5z
		"/>
	<path class="st3" d="M46.1,1002.9l-1.3,0.4l-0.2-0.6l1.6-0.6h0.5v6.8h-0.8L46.1,1002.9z"/>
	<path class="st3" d="M48.3,1007.8l0.6-0.5c0.5,0.6,1.2,1,2,1c0.7,0.1,1.4-0.5,1.5-1.2v-0.1l0,0c0-0.8-0.8-1.3-1.9-1.3h-0.4
		l-0.2-0.5l2.1-2.4h-3.3v-0.7H53v0.6l-2.2,2.3c1.2,0.1,2.2,0.7,2.2,1.9l0,0c0,1.2-1,2.1-2.2,2c0,0,0,0-0.1,0
		C49.8,1009,48.9,1008.5,48.3,1007.8z"/>
	<path class="st3" d="M89.9,936.2L89.9,936.2c0-1.9,1.1-3.5,2.9-3.5s2.8,1.6,2.8,3.5l0,0c0,1.9-1.1,3.5-2.8,3.5
		S89.9,938.1,89.9,936.2z M94.8,936.2L94.8,936.2c0-1.5-0.8-2.8-2.1-2.8c-1.3,0-2,1.3-2,2.8l0,0c0,1.5,0.8,2.8,2.1,2.8
		C94.1,939,94.8,937.7,94.8,936.2L94.8,936.2z"/>
	<path class="st3" d="M97.9,933.6l-1.3,0.4l-0.2-0.6l1.6-0.6h0.6v6.8h-0.8L97.9,933.6L97.9,933.6z"/>
	<path class="st3" d="M100.1,938.6l0.5-0.5c0.5,0.5,1.2,0.9,1.9,0.9c0.8,0.1,1.6-0.6,1.6-1.4v-0.1l0,0c0-0.8-0.7-1.5-1.6-1.4h-0.1
		c-0.5,0-1,0.1-1.4,0.4l-0.5-0.3l0.2-3.3h3.9v0.7h-3.2l-0.1,2.1c0.4-0.2,0.9-0.3,1.3-0.3c1.1-0.1,2.2,0.7,2.3,1.8c0,0.1,0,0.1,0,0.2
		l0,0c0,1.2-1,2.2-2.2,2.2c-0.1,0-0.1,0-0.2,0C101.6,939.6,100.7,939.3,100.1,938.6z"/>
	<path class="st3" d="M150.8,875.6L150.8,875.6c0-1.9,1.1-3.5,2.9-3.5s2.8,1.6,2.8,3.5l0,0c0,1.9-1.1,3.5-2.8,3.5
		S150.8,877.4,150.8,875.6z M155.7,875.6L155.7,875.6c0-1.5-0.8-2.8-2.1-2.8s-2,1.3-2,2.8l0,0c0,1.5,0.8,2.8,2.1,2.8
		S155.7,877,155.7,875.6L155.7,875.6z"/>
	<path class="st3" d="M158.7,872.9l-1.3,0.4l-0.2-0.6l1.6-0.6h0.6v6.8h-0.8L158.7,872.9L158.7,872.9z"/>
	<path class="st3" d="M165.3,875.5v-0.1c-0.4,0.7-1.1,1.1-1.9,1.1c-1.2,0.1-2.2-0.7-2.3-1.9c0-0.1,0-0.1,0-0.2l0,0
		c0-1.3,1-2.3,2.3-2.3h0.1c0.7,0,1.3,0.2,1.8,0.7c0.6,0.7,0.9,1.7,0.8,2.6l0,0c0,2.1-1.1,3.6-2.8,3.6c-0.8,0-1.5-0.3-2.1-0.8
		l0.4-0.6c0.4,0.4,1,0.7,1.6,0.7C164.6,878.3,165.3,877,165.3,875.5z M165.1,874.3L165.1,874.3c0-0.9-0.8-1.6-1.6-1.5h-0.1
		c-0.8,0-1.6,0.6-1.6,1.5v0.1l0,0c0,0.8,0.7,1.5,1.5,1.5h0.1C164.3,875.9,165.1,875.2,165.1,874.3L165.1,874.3z"/>
	<path class="st3" d="M458.1,698.7L458.1,698.7c0-1.9,1.1-3.5,2.8-3.5s2.9,1.6,2.9,3.4l0,0c0,1.9-1.1,3.5-2.8,3.5
		S458.1,700.6,458.1,698.7z M463,698.7L463,698.7c0-1.5-0.8-2.8-2-2.8s-2,1.3-2,2.8l0,0c0,1.5,0.8,2.8,2.1,2.8S463,700.1,463,698.7z
		"/>
	<path class="st3" d="M464.7,701.4l2.4-2.2c1-0.9,1.4-1.4,1.4-2.1s-0.6-1.3-1.3-1.3c0,0,0,0-0.1,0c-0.8,0-1.4,0.5-1.8,1.2l-0.6-0.4
		c0.5-0.9,1.4-1.5,2.4-1.4c1.1-0.1,2,0.7,2.1,1.8v0.1l0,0c0,1-0.5,1.6-1.7,2.6l-1.8,1.6h3.6v0.7h-4.7L464.7,701.4z"/>
	<path class="st3" d="M474.8,698.6L474.8,698.6c-0.4,0.6-1.1,1-1.9,1c-1.2,0.1-2.2-0.7-2.3-1.9c0-0.1,0-0.1,0-0.2l0,0
		c0-1.3,1-2.3,2.3-2.3h0.1c0.7,0,1.3,0.2,1.8,0.7c0.6,0.7,0.9,1.7,0.8,2.6l0,0c0,2.1-1.1,3.6-2.8,3.6c-0.8,0-1.5-0.3-2-0.8l0.4-0.6
		c0.4,0.4,1,0.7,1.7,0.7C474.1,701.4,474.8,700.1,474.8,698.6z M474.7,697.4L474.7,697.4c0-0.9-0.8-1.5-1.7-1.5l0,0
		c-0.8,0-1.6,0.6-1.6,1.5v0.1l0,0c0,0.8,0.7,1.5,1.6,1.4h0.1C473.9,699,474.6,698.3,474.7,697.4L474.7,697.4L474.7,697.4z"/>
	<path class="st3" d="M491.4,776.5L491.4,776.5c0-1.9,1.1-3.5,2.8-3.5s2.8,1.6,2.8,3.4l0,0c0,1.9-1.1,3.5-2.8,3.5
		S491.4,778.3,491.4,776.5z M496.3,776.5L496.3,776.5c0-1.5-0.8-2.8-2-2.8s-2,1.3-2,2.8l0,0c0,1.5,0.8,2.8,2.1,2.8
		S496.3,777.9,496.3,776.5z"/>
	<path class="st3" d="M498.1,778.7l0.6-0.5c0.5,0.6,1.2,1,2,1c0.7,0.1,1.4-0.5,1.5-1.2v-0.1l0,0c0-0.8-0.8-1.3-1.9-1.3h-0.5
		l-0.2-0.4l2.1-2.4h-3.3v-0.7h4.3v0.6l-2.1,2.3c1.2,0.1,2.2,0.7,2.2,1.9l0,0c0,1.2-1,2.1-2.2,2c0,0,0,0-0.1,0
		C499.6,780,498.7,779.5,498.1,778.7z"/>
	<path class="st3" d="M504,776.5L504,776.5c0-1.9,1.1-3.5,2.8-3.5s2.8,1.6,2.8,3.4l0,0c0,1.9-1.1,3.5-2.8,3.5S504,778.3,504,776.5z
		 M508.9,776.5L508.9,776.5c0-1.5-0.8-2.8-2-2.8s-2,1.3-2,2.8l0,0c0,1.5,0.8,2.8,2.1,2.8S508.9,777.9,508.9,776.5z"/>
	<path class="st3" d="M738,782.5L738,782.5c0-1.9,1.1-3.5,2.8-3.5s2.8,1.6,2.8,3.4l0,0c0,1.9-1.1,3.5-2.8,3.5S738,784.4,738,782.5z
		 M742.9,782.5L742.9,782.5c0-1.5-0.8-2.8-2-2.8s-2,1.3-2,2.8l0,0c0,1.5,0.8,2.8,2.1,2.8S742.9,784,742.9,782.5z"/>
	<path class="st3" d="M748.4,784.3h-3.5l-0.2-0.6l3.8-4.6h0.7v4.5h1v0.6h-1v1.6h-0.7L748.4,784.3L748.4,784.3z M748.4,783.6v-3.5
		l-2.8,3.5H748.4z"/>
	<path class="st3" d="M752.2,779.9l-1.3,0.4l-0.2-0.6l1.6-0.6h0.6v6.8h-0.8v-6H752.2L752.2,779.9z"/>
	<path class="st3" d="M755.6,828.5L755.6,828.5c0-1.9,1.1-3.5,2.8-3.5s2.8,1.6,2.8,3.4l0,0c0,1.9-1.1,3.5-2.8,3.5
		S755.6,830.3,755.6,828.5z M760.5,828.5L760.5,828.5c0-1.5-0.8-2.8-2-2.8s-2,1.3-2,2.8l0,0c0,1.5,0.8,2.8,2.1,2.8
		S760.5,829.9,760.5,828.5z"/>
	<path class="st3" d="M766,830.2h-3.5l-0.2-0.6l3.8-4.6h0.7v4.5h1v0.6h-1v1.6h-0.7L766,830.2L766,830.2z M766,829.6v-3.5l-2.8,3.5
		H766z"/>
	<path class="st3" d="M768.7,831.2l2.4-2.1c1-0.9,1.4-1.4,1.4-2.1c0-0.7-0.6-1.3-1.3-1.3h-0.1c-0.8,0-1.4,0.5-1.8,1.1l-0.6-0.4
		c0.5-0.9,1.4-1.5,2.4-1.4c1.1-0.1,2,0.7,2.1,1.8v0.1l0,0c0,1-0.5,1.6-1.7,2.6l-1.8,1.6h3.6v0.7h-4.5L768.7,831.2z"/>
	<path class="st3" d="M803.2,843.3L803.2,843.3c0-1.9,1.1-3.5,2.8-3.5s2.8,1.6,2.8,3.4l0,0c0,1.9-1.1,3.5-2.8,3.5
		S803.2,845.1,803.2,843.3z M808.1,843.3L808.1,843.3c0-1.5-0.8-2.8-2-2.8s-2,1.3-2,2.8l0,0c0,1.5,0.8,2.8,2.1,2.8
		S808.1,844.7,808.1,843.3z"/>
	<path class="st3" d="M813.6,845h-3.5l-0.2-0.6l3.8-4.6h0.7v4.5h1v0.6h-1v1.6h-0.7L813.6,845z M813.6,844.4v-3.5l-2.8,3.5H813.6z"/>
	<path class="st3" d="M816.4,845.5l0.6-0.5c0.5,0.6,1.2,1,2,1c0.7,0.1,1.4-0.5,1.5-1.2v-0.1l0,0c0-0.8-0.8-1.3-1.9-1.3h-0.4L818,843
		l2.1-2.4h-3.3v-0.7h4.3v0.6l-2.1,2.3c1.2,0.1,2.2,0.7,2.2,1.9l0,0c0,1.2-1,2.1-2.2,2c0,0,0,0-0.1,0
		C818,846.7,817,846.3,816.4,845.5z"/>
	<path class="st3" d="M765,922L765,922c0-1.9,1.1-3.5,2.8-3.5s2.8,1.6,2.8,3.5l0,0c0,1.9-1.1,3.5-2.8,3.5S765,923.9,765,922z
		 M769.9,922L769.9,922c0-1.5-0.8-2.8-2-2.8s-2,1.3-2,2.8l0,0c0,1.5,0.8,2.8,2.1,2.8S769.9,923.5,769.9,922z"/>
	<path class="st3" d="M775.4,923.8h-3.6l-0.2-0.6l3.8-4.6h0.7v4.5h1v0.6h-1v1.6h-0.7V923.8z M775.4,923.2v-3.5l-2.8,3.5H775.4z"/>
	<path class="st3" d="M778.2,924.4l0.5-0.5c0.5,0.5,1.2,0.9,1.9,0.9c0.8,0.1,1.6-0.6,1.6-1.4v-0.1l0,0c0-0.8-0.7-1.5-1.6-1.4h-0.1
		c-0.5,0-1,0.1-1.4,0.4l-0.5-0.3l0.2-3.3h3.9v0.7h-3.2l-0.1,2.1c0.4-0.2,0.9-0.3,1.3-0.3c1.1-0.1,2.2,0.7,2.3,1.8c0,0.1,0,0.1,0,0.2
		l0,0c0,1.2-1,2.2-2.2,2.2c-0.1,0-0.1,0-0.2,0C779.7,925.5,778.8,925.1,778.2,924.4z"/>
	<path class="st3" d="M709.4,867L709.4,867c0-1.9,1.1-3.5,2.8-3.5s2.8,1.6,2.8,3.5l0,0c0,1.9-1.1,3.5-2.8,3.5S709.4,868.9,709.4,867
		z M714.3,867L714.3,867c0-1.5-0.8-2.8-2-2.8s-2,1.3-2,2.8l0,0c0,1.5,0.8,2.8,2.1,2.8S714.3,868.4,714.3,867z"/>
	<path class="st3" d="M716.1,869.2l0.6-0.5c0.5,0.6,1.2,1,2,1c0.7,0.1,1.4-0.5,1.5-1.2v-0.1l0,0c0-0.8-0.8-1.3-1.9-1.3h-0.5
		l-0.2-0.5l2.1-2.4h-3.3v-0.7h4.3v0.6l-2.1,2.3c1.2,0.1,2.2,0.7,2.2,1.9l0,0c0,1.2-1,2.1-2.2,2c0,0,0,0-0.1,0
		C717.6,870.5,716.7,870,716.1,869.2z"/>
	<path class="st3" d="M722.9,869.8c-0.6-0.7-1-1.7-0.8-2.6l0,0c0-2,1-3.6,2.8-3.6c0.7,0,1.5,0.3,2,0.8l-0.4,0.6
		c-0.4-0.4-1-0.6-1.6-0.7c-1.3,0-2,1.4-2,2.9v0.1c0.4-0.6,1.1-1,1.9-1c1.2-0.1,2.2,0.8,2.3,2v0.1l0,0c0,1.3-1.1,2.3-2.3,2.2h-0.1
		C724,870.5,723.4,870.2,722.9,869.8z M726.3,868.2L726.3,868.2c0-0.8-0.7-1.5-1.5-1.4h-0.1c-0.9-0.1-1.6,0.6-1.7,1.5l0,0l0,0
		c0,0.9,0.8,1.5,1.6,1.5h0.1c0.8,0.1,1.6-0.6,1.6-1.4C726.3,868.3,726.3,868.3,726.3,868.2L726.3,868.2z"/>
	<path class="st3" d="M270.7,875.6L270.7,875.6c0-1.9,1.1-3.5,2.9-3.5s2.8,1.6,2.8,3.5l0,0c0,1.9-1.1,3.5-2.8,3.5
		S270.7,877.4,270.7,875.6z M275.6,875.6L275.6,875.6c0-1.5-0.8-2.8-2-2.8s-2,1.3-2,2.8l0,0c0,1.5,0.8,2.8,2.1,2.8
		S275.6,877,275.6,875.6L275.6,875.6z"/>
	<path class="st3" d="M277.3,878.3l2.4-2.1c1-0.9,1.4-1.4,1.4-2.1s-0.6-1.3-1.3-1.3h-0.1c-0.8,0-1.4,0.5-1.8,1.1l-0.6-0.4
		c0.5-0.9,1.4-1.5,2.4-1.4c1.1-0.1,2,0.7,2.1,1.8v0.1l0,0c0,1-0.5,1.6-1.7,2.6l-1.8,1.6h3.6v0.7h-4.7L277.3,878.3z"/>
	<path class="st3" d="M283.1,878l0.5-0.5c0.5,0.5,1.2,0.9,1.9,0.9c0.8,0.1,1.6-0.6,1.6-1.4v-0.1l0,0c0-0.8-0.7-1.5-1.6-1.4h-0.1
		c-0.5,0-1,0.1-1.4,0.4l-0.5-0.3l0.2-3.3h3.9v0.7h-3.2l-0.1,2.1c0.4-0.2,0.9-0.3,1.3-0.3c1.1-0.1,2.2,0.7,2.3,1.8c0,0.1,0,0.1,0,0.2
		l0,0c0,1.2-1,2.2-2.2,2.2c-0.1,0-0.1,0-0.2,0C284.6,879,283.7,878.6,283.1,878z"/>
	<path class="st3" d="M227.9,915.3L227.9,915.3c0-1.9,1.1-3.5,2.9-3.5s2.8,1.6,2.8,3.5l0,0c0,1.9-1.1,3.5-2.8,3.5
		S227.9,917.2,227.9,915.3z M232.8,915.3L232.8,915.3c0-1.5-0.8-2.8-2-2.8s-2,1.3-2,2.8l0,0c0,1.5,0.8,2.8,2.1,2.8
		S232.8,916.8,232.8,915.3L232.8,915.3z"/>
	<path class="st3" d="M234.6,918.1l2.4-2.1c1-0.9,1.4-1.4,1.4-2.1s-0.6-1.3-1.3-1.3H237c-0.8,0-1.4,0.5-1.8,1.1l-0.6-0.4
		c0.5-0.9,1.4-1.4,2.4-1.4c1.1-0.1,2,0.7,2.1,1.8v0.1l0,0c0,1-0.5,1.6-1.7,2.6l-1.8,1.6h3.6v0.7h-4.7L234.6,918.1z"/>
	<path class="st3" d="M241.6,912.7l-1.3,0.4l-0.2-0.6l1.6-0.6h0.6v6.8h-0.8L241.6,912.7z"/>
	<path class="st3" d="M180.1,1045.2h5v1h-3.8v1.7h3.4v1h-3.4v1.8h3.8v1h-5V1045.2z"/>
	<path class="st3" d="M192.5,1052.1l-0.8-0.7c-0.6,0.4-1.3,0.6-2,0.6c-1.9,0-3.4-1.4-3.5-3.3v-0.1l0,0c0.1-1.9,1.8-3.4,3.8-3.2
		c1.7,0.1,3.1,1.5,3.2,3.2l0,0c0,0.7-0.2,1.5-0.7,2.1l0.8,0.6L192.5,1052.1z M190.9,1050.7l-1.2-1l0.8-0.9l1.2,1.1
		c0.2-0.4,0.3-0.8,0.3-1.3l0,0c0-1.3-0.9-2.3-2.2-2.4c0,0,0,0-0.1,0c-1.3,0-2.3,1-2.3,2.3v0.1l0,0c0,1.3,1,2.3,2.2,2.4
		C190.1,1050.9,190.5,1050.8,190.9,1050.7L190.9,1050.7z"/>
	<path class="st3" d="M194.5,1049.1v-3.9h1.2v3.8c0,1.2,0.6,1.9,1.7,1.9s1.7-0.6,1.7-1.9v-3.9h1.2v3.8c0.2,1.5-0.9,2.8-2.3,3
		c-0.2,0-0.4,0-0.6,0c-1.5,0.1-2.7-1-2.9-2.4C194.5,1049.5,194.5,1049.3,194.5,1049.1z"/>
	<path class="st3" d="M201.9,1045.2h1.2v6.7h-1.2V1045.2z"/>
	<path class="st3" d="M204.9,1045.2h2.6c1.2-0.2,2.4,0.7,2.5,1.9c0,0.1,0,0.2,0,0.3l0,0c0,1.5-1.2,2.3-2.7,2.3H206v2.1h-1.2
		L204.9,1045.2L204.9,1045.2L204.9,1045.2z M207.5,1048.7c0.9,0,1.5-0.5,1.5-1.2l0,0c0-0.8-0.6-1.2-1.5-1.2h-1.4v2.4H207.5z"/>
	<path class="st3" d="M211.3,1045.2h1.3l2,3.2l2-3.2h1.3v6.7h-1.2v-4.8l-2.1,3.2l0,0l-2.1-3.1v4.8h-1.2V1045.2z"/>
	<path class="st3" d="M219.6,1045.2h5v1h-3.8v1.7h3.4v1h-3.4v1.8h3.8v1h-5V1045.2z"/>
	<path class="st3" d="M226.1,1045.2h1.1l3.6,4.6v-4.6h1.2v6.7h-1l-3.7-4.8v4.8h-1.2L226.1,1045.2L226.1,1045.2z"/>
	<path class="st3" d="M235.3,1046.3h-2.1v-1.1h5.5v1.1h-2.1v5.6h-1.2L235.3,1046.3L235.3,1046.3z"/>
	<path class="st3" d="M189.3,1060.1L189.3,1060.1c0-1.9,1.5-3.4,3.3-3.5h0.1c1,0,1.9,0.3,2.6,1l-0.8,0.9c-0.5-0.5-1.2-0.8-1.9-0.8
		c-1.2,0-2.2,1.1-2.2,2.3c0,0,0,0,0,0.1l0,0c-0.1,1.2,0.9,2.3,2.1,2.4c0,0,0,0,0.1,0c0.7,0,1.4-0.3,1.9-0.9l0.8,0.8
		c-0.7,0.8-1.7,1.2-2.7,1.2C190.9,1063.5,189.4,1062,189.3,1060.1C189.3,1060.2,189.3,1060.1,189.3,1060.1z"/>
	<path class="st3" d="M196.7,1056.7h5v1h-3.8v1.7h3.4v1h-3.4v1.8h3.8v1h-5V1056.7z"/>
	<path class="st3" d="M203.1,1056.7h1.1l3.6,4.6v-4.6h1.2v6.7h-1l-3.7-4.8v4.8h-1.2L203.1,1056.7L203.1,1056.7z"/>
	<path class="st3" d="M212.3,1057.8h-2.1v-1.1h5.5v1.1h-2.1v5.6h-1.2L212.3,1057.8L212.3,1057.8z"/>
	<path class="st3" d="M216.9,1056.7h5v1h-3.8v1.7h3.4v1h-3.4v1.8h3.8v1h-5V1056.7z"/>
	<path class="st3" d="M223.3,1056.7h3c0.7,0,1.4,0.2,1.9,0.7c0.4,0.4,0.6,0.9,0.6,1.5l0,0c0,1-0.6,1.8-1.6,2l1.8,2.5h-1.4l-1.6-2.3
		h-1.5v2.3h-1.2V1056.7z M226.2,1060.1c0.8,0,1.4-0.4,1.4-1.1l0,0c0-0.7-0.5-1.1-1.4-1.1h-1.7v2.2H226.2z"/>
	<path class="st3" d="M664.5,992.1h3.4c0.7-0.1,1.5,0.2,2,0.7c0.3,0.3,0.5,0.8,0.5,1.2l0,0c0,0.7-0.4,1.4-1.1,1.7
		c0.9,0.2,1.5,0.9,1.5,1.8l0,0c0,1.4-1.1,2.1-2.8,2.1h-3.5L664.5,992.1z M669,994.3c0-0.6-0.5-1-1.3-1h-1.9v2h1.8
		C668.5,995.3,669,994.9,669,994.3z M667.9,996.4h-2.1v2.1h2.2c0.9,0,1.5-0.4,1.5-1l0,0C669.5,996.8,668.9,996.4,667.9,996.4
		L667.9,996.4z"/>
	<path class="st3" d="M672.3,992.1h1.3v6.3h4v1.2h-5.3V992.1z"/>
	<path class="st3" d="M678.6,996.5v-4.4h1.3v4.3c0,1.4,0.7,2.1,1.9,2.1s1.9-0.7,1.9-2.1V992h1.3v4.3c0,2.2-1.3,3.4-3.2,3.4
		c-1.7,0.1-3.1-1.1-3.2-2.8C678.6,996.8,678.6,996.6,678.6,996.5z"/>
	<path class="st3" d="M686.9,992.1h5.6v1.2h-4.3v2h3.8v1.2h-3.8v2h4.3v1.2h-5.7L686.9,992.1z"/>
	<path class="st3" d="M697.3,992.1h1.3v3.1h3.6v-3.1h1.3v7.5h-1.3v-3.2h-3.6v3.2h-1.3V992.1z"/>
	<path class="st3" d="M708.2,992.1h1.2l3.3,7.6h-1.4l-0.8-1.8h-3.6l-0.8,1.8h-1.4L708.2,992.1z M710.1,996.7l-1.3-3l-1.3,3H710.1z"
		/>
	<path class="st3" d="M714.1,992.1h1.3v6.3h4v1.2h-5.3V992.1z"/>
	<path class="st3" d="M720.7,992.1h1.3v6.3h4v1.2h-5.2L720.7,992.1z"/>
	<path class="st3" d="M264.1,1148.2h3c1.8,0,2.9,1,2.9,2.5l0,0c0,1.7-1.4,2.6-3,2.6h-1.5v2.4h-1.3L264.1,1148.2z M267,1152.2
		c1,0,1.6-0.6,1.6-1.3l0,0c0-0.9-0.6-1.3-1.6-1.3h-1.5v2.7L267,1152.2z"/>
	<path class="st3" d="M271.3,1148.2h3.4c0.8-0.1,1.6,0.2,2.2,0.8c0.4,0.4,0.6,1,0.6,1.6l0,0c0,1.1-0.7,2-1.8,2.3l2,2.9h-1.6
		l-1.9-2.6h-1.7v2.6h-1.3L271.3,1148.2z M274.6,1152c1,0,1.5-0.5,1.5-1.3l0,0c0-0.8-0.6-1.2-1.6-1.2h-1.9v2.5H274.6z"/>
	<path class="st3" d="M278.8,1152L278.8,1152c0.1-2.2,2-3.9,4.1-3.7c2,0.1,3.6,1.7,3.7,3.7l0,0c-0.1,2.2-2,3.9-4.1,3.7
		C280.5,1155.7,278.9,1154.1,278.8,1152z M285.3,1152L285.3,1152c0.1-1.4-1.1-2.6-2.5-2.7h-0.1c-1.4,0-2.6,1.1-2.6,2.5v0.1l0,0
		c0,1.4,1.1,2.6,2.5,2.7h0.1c1.4,0,2.5-1.1,2.5-2.5C285.3,1152.1,285.3,1152.1,285.3,1152L285.3,1152z"/>
	<path class="st3" d="M287.2,1154.7l0.9-0.9c0.3,0.5,0.9,0.9,1.5,0.9c0.7,0,1.2-0.5,1.2-1.5v-4.9h1.4v5c0,0.7-0.2,1.5-0.7,2
		s-1.2,0.7-1.8,0.7C288.7,1155.9,287.8,1155.5,287.2,1154.7z"/>
	<path class="st3" d="M294,1148.2h5.6v1.2h-4.3v2h3.8v1.2h-3.8v2h4.3v1.2h-5.7v-7.6L294,1148.2L294,1148.2z"/>
	<path class="st3" d="M300.9,1152L300.9,1152c0-2.1,1.6-3.9,3.7-3.9c0.1,0,0.1,0,0.2,0c1.1-0.1,2.2,0.4,3,1.2l-0.9,1
		c-0.5-0.6-1.3-0.9-2.1-0.9c-1.4,0-2.5,1.2-2.5,2.6c0,0,0,0,0,0.1l0,0c-0.1,1.4,1,2.6,2.4,2.7h0.1c0.8,0,1.6-0.4,2.2-1l0.9,0.9
		c-0.8,0.9-1.9,1.4-3.1,1.3c-2.1,0.1-3.8-1.6-3.9-3.7C300.9,1152.1,300.9,1152.1,300.9,1152z"/>
	<path class="st3" d="M311,1149.5h-2.4v-1.2h6.2v1.2h-2.4v6.3h-1.3L311,1149.5z"/>
	<path class="st3" d="M318.9,1154.7l0.8-1c0.6,0.6,1.5,1,2.4,1c0.8,0,1.3-0.4,1.3-1l0,0c0-0.5-0.3-0.8-1.7-1.2
		c-1.6-0.4-2.5-0.9-2.5-2.2l0,0c0.1-1.3,1.1-2.3,2.4-2.2c0.1,0,0.1,0,0.2,0c1,0,2,0.3,2.7,1l-0.7,1c-0.6-0.5-1.3-0.7-2-0.8
		c-0.8,0-1.2,0.4-1.2,0.9l0,0c0,0.6,0.4,0.8,1.8,1.2s2.4,1,2.4,2.2l0,0c0,1.4-1.1,2.2-2.7,2.2
		C320.9,1155.9,319.8,1155.5,318.9,1154.7z"/>
	<path class="st3" d="M326.3,1148.2h3c1.8,0,2.9,1,2.9,2.5l0,0c0,1.7-1.4,2.6-3,2.6h-1.5v2.4h-1.4V1148.2z M329.2,1152.2
		c1,0,1.6-0.6,1.6-1.3l0,0c0-0.9-0.6-1.3-1.6-1.3h-1.5v2.7L329.2,1152.2z"/>
	<path class="st3" d="M335.4,1148.2h1.2l3.3,7.6h-1.4l-0.8-1.8h-3.6l-0.8,1.8h-1.4L335.4,1148.2z M337.3,1152.8l-1.3-3l-1.3,3H337.3
		z"/>
	<path class="st3" d="M340.5,1152L340.5,1152c0-2.1,1.6-3.9,3.7-3.9c0.1,0,0.1,0,0.2,0c1.1-0.1,2.2,0.4,3,1.2l-0.9,1
		c-0.5-0.6-1.3-0.9-2.1-0.9c-1.4,0-2.5,1.2-2.5,2.6c0,0,0,0,0,0.1l0,0c-0.1,1.4,1,2.6,2.4,2.7h0.1c0.8,0,1.6-0.4,2.2-1l0.9,0.9
		c-0.8,0.9-1.9,1.4-3.1,1.3c-2.1,0-3.8-1.7-3.8-3.8C340.5,1152.1,340.5,1152.1,340.5,1152z"/>
	<path class="st3" d="M348.8,1148.2h5.6v1.2h-4.3v2h3.8v1.2h-3.8v2h4.3v1.2h-5.6V1148.2z"/>
	<path class="st4" d="M498,1055.8h1.2v5.6h3.5v1.1H498V1055.8z"/>
	<path class="st4" d="M503.3,1059.1L503.3,1059.1c0.1-1.9,1.8-3.4,3.8-3.2c1.7,0.1,3.1,1.5,3.2,3.2l0,0c-0.1,1.9-1.8,3.4-3.8,3.2
		C504.8,1062.2,503.4,1060.9,503.3,1059.1z M509,1059.1L509,1059.1c0-1.3-0.9-2.3-2.2-2.4c0,0,0,0-0.1,0c-1.3,0-2.3,1-2.3,2.3v0.1
		l0,0c0,1.3,0.9,2.3,2.2,2.4h0.1C507.9,1061.5,509,1060.5,509,1059.1C509,1059.2,509,1059.2,509,1059.1L509,1059.1z"/>
	<path class="st4" d="M511.7,1055.8h3c0.6,0,1.3,0.2,1.8,0.6c0.3,0.3,0.5,0.7,0.5,1.1l0,0c0,0.7-0.4,1.3-1,1.5
		c0.8,0.2,1.3,0.8,1.3,1.6l0,0c0,1.2-1,1.8-2.5,1.8h-3.1L511.7,1055.8L511.7,1055.8z M515.7,1057.7c0-0.5-0.4-0.9-1.2-0.9h-1.7v1.8
		h1.6C515.2,1058.6,515.7,1058.3,515.7,1057.7L515.7,1057.7z M514.7,1059.6h-1.9v1.8h2c0.8,0,1.3-0.3,1.3-0.9l0,0
		C516.1,1059.9,515.7,1059.6,514.7,1059.6L514.7,1059.6z"/>
	<path class="st4" d="M518.6,1055.8h3c0.6,0,1.3,0.2,1.8,0.6c0.3,0.3,0.5,0.7,0.5,1.1l0,0c0,0.7-0.4,1.3-1,1.5
		c0.8,0.2,1.3,0.8,1.3,1.6l0,0c0,1.2-1,1.8-2.5,1.8h-3.1V1055.8z M522.6,1057.7c0-0.5-0.4-0.9-1.2-0.9h-1.6v1.8h1.6
		C522.2,1058.6,522.7,1058.3,522.6,1057.7L522.6,1057.7z M521.6,1059.6h-1.8v1.8h2c0.8,0,1.3-0.3,1.3-0.9l0,0
		C523,1059.9,522.6,1059.6,521.6,1059.6L521.6,1059.6z"/>
	<path class="st4" d="M527.2,1059.8l-2.7-4.1h1.4l1.9,3l1.9-3h1.3l-2.7,4v2.7h-1.2L527.2,1059.8z"/>
	<g>
		<path class="st5" d="M464.5,1188.9h8.4v1.8h-6.4v3h5.7v1.8h-5.7v3h6.5v1.8h-8.5V1188.9z"/>
		<path class="st5" d="M479.4,1188.8h1.8l5,11.5h-2l-1.2-2.8h-5.4l-1.2,2.8h-2L479.4,1188.8z M482.3,1195.8l-2-4.5l-2,4.5H482.3z"/>
		<path class="st5" d="M487.3,1198.6l1.2-1.4c1,0.9,2.2,1.5,3.6,1.5c1.2,0,2-0.6,2-1.4l0,0c0-0.8-0.5-1.2-2.6-1.7
			c-2.4-0.6-3.8-1.3-3.8-3.4l0,0c0-2,1.6-3.3,3.9-3.3c1.5,0,3,0.5,4.1,1.4l-1.1,1.5c-0.9-0.7-2-1.1-3.1-1.2c-1.2,0-1.8,0.6-1.8,1.3
			l0,0c0,0.9,0.5,1.3,2.7,1.8c2.4,0.6,3.6,1.5,3.6,3.3l0,0c0,2.1-1.7,3.4-4.1,3.4C490.2,1200.5,488.6,1199.8,487.3,1198.6z"/>
		<path class="st5" d="M501,1190.8h-3.6v-1.9h9.2v1.8H503v9.5h-2V1190.8z"/>
		<path class="st5" d="M513.6,1188.9h4.5c2.7,0,4.3,1.5,4.3,3.8l0,0c0,2.5-2,3.9-4.5,3.9h-2.3v3.7h-2V1188.9z M517.9,1194.8
			c1.5,0,2.5-0.8,2.5-2l0,0c0-1.3-1-2-2.5-2h-2.3v4.1L517.9,1194.8z"/>
		<path class="st5" d="M524.4,1188.9h2v9.5h6v1.8h-8V1188.9z"/>
		<path class="st5" d="M538.5,1188.8h1.8l5,11.5h-2.1l-1.2-2.8h-5.4l-1.2,2.8h-2L538.5,1188.8z M541.4,1195.8l-2-4.5l-2,4.5H541.4z"
			/>
		<path class="st5" d="M546.9,1198.8l6.7-8.1h-6.5v-1.8h9.1v1.5l-6.7,8.1h6.7v1.8h-9.3V1198.8z"/>
		<path class="st5" d="M562.7,1188.8h1.8l5,11.5h-2.1l-1.2-2.8h-5.4l-1.2,2.8h-2L562.7,1188.8z M565.6,1195.8l-2-4.5l-2,4.5H565.6z"
			/>
	</g>
	<rect x="242.4" y="1129.7" class="st6" width="1.1" height="0.4"/>
	<rect x="27.6" y="1075.3" class="st6" width="0.4" height="1.1"/>
	
		<rect x="54.1" y="951.4" transform="matrix(0.7071 -0.7071 0.7071 0.7071 -675.5634 325.0955)" class="st7" width="1.1" height="53.3"/>
	
		<rect x="78.2" y="927.3" transform="matrix(0.7071 -0.7071 0.7071 0.7071 -651.4614 335.0762)" class="st7" width="1.1" height="53.3"/>
	
		<rect x="192.6" y="812.8" transform="matrix(0.7071 -0.7071 0.7071 0.7071 -537.133 382.4972)" class="st7" width="1.1" height="53.7"/>
	
		<rect x="264.4" y="758.2" transform="matrix(0.7071 -0.7071 0.7071 0.7071 -472.3012 415.1247)" class="st7" width="1.1" height="39"/>
	<polygon class="st6" points="137.9,933 137.9,932.9 138.6,932.2 	"/>
	<polygon class="st6" points="99.9,895 99.8,894.9 100.6,894.2 	"/>
	
		<rect x="248.6" y="774" transform="matrix(0.7071 -0.7071 0.7071 0.7071 -488.0998 408.573)" class="st7" width="1.1" height="39"/>
	
		<rect x="237.3" y="835.1" transform="matrix(0.6869 -0.7267 0.7267 0.6869 -532.5179 434.3325)" class="st6" width="1.1" height="0.3"/>
	
		<rect x="284.5" y="785.9" transform="matrix(0.7092 -0.705 0.705 0.7092 -471.1936 429.5094)" class="st6" width="1.1" height="0.1"/>
	
		<rect x="272.3" y="798" transform="matrix(0.705 -0.7092 0.7092 0.705 -485.4787 428.9218)" class="st6" width="1.1" height="0.1"/>
	<path class="st8" d="M251.3,763.8"/>
	
		<rect x="295.2" y="775.1" transform="matrix(0.7483 -0.6634 0.6634 0.7483 -439.7625 391.3162)" class="st6" width="1.1" height="0.1"/>
	
		<rect x="306.7" y="763.7" transform="matrix(0.6654 -0.7465 0.7465 0.6654 -467.3112 484.9203)" class="st6" width="1.1" height="0.1"/>
	
		<rect x="324.1" y="699" transform="matrix(0.707 -0.7072 0.7072 0.707 -413.0322 440.118)" class="st7" width="1.1" height="39.1"/>
	<polygon class="st7" points="360.7,718.9 359.6,718.9 359.6,709.9 354.1,709.9 329.6,685.5 330.4,684.7 354.5,708.8 360.7,708.8 	
		"/>
	<rect x="371.8" y="678.5" class="st7" width="1.1" height="40.4"/>
	<rect x="384.3" y="678.6" class="st7" width="1.1" height="40.4"/>
	<rect x="547.7" y="678.6" class="st7" width="1.1" height="40.3"/>
	<rect x="578.3" y="678.6" class="st7" width="1.1" height="40.3"/>
	<rect x="608.8" y="678.6" class="st7" width="1.1" height="40.4"/>
	<rect x="630.2" y="678.6" class="st7" width="1.1" height="40.3"/>
	<rect x="673.7" y="678.6" class="st7" width="1.1" height="40.3"/>
	<path class="st8" d="M684.9,791.8"/>
	<path class="st8" d="M688.9,787.8"/>
	<path class="st8" d="M745.7,714.9"/>
	<polygon class="st7" points="736.1,834.9 735.3,834.2 770.9,798.6 782.9,810.6 811.8,781.7 812.6,782.4 782.9,812.2 770.9,800.2 	
		"/>
	<polygon class="st7" points="759.9,858.8 759.1,858 793.9,823.2 782.5,811.8 783.3,811 795.4,823.2 	"/>
	
		<rect x="823.1" y="853.4" transform="matrix(0.7071 -0.7071 0.7071 0.7071 -355.3018 850.0764)" class="st7" width="50.8" height="1.1"/>
	<path class="st8" d="M882.5,851.5"/>
	
		<rect x="809.4" y="981.1" transform="matrix(0.7071 -0.7071 0.7071 0.7071 -456.5314 860.082)" class="st6" width="1.1" height="0.1"/>
	
		<rect x="729.8" y="822.7" transform="matrix(0.706 -0.7082 0.7082 0.706 -425.5934 783.0414)" class="st7" width="1.1" height="162.9"/>
	
		<rect x="725.1" y="889.8" transform="matrix(0.7071 -0.7071 0.7071 0.7071 -411.3532 787.558)" class="st7" width="39.8" height="1.1"/>
	<polygon class="st7" points="210.9,998.4 210.1,997.6 250.7,956.9 302.5,905.3 303.3,906 251.5,957.7 	"/>
	<path class="st8" d="M193.2,899.5"/>
	
		<rect x="251.2" y="857.9" transform="matrix(0.7097 -0.7045 0.7045 0.7097 -560.0419 438.2426)" class="st7" width="1.1" height="81.6"/>
	
		<rect x="221.6" y="887.5" transform="matrix(0.7071 -0.7071 0.7071 0.7071 -591.3947 428.9954)" class="st7" width="1.1" height="81.8"/>
	<path class="st9" d="M718.3,742.3"/>
	<path class="st9" d="M725.1,735.4"/>
	
		<rect x="859" y="860.8" transform="matrix(0.7071 -0.7071 0.7071 0.7071 -353.1084 870.1738)" class="st7" width="29.7" height="1.1"/>
	<polyline class="st10" points="106.3,986.1 134.4,1014.3 214.9,1094.9 	"/>
	
		<rect x="160.1" y="963.7" transform="matrix(0.7076 -0.7066 0.7066 0.7076 -688.2725 417.7607)" class="st7" width="1.1" height="153.7"/>
	<line class="st11" x1="172.2" y1="975.2" x2="134.4" y2="1014.3"/>
	
		<rect x="126.2" y="994.2" transform="matrix(0.6948 -0.7192 0.7192 0.6948 -668.6081 413.8833)" class="st7" width="54.3" height="1.1"/>
	<line class="st11" x1="199" y1="1002.1" x2="160.4" y2="1040.5"/>
	
		<rect x="152.5" y="1020.8" transform="matrix(0.7086 -0.7056 0.7056 0.7086 -668.2794 424.4439)" class="st7" width="54.5" height="1.1"/>
	<line class="st11" x1="103.4" y1="1031" x2="127.3" y2="1007.1"/>
	
		<rect x="98.4" y="1018.5" transform="matrix(0.7071 -0.7071 0.7071 0.7071 -686.7905 379.993)" class="st7" width="33.8" height="1.1"/>
	<path class="st12" d="M93.6,1062.5"/>
	<polygon class="st7" points="140.7,1095.3 100,1054.6 92.6,1061.5 91.9,1060.8 100.1,1053.1 141.4,1094.5 	"/>
	<polygon class="st7" points="153.7,1082.2 145.7,1073.4 169.7,1049.6 170.5,1050.4 147.2,1073.4 154.5,1081.5 	"/>
	<line class="st11" x1="175" y1="1102.4" x2="199" y2="1078.9"/>
	
		<rect x="170.2" y="1090.1" transform="matrix(0.7163 -0.6978 0.6978 0.7163 -707.9875 439.9054)" class="st7" width="33.6" height="1.1"/>
	
		<rect x="720.8" y="724.6" transform="matrix(0.7071 -0.7071 0.7071 0.7071 -297.3684 732.3479)" class="st2" width="29.1" height="1.1"/>
	
		<rect x="863.1" y="883.1" transform="matrix(0.7071 -0.7071 0.7071 0.7071 -365.7863 884.1695)" class="st7" width="42.6" height="1.1"/>
	<polygon class="st7" points="623.1,857.7 622.1,813 402,813 401.8,857.6 400.7,857.6 400.9,812 623.1,812 623.2,812.5 624.2,857.7 
			"/>
	<rect x="28" y="1075.3" class="st7" width="40.5" height="1.1"/>
	
		<rect x="118.7" y="887.2" transform="matrix(0.7071 -0.7071 0.7071 0.7071 -611.2476 351.9739)" class="st7" width="1.1" height="53.3"/>
	
		<rect x="216.4" y="789" transform="matrix(0.7071 -0.7071 0.7071 0.7071 -513.3353 392.3549)" class="st7" width="1.1" height="53.7"/>
	
		<rect x="292.7" y="729.9" transform="matrix(0.7071 -0.7071 0.7071 0.7071 -444.2152 426.9328)" class="st7" width="1.1" height="39.6"/>
	
		<rect x="305.5" y="717.4" transform="matrix(0.7071 -0.7071 0.7071 0.7071 -431.4807 432.2638)" class="st7" width="1.1" height="39.2"/>
	<polygon class="st7" points="298.7,838.6 298.3,838.2 298.1,838.4 276.2,816.5 277,815.8 298.5,837.3 321,814.5 321.7,815.3 
		299.2,838 299.3,838.1 	"/>
	<polygon class="st7" points="334.8,873.7 312.6,851.7 312.6,851.7 312,851.1 312.4,850.7 312.2,850.5 334.6,828.1 335.3,828.9 
		313.3,850.9 335.5,872.9 	"/>
	<polygon class="st7" points="322.3,925.8 302.9,906.4 302.9,906.4 302.3,905.8 302.7,905.4 302.5,905.3 357,850.6 357.8,851.4 
		303.6,905.6 323,925 	"/>
	<rect x="67.6" y="1130.1" class="st7" width="1.1" height="51.8"/>
	<rect x="189.8" y="1130.1" class="st2" width="1.1" height="51.8"/>
	<rect x="242.4" y="1130.7" class="st2" width="1.1" height="51"/>
	<rect x="242.4" y="1130.1" class="st7" width="1.1" height="51.8"/>
	<rect x="189.1" y="1130.3" class="st7" width="1.1" height="51.8"/>
</g>
<title>Asset 1</title>
<g id="first_floor_map">
	<rect x="81.1" y="503.4" class="st13" width="300.8" height="72.4"/>
	<polygon class="st13" points="81.1,575.8 53.1,575.8 32.2,557.3 32.2,503.4 81.1,503.4 	"/>
	<rect x="32.2" y="457.5" class="st13" width="20" height="33.1"/>
	<polygon class="st13" points="707.5,103 722.2,117.8 685.5,154.6 662.5,131.7 651.6,121 626.1,95.4 389.6,94 389.6,53.9 
		712.3,53.9 734.5,76 	"/>
	<polygon class="st13" points="913.8,255.7 883.5,285.8 842.5,244.7 837,250.2 856.2,269.2 828.8,297.2 803.5,272.7 761.8,231 
		738.3,207.6 685.5,154.7 722.2,117.8 707.5,103 734.5,76 	"/>
	
		<rect x="617.8" y="446.9" transform="matrix(0.7071 -0.7071 0.7071 0.7071 -116.8489 629.1907)" class="st13" width="166.5" height="17.5"/>
	<polygon class="st13" points="819.8,308.2 685.5,444.7 622.8,382.9 675,330.6 652.3,307.9 652.3,277.4 668.1,277.2 684.1,293.4 
		745,233.1 	"/>
	<polygon class="st13" points="688.8,179.8 636.5,232.2 624.8,232.2 624.8,291.2 593.2,291.2 593.2,389.3 567.2,395.7 567.2,416.5 
		464.4,416.5 464.4,396 438.6,389 438.6,291.2 406.5,291.2 406.5,232 395.8,232 319.1,155.4 364.9,109.6 618.6,109.6 	"/>
	<polygon class="st13" points="404.2,374.6 313,465.8 160.3,313.4 282.8,191 305,168.9 326.5,190 340.1,203.6 381.6,245.1 
		363.8,263 328,298.7 337.1,307.6 366.6,277.7 382.8,277.7 381.8,306.9 359.1,329.5 	"/>
	<polyline class="st13" points="151.6,321.9 236.9,407.6 201.5,443 201.5,490.6 88.2,490.6 88.2,383.7 	"/>
	<rect x="55.6" y="457.5" class="st13" width="19.9" height="33.1"/>
	<rect x="52.1" y="417.6" class="st13" width="23.4" height="35.3"/>
	<rect x="32.2" y="381.4" class="st13" width="20" height="76.1"/>
	<rect x="58.3" y="374.2" class="st13" width="17.3" height="36"/>
	
		<rect x="71.6" y="308.6" transform="matrix(0.7072 -0.707 0.707 0.7072 -214.4861 154.6728)" class="st13" width="15.9" height="55.3"/>
	
		<rect x="44.5" y="336.3" transform="matrix(0.7071 -0.7071 0.7071 0.7071 -227.6902 142.9312)" class="st13" width="28.3" height="20"/>
	
		<rect x="37.7" y="281.8" transform="matrix(0.7071 -0.7071 0.7071 0.7071 -181.588 139.5859)" class="st13" width="80.1" height="14.3"/>
	
		<rect x="94.3" y="303" transform="matrix(0.7071 -0.7071 0.7071 0.7071 -194.5015 171.2108)" class="st13" width="30.3" height="34.7"/>
	
		<rect x="71" y="345.4" transform="matrix(0.7072 -0.707 0.707 0.7072 -229.9662 160.6085)" class="st13" width="15.8" height="25.1"/>
	
		<rect x="276.4" y="92.3" transform="matrix(0.7071 -0.7071 0.7071 0.7071 12.3592 254.4819)" class="st13" width="74" height="40"/>
	
		<rect x="100.5" y="185.4" transform="matrix(0.7071 -0.7071 0.7071 0.7071 -101.2098 195.4108)" class="st13" width="169.5" height="68.9"/>
	
		<rect x="248.9" y="134.3" transform="matrix(0.7071 -0.7071 0.7071 0.7071 -29.6551 237.0616)" class="st13" width="44.9" height="40"/>
	<rect x="477.6" y="451.8" class="st13" width="78.4" height="30.6"/>
	<polygon class="st13" points="466,482.3 418.4,541.9 395.8,524.5 443.8,464.5 	"/>
	
		<rect x="593.6" y="461.5" transform="matrix(0.7071 -0.7071 0.7071 0.7071 -177.0783 577.6508)" class="st13" width="30.2" height="82.1"/>
	<polygon class="st13" points="417.8,542.6 392.6,575.8 381.9,575.8 381.9,525.3 395.3,525.3 	"/>
	<polyline class="st13" points="477.3,451.8 453.2,451.8 444.2,463.9 467.1,482.3 477.3,482.3 	"/>
	<polyline class="st13" points="556.3,482.3 556.3,451.8 580.3,451.8 589.8,462.3 568.5,483.6 567.2,482.3 	"/>
	
		<rect x="656.2" y="213.8" transform="matrix(0.7071 -0.7071 0.7071 0.7071 36.5522 559.892)" class="st13" width="75.8" height="44"/>
	<polygon class="st13" points="868.1,301.2 766.2,403 754,390.6 855.6,288.8 	"/>
	
		<rect x="117.1" y="263.7" transform="matrix(0.7072 -0.707 0.707 0.7072 -168.9241 173.5164)" class="st13" width="15.8" height="54"/>
	<line class="st14" x1="100.2" y1="277.2" x2="111.4" y2="266"/>
	<polygon class="st13" points="52.2,367.1 52.1,381.4 32.2,381.4 32.2,358 41.6,349.3 55.8,363.5 	"/>
	<polyline class="st13" points="209.5,490.7 209.5,446.8 251.7,404.6 251.7,404.6 267.8,420.7 233,455.6 233,490.7 	"/>
	<path class="st15" d="M658.6,180.3l-1.1,0.4l-0.1-0.3l1.3-0.5h0.3v5.7h-0.4V180.3z"/>
	<path class="st15" d="M661.1,185.1c-0.6-0.6-0.8-1.4-0.7-2.2l0,0c0-1.7,0.9-3.1,2.3-3.1c0.6,0,1.2,0.2,1.6,0.7l-0.3,0.3
		c-0.4-0.4-0.9-0.6-1.4-0.6c-1.1,0-1.9,1.2-1.9,2.8v0.2c0.3-0.7,1-1.1,1.8-1.1c1-0.1,1.9,0.7,2,1.7c0,0,0,0,0,0.1l0,0
		c0,1-0.9,1.9-1.9,1.9h-0.1C662,185.7,661.5,185.5,661.1,185.1z M664.1,183.8L664.1,183.8c0-0.8-0.7-1.4-1.5-1.4h-0.1
		c-0.8,0-1.5,0.6-1.6,1.4l0,0c0,0.8,0.7,1.5,1.5,1.4c0,0,0,0,0.1,0C663.5,185.3,664.1,184.7,664.1,183.8
		C664.1,183.9,664.1,183.8,664.1,183.8L664.1,183.8z"/>
	<path class="st15" d="M666.3,180.3l-1.1,0.4l-0.1-0.3l1.3-0.5h0.3v5.7h-0.4V180.3z"/>
	<path class="st15" d="M743.2,151.6l-1.1,0.4l-0.1-0.3l1.3-0.5h0.3v5.7h-0.4V151.6z"/>
	<path class="st15" d="M745.8,156.4c-0.6-0.6-0.8-1.4-0.7-2.2l0,0c0-1.7,0.9-3.1,2.3-3.1c0.6,0,1.2,0.2,1.6,0.7l-0.3,0.3
		c-0.4-0.4-0.9-0.6-1.4-0.6c-1.1,0-1.9,1.2-1.9,2.8v0.2c0.4-0.7,1-1.1,1.8-1.1c1-0.1,1.9,0.7,2,1.7c0,0,0,0,0,0.1l0,0
		c0,1-0.9,1.9-1.9,1.9h-0.1C746.6,156.9,746.1,156.7,745.8,156.4z M748.8,155.1L748.8,155.1c0-0.8-0.7-1.4-1.5-1.4h-0.1
		c-0.8,0-1.5,0.6-1.6,1.4l0,0c0,0.8,0.7,1.5,1.5,1.4c0,0,0,0,0.1,0C748,156.6,748.6,156,748.8,155.1L748.8,155.1z"/>
	<path class="st15" d="M750.1,156l0.3-0.3c0.4,0.5,1,0.8,1.7,0.8c0.8,0,1.5-0.6,1.5-1.3v-0.1l0,0c0-0.8-0.7-1.4-1.4-1.4h-0.1
		c-0.5,0-0.9,0.1-1.3,0.4l-0.3-0.2l0.2-2.8h3.2v0.4H751l-0.1,2.1c0.4-0.2,0.8-0.3,1.3-0.3c1-0.1,1.9,0.6,1.9,1.6v0.1l0,0
		c0,1-0.8,1.8-1.8,1.8c-0.1,0-0.1,0-0.2,0C751.3,156.9,750.6,156.6,750.1,156z"/>
	<path class="st15" d="M810.1,220.3l-1.1,0.4l-0.1-0.3l1.3-0.5h0.3v5.7h-0.4V220.3z"/>
	<path class="st15" d="M815.2,220.3H812v-0.4h3.8v0.3l-2.6,5.4h-0.5L815.2,220.3z"/>
	<path class="st15" d="M819,224.2h-3l-0.1-0.3l3.2-4h0.4v4h0.9v0.4h-0.9v1.4H819V224.2z M819,223.8v-3.4l-2.7,3.3L819,223.8z"/>
	<path class="st15" d="M840,308.7l-1.1,0.4l-0.1-0.3l1.3-0.5h0.3v5.7H840V308.7z"/>
	<path class="st15" d="M845,308.7h-3.3v-0.4h3.8v0.3L843,314h-0.5L845,308.7z"/>
	<path class="st15" d="M847,313.5c-0.6-0.6-0.8-1.4-0.7-2.2l0,0c0-1.7,0.9-3.1,2.3-3.1c0.6,0,1.2,0.2,1.6,0.7l-0.3,0.3
		c-0.4-0.4-0.9-0.6-1.4-0.6c-1.1,0-1.9,1.2-1.9,2.8v0.2c0.4-0.7,1-1.1,1.8-1c1-0.1,1.9,0.7,2,1.7c0,0,0,0,0,0.1l0,0
		c0,1-0.9,1.9-1.9,1.9h-0.1C848,314.1,847.5,313.9,847,313.5z M850,312.3L850,312.3c0-0.8-0.7-1.4-1.5-1.4h-0.1
		c-0.8,0-1.5,0.6-1.6,1.4l0,0c0,0.8,0.7,1.5,1.5,1.4c0,0,0,0,0.1,0C849.3,313.8,850,313.1,850,312.3L850,312.3z"/>
	<path class="st15" d="M805.8,343.5l-1.1,0.4l-0.1-0.3l1.3-0.5h0.3v5.7h-0.4V343.5z"/>
	<path class="st15" d="M810.8,343.5h-3.3v-0.4h3.8v0.3l-2.6,5.4h-0.5L810.8,343.5z"/>
	<path class="st15" d="M815.6,343.5h-3.3v-0.4h3.8v0.3l-2.6,5.4H813L815.6,343.5z"/>
	<path class="st15" d="M773,376.1l-1.1,0.4l-0.1-0.3l1.3-0.5h0.3v5.7H773V376.1z"/>
	<path class="st15" d="M778.1,376.1h-3.3v-0.4h3.8v0.3l-2.6,5.4h-0.5L778.1,376.1z"/>
	<path class="st15" d="M779.5,379.8L779.5,379.8c0.1-0.7,0.6-1.3,1.3-1.4c-0.6-0.2-1-0.7-1.1-1.3l0,0c0-0.9,0.9-1.5,1.9-1.5
		s1.9,0.6,1.9,1.5l0,0c0,0.6-0.5,1.1-1.1,1.3c0.7,0.1,1.2,0.7,1.3,1.4l0,0c0,0.9-0.9,1.6-2.1,1.6S779.5,380.8,779.5,379.8z
		 M783.2,379.8L783.2,379.8c0-0.7-0.8-1.2-1.7-1.2s-1.7,0.5-1.7,1.2l0,0c0,0.6,0.6,1.2,1.7,1.2S783.2,380.5,783.2,379.8L783.2,379.8
		z M783,377L783,377c0-0.6-0.7-1.1-1.5-1.1s-1.5,0.5-1.5,1.1l0,0c0.1,0.8,0.9,1.4,1.7,1.3C782.5,378.2,783,377.7,783,377L783,377z"
		/>
	<path class="st15" d="M721.8,427.9l-1.1,0.4l-0.1-0.3l1.3-0.5h0.3v5.7h-0.4V427.9z"/>
	<path class="st15" d="M727,427.9h-3.3v-0.4h3.8v0.3l-2.6,5.4h-0.5L727,427.9z"/>
	<path class="st15" d="M732,430.2V430c-0.3,0.7-1,1.1-1.8,1.1c-1,0.1-1.9-0.6-2-1.6v-0.1l0,0c0-1.1,0.9-1.9,1.9-1.9h0.1
		c0.5,0,1.1,0.2,1.4,0.6c0.5,0.6,0.8,1.4,0.7,2.2l0,0c0,1.8-1,3.1-2.3,3.1c-0.6,0-1.2-0.3-1.7-0.7l0.3-0.3c0.4,0.4,0.9,0.6,1.5,0.6
		C731.2,432.9,732,431.7,732,430.2z M731.8,429.2L731.8,429.2c0-0.8-0.7-1.5-1.6-1.4c0,0,0,0-0.1,0c-0.8,0-1.5,0.6-1.5,1.4v0.1l0,0
		c0,0.8,0.7,1.4,1.5,1.4h0.1C731,430.7,731.8,430.1,731.8,429.2C731.8,429.2,731.8,429.2,731.8,429.2L731.8,429.2z"/>
	<path class="st15" d="M168.5,548l-1.1,0.4l-0.1-0.3l1.3-0.5h0.3v5.7h-0.4V548z"/>
	<path class="st15" d="M171.2,548l-1.1,0.4l-0.1-0.3l1.3-0.5h0.3v5.7h-0.4V548L171.2,548z"/>
	<path class="st15" d="M172.9,553l2.1-1.9c0.9-0.8,1.3-1.3,1.3-1.9c0-0.7-0.6-1.2-1.2-1.2l0,0c-0.7,0-1.3,0.4-1.7,1l-0.4-0.2
		c0.4-0.8,1.2-1.2,2-1.2c0.9-0.1,1.6,0.6,1.7,1.5c0,0,0,0,0,0.1l0,0c0,0.8-0.4,1.3-1.4,2.2l-1.7,1.6h3.2v0.4H173L172.9,553z"/>
	<path class="st15" d="M107.6,548.2l-1.1,0.4l-0.1-0.3l1.3-0.5h0.3v5.7h-0.4C107.6,553.5,107.6,548.2,107.6,548.2z"/>
	<path class="st15" d="M110.3,548.2l-1.1,0.4l-0.1-0.3l1.3-0.5h0.3v5.7h-0.4L110.3,548.2z"/>
	<path class="st15" d="M112.8,553c-0.6-0.6-0.8-1.4-0.7-2.2l0,0c0-1.7,0.9-3.1,2.3-3.1c0.6,0,1.2,0.2,1.6,0.7l-0.3,0.3
		c-0.4-0.4-0.9-0.6-1.4-0.6c-1.1,0-1.9,1.2-1.9,2.8v0.2c0.4-0.7,1-1.1,1.8-1c1-0.1,1.9,0.7,2,1.7c0,0,0,0,0,0.1l0,0
		c0,1-0.9,1.9-1.9,1.9h-0.1C113.8,553.6,113.2,553.4,112.8,553z M115.8,551.7L115.8,551.7c0-0.8-0.7-1.4-1.5-1.4h-0.1
		c-0.8,0-1.5,0.6-1.6,1.4l0,0c0,0.8,0.7,1.5,1.5,1.4c0,0,0,0,0.1,0C115.1,553.3,115.8,552.6,115.8,551.7
		C115.8,551.8,115.8,551.8,115.8,551.7L115.8,551.7z"/>
	<path class="st15" d="M56.2,548l-1.1,0.4l-0.1-0.3l1.3-0.5h0.3v5.7h-0.4V548z"/>
	<path class="st15" d="M59,548l-1.1,0.4l-0.1-0.3l1.3-0.5h0.3v5.7H59V548z"/>
	<path class="st15" d="M60.7,551.8L60.7,551.8c0.1-0.7,0.6-1.3,1.3-1.4c-0.6-0.2-1-0.7-1.1-1.3l0,0c0-0.9,0.9-1.5,1.9-1.5
		s1.9,0.6,1.9,1.5l0,0c0,0.6-0.5,1.1-1.1,1.3c0.7,0.1,1.2,0.7,1.3,1.4l0,0c0,0.9-0.9,1.6-2.1,1.6S60.7,552.7,60.7,551.8z
		 M64.4,551.8L64.4,551.8c0-0.7-0.8-1.2-1.7-1.2s-1.7,0.5-1.7,1.2l0,0c0,0.6,0.6,1.2,1.7,1.2S64.4,552.4,64.4,551.8z M64.3,549
		L64.3,549c0-0.6-0.7-1.1-1.5-1.1s-1.5,0.5-1.5,1.1l0,0c0,0.7,0.7,1.2,1.5,1.2S64.3,549.7,64.3,549z"/>
	<path class="st15" d="M187,472.9l-1.1,0.4l-0.1-0.3l1.3-0.5h0.3v5.7H187V472.9z"/>
	<path class="st15" d="M189.7,472.9l-1.1,0.4l-0.1-0.3l1.3-0.5h0.3v5.7h-0.4V472.9z"/>
	<path class="st15" d="M192.4,472.9l-1.1,0.4l-0.1-0.3l1.3-0.5h0.3v5.7h-0.4V472.9z"/>
	<path class="st15" d="M105.5,416.6l-1.1,0.4l-0.1-0.3l1.3-0.5h0.3v5.7h-0.4L105.5,416.6z"/>
	<path class="st15" d="M107.2,421.5l2.1-1.9c0.9-0.9,1.3-1.3,1.3-1.9c0-0.7-0.6-1.2-1.2-1.2l0,0c-0.7,0-1.3,0.4-1.7,1l-0.3-0.2
		c0.4-0.8,1.2-1.2,2-1.2c0.9-0.1,1.6,0.6,1.7,1.5c0,0,0,0,0,0.1l0,0c0,0.8-0.4,1.3-1.4,2.2l-1.7,1.6h3.2v0.4h-3.9L107.2,421.5z"/>
	<path class="st15" d="M114.9,420.4h-3.1l-0.1-0.3l3.2-4h0.4v4h0.9v0.4h-0.9v1.3h-0.4V420.4z M114.9,420.1v-3.4l-2.7,3.4H114.9z"/>
	<path class="st15" d="M129.3,360.6l-1.1,0.4l-0.1-0.3l1.3-0.5h0.3v5.7h-0.4L129.3,360.6z"/>
	<path class="st15" d="M134.2,364.5h-3.1l-0.1-0.3l3.2-4h0.4v4h0.9v0.4h-0.9v1.4h-0.4V364.5z M134.2,364.1v-3.3l-2.7,3.4
		L134.2,364.1z"/>
	<path class="st15" d="M136.3,365.6l2.1-1.9c0.9-0.9,1.3-1.3,1.3-1.9c0-0.7-0.6-1.2-1.2-1.2l0,0c-0.7,0-1.3,0.4-1.7,1l-0.3-0.2
		c0.4-0.8,1.2-1.2,2-1.2c0.9-0.1,1.6,0.6,1.7,1.5c0,0,0,0,0,0.1l0,0c0,0.8-0.4,1.3-1.4,2.2l-1.7,1.6h3.2v0.4h-3.9v-0.4H136.3z"/>
	<path class="st15" d="M161.4,383.2l-1.1,0.4l-0.1-0.3l1.3-0.5h0.3v5.7h-0.4V383.2z"/>
	<path class="st15" d="M166.2,387.1h-3.1l-0.1-0.3l3.2-4h0.4v4h0.9v0.4h-0.9v1.4h-0.4L166.2,387.1L166.2,387.1z M166.2,386.8v-3.4
		l-2.7,3.4H166.2z"/>
	<path class="st15" d="M168.5,387.6l0.3-0.3c0.4,0.6,1.1,0.9,1.8,0.9c0.7,0.1,1.3-0.5,1.4-1.2l0,0l0,0c0-0.8-0.8-1.2-1.8-1.2h-0.3
		l-0.1-0.2l2-2.2h-3v-0.6h3.6v0.3l-1.9,2.2c1.1,0.1,2,0.6,2,1.6l0,0c0,1-0.9,1.7-1.8,1.7l0,0C169.7,388.6,169,388.2,168.5,387.6z"/>
	<path class="st15" d="M165.5,234.3l-1.1,0.4l-0.1-0.3l1.3-0.5h0.3v5.7h-0.4V234.3z"/>
	<path class="st15" d="M170.4,238.2h-3.1l-0.1-0.3l3.2-4h0.4v4h0.9v0.4h-0.9v1.4h-0.4L170.4,238.2z M170.4,237.8v-3.4l-2.7,3.3
		L170.4,237.8z"/>
	<path class="st15" d="M175.7,238.2h-3.1l-0.1-0.3l3.2-4h0.4v4h0.9v0.4h-0.9v1.4h-0.4L175.7,238.2z M175.7,237.8v-3.4l-2.7,3.4
		H175.7z"/>
	<path class="st15" d="M224,174.7l-1.1,0.4l-0.1-0.3l1.3-0.5h0.3v5.7H224V174.7z"/>
	<path class="st15" d="M228.9,178.6h-3.1l-0.1-0.3l3.2-4h0.4v4h0.9v0.4h-0.9v1.4h-0.4L228.9,178.6L228.9,178.6z M228.9,178.3v-3.4
		l-2.7,3.4H228.9z"/>
	<path class="st15" d="M231.9,179.5c-0.6-0.6-0.8-1.4-0.7-2.2l0,0c0-1.7,0.9-3.1,2.3-3.1c0.6,0,1.2,0.2,1.6,0.7l-0.3,0.3
		c-0.4-0.4-0.9-0.6-1.4-0.6c-1.1,0-1.9,1.2-1.9,2.8v0.2c0.4-0.7,1-1.1,1.8-1.1c1-0.1,1.9,0.7,2,1.7c0,0,0,0,0,0.1l0,0
		c0,1-0.9,1.9-1.9,1.9h-0.1C232.9,180.1,232.3,179.9,231.9,179.5z M234.9,178.2L234.9,178.2c0-0.8-0.7-1.4-1.5-1.4h-0.1
		c-0.8,0-1.5,0.6-1.6,1.4l0,0c0,0.8,0.7,1.5,1.5,1.4c0,0,0,0,0.1,0C234.2,179.7,234.9,179.1,234.9,178.2
		C234.9,178.3,234.9,178.3,234.9,178.2L234.9,178.2z"/>
	<path class="st15" d="M314.3,104.4l-1.1,0.4l-0.1-0.3l1.3-0.5h0.3v5.7h-0.4L314.3,104.4z"/>
	<path class="st15" d="M316,108.8l0.3-0.3c0.4,0.5,1,0.8,1.7,0.8c0.8,0,1.5-0.6,1.5-1.3v-0.1l0,0c0-0.8-0.7-1.4-1.4-1.4H318
		c-0.5,0-0.9,0.1-1.3,0.4l-0.3-0.2l0.2-2.8h3.2v0.4H317l-0.1,2.1c0.4-0.2,0.8-0.3,1.3-0.3c1-0.1,1.9,0.6,1.9,1.6v0.1l0,0
		c0,1-0.8,1.8-1.8,1.8c-0.1,0-0.1,0-0.2,0C317.2,109.7,316.5,109.4,316,108.8z"/>
	<path class="st15" d="M320.9,108.7l0.3-0.3c0.4,0.6,1.1,0.9,1.8,0.9c0.7,0.1,1.3-0.5,1.4-1.2l0,0l0,0c0-0.8-0.8-1.2-1.8-1.2h-0.3
		l-0.1-0.2l2-2.3h-3V104h3.5v0.3l-1.9,2.2c1.1,0.1,2,0.6,2,1.6l0,0c0,1-0.8,1.7-1.8,1.7l0,0C322.2,109.8,321.4,109.4,320.9,108.7z"
		/>
	<path class="st15" d="M411.5,71.2l-1.1,0.4l-0.1-0.3l1.3-0.5h0.3v5.7h-0.4L411.5,71.2z"/>
	<path class="st15" d="M413.2,75.6l0.3-0.3c0.4,0.5,1,0.8,1.7,0.8c0.8,0.1,1.5-0.6,1.5-1.3l0,0l0,0c0-0.8-0.7-1.4-1.4-1.4h-0.1
		c-0.5,0-0.9,0.1-1.3,0.4l-0.3-0.2l0.2-2.8h3.2v0.4h-2.8l-0.2,2.1c0.4-0.2,0.8-0.3,1.3-0.3c1-0.1,1.9,0.6,1.9,1.6v0.1l0,0
		c0,1-0.8,1.8-1.8,1.8c-0.1,0-0.1,0-0.2,0C414.5,76.5,413.8,76.2,413.2,75.6z"/>
	<path class="st15" d="M418.1,75.6l0.3-0.3c0.4,0.5,1,0.8,1.7,0.8c0.8,0.1,1.5-0.6,1.5-1.3l0,0l0,0c0-0.8-0.7-1.4-1.4-1.4h-0.1
		c-0.5,0-0.9,0.1-1.3,0.4l-0.3-0.2l0.2-2.8h3.2v0.4H419l-0.1,2.1c0.4-0.2,0.8-0.3,1.3-0.3c1-0.1,1.9,0.6,1.9,1.6v0.1l0,0
		c0,1-0.8,1.8-1.8,1.8c-0.1,0-0.1,0-0.2,0C419.3,76.6,418.6,76.2,418.1,75.6z"/>
	<path class="st15" d="M673.1,91.4l-1.1,0.4l-0.1-0.3l1.3-0.5h0.3v5.7h-0.4V91.4z"/>
	<path class="st15" d="M674.8,95.9l0.3-0.3c0.4,0.5,1,0.8,1.7,0.8c0.8,0,1.5-0.6,1.5-1.3V95l0,0c0-0.8-0.7-1.4-1.4-1.4h-0.1
		c-0.5,0-0.9,0.1-1.3,0.4l-0.3-0.2l0.2-2.8h3.2v0.4h-2.8l-0.1,2.1c0.4-0.2,0.8-0.3,1.3-0.3c1-0.1,1.8,0.6,1.9,1.6v0.1l0,0
		c0,1-0.8,1.8-1.8,1.8c-0.1,0-0.1,0-0.2,0C676.1,96.7,675.5,96.4,674.8,95.9z"/>
	<path class="st15" d="M683,91.4h-3.3V91h3.8v0.3l-2.6,5.4h-0.5L683,91.4z"/>
	<line class="st14" x1="284.9" y1="168.2" x2="257.1" y2="140.3"/>
	<line class="st16" x1="313.2" y1="140.7" x2="284.9" y2="112.4"/>
	<g>
		<path class="st15" d="M129.1,297.5l-1.1,0.4l-0.1-0.3l1.3-0.5h0.3v5.7h-0.4V297.5z"/>
		<path class="st15" d="M135.7,301.8l0.3-0.3c0.4,0.6,1.1,0.9,1.8,0.9c0.7,0.1,1.3-0.5,1.4-1.2l0,0l0,0c0-0.8-0.8-1.2-1.8-1.2h-0.3
			l-0.1-0.2l2-2.3h-3v-0.4h3.5v0.3l-1.9,2.2c1.1,0.1,2,0.6,2,1.6l0,0c0,1-0.8,1.7-1.8,1.7l0,0C137,302.9,136.2,302.5,135.7,301.8z"
			/>
		<path class="st15" d="M130.8,301.8l0.3-0.3c0.4,0.6,1.1,0.9,1.8,0.9c0.7,0.1,1.3-0.5,1.4-1.2l0,0l0,0c0-0.8-0.8-1.2-1.8-1.2h-0.3
			l-0.1-0.2l2-2.3h-3v-0.4h3.5v0.3l-1.9,2.2c1.1,0.1,2,0.6,2,1.6l0,0c0,1-0.8,1.7-1.8,1.7l0,0C132.1,302.9,131.3,302.5,130.8,301.8z
			"/>
	</g>
	<line class="st16" x1="444.3" y1="94.3" x2="444.3" y2="53.9"/>
	<line class="st16" x1="660.6" y1="316.2" x2="683.8" y2="293.1"/>
	<line class="st16" x1="716.5" y1="288.6" x2="702.8" y2="274.9"/>
	<line class="st16" x1="738.5" y1="266.8" x2="724.8" y2="253"/>
	<line class="st16" x1="758.3" y1="246.6" x2="674.6" y2="330.3"/>
	<line class="st16" x1="694" y1="163.3" x2="758.3" y2="99"/>
	<line class="st16" x1="833.3" y1="335.9" x2="821" y2="323.5"/>
	<line class="st16" x1="800.8" y1="368.6" x2="788.3" y2="356.2"/>
	<line class="st16" x1="746" y1="423.3" x2="733.5" y2="410.9"/>
	<line class="st16" x1="718.6" y1="450.9" x2="706.1" y2="438.4"/>
	<line class="st16" x1="686.3" y1="483" x2="674" y2="470.6"/>
	<line class="st16" x1="608.8" y1="523.8" x2="630.1" y2="502.4"/>
	<line class="st16" x1="594.6" y1="509.7" x2="616" y2="488.3"/>
	<line class="st16" x1="568.8" y1="483.8" x2="590.1" y2="462.4"/>
	<line class="st16" x1="556.1" y1="482.3" x2="556.1" y2="451.8"/>
	<line class="st16" x1="477.3" y1="482.3" x2="477.3" y2="451.8"/>
	<line class="st16" x1="466.2" y1="482.1" x2="444.1" y2="464.1"/>
	<line class="st16" x1="455.1" y1="495.9" x2="432.1" y2="479"/>
	<line class="st16" x1="444.2" y1="511" x2="420.9" y2="493"/>
	<line class="st16" x1="431.8" y1="525.3" x2="408.9" y2="508"/>
	<line class="st16" x1="362.3" y1="575.8" x2="362.3" y2="503.4"/>
	<line class="st16" x1="317.3" y1="575.8" x2="317.3" y2="502.3"/>
	<line class="st16" x1="230.6" y1="575.8" x2="230.6" y2="503.4"/>
	<line class="st16" x1="203.6" y1="575.8" x2="203.6" y2="503.4"/>
	<line class="st16" x1="142.4" y1="576.8" x2="142.4" y2="503.4"/>
	<line class="st16" x1="79.3" y1="575.8" x2="79.3" y2="503.4"/>
	<line class="st16" x1="201.5" y1="457.5" x2="88.2" y2="457.5"/>
	<line class="st16" x1="155.3" y1="490.6" x2="155.3" y2="457.5"/>
	<line class="st16" x1="133.3" y1="490.6" x2="133.3" y2="457.1"/>
	<line class="st16" x1="111.5" y1="490.6" x2="111.5" y2="457.1"/>
	<line class="st16" x1="75.6" y1="434.3" x2="32.2" y2="434.3"/>
	<line class="st16" x1="52.1" y1="408.2" x2="32.2" y2="408.2"/>
	<line class="st16" x1="73.1" y1="303.7" x2="62.9" y2="293.5"/>
	<line class="st16" x1="93" y1="283.8" x2="82.8" y2="273.6"/>
	<line class="st16" x1="98.7" y1="331.1" x2="120.1" y2="309.6"/>
	<line class="st14" x1="236.7" y1="217.2" x2="187.9" y2="168.5"/>
	<line class="st16" x1="119.6" y1="296.5" x2="130.8" y2="285.3"/>
	<line class="st14" x1="376.8" y1="311.9" x2="354.6" y2="289.8"/>
	<polyline class="st14" points="224.4,395 178.1,441.3 104.1,368.2 	"/>
	<line class="st14" x1="805.6" y1="274.8" x2="869.5" y2="211.1"/>
	<line class="st14" x1="900.8" y1="242.8" x2="870.5" y2="273.2"/>
	<polyline class="st14" points="734.8,76.3 707.5,103.5 721.8,117.7 722.3,117.1 749.3,90.1 	"/>
	<polyline class="st14" points="345.2,129.3 367,151 381.2,137.7 393.8,137.7 393.8,109.6 	"/>
	<polyline class="st14" points="635.3,183.4 660.3,208.4 635.3,183.4 663.8,154.8 	"/>
	<polyline class="st17" points="689.3,288.2 696.2,295.1 691.3,300 698,306.8 	"/>
	<line class="st16" x1="662.5" y1="506.8" x2="650" y2="494.4"/>
	<line class="st16" x1="536.2" y1="482.3" x2="536.2" y2="451.8"/>
	<line class="st16" x1="499.3" y1="482.3" x2="499.3" y2="451.8"/>
	<polyline class="st14" points="369.4,257.4 349.3,237.3 361.8,224.9 308.4,278.3 360.4,330.4 	"/>
	<line class="st14" x1="328.8" y1="165" x2="354.9" y2="138.9"/>
	<line class="st14" x1="341.4" y1="152.4" x2="331.8" y2="142.7"/>
	<line class="st14" x1="787.8" y1="340.6" x2="726" y2="278.9"/>
	<line class="st14" x1="381.9" y1="542" x2="362.3" y2="542"/>
	<polyline class="st16" points="32.2,536.2 70.2,536.2 70.2,503.4 	"/>
	<line class="st16" x1="216.1" y1="428.3" x2="203.6" y2="415.9"/>
	<polyline class="st16" points="203.1,373.7 171.2,405.6 190.7,429 	"/>
	<line class="st16" x1="210.4" y1="408.9" x2="185" y2="392.3"/>
	<line class="st16" x1="197.4" y1="400" x2="213.4" y2="384"/>
	<polyline class="st16" points="167.1,337.5 150.8,354.2 135,338.1 	"/>
	<polyline class="st16" points="184.6,354.7 158.5,361.8 128.1,392.3 	"/>
	<polyline class="st16" points="178.1,441.3 178.1,456.9 178.1,456.4 178.1,490.6 	"/>
	<line class="st16" x1="64.8" y1="355.1" x2="87.2" y2="332.6"/>
	<line class="st14" x1="238.7" y1="450" x2="222.2" y2="434"/>
	<line class="st16" x1="339.4" y1="575.8" x2="339.4" y2="498.3"/>
	<line class="st16" x1="54.8" y1="322.7" x2="66" y2="311.5"/>
	<line class="st16" x1="61.3" y1="329.9" x2="93" y2="361.7"/>
	<line class="st16" x1="52.1" y1="383.7" x2="32.2" y2="383.7"/>
	<polyline class="st14" points="367,151 406.5,190.5 406,232 	"/>
	<line class="st14" x1="354.3" y1="190.6" x2="380.2" y2="164.7"/>
	<line class="st14" x1="371" y1="207.3" x2="396.9" y2="181.4"/>
	<line class="st16" x1="418.1" y1="542.3" x2="395.4" y2="524.9"/>
	<polyline class="st14" points="635.3,183.4 625.5,193.2 625.5,232.2 	"/>
	<line class="st16" x1="582.5" y1="497.1" x2="603.8" y2="475.7"/>
	<polyline class="st14" points="250.2,503.4 250.2,528.1 297.2,528.1 297.2,503.4 	"/>
	<line class="st16" x1="52.1" y1="457.5" x2="32.2" y2="457.5"/>
	<line class="st14" x1="336.8" y1="250.4" x2="280" y2="193.7"/>
	<line class="st14" x1="297.8" y1="211.9" x2="323" y2="186.6"/>
	<line class="st14" x1="323.6" y1="237.8" x2="349" y2="212.5"/>
	<line class="st14" x1="310.8" y1="224.9" x2="336" y2="199.5"/>
	<line class="st16" x1="685.1" y1="154.4" x2="721.8" y2="117.7"/>
	<line class="st18" x1="741.6" y1="210.9" x2="805.8" y2="146.7"/>
</g>
</svg>
