<?xml version="1.0" encoding="utf-8"?>
<!-- Generator: Adobe Illustrator 21.0.0, SVG Export Plug-In . SVG Version: 6.00 Build 0)  -->
<svg version="1.1" id="Layer_1" xmlns="http://www.w3.org/2000/svg" xmlns:xlink="http://www.w3.org/1999/xlink" x="0px" y="0px"
	 viewBox="0 0 926.1 640.4" style="enable-background:new 0 0 926.1 640.4;" xml:space="preserve">
<style type="text/css">
	.st0{fill:#050433;}
	.st1{fill:#050433;stroke:#FFFFFF;stroke-width:2.15;stroke-miterlimit:10;}
	.st2{fill:#FFFFFF;}
	.st3{fill:#FFFFFF;stroke:#FFFFFF;stroke-width:0.27;stroke-miterlimit:10;}
	.st4{fill:#050433;stroke:#050433;stroke-width:0.27;stroke-miterlimit:10;}
	.st5{fill:#050433;stroke:#050433;stroke-width:0.25;stroke-miterlimit:10;}
	.st6{fill:#CFD0D2;}
	.st7{fill:#FFFFFF;stroke:#FFFFFF;stroke-width:2.15;stroke-miterlimit:10;}
	.st8{fill:none;stroke:#CFD0D2;stroke-width:2.15;stroke-miterlimit:10;}
	.st9{fill:#1B75BB;stroke:#CFD0D2;stroke-width:2.15;stroke-miterlimit:10;}
	.st10{fill:#00A14B;stroke:#FFFFFF;stroke-width:2.15;stroke-miterlimit:10;}
	.st11{fill:none;stroke:#FFFFFF;stroke-width:2.15;stroke-miterlimit:10;}
	.st12{fill:#00A14B;stroke:#CFD0D2;stroke-width:2.15;stroke-miterlimit:10;}
	.st13{fill:#1295C6;}
	.st14{fill:#6B517D;}
	.st15{fill:#F2682F;}
	.st16{fill:#34B04A;}
	.st17{fill:#FEDB00;}
	.st18{fill:#D22532;}
	.st19{fill:#6B626E;}
	.st20{fill:#FFFFFF;stroke:#6B626E;stroke-width:0.4249;stroke-miterlimit:10;}
	.st21{fill:none;stroke:#6B626E;stroke-width:0.4249;stroke-miterlimit:10;}
	.st22{fill:none;stroke:#FFFFFF;stroke-linejoin:round;stroke-miterlimit:10;}
	.st23{fill:none;stroke:#FFFFFF;stroke-width:1.5;stroke-miterlimit:10;}
</style>
<title>Asset 1</title>
<g id="ground_floor_plan">
	<g id="ground_floor_map-2">
		<polygon class="st0" points="703.5,166.4 650.3,219.5 638.5,219.5 638.5,279.5 606.4,279.5 606.4,379 579.9,385.5 579.9,406.6 
			475.6,406.6 475.6,385.8 449.4,378.8 449.4,279.5 416.8,279.5 416.8,219.4 405.9,219.4 328.1,141.5 374.6,95 632.1,95 		"/>
		<polygon class="st0" points="416.9,511 391.5,543.6 258.1,543.6 258.1,491.9 390.9,491.9 		"/>
		<rect x="43.2" y="491.9" class="st0" width="40.5" height="51.8"/>
		<rect x="43.2" y="389.8" class="st0" width="40.5" height="47.8"/>
		<rect x="43.2" y="437.7" class="st0" width="40.5" height="42.4"/>
		<polygon class="st1" points="153.4,294.4 112.9,334.9 88.8,359 83.7,364.1 83.7,389.8 43.2,389.8 43.2,328.7 115.5,256.4 		"/>
		<rect x="83.7" y="491.9" class="st0" width="121.9" height="51.8"/>
		<polygon class="st0" points="719.6,90.2 733.5,104.1 695.6,141.1 673.9,119.4 682.9,94.6 700.9,94.6 700.9,80.8 367,80.8 
			353.7,94.1 333.9,113.9 306,86.1 345.2,46.9 351.8,40.3 724.5,40.3 747,62.8 		"/>
		<polygon class="st0" points="898.2,213.9 878.4,233.7 873.2,228.4 862.8,238.8 860.4,236.4 854.4,242.5 845.7,233.8 817,262.5 
			704.1,149.6 748.4,105.3 740.3,97.3 760.9,76.7 		"/>
		
			<rect x="624" y="438" transform="matrix(0.7071 -0.7071 0.7071 0.7071 -108.4819 631.9117)" class="st0" width="169.1" height="17.8"/>
		<polygon class="st0" points="926.1,241.9 896,272 884.5,260.5 914.6,230.4 		"/>
		<polygon class="st0" points="914.6,230.4 884.5,260.5 874.2,250.2 884.5,239.8 878.4,233.7 898.2,213.9 		"/>
		
			<rect x="306" y="86.1" transform="matrix(0.7071 -0.7071 0.7071 0.7071 17.1932 253.1199)" class="st0" width="16.3" height="39.4"/>
		
			<rect x="294.6" y="97.6" transform="matrix(0.7071 -0.7071 0.7071 0.7071 5.6995 248.4056)" class="st0" width="16.2" height="39.4"/>
		<polygon class="st0" points="310.9,136.9 300.2,147.6 291.3,138.8 285.4,144.8 266.4,125.8 283,109.1 		"/>
		<polygon class="st0" points="288,159.8 251.2,196.6 213.2,158.7 240.4,131.5 250.5,141.6 266.4,125.8 285.4,144.8 279.2,151 		"/>
		<polygon class="st0" points="251.2,196.6 227.3,220.5 153.4,294.4 115.5,256.4 213.2,158.7 		"/>
		<polygon class="st0" points="831.5,295.2 694.2,432.5 633.5,371.6 686.6,318.5 663.6,295.5 663.6,261.6 680.5,278.5 694.7,264.3 
			663.3,232.9 716.2,180 774.3,238.1 		"/>
		<polygon class="st0" points="415.4,364.1 322.8,456.7 167.8,302 292,177.7 313.8,199.5 336.5,176.7 350.4,190.5 328.1,212.8 
			350.4,235.1 317.9,267.6 337.9,287.2 351.6,300.9 392.5,260 392.5,295.4 369.6,318.3 		"/>
		
			<rect x="298.2" y="161.8" transform="matrix(0.7071 -0.7071 0.7071 0.7071 -33.2489 274.1163)" class="st0" width="32.2" height="30.8"/>
		<polygon class="st0" points="372.6,212.8 350.4,235.1 328.1,212.8 350.4,190.5 		"/>
		<polygon class="st0" points="392.4,232.6 337.9,287.2 317.9,267.6 350.4,235.1 372.6,212.8 		"/>
		<polygon class="st0" points="268.5,418.2 206.5,480.5 169.5,443.5 130.4,482.5 97.7,449.7 116,431.4 98,413.4 118.6,392.8 
			97.6,371.9 121.5,347.9 159.9,309.6 		"/>
		
			<rect x="824.8" y="241.6" transform="matrix(0.7071 -0.7071 0.7071 0.7071 61.3142 674.7233)" class="st1" width="40.6" height="43.5"/>
		<polygon class="st0" points="825.1,342.9 790.2,377.8 777.9,365.5 812.8,330.7 		"/>
		<rect x="205.6" y="491.9" class="st0" width="52.5" height="51.8"/>
		<polygon class="st1" points="760.9,76.7 740.3,97.3 733.5,104.1 719.6,90.2 747,62.8 		"/>
		<path class="st2" d="M487.3,277h3.5c0.8,0,1.7,0.2,2.3,0.8c0.4,0.5,0.7,1.1,0.7,1.7l0,0c0,1.1-0.8,2.2-1.9,2.4l2.1,3h-1.7
			l-1.9-2.8h-1.7v2.8h-1.4V277z M490.7,280.9c1,0,1.6-0.5,1.6-1.3l0,0c0-0.9-0.6-1.3-1.6-1.3h-2v2.7L490.7,280.9z"/>
		<path class="st2" d="M495.4,277h5.9v1.2h-4.5v2.1h4v1.2h-4v2.1h4.5v1.2h-5.9V277z"/>
		<path class="st2" d="M503,277h3c2.2-0.1,4.1,1.5,4.2,3.7c0,0.1,0,0.2,0,0.3l0,0c0,2.2-1.8,4-4,4c-0.1,0-0.1,0-0.2,0h-3V277z
			 M504.4,278.3v5.4h1.6c1.4,0.1,2.7-1,2.7-2.4c0-0.1,0-0.2,0-0.3l0,0c0.1-1.4-1.1-2.6-2.5-2.7c-0.1,0-0.2,0-0.2,0H504.4z"/>
		<path class="st2" d="M517.2,278.3h-2.5V277h6.4v1.3h-2.5v6.6h-1.4V278.3z"/>
		<path class="st2" d="M522.6,277h1.4v3.3h3.8V277h1.4v7.9h-1.4v-3.3H524v3.3h-1.4V277z"/>
		<path class="st2" d="M531.2,277h5.8v1.2h-4.5v2.1h4v1.2h-4v2.1h4.5v1.2h-5.9L531.2,277z"/>
		<path class="st2" d="M541.5,277h1.3l3.5,8h-1.5l-0.8-1.9h-3.7l-0.8,1.9H538L541.5,277z M543.5,281.8l-1.4-3.2l-1.4,3.2H543.5z"/>
		<path class="st2" d="M548.6,278.3h-2.5V277h6.4v1.3H550v6.6h-1.4V278.3z"/>
		<path class="st2" d="M560.4,277h3.5c0.8,0,1.7,0.2,2.3,0.8c0.4,0.5,0.7,1.1,0.7,1.7l0,0c0,1.1-0.8,2.2-1.9,2.4l2.1,3h-1.7
			l-1.9-2.8h-1.7v2.8h-1.4L560.4,277L560.4,277z M563.8,280.9c1,0,1.6-0.5,1.6-1.3l0,0c0-0.9-0.6-1.3-1.6-1.3h-2v2.7L563.8,280.9z"
			/>
		<path class="st2" d="M553.5,277h5.9v1.2h-4.5v2.1h4v1.2h-4v2.1h4.5v1.2h-5.9V277z"/>
		<path class="st2" d="M275.8,350.8h3.5c0.8,0,1.5,0.2,2.1,0.7c0.4,0.3,0.5,0.8,0.5,1.3l0,0c0,0.8-0.4,1.5-1.1,1.8
			c0.9,0.2,1.6,1,1.6,1.9l0,0c0,1.4-1.2,2.2-2.9,2.2h-3.7V350.8z M280.5,353c0-0.6-0.5-1-1.4-1h-2v2.1h1.9
			C279.9,354.1,280.5,353.8,280.5,353L280.5,353z M279.3,355.3h-2.2v2.2h2.3c1,0,1.5-0.4,1.5-1.1l0,0
			C281,355.7,280.4,355.3,279.3,355.3L279.3,355.3z"/>
		<path class="st2" d="M283.9,350.8h1.4v6.6h4.2v1.3H284L283.9,350.8z"/>
		<path class="st2" d="M293.7,350.7h1.3l3.5,8H297l-0.8-1.9h-3.7l-0.8,1.9h-1.4L293.7,350.7z M295.7,355.5l-1.4-3.2l-1.4,3.2H295.7z
			"/>
		<path class="st2" d="M299,354.8L299,354.8c-0.1-2.2,1.7-4,3.9-4.1c0.1,0,0.1,0,0.2,0c1.2,0,2.3,0.4,3.1,1.2l-0.9,1
			c-0.6-0.6-1.4-1-2.2-1c-1.5,0-2.6,1.2-2.6,2.7v0.1l0,0c-0.1,1.5,1.1,2.7,2.5,2.8c0,0,0,0,0.1,0c0.9,0,1.7-0.4,2.3-1l0.9,0.9
			c-0.8,0.9-2,1.4-3.2,1.4C300.8,358.8,299,357,299,354.8L299,354.8z"/>
		<path class="st2" d="M307.7,350.8h1.4v4l3.8-4h1.7l-3.3,3.4l3.5,4.5H313l-2.7-3.6l-1.2,1.3v2.3h-1.4L307.7,350.8L307.7,350.8z"/>
		<path class="st2" d="M319.3,350.8h3.5c0.8,0,1.5,0.2,2.1,0.7c0.4,0.3,0.5,0.8,0.5,1.3l0,0c0,0.8-0.4,1.5-1.1,1.8
			c0.9,0.2,1.6,1,1.6,1.9l0,0c0,1.4-1.2,2.2-2.9,2.2h-3.7V350.8z M324.1,353c0-0.6-0.5-1-1.4-1h-2v2.1h1.9
			C323.5,354.1,324.1,353.8,324.1,353L324.1,353z M322.9,355.3h-2.2v2.2h2.3c1,0,1.5-0.4,1.5-1.1l0,0
			C324.5,355.7,324,355.3,322.9,355.3L322.9,355.3z"/>
		<path class="st2" d="M327.1,354.8L327.1,354.8c0-2.3,1.9-4.1,4.1-4.1c2.3,0,4.1,1.9,4.1,4.1l0,0c0,2.3-1.9,4.1-4.1,4.1
			S327.1,357.1,327.1,354.8z M333.9,354.8L333.9,354.8c0.1-1.5-1.1-2.8-2.6-2.8h-0.1c-1.5,0-2.7,1.2-2.7,2.7v0.1l0,0
			c-0.1,1.5,1.1,2.7,2.6,2.8h0.1c1.5,0,2.7-1.2,2.7-2.6C333.9,354.9,333.9,354.8,333.9,354.8z"/>
		<path class="st2" d="M343.2,350.8l-2.8,3.9l2.9,4h-1.6l-2.1-3l-2.1,3h-1.6l2.9-4l-2.8-3.9h1.6l2,2.9l2-2.9H343.2z"/>
		<path class="st2" d="M285,365.7h-2.5v-1.3h6.4v1.3h-2.5v6.6H285V365.7z"/>
		<path class="st2" d="M290.4,364.4h1.4v3.3h3.8v-3.3h1.4v7.9h-1.4V369h-3.8v3.3h-1.4V364.4z"/>
		<path class="st2" d="M298.9,364.4h5.9v1.2h-4.5v2.1h4v1.2h-4v2.1h4.5v1.2h-5.9V364.4z"/>
		<path class="st2" d="M309.3,364.3h1.3l3.5,8h-1.5l-0.8-1.9h-3.7l-0.8,1.9h-1.4L309.3,364.3z M311.3,369.1l-1.4-3.2l-1.4,3.2H311.3
			z"/>
		<path class="st2" d="M316.4,365.7h-2.5v-1.3h6.4v1.3h-2.5v6.6h-1.4V365.7z"/>
		<path class="st2" d="M328.2,364.4h3.5c0.8,0,1.7,0.2,2.3,0.8c0.4,0.5,0.7,1.1,0.7,1.7l0,0c0,1.1-0.8,2.2-1.9,2.4l2.1,3h-1.6
			l-1.9-2.8h-1.7v2.8h-1.4L328.2,364.4z M331.6,368.3c1,0,1.6-0.5,1.6-1.3l0,0c0-0.9-0.6-1.3-1.6-1.3h-2v2.7L331.6,368.3z"/>
		<path class="st2" d="M321.3,364.4h5.9v1.2h-4.5v2.1h4v1.2h-4v2.1h4.5v1.2h-5.9V364.4z"/>
		<path class="st3" d="M316.5,525.8L316.5,525.8c0-1.9,1.1-3.5,2.9-3.5s2.8,1.6,2.8,3.5l0,0c0,1.9-1.1,3.5-2.8,3.5
			S316.5,527.7,316.5,525.8z M321.4,525.8L321.4,525.8c0-1.5-0.8-2.8-2-2.8s-2,1.3-2,2.8l0,0c0,1.5,0.8,2.8,2.1,2.8
			S321.4,527.3,321.4,525.8z"/>
		<path class="st3" d="M323.4,525.8L323.4,525.8c0-1.9,1.1-3.5,2.9-3.5s2.8,1.6,2.8,3.5l0,0c0,1.9-1.1,3.5-2.8,3.5
			S323.4,527.7,323.4,525.8z M328.2,525.8L328.2,525.8c0-1.5-0.8-2.8-2-2.8s-2,1.3-2,2.8l0,0c0,1.5,0.8,2.8,2.1,2.8
			S328.2,527.3,328.2,525.8z"/>
		<path class="st3" d="M333.8,527.5h-3.5l-0.2-0.6l3.8-4.6h0.7v4.5h1v0.6h-1v1.6h-0.7L333.8,527.5L333.8,527.5z M333.8,526.9v-3.5
			l-2.8,3.5H333.8z"/>
		<path class="st3" d="M55.5,458.7L55.5,458.7c0-1.9,1.1-3.5,2.8-3.5s2.8,1.6,2.8,3.5l0,0c0,1.9-1.1,3.5-2.8,3.5
			S55.5,460.6,55.5,458.7z M60.3,458.7L60.3,458.7c0-1.5-0.8-2.8-2.1-2.8s-2,1.3-2,2.8l0,0c0,1.5,0.8,2.8,2.1,2.8
			S60.3,460.1,60.3,458.7z"/>
		<path class="st3" d="M63.4,456l-1.3,0.4l-0.2-0.6l1.6-0.6h0.6v6.8h-0.8v-6L63.4,456L63.4,456z"/>
		<path class="st3" d="M65.7,458.7L65.7,458.7c0-1.9,1.1-3.5,2.8-3.5s2.8,1.6,2.8,3.5l0,0c0,1.9-1.1,3.5-2.8,3.5
			S65.7,460.6,65.7,458.7z M70.6,458.7L70.6,458.7c0-1.5-0.8-2.8-2.1-2.8s-2,1.3-2,2.8l0,0c0,1.5,0.8,2.8,2.1,2.8
			S70.6,460.1,70.6,458.7z"/>
		<path class="st3" d="M53.4,367.3L53.4,367.3c0-1.9,1.1-3.5,2.8-3.5s2.8,1.6,2.8,3.5l0,0c0,1.9-1.1,3.5-2.8,3.5
			S53.4,369.2,53.4,367.3z M58.2,367.3L58.2,367.3c0-1.5-0.8-2.8-2.1-2.8s-2,1.3-2,2.8l0,0c0,1.5,0.8,2.8,2.1,2.8
			S58.2,368.8,58.2,367.3z"/>
		<path class="st3" d="M61.3,364.7l-1.3,0.4l-0.2-0.6l1.6-0.6h0.5v6.8h-0.8L61.3,364.7z"/>
		<path class="st3" d="M63.5,369.6l0.6-0.5c0.5,0.6,1.2,1,2,1c0.7,0.1,1.4-0.5,1.5-1.2v-0.1l0,0c0-0.8-0.8-1.3-1.9-1.3h-0.4
			l-0.2-0.5l2.1-2.4h-3.3v-0.7h4.3v0.6l-2.2,2.3c1.2,0.1,2.2,0.7,2.2,1.9l0,0c0,1.2-1,2.1-2.2,2c0,0,0,0-0.1,0
			C65,370.8,64.1,370.3,63.5,369.6z"/>
		<path class="st3" d="M105.1,298L105.1,298c0-1.9,1.1-3.5,2.9-3.5s2.8,1.6,2.8,3.5l0,0c0,1.9-1.1,3.5-2.8,3.5
			S105.1,299.9,105.1,298z M110,298L110,298c0-1.5-0.8-2.8-2.1-2.8s-2,1.3-2,2.8l0,0c0,1.5,0.8,2.8,2.1,2.8S110,299.5,110,298
			L110,298z"/>
		<path class="st3" d="M113.1,295.4l-1.3,0.4l-0.2-0.6l1.6-0.6h0.6v6.8H113L113.1,295.4L113.1,295.4z"/>
		<path class="st3" d="M115.3,300.4l0.5-0.5c0.5,0.5,1.2,0.9,1.9,0.9c0.8,0.1,1.6-0.6,1.6-1.4v-0.1l0,0c0-0.8-0.7-1.5-1.6-1.4h-0.1
			c-0.5,0-1,0.1-1.4,0.4l-0.5-0.3l0.2-3.3h3.9v0.7h-3.2l-0.1,2.1c0.4-0.2,0.9-0.3,1.3-0.3c1.1-0.1,2.2,0.7,2.3,1.8
			c0,0.1,0,0.1,0,0.2l0,0c0,1.2-1,2.2-2.2,2.2c-0.1,0-0.1,0-0.2,0C116.8,301.4,115.9,301.1,115.3,300.4z"/>
		<path class="st3" d="M166,237.4L166,237.4c0-1.9,1.1-3.5,2.9-3.5s2.8,1.6,2.8,3.5l0,0c0,1.9-1.1,3.5-2.8,3.5S166,239.2,166,237.4z
			 M170.9,237.4L170.9,237.4c0-1.5-0.8-2.8-2.1-2.8s-2,1.3-2,2.8l0,0c0,1.5,0.8,2.8,2.1,2.8S170.9,238.8,170.9,237.4L170.9,237.4z"
			/>
		<path class="st3" d="M173.9,234.7l-1.3,0.4l-0.2-0.6l1.6-0.6h0.6v6.8h-0.8L173.9,234.7L173.9,234.7z"/>
		<path class="st3" d="M180.5,237.3v-0.1c-0.4,0.7-1.1,1.1-1.9,1.1c-1.2,0.1-2.2-0.7-2.3-1.9c0-0.1,0-0.1,0-0.2l0,0
			c0-1.3,1-2.3,2.3-2.3h0.1c0.7,0,1.3,0.2,1.8,0.7c0.6,0.7,0.9,1.7,0.8,2.6l0,0c0,2.1-1.1,3.6-2.8,3.6c-0.8,0-1.5-0.3-2.1-0.8
			l0.4-0.6c0.4,0.4,1,0.7,1.6,0.7C179.8,240.1,180.5,238.8,180.5,237.3z M180.3,236.1L180.3,236.1c0-0.9-0.8-1.6-1.6-1.5h-0.1
			c-0.8,0-1.6,0.6-1.6,1.5v0.1l0,0c0,0.8,0.7,1.5,1.5,1.5h0.1C179.5,237.7,180.3,237,180.3,236.1L180.3,236.1z"/>
		<path class="st3" d="M473.3,60.5L473.3,60.5c0-1.9,1.1-3.5,2.8-3.5s2.9,1.6,2.9,3.4l0,0c0,1.9-1.1,3.5-2.8,3.5
			S473.3,62.4,473.3,60.5z M478.2,60.5L478.2,60.5c0-1.5-0.8-2.8-2-2.8s-2,1.3-2,2.8l0,0c0,1.5,0.8,2.8,2.1,2.8
			S478.2,61.9,478.2,60.5z"/>
		<path class="st3" d="M479.9,63.2l2.4-2.2c1-0.9,1.4-1.4,1.4-2.1s-0.6-1.3-1.3-1.3c0,0,0,0-0.1,0c-0.8,0-1.4,0.5-1.8,1.2l-0.6-0.4
			c0.5-0.9,1.4-1.5,2.4-1.4c1.1-0.1,2,0.7,2.1,1.8v0.1l0,0c0,1-0.5,1.6-1.7,2.6l-1.8,1.6h3.6v0.7h-4.7L479.9,63.2z"/>
		<path class="st3" d="M490,60.4L490,60.4c-0.4,0.6-1.1,1-1.9,1c-1.2,0.1-2.2-0.7-2.3-1.9c0-0.1,0-0.1,0-0.2l0,0
			c0-1.3,1-2.3,2.3-2.3h0.1c0.7,0,1.3,0.2,1.8,0.7c0.6,0.7,0.9,1.7,0.8,2.6l0,0c0,2.1-1.1,3.6-2.8,3.6c-0.8,0-1.5-0.3-2-0.8l0.4-0.6
			c0.4,0.4,1,0.7,1.7,0.7C489.3,63.2,490,61.9,490,60.4z M489.9,59.2L489.9,59.2c0-0.9-0.8-1.5-1.7-1.5l0,0c-0.8,0-1.6,0.6-1.6,1.5
			v0.1l0,0c0,0.8,0.7,1.5,1.6,1.4h0.1C489.1,60.8,489.8,60.1,489.9,59.2L489.9,59.2L489.9,59.2z"/>
		<path class="st3" d="M506.6,138.3L506.6,138.3c0-1.9,1.1-3.5,2.8-3.5s2.8,1.6,2.8,3.4l0,0c0,1.9-1.1,3.5-2.8,3.5
			S506.6,140.1,506.6,138.3z M511.5,138.3L511.5,138.3c0-1.5-0.8-2.8-2-2.8s-2,1.3-2,2.8l0,0c0,1.5,0.8,2.8,2.1,2.8
			S511.5,139.7,511.5,138.3z"/>
		<path class="st3" d="M513.3,140.5l0.6-0.5c0.5,0.6,1.2,1,2,1c0.7,0.1,1.4-0.5,1.5-1.2v-0.1l0,0c0-0.8-0.8-1.3-1.9-1.3H515
			l-0.2-0.4l2.1-2.4h-3.3v-0.7h4.3v0.6l-2.1,2.3c1.2,0.1,2.2,0.7,2.2,1.9l0,0c0,1.2-1,2.1-2.2,2c0,0,0,0-0.1,0
			C514.8,141.8,513.9,141.3,513.3,140.5z"/>
		<path class="st3" d="M519.2,138.3L519.2,138.3c0-1.9,1.1-3.5,2.8-3.5s2.8,1.6,2.8,3.4l0,0c0,1.9-1.1,3.5-2.8,3.5
			S519.2,140.1,519.2,138.3z M524.1,138.3L524.1,138.3c0-1.5-0.8-2.8-2-2.8s-2,1.3-2,2.8l0,0c0,1.5,0.8,2.8,2.1,2.8
			S524.1,139.7,524.1,138.3z"/>
		<path class="st3" d="M753.2,144.3L753.2,144.3c0-1.9,1.1-3.5,2.8-3.5s2.8,1.6,2.8,3.4l0,0c0,1.9-1.1,3.5-2.8,3.5
			S753.2,146.2,753.2,144.3z M758.1,144.3L758.1,144.3c0-1.5-0.8-2.8-2-2.8s-2,1.3-2,2.8l0,0c0,1.5,0.8,2.8,2.1,2.8
			S758.1,145.8,758.1,144.3z"/>
		<path class="st3" d="M763.6,146.1h-3.5l-0.2-0.6l3.8-4.6h0.7v4.5h1v0.6h-1v1.6h-0.7L763.6,146.1L763.6,146.1z M763.6,145.4v-3.5
			l-2.8,3.5H763.6z"/>
		<path class="st3" d="M767.4,141.7l-1.3,0.4l-0.2-0.6l1.6-0.6h0.6v6.8h-0.8v-6L767.4,141.7L767.4,141.7z"/>
		<path class="st3" d="M770.8,190.3L770.8,190.3c0-1.9,1.1-3.5,2.8-3.5s2.8,1.6,2.8,3.4l0,0c0,1.9-1.1,3.5-2.8,3.5
			S770.8,192.1,770.8,190.3z M775.7,190.3L775.7,190.3c0-1.5-0.8-2.8-2-2.8s-2,1.3-2,2.8l0,0c0,1.5,0.8,2.8,2.1,2.8
			S775.7,191.7,775.7,190.3z"/>
		<path class="st3" d="M781.2,192h-3.5l-0.2-0.6l3.8-4.6h0.7v4.5h1v0.6h-1v1.6h-0.7L781.2,192L781.2,192z M781.2,191.4v-3.5
			l-2.8,3.5H781.2z"/>
		<path class="st3" d="M783.9,193l2.4-2.1c1-0.9,1.4-1.4,1.4-2.1c0-0.7-0.6-1.3-1.3-1.3h-0.1c-0.8,0-1.4,0.5-1.8,1.1l-0.6-0.4
			c0.5-0.9,1.4-1.5,2.4-1.4c1.1-0.1,2,0.7,2.1,1.8v0.1l0,0c0,1-0.5,1.6-1.7,2.6l-1.8,1.6h3.6v0.7H784L783.9,193z"/>
		<path class="st3" d="M818.4,205.1L818.4,205.1c0-1.9,1.1-3.5,2.8-3.5s2.8,1.6,2.8,3.4l0,0c0,1.9-1.1,3.5-2.8,3.5
			S818.4,206.9,818.4,205.1z M823.3,205.1L823.3,205.1c0-1.5-0.8-2.8-2-2.8s-2,1.3-2,2.8l0,0c0,1.5,0.8,2.8,2.1,2.8
			S823.3,206.5,823.3,205.1z"/>
		<path class="st3" d="M828.8,206.8h-3.5l-0.2-0.6l3.8-4.6h0.7v4.5h1v0.6h-1v1.6h-0.7L828.8,206.8z M828.8,206.2v-3.5l-2.8,3.5
			H828.8z"/>
		<path class="st3" d="M831.6,207.3l0.6-0.5c0.5,0.6,1.2,1,2,1c0.7,0.1,1.4-0.5,1.5-1.2v-0.1l0,0c0-0.8-0.8-1.3-1.9-1.3h-0.4
			l-0.2-0.4l2.1-2.4H832v-0.7h4.3v0.6l-2.1,2.3c1.2,0.1,2.2,0.7,2.2,1.9l0,0c0,1.2-1,2.1-2.2,2c0,0,0,0-0.1,0
			C833.2,208.5,832.2,208.1,831.6,207.3z"/>
		<path class="st3" d="M780.2,283.8L780.2,283.8c0-1.9,1.1-3.5,2.8-3.5s2.8,1.6,2.8,3.5l0,0c0,1.9-1.1,3.5-2.8,3.5
			S780.2,285.7,780.2,283.8z M785.1,283.8L785.1,283.8c0-1.5-0.8-2.8-2-2.8s-2,1.3-2,2.8l0,0c0,1.5,0.8,2.8,2.1,2.8
			S785.1,285.3,785.1,283.8z"/>
		<path class="st3" d="M790.6,285.6H787l-0.2-0.6l3.8-4.6h0.7v4.5h1v0.6h-1v1.6h-0.7V285.6z M790.6,285v-3.5l-2.8,3.5H790.6z"/>
		<path class="st3" d="M793.4,286.2l0.5-0.5c0.5,0.5,1.2,0.9,1.9,0.9c0.8,0.1,1.6-0.6,1.6-1.4v-0.1l0,0c0-0.8-0.7-1.5-1.6-1.4h-0.1
			c-0.5,0-1,0.1-1.4,0.4l-0.5-0.3l0.2-3.3h3.9v0.7h-3.2l-0.1,2.1c0.4-0.2,0.9-0.3,1.3-0.3c1.1-0.1,2.2,0.7,2.3,1.8
			c0,0.1,0,0.1,0,0.2l0,0c0,1.2-1,2.2-2.2,2.2c-0.1,0-0.1,0-0.2,0C794.9,287.3,794,286.9,793.4,286.2z"/>
		<path class="st3" d="M724.6,228.8L724.6,228.8c0-1.9,1.1-3.5,2.8-3.5s2.8,1.6,2.8,3.5l0,0c0,1.9-1.1,3.5-2.8,3.5
			S724.6,230.7,724.6,228.8z M729.5,228.8L729.5,228.8c0-1.5-0.8-2.8-2-2.8s-2,1.3-2,2.8l0,0c0,1.5,0.8,2.8,2.1,2.8
			S729.5,230.2,729.5,228.8z"/>
		<path class="st3" d="M731.3,231l0.6-0.5c0.5,0.6,1.2,1,2,1c0.7,0.1,1.4-0.5,1.5-1.2v-0.1l0,0c0-0.8-0.8-1.3-1.9-1.3H733l-0.2-0.5
			l2.1-2.4h-3.3v-0.7h4.3v0.6l-2.1,2.3c1.2,0.1,2.2,0.7,2.2,1.9l0,0c0,1.2-1,2.1-2.2,2c0,0,0,0-0.1,0
			C732.8,232.3,731.9,231.8,731.3,231z"/>
		<path class="st3" d="M738.1,231.6c-0.6-0.7-1-1.7-0.8-2.6l0,0c0-2,1-3.6,2.8-3.6c0.7,0,1.5,0.3,2,0.8l-0.4,0.6
			c-0.4-0.4-1-0.6-1.6-0.7c-1.3,0-2,1.4-2,2.9v0.1c0.4-0.6,1.1-1,1.9-1c1.2-0.1,2.2,0.8,2.3,2v0.1l0,0c0,1.3-1.1,2.3-2.3,2.2h-0.1
			C739.2,232.3,738.6,232,738.1,231.6z M741.5,230L741.5,230c0-0.8-0.7-1.5-1.5-1.4h-0.1c-0.9-0.1-1.6,0.6-1.7,1.5l0,0l0,0
			c0,0.9,0.8,1.5,1.6,1.5h0.1c0.8,0.1,1.6-0.6,1.6-1.4C741.5,230.1,741.5,230.1,741.5,230L741.5,230z"/>
		<path class="st3" d="M285.9,237.4L285.9,237.4c0-1.9,1.1-3.5,2.9-3.5s2.8,1.6,2.8,3.5l0,0c0,1.9-1.1,3.5-2.8,3.5
			S285.9,239.2,285.9,237.4z M290.8,237.4L290.8,237.4c0-1.5-0.8-2.8-2-2.8s-2,1.3-2,2.8l0,0c0,1.5,0.8,2.8,2.1,2.8
			S290.8,238.8,290.8,237.4L290.8,237.4z"/>
		<path class="st3" d="M292.5,240.1l2.4-2.1c1-0.9,1.4-1.4,1.4-2.1s-0.6-1.3-1.3-1.3h-0.1c-0.8,0-1.4,0.5-1.8,1.1l-0.6-0.4
			c0.5-0.9,1.4-1.5,2.4-1.4c1.1-0.1,2,0.7,2.1,1.8v0.1l0,0c0,1-0.5,1.6-1.7,2.6l-1.8,1.6h3.6v0.7h-4.7L292.5,240.1z"/>
		<path class="st3" d="M298.3,239.8l0.5-0.5c0.5,0.5,1.2,0.9,1.9,0.9c0.8,0.1,1.6-0.6,1.6-1.4v-0.1l0,0c0-0.8-0.7-1.5-1.6-1.4h-0.1
			c-0.5,0-1,0.1-1.4,0.4l-0.5-0.3l0.2-3.3h3.9v0.7h-3.2l-0.1,2.1c0.4-0.2,0.9-0.3,1.3-0.3c1.1-0.1,2.2,0.7,2.3,1.8
			c0,0.1,0,0.1,0,0.2l0,0c0,1.2-1,2.2-2.2,2.2c-0.1,0-0.1,0-0.2,0C299.8,240.8,298.9,240.4,298.3,239.8z"/>
		<path class="st3" d="M243.1,277.1L243.1,277.1c0-1.9,1.1-3.5,2.9-3.5s2.8,1.6,2.8,3.5l0,0c0,1.9-1.1,3.5-2.8,3.5
			S243.1,279,243.1,277.1z M248,277.1L248,277.1c0-1.5-0.8-2.8-2-2.8s-2,1.3-2,2.8l0,0c0,1.5,0.8,2.8,2.1,2.8S248,278.6,248,277.1
			L248,277.1z"/>
		<path class="st3" d="M249.8,279.9l2.4-2.1c1-0.9,1.4-1.4,1.4-2.1s-0.6-1.3-1.3-1.3h-0.1c-0.8,0-1.4,0.5-1.8,1.1l-0.6-0.4
			c0.5-0.9,1.4-1.4,2.4-1.4c1.1-0.1,2,0.7,2.1,1.8v0.1l0,0c0,1-0.5,1.6-1.7,2.6l-1.8,1.6h3.6v0.7h-4.7L249.8,279.9z"/>
		<path class="st3" d="M256.8,274.5l-1.3,0.4l-0.2-0.6l1.6-0.6h0.6v6.8h-0.8L256.8,274.5z"/>
		<path class="st3" d="M195.3,407h5v1h-3.8v1.7h3.4v1h-3.4v1.8h3.8v1h-5V407z"/>
		<path class="st3" d="M207.7,413.9l-0.8-0.7c-0.6,0.4-1.3,0.6-2,0.6c-1.9,0-3.4-1.4-3.5-3.3v-0.1l0,0c0.1-1.9,1.8-3.4,3.8-3.2
			c1.7,0.1,3.1,1.5,3.2,3.2l0,0c0,0.7-0.2,1.5-0.7,2.1l0.8,0.6L207.7,413.9z M206.1,412.5l-1.2-1l0.8-0.9l1.2,1.1
			c0.2-0.4,0.3-0.8,0.3-1.3l0,0c0-1.3-0.9-2.3-2.2-2.4c0,0,0,0-0.1,0c-1.3,0-2.3,1-2.3,2.3v0.1l0,0c0,1.3,1,2.3,2.2,2.4
			C205.3,412.7,205.7,412.6,206.1,412.5L206.1,412.5z"/>
		<path class="st3" d="M209.7,410.9V407h1.2v3.8c0,1.2,0.6,1.9,1.7,1.9s1.7-0.6,1.7-1.9v-3.9h1.2v3.8c0.2,1.5-0.9,2.8-2.3,3
			c-0.2,0-0.4,0-0.6,0c-1.5,0.1-2.7-1-2.9-2.4C209.7,411.3,209.7,411.1,209.7,410.9z"/>
		<path class="st3" d="M217.1,407h1.2v6.7h-1.2V407z"/>
		<path class="st3" d="M220.1,407h2.6c1.2-0.2,2.4,0.7,2.5,1.9c0,0.1,0,0.2,0,0.3l0,0c0,1.5-1.2,2.3-2.7,2.3h-1.3v2.1H220V407H220.1
			z M222.7,410.5c0.9,0,1.5-0.5,1.5-1.2l0,0c0-0.8-0.6-1.2-1.5-1.2h-1.4v2.4L222.7,410.5z"/>
		<path class="st3" d="M226.5,407h1.3l2,3.2l2-3.2h1.3v6.7h-1.2v-4.8l-2.1,3.2l0,0l-2.1-3.1v4.8h-1.2V407z"/>
		<path class="st3" d="M234.8,407h5v1H236v1.7h3.4v1H236v1.8h3.8v1h-5V407z"/>
		<path class="st3" d="M241.3,407h1.1l3.6,4.6V407h1.2v6.7h-1l-3.7-4.8v4.8h-1.2L241.3,407L241.3,407z"/>
		<path class="st3" d="M250.5,408.1h-2.1V407h5.5v1.1h-2.1v5.6h-1.2L250.5,408.1L250.5,408.1z"/>
		<path class="st3" d="M204.5,421.9L204.5,421.9c0-1.9,1.5-3.4,3.3-3.5h0.1c1,0,1.9,0.3,2.6,1l-0.8,0.9c-0.5-0.5-1.2-0.8-1.9-0.8
			c-1.2,0-2.2,1.1-2.2,2.3c0,0,0,0,0,0.1l0,0c-0.1,1.2,0.9,2.3,2.1,2.4c0,0,0,0,0.1,0c0.7,0,1.4-0.3,1.9-0.9l0.8,0.8
			c-0.7,0.8-1.7,1.2-2.7,1.2C206.1,425.3,204.6,423.8,204.5,421.9C204.5,422,204.5,421.9,204.5,421.9z"/>
		<path class="st3" d="M211.9,418.5h5v1h-3.8v1.7h3.4v1h-3.4v1.8h3.8v1h-5V418.5z"/>
		<path class="st3" d="M218.3,418.5h1.1l3.6,4.6v-4.6h1.2v6.7h-1l-3.7-4.8v4.8h-1.2L218.3,418.5L218.3,418.5z"/>
		<path class="st3" d="M227.5,419.6h-2.1v-1.1h5.5v1.1h-2.1v5.6h-1.2L227.5,419.6L227.5,419.6z"/>
		<path class="st3" d="M232.1,418.5h5v1h-3.8v1.7h3.4v1h-3.4v1.8h3.8v1h-5V418.5z"/>
		<path class="st3" d="M238.5,418.5h3c0.7,0,1.4,0.2,1.9,0.7c0.4,0.4,0.6,0.9,0.6,1.5l0,0c0,1-0.6,1.8-1.6,2l1.8,2.5h-1.4l-1.6-2.3
			h-1.5v2.3h-1.2V418.5z M241.4,421.9c0.8,0,1.4-0.4,1.4-1.1l0,0c0-0.7-0.5-1.1-1.4-1.1h-1.7v2.2H241.4z"/>
		<path class="st3" d="M679.7,353.9h3.4c0.7-0.1,1.5,0.2,2,0.7c0.3,0.3,0.5,0.8,0.5,1.2l0,0c0,0.7-0.4,1.4-1.1,1.7
			c0.9,0.2,1.5,0.9,1.5,1.8l0,0c0,1.4-1.1,2.1-2.8,2.1h-3.5L679.7,353.9z M684.2,356.1c0-0.6-0.5-1-1.3-1H681v2h1.8
			C683.7,357.1,684.2,356.7,684.2,356.1z M683.1,358.2H681v2.1h2.2c0.9,0,1.5-0.4,1.5-1l0,0C684.7,358.6,684.1,358.2,683.1,358.2
			L683.1,358.2z"/>
		<path class="st3" d="M687.5,353.9h1.3v6.3h4v1.2h-5.3V353.9z"/>
		<path class="st3" d="M693.8,358.3v-4.4h1.3v4.3c0,1.4,0.7,2.1,1.9,2.1s1.9-0.7,1.9-2.1v-4.4h1.3v4.3c0,2.2-1.3,3.4-3.2,3.4
			c-1.7,0.1-3.1-1.1-3.2-2.8C693.8,358.6,693.8,358.4,693.8,358.3z"/>
		<path class="st3" d="M702.1,353.9h5.6v1.2h-4.3v2h3.8v1.2h-3.8v2h4.3v1.2H702L702.1,353.9z"/>
		<path class="st3" d="M712.5,353.9h1.3v3.1h3.6v-3.1h1.3v7.5h-1.3v-3.2h-3.6v3.2h-1.3V353.9z"/>
		<path class="st3" d="M723.4,353.9h1.2l3.3,7.6h-1.4l-0.8-1.8h-3.6l-0.8,1.8h-1.4L723.4,353.9z M725.3,358.5l-1.3-3l-1.3,3H725.3z"
			/>
		<path class="st3" d="M729.3,353.9h1.3v6.3h4v1.2h-5.3V353.9z"/>
		<path class="st3" d="M735.9,353.9h1.3v6.3h4v1.2H736L735.9,353.9z"/>
		<path class="st3" d="M279.3,510h3c1.8,0,2.9,1,2.9,2.5l0,0c0,1.7-1.4,2.6-3,2.6h-1.5v2.4h-1.3L279.3,510z M282.2,514
			c1,0,1.6-0.6,1.6-1.3l0,0c0-0.9-0.6-1.3-1.6-1.3h-1.5v2.7L282.2,514z"/>
		<path class="st3" d="M286.5,510h3.4c0.8-0.1,1.6,0.2,2.2,0.8c0.4,0.4,0.6,1,0.6,1.6l0,0c0,1.1-0.7,2-1.8,2.3l2,2.9h-1.6l-1.9-2.6
			h-1.7v2.6h-1.3L286.5,510z M289.8,513.8c1,0,1.5-0.5,1.5-1.3l0,0c0-0.8-0.6-1.2-1.6-1.2h-1.9v2.5H289.8z"/>
		<path class="st3" d="M294,513.8L294,513.8c0.1-2.2,2-3.9,4.1-3.7c2,0.1,3.6,1.7,3.7,3.7l0,0c-0.1,2.2-2,3.9-4.1,3.7
			C295.7,517.5,294.1,515.9,294,513.8z M300.5,513.8L300.5,513.8c0.1-1.4-1.1-2.6-2.5-2.7h-0.1c-1.4,0-2.6,1.1-2.6,2.5v0.1l0,0
			c0,1.4,1.1,2.6,2.5,2.7h0.1c1.4,0,2.5-1.1,2.5-2.5C300.5,513.9,300.5,513.9,300.5,513.8L300.5,513.8z"/>
		<path class="st3" d="M302.4,516.5l0.9-0.9c0.3,0.5,0.9,0.9,1.5,0.9c0.7,0,1.2-0.5,1.2-1.5v-4.9h1.4v5c0,0.7-0.2,1.5-0.7,2
			s-1.2,0.7-1.8,0.7C303.9,517.7,303,517.3,302.4,516.5z"/>
		<path class="st3" d="M309.2,510h5.6v1.2h-4.3v2h3.8v1.2h-3.8v2h4.3v1.2h-5.7V510H309.2z"/>
		<path class="st3" d="M316.1,513.8L316.1,513.8c0-2.1,1.6-3.9,3.7-3.9c0.1,0,0.1,0,0.2,0c1.1-0.1,2.2,0.4,3,1.2l-0.9,1
			c-0.5-0.6-1.3-0.9-2.1-0.9c-1.4,0-2.5,1.2-2.5,2.6c0,0,0,0,0,0.1l0,0c-0.1,1.4,1,2.6,2.4,2.7h0.1c0.8,0,1.6-0.4,2.2-1l0.9,0.9
			c-0.8,0.9-1.9,1.4-3.1,1.3c-2.1,0.1-3.8-1.6-3.9-3.7C316.1,513.9,316.1,513.9,316.1,513.8z"/>
		<path class="st3" d="M326.2,511.3h-2.4v-1.2h6.2v1.2h-2.4v6.3h-1.3L326.2,511.3z"/>
		<path class="st3" d="M334.1,516.5l0.8-1c0.6,0.6,1.5,1,2.4,1c0.8,0,1.3-0.4,1.3-1l0,0c0-0.5-0.3-0.8-1.7-1.2
			c-1.6-0.4-2.5-0.9-2.5-2.2l0,0c0.1-1.3,1.1-2.3,2.4-2.2c0.1,0,0.1,0,0.2,0c1,0,2,0.3,2.7,1l-0.7,1c-0.6-0.5-1.3-0.7-2-0.8
			c-0.8,0-1.2,0.4-1.2,0.9l0,0c0,0.6,0.4,0.8,1.8,1.2s2.4,1,2.4,2.2l0,0c0,1.4-1.1,2.2-2.7,2.2C336.1,517.7,335,517.3,334.1,516.5z"
			/>
		<path class="st3" d="M341.5,510h3c1.8,0,2.9,1,2.9,2.5l0,0c0,1.7-1.4,2.6-3,2.6h-1.5v2.4h-1.4V510z M344.4,514
			c1,0,1.6-0.6,1.6-1.3l0,0c0-0.9-0.6-1.3-1.6-1.3h-1.5v2.7L344.4,514z"/>
		<path class="st3" d="M350.6,510h1.2l3.3,7.6h-1.4l-0.8-1.8h-3.6l-0.8,1.8h-1.4L350.6,510z M352.5,514.6l-1.3-3l-1.3,3H352.5z"/>
		<path class="st3" d="M355.7,513.8L355.7,513.8c0-2.1,1.6-3.9,3.7-3.9c0.1,0,0.1,0,0.2,0c1.1-0.1,2.2,0.4,3,1.2l-0.9,1
			c-0.5-0.6-1.3-0.9-2.1-0.9c-1.4,0-2.5,1.2-2.5,2.6c0,0,0,0,0,0.1l0,0c-0.1,1.4,1,2.6,2.4,2.7h0.1c0.8,0,1.6-0.4,2.2-1l0.9,0.9
			c-0.8,0.9-1.9,1.4-3.1,1.3c-2.1,0-3.8-1.7-3.8-3.8C355.7,513.9,355.7,513.9,355.7,513.8z"/>
		<path class="st3" d="M364,510h5.6v1.2h-4.3v2h3.8v1.2h-3.8v2h4.3v1.2H364V510z"/>
		<path class="st4" d="M513.2,417.6h1.2v5.6h3.5v1.1h-4.7V417.6z"/>
		<path class="st4" d="M518.5,420.9L518.5,420.9c0.1-1.9,1.8-3.4,3.8-3.2c1.7,0.1,3.1,1.5,3.2,3.2l0,0c-0.1,1.9-1.8,3.4-3.8,3.2
			C520,424,518.6,422.7,518.5,420.9z M524.2,420.9L524.2,420.9c0-1.3-0.9-2.3-2.2-2.4c0,0,0,0-0.1,0c-1.3,0-2.3,1-2.3,2.3v0.1l0,0
			c0,1.3,0.9,2.3,2.2,2.4h0.1c1.2,0,2.3-1,2.3-2.3C524.2,421,524.2,421,524.2,420.9L524.2,420.9z"/>
		<path class="st4" d="M526.9,417.6h3c0.6,0,1.3,0.2,1.8,0.6c0.3,0.3,0.5,0.7,0.5,1.1l0,0c0,0.7-0.4,1.3-1,1.5
			c0.8,0.2,1.3,0.8,1.3,1.6l0,0c0,1.2-1,1.8-2.5,1.8h-3.1V417.6z M530.9,419.5c0-0.5-0.4-0.9-1.2-0.9H528v1.8h1.6
			C530.4,420.4,530.9,420.1,530.9,419.5L530.9,419.5z M529.9,421.4H528v1.8h2c0.8,0,1.3-0.3,1.3-0.9l0,0
			C531.3,421.7,530.9,421.4,529.9,421.4L529.9,421.4z"/>
		<path class="st4" d="M533.8,417.6h3c0.6,0,1.3,0.2,1.8,0.6c0.3,0.3,0.5,0.7,0.5,1.1l0,0c0,0.7-0.4,1.3-1,1.5
			c0.8,0.2,1.3,0.8,1.3,1.6l0,0c0,1.2-1,1.8-2.5,1.8h-3.1V417.6z M537.8,419.5c0-0.5-0.4-0.9-1.2-0.9H535v1.8h1.6
			C537.4,420.4,537.9,420.1,537.8,419.5L537.8,419.5z M536.8,421.4H535v1.8h2c0.8,0,1.3-0.3,1.3-0.9l0,0
			C538.2,421.7,537.8,421.4,536.8,421.4L536.8,421.4z"/>
		<path class="st4" d="M542.4,421.6l-2.7-4.1h1.4l1.9,3l1.9-3h1.3l-2.7,4v2.7h-1.2L542.4,421.6z"/>
		<g>
			<path class="st5" d="M479.3,553.7h8.4v1.8h-6.4v3h5.7v1.8h-5.7v3h6.5v1.8h-8.5V553.7z"/>
			<path class="st5" d="M494.2,553.6h1.8l5,11.5h-2l-1.2-2.8h-5.4l-1.2,2.8h-2L494.2,553.6z M497.1,560.6l-2-4.5l-2,4.5H497.1z"/>
			<path class="st5" d="M502.1,563.4l1.2-1.4c1,0.9,2.2,1.5,3.6,1.5c1.2,0,2-0.6,2-1.4l0,0c0-0.8-0.5-1.2-2.6-1.7
				c-2.4-0.6-3.8-1.3-3.8-3.4l0,0c0-2,1.6-3.3,3.9-3.3c1.5,0,3,0.5,4.1,1.4l-1.1,1.5c-0.9-0.7-2-1.1-3.1-1.2c-1.2,0-1.8,0.6-1.8,1.3
				l0,0c0,0.9,0.5,1.3,2.7,1.8c2.4,0.6,3.6,1.5,3.6,3.3l0,0c0,2.1-1.7,3.4-4.1,3.4C505,565.3,503.4,564.6,502.1,563.4z"/>
			<path class="st5" d="M515.8,555.6h-3.6v-1.9h9.2v1.8h-3.6v9.5h-2L515.8,555.6z"/>
			<path class="st5" d="M528.4,553.7h4.5c2.7,0,4.3,1.5,4.3,3.8l0,0c0,2.5-2,3.9-4.5,3.9h-2.3v3.7h-2V553.7z M532.7,559.6
				c1.5,0,2.5-0.8,2.5-2l0,0c0-1.3-1-2-2.5-2h-2.3v4.1L532.7,559.6z"/>
			<path class="st5" d="M539.2,553.7h2v9.5h6v1.8h-8V553.7z"/>
			<path class="st5" d="M553.3,553.6h1.8l5,11.5H558l-1.2-2.8h-5.4l-1.2,2.8h-2L553.3,553.6z M556.2,560.6l-2-4.5l-2,4.5H556.2z"/>
			<path class="st5" d="M561.7,563.6l6.7-8.1h-6.5v-1.8h9.1v1.5l-6.7,8.1h6.7v1.8h-9.3V563.6z"/>
			<path class="st5" d="M577.5,553.6h1.8l5,11.5h-2.1l-1.2-2.8h-5.4l-1.2,2.8h-2L577.5,553.6z M580.4,560.6l-2-4.5l-2,4.5H580.4z"/>
		</g>
		<rect x="257.6" y="491.5" class="st6" width="1.1" height="0.4"/>
		<rect x="42.8" y="437.1" class="st6" width="0.4" height="1.1"/>
		
			<rect x="69.3" y="313.2" transform="matrix(0.7071 -0.7071 0.7071 0.7071 -219.8438 148.918)" class="st7" width="1.1" height="53.3"/>
		
			<rect x="93.4" y="289.1" transform="matrix(0.7071 -0.7071 0.7071 0.7071 -195.7335 158.8978)" class="st7" width="1.1" height="53.3"/>
		
			<rect x="207.8" y="174.6" transform="matrix(0.7071 -0.7071 0.7071 0.7071 -81.4137 206.3341)" class="st7" width="1.1" height="53.7"/>
		
			<rect x="279.6" y="120" transform="matrix(0.7071 -0.7071 0.7071 0.7071 -16.592 238.9638)" class="st7" width="1.1" height="39"/>
		<polygon class="st6" points="153.1,294.8 153.1,294.7 153.8,294 		"/>
		<polygon class="st6" points="115.1,256.8 115,256.7 115.8,256 		"/>
		
			<rect x="263.8" y="135.8" transform="matrix(0.7071 -0.7071 0.7071 0.7071 -32.3768 232.3957)" class="st7" width="1.1" height="39"/>
		
			<rect x="252.5" y="196.9" transform="matrix(0.6869 -0.7267 0.7267 0.6869 -63.9781 245.5854)" class="st6" width="1.1" height="0.3"/>
		
			<rect x="299.7" y="147.7" transform="matrix(0.7092 -0.705 0.705 0.7092 -16.8641 254.659)" class="st6" width="1.1" height="0.1"/>
		
			<rect x="287.5" y="159.8" transform="matrix(0.705 -0.7092 0.7092 0.705 -28.4026 251.4453)" class="st6" width="1.1" height="0.1"/>
		<path class="st8" d="M266.5,125.6"/>
		
			<rect x="310.4" y="136.9" transform="matrix(0.7483 -0.6634 0.6634 0.7483 -12.5798 240.7631)" class="st6" width="1.1" height="0.1"/>
		
			<rect x="321.9" y="125.5" transform="matrix(0.6654 -0.7465 0.7465 0.6654 14.1627 282.7448)" class="st6" width="1.1" height="0.1"/>
		
			<rect x="339.3" y="60.8" transform="matrix(0.707 -0.7072 0.7072 0.707 42.7379 263.8903)" class="st7" width="1.1" height="39.1"/>
		<polygon class="st7" points="375.9,80.7 374.8,80.7 374.8,71.7 369.3,71.7 344.8,47.3 345.6,46.5 369.7,70.6 375.9,70.6 		"/>
		<rect x="387" y="40.3" class="st7" width="1.1" height="40.4"/>
		<rect x="399.5" y="40.4" class="st7" width="1.1" height="40.4"/>
		<rect x="562.9" y="40.4" class="st7" width="1.1" height="40.3"/>
		<rect x="593.5" y="40.4" class="st7" width="1.1" height="40.3"/>
		<rect x="624" y="40.4" class="st7" width="1.1" height="40.4"/>
		<rect x="645.4" y="40.4" class="st7" width="1.1" height="40.3"/>
		<rect x="688.9" y="40.4" class="st7" width="1.1" height="40.3"/>
		<path class="st8" d="M700.1,153.6"/>
		<path class="st8" d="M704.1,149.6"/>
		<path class="st8" d="M760.9,76.7"/>
		<polygon class="st7" points="751.3,196.7 750.5,196 786.1,160.4 798.1,172.4 827,143.5 827.8,144.2 798.1,174 786.1,162 		"/>
		<polygon class="st7" points="775.1,220.6 774.3,219.8 809.1,185 797.7,173.6 798.5,172.8 810.6,185 		"/>
		
			<rect x="838.3" y="215.2" transform="matrix(0.7071 -0.7071 0.7071 0.7071 100.4202 673.8913)" class="st7" width="50.8" height="1.1"/>
		<path class="st8" d="M897.7,213.3"/>
		
			<rect x="824.6" y="342.9" transform="matrix(0.7071 -0.7071 0.7071 0.7071 -0.8107 683.9251)" class="st6" width="1.1" height="0.1"/>
		
			<rect x="745" y="184.5" transform="matrix(0.706 -0.7082 0.7082 0.706 30.8358 606.1874)" class="st7" width="1.1" height="162.9"/>
		
			<rect x="740.3" y="251.6" transform="matrix(0.7071 -0.7071 0.7071 0.7071 44.3641 611.3878)" class="st7" width="39.8" height="1.1"/>
		<polygon class="st7" points="226.1,360.2 225.3,359.4 265.9,318.7 317.7,267.1 318.5,267.8 266.7,319.5 		"/>
		<path class="st8" d="M208.4,261.3"/>
		
			<rect x="266.4" y="219.7" transform="matrix(0.7097 -0.7045 0.7045 0.7097 -106.0372 263.6906)" class="st7" width="1.1" height="81.6"/>
		
			<rect x="236.8" y="249.3" transform="matrix(0.7071 -0.7071 0.7071 0.7071 -135.6739 252.8274)" class="st7" width="1.1" height="81.8"/>
		<path class="st9" d="M733.5,104.1"/>
		<path class="st9" d="M740.3,97.2"/>
		
			<rect x="874.2" y="222.6" transform="matrix(0.7071 -0.7071 0.7071 0.7071 102.6089 694.0029)" class="st7" width="29.7" height="1.1"/>
		<polyline class="st10" points="121.5,347.9 149.6,376.1 230.1,456.7 		"/>
		
			<rect x="175.3" y="325.5" transform="matrix(0.7076 -0.7066 0.7066 0.7076 -232.8957 241.9104)" class="st7" width="1.1" height="153.7"/>
		<line class="st11" x1="187.4" y1="337" x2="149.6" y2="376.1"/>
		
			<rect x="141.4" y="356" transform="matrix(0.6948 -0.7192 0.7192 0.6948 -204.9922 230.0591)" class="st7" width="54.3" height="1.1"/>
		<line class="st11" x1="214.2" y1="363.9" x2="175.6" y2="402.3"/>
		
			<rect x="167.7" y="382.6" transform="matrix(0.7086 -0.7056 0.7056 0.7086 -213.5599 249.2155)" class="st7" width="54.5" height="1.1"/>
		<line class="st11" x1="118.6" y1="392.8" x2="142.5" y2="368.9"/>
		
			<rect x="113.6" y="380.3" transform="matrix(0.7071 -0.7071 0.7071 0.7071 -231.0758 203.8242)" class="st7" width="33.8" height="1.1"/>
		<path class="st12" d="M108.8,424.3"/>
		<polygon class="st7" points="155.9,457.1 115.2,416.4 107.8,423.3 107.1,422.6 115.3,414.9 156.6,456.3 		"/>
		<polygon class="st7" points="168.9,444 160.9,435.2 184.9,411.4 185.7,412.2 162.4,435.2 169.7,443.3 		"/>
		<line class="st11" x1="190.2" y1="464.2" x2="214.2" y2="440.7"/>
		
			<rect x="185.4" y="451.9" transform="matrix(0.7163 -0.6978 0.6978 0.7163 -258.3588 269.4641)" class="st7" width="33.6" height="1.1"/>
		
			<rect x="736" y="86.4" transform="matrix(0.7071 -0.7071 0.7071 0.7071 158.3461 556.1722)" class="st2" width="29.1" height="1.1"/>
		
			<rect x="878.3" y="244.9" transform="matrix(0.7071 -0.7071 0.7071 0.7071 89.9259 708.0105)" class="st7" width="42.6" height="1.1"/>
		<polygon class="st7" points="638.3,219.5 637.3,174.8 417.2,174.8 417,219.4 415.9,219.4 416.1,173.8 638.3,173.8 638.4,174.3 
			639.4,219.5 		"/>
		<rect x="43.2" y="437.1" class="st7" width="40.5" height="1.1"/>
		
			<rect x="133.9" y="249" transform="matrix(0.7071 -0.7071 0.7071 0.7071 -155.535 175.8037)" class="st7" width="1.1" height="53.3"/>
		
			<rect x="231.6" y="150.8" transform="matrix(0.7071 -0.7071 0.7071 0.7071 -57.6207 216.1878)" class="st7" width="1.1" height="53.7"/>
		
			<rect x="307.9" y="91.7" transform="matrix(0.7071 -0.7071 0.7071 0.7071 11.4927 250.7646)" class="st7" width="1.1" height="39.6"/>
		
			<rect x="320.7" y="79.2" transform="matrix(0.7071 -0.7071 0.7071 0.7071 24.2407 256.103)" class="st7" width="1.1" height="39.2"/>
		<polygon class="st7" points="313.9,200.4 313.5,200 313.3,200.2 291.4,178.3 292.2,177.6 313.7,199.1 336.2,176.3 336.9,177.1 
			314.4,199.8 314.5,199.9 		"/>
		<polygon class="st7" points="350,235.5 327.8,213.5 327.8,213.5 327.2,212.9 327.6,212.5 327.4,212.3 349.8,189.9 350.5,190.7 
			328.5,212.7 350.7,234.7 		"/>
		<polygon class="st7" points="337.5,287.6 318.1,268.2 318.1,268.2 317.5,267.6 317.9,267.2 317.7,267.1 372.2,212.4 373,213.2 
			318.8,267.4 338.2,286.8 		"/>
		<rect x="82.8" y="491.9" class="st7" width="1.1" height="51.8"/>
		<rect x="205" y="491.9" class="st2" width="1.1" height="51.8"/>
		<rect x="257.6" y="492.5" class="st2" width="1.1" height="51"/>
		<rect x="257.6" y="491.9" class="st7" width="1.1" height="51.8"/>
		<rect x="204.3" y="492.1" class="st7" width="1.1" height="51.8"/>
	</g>
</g>
<g id="Buttons">
	<g id="_x30_1_1_">
		<circle class="st13" cx="486.9" cy="583.6" r="15.6"/>
		<g>
			<g>
				<g>
					<path class="st2" d="M487.2,578.8l-2.6,0.7l-0.5-2.1l3.9-1.2h1.8v14.7h-2.5V578.8z"/>
				</g>
			</g>
		</g>
	</g>
	<g id="_x30_2_1_">
		<circle class="st14" cx="397.5" cy="436" r="15.6"/>
		<g>
			<g>
				<g>
					<path class="st2" d="M392.3,441.4l5-4.3c2-1.7,2.7-2.6,2.7-3.9c0-1.4-1-2.3-2.4-2.3c-1.3,0-2.2,0.7-3.3,2.2l-1.8-1.4
						c1.4-1.9,2.8-3,5.4-3c2.9,0,4.8,1.7,4.8,4.3v0c0,2.3-1.2,3.5-3.8,5.6l-3,2.5h6.9v2.2h-10.5V441.4z"/>
				</g>
			</g>
		</g>
	</g>
	<g id="_x30_3_1_">
		<circle class="st15" cx="92.5" cy="339.5" r="15.6"/>
		<g>
			<g>
				<g>
					<path class="st2" d="M87.2,344.4l1.8-1.7c1,1.2,2.2,1.9,3.8,1.9c1.4,0,2.5-0.9,2.5-2.2v0c0-1.4-1.3-2.2-3.3-2.2h-1.2l-0.4-1.6
						l3.9-4.2H88v-2.2h9.6v1.9l-4.1,4.2c2.2,0.3,4.3,1.4,4.3,4.1v0c0,2.7-2.1,4.6-5.1,4.6C90.2,346.9,88.4,345.9,87.2,344.4z"/>
				</g>
			</g>
		</g>
	</g>
	<g id="_x30_4_1_">
		<circle class="st15" cx="337" cy="407.4" r="15.6"/>
		<g>
			<g>
				<g>
					<path class="st2" d="M338.6,411.4h-7.3l-0.5-1.8l8.1-9.6h2.2v9.3h2.1v2.1h-2.1v3.3h-2.5V411.4z M338.6,409.3v-5.8l-4.8,5.8
						H338.6z"/>
				</g>
			</g>
		</g>
	</g>
	<g id="_x30_5_1_">
		<circle class="st15" cx="807" cy="302" r="15.6"/>
		<g>
			<g>
				<g>
					<path class="st2" d="M801.6,307.2l1.6-1.9c1.2,1.1,2.4,1.7,3.7,1.7c1.7,0,2.9-1,2.9-2.5v0c0-1.5-1.2-2.4-3-2.4
						c-1,0-1.9,0.3-2.7,0.6l-1.5-1l0.4-7.1h8.7v2.3h-6.5l-0.2,3.4c0.7-0.2,1.3-0.4,2.3-0.4c2.8,0,5.1,1.5,5.1,4.6v0
						c0,3-2.2,4.9-5.4,4.9C804.7,309.5,803,308.6,801.6,307.2z"/>
				</g>
			</g>
		</g>
	</g>
	<g id="_x30_9_1_">
		<circle class="st13" cx="694.5" cy="387.7" r="15.6"/>
		<g>
			<g>
				<g>
					<path class="st2" d="M697.4,388.3c-0.8,1-1.9,1.6-3.4,1.6c-3.1,0-5.2-1.8-5.2-4.6v0c0-2.9,2.2-5,5.4-5c1.8,0,3,0.5,4.1,1.5
						c1.1,1.1,1.7,2.7,1.7,5.6v0c0,4.7-2.3,7.9-6.2,7.9c-2,0-3.4-0.7-4.7-1.7l1.4-2c1.1,0.9,2.1,1.4,3.3,1.4
						C696.5,392.9,697.4,390.2,697.4,388.3z M697.3,385.1L697.3,385.1c0-1.6-1.2-2.7-3-2.7c-1.8,0-2.9,1.2-2.9,2.7v0
						c0,1.5,1.2,2.6,3,2.6C696.2,387.7,697.3,386.5,697.3,385.1z"/>
				</g>
			</g>
		</g>
	</g>
	<g id="_x31_0_1_">
		<circle class="st13" cx="86" cy="468" r="15.6"/>
		<g>
			<g>
				<g>
					<path class="st2" d="M78.9,463.3l-2.6,0.7l-0.5-2.1l3.9-1.2h1.8v14.7h-2.5V463.3z"/>
				</g>
				<g>
					<path class="st2" d="M83.6,468.1L83.6,468.1c0-4.2,2.5-7.6,6.4-7.6c3.8,0,6.3,3.3,6.3,7.5v0c0,4.2-2.5,7.5-6.4,7.5
						C86.1,475.6,83.6,472.2,83.6,468.1z M93.7,468.1L93.7,468.1c0-2.9-1.5-5.3-3.7-5.3c-2.2,0-3.7,2.3-3.7,5.2v0
						c0,2.9,1.5,5.2,3.7,5.2S93.7,470.9,93.7,468.1z"/>
				</g>
			</g>
		</g>
	</g>
	<g id="_x31_1_1_">
		<circle class="st13" cx="716.8" cy="205.7" r="15.6"/>
		<g>
			<g>
				<g>
					<path class="st2" d="M713.5,201l-2.6,0.7l-0.5-2.1l3.9-1.2h1.8V213h-2.5V201z"/>
				</g>
				<g>
					<path class="st2" d="M720.8,201l-2.6,0.7l-0.5-2.1l3.9-1.2h1.8V213h-2.5V201z"/>
				</g>
			</g>
		</g>
	</g>
	<g id="_x31_5_1_">
		<circle class="st13" cx="577.5" cy="583.6" r="15.6"/>
		<g>
			<g>
				<g>
					<path class="st2" d="M571.4,578.7l-2.6,0.7l-0.5-2.1l3.9-1.2h1.8v14.7h-2.5V578.7z"/>
				</g>
				<g>
					<path class="st2" d="M576,588.8l1.6-1.9c1.2,1.1,2.4,1.7,3.7,1.7c1.7,0,2.9-1,2.9-2.5v0c0-1.5-1.2-2.4-3-2.4
						c-1,0-1.9,0.3-2.7,0.6l-1.5-1l0.4-7.1h8.7v2.3h-6.5l-0.2,3.4c0.7-0.2,1.3-0.4,2.3-0.4c2.8,0,5.1,1.5,5.1,4.6v0
						c0,3-2.2,4.9-5.4,4.9C579.1,591,577.4,590.1,576,588.8z"/>
				</g>
			</g>
		</g>
	</g>
	<g id="_x31_6_1_">
		
			<ellipse transform="matrix(5.114643e-02 -0.9987 0.9987 5.114643e-02 -223.1507 675.916)" class="st16" cx="244.1" cy="455.4" rx="15.6" ry="15.6"/>
		<g>
			<g>
				<g>
					<path class="st2" d="M238,450.3l-2.7,0.6l-0.4-2.1l4-1l1.8,0.1l-0.8,14.6l-2.5-0.1L238,450.3z"/>
				</g>
				<g>
					<path class="st2" d="M244,461.4c-1-1.2-1.6-2.7-1.5-5.6l0,0c0.2-4.4,2.5-7.8,6.6-7.6c1.9,0.1,3.1,0.8,4.4,1.8l-1.5,1.9
						c-1-0.8-1.8-1.4-3.1-1.4c-2.5-0.1-3.6,2.5-3.7,4.5c0.9-0.8,2-1.4,3.6-1.3c2.8,0.1,5,1.9,4.8,4.8l0,0c-0.1,2.9-2.6,4.8-5.7,4.7
						C246.1,463,244.9,462.4,244,461.4z M251,458.4L251,458.4c0.1-1.5-1-2.6-2.8-2.7s-3,1-3.1,2.4l0,0c-0.1,1.5,1.1,2.7,2.9,2.8
						C249.8,461,250.9,459.9,251,458.4z"/>
				</g>
			</g>
		</g>
	</g>
	<g id="_x31_7_1_">
		<circle class="st17" cx="441" cy="60.7" r="15.6"/>
		<g>
			<g>
				<g>
					<path class="st2" d="M435,55.9l-2.6,0.7l-0.5-2.1l3.9-1.2h1.8V68H435V55.9z"/>
				</g>
				<g>
					<path class="st2" d="M447.3,55.7H440v-2.2h10.2v1.9L443.7,68h-2.9L447.3,55.7z"/>
				</g>
			</g>
		</g>
	</g>
	<g id="_x32_0_1_">
		<circle class="st17" cx="532.2" cy="583.6" r="15.6"/>
		<g>
			<g>
				<g>
					<path class="st2" d="M519.9,588.8l5-4.3c2-1.7,2.7-2.6,2.7-3.9c0-1.4-1-2.3-2.4-2.3s-2.2,0.7-3.3,2.2l-1.8-1.4
						c1.4-1.9,2.8-3,5.4-3c2.8,0,4.8,1.7,4.8,4.3v0c0,2.3-1.2,3.5-3.8,5.6l-3,2.5h6.9v2.2h-10.5V588.8z"/>
				</g>
				<g>
					<path class="st2" d="M531.8,583.6L531.8,583.6c0-4.2,2.5-7.6,6.4-7.6c3.8,0,6.3,3.3,6.3,7.5v0c0,4.2-2.5,7.5-6.4,7.5
						C534.3,591.1,531.8,587.8,531.8,583.6z M541.9,583.6L541.9,583.6c0-2.9-1.5-5.3-3.7-5.3c-2.2,0-3.7,2.3-3.7,5.2v0
						c0,2.9,1.5,5.2,3.7,5.2C540.5,588.8,541.9,586.4,541.9,583.6z"/>
				</g>
			</g>
		</g>
	</g>
	<g id="_x32_3_1_">
		<circle class="st13" cx="749.6" cy="247" r="15.6"/>
		<g>
			<g>
				<g>
					<path class="st2" d="M738.5,252.3l5-4.3c2-1.7,2.7-2.6,2.7-3.9c0-1.4-1-2.3-2.4-2.3c-1.3,0-2.2,0.7-3.3,2.2l-1.8-1.4
						c1.4-1.9,2.8-3,5.4-3c2.8,0,4.8,1.7,4.8,4.3v0c0,2.3-1.2,3.5-3.8,5.6l-3,2.5h6.9v2.2h-10.5V252.3z"/>
				</g>
				<g>
					<path class="st2" d="M750.2,252l1.8-1.7c1,1.2,2.2,1.9,3.8,1.9c1.4,0,2.5-0.9,2.5-2.2v0c0-1.4-1.3-2.2-3.3-2.2h-1.2l-0.4-1.6
						l3.9-4.2H751v-2.2h9.6v1.9l-4.1,4.2c2.2,0.3,4.3,1.4,4.3,4.1v0c0,2.7-2.1,4.6-5.1,4.6C753.2,254.6,751.4,253.5,750.2,252z"/>
				</g>
			</g>
		</g>
	</g>
	<g id="_x32_5_1_">
		<circle class="st15" cx="415.1" cy="392.8" r="15.6"/>
		<g>
			<g>
				<g>
					<path class="st2" d="M403.8,398.1l5-4.3c2-1.7,2.7-2.6,2.7-3.9c0-1.4-1-2.3-2.4-2.3c-1.3,0-2.2,0.7-3.3,2.2l-1.8-1.4
						c1.4-1.9,2.8-3,5.4-3c2.9,0,4.8,1.7,4.8,4.3v0c0,2.3-1.2,3.5-3.8,5.6l-3,2.5h6.9v2.2h-10.5V398.1z"/>
				</g>
				<g>
					<path class="st2" d="M415.6,398.1l1.6-1.9c1.2,1.1,2.4,1.7,3.7,1.7c1.7,0,2.9-1,2.9-2.5v0c0-1.5-1.2-2.4-3-2.4
						c-1,0-1.9,0.3-2.7,0.6l-1.5-1l0.4-7.1h8.7v2.3h-6.5l-0.2,3.4c0.7-0.2,1.3-0.4,2.3-0.4c2.8,0,5.1,1.5,5.1,4.6v0
						c0,3-2.2,4.9-5.4,4.9C418.7,400.3,416.9,399.4,415.6,398.1z"/>
				</g>
			</g>
		</g>
	</g>
	<g id="_x32_6_1_">
		<circle class="st13" cx="642.6" cy="423.3" r="15.6"/>
		<g>
			<g>
				<g>
					<path class="st2" d="M631,428.6l5-4.3c2-1.7,2.7-2.6,2.7-3.9c0-1.4-1-2.3-2.3-2.3s-2.2,0.7-3.3,2.2l-1.8-1.4
						c1.4-1.9,2.8-3,5.4-3c2.8,0,4.8,1.7,4.8,4.3v0c0,2.3-1.2,3.5-3.8,5.6l-3,2.5h6.9v2.2H631V428.6z"/>
				</g>
				<g>
					<path class="st2" d="M644.8,429.3c-1.1-1.1-1.8-2.6-1.8-5.6v0c0-4.5,2.1-7.9,6.2-7.9c1.9,0,3.2,0.6,4.5,1.6l-1.4,2
						c-1-0.8-1.9-1.3-3.2-1.3c-2.5,0-3.5,2.6-3.5,4.6c0.9-0.9,1.9-1.5,3.5-1.5c2.8,0,5.1,1.7,5.1,4.6v0c0,2.9-2.4,5-5.4,5
						C647,430.8,645.7,430.3,644.8,429.3z M651.7,426L651.7,426c0-1.5-1.2-2.6-3-2.6s-3,1.2-3,2.6v0c0,1.5,1.2,2.6,3,2.6
						S651.7,427.5,651.7,426z"/>
				</g>
			</g>
		</g>
	</g>
	<g id="_x32_7_1_">
		<circle class="st16" cx="172.1" cy="519" r="15.6"/>
		<g>
			<g>
				<g>
					<path class="st2" d="M161,524.4l5-4.3c2-1.7,2.7-2.6,2.7-3.9c0-1.4-1-2.3-2.4-2.3s-2.2,0.7-3.3,2.2l-1.8-1.4
						c1.4-1.9,2.8-3,5.4-3c2.8,0,4.8,1.7,4.8,4.3v0c0,2.3-1.2,3.5-3.8,5.6l-3,2.5h6.9v2.2H161V524.4z"/>
				</g>
				<g>
					<path class="st2" d="M180.4,514.1h-7.3v-2.2h10.2v1.9l-6.6,12.6h-2.9L180.4,514.1z"/>
				</g>
			</g>
		</g>
	</g>
	<g id="_x32_8">
		<circle class="st16" cx="276.5" cy="218.6" r="15.6"/>
		<g>
			<g>
				<g>
					<path class="st2" d="M265.1,223.9l5-4.3c2-1.7,2.7-2.6,2.7-3.9c0-1.4-1-2.3-2.4-2.3c-1.3,0-2.2,0.7-3.3,2.2l-1.8-1.4
						c1.4-1.9,2.8-3,5.4-3c2.9,0,4.8,1.7,4.8,4.3v0c0,2.3-1.2,3.5-3.8,5.6l-3,2.5h6.9v2.2h-10.5V223.9z"/>
				</g>
				<g>
					<path class="st2" d="M276.9,221.9L276.9,221.9c0-1.8,1-2.9,2.6-3.6c-1.2-0.6-2.1-1.6-2.1-3.2v0c0-2.2,2.1-3.9,5.1-3.9
						s5.1,1.7,5.1,3.9v0c0,1.6-0.9,2.6-2.1,3.2c1.6,0.7,2.6,1.8,2.6,3.5v0c0,2.6-2.4,4.2-5.6,4.2
						C279.2,226.1,276.9,224.5,276.9,221.9z M285.5,221.8L285.5,221.8c0-1.4-1.3-2.2-3.1-2.2s-3,0.9-3,2.2v0c0,1.2,1.1,2.2,3,2.2
						C284.3,224,285.5,223,285.5,221.8z M285,215.4L285,215.4c0-1.2-1-2.1-2.6-2.1c-1.6,0-2.6,0.9-2.6,2v0c0,1.3,1.1,2.2,2.6,2.2
						C283.9,217.5,285,216.6,285,215.4z"/>
				</g>
			</g>
		</g>
	</g>
	<g id="_x32_9">
		<circle class="st16" cx="235" cy="259" r="15.6"/>
		<g>
			<g>
				<g>
					<path class="st2" d="M223.4,264.2l5-4.3c2-1.7,2.7-2.6,2.7-3.9c0-1.4-1-2.3-2.4-2.3c-1.3,0-2.2,0.7-3.3,2.2l-1.8-1.4
						c1.4-1.9,2.8-3,5.4-3c2.9,0,4.8,1.7,4.8,4.3v0c0,2.3-1.2,3.5-3.8,5.6l-3,2.5h6.9v2.2h-10.5V264.2z"/>
				</g>
				<g>
					<path class="st2" d="M244,259.6c-0.8,1-1.9,1.6-3.4,1.6c-3.1,0-5.2-1.8-5.2-4.6v0c0-2.8,2.2-5,5.4-5c1.8,0,3,0.5,4.1,1.5
						c1.1,1.1,1.7,2.7,1.7,5.6v0c0,4.7-2.3,7.9-6.2,7.9c-2,0-3.4-0.7-4.7-1.7l1.4-2c1.1,0.9,2.1,1.4,3.3,1.4
						C243.1,264.2,244,261.5,244,259.6z M243.9,256.4L243.9,256.4c0-1.6-1.2-2.7-3-2.7c-1.8,0-2.9,1.2-2.9,2.7v0
						c0,1.5,1.2,2.6,3,2.6C242.8,259,243.9,257.8,243.9,256.4z"/>
				</g>
			</g>
		</g>
	</g>
	<g id="_x33_0">
		<circle class="st18" cx="814.6" cy="225.4" r="15.6"/>
		<g>
			<g>
				<g>
					<path class="st2" d="M802.2,230.4l1.8-1.7c1,1.2,2.2,1.9,3.8,1.9c1.4,0,2.5-0.9,2.5-2.2v0c0-1.4-1.3-2.2-3.3-2.2h-1.2l-0.4-1.6
						l3.9-4.2H803v-2.2h9.6v1.9l-4.1,4.2c2.2,0.3,4.3,1.4,4.3,4.1v0c0,2.7-2.1,4.6-5.1,4.6C805.2,232.9,803.4,231.8,802.2,230.4z"/>
				</g>
				<g>
					<path class="st2" d="M814.4,225.4L814.4,225.4c0-4.2,2.5-7.6,6.4-7.6c3.8,0,6.3,3.3,6.3,7.5v0c0,4.2-2.5,7.5-6.4,7.5
						S814.4,229.6,814.4,225.4z M824.5,225.4L824.5,225.4c0-2.9-1.5-5.3-3.7-5.3c-2.2,0-3.7,2.3-3.7,5.2v0c0,2.9,1.5,5.2,3.7,5.2
						C823,230.6,824.5,228.3,824.5,225.4z"/>
				</g>
			</g>
		</g>
	</g>
	<g id="_x33_4">
		<circle class="st16" cx="268" cy="431.2" r="15.6"/>
		<g>
			<g>
				<g>
					<path class="st2" d="M255.9,436.1l1.8-1.7c1,1.2,2.2,1.9,3.8,1.9c1.4,0,2.5-0.9,2.5-2.2v0c0-1.4-1.3-2.2-3.3-2.2h-1.2l-0.4-1.6
						l3.9-4.2h-6.3v-2.2h9.6v1.9l-4.1,4.2c2.2,0.3,4.3,1.4,4.3,4.1v0c0,2.7-2.1,4.6-5.1,4.6C259,438.7,257.2,437.6,255.9,436.1z"/>
				</g>
				<g>
					<path class="st2" d="M275.5,435.1h-7.3l-0.5-1.8l8.1-9.6h2.2v9.3h2.1v2.1H278v3.3h-2.5V435.1z M275.5,433v-5.8l-4.8,5.8H275.5z
						"/>
				</g>
			</g>
		</g>
	</g>
	<g id="_x33_5">
		<circle class="st17" cx="524" cy="60.7" r="15.6"/>
		<g>
			<g>
				<g>
					<path class="st2" d="M512.6,65.5l1.8-1.7c1,1.2,2.2,1.9,3.8,1.9c1.4,0,2.5-0.9,2.5-2.2v0c0-1.4-1.3-2.2-3.3-2.2h-1.2l-0.4-1.6
						l3.9-4.2h-6.3v-2.2h9.6v1.9l-4.1,4.2c2.2,0.3,4.3,1.4,4.3,4.1v0c0,2.7-2.1,4.6-5.1,4.6C515.7,68.1,513.9,67,512.6,65.5z"/>
				</g>
				<g>
					<path class="st2" d="M524.5,65.9l1.6-1.9c1.2,1.1,2.4,1.7,3.7,1.7c1.7,0,2.9-1,2.9-2.5v0c0-1.5-1.2-2.4-3-2.4
						c-1,0-1.9,0.3-2.7,0.6l-1.5-1l0.4-7.1h8.7v2.3h-6.5l-0.2,3.4c0.7-0.2,1.3-0.4,2.3-0.4c2.8,0,5.1,1.5,5.1,4.6v0
						c0,3-2.2,4.9-5.4,4.9C527.6,68.1,525.9,67.2,524.5,65.9z"/>
				</g>
			</g>
		</g>
	</g>
	<g id="_x33_7">
		<circle class="st18" cx="735" cy="151.4" r="15.6"/>
		<g>
			<g>
				<g>
					<path class="st2" d="M723.9,156.2l1.8-1.7c1,1.2,2.2,1.9,3.8,1.9c1.4,0,2.5-0.9,2.5-2.2v0c0-1.4-1.3-2.2-3.3-2.2h-1.2l-0.4-1.6
						l3.9-4.2h-6.3V144h9.6v1.9l-4.1,4.2c2.2,0.3,4.3,1.4,4.3,4.1v0c0,2.7-2.1,4.6-5.1,4.6C726.9,158.8,725.1,157.7,723.9,156.2z"/>
				</g>
				<g>
					<path class="st2" d="M743.2,146.2h-7.3V144h10.2v1.9l-6.6,12.6h-2.9L743.2,146.2z"/>
				</g>
			</g>
		</g>
	</g>
	<g id="_x33_8">
		<circle class="st18" cx="657.5" cy="153.1" r="15.6"/>
		<g>
			<g>
				<g>
					<path class="st2" d="M646,158.1l1.8-1.7c1,1.2,2.2,1.9,3.8,1.9c1.4,0,2.5-0.9,2.5-2.2v0c0-1.4-1.3-2.2-3.4-2.2h-1.2l-0.4-1.6
						l3.9-4.2h-6.3v-2.2h9.6v1.9l-4.1,4.2c2.2,0.3,4.3,1.4,4.3,4.1v0c0,2.7-2.1,4.6-5.1,4.6C649,160.6,647.2,159.6,646,158.1z"/>
				</g>
				<g>
					<path class="st2" d="M658,156.4L658,156.4c0-1.8,1-2.9,2.6-3.6c-1.2-0.6-2.1-1.6-2.1-3.2v0c0-2.2,2.1-3.9,5.1-3.9
						c2.9,0,5.1,1.7,5.1,3.9v0c0,1.6-0.9,2.6-2.1,3.2c1.6,0.7,2.6,1.8,2.6,3.5v0c0,2.6-2.4,4.2-5.6,4.2
						C660.4,160.6,658,158.9,658,156.4z M666.6,156.3L666.6,156.3c0-1.4-1.3-2.2-3.1-2.2s-3,0.9-3,2.2v0c0,1.2,1.1,2.2,3,2.2
						C665.5,158.4,666.6,157.5,666.6,156.3z M666.2,149.8L666.2,149.8c0-1.2-1-2.1-2.6-2.1c-1.6,0-2.6,0.9-2.6,2v0
						c0,1.3,1.1,2.2,2.6,2.2C665.1,152,666.2,151.1,666.2,149.8z"/>
				</g>
			</g>
		</g>
	</g>
	<g id="_x34_0">
		<circle class="st18" cx="54.5" cy="346.9" r="15.6"/>
		<g>
			<g>
				<g>
					<path class="st2" d="M49.1,350.9h-7.3l-0.5-1.8l8.1-9.6h2.2v9.3h2.1v2.1h-2.1v3.3h-2.5V350.9z M49.1,348.8v-5.8l-4.8,5.8H49.1z
						"/>
				</g>
				<g>
					<path class="st2" d="M55,347L55,347c0-4.2,2.5-7.6,6.4-7.6c3.8,0,6.3,3.3,6.3,7.5v0c0,4.2-2.5,7.5-6.4,7.5S55,351.1,55,347z
						 M65.1,347L65.1,347c0-2.9-1.5-5.3-3.7-5.3c-2.2,0-3.7,2.3-3.7,5.2v0c0,2.9,1.5,5.2,3.7,5.2C63.6,352.1,65.1,349.8,65.1,347z"
						/>
				</g>
			</g>
		</g>
	</g>
	<g id="_x34_0_1_">
		<circle class="st18" cx="767.6" cy="210.3" r="15.6"/>
		<g>
			<g>
				<g>
					<path class="st2" d="M762.3,214.3h-7.3l-0.5-1.8l8.1-9.6h2.2v9.3h2.1v2.1h-2.1v3.3h-2.5V214.3z M762.3,212.2v-5.8l-4.8,5.8
						H762.3z"/>
				</g>
				<g>
					<path class="st2" d="M768.1,210.3L768.1,210.3c0-4.2,2.5-7.6,6.4-7.6c3.8,0,6.3,3.3,6.3,7.5v0c0,4.2-2.5,7.5-6.4,7.5
						C770.6,217.8,768.1,214.5,768.1,210.3z M778.2,210.3L778.2,210.3c0-2.9-1.5-5.3-3.7-5.3c-2.2,0-3.7,2.3-3.7,5.2v0
						c0,2.9,1.5,5.2,3.7,5.2C776.8,215.5,778.2,213.2,778.2,210.3z"/>
				</g>
			</g>
		</g>
	</g>
	<g id="_x34_0_2_">
		<circle class="st18" cx="790" cy="362.4" r="15.6"/>
		<g>
			<g>
				<g>
					<path class="st2" d="M784.6,366.4h-7.3l-0.5-1.8l8.1-9.6h2.2v9.3h2.1v2.1h-2.1v3.3h-2.5V366.4z M784.6,364.3v-5.8l-4.8,5.8
						H784.6z"/>
				</g>
				<g>
					<path class="st2" d="M790.5,362.4L790.5,362.4c0-4.2,2.5-7.6,6.4-7.6c3.8,0,6.3,3.3,6.3,7.5v0c0,4.2-2.5,7.5-6.4,7.5
						S790.5,366.6,790.5,362.4z M800.5,362.4L800.5,362.4c0-2.9-1.5-5.3-3.7-5.3c-2.2,0-3.7,2.3-3.7,5.2v0c0,2.9,1.5,5.2,3.7,5.2
						C799.1,367.6,800.5,365.3,800.5,362.4z"/>
				</g>
			</g>
		</g>
	</g>
	<g id="_x34_1">
		<circle class="st16" cx="199.5" cy="223.4" r="15.6"/>
		<g>
			<g>
				<g>
					<path class="st2" d="M198.2,227.4h-7.3l-0.5-1.8l8.1-9.6h2.2v9.3h2.1v2.1h-2.1v3.3h-2.5V227.4z M198.2,225.3v-5.8l-4.8,5.8
						H198.2z"/>
				</g>
				<g>
					<path class="st2" d="M206.1,218.6l-2.6,0.7l-0.5-2.1l3.9-1.2h1.8v14.7h-2.5V218.6z"/>
				</g>
			</g>
		</g>
	</g>
	<g id="_x34_3">
		<circle class="st18" cx="135.5" cy="307.8" r="15.6"/>
		<g>
			<g>
				<g>
					<path class="st2" d="M131.2,311.7h-7.3l-0.5-1.8l8.1-9.6h2.2v9.3h2.1v2.1h-2.1v3.3h-2.5V311.7z M131.2,309.6v-5.8l-4.8,5.8
						H131.2z"/>
				</g>
				<g>
					<path class="st2" d="M136.8,312.7l1.8-1.7c1,1.2,2.2,1.9,3.8,1.9c1.4,0,2.5-0.9,2.5-2.2v0c0-1.4-1.3-2.2-3.3-2.2h-1.2l-0.4-1.6
						l3.9-4.2h-6.3v-2.2h9.6v1.9l-4.1,4.2c2.2,0.3,4.3,1.4,4.3,4.1v0c0,2.7-2.1,4.6-5.1,4.6C139.9,315.3,138,314.2,136.8,312.7z"/>
				</g>
			</g>
		</g>
	</g>
	<g id="_x34_5">
		<circle class="st18" cx="578.3" cy="87" r="15.6"/>
		<g>
			<g>
				<g>
					<path class="st2" d="M574,91h-7.3l-0.5-1.8l8.1-9.6h2.2v9.3h2.1V91h-2.1v3.3H574V91z M574,88.9v-5.8l-4.8,5.8H574z"/>
				</g>
				<g>
					<path class="st2" d="M579.6,92.3l1.6-1.9c1.2,1.1,2.4,1.7,3.7,1.7c1.7,0,2.9-1,2.9-2.5v0c0-1.5-1.2-2.4-3-2.4
						c-1,0-1.9,0.3-2.7,0.6l-1.5-1l0.4-7.1h8.7v2.3h-6.5l-0.2,3.4c0.7-0.2,1.3-0.4,2.3-0.4c2.8,0,5.1,1.5,5.1,4.6v0
						c0,3-2.2,4.9-5.4,4.9C582.7,94.5,581,93.6,579.6,92.3z"/>
				</g>
			</g>
		</g>
	</g>
	<g id="_x35_0">
		<circle class="st18" cx="276.8" cy="463" r="15.6"/>
		<g>
			<g>
				<g>
					<path class="st2" d="M264.4,468.3l1.6-1.9c1.2,1.1,2.4,1.7,3.7,1.7c1.7,0,2.9-1,2.9-2.5v0c0-1.5-1.2-2.4-3-2.4
						c-1,0-1.9,0.3-2.7,0.6l-1.5-1l0.4-7.1h8.7v2.3H268l-0.2,3.4c0.7-0.2,1.3-0.4,2.3-0.4c2.8,0,5.1,1.5,5.1,4.6v0
						c0,3-2.2,4.9-5.4,4.9C267.5,470.5,265.7,469.6,264.4,468.3z"/>
				</g>
				<g>
					<path class="st2" d="M276.6,463L276.6,463c0-4.2,2.5-7.6,6.4-7.6c3.8,0,6.3,3.3,6.3,7.5v0c0,4.2-2.5,7.5-6.4,7.5
						C279.1,470.5,276.6,467.2,276.6,463z M286.7,463L286.7,463c0-2.9-1.5-5.3-3.7-5.3s-3.7,2.3-3.7,5.2v0c0,2.9,1.5,5.2,3.7,5.2
						S286.7,465.8,286.7,463z"/>
				</g>
			</g>
		</g>
	</g>
	<g id="popcorn">
		<circle class="st19" cx="297.1" cy="161" r="19.5"/>
		<g>
			<path class="st2" d="M293.4,153c0-0.3,0.1-0.6,0-0.9s-0.2-0.6-0.5-0.7c-0.1,0-0.2,0-0.2,0c-0.1,0-0.1,0.1-0.2,0.2
				c-0.1,0.2-0.2,0.5-0.2,0.7s0.2,0.5,0.4,0.6c-0.3-0.4-1-0.3-1.2,0.1c-0.2,0.4,0.2,1,0.7,0.9c0.5,0,0.8-0.5,1-1
				c-0.1,0.3,0.1,0.8,0.4,0.9c0.2,0,0.3-0.1,0.4-0.1c0.3-0.2,0.5-0.6,0.4-1c-0.1-0.3-0.7-0.4-0.9-0.1L293.4,153z"/>
			<g>
				<path class="st19" d="M293.5,153c0.1-0.5,0.1-1-0.2-1.4c-0.1-0.2-0.5-0.5-0.7-0.3c-0.3,0.1-0.4,0.6-0.4,0.9
					c0,0.4,0.1,0.8,0.5,0.9c0.2,0.1,0.3-0.1,0.2-0.3c-0.6-0.6-1.7-0.1-1.4,0.7c0.1,0.4,0.5,0.6,0.8,0.6c0.5,0,0.9-0.6,1.1-1
					c-0.1,0-0.2-0.1-0.3-0.1c-0.1,0.4,0,1,0.5,1.1c0.5,0.1,0.9-0.4,1-0.8c0.1-0.4,0-0.8-0.4-0.9c-0.5-0.1-0.6,0.2-0.9,0.5
					C293.1,153,293.3,153.2,293.5,153c0,0,0.1-0.1,0.2-0.2c0.1,0,0.2-0.1,0.4-0.1c0.1,0.2,0.1,0.4,0.2,0.7c-0.1,0.3-0.3,0.3-0.5,0.2
					c-0.4,0.1-0.5-0.1-0.4-0.4c0-0.2-0.2-0.3-0.3-0.1c-0.2,0.4-0.4,0.9-0.9,0.8c-0.8-0.2-0.1-1.4,0.5-0.7c0.1-0.1,0.1-0.2,0.2-0.3
					c-0.5-0.2-0.3-1.4,0.2-1.1c0.4,0.2,0.2,1,0.2,1.2C293.2,153.1,293.5,153.2,293.5,153z"/>
			</g>
		</g>
		<g>
			<path class="st2" d="M296.3,151.2c0.1-0.5,0.1-1,0-1.4s-0.4-0.9-0.8-1.1c-0.1,0-0.3-0.1-0.4,0c-0.1,0.1-0.2,0.2-0.3,0.4
				c-0.1,0.4-0.3,0.8-0.3,1.2c0,0.4,0.3,0.8,0.7,1c-0.5-0.6-1.6-0.5-1.9,0.2c-0.3,0.7,0.3,1.6,1.1,1.6c0.8-0.1,1.2-0.9,1.6-1.6
				c-0.2,0.6,0.1,1.4,0.7,1.4c0.3,0,0.5-0.1,0.7-0.2c0.5-0.4,0.9-1,0.6-1.6c-0.2-0.6-1.2-0.7-1.4-0.1L296.3,151.2z"/>
			<g>
				<path class="st19" d="M296.6,151.3c0.1-0.8,0.2-1.6-0.3-2.3c-0.2-0.3-0.8-0.8-1.2-0.6c-0.5,0.2-0.7,1.1-0.7,1.5
					c-0.1,0.7,0.2,1.2,0.8,1.5c0.3,0.1,0.5-0.2,0.3-0.4c-0.9-1-2.8-0.2-2.3,1.2c0.2,0.6,0.8,1,1.4,1c0.9-0.1,1.4-1,1.8-1.7
					c-0.2-0.1-0.3-0.1-0.5-0.2c-0.2,0.7,0.1,1.6,0.9,1.7c0.7,0.1,1.5-0.6,1.7-1.3c0.2-0.6-0.1-1.3-0.7-1.5c-0.7-0.2-1.1,0.3-1.5,0.8
					c-0.2,0.3,0.2,0.6,0.4,0.4c0.1-0.1,0.2-0.3,0.3-0.4c0.2-0.1,0.4-0.1,0.6-0.2c0.1,0.4,0.2,0.7,0.3,1.1c-0.2,0.4-0.5,0.5-0.9,0.3
					c-0.6,0.1-0.8-0.1-0.6-0.7c0.1-0.3-0.3-0.5-0.5-0.2c-0.3,0.7-0.7,1.5-1.6,1.3c-1.4-0.4-0.1-2.2,0.8-1.2c0.1-0.1,0.2-0.3,0.3-0.4
					c-0.8-0.4-0.5-2.3,0.3-1.9c0.6,0.3,0.4,1.6,0.3,2C296,151.5,296.5,151.6,296.6,151.3z"/>
			</g>
		</g>
		<g>
			<path class="st2" d="M298.8,152.3c0-0.3,0.1-0.6,0-0.9s-0.2-0.6-0.5-0.7c-0.1,0-0.2,0-0.2,0c-0.1,0-0.1,0.1-0.2,0.2
				c-0.1,0.2-0.2,0.5-0.2,0.7c0,0.3,0.2,0.5,0.4,0.6c-0.3-0.4-1-0.3-1.2,0.1c-0.2,0.4,0.2,1,0.7,0.9c0.5,0,0.8-0.5,1-1
				c-0.1,0.3,0.1,0.8,0.4,0.9c0.2,0,0.3-0.1,0.4-0.1c0.3-0.2,0.5-0.6,0.4-1c-0.1-0.3-0.7-0.4-0.9-0.1L298.8,152.3z"/>
			<g>
				<path class="st19" d="M298.9,152.3c0.1-0.5,0.1-1-0.2-1.4c-0.1-0.2-0.5-0.5-0.7-0.3c-0.3,0.1-0.4,0.6-0.4,0.9
					c0,0.4,0.1,0.8,0.5,0.9c0.2,0.1,0.3-0.1,0.2-0.3c-0.6-0.6-1.7-0.1-1.4,0.7c0.1,0.4,0.5,0.6,0.8,0.6c0.5,0,0.9-0.6,1.1-1
					c-0.1,0-0.2-0.1-0.3-0.1c-0.1,0.4,0,1,0.5,1.1c0.5,0.1,0.9-0.4,1-0.8c0.1-0.4,0-0.8-0.4-0.9c-0.5-0.1-0.6,0.2-0.9,0.5
					C298.5,152.3,298.7,152.5,298.9,152.3c0,0,0.1-0.1,0.2-0.2c0.1,0,0.2-0.1,0.4-0.1c0.1,0.2,0.1,0.4,0.2,0.7
					c-0.1,0.3-0.3,0.3-0.5,0.2c-0.4,0.1-0.5-0.1-0.4-0.4c0-0.2-0.2-0.3-0.3-0.1c-0.2,0.4-0.4,0.9-0.9,0.8c-0.8-0.2-0.1-1.4,0.5-0.7
					c0.1-0.1,0.1-0.2,0.2-0.3c-0.5-0.2-0.3-1.4,0.2-1.1c0.4,0.2,0.2,1,0.2,1.2C298.6,152.4,298.9,152.5,298.9,152.3z"/>
			</g>
		</g>
		<g>
			<path class="st2" d="M301.6,152.3c0-0.3,0.1-0.6,0-0.9s-0.2-0.6-0.5-0.7c-0.1,0-0.2,0-0.2,0c-0.1,0-0.1,0.1-0.2,0.2
				c-0.1,0.2-0.2,0.5-0.2,0.7c0,0.3,0.2,0.5,0.4,0.6c-0.3-0.4-1-0.3-1.2,0.1c-0.2,0.4,0.2,1,0.7,0.9c0.5,0,0.8-0.5,1-1
				c-0.1,0.3,0.1,0.8,0.4,0.9c0.2,0,0.3-0.1,0.4-0.1c0.3-0.2,0.5-0.6,0.4-1c-0.1-0.3-0.7-0.4-0.9-0.1L301.6,152.3z"/>
			<g>
				<path class="st19" d="M301.7,152.3c0.1-0.5,0.1-1-0.2-1.4c-0.1-0.2-0.5-0.5-0.7-0.3c-0.3,0.1-0.4,0.6-0.4,0.9
					c0,0.4,0.1,0.8,0.5,0.9c0.2,0.1,0.3-0.1,0.2-0.3c-0.6-0.6-1.7-0.1-1.4,0.7c0.1,0.4,0.5,0.6,0.8,0.6c0.5,0,0.9-0.6,1.1-1
					c-0.1,0-0.2-0.1-0.3-0.1c-0.1,0.4,0,1,0.5,1.1c0.5,0.1,0.9-0.4,1-0.8c0.1-0.4,0-0.8-0.4-0.9c-0.5-0.1-0.6,0.2-0.9,0.5
					C301.3,152.3,301.6,152.5,301.7,152.3c0,0,0.1-0.1,0.2-0.2c0.1,0,0.2-0.1,0.4-0.1c0.1,0.2,0.1,0.4,0.2,0.7
					c-0.1,0.3-0.3,0.3-0.5,0.2c-0.4,0.1-0.5-0.1-0.4-0.4c0-0.2-0.2-0.3-0.3-0.1c-0.2,0.4-0.4,0.9-0.9,0.8c-0.8-0.2-0.1-1.4,0.5-0.7
					c0.1-0.1,0.1-0.2,0.2-0.3c-0.5-0.2-0.3-1.4,0.2-1.1c0.4,0.2,0.2,1,0.2,1.2C301.4,152.4,301.7,152.5,301.7,152.3z"/>
			</g>
		</g>
		<g>
			<path class="st2" d="M303.9,153.2c0-0.3,0.1-0.6,0-0.9s-0.2-0.6-0.5-0.7c-0.1,0-0.2,0-0.2,0c-0.1,0-0.1,0.1-0.2,0.2
				c-0.1,0.2-0.2,0.5-0.2,0.7c0,0.3,0.2,0.5,0.4,0.6c-0.3-0.4-1-0.3-1.2,0.1c-0.2,0.4,0.2,1,0.7,0.9c0.5,0,0.8-0.5,1-1
				c-0.1,0.3,0.1,0.8,0.4,0.9c0.2,0,0.3-0.1,0.4-0.1c0.3-0.2,0.5-0.6,0.4-1c-0.1-0.3-0.7-0.4-0.9-0.1L303.9,153.2z"/>
			<g>
				<path class="st19" d="M304.1,153.2c0.1-0.5,0.1-1-0.2-1.4c-0.1-0.2-0.5-0.5-0.7-0.3c-0.3,0.1-0.4,0.6-0.4,0.9
					c0,0.4,0.1,0.8,0.5,0.9c0.2,0.1,0.3-0.1,0.2-0.3c-0.6-0.6-1.7-0.1-1.4,0.7c0.1,0.4,0.5,0.6,0.8,0.6c0.5,0,0.9-0.6,1.1-1
					c-0.1,0-0.2-0.1-0.3-0.1c-0.1,0.4,0,1,0.5,1.1c0.5,0.1,0.9-0.4,1-0.8c0.1-0.4,0-0.8-0.4-0.9c-0.5-0.1-0.6,0.2-0.9,0.5
					C303.7,153.2,303.9,153.5,304.1,153.2c0,0,0.1-0.1,0.2-0.2c0.1,0,0.2-0.1,0.4-0.1c0.1,0.2,0.1,0.4,0.2,0.7
					c-0.1,0.3-0.3,0.3-0.5,0.2c-0.4,0.1-0.5-0.1-0.4-0.4c0-0.2-0.2-0.3-0.3-0.1c-0.2,0.4-0.4,0.9-0.9,0.8c-0.8-0.2-0.1-1.4,0.5-0.7
					c0.1-0.1,0.1-0.2,0.2-0.3c-0.5-0.2-0.3-1.4,0.2-1.1c0.4,0.2,0.2,1,0.2,1.2C303.7,153.4,304,153.4,304.1,153.2z"/>
			</g>
		</g>
		<g>
			<path class="st2" d="M293,154.9c0-0.3,0.1-0.6,0-0.9s-0.2-0.6-0.5-0.7c-0.1,0-0.2,0-0.2,0c-0.1,0-0.1,0.1-0.2,0.2
				c-0.1,0.2-0.2,0.5-0.2,0.7c0,0.3,0.2,0.5,0.4,0.6c-0.3-0.4-1-0.3-1.2,0.1c-0.2,0.4,0.2,1,0.7,0.9c0.5,0,0.8-0.5,1-1
				c-0.1,0.3,0.1,0.8,0.4,0.9c0.2,0,0.3-0.1,0.4-0.1c0.3-0.2,0.5-0.6,0.4-1s-0.7-0.4-0.9-0.1L293,154.9z"/>
			<g>
				<path class="st19" d="M293.2,154.9c0.1-0.5,0.1-1-0.2-1.4c-0.1-0.2-0.5-0.5-0.7-0.3c-0.3,0.1-0.4,0.6-0.4,0.9
					c0,0.4,0.1,0.8,0.5,0.9c0.2,0.1,0.3-0.1,0.2-0.3c-0.6-0.6-1.7-0.1-1.4,0.7c0.1,0.4,0.5,0.6,0.8,0.6c0.5,0,0.9-0.6,1.1-1
					c-0.1,0-0.2-0.1-0.3-0.1c-0.1,0.4,0,1,0.5,1.1c0.5,0.1,0.9-0.4,1-0.8c0.1-0.4,0-0.8-0.4-0.9c-0.5-0.1-0.6,0.2-0.9,0.5
					C292.8,154.9,293,155.2,293.2,154.9c0,0,0.1-0.1,0.2-0.2c0.1,0,0.2-0.1,0.4-0.1c0.1,0.2,0.1,0.4,0.2,0.7
					c-0.1,0.3-0.3,0.3-0.5,0.2c-0.4,0.1-0.5-0.1-0.4-0.4c0-0.2-0.2-0.3-0.3-0.1c-0.2,0.4-0.4,0.9-0.9,0.8c-0.8-0.2-0.1-1.4,0.5-0.7
					c0.1-0.1,0.1-0.2,0.2-0.3c-0.5-0.2-0.3-1.4,0.2-1.1c0.4,0.2,0.2,1,0.2,1.2C292.8,155.1,293.1,155.1,293.2,154.9z"/>
			</g>
		</g>
		<g>
			<path class="st2" d="M292.2,153.5c0-0.3,0.1-0.6,0-0.9c-0.1-0.3-0.2-0.6-0.5-0.7c-0.1,0-0.2,0-0.2,0c-0.1,0-0.1,0.1-0.2,0.2
				c-0.1,0.2-0.2,0.5-0.2,0.7c0,0.3,0.2,0.5,0.4,0.6c-0.3-0.4-1-0.3-1.2,0.1s0.2,1,0.7,0.9c0.5,0,0.8-0.5,1-1
				c-0.1,0.3,0.1,0.8,0.4,0.9c0.2,0,0.3-0.1,0.4-0.1c0.3-0.2,0.5-0.6,0.4-1c-0.1-0.3-0.7-0.4-0.9-0.1L292.2,153.5z"/>
			<g>
				<path class="st19" d="M292.4,153.6c0.1-0.5,0.1-1-0.2-1.4c-0.1-0.2-0.5-0.5-0.7-0.3c-0.3,0.1-0.4,0.6-0.4,0.9
					c0,0.4,0.1,0.8,0.5,0.9c0.2,0.1,0.3-0.1,0.2-0.3c-0.6-0.6-1.7-0.1-1.4,0.7c0.1,0.4,0.5,0.6,0.8,0.6c0.5,0,0.9-0.6,1.1-1
					c-0.1,0-0.2-0.1-0.3-0.1c-0.1,0.4,0,1,0.5,1.1c0.5,0.1,0.9-0.4,1-0.8c0.1-0.4,0-0.8-0.4-0.9c-0.5-0.1-0.6,0.2-0.9,0.5
					C292,153.6,292.2,153.8,292.4,153.6c0,0,0.1-0.1,0.2-0.2c0.1,0,0.2-0.1,0.4-0.1c0.1,0.2,0.1,0.4,0.2,0.7
					c-0.1,0.3-0.3,0.3-0.5,0.2c-0.4,0.1-0.5-0.1-0.4-0.4c0-0.2-0.2-0.3-0.3-0.1c-0.2,0.4-0.4,0.9-0.9,0.8c-0.8-0.2-0.1-1.4,0.5-0.7
					c0.1-0.1,0.1-0.2,0.2-0.3c-0.5-0.2-0.3-1.4,0.2-1.1c0.4,0.2,0.2,1,0.2,1.2C292.1,153.7,292.4,153.8,292.4,153.6z"/>
			</g>
		</g>
		<g>
			<path class="st2" d="M295,151.7c0.1-0.4,0.1-0.7,0-1.1c-0.1-0.3-0.3-0.7-0.6-0.8c-0.1,0-0.2,0-0.3,0c-0.1,0.1-0.2,0.2-0.2,0.3
				c-0.1,0.3-0.2,0.6-0.2,0.9c0,0.3,0.2,0.6,0.5,0.7c-0.3-0.5-1.2-0.4-1.4,0.1c-0.2,0.5,0.2,1.2,0.8,1.1c0.6,0,0.9-0.6,1.2-1.2
				c-0.2,0.4,0.1,1,0.5,1c0.2,0,0.4-0.1,0.5-0.2c0.4-0.3,0.6-0.8,0.5-1.2c-0.2-0.4-0.9-0.5-1.1-0.1L295,151.7z"/>
			<g>
				<path class="st19" d="M295.2,151.7c0.1-0.6,0.2-1.2-0.2-1.7c-0.2-0.3-0.6-0.6-0.9-0.4c-0.4,0.1-0.5,0.8-0.5,1.1
					c-0.1,0.5,0.1,0.9,0.6,1.1c0.2,0.1,0.4-0.1,0.2-0.3c-0.7-0.7-2.1-0.2-1.7,0.9c0.1,0.4,0.6,0.8,1,0.7c0.7,0,1-0.7,1.3-1.2
					c-0.1,0-0.2-0.1-0.4-0.1c-0.1,0.5,0,1.2,0.6,1.3c0.5,0.1,1.1-0.4,1.2-0.9c0.1-0.5,0-1-0.5-1.1c-0.5-0.2-0.8,0.2-1.1,0.6
					C294.7,151.7,295,152,295.2,151.7c0,0,0.1-0.2,0.2-0.2c0.1,0,0.3-0.1,0.4-0.1c0.1,0.3,0.1,0.5,0.2,0.8c-0.1,0.3-0.3,0.4-0.7,0.2
					c-0.4,0.1-0.6-0.1-0.4-0.5c0-0.2-0.3-0.4-0.4-0.1c-0.2,0.5-0.5,1.1-1.1,1c-1-0.3-0.1-1.6,0.6-0.9c0.1-0.1,0.2-0.2,0.2-0.3
					c-0.6-0.3-0.4-1.7,0.3-1.4c0.4,0.2,0.3,1.2,0.2,1.5C294.8,151.9,295.2,152,295.2,151.7z"/>
			</g>
		</g>
		<g>
			<path class="st2" d="M298.6,150.5c0.1-0.4,0.1-0.7,0-1.1c-0.1-0.3-0.3-0.7-0.6-0.8c-0.1,0-0.2-0.1-0.3,0
				c-0.1,0.1-0.2,0.2-0.2,0.3c-0.1,0.3-0.2,0.6-0.2,0.9c0,0.3,0.2,0.6,0.5,0.7c-0.3-0.5-1.2-0.4-1.4,0.1c-0.2,0.5,0.2,1.2,0.8,1.1
				c0.6,0,0.9-0.6,1.2-1.2c-0.2,0.4,0.1,1,0.5,1c0.2,0,0.4-0.1,0.5-0.2c0.4-0.3,0.6-0.8,0.5-1.2s-0.9-0.5-1.1-0.1L298.6,150.5z"/>
			<g>
				<path class="st19" d="M298.8,150.6c0.1-0.6,0.2-1.2-0.2-1.7c-0.2-0.3-0.6-0.6-0.9-0.4c-0.4,0.1-0.5,0.8-0.5,1.1
					c-0.1,0.5,0.1,0.9,0.6,1.1c0.2,0.1,0.4-0.1,0.2-0.3c-0.7-0.7-2.1-0.2-1.7,0.9c0.1,0.4,0.6,0.8,1,0.7c0.7,0,1-0.7,1.3-1.2
					c-0.1,0-0.2-0.1-0.4-0.1c-0.1,0.5,0,1.2,0.6,1.3c0.5,0.1,1.1-0.4,1.2-0.9c0.1-0.5,0-1-0.5-1.1c-0.5-0.2-0.8,0.2-1.1,0.6
					C298.3,150.6,298.6,150.9,298.8,150.6c0,0,0.1-0.2,0.2-0.2c0.1,0,0.3-0.1,0.4-0.1c0.1,0.3,0.1,0.5,0.2,0.8
					c-0.1,0.3-0.3,0.4-0.7,0.2c-0.4,0.1-0.6-0.1-0.4-0.5c0-0.2-0.3-0.4-0.4-0.1c-0.2,0.5-0.5,1.1-1.1,1c-1-0.3-0.1-1.6,0.6-0.9
					c0.1-0.1,0.2-0.2,0.2-0.3c-0.6-0.3-0.4-1.7,0.3-1.4c0.4,0.2,0.3,1.2,0.2,1.5C298.4,150.7,298.7,150.8,298.8,150.6z"/>
			</g>
		</g>
		<g>
			<path class="st2" d="M305.1,151.9c0-0.3,0.1-0.6,0-0.9c-0.1-0.3-0.2-0.6-0.5-0.7c-0.1,0-0.2,0-0.2,0c-0.1,0-0.1,0.1-0.2,0.2
				c-0.1,0.2-0.2,0.5-0.2,0.7c0,0.3,0.2,0.5,0.4,0.6c-0.3-0.4-1-0.3-1.2,0.1s0.2,1,0.7,0.9c0.5,0,0.8-0.5,1-1
				c-0.1,0.3,0.1,0.8,0.4,0.9c0.2,0,0.3-0.1,0.4-0.1c0.3-0.2,0.5-0.6,0.4-1c-0.1-0.3-0.7-0.4-0.9-0.1L305.1,151.9z"/>
			<g>
				<path class="st19" d="M305.3,151.9c0.1-0.5,0.1-1-0.2-1.4c-0.1-0.2-0.5-0.5-0.7-0.3c-0.3,0.1-0.4,0.6-0.4,0.9
					c0,0.4,0.1,0.8,0.5,0.9c0.2,0.1,0.3-0.1,0.2-0.3c-0.6-0.6-1.7-0.1-1.4,0.7c0.1,0.4,0.5,0.6,0.8,0.6c0.5,0,0.9-0.6,1.1-1
					c-0.1,0-0.2-0.1-0.3-0.1c-0.1,0.4,0,1,0.5,1.1c0.5,0.1,0.9-0.4,1-0.8c0.1-0.4,0-0.8-0.4-0.9c-0.5-0.1-0.6,0.2-0.9,0.5
					C304.9,152,305.1,152.2,305.3,151.9c0,0,0.1-0.1,0.2-0.2c0.1,0,0.2-0.1,0.4-0.1c0.1,0.2,0.1,0.4,0.2,0.7
					c-0.1,0.3-0.3,0.3-0.5,0.2c-0.4,0.1-0.5-0.1-0.4-0.4c0-0.2-0.2-0.3-0.3-0.1c-0.2,0.4-0.4,0.9-0.9,0.8c-0.8-0.2-0.1-1.4,0.5-0.7
					c0.1-0.1,0.1-0.2,0.2-0.3c-0.5-0.2-0.3-1.4,0.2-1.1c0.4,0.2,0.2,1,0.2,1.2C304.9,152.1,305.2,152.2,305.3,151.9z"/>
			</g>
		</g>
		<g>
			<path class="st2" d="M299.7,151c0-0.3,0.1-0.6,0-0.9s-0.2-0.6-0.5-0.7c-0.1,0-0.2,0-0.2,0c-0.1,0-0.1,0.1-0.2,0.2
				c-0.1,0.2-0.2,0.5-0.2,0.7s0.2,0.5,0.4,0.6c-0.3-0.4-1-0.3-1.2,0.1c-0.2,0.4,0.2,1,0.7,0.9c0.5,0,0.8-0.5,1-1
				c-0.1,0.3,0.1,0.8,0.4,0.9c0.2,0,0.3-0.1,0.4-0.1c0.3-0.2,0.5-0.6,0.4-1c-0.1-0.3-0.7-0.4-0.9-0.1L299.7,151z"/>
			<g>
				<path class="st19" d="M299.9,151c0.1-0.5,0.1-1-0.2-1.4c-0.1-0.2-0.5-0.5-0.7-0.3c-0.3,0.1-0.4,0.6-0.4,0.9
					c0,0.4,0.1,0.8,0.5,0.9c0.2,0.1,0.3-0.1,0.2-0.3c-0.6-0.6-1.7-0.1-1.4,0.7c0.1,0.4,0.5,0.6,0.8,0.6c0.5,0,0.9-0.6,1.1-1
					c-0.1,0-0.2-0.1-0.3-0.1c-0.1,0.4,0,1,0.5,1.1c0.5,0.1,0.9-0.4,1-0.8c0.1-0.4,0-0.8-0.4-0.9c-0.5-0.1-0.6,0.2-0.9,0.5
					C299.5,151,299.7,151.2,299.9,151c0,0,0.1-0.1,0.2-0.2c0.1,0,0.2-0.1,0.4-0.1c0.1,0.2,0.1,0.4,0.2,0.7c-0.1,0.3-0.3,0.3-0.5,0.2
					c-0.4,0.1-0.5-0.1-0.4-0.4c0-0.2-0.2-0.3-0.3-0.1c-0.2,0.4-0.4,0.9-0.9,0.8c-0.8-0.2-0.1-1.4,0.5-0.7c0.1-0.1,0.1-0.2,0.2-0.3
					c-0.5-0.2-0.3-1.4,0.2-1.1c0.4,0.2,0.2,1,0.2,1.2C299.5,151.1,299.8,151.2,299.9,151z"/>
			</g>
		</g>
		<g>
			<path class="st2" d="M302.5,151.3c0-0.3,0.1-0.6,0-0.9s-0.2-0.6-0.5-0.7c-0.1,0-0.2,0-0.2,0c-0.1,0-0.1,0.1-0.2,0.2
				c-0.1,0.2-0.2,0.5-0.2,0.7s0.2,0.5,0.4,0.6c-0.3-0.4-1-0.3-1.2,0.1c-0.2,0.4,0.2,1,0.7,0.9c0.5,0,0.8-0.5,1-1
				c-0.1,0.3,0.1,0.8,0.4,0.9c0.2,0,0.3-0.1,0.4-0.1c0.3-0.2,0.5-0.6,0.4-1c-0.1-0.3-0.7-0.4-0.9-0.1L302.5,151.3z"/>
			<g>
				<path class="st19" d="M302.6,151.3c0.1-0.5,0.1-1-0.2-1.4c-0.1-0.2-0.5-0.5-0.7-0.3c-0.3,0.1-0.4,0.6-0.4,0.9
					c0,0.4,0.1,0.8,0.5,0.9c0.2,0.1,0.3-0.1,0.2-0.3c-0.6-0.6-1.7-0.1-1.4,0.7c0.1,0.4,0.5,0.6,0.8,0.6c0.5,0,0.9-0.6,1.1-1
					c-0.1,0-0.2-0.1-0.3-0.1c-0.1,0.4,0,1,0.5,1.1c0.5,0.1,0.9-0.4,1-0.8c0.1-0.4,0-0.8-0.4-0.9c-0.5-0.1-0.6,0.2-0.9,0.5
					C302.2,151.3,302.4,151.5,302.6,151.3c0,0,0.1-0.1,0.2-0.2c0.1,0,0.2-0.1,0.4-0.1c0.1,0.2,0.1,0.4,0.2,0.7
					c-0.1,0.3-0.3,0.3-0.5,0.2c-0.4,0.1-0.5-0.1-0.4-0.4c0-0.2-0.2-0.3-0.3-0.1c-0.2,0.4-0.4,0.9-0.9,0.8c-0.8-0.2-0.1-1.4,0.5-0.7
					c0.1-0.1,0.1-0.2,0.2-0.3c-0.5-0.2-0.3-1.4,0.2-1.1c0.4,0.2,0.2,1,0.2,1.2C302.3,151.4,302.6,151.5,302.6,151.3z"/>
			</g>
		</g>
		<g>
			<path class="st2" d="M291.9,152.5c0.1-0.4,0.1-0.7,0-1.1s-0.3-0.7-0.6-0.8c-0.1,0-0.2-0.1-0.3,0c-0.1,0.1-0.2,0.2-0.2,0.3
				c-0.1,0.3-0.2,0.6-0.2,0.9c0,0.3,0.2,0.6,0.5,0.7c-0.3-0.5-1.2-0.4-1.4,0.1c-0.2,0.5,0.2,1.2,0.8,1.1c0.6,0,0.9-0.6,1.2-1.2
				c-0.2,0.4,0.1,1,0.5,1c0.2,0,0.4-0.1,0.5-0.2c0.4-0.3,0.6-0.8,0.5-1.2s-0.9-0.5-1.1-0.1L291.9,152.5z"/>
			<g>
				<path class="st19" d="M292.1,152.5c0.1-0.6,0.2-1.2-0.2-1.7c-0.2-0.3-0.6-0.6-0.9-0.4c-0.4,0.1-0.5,0.8-0.5,1.1
					c-0.1,0.5,0.1,0.9,0.6,1.1c0.2,0.1,0.4-0.1,0.2-0.3c-0.7-0.7-2.1-0.2-1.7,0.9c0.1,0.4,0.6,0.8,1,0.7c0.7,0,1-0.7,1.3-1.2
					c-0.1,0-0.2-0.1-0.4-0.1c-0.1,0.5,0,1.2,0.6,1.3c0.5,0.1,1.1-0.4,1.2-0.9c0.1-0.5,0-1-0.5-1.1c-0.5-0.2-0.8,0.2-1.1,0.6
					C291.7,152.5,291.9,152.8,292.1,152.5c0,0,0.1-0.2,0.2-0.2c0.1,0,0.3-0.1,0.4-0.1c0.1,0.3,0.1,0.5,0.2,0.8
					c-0.1,0.3-0.3,0.4-0.7,0.2c-0.4,0.1-0.6-0.1-0.4-0.5c0-0.2-0.3-0.4-0.4-0.1c-0.2,0.5-0.5,1.1-1.1,1c-1-0.3-0.1-1.6,0.6-0.9
					c0.1-0.1,0.2-0.2,0.2-0.3c-0.6-0.3-0.4-1.7,0.3-1.4c0.4,0.2,0.3,1.2,0.2,1.5C291.7,152.6,292.1,152.7,292.1,152.5z"/>
			</g>
		</g>
		<polygon class="st20" points="303.8,174 291.9,174 289,152.5 291.9,154.6 294.8,152.6 306.2,152.5 		"/>
		<g>
			<path class="st2" d="M295.2,149.7c-0.2-0.3-0.4-0.6-0.6-0.9s-0.7-0.4-1-0.3c-0.1,0-0.2,0.1-0.2,0.2c-0.1,0.1,0,0.2,0,0.3
				c0.1,0.3,0.2,0.6,0.4,0.8c0.2,0.2,0.5,0.4,0.8,0.2c-0.5-0.1-1.1,0.4-1,1c0.1,0.5,0.9,0.8,1.3,0.4c0.4-0.4,0.3-1.1,0.2-1.6
				c0.1,0.4,0.7,0.7,1.1,0.5c0.2-0.1,0.3-0.3,0.3-0.5c0.1-0.4,0-1-0.4-1.2c-0.4-0.2-1,0.1-0.9,0.6L295.2,149.7z"/>
			<g>
				<path class="st19" d="M295.3,149.6c-0.3-0.5-0.6-1-1.1-1.2c-0.3-0.1-0.9-0.1-1,0.2c-0.2,0.3,0.1,0.9,0.3,1.2
					c0.3,0.4,0.7,0.6,1.1,0.5c0.2,0,0.2-0.3,0-0.4c-1.1-0.2-1.8,1.3-0.7,1.8c0.4,0.2,1,0.1,1.2-0.3c0.4-0.5,0.2-1.1,0.1-1.7
					c-0.1,0-0.2,0.1-0.4,0.1c0.2,0.5,0.8,0.9,1.3,0.6c0.5-0.3,0.6-1,0.4-1.5c-0.2-0.5-0.7-0.7-1.2-0.5c-0.5,0.2-0.5,0.7-0.5,1.1
					C295,149.9,295.4,149.9,295.3,149.6c0-0.2,0-0.8,0.5-0.7c0.4,0,0.5,0.5,0.5,0.8c0,0.4-0.2,0.6-0.7,0.6c-0.1-0.1-0.3-0.2-0.3-0.4
					c-0.1-0.2-0.4-0.1-0.4,0.1c0.1,0.4,0.3,1.2-0.2,1.5c-0.9,0.6-1.4-1.3-0.2-1.1c0-0.1,0-0.2,0-0.4c-0.2-0.1-0.5-0.2-0.7-0.3
					c-0.1-0.1-0.1-0.2-0.1-0.3c-0.1-0.3-0.3-0.7,0.4-0.6c0.5,0,0.8,0.7,1,1C295.1,150,295.5,149.8,295.3,149.6z"/>
			</g>
		</g>
		<g>
			<path class="st2" d="M299,149c0.1-0.4,0.1-0.7,0-1.1c-0.1-0.3-0.3-0.7-0.6-0.8c-0.1,0-0.2-0.1-0.3,0c-0.1,0.1-0.2,0.2-0.2,0.3
				c-0.1,0.3-0.2,0.6-0.2,0.9c0,0.3,0.2,0.6,0.5,0.7c-0.3-0.5-1.2-0.4-1.4,0.1c-0.2,0.5,0.2,1.2,0.8,1.1c0.6,0,0.9-0.6,1.2-1.2
				c-0.2,0.4,0.1,1,0.5,1c0.2,0,0.4-0.1,0.5-0.2c0.4-0.3,0.6-0.8,0.5-1.2c-0.2-0.4-0.9-0.5-1.1-0.1L299,149z"/>
			<g>
				<path class="st19" d="M299.2,149c0.1-0.6,0.2-1.2-0.2-1.7c-0.2-0.3-0.6-0.6-0.9-0.4c-0.4,0.1-0.5,0.8-0.5,1.1
					c-0.1,0.5,0.1,0.9,0.6,1.1c0.2,0.1,0.4-0.1,0.2-0.3c-0.7-0.7-2.1-0.2-1.7,0.9c0.1,0.4,0.6,0.8,1,0.7c0.7,0,1-0.7,1.3-1.2
					c-0.1,0-0.2-0.1-0.4-0.1c-0.1,0.5,0,1.2,0.6,1.3c0.5,0.1,1.1-0.4,1.2-0.9c0.1-0.5,0-1-0.5-1.1c-0.5-0.2-0.8,0.2-1.1,0.6
					C298.7,149,299,149.3,299.2,149c0,0,0.1-0.2,0.2-0.2c0.1,0,0.3-0.1,0.4-0.1c0.1,0.3,0.1,0.5,0.2,0.8c-0.1,0.3-0.3,0.4-0.7,0.2
					c-0.4,0.1-0.6-0.1-0.4-0.5c0-0.2-0.3-0.4-0.4-0.1c-0.2,0.5-0.5,1.1-1.1,1c-1-0.3-0.1-1.6,0.6-0.9c0.1-0.1,0.2-0.2,0.2-0.3
					c-0.6-0.3-0.4-1.7,0.3-1.4c0.4,0.2,0.3,1.2,0.2,1.5C298.8,149.2,299.2,149.3,299.2,149z"/>
			</g>
		</g>
		<g>
			<path class="st2" d="M301.4,150.5c0.3-0.3,0.6-0.6,0.8-1c0.2-0.4,0.2-0.9,0-1.3c-0.1-0.1-0.2-0.2-0.3-0.2c-0.1,0-0.3,0.1-0.4,0.1
				c-0.3,0.2-0.6,0.4-0.9,0.7c-0.2,0.3-0.3,0.8,0,1.1c0-0.7-0.9-1.2-1.5-0.9c-0.6,0.3-0.6,1.4,0,1.7c0.6,0.4,1.4,0,2-0.3
				c-0.5,0.3-0.7,1.1-0.2,1.4c0.2,0.2,0.4,0.2,0.7,0.2c0.6,0,1.2-0.3,1.3-0.8s-0.5-1.2-1-0.9L301.4,150.5z"/>
			<g>
				<path class="st19" d="M301.6,150.7c0.5-0.5,1-1,1-1.7c0-0.4-0.1-1.1-0.6-1.2c-0.5-0.1-1.1,0.4-1.4,0.8c-0.4,0.5-0.5,1-0.2,1.5
					c0.1,0.2,0.5,0.1,0.4-0.1c-0.1-1.2-1.8-1.8-2.3-0.5c-0.2,0.5-0.1,1.2,0.4,1.6c0.7,0.5,1.6,0.1,2.3-0.3c-0.1-0.1-0.2-0.2-0.3-0.4
					c-0.5,0.4-0.8,1.2-0.2,1.8c0.5,0.5,1.5,0.3,2-0.1c0.5-0.4,0.6-1.1,0.2-1.6c-0.4-0.5-0.9-0.3-1.5-0.1c-0.3,0.1-0.2,0.5,0.1,0.5
					c0.2-0.1,1-0.4,1.1,0.1c-0.1,0.3-0.2,0.6-0.3,0.8c-0.2,0.1-0.5,0.2-0.7,0.2c-0.2-0.2-0.4-0.3-0.7-0.5c0-0.3,0.2-0.6,0.4-0.7
					c0.2-0.2-0.1-0.5-0.3-0.4c-0.3,0.1-0.5,0.3-0.8,0.4c-0.4,0.1-1.1,0-1.2-0.5c-0.2-1,1.3-1.3,1.5-0.2c0.1,0,0.3-0.1,0.4-0.1
					c0-0.3,0-0.5,0-0.8c0.1-0.2,0.3-0.3,0.4-0.4c0.3-0.2,0.7-0.6,0.8,0.2c0.1,0.6-0.5,1.2-0.9,1.5
					C301,150.6,301.3,150.9,301.6,150.7z"/>
			</g>
		</g>
		<g>
			<path class="st2" d="M298,147.8c0.1-0.4,0.1-0.7,0-1.1c-0.1-0.3-0.3-0.7-0.6-0.8c-0.1,0-0.2-0.1-0.3,0c-0.1,0.1-0.2,0.2-0.2,0.3
				c-0.1,0.3-0.2,0.6-0.2,0.9c0,0.3,0.2,0.6,0.5,0.7c-0.3-0.5-1.2-0.4-1.4,0.1s0.2,1.2,0.8,1.1c0.6,0,0.9-0.6,1.2-1.2
				c-0.2,0.4,0.1,1,0.5,1c0.2,0,0.4-0.1,0.5-0.2c0.4-0.3,0.6-0.8,0.5-1.2c-0.2-0.4-0.9-0.5-1.1-0.1L298,147.8z"/>
			<g>
				<path class="st19" d="M298.2,147.8c0.1-0.6,0.2-1.2-0.2-1.7c-0.2-0.3-0.6-0.6-0.9-0.4c-0.4,0.1-0.5,0.8-0.5,1.1
					c-0.1,0.5,0.1,0.9,0.6,1.1c0.2,0.1,0.4-0.1,0.2-0.3c-0.7-0.7-2.1-0.2-1.7,0.9c0.1,0.4,0.6,0.8,1,0.7c0.7,0,1-0.7,1.3-1.2
					c-0.1,0-0.2-0.1-0.4-0.1c-0.1,0.5,0,1.2,0.6,1.3c0.5,0.1,1.1-0.4,1.2-0.9c0.1-0.5,0-1-0.5-1.1c-0.5-0.2-0.8,0.2-1.1,0.6
					C297.7,147.8,298,148.1,298.2,147.8c0,0,0.1-0.2,0.2-0.2c0.1,0,0.3-0.1,0.4-0.1c0.1,0.3,0.1,0.5,0.2,0.8
					c-0.1,0.3-0.3,0.4-0.7,0.2c-0.4,0.1-0.6-0.1-0.4-0.5c0-0.2-0.3-0.4-0.4-0.1c-0.2,0.5-0.5,1.1-1.1,1c-1-0.3-0.1-1.6,0.6-0.9
					c0.1-0.1,0.2-0.2,0.2-0.3c-0.6-0.3-0.4-1.7,0.3-1.4c0.4,0.2,0.3,1.2,0.2,1.5C297.8,148,298.1,148.1,298.2,147.8z"/>
			</g>
		</g>
		<line class="st21" x1="291.9" y1="154.6" x2="294.1" y2="173.9"/>
		<line class="st21" x1="293.7" y1="153" x2="295.7" y2="173.9"/>
		<line class="st21" x1="295.9" y1="152.7" x2="296.9" y2="173.9"/>
		<line class="st21" x1="297.5" y1="152.6" x2="298" y2="173.9"/>
		<circle class="st19" cx="297.8" cy="162.8" r="5.7"/>
		<line class="st21" x1="299.8" y1="152.4" x2="299.7" y2="173.9"/>
		<line class="st21" x1="301.3" y1="152.3" x2="300.8" y2="173.9"/>
		<line class="st21" x1="302.9" y1="152.6" x2="302.1" y2="173.9"/>
		<path class="st2" d="M293.2,161.3h1.5c0.9,0,1.4,0.4,1.4,1.2v0c0,0.8-0.6,1.2-1.5,1.2h-0.4v0.9h-1.1V161.3z M294.5,162.9
			c0.3,0,0.5-0.1,0.5-0.4v0c0-0.2-0.2-0.4-0.5-0.4h-0.3v0.7H294.5z"/>
		<path class="st2" d="M296.2,163L296.2,163c0-0.9,0.8-1.7,1.8-1.7s1.8,0.7,1.8,1.7v0c0,0.9-0.8,1.7-1.8,1.7S296.2,163.9,296.2,163z
			 M298.7,163L298.7,163c0-0.4-0.3-0.7-0.7-0.7c-0.4,0-0.7,0.3-0.7,0.7v0c0,0.4,0.3,0.7,0.7,0.7C298.4,163.7,298.7,163.4,298.7,163z
			"/>
		<path class="st2" d="M300.1,161.3h1.5c0.9,0,1.4,0.4,1.4,1.2v0c0,0.8-0.6,1.2-1.5,1.2h-0.4v0.9h-1.1V161.3z M301.4,162.9
			c0.3,0,0.5-0.1,0.5-0.4v0c0-0.2-0.2-0.4-0.5-0.4h-0.3v0.7H301.4z"/>
		<line class="st21" x1="304.9" y1="152" x2="303" y2="173.9"/>
		<line class="st21" x1="290.6" y1="153.7" x2="292.8" y2="173.9"/>
		<g>
			<path class="st2" d="M290.9,146.3c0.1-0.4,0.1-0.7,0-1.1c-0.1-0.3-0.3-0.7-0.6-0.8c-0.1,0-0.2-0.1-0.3,0
				c-0.1,0.1-0.2,0.2-0.2,0.3c-0.1,0.3-0.2,0.6-0.2,0.9c0,0.3,0.2,0.6,0.5,0.7c-0.3-0.5-1.2-0.4-1.4,0.1s0.2,1.2,0.8,1.1
				c0.6,0,0.9-0.6,1.2-1.2c-0.2,0.4,0.1,1,0.5,1c0.2,0,0.4-0.1,0.5-0.2c0.4-0.3,0.6-0.8,0.5-1.2s-0.9-0.5-1.1-0.1L290.9,146.3z"/>
			<g>
				<path class="st19" d="M291.1,146.3c0.1-0.6,0.2-1.2-0.2-1.7c-0.2-0.3-0.6-0.6-0.9-0.4c-0.4,0.1-0.5,0.8-0.5,1.1
					c-0.1,0.5,0.1,0.9,0.6,1.1c0.2,0.1,0.4-0.1,0.2-0.3c-0.7-0.7-2.1-0.2-1.7,0.9c0.1,0.4,0.6,0.8,1,0.7c0.7,0,1-0.7,1.3-1.2
					c-0.1,0-0.2-0.1-0.4-0.1c-0.1,0.5,0,1.2,0.6,1.3c0.5,0.1,1.1-0.4,1.2-0.9c0.1-0.5,0-1-0.5-1.1c-0.5-0.2-0.8,0.2-1.1,0.6
					C290.6,146.3,290.9,146.6,291.1,146.3c0,0,0.1-0.2,0.2-0.2c0.1,0,0.3-0.1,0.4-0.1c0.1,0.3,0.1,0.5,0.2,0.8
					c-0.1,0.3-0.3,0.4-0.7,0.2c-0.4,0.1-0.6-0.1-0.4-0.5c0-0.2-0.3-0.4-0.4-0.1c-0.2,0.5-0.5,1.1-1.1,1c-1-0.3-0.1-1.6,0.6-0.9
					c0.1-0.1,0.2-0.2,0.2-0.3c-0.6-0.3-0.4-1.7,0.3-1.4c0.4,0.2,0.3,1.2,0.2,1.5C290.7,146.4,291.1,146.6,291.1,146.3z"/>
			</g>
		</g>
		<g>
			<path class="st2" d="M294.9,144.4c0.3-0.2,0.6-0.3,0.9-0.6c0.2-0.3,0.4-0.6,0.3-1c0-0.1-0.1-0.2-0.2-0.2c-0.1-0.1-0.2,0-0.3,0
				c-0.3,0.1-0.6,0.2-0.8,0.3s-0.4,0.5-0.3,0.8c0.2-0.5-0.4-1.2-0.9-1.1c-0.6,0.1-0.8,0.9-0.5,1.3c0.4,0.4,1,0.4,1.6,0.3
				c-0.4,0.1-0.8,0.6-0.6,1c0.1,0.2,0.3,0.3,0.5,0.3c0.4,0.2,1,0.1,1.2-0.3c0.2-0.4-0.1-1-0.5-0.9L294.9,144.4z"/>
			<g>
				<path class="st19" d="M295,144.6c0.5-0.3,1-0.5,1.2-1.1c0.1-0.3,0.1-0.8-0.2-1c-0.4-0.2-1.1,0.1-1.4,0.3c-0.3,0.3-0.5,0.6-0.4,1
					c0,0.2,0.3,0.2,0.4,0c0.2-1-1.1-1.9-1.8-0.9c-0.3,0.4-0.2,0.9,0.1,1.3c0.5,0.5,1.2,0.4,1.7,0.3c0-0.1-0.1-0.2-0.1-0.4
					c-0.5,0.2-1,0.7-0.7,1.3c0.2,0.5,1,0.7,1.4,0.5c0.5-0.1,0.8-0.6,0.6-1.1c-0.2-0.5-0.6-0.5-1.1-0.5
					C294.7,144.2,294.7,144.6,295,144.6c0.2,0,1.1,0.1,0.6,0.8c-0.6,0.7-2-0.4-0.8-0.9c0.2-0.1,0.1-0.4-0.1-0.4
					c-0.5,0.1-1.4,0.2-1.5-0.5c-0.1-0.9,1.4-0.9,1.2,0.1c0.1,0,0.2,0,0.4,0c-0.1-0.5,0.3-0.7,0.7-0.8c0.3-0.1,0.6-0.2,0.6,0.3
					c-0.1,0.6-0.6,0.8-1.1,1.1C294.6,144.4,294.8,144.7,295,144.6z"/>
			</g>
		</g>
		<g>
			<path class="st2" d="M286.1,157.6c0.1-0.4,0.1-0.7,0-1.1s-0.3-0.7-0.6-0.8c-0.1,0-0.2-0.1-0.3,0c-0.1,0.1-0.2,0.2-0.2,0.3
				c-0.1,0.3-0.2,0.6-0.2,0.9c0,0.3,0.2,0.6,0.5,0.7c-0.3-0.5-1.2-0.4-1.4,0.1c-0.2,0.5,0.2,1.2,0.8,1.1c0.6,0,0.9-0.6,1.2-1.2
				c-0.2,0.4,0.1,1,0.5,1c0.2,0,0.4-0.1,0.5-0.2c0.4-0.3,0.6-0.8,0.5-1.2s-0.9-0.5-1.1-0.1L286.1,157.6z"/>
			<g>
				<path class="st19" d="M286.3,157.7c0.1-0.6,0.2-1.2-0.2-1.7c-0.2-0.3-0.6-0.6-0.9-0.4c-0.4,0.1-0.5,0.8-0.5,1.1
					c-0.1,0.5,0.1,0.9,0.6,1.1c0.2,0.1,0.4-0.1,0.2-0.3c-0.7-0.7-2.1-0.2-1.7,0.9c0.1,0.4,0.6,0.8,1,0.7c0.7,0,1-0.7,1.3-1.2
					c-0.1,0-0.2-0.1-0.4-0.1c-0.1,0.5,0,1.2,0.6,1.3c0.5,0.1,1.1-0.4,1.2-0.9c0.1-0.5,0-1-0.5-1.1c-0.5-0.2-0.8,0.2-1.1,0.6
					C285.8,157.7,286.1,157.9,286.3,157.7c0,0,0.1-0.2,0.2-0.2c0.1,0,0.3-0.1,0.4-0.1c0.1,0.3,0.1,0.5,0.2,0.8
					c-0.1,0.3-0.3,0.4-0.7,0.2c-0.4,0.1-0.6-0.1-0.4-0.5c0-0.2-0.3-0.4-0.4-0.1c-0.2,0.5-0.5,1.1-1.1,1c-1-0.3-0.1-1.6,0.6-0.9
					c0.1-0.1,0.2-0.2,0.2-0.3c-0.6-0.3-0.4-1.7,0.3-1.4c0.4,0.2,0.3,1.2,0.2,1.5C285.9,157.8,286.3,157.9,286.3,157.7z"/>
			</g>
		</g>
		<g>
			<path class="st2" d="M293.3,174.7c0.1-0.4,0.1-0.9,0-1.3s-0.4-0.9-0.8-1c-0.1,0-0.2-0.1-0.4,0c-0.1,0.1-0.2,0.2-0.3,0.4
				c-0.1,0.4-0.3,0.7-0.3,1.1s0.2,0.8,0.6,0.9c-0.4-0.6-1.5-0.5-1.8,0.2c-0.3,0.7,0.3,1.5,1,1.5c0.7-0.1,1.2-0.8,1.5-1.5
				c-0.2,0.5,0.1,1.3,0.7,1.3c0.2,0,0.5-0.1,0.7-0.2c0.5-0.3,0.8-1,0.6-1.5s-1.1-0.7-1.4-0.1L293.3,174.7z"/>
			<g>
				<path class="st19" d="M293.5,174.8c0.1-0.7,0.2-1.5-0.2-2.2c-0.2-0.3-0.7-0.7-1.1-0.5c-0.4,0.2-0.6,1-0.7,1.4
					c-0.1,0.6,0.2,1.2,0.7,1.4c0.2,0.1,0.5-0.2,0.3-0.4c-0.9-0.9-2.6-0.2-2.2,1.1c0.2,0.5,0.7,1,1.3,0.9c0.8-0.1,1.3-0.9,1.6-1.6
					c-0.1-0.1-0.3-0.1-0.4-0.2c-0.2,0.6,0.1,1.5,0.8,1.6c0.7,0.1,1.4-0.6,1.6-1.2c0.2-0.6-0.1-1.3-0.7-1.4c-0.7-0.2-1,0.3-1.4,0.7
					c-0.2,0.2,0.2,0.6,0.3,0.3c0.1-0.1,0.2-0.3,0.3-0.4c0.2-0.1,0.4-0.1,0.6-0.2c0.1,0.3,0.2,0.7,0.3,1c-0.2,0.4-0.4,0.5-0.8,0.3
					c-0.6,0.1-0.7-0.1-0.5-0.6c0.1-0.3-0.3-0.4-0.4-0.2c-0.3,0.6-0.7,1.4-1.5,1.2c-1.3-0.3-0.1-2.1,0.8-1.1c0.1-0.1,0.2-0.3,0.3-0.4
					c-0.8-0.4-0.5-2.1,0.3-1.7c0.6,0.3,0.4,1.5,0.3,1.9C293,175,293.5,175.1,293.5,174.8z"/>
			</g>
		</g>
		<g>
			<path class="st2" d="M296.1,176.9c0.4,0.1,0.9,0.1,1.3,0c0.4-0.1,0.9-0.4,1-0.8c0-0.1,0.1-0.2,0-0.4c-0.1-0.1-0.2-0.2-0.4-0.3
				c-0.4-0.1-0.7-0.3-1.1-0.3c-0.4,0-0.8,0.2-0.9,0.6c0.6-0.4,0.5-1.5-0.2-1.8c-0.7-0.3-1.5,0.3-1.5,1c0.1,0.7,0.8,1.2,1.5,1.5
				c-0.5-0.2-1.3,0.1-1.3,0.7c0,0.2,0.1,0.5,0.2,0.7c0.3,0.5,1,0.8,1.5,0.6c0.5-0.2,0.7-1.1,0.1-1.4L296.1,176.9z"/>
			<g>
				<path class="st19" d="M296,177.2c0.7,0.1,1.5,0.2,2.2-0.2c0.3-0.2,0.7-0.7,0.5-1.1c-0.2-0.4-1-0.6-1.4-0.7
					c-0.6-0.1-1.2,0.2-1.4,0.7c-0.1,0.2,0.2,0.5,0.4,0.3c0.9-0.9,0.2-2.6-1.1-2.2c-0.5,0.2-1,0.7-0.9,1.3c0.1,0.8,0.9,1.3,1.6,1.6
					c0.1-0.1,0.1-0.3,0.2-0.4c-0.6-0.2-1.5,0.1-1.6,0.8c-0.1,0.7,0.6,1.4,1.2,1.6c0.6,0.2,1.3-0.1,1.4-0.7c0.2-0.7-0.3-1-0.7-1.4
					c-0.2-0.2-0.6,0.2-0.3,0.3c0.1,0.1,0.3,0.2,0.4,0.3c0.1,0.2,0.1,0.4,0.2,0.6c-0.3,0.1-0.7,0.2-1,0.3c-0.4-0.2-0.5-0.4-0.3-0.8
					c-0.1-0.6,0.1-0.7,0.6-0.5c0.3,0.1,0.4-0.3,0.2-0.4c-0.6-0.3-1.4-0.7-1.2-1.5c0.3-1.3,2.1-0.1,1.1,0.8c0.1,0.1,0.3,0.2,0.4,0.3
					c0.4-0.8,2.1-0.5,1.7,0.3c-0.3,0.6-1.5,0.4-1.9,0.3C295.8,176.7,295.7,177.1,296,177.2z"/>
			</g>
		</g>
	</g>
	<g id="schwarma">
		
			<ellipse transform="matrix(2.068233e-02 -0.9998 0.9998 2.068233e-02 519.4191 1149.5863)" class="st19" cx="846.5" cy="309.7" rx="19.5" ry="19.5"/>
		<path class="st2" d="M838.1,314.8c-0.1-0.2-0.1-0.4-0.2-0.6c-0.1-0.4-0.3-0.7-0.5-1.1c-0.2-0.4-0.2-1,0.1-1.3
			c0.1-0.1,0.4-0.2,0.6-0.2c0.3,0.1,0.6,0.2,0.9,0.4c0.3,0.2,0.6,0.5,0.8,0.8c0.3,0.4,0.4,0.9,0.3,1.4c-0.1,0.3-0.3,0.6-0.7,0.8
			C838.9,315.2,838.6,315.2,838.1,314.8C838.1,314.8,838.1,314.8,838.1,314.8z"/>
		<path class="st2" d="M849.2,304.2c-0.3-0.2-0.2-0.6-0.4-0.9c-0.1-0.2-0.2-0.5-0.3-0.7c-0.2-0.4-0.3-0.9-0.1-1.3
			c0.2-0.3,0.5-0.4,0.9-0.3c0.5,0.2,0.9,0.5,1.3,0.9c0.3,0.4,0.5,0.8,0.5,1.3c0,0.8-0.7,1.4-1.4,1.2
			C849.5,304.5,849.3,304.3,849.2,304.2z"/>
		<path class="st2" d="M845.3,309.4c-0.4,0.3-1,0.6-1.4,0.2c-0.3-0.2-0.4-0.4-0.5-0.7c0-0.4-0.2-0.7-0.4-1.1
			c-0.2-0.4-0.3-1.2,0.2-1.4c0.1-0.1,0.3-0.1,0.5-0.1c0.6,0.1,1.1,0.5,1.5,1c0.3,0.5,0.6,1,0.4,1.6
			C845.5,309.1,845.4,309.3,845.3,309.4z"/>
		<path class="st2" d="M841.2,310.4c0.3,0.4,0.6,0.8,0.8,1.2c0.1,0.2,0.1,0.5,0,0.7c-0.2,0.5-0.5,0.8-1.1,0.9
			c-0.4,0-0.6-0.1-0.9-0.4c-0.6-0.6-0.8-1.3-0.8-2.1c0-0.2,0-0.5,0.1-0.7c0.1-0.3,0.5-0.4,0.8-0.2
			C840.6,309.9,840.9,310.2,841.2,310.4z"/>
		<path class="st2" d="M846.8,305.3c0.2,0.4,0.5,0.7,0.7,1.1c0.2,0.2,0.1,0.5,0,0.7c-0.2,0.5-0.5,0.8-1,0.8c-0.2,0-0.4-0.1-0.6-0.2
			c-0.4-0.2-0.6-0.5-0.8-0.8c-0.3-0.4-0.4-0.9-0.3-1.5c0-0.2,0.1-0.5,0.1-0.7c0.1-0.3,0.3-0.4,0.5-0.3c0.2,0.1,0.5,0.2,0.6,0.3
			C846.4,304.9,846.5,305.1,846.8,305.3C846.8,305.3,846.8,305.3,846.8,305.3z"/>
		<path class="st2" d="M851,302.1c-0.7-0.7-0.8-1.6-0.7-2.5c0.1-0.5,0.4-0.6,0.9-0.4c0.4,0.2,0.7,0.5,1,0.8c0.2,0.2,0.4,0.4,0.6,0.6
			c0.3,0.3,0.4,0.6,0.3,1.1c-0.2,0.7-0.9,1.1-1.5,0.8C851.4,302.5,851.2,302.3,851,302.1z"/>
		<path class="st2" d="M835,314.5c0.2-0.2,0.5-0.3,0.8-0.1c0.7,0.3,1.2,0.8,1.6,1.3c0.2,0.3,0.4,0.7,0.3,1.1c0,0.1-0.1,0.2-0.2,0.4
			C836.7,316.2,835.8,315.4,835,314.5z"/>
		<path class="st2" d="M841.7,310.5c-0.4-0.4-0.7-0.8-1.1-1.1c0-0.1-0.1-0.2-0.1-0.2c0-0.1,0.1-0.2,0.2-0.2c0.3,0,0.5,0,0.8,0.2
			c0.6,0.3,1,0.8,1.4,1.3c0.2,0.3,0.4,0.7,0.3,1.1c0,0.1-0.1,0.2-0.2,0.2c0,0-0.2-0.1-0.2-0.1C842.4,311.3,842.1,310.9,841.7,310.5z
			"/>
		<path class="st2" d="M848.6,306.6c-0.1-0.2-0.2-0.2-0.3-0.3c-0.7-0.7-1.4-1.5-2.1-2.2c0,0-0.1-0.1-0.1-0.1c0-0.1,0.1-0.1,0.2-0.1
			c0.3,0,0.5,0,0.7,0.1c0.7,0.3,1.1,0.8,1.5,1.4c0.2,0.3,0.3,0.6,0.2,1C848.7,306.4,848.6,306.5,848.6,306.6z"/>
		<path class="st2" d="M841.4,308.4c0.3-0.5,0.4-0.5,0.8-0.1c0.7,0.7,1.4,1.4,2.1,2.1c0.2,0.2,0.1,0.3,0,0.3
			c-0.1,0.1-0.2,0.4-0.4,0.1C843,310.1,842.2,309.2,841.4,308.4z"/>
		<path class="st2" d="M835.9,313.6c0.1-0.1,0.2-0.2,0.3-0.3c0.1,0,0.2,0,0.3,0c0.5,0.5,0.9,0.9,1.3,1.4c0.3,0.3,0.6,0.6,0.8,0.8
			c0.2,0.2,0.2,0.3,0,0.5c-0.1,0.1-0.1,0.1-0.2,0.2C837.6,315.4,836.7,314.5,835.9,313.6z"/>
		<path class="st2" d="M847.3,302.6c0.2,0.2,0.4,0.4,0.5,0.5c0.6,0.6,1.2,1.3,1.9,1.9c0.2,0.2,0,0.3-0.1,0.4c-0.1,0.2-0.2,0.1-0.4,0
			c-0.7-0.8-1.4-1.5-2.2-2.3c-0.2-0.2-0.2-0.3,0-0.4C847.1,302.8,847.2,302.7,847.3,302.6z"/>
		<path class="st2" d="M855.3,297.4c0,0.1-0.1,0.2-0.1,0.3c-0.6,0.9-1.5,1.6-2.2,2.4c-0.1,0.1-0.2,0.2-0.3,0
			c-0.1-0.1-0.3-0.2-0.1-0.4c0.6-0.6,1.2-1.2,1.9-1.7C854.6,297.6,854.9,297.5,855.3,297.4C855.2,297.3,855.3,297.3,855.3,297.4z"/>
		<path class="st2" d="M834.6,316.8c0.3-0.3,0.6-0.6,0.9-0.9c0.1-0.2,0.2-0.1,0.3,0c0.1,0.1,0.2,0.2,0.1,0.4
			c-0.6,0.6-1.3,1.2-1.9,1.8c-0.2,0.2-0.2,0.1-0.4,0c-0.1-0.1-0.2-0.2,0-0.4C834,317.4,834.3,317.1,834.6,316.8z"/>
		<path class="st2" d="M842.3,318.1c-0.1-0.2-0.1-0.4-0.2-0.6c-0.1-0.4-0.3-0.7-0.5-1.1c-0.2-0.4-0.2-1,0.1-1.3
			c0.1-0.1,0.4-0.2,0.6-0.2c0.3,0.1,0.6,0.2,0.9,0.4c0.3,0.2,0.6,0.5,0.8,0.8c0.3,0.4,0.4,0.9,0.3,1.4c-0.1,0.3-0.3,0.6-0.7,0.8
			C843.1,318.5,842.8,318.5,842.3,318.1C842.3,318.1,842.3,318.1,842.3,318.1z"/>
		<path class="st2" d="M853.4,307.5c-0.3-0.2-0.2-0.6-0.4-0.9c-0.1-0.2-0.2-0.5-0.3-0.7c-0.2-0.4-0.3-0.9-0.1-1.3
			c0.2-0.3,0.5-0.4,0.9-0.3c0.5,0.2,0.9,0.5,1.3,0.9c0.3,0.4,0.5,0.8,0.5,1.3c0,0.8-0.7,1.4-1.4,1.2
			C853.7,307.8,853.5,307.6,853.4,307.5z"/>
		<path class="st2" d="M849.5,312.7c-0.4,0.3-1,0.6-1.4,0.2c-0.3-0.2-0.4-0.4-0.5-0.7c0-0.4-0.2-0.7-0.4-1.1
			c-0.2-0.4-0.3-1.2,0.2-1.4c0.1-0.1,0.3-0.1,0.5-0.1c0.6,0.1,1.1,0.5,1.5,1c0.3,0.5,0.6,1,0.4,1.6
			C849.7,312.4,849.6,312.6,849.5,312.7z"/>
		<path class="st2" d="M845.4,313.7c0.3,0.4,0.6,0.8,0.8,1.2c0.1,0.2,0.1,0.5,0,0.7c-0.2,0.5-0.5,0.8-1.1,0.9
			c-0.4,0-0.6-0.1-0.9-0.4c-0.6-0.6-0.8-1.3-0.8-2.1c0-0.2,0-0.5,0.1-0.7c0.1-0.3,0.5-0.4,0.8-0.2
			C844.8,313.2,845.1,313.5,845.4,313.7z"/>
		<path class="st2" d="M851,308.5c0.2,0.4,0.5,0.7,0.7,1.1c0.2,0.2,0.1,0.5,0,0.7c-0.2,0.5-0.5,0.8-1,0.8c-0.2,0-0.4-0.1-0.6-0.2
			c-0.4-0.2-0.6-0.5-0.8-0.8c-0.3-0.4-0.4-0.9-0.3-1.5c0-0.2,0.1-0.5,0.1-0.7c0.1-0.3,0.3-0.4,0.5-0.3c0.2,0.1,0.5,0.2,0.6,0.3
			C850.6,308.2,850.8,308.4,851,308.5C851,308.6,851,308.6,851,308.5z"/>
		<path class="st2" d="M855.2,305.4c-0.7-0.7-0.8-1.6-0.7-2.5c0.1-0.5,0.4-0.6,0.9-0.4c0.4,0.2,0.7,0.5,1,0.8
			c0.2,0.2,0.4,0.4,0.6,0.6c0.3,0.3,0.4,0.6,0.3,1.1c-0.2,0.7-0.9,1.1-1.5,0.8C855.6,305.8,855.4,305.6,855.2,305.4z"/>
		<path class="st2" d="M839.2,317.8c0.2-0.2,0.5-0.3,0.8-0.1c0.7,0.3,1.2,0.8,1.6,1.3c0.2,0.3,0.4,0.7,0.3,1.1
			c0,0.1-0.1,0.2-0.2,0.4C840.9,319.5,840,318.7,839.2,317.8z"/>
		<path class="st2" d="M845.9,313.8c-0.4-0.4-0.7-0.8-1.1-1.1c0-0.1-0.1-0.2-0.1-0.2c0-0.1,0.1-0.2,0.2-0.2c0.3,0,0.5,0,0.8,0.2
			c0.6,0.3,1,0.8,1.4,1.3c0.2,0.3,0.4,0.7,0.3,1.1c0,0.1-0.1,0.2-0.2,0.2c0,0-0.2-0.1-0.2-0.1C846.6,314.6,846.3,314.2,845.9,313.8z
			"/>
		<path class="st2" d="M852.8,309.9c-0.1-0.2-0.2-0.2-0.3-0.3c-0.7-0.7-1.4-1.5-2.1-2.2c0,0-0.1-0.1-0.1-0.1c0-0.1,0.1-0.1,0.2-0.1
			c0.3,0,0.5,0,0.7,0.1c0.7,0.3,1.1,0.8,1.5,1.4c0.2,0.3,0.3,0.6,0.2,1C852.9,309.7,852.8,309.8,852.8,309.9z"/>
		<path class="st2" d="M845.6,311.7c0.3-0.5,0.4-0.5,0.8-0.1c0.7,0.7,1.4,1.4,2.1,2.1c0.2,0.2,0.1,0.3,0,0.3
			c-0.1,0.1-0.2,0.4-0.4,0.1C847.2,313.3,846.4,312.5,845.6,311.7z"/>
		<path class="st2" d="M840.1,316.9c0.1-0.1,0.2-0.2,0.3-0.3c0.1,0,0.2,0,0.3,0c0.5,0.5,0.9,0.9,1.3,1.4c0.3,0.3,0.6,0.6,0.8,0.8
			c0.2,0.2,0.2,0.3,0,0.5c-0.1,0.1-0.1,0.1-0.2,0.2C841.8,318.7,841,317.8,840.1,316.9z"/>
		<path class="st2" d="M851.5,305.9c0.2,0.2,0.4,0.4,0.5,0.5c0.6,0.6,1.2,1.3,1.9,1.9c0.2,0.2,0,0.3-0.1,0.4c-0.1,0.2-0.2,0.1-0.4,0
			c-0.7-0.8-1.4-1.5-2.2-2.3c-0.2-0.2-0.2-0.3,0-0.4C851.4,306.1,851.4,306,851.5,305.9z"/>
		<path class="st2" d="M859.5,300.6c0,0.1-0.1,0.2-0.1,0.3c-0.6,0.9-1.5,1.6-2.2,2.4c-0.1,0.1-0.2,0.2-0.3,0
			c-0.1-0.1-0.3-0.2-0.1-0.4c0.6-0.6,1.2-1.2,1.9-1.7C858.8,300.9,859.1,300.8,859.5,300.6C859.4,300.6,859.5,300.6,859.5,300.6z"/>
		<path class="st2" d="M838.8,320.1c0.3-0.3,0.6-0.6,0.9-0.9c0.1-0.2,0.2-0.1,0.3,0c0.1,0.1,0.2,0.2,0.1,0.4
			c-0.6,0.6-1.3,1.2-1.9,1.8c-0.2,0.2-0.2,0.1-0.4,0c-0.1-0.1-0.2-0.2,0-0.4C838.2,320.7,838.5,320.4,838.8,320.1z"/>
	</g>
	<g id="drinks">
		<circle class="st19" cx="169.3" cy="470.9" r="19.5"/>
		<g>
			<path class="st2" d="M162.9,463.2c4.9,0,9.7,0,14.6,0c-0.1,1.5-0.1,2.9-0.2,4.3c-0.3,5.1-0.7,10.1-1,15.2
				c-0.1,1.7-0.5,2.2-2.2,2.2c-2.6,0-5.3,0-7.9,0c-1.1,0-1.9-0.5-1.9-1.6C163.7,476.6,163.4,470,162.9,463.2z M164.3,464.6
				c0.4,6.4,0.8,12.6,1.1,18.9c3,0,5.9,0,8.7,0c0.3,0,0.8-0.7,0.9-1.1c0.2-2.9,0.4-5.8,0.6-8.8c0.2-3,0.3-5.9,0.5-8.9
				c-1.7-0.6-0.9,1.1-1.7,1.6c-0.3,0-0.8,0-1.3-0.1c0-0.6,0-1,0-1.6C170.2,464.6,167.4,464.6,164.3,464.6z"/>
			<path class="st2" d="M169.3,462.6c-0.2-0.3-0.6-0.6-0.7-0.9c-1.1-2.7-3-3.9-5.7-3.7c-2.3,0.2-4.2,2.2-4.6,4.6
				c-0.3,2.3,1.1,4.5,3.5,5.6c0.4,0.2,0.7,0.5,1.3,1c-3.2,0.1-5.8-2.7-5.8-5.9c0-3.5,2.8-6.3,6.3-6.3
				C166.8,456.9,169.7,459.5,169.3,462.6z"/>
			<path class="st2" d="M175.3,462.5c-0.6,0-1,0-1.6,0c0.2-1,0.2-2.1,0.6-2.9c0.3-0.7,1-1.4,1.7-1.6c1.3-0.4,2.8-0.5,4.2-0.5
				c0.4,0,0.8,0.4,1.2,0.7c-0.3,0.3-0.6,0.8-1,0.9c-0.9,0.2-1.8,0.3-2.7,0.3c-1.4,0-2.1,0.6-2.1,2
				C175.5,461.7,175.4,462.1,175.3,462.5z"/>
			<path class="st2" d="M166.7,459.5c-1,1.1-1.9,2-2.9,3.1c0-1.4,0-2.7,0-4.3C165,458.7,165.9,459.1,166.7,459.5z"/>
			<path class="st2" d="M163.1,458.2c0,1.7,0,2.9,0,4.2c-0.1,0.1-0.2,0.1-0.3,0.2c-0.8-1-1.5-1.9-2.4-3
				C161.1,459.2,162,458.8,163.1,458.2z"/>
			<path class="st2" d="M159.5,460.5c1.1,1,2,1.8,3,2.7c-1.3,0-2.3,0-3.7,0C159,462.3,159.3,461.4,159.5,460.5z"/>
			<path class="st2" d="M159.9,466.2c-0.3-0.5-0.7-1.3-1.2-2.2c1.4,0,2.4,0,3.5,0c0.1,0.1,0.1,0.2,0.2,0.3
				C161.6,464.9,160.8,465.5,159.9,466.2z"/>
			<path class="st2" d="M165.3,462.4c0.8-0.7,1.4-1.3,2.2-2c0.2,0.5,0.6,1.2,1,2C167.2,462.4,166.3,462.4,165.3,462.4z"/>
			<path class="st2" d="M162.6,467.9c-0.8-0.3-1.3-0.5-2.1-0.9c0.6-0.7,1.2-1.2,1.9-2C162.5,466.1,162.6,466.9,162.6,467.9z"/>
			<path class="st2" d="M165,466.9c0.3,4.8,0.5,9.4,0.9,14.1c0,0.4,0.7,0.9,1.1,1c2.2,0.1,4.4,0.1,6.6,0c0.7,0,1-0.4,1.1-1.2
				c0.1-2.1,0.3-4.2,0.4-6.4c0.2-2.5,0.3-5,0.4-7.6C171.9,466.9,168.5,466.9,165,466.9z"/>
			<path class="st2" d="M165,466.9c3.6,0,7,0,10.5,0c-0.1,2.6-0.3,5.1-0.4,7.6c-0.1,2.1-0.3,4.2-0.4,6.4c0,0.8-0.3,1.2-1.1,1.2
				c-2.2,0-4.4,0.1-6.6,0c-0.4,0-1-0.6-1.1-1C165.5,476.4,165.2,471.7,165,466.9z M170.4,474.5c-1.4,0.5-2.9,0.6-3.9,1.4
				c-0.4,0.4,0.3,2.1,0.5,3.1c0,0.2,0,0.5,0.2,0.7c0.3,0.3,0.7,0.6,1.1,0.6c3.9-0.5,4.2-1,3-4.7c-0.1-0.2-0.1-0.4-0.2-0.5
				C170.9,474.8,170.7,474.7,170.4,474.5z M168.4,474.4c0.7-0.2,1.6-0.1,2.1-0.5c0.8-0.6,1.3-1.4,1.8-2.2c0.1-0.1-0.6-0.9-1.1-1.2
				c-2.8-1.7-2.8-1.7-4.4,1.1C166.1,472.9,166.8,474.3,168.4,474.4z M174.7,474.6c-0.7-0.7-1.3-1.2-1.9-1.8
				c-1.6,1.3-0.8,2.6-0.3,4.1C173.3,476.1,173.9,475.5,174.7,474.6z"/>
		</g>
	</g>
	<g id="drinks_1_">
		<circle class="st19" cx="819.3" cy="265.8" r="19.5"/>
		<g>
			<path class="st2" d="M812.9,258.1c4.9,0,9.7,0,14.6,0c-0.1,1.5-0.1,2.9-0.2,4.3c-0.3,5.1-0.7,10.1-1,15.2
				c-0.1,1.7-0.5,2.2-2.2,2.2c-2.6,0-5.3,0-7.9,0c-1.1,0-1.9-0.5-1.9-1.6C813.7,271.5,813.3,264.9,812.9,258.1z M814.2,259.5
				c0.4,6.4,0.8,12.6,1.1,18.9c3,0,5.9,0,8.7,0c0.3,0,0.8-0.7,0.9-1.1c0.2-2.9,0.4-5.8,0.6-8.8c0.2-3,0.3-5.9,0.5-8.9
				c-1.7-0.6-0.9,1.1-1.7,1.6c-0.3,0-0.8,0-1.3-0.1c0-0.6,0-1,0-1.6C820.1,259.5,817.3,259.5,814.2,259.5z"/>
			<path class="st2" d="M819.2,257.6c-0.2-0.3-0.6-0.6-0.7-0.9c-1.1-2.7-3-3.9-5.7-3.7c-2.3,0.2-4.2,2.2-4.6,4.6
				c-0.3,2.3,1.1,4.5,3.5,5.6c0.4,0.2,0.7,0.5,1.3,1c-3.2,0.1-5.8-2.7-5.8-5.9c0-3.5,2.8-6.3,6.3-6.3
				C816.8,251.8,819.6,254.4,819.2,257.6z"/>
			<path class="st2" d="M825.2,257.5c-0.6,0-1,0-1.6,0c0.2-1,0.2-2.1,0.6-2.9c0.3-0.7,1-1.4,1.7-1.6c1.3-0.4,2.8-0.5,4.2-0.5
				c0.4,0,0.8,0.4,1.2,0.7c-0.3,0.3-0.6,0.8-1,0.9c-0.9,0.2-1.8,0.3-2.7,0.3c-1.4,0-2.1,0.6-2.1,2
				C825.5,256.6,825.3,257,825.2,257.5z"/>
			<path class="st2" d="M816.6,254.4c-1,1.1-1.9,2-2.9,3.1c0-1.4,0-2.7,0-4.3C814.9,253.6,815.9,254.1,816.6,254.4z"/>
			<path class="st2" d="M813.1,253.1c0,1.7,0,2.9,0,4.2c-0.1,0.1-0.2,0.1-0.3,0.2c-0.8-1-1.5-1.9-2.4-3
				C811,254.2,811.9,253.7,813.1,253.1z"/>
			<path class="st2" d="M809.4,255.5c1.1,1,2,1.8,3,2.7c-1.3,0-2.3,0-3.7,0C809,257.2,809.2,256.3,809.4,255.5z"/>
			<path class="st2" d="M809.8,261.1c-0.3-0.5-0.7-1.3-1.2-2.2c1.4,0,2.4,0,3.5,0c0.1,0.1,0.1,0.2,0.2,0.3
				C811.5,259.8,810.7,260.5,809.8,261.1z"/>
			<path class="st2" d="M815.2,257.4c0.8-0.7,1.4-1.3,2.2-2c0.2,0.5,0.6,1.2,1,2C817.2,257.4,816.2,257.4,815.2,257.4z"/>
			<path class="st2" d="M812.5,262.8c-0.8-0.3-1.3-0.5-2.1-0.9c0.6-0.7,1.2-1.2,1.9-2C812.5,261.1,812.5,261.8,812.5,262.8z"/>
			<path class="st2" d="M814.9,261.9c0.3,4.8,0.5,9.4,0.9,14.1c0,0.4,0.7,0.9,1.1,1c2.2,0.1,4.4,0.1,6.6,0c0.7,0,1-0.4,1.1-1.2
				c0.1-2.1,0.3-4.2,0.4-6.4c0.2-2.5,0.3-5,0.4-7.6C821.8,261.9,818.5,261.9,814.9,261.9z"/>
			<path class="st2" d="M814.9,261.9c3.6,0,7,0,10.5,0c-0.1,2.6-0.3,5.1-0.4,7.6c-0.1,2.1-0.3,4.2-0.4,6.4c0,0.8-0.3,1.2-1.1,1.2
				c-2.2,0-4.4,0.1-6.6,0c-0.4,0-1-0.6-1.1-1C815.4,271.3,815.2,266.6,814.9,261.9z M820.4,269.4c-1.4,0.5-2.9,0.6-3.9,1.4
				c-0.4,0.4,0.3,2.1,0.5,3.1c0,0.2,0,0.5,0.2,0.7c0.3,0.3,0.7,0.6,1.1,0.6c3.9-0.5,4.2-1,3-4.7c-0.1-0.2-0.1-0.4-0.2-0.5
				C820.9,269.8,820.6,269.6,820.4,269.4z M818.4,269.3c0.7-0.2,1.6-0.1,2.1-0.5c0.8-0.6,1.3-1.4,1.8-2.2c0.1-0.1-0.6-0.9-1.1-1.2
				c-2.8-1.7-2.8-1.7-4.4,1.1C816,267.9,816.8,269.2,818.4,269.3z M824.6,269.5c-0.7-0.7-1.3-1.2-1.9-1.8c-1.6,1.3-0.8,2.6-0.3,4.1
				C823.2,271.1,823.8,270.4,824.6,269.5z"/>
		</g>
	</g>
	<g id="crepe_1_">
		<circle class="st19" cx="98.1" cy="385.7" r="19.5"/>
		<g>
			<path class="st2" d="M96.2,402.7l-11.7-22.3c4.1-2.1,8.6-3.2,13.2-3.2c4.8,0,9.6,1.2,13.8,3.6l-12.2,22
				C98.6,403.9,96.9,403.9,96.2,402.7z"/>
			<g>
				<path class="st22" d="M97.7,401.9l-13.9-24.7c4.2-2.4,9-3.6,13.9-3.6c5.2,0,10.3,1.4,14.7,4.1L97.7,401.9z"/>
				<line class="st23" x1="97.6" y1="400.9" x2="103.6" y2="373.9"/>
			</g>
		</g>
	</g>
</g>
</svg>
