<?xml version="1.0" encoding="utf-8"?>
<!-- Generator: Adobe Illustrator 21.0.0, SVG Export Plug-In . SVG Version: 6.00 Build 0)  -->
<svg version="1.1" id="Layer_1" xmlns="http://www.w3.org/2000/svg" xmlns:xlink="http://www.w3.org/1999/xlink" x="0px" y="0px"
	 viewBox="0 0 926.1 640.4" style="enable-background:new 0 0 926.1 640.4;" xml:space="preserve">
<style type="text/css">
	.st0{fill:#000411;}
	.st1{fill:#000411;stroke:#FFFFFF;stroke-width:2.15;stroke-miterlimit:10;}
	.st2{fill:#FFFFFF;}
	.st3{fill:#FFFFFF;stroke:#FFFFFF;stroke-width:0.27;stroke-miterlimit:10;}
	.st4{fill:#000411;stroke:#050433;stroke-width:0.27;stroke-miterlimit:10;}
	.st5{fill:#000411;stroke:#050433;stroke-width:0.25;stroke-miterlimit:10;}
	.st6{fill:#CFD0D2;}
	.st7{fill:#FFFFFF;stroke:#FFFFFF;stroke-width:2.15;stroke-miterlimit:10;}
	.st8{fill:none;stroke:#CFD0D2;stroke-width:2.15;stroke-miterlimit:10;}
	.st9{fill:#1B75BB;stroke:#CFD0D2;stroke-width:2.15;stroke-miterlimit:10;}
	.st10{fill:#00A14B;stroke:#FFFFFF;stroke-width:2.15;stroke-miterlimit:10;}
	.st11{fill:none;stroke:#FFFFFF;stroke-width:2.15;stroke-miterlimit:10;}
	.st12{fill:#00A14B;stroke:#CFD0D2;stroke-width:2.15;stroke-miterlimit:10;}
	.st13{fill:#1295C6;}
	.st14{fill:#6B517D;}
	.st15{fill:#F2682F;}
	.st16{fill:#34B04A;}
	.st17{fill:#FF4799;}
	.st18{fill:#D22532;}
	.st19{fill:#6B626E;}
	.st20{fill:none;stroke:#FFFFFF;stroke-linejoin:round;stroke-miterlimit:10;}
	.st21{fill:none;stroke:#FFFFFF;stroke-width:1.5;stroke-miterlimit:10;}
	.st22{fill:#6C626E;}
	.st23{fill:#6E6470;}
	.st24{fill:#FFFFFF;stroke:#6E6470;stroke-width:0.2353;stroke-miterlimit:10;}
	.st25{fill:none;stroke:#6E6470;stroke-width:0.2353;stroke-miterlimit:10;}
	.st26{fill:#6E6470;stroke:#FFFFFF;stroke-width:0.7738;stroke-miterlimit:10;}
	.st27{clip-path:url(#SVGID_2_);fill:none;stroke:#FFFFFF;stroke-width:0.7738;stroke-linecap:round;stroke-miterlimit:10;}
	.st28{fill:none;stroke:#FFFFFF;stroke-width:0.7738;stroke-linecap:round;stroke-miterlimit:10;}
</style>
<g id="ground_floor_map-2">
	<polygon class="st0" points="688.3,184.3 635.1,237.4 623.3,237.4 623.3,297.4 591.2,297.4 591.2,396.9 564.7,403.4 564.7,424.5 
		460.4,424.5 460.4,403.7 434.2,396.7 434.2,297.4 401.6,297.4 401.6,237.3 390.7,237.3 312.9,159.4 359.4,112.9 616.9,112.9 	"/>
	<polygon class="st0" points="401.7,528.9 376.3,561.5 242.9,561.5 242.9,509.8 375.7,509.8 	"/>
	<rect x="28" y="509.8" class="st0" width="40.5" height="51.8"/>
	<rect x="28" y="407.7" class="st0" width="40.5" height="47.8"/>
	<rect x="28" y="455.6" class="st0" width="40.5" height="42.4"/>
	<polygon class="st1" points="138.2,312.3 97.7,352.8 73.6,376.9 68.5,382 68.5,407.7 28,407.7 28,346.6 100.3,274.3 	"/>
	<rect x="68.5" y="509.8" class="st0" width="121.9" height="51.8"/>
	<polygon class="st0" points="704.4,108.1 718.3,122 680.4,159 658.7,137.3 667.7,112.5 685.7,112.5 685.7,98.7 351.8,98.7 
		338.5,112 318.7,131.8 290.8,104 330,64.8 336.6,58.2 709.3,58.2 731.8,80.7 	"/>
	<polygon class="st0" points="883,231.8 863.2,251.6 858,246.3 847.6,256.7 845.2,254.3 839.2,260.4 830.5,251.7 801.8,280.4 
		688.9,167.5 733.2,123.2 725.1,115.2 745.7,94.6 	"/>
	
		<rect x="608.8" y="455.9" transform="matrix(0.7071 -0.7071 0.7071 0.7071 -125.5758 626.4083)" class="st0" width="169.1" height="17.8"/>
	<polygon class="st0" points="910.9,259.8 880.8,289.9 869.3,278.4 899.4,248.3 	"/>
	<polygon class="st0" points="899.4,248.3 869.3,278.4 859,268.1 869.3,257.7 863.2,251.6 883,231.8 	"/>
	
		<rect x="290.8" y="104" transform="matrix(0.7071 -0.7071 0.7071 0.7071 9.913372e-02 247.626)" class="st0" width="16.3" height="39.4"/>
	
		<rect x="279.4" y="115.5" transform="matrix(0.7071 -0.7071 0.7071 0.7071 -11.3803 242.8938)" class="st0" width="16.2" height="39.4"/>
	<polygon class="st0" points="295.7,154.8 285,165.5 276.1,156.7 270.2,162.7 251.2,143.7 267.8,127 	"/>
	<polygon class="st0" points="272.8,177.7 236,214.5 198,176.6 225.2,149.4 235.3,159.5 251.2,143.7 270.2,162.7 264,168.9 	"/>
	<polygon class="st0" points="236,214.5 212.1,238.4 138.2,312.3 100.3,274.3 198,176.6 	"/>
	<polygon class="st0" points="816.3,313.1 679,450.4 618.3,389.5 671.4,336.4 648.4,313.4 648.4,279.5 665.3,296.4 679.5,282.2 
		648.1,250.8 701,197.9 759.1,256 	"/>
	<polygon class="st0" points="400.2,382 307.6,474.6 152.6,319.9 276.8,195.6 298.6,217.4 321.3,194.6 335.2,208.4 312.9,230.7 
		335.2,253 302.7,285.5 322.7,305.1 336.4,318.8 377.3,277.9 377.3,313.3 354.4,336.2 	"/>
	
		<rect x="283" y="179.7" transform="matrix(0.7071 -0.7071 0.7071 0.7071 -50.3481 268.6534)" class="st0" width="32.2" height="30.8"/>
	<polygon class="st0" points="357.4,230.7 335.2,253 312.9,230.7 335.2,208.4 	"/>
	<polygon class="st0" points="377.2,250.5 322.7,305.1 302.7,285.5 335.2,253 357.4,230.7 	"/>
	<polygon class="st0" points="253.3,436.1 191.3,498.4 154.3,461.4 115.2,500.4 82.5,467.6 100.8,449.3 82.8,431.3 103.4,410.7 
		82.4,389.8 106.3,365.8 144.7,327.5 	"/>
	
		<rect x="809.6" y="259.5" transform="matrix(0.7071 -0.7071 0.7071 0.7071 44.2037 669.1933)" class="st1" width="40.6" height="43.5"/>
	<polygon class="st0" points="809.9,360.8 775,395.7 762.7,383.4 797.6,348.6 	"/>
	<rect x="190.4" y="509.8" class="st0" width="52.5" height="51.8"/>
	<polygon class="st1" points="745.7,94.6 725.1,115.2 718.3,122 704.4,108.1 731.8,80.7 	"/>
	<path class="st2" d="M472.1,294.9h3.5c0.8,0,1.7,0.2,2.3,0.8c0.4,0.5,0.7,1.1,0.7,1.7l0,0c0,1.1-0.8,2.2-1.9,2.4l2.1,3h-1.7
		l-1.9-2.8h-1.7v2.8h-1.4V294.9z M475.5,298.8c1,0,1.6-0.5,1.6-1.3l0,0c0-0.9-0.6-1.3-1.6-1.3h-2v2.7L475.5,298.8z"/>
	<path class="st2" d="M480.2,294.9h5.9v1.2h-4.5v2.1h4v1.2h-4v2.1h4.5v1.2h-5.9V294.9z"/>
	<path class="st2" d="M487.8,294.9h3c2.2-0.1,4.1,1.5,4.2,3.7c0,0.1,0,0.2,0,0.3l0,0c0,2.2-1.8,4-4,4c-0.1,0-0.1,0-0.2,0h-3V294.9z
		 M489.2,296.2v5.4h1.6c1.4,0.1,2.7-1,2.7-2.4c0-0.1,0-0.2,0-0.3l0,0c0.1-1.4-1.1-2.6-2.5-2.7c-0.1,0-0.2,0-0.2,0H489.2z"/>
	<path class="st2" d="M502,296.2h-2.5v-1.3h6.4v1.3h-2.5v6.6H502V296.2z"/>
	<path class="st2" d="M507.4,294.9h1.4v3.3h3.8v-3.3h1.4v7.9h-1.4v-3.3h-3.8v3.3h-1.4V294.9z"/>
	<path class="st2" d="M516,294.9h5.8v1.2h-4.5v2.1h4v1.2h-4v2.1h4.5v1.2h-5.9L516,294.9z"/>
	<path class="st2" d="M526.3,294.9h1.3l3.5,8h-1.5l-0.8-1.9h-3.7l-0.8,1.9h-1.5L526.3,294.9z M528.3,299.7l-1.4-3.2l-1.4,3.2H528.3z
		"/>
	<path class="st2" d="M533.4,296.2h-2.5v-1.3h6.4v1.3h-2.5v6.6h-1.4V296.2z"/>
	<path class="st2" d="M545.2,294.9h3.5c0.8,0,1.7,0.2,2.3,0.8c0.4,0.5,0.7,1.1,0.7,1.7l0,0c0,1.1-0.8,2.2-1.9,2.4l2.1,3h-1.7
		l-1.9-2.8h-1.7v2.8h-1.4L545.2,294.9L545.2,294.9z M548.6,298.8c1,0,1.6-0.5,1.6-1.3l0,0c0-0.9-0.6-1.3-1.6-1.3h-2v2.7L548.6,298.8
		z"/>
	<path class="st2" d="M538.3,294.9h5.9v1.2h-4.5v2.1h4v1.2h-4v2.1h4.5v1.2h-5.9V294.9z"/>
	<path class="st2" d="M260.6,368.7h3.5c0.8,0,1.5,0.2,2.1,0.7c0.4,0.3,0.5,0.8,0.5,1.3l0,0c0,0.8-0.4,1.5-1.1,1.8
		c0.9,0.2,1.6,1,1.6,1.9l0,0c0,1.4-1.2,2.2-2.9,2.2h-3.7V368.7z M265.3,370.9c0-0.6-0.5-1-1.4-1h-2v2.1h1.9
		C264.7,372,265.3,371.7,265.3,370.9L265.3,370.9z M264.1,373.2h-2.2v2.2h2.3c1,0,1.5-0.4,1.5-1.1l0,0
		C265.8,373.6,265.2,373.2,264.1,373.2L264.1,373.2z"/>
	<path class="st2" d="M268.7,368.7h1.4v6.6h4.2v1.3h-5.5L268.7,368.7z"/>
	<path class="st2" d="M278.5,368.6h1.3l3.5,8h-1.5l-0.8-1.9h-3.7l-0.8,1.9h-1.4L278.5,368.6z M280.5,373.4l-1.4-3.2l-1.4,3.2H280.5z
		"/>
	<path class="st2" d="M283.8,372.7L283.8,372.7c-0.1-2.2,1.7-4,3.9-4.1c0.1,0,0.1,0,0.2,0c1.2,0,2.3,0.4,3.1,1.2l-0.9,1
		c-0.6-0.6-1.4-1-2.2-1c-1.5,0-2.6,1.2-2.6,2.7v0.1l0,0c-0.1,1.5,1.1,2.7,2.5,2.8c0,0,0,0,0.1,0c0.9,0,1.7-0.4,2.3-1l0.9,0.9
		c-0.8,0.9-2,1.4-3.2,1.4C285.6,376.7,283.8,374.9,283.8,372.7L283.8,372.7z"/>
	<path class="st2" d="M292.5,368.7h1.4v4l3.8-4h1.7l-3.3,3.4l3.5,4.5h-1.8l-2.7-3.6l-1.2,1.3v2.3h-1.4V368.7L292.5,368.7z"/>
	<path class="st2" d="M304.1,368.7h3.5c0.8,0,1.5,0.2,2.1,0.7c0.4,0.3,0.5,0.8,0.5,1.3l0,0c0,0.8-0.4,1.5-1.1,1.8
		c0.9,0.2,1.6,1,1.6,1.9l0,0c0,1.4-1.2,2.2-2.9,2.2h-3.7V368.7z M308.9,370.9c0-0.6-0.5-1-1.4-1h-2v2.1h1.9
		C308.3,372,308.9,371.7,308.9,370.9L308.9,370.9z M307.7,373.2h-2.2v2.2h2.3c1,0,1.5-0.4,1.5-1.1l0,0
		C309.3,373.6,308.8,373.2,307.7,373.2L307.7,373.2z"/>
	<path class="st2" d="M311.9,372.7L311.9,372.7c0-2.3,1.9-4.1,4.1-4.1c2.3,0,4.1,1.9,4.1,4.1l0,0c0,2.3-1.9,4.1-4.1,4.1
		S311.9,375,311.9,372.7z M318.7,372.7L318.7,372.7c0.1-1.5-1.1-2.8-2.6-2.8H316c-1.5,0-2.7,1.2-2.7,2.7v0.1l0,0
		c-0.1,1.5,1.1,2.7,2.6,2.8h0.1c1.5,0,2.7-1.2,2.7-2.6C318.7,372.8,318.7,372.7,318.7,372.7z"/>
	<path class="st2" d="M328,368.7l-2.8,3.9l2.9,4h-1.6l-2.1-3l-2.1,3h-1.6l2.9-4l-2.8-3.9h1.6l2,2.9l2-2.9H328z"/>
	<path class="st2" d="M269.8,383.6h-2.5v-1.3h6.4v1.3h-2.5v6.6h-1.4V383.6z"/>
	<path class="st2" d="M275.2,382.3h1.4v3.3h3.8v-3.3h1.4v7.9h-1.4v-3.3h-3.8v3.3h-1.4V382.3z"/>
	<path class="st2" d="M283.7,382.3h5.9v1.2h-4.5v2.1h4v1.2h-4v2.1h4.5v1.2h-5.9V382.3z"/>
	<path class="st2" d="M294.1,382.2h1.3l3.5,8h-1.5l-0.8-1.9h-3.7l-0.8,1.9h-1.4L294.1,382.2z M296.1,387l-1.4-3.2l-1.4,3.2H296.1z"
		/>
	<path class="st2" d="M301.2,383.6h-2.5v-1.3h6.4v1.3h-2.5v6.6h-1.4V383.6z"/>
	<path class="st2" d="M313,382.3h3.5c0.8,0,1.7,0.2,2.3,0.8c0.4,0.5,0.7,1.1,0.7,1.7l0,0c0,1.1-0.8,2.2-1.9,2.4l2.1,3h-1.6l-1.9-2.8
		h-1.7v2.8h-1.4L313,382.3z M316.4,386.2c1,0,1.6-0.5,1.6-1.3l0,0c0-0.9-0.6-1.3-1.6-1.3h-2v2.7L316.4,386.2z"/>
	<path class="st2" d="M306.1,382.3h5.9v1.2h-4.5v2.1h4v1.2h-4v2.1h4.5v1.2h-5.9V382.3z"/>
	<path class="st3" d="M301.3,543.7L301.3,543.7c0-1.9,1.1-3.5,2.9-3.5s2.8,1.6,2.8,3.5l0,0c0,1.9-1.1,3.5-2.8,3.5
		S301.3,545.6,301.3,543.7z M306.2,543.7L306.2,543.7c0-1.5-0.8-2.8-2-2.8s-2,1.3-2,2.8l0,0c0,1.5,0.8,2.8,2.1,2.8
		S306.2,545.2,306.2,543.7z"/>
	<path class="st3" d="M308.2,543.7L308.2,543.7c0-1.9,1.1-3.5,2.9-3.5s2.8,1.6,2.8,3.5l0,0c0,1.9-1.1,3.5-2.8,3.5
		S308.2,545.6,308.2,543.7z M313,543.7L313,543.7c0-1.5-0.8-2.8-2-2.8s-2,1.3-2,2.8l0,0c0,1.5,0.8,2.8,2.1,2.8S313,545.2,313,543.7z
		"/>
	<path class="st3" d="M318.6,545.4h-3.5l-0.2-0.6l3.8-4.6h0.7v4.5h1v0.6h-1v1.6h-0.7L318.6,545.4L318.6,545.4z M318.6,544.8v-3.5
		l-2.8,3.5H318.6z"/>
	<path class="st3" d="M40.3,476.6L40.3,476.6c0-1.9,1.1-3.5,2.8-3.5s2.8,1.6,2.8,3.5l0,0c0,1.9-1.1,3.5-2.8,3.5
		S40.3,478.5,40.3,476.6z M45.1,476.6L45.1,476.6c0-1.5-0.8-2.8-2.1-2.8s-2,1.3-2,2.8l0,0c0,1.5,0.8,2.8,2.1,2.8
		S45.1,478,45.1,476.6z"/>
	<path class="st3" d="M48.2,473.9l-1.3,0.4l-0.2-0.6l1.6-0.6h0.6v6.8h-0.8v-6L48.2,473.9L48.2,473.9z"/>
	<path class="st3" d="M50.5,476.6L50.5,476.6c0-1.9,1.1-3.5,2.8-3.5s2.8,1.6,2.8,3.5l0,0c0,1.9-1.1,3.5-2.8,3.5
		S50.5,478.5,50.5,476.6z M55.4,476.6L55.4,476.6c0-1.5-0.8-2.8-2.1-2.8s-2,1.3-2,2.8l0,0c0,1.5,0.8,2.8,2.1,2.8
		S55.4,478,55.4,476.6z"/>
	<path class="st3" d="M38.2,385.2L38.2,385.2c0-1.9,1.1-3.5,2.8-3.5s2.8,1.6,2.8,3.5l0,0c0,1.9-1.1,3.5-2.8,3.5
		S38.2,387.1,38.2,385.2z M43,385.2L43,385.2c0-1.5-0.8-2.8-2.1-2.8s-2,1.3-2,2.8l0,0c0,1.5,0.8,2.8,2.1,2.8S43,386.7,43,385.2z"/>
	<path class="st3" d="M46.1,382.6l-1.3,0.4l-0.2-0.6l1.6-0.6h0.5v6.8h-0.8L46.1,382.6z"/>
	<path class="st3" d="M48.3,387.5l0.6-0.5c0.5,0.6,1.2,1,2,1c0.7,0.1,1.4-0.5,1.5-1.2v-0.1l0,0c0-0.8-0.8-1.3-1.9-1.3h-0.4l-0.2-0.5
		l2.1-2.4h-3.3v-0.7H53v0.6l-2.2,2.3c1.2,0.1,2.2,0.7,2.2,1.9l0,0c0,1.2-1,2.1-2.2,2c0,0,0,0-0.1,0
		C49.8,388.7,48.9,388.2,48.3,387.5z"/>
	<path class="st3" d="M89.9,315.9L89.9,315.9c0-1.9,1.1-3.5,2.9-3.5s2.8,1.6,2.8,3.5l0,0c0,1.9-1.1,3.5-2.8,3.5
		S89.9,317.8,89.9,315.9z M94.8,315.9L94.8,315.9c0-1.5-0.8-2.8-2.1-2.8c-1.3,0-2,1.3-2,2.8l0,0c0,1.5,0.8,2.8,2.1,2.8
		C94.1,318.7,94.8,317.4,94.8,315.9L94.8,315.9z"/>
	<path class="st3" d="M97.9,313.3l-1.3,0.4l-0.2-0.6l1.6-0.6h0.6v6.8h-0.8L97.9,313.3L97.9,313.3z"/>
	<path class="st3" d="M100.1,318.3l0.5-0.5c0.5,0.5,1.2,0.9,1.9,0.9c0.8,0.1,1.6-0.6,1.6-1.4v-0.1l0,0c0-0.8-0.7-1.5-1.6-1.4h-0.1
		c-0.5,0-1,0.1-1.4,0.4l-0.5-0.3l0.2-3.3h3.9v0.7h-3.2l-0.1,2.1c0.4-0.2,0.9-0.3,1.3-0.3c1.1-0.1,2.2,0.7,2.3,1.8c0,0.1,0,0.1,0,0.2
		l0,0c0,1.2-1,2.2-2.2,2.2c-0.1,0-0.1,0-0.2,0C101.6,319.3,100.7,319,100.1,318.3z"/>
	<path class="st3" d="M150.8,255.3L150.8,255.3c0-1.9,1.1-3.5,2.9-3.5s2.8,1.6,2.8,3.5l0,0c0,1.9-1.1,3.5-2.8,3.5
		S150.8,257.1,150.8,255.3z M155.7,255.3L155.7,255.3c0-1.5-0.8-2.8-2.1-2.8s-2,1.3-2,2.8l0,0c0,1.5,0.8,2.8,2.1,2.8
		S155.7,256.7,155.7,255.3L155.7,255.3z"/>
	<path class="st3" d="M158.7,252.6l-1.3,0.4l-0.2-0.6l1.6-0.6h0.6v6.8h-0.8L158.7,252.6L158.7,252.6z"/>
	<path class="st3" d="M165.3,255.2v-0.1c-0.4,0.7-1.1,1.1-1.9,1.1c-1.2,0.1-2.2-0.7-2.3-1.9c0-0.1,0-0.1,0-0.2l0,0
		c0-1.3,1-2.3,2.3-2.3h0.1c0.7,0,1.3,0.2,1.8,0.7c0.6,0.7,0.9,1.7,0.8,2.6l0,0c0,2.1-1.1,3.6-2.8,3.6c-0.8,0-1.5-0.3-2.1-0.8
		l0.4-0.6c0.4,0.4,1,0.7,1.6,0.7C164.6,258,165.3,256.7,165.3,255.2z M165.1,254L165.1,254c0-0.9-0.8-1.6-1.6-1.5h-0.1
		c-0.8,0-1.6,0.6-1.6,1.5v0.1l0,0c0,0.8,0.7,1.5,1.5,1.5h0.1C164.3,255.6,165.1,254.9,165.1,254L165.1,254z"/>
	<path class="st3" d="M458.1,78.4L458.1,78.4c0-1.9,1.1-3.5,2.8-3.5s2.9,1.6,2.9,3.4l0,0c0,1.9-1.1,3.5-2.8,3.5
		S458.1,80.3,458.1,78.4z M463,78.4L463,78.4c0-1.5-0.8-2.8-2-2.8s-2,1.3-2,2.8l0,0c0,1.5,0.8,2.8,2.1,2.8S463,79.8,463,78.4z"/>
	<path class="st3" d="M464.7,81.1l2.4-2.2c1-0.9,1.4-1.4,1.4-2.1s-0.6-1.3-1.3-1.3c0,0,0,0-0.1,0c-0.8,0-1.4,0.5-1.8,1.2l-0.6-0.4
		c0.5-0.9,1.4-1.5,2.4-1.4c1.1-0.1,2,0.7,2.1,1.8v0.1l0,0c0,1-0.5,1.6-1.7,2.6l-1.8,1.6h3.6v0.7h-4.7L464.7,81.1z"/>
	<path class="st3" d="M474.8,78.3L474.8,78.3c-0.4,0.6-1.1,1-1.9,1c-1.2,0.1-2.2-0.7-2.3-1.9c0-0.1,0-0.1,0-0.2l0,0
		c0-1.3,1-2.3,2.3-2.3h0.1c0.7,0,1.3,0.2,1.8,0.7c0.6,0.7,0.9,1.7,0.8,2.6l0,0c0,2.1-1.1,3.6-2.8,3.6c-0.8,0-1.5-0.3-2-0.8l0.4-0.6
		c0.4,0.4,1,0.7,1.7,0.7C474.1,81.1,474.8,79.8,474.8,78.3z M474.7,77.1L474.7,77.1c0-0.9-0.8-1.5-1.7-1.5l0,0
		c-0.8,0-1.6,0.6-1.6,1.5v0.1l0,0c0,0.8,0.7,1.5,1.6,1.4h0.1C473.9,78.7,474.6,78,474.7,77.1L474.7,77.1L474.7,77.1z"/>
	<path class="st3" d="M491.4,156.2L491.4,156.2c0-1.9,1.1-3.5,2.8-3.5s2.8,1.6,2.8,3.4l0,0c0,1.9-1.1,3.5-2.8,3.5
		S491.4,158,491.4,156.2z M496.3,156.2L496.3,156.2c0-1.5-0.8-2.8-2-2.8s-2,1.3-2,2.8l0,0c0,1.5,0.8,2.8,2.1,2.8
		S496.3,157.6,496.3,156.2z"/>
	<path class="st3" d="M498.1,158.4l0.6-0.5c0.5,0.6,1.2,1,2,1c0.7,0.1,1.4-0.5,1.5-1.2v-0.1l0,0c0-0.8-0.8-1.3-1.9-1.3h-0.5
		l-0.2-0.4l2.1-2.4h-3.3v-0.7h4.3v0.6l-2.1,2.3c1.2,0.1,2.2,0.7,2.2,1.9l0,0c0,1.2-1,2.1-2.2,2c0,0,0,0-0.1,0
		C499.6,159.7,498.7,159.2,498.1,158.4z"/>
	<path class="st3" d="M504,156.2L504,156.2c0-1.9,1.1-3.5,2.8-3.5s2.8,1.6,2.8,3.4l0,0c0,1.9-1.1,3.5-2.8,3.5S504,158,504,156.2z
		 M508.9,156.2L508.9,156.2c0-1.5-0.8-2.8-2-2.8s-2,1.3-2,2.8l0,0c0,1.5,0.8,2.8,2.1,2.8S508.9,157.6,508.9,156.2z"/>
	<path class="st3" d="M738,162.2L738,162.2c0-1.9,1.1-3.5,2.8-3.5s2.8,1.6,2.8,3.4l0,0c0,1.9-1.1,3.5-2.8,3.5S738,164.1,738,162.2z
		 M742.9,162.2L742.9,162.2c0-1.5-0.8-2.8-2-2.8s-2,1.3-2,2.8l0,0c0,1.5,0.8,2.8,2.1,2.8S742.9,163.7,742.9,162.2z"/>
	<path class="st3" d="M748.4,164h-3.5l-0.2-0.6l3.8-4.6h0.7v4.5h1v0.6h-1v1.6h-0.7L748.4,164L748.4,164z M748.4,163.3v-3.5l-2.8,3.5
		H748.4z"/>
	<path class="st3" d="M752.2,159.6l-1.3,0.4l-0.2-0.6l1.6-0.6h0.6v6.8h-0.8v-6L752.2,159.6L752.2,159.6z"/>
	<path class="st3" d="M755.6,208.2L755.6,208.2c0-1.9,1.1-3.5,2.8-3.5s2.8,1.6,2.8,3.4l0,0c0,1.9-1.1,3.5-2.8,3.5
		S755.6,210,755.6,208.2z M760.5,208.2L760.5,208.2c0-1.5-0.8-2.8-2-2.8s-2,1.3-2,2.8l0,0c0,1.5,0.8,2.8,2.1,2.8
		S760.5,209.6,760.5,208.2z"/>
	<path class="st3" d="M766,209.9h-3.5l-0.2-0.6l3.8-4.6h0.7v4.5h1v0.6h-1v1.6h-0.7L766,209.9L766,209.9z M766,209.3v-3.5l-2.8,3.5
		H766z"/>
	<path class="st3" d="M768.7,210.9l2.4-2.1c1-0.9,1.4-1.4,1.4-2.1c0-0.7-0.6-1.3-1.3-1.3h-0.1c-0.8,0-1.4,0.5-1.8,1.1l-0.6-0.4
		c0.5-0.9,1.4-1.5,2.4-1.4c1.1-0.1,2,0.7,2.1,1.8v0.1l0,0c0,1-0.5,1.6-1.7,2.6l-1.8,1.6h3.6v0.7h-4.5L768.7,210.9z"/>
	<path class="st3" d="M803.2,223L803.2,223c0-1.9,1.1-3.5,2.8-3.5s2.8,1.6,2.8,3.4l0,0c0,1.9-1.1,3.5-2.8,3.5S803.2,224.8,803.2,223
		z M808.1,223L808.1,223c0-1.5-0.8-2.8-2-2.8s-2,1.3-2,2.8l0,0c0,1.5,0.8,2.8,2.1,2.8S808.1,224.4,808.1,223z"/>
	<path class="st3" d="M813.6,224.7h-3.5l-0.2-0.6l3.8-4.6h0.7v4.5h1v0.6h-1v1.6h-0.7L813.6,224.7z M813.6,224.1v-3.5l-2.8,3.5H813.6
		z"/>
	<path class="st3" d="M816.4,225.2l0.6-0.5c0.5,0.6,1.2,1,2,1c0.7,0.1,1.4-0.5,1.5-1.2v-0.1l0,0c0-0.8-0.8-1.3-1.9-1.3h-0.4
		l-0.2-0.4l2.1-2.4h-3.3v-0.7h4.3v0.6l-2.1,2.3c1.2,0.1,2.2,0.7,2.2,1.9l0,0c0,1.2-1,2.1-2.2,2c0,0,0,0-0.1,0
		C818,226.4,817,226,816.4,225.2z"/>
	<path class="st3" d="M765,301.7L765,301.7c0-1.9,1.1-3.5,2.8-3.5s2.8,1.6,2.8,3.5l0,0c0,1.9-1.1,3.5-2.8,3.5S765,303.6,765,301.7z
		 M769.9,301.7L769.9,301.7c0-1.5-0.8-2.8-2-2.8s-2,1.3-2,2.8l0,0c0,1.5,0.8,2.8,2.1,2.8S769.9,303.2,769.9,301.7z"/>
	<path class="st3" d="M775.4,303.5h-3.6l-0.2-0.6l3.8-4.6h0.7v4.5h1v0.6h-1v1.6h-0.7V303.5z M775.4,302.9v-3.5l-2.8,3.5H775.4z"/>
	<path class="st3" d="M778.2,304.1l0.5-0.5c0.5,0.5,1.2,0.9,1.9,0.9c0.8,0.1,1.6-0.6,1.6-1.4V303l0,0c0-0.8-0.7-1.5-1.6-1.4h-0.1
		c-0.5,0-1,0.1-1.4,0.4l-0.5-0.3l0.2-3.3h3.9v0.7h-3.2l-0.1,2.1c0.4-0.2,0.9-0.3,1.3-0.3c1.1-0.1,2.2,0.7,2.3,1.8c0,0.1,0,0.1,0,0.2
		l0,0c0,1.2-1,2.2-2.2,2.2c-0.1,0-0.1,0-0.2,0C779.7,305.2,778.8,304.8,778.2,304.1z"/>
	<path class="st3" d="M709.4,246.7L709.4,246.7c0-1.9,1.1-3.5,2.8-3.5s2.8,1.6,2.8,3.5l0,0c0,1.9-1.1,3.5-2.8,3.5
		S709.4,248.6,709.4,246.7z M714.3,246.7L714.3,246.7c0-1.5-0.8-2.8-2-2.8s-2,1.3-2,2.8l0,0c0,1.5,0.8,2.8,2.1,2.8
		S714.3,248.1,714.3,246.7z"/>
	<path class="st3" d="M716.1,248.9l0.6-0.5c0.5,0.6,1.2,1,2,1c0.7,0.1,1.4-0.5,1.5-1.2v-0.1l0,0c0-0.8-0.8-1.3-1.9-1.3h-0.5
		l-0.2-0.5l2.1-2.4h-3.3v-0.7h4.3v0.6l-2.1,2.3c1.2,0.1,2.2,0.7,2.2,1.9l0,0c0,1.2-1,2.1-2.2,2c0,0,0,0-0.1,0
		C717.6,250.2,716.7,249.7,716.1,248.9z"/>
	<path class="st3" d="M722.9,249.5c-0.6-0.7-1-1.7-0.8-2.6l0,0c0-2,1-3.6,2.8-3.6c0.7,0,1.5,0.3,2,0.8l-0.4,0.6
		c-0.4-0.4-1-0.6-1.6-0.7c-1.3,0-2,1.4-2,2.9v0.1c0.4-0.6,1.1-1,1.9-1c1.2-0.1,2.2,0.8,2.3,2v0.1l0,0c0,1.3-1.1,2.3-2.3,2.2h-0.1
		C724,250.2,723.4,249.9,722.9,249.5z M726.3,247.9L726.3,247.9c0-0.8-0.7-1.5-1.5-1.4h-0.1c-0.9-0.1-1.6,0.6-1.7,1.5l0,0l0,0
		c0,0.9,0.8,1.5,1.6,1.5h0.1c0.8,0.1,1.6-0.6,1.6-1.4C726.3,248,726.3,248,726.3,247.9L726.3,247.9z"/>
	<path class="st3" d="M270.7,255.3L270.7,255.3c0-1.9,1.1-3.5,2.9-3.5s2.8,1.6,2.8,3.5l0,0c0,1.9-1.1,3.5-2.8,3.5
		S270.7,257.1,270.7,255.3z M275.6,255.3L275.6,255.3c0-1.5-0.8-2.8-2-2.8s-2,1.3-2,2.8l0,0c0,1.5,0.8,2.8,2.1,2.8
		S275.6,256.7,275.6,255.3L275.6,255.3z"/>
	<path class="st3" d="M277.3,258l2.4-2.1c1-0.9,1.4-1.4,1.4-2.1s-0.6-1.3-1.3-1.3h-0.1c-0.8,0-1.4,0.5-1.8,1.1l-0.6-0.4
		c0.5-0.9,1.4-1.5,2.4-1.4c1.1-0.1,2,0.7,2.1,1.8v0.1l0,0c0,1-0.5,1.6-1.7,2.6l-1.8,1.6h3.6v0.7h-4.7L277.3,258z"/>
	<path class="st3" d="M283.1,257.7l0.5-0.5c0.5,0.5,1.2,0.9,1.9,0.9c0.8,0.1,1.6-0.6,1.6-1.4v-0.1l0,0c0-0.8-0.7-1.5-1.6-1.4h-0.1
		c-0.5,0-1,0.1-1.4,0.4l-0.5-0.3l0.2-3.3h3.9v0.7h-3.2l-0.1,2.1c0.4-0.2,0.9-0.3,1.3-0.3c1.1-0.1,2.2,0.7,2.3,1.8c0,0.1,0,0.1,0,0.2
		l0,0c0,1.2-1,2.2-2.2,2.2c-0.1,0-0.1,0-0.2,0C284.6,258.7,283.7,258.3,283.1,257.7z"/>
	<path class="st3" d="M227.9,295L227.9,295c0-1.9,1.1-3.5,2.9-3.5s2.8,1.6,2.8,3.5l0,0c0,1.9-1.1,3.5-2.8,3.5S227.9,296.9,227.9,295
		z M232.8,295L232.8,295c0-1.5-0.8-2.8-2-2.8s-2,1.3-2,2.8l0,0c0,1.5,0.8,2.8,2.1,2.8S232.8,296.5,232.8,295L232.8,295z"/>
	<path class="st3" d="M234.6,297.8l2.4-2.1c1-0.9,1.4-1.4,1.4-2.1s-0.6-1.3-1.3-1.3H237c-0.8,0-1.4,0.5-1.8,1.1l-0.6-0.4
		c0.5-0.9,1.4-1.4,2.4-1.4c1.1-0.1,2,0.7,2.1,1.8v0.1l0,0c0,1-0.5,1.6-1.7,2.6l-1.8,1.6h3.6v0.7h-4.7L234.6,297.8z"/>
	<path class="st3" d="M241.6,292.4l-1.3,0.4l-0.2-0.6l1.6-0.6h0.6v6.8h-0.8L241.6,292.4z"/>
	<path class="st3" d="M180.1,424.9h5v1h-3.8v1.7h3.4v1h-3.4v1.8h3.8v1h-5V424.9z"/>
	<path class="st3" d="M192.5,431.8l-0.8-0.7c-0.6,0.4-1.3,0.6-2,0.6c-1.9,0-3.4-1.4-3.5-3.3v-0.1l0,0c0.1-1.9,1.8-3.4,3.8-3.2
		c1.7,0.1,3.1,1.5,3.2,3.2l0,0c0,0.7-0.2,1.5-0.7,2.1l0.8,0.6L192.5,431.8z M190.9,430.4l-1.2-1l0.8-0.9l1.2,1.1
		c0.2-0.4,0.3-0.8,0.3-1.3l0,0c0-1.3-0.9-2.3-2.2-2.4c0,0,0,0-0.1,0c-1.3,0-2.3,1-2.3,2.3v0.1l0,0c0,1.3,1,2.3,2.2,2.4
		C190.1,430.6,190.5,430.5,190.9,430.4L190.9,430.4z"/>
	<path class="st3" d="M194.5,428.8v-3.9h1.2v3.8c0,1.2,0.6,1.9,1.7,1.9s1.7-0.6,1.7-1.9v-3.9h1.2v3.8c0.2,1.5-0.9,2.8-2.3,3
		c-0.2,0-0.4,0-0.6,0c-1.5,0.1-2.7-1-2.9-2.4C194.5,429.2,194.5,429,194.5,428.8z"/>
	<path class="st3" d="M201.9,424.9h1.2v6.7h-1.2V424.9z"/>
	<path class="st3" d="M204.9,424.9h2.6c1.2-0.2,2.4,0.7,2.5,1.9c0,0.1,0,0.2,0,0.3l0,0c0,1.5-1.2,2.3-2.7,2.3H206v2.1h-1.2
		L204.9,424.9L204.9,424.9L204.9,424.9z M207.5,428.4c0.9,0,1.5-0.5,1.5-1.2l0,0c0-0.8-0.6-1.2-1.5-1.2h-1.4v2.4L207.5,428.4z"/>
	<path class="st3" d="M211.3,424.9h1.3l2,3.2l2-3.2h1.3v6.7h-1.2v-4.8l-2.1,3.2l0,0l-2.1-3.1v4.8h-1.2V424.9z"/>
	<path class="st3" d="M219.6,424.9h5v1h-3.8v1.7h3.4v1h-3.4v1.8h3.8v1h-5V424.9z"/>
	<path class="st3" d="M226.1,424.9h1.1l3.6,4.6v-4.6h1.2v6.7h-1l-3.7-4.8v4.8h-1.2L226.1,424.9L226.1,424.9z"/>
	<path class="st3" d="M235.3,426h-2.1v-1.1h5.5v1.1h-2.1v5.6h-1.2L235.3,426L235.3,426z"/>
	<path class="st3" d="M189.3,439.8L189.3,439.8c0-1.9,1.5-3.4,3.3-3.5h0.1c1,0,1.9,0.3,2.6,1l-0.8,0.9c-0.5-0.5-1.2-0.8-1.9-0.8
		c-1.2,0-2.2,1.1-2.2,2.3c0,0,0,0,0,0.1l0,0c-0.1,1.2,0.9,2.3,2.1,2.4c0,0,0,0,0.1,0c0.7,0,1.4-0.3,1.9-0.9l0.8,0.8
		c-0.7,0.8-1.7,1.2-2.7,1.2C190.9,443.2,189.4,441.7,189.3,439.8C189.3,439.9,189.3,439.8,189.3,439.8z"/>
	<path class="st3" d="M196.7,436.4h5v1h-3.8v1.7h3.4v1h-3.4v1.8h3.8v1h-5V436.4z"/>
	<path class="st3" d="M203.1,436.4h1.1l3.6,4.6v-4.6h1.2v6.7h-1l-3.7-4.8v4.8h-1.2L203.1,436.4L203.1,436.4z"/>
	<path class="st3" d="M212.3,437.5h-2.1v-1.1h5.5v1.1h-2.1v5.6h-1.2L212.3,437.5L212.3,437.5z"/>
	<path class="st3" d="M216.9,436.4h5v1h-3.8v1.7h3.4v1h-3.4v1.8h3.8v1h-5V436.4z"/>
	<path class="st3" d="M223.3,436.4h3c0.7,0,1.4,0.2,1.9,0.7c0.4,0.4,0.6,0.9,0.6,1.5l0,0c0,1-0.6,1.8-1.6,2l1.8,2.5h-1.4l-1.6-2.3
		h-1.5v2.3h-1.2V436.4z M226.2,439.8c0.8,0,1.4-0.4,1.4-1.1l0,0c0-0.7-0.5-1.1-1.4-1.1h-1.7v2.2H226.2z"/>
	<path class="st3" d="M664.5,371.8h3.4c0.7-0.1,1.5,0.2,2,0.7c0.3,0.3,0.5,0.8,0.5,1.2l0,0c0,0.7-0.4,1.4-1.1,1.7
		c0.9,0.2,1.5,0.9,1.5,1.8l0,0c0,1.4-1.1,2.1-2.8,2.1h-3.5L664.5,371.8z M669,374c0-0.6-0.5-1-1.3-1h-1.9v2h1.8
		C668.5,375,669,374.6,669,374z M667.9,376.1h-2.1v2.1h2.2c0.9,0,1.5-0.4,1.5-1l0,0C669.5,376.5,668.9,376.1,667.9,376.1
		L667.9,376.1z"/>
	<path class="st3" d="M672.3,371.8h1.3v6.3h4v1.2h-5.3V371.8z"/>
	<path class="st3" d="M678.6,376.2v-4.4h1.3v4.3c0,1.4,0.7,2.1,1.9,2.1s1.9-0.7,1.9-2.1v-4.4h1.3v4.3c0,2.2-1.3,3.4-3.2,3.4
		c-1.7,0.1-3.1-1.1-3.2-2.8C678.6,376.5,678.6,376.3,678.6,376.2z"/>
	<path class="st3" d="M686.9,371.8h5.6v1.2h-4.3v2h3.8v1.2h-3.8v2h4.3v1.2h-5.7L686.9,371.8z"/>
	<path class="st3" d="M697.3,371.8h1.3v3.1h3.6v-3.1h1.3v7.5h-1.3v-3.2h-3.6v3.2h-1.3V371.8z"/>
	<path class="st3" d="M708.2,371.8h1.2l3.3,7.6h-1.4l-0.8-1.8h-3.6l-0.8,1.8h-1.4L708.2,371.8z M710.1,376.4l-1.3-3l-1.3,3H710.1z"
		/>
	<path class="st3" d="M714.1,371.8h1.3v6.3h4v1.2h-5.3V371.8z"/>
	<path class="st3" d="M720.7,371.8h1.3v6.3h4v1.2h-5.2L720.7,371.8z"/>
	<path class="st3" d="M264.1,527.9h3c1.8,0,2.9,1,2.9,2.5l0,0c0,1.7-1.4,2.6-3,2.6h-1.5v2.4h-1.3L264.1,527.9z M267,531.9
		c1,0,1.6-0.6,1.6-1.3l0,0c0-0.9-0.6-1.3-1.6-1.3h-1.5v2.7L267,531.9z"/>
	<path class="st3" d="M271.3,527.9h3.4c0.8-0.1,1.6,0.2,2.2,0.8c0.4,0.4,0.6,1,0.6,1.6l0,0c0,1.1-0.7,2-1.8,2.3l2,2.9h-1.6l-1.9-2.6
		h-1.7v2.6h-1.3L271.3,527.9z M274.6,531.7c1,0,1.5-0.5,1.5-1.3l0,0c0-0.8-0.6-1.2-1.6-1.2h-1.9v2.5H274.6z"/>
	<path class="st3" d="M278.8,531.7L278.8,531.7c0.1-2.2,2-3.9,4.1-3.7c2,0.1,3.6,1.7,3.7,3.7l0,0c-0.1,2.2-2,3.9-4.1,3.7
		C280.5,535.4,278.9,533.8,278.8,531.7z M285.3,531.7L285.3,531.7c0.1-1.4-1.1-2.6-2.5-2.7h-0.1c-1.4,0-2.6,1.1-2.6,2.5v0.1l0,0
		c0,1.4,1.1,2.6,2.5,2.7h0.1c1.4,0,2.5-1.1,2.5-2.5C285.3,531.8,285.3,531.8,285.3,531.7L285.3,531.7z"/>
	<path class="st3" d="M287.2,534.4l0.9-0.9c0.3,0.5,0.9,0.9,1.5,0.9c0.7,0,1.2-0.5,1.2-1.5V528h1.4v5c0,0.7-0.2,1.5-0.7,2
		s-1.2,0.7-1.8,0.7C288.7,535.6,287.8,535.2,287.2,534.4z"/>
	<path class="st3" d="M294,527.9h5.6v1.2h-4.3v2h3.8v1.2h-3.8v2h4.3v1.2h-5.7v-7.6L294,527.9L294,527.9z"/>
	<path class="st3" d="M300.9,531.7L300.9,531.7c0-2.1,1.6-3.9,3.7-3.9c0.1,0,0.1,0,0.2,0c1.1-0.1,2.2,0.4,3,1.2l-0.9,1
		c-0.5-0.6-1.3-0.9-2.1-0.9c-1.4,0-2.5,1.2-2.5,2.6c0,0,0,0,0,0.1l0,0c-0.1,1.4,1,2.6,2.4,2.7h0.1c0.8,0,1.6-0.4,2.2-1l0.9,0.9
		c-0.8,0.9-1.9,1.4-3.1,1.3c-2.1,0.1-3.8-1.6-3.9-3.7C300.9,531.8,300.9,531.8,300.9,531.7z"/>
	<path class="st3" d="M311,529.2h-2.4V528h6.2v1.2h-2.4v6.3h-1.3L311,529.2z"/>
	<path class="st3" d="M318.9,534.4l0.8-1c0.6,0.6,1.5,1,2.4,1c0.8,0,1.3-0.4,1.3-1l0,0c0-0.5-0.3-0.8-1.7-1.2
		c-1.6-0.4-2.5-0.9-2.5-2.2l0,0c0.1-1.3,1.1-2.3,2.4-2.2c0.1,0,0.1,0,0.2,0c1,0,2,0.3,2.7,1l-0.7,1c-0.6-0.5-1.3-0.7-2-0.8
		c-0.8,0-1.2,0.4-1.2,0.9l0,0c0,0.6,0.4,0.8,1.8,1.2s2.4,1,2.4,2.2l0,0c0,1.4-1.1,2.2-2.7,2.2C320.9,535.6,319.8,535.2,318.9,534.4z
		"/>
	<path class="st3" d="M326.3,527.9h3c1.8,0,2.9,1,2.9,2.5l0,0c0,1.7-1.4,2.6-3,2.6h-1.5v2.4h-1.4V527.9z M329.2,531.9
		c1,0,1.6-0.6,1.6-1.3l0,0c0-0.9-0.6-1.3-1.6-1.3h-1.5v2.7L329.2,531.9z"/>
	<path class="st3" d="M335.4,527.9h1.2l3.3,7.6h-1.4l-0.8-1.8h-3.6l-0.8,1.8h-1.4L335.4,527.9z M337.3,532.5l-1.3-3l-1.3,3H337.3z"
		/>
	<path class="st3" d="M340.5,531.7L340.5,531.7c0-2.1,1.6-3.9,3.7-3.9c0.1,0,0.1,0,0.2,0c1.1-0.1,2.2,0.4,3,1.2l-0.9,1
		c-0.5-0.6-1.3-0.9-2.1-0.9c-1.4,0-2.5,1.2-2.5,2.6c0,0,0,0,0,0.1l0,0c-0.1,1.4,1,2.6,2.4,2.7h0.1c0.8,0,1.6-0.4,2.2-1l0.9,0.9
		c-0.8,0.9-1.9,1.4-3.1,1.3c-2.1,0-3.8-1.7-3.8-3.8C340.5,531.8,340.5,531.8,340.5,531.7z"/>
	<path class="st3" d="M348.8,527.9h5.6v1.2h-4.3v2h3.8v1.2h-3.8v2h4.3v1.2h-5.6V527.9z"/>
	<path class="st4" d="M498,435.5h1.2v5.6h3.5v1.1H498V435.5z"/>
	<path class="st4" d="M503.3,438.8L503.3,438.8c0.1-1.9,1.8-3.4,3.8-3.2c1.7,0.1,3.1,1.5,3.2,3.2l0,0c-0.1,1.9-1.8,3.4-3.8,3.2
		C504.8,441.9,503.4,440.6,503.3,438.8z M509,438.8L509,438.8c0-1.3-0.9-2.3-2.2-2.4c0,0,0,0-0.1,0c-1.3,0-2.3,1-2.3,2.3v0.1l0,0
		c0,1.3,0.9,2.3,2.2,2.4h0.1c1.2,0,2.3-1,2.3-2.3C509,438.9,509,438.9,509,438.8L509,438.8z"/>
	<path class="st4" d="M511.7,435.5h3c0.6,0,1.3,0.2,1.8,0.6c0.3,0.3,0.5,0.7,0.5,1.1l0,0c0,0.7-0.4,1.3-1,1.5
		c0.8,0.2,1.3,0.8,1.3,1.6l0,0c0,1.2-1,1.8-2.5,1.8h-3.1L511.7,435.5L511.7,435.5z M515.7,437.4c0-0.5-0.4-0.9-1.2-0.9h-1.7v1.8h1.6
		C515.2,438.3,515.7,438,515.7,437.4L515.7,437.4z M514.7,439.3h-1.9v1.8h2c0.8,0,1.3-0.3,1.3-0.9l0,0
		C516.1,439.6,515.7,439.3,514.7,439.3L514.7,439.3z"/>
	<path class="st4" d="M518.6,435.5h3c0.6,0,1.3,0.2,1.8,0.6c0.3,0.3,0.5,0.7,0.5,1.1l0,0c0,0.7-0.4,1.3-1,1.5
		c0.8,0.2,1.3,0.8,1.3,1.6l0,0c0,1.2-1,1.8-2.5,1.8h-3.1V435.5z M522.6,437.4c0-0.5-0.4-0.9-1.2-0.9h-1.6v1.8h1.6
		C522.2,438.3,522.7,438,522.6,437.4L522.6,437.4z M521.6,439.3h-1.8v1.8h2c0.8,0,1.3-0.3,1.3-0.9l0,0
		C523,439.6,522.6,439.3,521.6,439.3L521.6,439.3z"/>
	<path class="st4" d="M527.2,439.5l-2.7-4.1h1.4l1.9,3l1.9-3h1.3l-2.7,4v2.7h-1.2L527.2,439.5z"/>
	<g>
		<path class="st5" d="M464.5,568.6h8.4v1.8h-6.4v3h5.7v1.8h-5.7v3h6.5v1.8h-8.5V568.6z"/>
		<path class="st5" d="M479.4,568.5h1.8l5,11.5h-2l-1.2-2.8h-5.4l-1.2,2.8h-2L479.4,568.5z M482.3,575.5l-2-4.5l-2,4.5H482.3z"/>
		<path class="st5" d="M487.3,578.3l1.2-1.4c1,0.9,2.2,1.5,3.6,1.5c1.2,0,2-0.6,2-1.4l0,0c0-0.8-0.5-1.2-2.6-1.7
			c-2.4-0.6-3.8-1.3-3.8-3.4l0,0c0-2,1.6-3.3,3.9-3.3c1.5,0,3,0.5,4.1,1.4l-1.1,1.5c-0.9-0.7-2-1.1-3.1-1.2c-1.2,0-1.8,0.6-1.8,1.3
			l0,0c0,0.9,0.5,1.3,2.7,1.8c2.4,0.6,3.6,1.5,3.6,3.3l0,0c0,2.1-1.7,3.4-4.1,3.4C490.2,580.2,488.6,579.5,487.3,578.3z"/>
		<path class="st5" d="M501,570.5h-3.6v-1.9h9.2v1.8H503v9.5h-2V570.5z"/>
		<path class="st5" d="M513.6,568.6h4.5c2.7,0,4.3,1.5,4.3,3.8l0,0c0,2.5-2,3.9-4.5,3.9h-2.3v3.7h-2V568.6z M517.9,574.5
			c1.5,0,2.5-0.8,2.5-2l0,0c0-1.3-1-2-2.5-2h-2.3v4.1L517.9,574.5z"/>
		<path class="st5" d="M524.4,568.6h2v9.5h6v1.8h-8V568.6z"/>
		<path class="st5" d="M538.5,568.5h1.8l5,11.5h-2.1l-1.2-2.8h-5.4l-1.2,2.8h-2L538.5,568.5z M541.4,575.5l-2-4.5l-2,4.5H541.4z"/>
		<path class="st5" d="M546.9,578.5l6.7-8.1h-6.5v-1.8h9.1v1.5l-6.7,8.1h6.7v1.8h-9.3V578.5z"/>
		<path class="st5" d="M562.7,568.5h1.8l5,11.5h-2.1l-1.2-2.8h-5.4l-1.2,2.8h-2L562.7,568.5z M565.6,575.5l-2-4.5l-2,4.5H565.6z"/>
	</g>
	<rect x="242.4" y="509.4" class="st6" width="1.1" height="0.4"/>
	<rect x="27.6" y="455" class="st6" width="0.4" height="1.1"/>
	
		<rect x="54.1" y="331.1" transform="matrix(0.7071 -0.7071 0.7071 0.7071 -236.9575 143.4337)" class="st7" width="1.1" height="53.3"/>
	
		<rect x="78.2" y="307" transform="matrix(0.7071 -0.7071 0.7071 0.7071 -212.8625 153.4155)" class="st7" width="1.1" height="53.3"/>
	
		<rect x="192.6" y="192.5" transform="matrix(0.7071 -0.7071 0.7071 0.7071 -98.5272 200.8229)" class="st7" width="1.1" height="53.7"/>
	
		<rect x="264.4" y="137.9" transform="matrix(0.7071 -0.7071 0.7071 0.7071 -33.6868 233.4484)" class="st7" width="1.1" height="39"/>
	<polygon class="st6" points="137.9,312.7 137.9,312.6 138.6,311.9 	"/>
	<polygon class="st6" points="99.9,274.7 99.8,274.6 100.6,273.9 	"/>
	
		<rect x="248.6" y="153.7" transform="matrix(0.7071 -0.7071 0.7071 0.7071 -49.4969 226.9111)" class="st7" width="1.1" height="39"/>
	
		<rect x="237.3" y="214.8" transform="matrix(0.6869 -0.7267 0.7267 0.6869 -81.7345 240.1415)" class="st6" width="1.1" height="0.3"/>
	
		<rect x="284.5" y="165.6" transform="matrix(0.7092 -0.705 0.705 0.7092 -33.8791 249.1304)" class="st6" width="1.1" height="0.1"/>
	
		<rect x="272.3" y="177.7" transform="matrix(0.705 -0.7092 0.7092 0.705 -45.5603 245.9455)" class="st6" width="1.1" height="0.1"/>
	<path class="st8" d="M251.3,143.5"/>
	
		<rect x="295.2" y="154.8" transform="matrix(0.7483 -0.6634 0.6634 0.7483 -28.2737 235.1843)" class="st6" width="1.1" height="0.1"/>
	
		<rect x="306.7" y="143.4" transform="matrix(0.6654 -0.7465 0.7465 0.6654 -4.2609 277.356)" class="st6" width="1.1" height="0.1"/>
	
		<rect x="324.1" y="78.7" transform="matrix(0.707 -0.7072 0.7072 0.707 25.6483 258.3833)" class="st7" width="1.1" height="39.1"/>
	<polygon class="st7" points="360.7,98.6 359.6,98.6 359.6,89.6 354.1,89.6 329.6,65.2 330.4,64.4 354.5,88.5 360.7,88.5 	"/>
	<rect x="371.8" y="58.2" class="st7" width="1.1" height="40.4"/>
	<rect x="384.3" y="58.3" class="st7" width="1.1" height="40.4"/>
	<rect x="547.7" y="58.3" class="st7" width="1.1" height="40.3"/>
	<rect x="578.3" y="58.3" class="st7" width="1.1" height="40.3"/>
	<rect x="608.8" y="58.3" class="st7" width="1.1" height="40.4"/>
	<rect x="630.2" y="58.3" class="st7" width="1.1" height="40.3"/>
	<rect x="673.7" y="58.3" class="st7" width="1.1" height="40.3"/>
	<path class="st8" d="M684.9,171.5"/>
	<path class="st8" d="M688.9,167.5"/>
	<path class="st8" d="M745.7,94.6"/>
	<polygon class="st7" points="736.1,214.6 735.3,213.9 770.9,178.3 782.9,190.3 811.8,161.4 812.6,162.1 782.9,191.9 770.9,179.9 	
		"/>
	<polygon class="st7" points="759.9,238.5 759.1,237.7 793.9,202.9 782.5,191.5 783.3,190.7 795.4,202.9 	"/>
	
		<rect x="823.1" y="233.1" transform="matrix(0.7071 -0.7071 0.7071 0.7071 83.3021 668.4214)" class="st7" width="50.8" height="1.1"/>
	<path class="st8" d="M882.5,231.2"/>
	
		<rect x="809.4" y="360.8" transform="matrix(0.7071 -0.7071 0.7071 0.7071 -17.9269 678.4025)" class="st6" width="1.1" height="0.1"/>
	
		<rect x="729.8" y="202.4" transform="matrix(0.706 -0.7082 0.7082 0.706 13.7016 600.6887)" class="st7" width="1.1" height="162.9"/>
	
		<rect x="725.1" y="269.5" transform="matrix(0.7071 -0.7071 0.7071 0.7071 27.2544 605.8899)" class="st7" width="39.8" height="1.1"/>
	<polygon class="st7" points="210.9,378.1 210.1,377.3 250.7,336.6 302.5,285 303.3,285.7 251.5,337.4 	"/>
	<path class="st8" d="M193.2,279.2"/>
	
		<rect x="251.2" y="237.6" transform="matrix(0.7097 -0.7045 0.7045 0.7097 -123.0408 258.1829)" class="st7" width="1.1" height="81.6"/>
	
		<rect x="221.6" y="267.2" transform="matrix(0.7071 -0.7071 0.7071 0.7071 -152.7902 247.3254)" class="st7" width="1.1" height="81.8"/>
	<path class="st9" d="M718.3,122"/>
	<path class="st9" d="M725.1,115.1"/>
	
		<rect x="859" y="240.5" transform="matrix(0.7071 -0.7071 0.7071 0.7071 85.4991 688.5063)" class="st7" width="29.7" height="1.1"/>
	<polyline class="st10" points="106.3,365.8 134.4,394 214.9,474.6 	"/>
	
		<rect x="160.1" y="343.4" transform="matrix(0.7076 -0.7066 0.7066 0.7076 -249.9638 236.3951)" class="st7" width="1.1" height="153.7"/>
	<line class="st11" x1="172.2" y1="354.9" x2="134.4" y2="394"/>
	
		<rect x="126.2" y="373.9" transform="matrix(0.6948 -0.7192 0.7192 0.6948 -222.4921 224.5679)" class="st7" width="54.3" height="1.1"/>
	<line class="st11" x1="199" y1="381.8" x2="160.4" y2="420.2"/>
	
		<rect x="152.5" y="400.5" transform="matrix(0.7086 -0.7056 0.7056 0.7086 -230.589 243.698)" class="st7" width="54.5" height="1.1"/>
	<line class="st11" x1="103.4" y1="410.7" x2="127.3" y2="386.8"/>
	
		<rect x="98.4" y="398.2" transform="matrix(0.7071 -0.7071 0.7071 0.7071 -248.1808 198.3237)" class="st7" width="33.8" height="1.1"/>
	<path class="st12" d="M93.6,442.2"/>
	<polygon class="st7" points="140.7,475 100,434.3 92.6,441.2 91.9,440.5 100.1,432.8 141.4,474.2 	"/>
	<polygon class="st7" points="153.7,461.9 145.7,453.1 169.7,429.3 170.5,430.1 147.2,453.1 154.5,461.2 	"/>
	<line class="st11" x1="175" y1="482.1" x2="199" y2="458.6"/>
	
		<rect x="170.2" y="469.8" transform="matrix(0.7163 -0.6978 0.6978 0.7163 -275.1493 263.933)" class="st7" width="33.6" height="1.1"/>
	
		<rect x="720.8" y="104.3" transform="matrix(0.7071 -0.7071 0.7071 0.7071 141.2417 550.6844)" class="st2" width="29.1" height="1.1"/>
	
		<rect x="863.1" y="262.8" transform="matrix(0.7071 -0.7071 0.7071 0.7071 72.8255 702.4918)" class="st7" width="42.6" height="1.1"/>
	<polygon class="st7" points="623.1,237.4 622.1,192.7 402,192.7 401.8,237.3 400.7,237.3 400.9,191.7 623.1,191.7 623.2,192.2 
		624.2,237.4 	"/>
	<rect x="28" y="455" class="st7" width="40.5" height="1.1"/>
	
		<rect x="118.7" y="266.9" transform="matrix(0.7071 -0.7071 0.7071 0.7071 -172.636 170.3058)" class="st7" width="1.1" height="53.3"/>
	
		<rect x="216.4" y="168.7" transform="matrix(0.7071 -0.7071 0.7071 0.7071 -74.7254 210.6841)" class="st7" width="1.1" height="53.7"/>
	
		<rect x="292.7" y="109.6" transform="matrix(0.7071 -0.7071 0.7071 0.7071 -5.5996 245.2627)" class="st7" width="1.1" height="39.6"/>
	
		<rect x="305.5" y="97.1" transform="matrix(0.7071 -0.7071 0.7071 0.7071 7.123 250.5877)" class="st7" width="1.1" height="39.2"/>
	<polygon class="st7" points="298.7,218.3 298.3,217.9 298.1,218.1 276.2,196.2 277,195.5 298.5,217 321,194.2 321.7,195 
		299.2,217.7 299.3,217.8 	"/>
	<polygon class="st7" points="334.8,253.4 312.6,231.4 312.6,231.4 312,230.8 312.4,230.4 312.2,230.2 334.6,207.8 335.3,208.6 
		313.3,230.6 335.5,252.6 	"/>
	<polygon class="st7" points="322.3,305.5 302.9,286.1 302.9,286.1 302.3,285.5 302.7,285.1 302.5,285 357,230.3 357.8,231.1 
		303.6,285.3 323,304.7 	"/>
	<rect x="67.6" y="509.8" class="st7" width="1.1" height="51.8"/>
	<rect x="189.8" y="509.8" class="st2" width="1.1" height="51.8"/>
	<rect x="242.4" y="510.4" class="st2" width="1.1" height="51"/>
	<rect x="242.4" y="509.8" class="st7" width="1.1" height="51.8"/>
	<rect x="189.1" y="510" class="st7" width="1.1" height="51.8"/>
</g>
<title>Asset 1</title>
<g id="Buttons">
	<g id="_x30_1_1_">
		<circle class="st13" cx="471.7" cy="601.5" r="15.6"/>
		<g>
			<g>
				<g>
					<path class="st2" d="M472,596.7l-2.6,0.7l-0.5-2.1l3.9-1.2h1.8v14.7h-2.5L472,596.7L472,596.7z"/>
				</g>
			</g>
		</g>
	</g>
	<g id="_x30_2_1_">
		<circle class="st14" cx="382.3" cy="453.9" r="15.6"/>
		<g>
			<g>
				<g>
					<path class="st2" d="M377.1,459.3l5-4.3c2-1.7,2.7-2.6,2.7-3.9c0-1.4-1-2.3-2.4-2.3c-1.3,0-2.2,0.7-3.3,2.2l-1.8-1.4
						c1.4-1.9,2.8-3,5.4-3c2.9,0,4.8,1.7,4.8,4.3l0,0c0,2.3-1.2,3.5-3.8,5.6l-3,2.5h6.9v2.2h-10.5L377.1,459.3L377.1,459.3z"/>
				</g>
			</g>
		</g>
	</g>
	<g id="_x30_3_1_">
		<circle class="st15" cx="77.3" cy="357.4" r="15.6"/>
		<g>
			<g>
				<g>
					<path class="st2" d="M72,362.3l1.8-1.7c1,1.2,2.2,1.9,3.8,1.9c1.4,0,2.5-0.9,2.5-2.2l0,0c0-1.4-1.3-2.2-3.3-2.2h-1.2l-0.4-1.6
						l3.9-4.2h-6.3v-2.2h9.6v1.9l-4.1,4.2c2.2,0.3,4.3,1.4,4.3,4.1l0,0c0,2.7-2.1,4.6-5.1,4.6C75,364.8,73.2,363.8,72,362.3z"/>
				</g>
			</g>
		</g>
	</g>
	<g id="_x30_4_1_">
		<circle class="st15" cx="321.8" cy="425.3" r="15.6"/>
		<g>
			<g>
				<g>
					<path class="st2" d="M323.4,429.3h-7.3l-0.5-1.8l8.1-9.6h2.2v9.3h2.1v2.1h-2.1v3.3h-2.5L323.4,429.3L323.4,429.3z M323.4,427.2
						v-5.8l-4.8,5.8H323.4z"/>
				</g>
			</g>
		</g>
	</g>
	<g id="_x30_9_1_">
		<circle class="st13" cx="679.3" cy="405.6" r="15.6"/>
		<g>
			<g>
				<g>
					<path class="st2" d="M682.2,406.2c-0.8,1-1.9,1.6-3.4,1.6c-3.1,0-5.2-1.8-5.2-4.6l0,0c0-2.9,2.2-5,5.4-5c1.8,0,3,0.5,4.1,1.5
						c1.1,1.1,1.7,2.7,1.7,5.6l0,0c0,4.7-2.3,7.9-6.2,7.9c-2,0-3.4-0.7-4.7-1.7l1.4-2c1.1,0.9,2.1,1.4,3.3,1.4
						C681.3,410.8,682.2,408.1,682.2,406.2z M682.1,403L682.1,403c0-1.6-1.2-2.7-3-2.7s-2.9,1.2-2.9,2.7l0,0c0,1.5,1.2,2.6,3,2.6
						C681,405.6,682.1,404.4,682.1,403z"/>
				</g>
			</g>
		</g>
	</g>
	<g id="_x31_0_1_">
		<circle class="st13" cx="70.8" cy="485.9" r="15.6"/>
		<g>
			<g>
				<g>
					<path class="st2" d="M63.7,481.2l-2.6,0.7l-0.5-2.1l3.9-1.2h1.8v14.7h-2.5L63.7,481.2L63.7,481.2z"/>
				</g>
				<g>
					<path class="st2" d="M68.4,486L68.4,486c0-4.2,2.5-7.6,6.4-7.6c3.8,0,6.3,3.3,6.3,7.5l0,0c0,4.2-2.5,7.5-6.4,7.5
						C70.9,493.5,68.4,490.1,68.4,486z M78.5,486L78.5,486c0-2.9-1.5-5.3-3.7-5.3s-3.7,2.3-3.7,5.2l0,0c0,2.9,1.5,5.2,3.7,5.2
						S78.5,488.8,78.5,486z"/>
				</g>
			</g>
		</g>
	</g>
	<g id="_x31_1_1_">
		<circle class="st13" cx="701.6" cy="223.6" r="15.6"/>
		<g>
			<g>
				<g>
					<path class="st2" d="M698.3,218.9l-2.6,0.7l-0.5-2.1l3.9-1.2h1.8v14.6h-2.5v-12H698.3z"/>
				</g>
				<g>
					<path class="st2" d="M705.6,218.9l-2.6,0.7l-0.5-2.1l3.9-1.2h1.8v14.6h-2.5v-12H705.6z"/>
				</g>
			</g>
		</g>
	</g>
	<g id="_x31_5_1_">
		<circle class="st13" cx="562.3" cy="601.5" r="15.6"/>
		<g>
			<g>
				<g>
					<path class="st2" d="M556.2,596.6l-2.6,0.7l-0.5-2.1l3.9-1.2h1.8v14.7h-2.5v-12.1L556.2,596.6L556.2,596.6z"/>
				</g>
				<g>
					<path class="st2" d="M560.8,606.7l1.6-1.9c1.2,1.1,2.4,1.7,3.7,1.7c1.7,0,2.9-1,2.9-2.5l0,0c0-1.5-1.2-2.4-3-2.4
						c-1,0-1.9,0.3-2.7,0.6l-1.5-1l0.4-7.1h8.7v2.3h-6.5l-0.2,3.4c0.7-0.2,1.3-0.4,2.3-0.4c2.8,0,5.1,1.5,5.1,4.6l0,0
						c0,3-2.2,4.9-5.4,4.9C563.9,608.9,562.2,608,560.8,606.7z"/>
				</g>
			</g>
		</g>
	</g>
	<g id="_x31_6_1_">
		
			<ellipse transform="matrix(5.114508e-02 -0.9987 0.9987 5.114508e-02 -255.4901 677.8307)" class="st16" cx="229" cy="473.4" rx="15.6" ry="15.6"/>
		<g>
			<g>
				<g>
					<path class="st2" d="M222.8,468.2l-2.7,0.6l-0.4-2.1l4-1l1.8,0.1l-0.8,14.6l-2.5-0.1L222.8,468.2z"/>
				</g>
				<g>
					<path class="st2" d="M228.8,479.3c-1-1.2-1.6-2.7-1.5-5.6l0,0c0.2-4.4,2.5-7.8,6.6-7.6c1.9,0.1,3.1,0.8,4.4,1.8l-1.5,1.9
						c-1-0.8-1.8-1.4-3.1-1.4c-2.5-0.1-3.6,2.5-3.7,4.5c0.9-0.8,2-1.4,3.6-1.3c2.8,0.1,5,1.9,4.8,4.8l0,0c-0.1,2.9-2.6,4.8-5.7,4.7
						C230.9,480.9,229.7,480.3,228.8,479.3z M235.8,476.3L235.8,476.3c0.1-1.5-1-2.6-2.8-2.7s-3,1-3.1,2.4l0,0
						c-0.1,1.5,1.1,2.7,2.9,2.8C234.6,478.9,235.7,477.8,235.8,476.3z"/>
				</g>
			</g>
		</g>
	</g>
	<g id="_x31_7_1_">
		<circle class="st17" cx="425.8" cy="78.6" r="15.6"/>
		<g>
			<g>
				<g>
					<path class="st2" d="M419.8,73.8l-2.6,0.7l-0.5-2.1l3.9-1.2h1.8v14.7h-2.6L419.8,73.8L419.8,73.8z"/>
				</g>
				<g>
					<path class="st2" d="M432.1,73.6h-7.3v-2.2H435v1.9l-6.5,12.6h-2.9L432.1,73.6z"/>
				</g>
			</g>
		</g>
	</g>
	<g id="_x32_0_1_">
		<circle class="st17" cx="517" cy="601.5" r="15.6"/>
		<g>
			<g>
				<g>
					<path class="st2" d="M504.7,606.7l5-4.3c2-1.7,2.7-2.6,2.7-3.9c0-1.4-1-2.3-2.4-2.3s-2.2,0.7-3.3,2.2l-1.8-1.4
						c1.4-1.9,2.8-3,5.4-3c2.8,0,4.8,1.7,4.8,4.3l0,0c0,2.3-1.2,3.5-3.8,5.6l-3,2.5h6.9v2.2h-10.5L504.7,606.7L504.7,606.7z"/>
				</g>
				<g>
					<path class="st2" d="M516.6,601.5L516.6,601.5c0-4.2,2.5-7.6,6.4-7.6c3.8,0,6.3,3.3,6.3,7.5l0,0c0,4.2-2.5,7.5-6.4,7.5
						C519.1,609,516.6,605.7,516.6,601.5z M526.7,601.5L526.7,601.5c0-2.9-1.5-5.3-3.7-5.3s-3.7,2.3-3.7,5.2l0,0
						c0,2.9,1.5,5.2,3.7,5.2C525.3,606.7,526.7,604.3,526.7,601.5z"/>
				</g>
			</g>
		</g>
	</g>
	<g id="_x32_3_1_">
		<circle class="st13" cx="734.4" cy="264.9" r="15.6"/>
		<g>
			<g>
				<g>
					<path class="st2" d="M723.3,270.2l5-4.3c2-1.7,2.7-2.6,2.7-3.9c0-1.4-1-2.3-2.4-2.3c-1.3,0-2.2,0.7-3.3,2.2l-1.8-1.4
						c1.4-1.9,2.8-3,5.4-3c2.8,0,4.8,1.7,4.8,4.3l0,0c0,2.3-1.2,3.5-3.8,5.6l-3,2.5h6.9v2.2h-10.5L723.3,270.2L723.3,270.2z"/>
				</g>
				<g>
					<path class="st2" d="M735,269.9l1.8-1.7c1,1.2,2.2,1.9,3.8,1.9c1.4,0,2.5-0.9,2.5-2.2l0,0c0-1.4-1.3-2.2-3.3-2.2h-1.2l-0.4-1.6
						l3.9-4.2h-6.3v-2.2h9.6v1.9l-4.1,4.2c2.2,0.3,4.3,1.4,4.3,4.1l0,0c0,2.7-2.1,4.6-5.1,4.6C738,272.5,736.2,271.4,735,269.9z"/>
				</g>
			</g>
		</g>
	</g>
	<g id="_x32_5_1_">
		<circle class="st15" cx="399.9" cy="410.7" r="15.6"/>
		<g>
			<g>
				<g>
					<path class="st2" d="M388.6,416l5-4.3c2-1.7,2.7-2.6,2.7-3.9c0-1.4-1-2.3-2.4-2.3c-1.3,0-2.2,0.7-3.3,2.2l-1.8-1.4
						c1.4-1.9,2.8-3,5.4-3c2.9,0,4.8,1.7,4.8,4.3l0,0c0,2.3-1.2,3.5-3.8,5.6l-3,2.5h6.9v2.2h-10.5L388.6,416L388.6,416z"/>
				</g>
				<g>
					<path class="st2" d="M400.4,416l1.6-1.9c1.2,1.1,2.4,1.7,3.7,1.7c1.7,0,2.9-1,2.9-2.5l0,0c0-1.5-1.2-2.4-3-2.4
						c-1,0-1.9,0.3-2.7,0.6l-1.5-1l0.4-7.1h8.7v2.3H404l-0.2,3.4c0.7-0.2,1.3-0.4,2.3-0.4c2.8,0,5.1,1.5,5.1,4.6l0,0
						c0,3-2.2,4.9-5.4,4.9C403.5,418.2,401.7,417.3,400.4,416z"/>
				</g>
			</g>
		</g>
	</g>
	<g id="_x32_6_1_">
		<circle class="st13" cx="627.4" cy="441.2" r="15.6"/>
		<g>
			<g>
				<g>
					<path class="st2" d="M615.8,446.5l5-4.3c2-1.7,2.7-2.6,2.7-3.9c0-1.4-1-2.3-2.3-2.3s-2.2,0.7-3.3,2.2l-1.8-1.4
						c1.4-1.9,2.8-3,5.4-3c2.8,0,4.8,1.7,4.8,4.3l0,0c0,2.3-1.2,3.5-3.8,5.6l-3,2.5h6.9v2.2h-10.6L615.8,446.5L615.8,446.5z"/>
				</g>
				<g>
					<path class="st2" d="M629.6,447.2c-1.1-1.1-1.8-2.6-1.8-5.6l0,0c0-4.5,2.1-7.9,6.2-7.9c1.9,0,3.2,0.6,4.5,1.6l-1.4,2
						c-1-0.8-1.9-1.3-3.2-1.3c-2.5,0-3.5,2.6-3.5,4.6c0.9-0.9,1.9-1.5,3.5-1.5c2.8,0,5.1,1.7,5.1,4.6l0,0c0,2.9-2.4,5-5.4,5
						C631.8,448.7,630.5,448.2,629.6,447.2z M636.5,443.9L636.5,443.9c0-1.5-1.2-2.6-3-2.6s-3,1.2-3,2.6l0,0c0,1.5,1.2,2.6,3,2.6
						S636.5,445.4,636.5,443.9z"/>
				</g>
			</g>
		</g>
	</g>
	<g id="_x32_7_1_">
		<circle class="st16" cx="156.9" cy="536.9" r="15.6"/>
		<g>
			<g>
				<g>
					<path class="st2" d="M145.8,542.3l5-4.3c2-1.7,2.7-2.6,2.7-3.9c0-1.4-1-2.3-2.4-2.3s-2.2,0.7-3.3,2.2l-1.8-1.4
						c1.4-1.9,2.8-3,5.4-3c2.8,0,4.8,1.7,4.8,4.3l0,0c0,2.3-1.2,3.5-3.8,5.6l-3,2.5h6.9v2.2h-10.5L145.8,542.3L145.8,542.3z"/>
				</g>
				<g>
					<path class="st2" d="M165.2,532h-7.3v-2.2h10.2v1.9l-6.6,12.6h-2.9L165.2,532z"/>
				</g>
			</g>
		</g>
	</g>
	<g id="_x32_8">
		<circle class="st16" cx="261.3" cy="236.5" r="15.6"/>
		<g>
			<g>
				<g>
					<path class="st2" d="M249.9,241.8l5-4.3c2-1.7,2.7-2.6,2.7-3.9c0-1.4-1-2.3-2.4-2.3c-1.3,0-2.2,0.7-3.3,2.2l-1.8-1.4
						c1.4-1.9,2.8-3,5.4-3c2.9,0,4.8,1.7,4.8,4.3l0,0c0,2.3-1.2,3.5-3.8,5.6l-3,2.5h6.9v2.2h-10.5V241.8L249.9,241.8z"/>
				</g>
				<g>
					<path class="st2" d="M261.7,239.8L261.7,239.8c0-1.8,1-2.9,2.6-3.6c-1.2-0.6-2.1-1.6-2.1-3.2l0,0c0-2.2,2.1-3.9,5.1-3.9
						s5.1,1.7,5.1,3.9l0,0c0,1.6-0.9,2.6-2.1,3.2c1.6,0.7,2.6,1.8,2.6,3.5l0,0c0,2.6-2.4,4.2-5.6,4.2
						C264,244,261.7,242.4,261.7,239.8z M270.3,239.7L270.3,239.7c0-1.4-1.3-2.2-3.1-2.2s-3,0.9-3,2.2l0,0c0,1.2,1.1,2.2,3,2.2
						S270.3,240.9,270.3,239.7z M269.8,233.3L269.8,233.3c0-1.2-1-2.1-2.6-2.1s-2.6,0.9-2.6,2l0,0c0,1.3,1.1,2.2,2.6,2.2
						C268.7,235.4,269.8,234.5,269.8,233.3z"/>
				</g>
			</g>
		</g>
	</g>
	<g id="_x32_9">
		<circle class="st16" cx="219.8" cy="276.9" r="15.6"/>
		<g>
			<g>
				<g>
					<path class="st2" d="M208.2,282.1l5-4.3c2-1.7,2.7-2.6,2.7-3.9c0-1.4-1-2.3-2.4-2.3c-1.3,0-2.2,0.7-3.3,2.2l-1.8-1.4
						c1.4-1.9,2.8-3,5.4-3c2.9,0,4.8,1.7,4.8,4.3l0,0c0,2.3-1.2,3.5-3.8,5.6l-3,2.5h6.9v2.2h-10.5L208.2,282.1L208.2,282.1z"/>
				</g>
				<g>
					<path class="st2" d="M228.8,277.5c-0.8,1-1.9,1.6-3.4,1.6c-3.1,0-5.2-1.8-5.2-4.6l0,0c0-2.8,2.2-5,5.4-5c1.8,0,3,0.5,4.1,1.5
						c1.1,1.1,1.7,2.7,1.7,5.6l0,0c0,4.7-2.3,7.9-6.2,7.9c-2,0-3.4-0.7-4.7-1.7l1.4-2c1.1,0.9,2.1,1.4,3.3,1.4
						C227.9,282.1,228.8,279.4,228.8,277.5z M228.7,274.3L228.7,274.3c0-1.6-1.2-2.7-3-2.7s-2.9,1.2-2.9,2.7l0,0
						c0,1.5,1.2,2.6,3,2.6S228.7,275.7,228.7,274.3z"/>
				</g>
			</g>
		</g>
	</g>
	<g id="_x33_0">
		<circle class="st18" cx="799.4" cy="243.3" r="15.6"/>
		<g>
			<g>
				<g>
					<path class="st2" d="M787,248.3l1.8-1.7c1,1.2,2.2,1.9,3.8,1.9c1.4,0,2.5-0.9,2.5-2.2l0,0c0-1.4-1.3-2.2-3.3-2.2h-1.2l-0.4-1.6
						l3.9-4.2h-6.3v-2.2h9.6v1.9l-4.1,4.2c2.2,0.3,4.3,1.4,4.3,4.1l0,0c0,2.7-2.1,4.6-5.1,4.6C790,250.8,788.2,249.7,787,248.3z"/>
				</g>
				<g>
					<path class="st2" d="M799.2,243.3L799.2,243.3c0-4.2,2.5-7.6,6.4-7.6c3.8,0,6.3,3.3,6.3,7.5l0,0c0,4.2-2.5,7.5-6.4,7.5
						S799.2,247.5,799.2,243.3z M809.3,243.3L809.3,243.3c0-2.9-1.5-5.3-3.7-5.3s-3.7,2.3-3.7,5.2l0,0c0,2.9,1.5,5.2,3.7,5.2
						C807.8,248.5,809.3,246.2,809.3,243.3z"/>
				</g>
			</g>
		</g>
	</g>
	<g id="_x33_4">
		<circle class="st16" cx="252.8" cy="449.1" r="15.6"/>
		<g>
			<g>
				<g>
					<path class="st2" d="M240.7,454l1.8-1.7c1,1.2,2.2,1.9,3.8,1.9c1.4,0,2.5-0.9,2.5-2.2l0,0c0-1.4-1.3-2.2-3.3-2.2h-1.2l-0.4-1.6
						l3.9-4.2h-6.3v-2.2h9.6v1.9l-4.1,4.2c2.2,0.3,4.3,1.4,4.3,4.1l0,0c0,2.7-2.1,4.6-5.1,4.6C243.8,456.6,242,455.5,240.7,454z"/>
				</g>
				<g>
					<path class="st2" d="M260.3,453H253l-0.5-1.8l8.1-9.6h2.2v9.3h2.1v2.1h-2.1v3.3h-2.5L260.3,453L260.3,453z M260.3,450.9v-5.8
						l-4.8,5.8H260.3z"/>
				</g>
			</g>
		</g>
	</g>
	<g id="_x33_5">
		<circle class="st17" cx="508.8" cy="78.6" r="15.6"/>
		<g>
			<g>
				<g>
					<path class="st2" d="M497.4,83.4l1.8-1.7c1,1.2,2.2,1.9,3.8,1.9c1.4,0,2.5-0.9,2.5-2.2l0,0c0-1.4-1.3-2.2-3.3-2.2H501l-0.4-1.6
						l3.9-4.2h-6.3v-2.2h9.6v1.9l-4.1,4.2c2.2,0.3,4.3,1.4,4.3,4.1l0,0c0,2.7-2.1,4.6-5.1,4.6C500.5,86,498.7,84.9,497.4,83.4z"/>
				</g>
				<g>
					<path class="st2" d="M509.3,83.8l1.6-1.9c1.2,1.1,2.4,1.7,3.7,1.7c1.7,0,2.9-1,2.9-2.5l0,0c0-1.5-1.2-2.4-3-2.4
						c-1,0-1.9,0.3-2.7,0.6l-1.5-1l0.4-7.1h8.7v2.3h-6.5l-0.2,3.4c0.7-0.2,1.3-0.4,2.3-0.4c2.8,0,5.1,1.5,5.1,4.6l0,0
						c0,3-2.2,4.9-5.4,4.9C512.4,86,510.7,85.1,509.3,83.8z"/>
				</g>
			</g>
		</g>
	</g>
	<g id="_x33_7">
		<circle class="st18" cx="719.8" cy="169.3" r="15.6"/>
		<g>
			<g>
				<g>
					<path class="st2" d="M708.7,174.1l1.8-1.7c1,1.2,2.2,1.9,3.8,1.9c1.4,0,2.5-0.9,2.5-2.2l0,0c0-1.4-1.3-2.2-3.3-2.2h-1.2
						l-0.4-1.6l3.9-4.2h-6.3v-2.2h9.6v1.9L715,168c2.2,0.3,4.3,1.4,4.3,4.1l0,0c0,2.7-2.1,4.6-5.1,4.6
						C711.7,176.7,709.9,175.6,708.7,174.1z"/>
				</g>
				<g>
					<path class="st2" d="M728,164.1h-7.3v-2.2h10.2v1.9l-6.6,12.6h-2.9L728,164.1z"/>
				</g>
			</g>
		</g>
	</g>
	<g id="_x33_8">
		<circle class="st18" cx="642.3" cy="171" r="15.6"/>
		<g>
			<g>
				<g>
					<path class="st2" d="M630.8,176l1.8-1.7c1,1.2,2.2,1.9,3.8,1.9c1.4,0,2.5-0.9,2.5-2.2l0,0c0-1.4-1.3-2.2-3.4-2.2h-1.2l-0.4-1.6
						l3.9-4.2h-6.3v-2.2h9.6v1.9l-4.1,4.2c2.2,0.3,4.3,1.4,4.3,4.1l0,0c0,2.7-2.1,4.6-5.1,4.6C633.8,178.5,632,177.5,630.8,176z"/>
				</g>
				<g>
					<path class="st2" d="M642.8,174.3L642.8,174.3c0-1.8,1-2.9,2.6-3.6c-1.2-0.6-2.1-1.6-2.1-3.2l0,0c0-2.2,2.1-3.9,5.1-3.9
						c2.9,0,5.1,1.7,5.1,3.9l0,0c0,1.6-0.9,2.6-2.1,3.2c1.6,0.7,2.6,1.8,2.6,3.5l0,0c0,2.6-2.4,4.2-5.6,4.2
						C645.2,178.5,642.8,176.8,642.8,174.3z M651.4,174.2L651.4,174.2c0-1.4-1.3-2.2-3.1-2.2s-3,0.9-3,2.2l0,0c0,1.2,1.1,2.2,3,2.2
						C650.3,176.3,651.4,175.4,651.4,174.2z M651,167.7L651,167.7c0-1.2-1-2.1-2.6-2.1s-2.6,0.9-2.6,2l0,0c0,1.3,1.1,2.2,2.6,2.2
						C649.9,169.9,651,169,651,167.7z"/>
				</g>
			</g>
		</g>
	</g>
	<g id="_x34_0">
		<circle class="st18" cx="39.3" cy="364.8" r="15.6"/>
		<g>
			<g>
				<g>
					<path class="st2" d="M33.9,368.8h-7.3l-0.5-1.8l8.1-9.6h2.2v9.3h2.1v2.1h-2.1v3.3h-2.5L33.9,368.8z M33.9,366.7v-5.8l-4.8,5.8
						H33.9z"/>
				</g>
				<g>
					<path class="st2" d="M39.8,364.9L39.8,364.9c0-4.2,2.5-7.6,6.4-7.6c3.8,0,6.3,3.3,6.3,7.5l0,0c0,4.2-2.5,7.5-6.4,7.5
						S39.8,369,39.8,364.9z M49.9,364.9L49.9,364.9c0-2.9-1.5-5.3-3.7-5.3s-3.7,2.3-3.7,5.2l0,0c0,2.9,1.5,5.2,3.7,5.2
						C48.4,370,49.9,367.7,49.9,364.9z"/>
				</g>
			</g>
		</g>
	</g>
	<g id="_x34_0_1_">
		<circle class="st18" cx="752.4" cy="228.2" r="15.6"/>
		<g>
			<g>
				<g>
					<path class="st2" d="M747.1,232.2h-7.3l-0.5-1.8l8.1-9.6h2.2v9.3h2.1v2.1h-2.1v3.3h-2.5V232.2z M747.1,230.1v-5.8l-4.8,5.8
						H747.1z"/>
				</g>
				<g>
					<path class="st2" d="M752.9,228.2L752.9,228.2c0-4.2,2.5-7.6,6.4-7.6c3.8,0,6.3,3.3,6.3,7.5l0,0c0,4.2-2.5,7.5-6.4,7.5
						C755.4,235.7,752.9,232.4,752.9,228.2z M763,228.2L763,228.2c0-2.9-1.5-5.3-3.7-5.3s-3.7,2.3-3.7,5.2l0,0
						c0,2.9,1.5,5.2,3.7,5.2C761.6,233.4,763,231.1,763,228.2z"/>
				</g>
			</g>
		</g>
	</g>
	<g id="_x34_0_2_">
		<circle class="st18" cx="774.8" cy="380.3" r="15.6"/>
		<g>
			<g>
				<g>
					<path class="st2" d="M769.4,384.3h-7.3l-0.5-1.8l8.1-9.6h2.2v9.3h2.1v2.1h-2.1v3.3h-2.5V384.3z M769.4,382.2v-5.8l-4.8,5.8
						H769.4z"/>
				</g>
				<g>
					<path class="st2" d="M775.3,380.3L775.3,380.3c0-4.2,2.5-7.6,6.4-7.6c3.8,0,6.3,3.3,6.3,7.5l0,0c0,4.2-2.5,7.5-6.4,7.5
						S775.3,384.5,775.3,380.3z M785.3,380.3L785.3,380.3c0-2.9-1.5-5.3-3.7-5.3s-3.7,2.3-3.7,5.2l0,0c0,2.9,1.5,5.2,3.7,5.2
						C783.9,385.5,785.3,383.2,785.3,380.3z"/>
				</g>
			</g>
		</g>
	</g>
	<g id="_x34_1">
		<circle class="st16" cx="184.3" cy="241.3" r="15.6"/>
		<g>
			<g>
				<g>
					<path class="st2" d="M183,245.3h-7.3l-0.5-1.8l8.1-9.6h2.2v9.3h2.1v2.1h-2.1v3.3H183V245.3z M183,243.2v-5.8l-4.8,5.8H183z"/>
				</g>
				<g>
					<path class="st2" d="M190.9,236.5l-2.6,0.7l-0.5-2.1l3.9-1.2h1.8v14.7H191L190.9,236.5L190.9,236.5z"/>
				</g>
			</g>
		</g>
	</g>
	<g id="_x34_3">
		<circle class="st18" cx="120.3" cy="325.7" r="15.6"/>
		<g>
			<g>
				<g>
					<path class="st2" d="M116,329.6h-7.3l-0.5-1.8l8.1-9.6h2.2v9.3h2.1v2.1h-2.1v3.3H116V329.6z M116,327.5v-5.8l-4.8,5.8H116z"/>
				</g>
				<g>
					<path class="st2" d="M121.6,330.6l1.8-1.7c1,1.2,2.2,1.9,3.8,1.9c1.4,0,2.5-0.9,2.5-2.2l0,0c0-1.4-1.3-2.2-3.3-2.2h-1.2
						l-0.4-1.6l3.9-4.2h-6.3v-2.2h9.6v1.9l-4.1,4.2c2.2,0.3,4.3,1.4,4.3,4.1l0,0c0,2.7-2.1,4.6-5.1,4.6
						C124.7,333.2,122.8,332.1,121.6,330.6z"/>
				</g>
			</g>
		</g>
	</g>
	<g id="_x34_5">
		<circle class="st18" cx="563.1" cy="104.9" r="15.6"/>
		<g>
			<g>
				<g>
					<path class="st2" d="M558.8,108.9h-7.3l-0.5-1.8l8.1-9.6h2.2v9.3h2.1v2.1h-2.1v3.3h-2.5V108.9z M558.8,106.8V101l-4.8,5.8
						H558.8z"/>
				</g>
				<g>
					<path class="st2" d="M564.4,110.2l1.6-1.9c1.2,1.1,2.4,1.7,3.7,1.7c1.7,0,2.9-1,2.9-2.5l0,0c0-1.5-1.2-2.4-3-2.4
						c-1,0-1.9,0.3-2.7,0.6l-1.5-1l0.4-7.1h8.7v2.3H568l-0.2,3.4c0.7-0.2,1.3-0.4,2.3-0.4c2.8,0,5.1,1.5,5.1,4.6l0,0
						c0,3-2.2,4.9-5.4,4.9C567.5,112.4,565.8,111.5,564.4,110.2z"/>
				</g>
			</g>
		</g>
	</g>
	<g id="_x35_0">
		<circle class="st18" cx="261.6" cy="480.9" r="15.6"/>
		<g>
			<g>
				<g>
					<path class="st2" d="M249.2,486.2l1.6-1.9c1.2,1.1,2.4,1.7,3.7,1.7c1.7,0,2.9-1,2.9-2.5l0,0c0-1.5-1.2-2.4-3-2.4
						c-1,0-1.9,0.3-2.7,0.6l-1.5-1l0.4-7.1h8.7v2.3h-6.5l-0.2,3.4c0.7-0.2,1.3-0.4,2.3-0.4c2.8,0,5.1,1.5,5.1,4.6l0,0
						c0,3-2.2,4.9-5.4,4.9C252.3,488.4,250.5,487.5,249.2,486.2z"/>
				</g>
				<g>
					<path class="st2" d="M261.4,480.9L261.4,480.9c0-4.2,2.5-7.6,6.4-7.6c3.8,0,6.3,3.3,6.3,7.5l0,0c0,4.2-2.5,7.5-6.4,7.5
						C263.9,488.4,261.4,485.1,261.4,480.9z M271.5,480.9L271.5,480.9c0-2.9-1.5-5.3-3.7-5.3s-3.7,2.3-3.7,5.2l0,0
						c0,2.9,1.5,5.2,3.7,5.2S271.5,483.7,271.5,480.9z"/>
				</g>
			</g>
		</g>
	</g>
	<g id="falafel__x26__schwarma">
		
			<ellipse transform="matrix(2.068146e-02 -0.9998 0.9998 2.068146e-02 503.7578 1160.5862)" class="st19" cx="844.3" cy="323.1" rx="19.5" ry="19.5"/>
		<path class="st2" d="M835.8,328.4c-0.1-0.2-0.1-0.4-0.2-0.6c-0.1-0.4-0.3-0.7-0.5-1.1s-0.2-1,0.1-1.3c0.1-0.1,0.4-0.2,0.6-0.2
			c0.3,0.1,0.6,0.2,0.9,0.4c0.3,0.2,0.6,0.5,0.8,0.8c0.3,0.4,0.4,0.9,0.3,1.4c-0.1,0.3-0.3,0.6-0.7,0.8
			C836.6,328.8,836.3,328.8,835.8,328.4L835.8,328.4z"/>
		<path class="st2" d="M846.9,317.8c-0.3-0.2-0.2-0.6-0.4-0.9c-0.1-0.2-0.2-0.5-0.3-0.7c-0.2-0.4-0.3-0.9-0.1-1.3
			c0.2-0.3,0.5-0.4,0.9-0.3c0.5,0.2,0.9,0.5,1.3,0.9c0.3,0.4,0.5,0.8,0.5,1.3c0,0.8-0.7,1.4-1.4,1.2
			C847.2,318.1,847,317.9,846.9,317.8z"/>
		<path class="st2" d="M843,323c-0.4,0.3-1,0.6-1.4,0.2c-0.3-0.2-0.4-0.4-0.5-0.7c0-0.4-0.2-0.7-0.4-1.1s-0.3-1.2,0.2-1.4
			c0.1-0.1,0.3-0.1,0.5-0.1c0.6,0.1,1.1,0.5,1.5,1c0.3,0.5,0.6,1,0.4,1.6C843.2,322.7,843.1,322.9,843,323z"/>
		<path class="st2" d="M838.9,324c0.3,0.4,0.6,0.8,0.8,1.2c0.1,0.2,0.1,0.5,0,0.7c-0.2,0.5-0.5,0.8-1.1,0.9c-0.4,0-0.6-0.1-0.9-0.4
			c-0.6-0.6-0.8-1.3-0.8-2.1c0-0.2,0-0.5,0.1-0.7c0.1-0.3,0.5-0.4,0.8-0.2C838.3,323.5,838.6,323.8,838.9,324z"/>
		<path class="st2" d="M844.5,318.9c0.2,0.4,0.5,0.7,0.7,1.1c0.2,0.2,0.1,0.5,0,0.7c-0.2,0.5-0.5,0.8-1,0.8c-0.2,0-0.4-0.1-0.6-0.2
			c-0.4-0.2-0.6-0.5-0.8-0.8c-0.3-0.4-0.4-0.9-0.3-1.5c0-0.2,0.1-0.5,0.1-0.7c0.1-0.3,0.3-0.4,0.5-0.3s0.5,0.2,0.6,0.3
			C844.1,318.5,844.2,318.7,844.5,318.9L844.5,318.9z"/>
		<path class="st2" d="M848.7,315.7c-0.7-0.7-0.8-1.6-0.7-2.5c0.1-0.5,0.4-0.6,0.9-0.4c0.4,0.2,0.7,0.5,1,0.8
			c0.2,0.2,0.4,0.4,0.6,0.6c0.3,0.3,0.4,0.6,0.3,1.1c-0.2,0.7-0.9,1.1-1.5,0.8C849.1,316.1,848.9,315.9,848.7,315.7z"/>
		<path class="st2" d="M832.7,328.1c0.2-0.2,0.5-0.3,0.8-0.1c0.7,0.3,1.2,0.8,1.6,1.3c0.2,0.3,0.4,0.7,0.3,1.1
			c0,0.1-0.1,0.2-0.2,0.4C834.4,329.8,833.5,329,832.7,328.1z"/>
		<path class="st2" d="M839.4,324.1c-0.4-0.4-0.7-0.8-1.1-1.1c0-0.1-0.1-0.2-0.1-0.2c0-0.1,0.1-0.2,0.2-0.2c0.3,0,0.5,0,0.8,0.2
			c0.6,0.3,1,0.8,1.4,1.3c0.2,0.3,0.4,0.7,0.3,1.1c0,0.1-0.1,0.2-0.2,0.2l-0.2-0.1C840.1,324.9,839.8,324.5,839.4,324.1z"/>
		<path class="st2" d="M846.3,320.2c-0.1-0.2-0.2-0.2-0.3-0.3c-0.7-0.7-1.4-1.5-2.1-2.2l-0.1-0.1c0-0.1,0.1-0.1,0.2-0.1
			c0.3,0,0.5,0,0.7,0.1c0.7,0.3,1.1,0.8,1.5,1.4c0.2,0.3,0.3,0.6,0.2,1C846.4,320,846.3,320.1,846.3,320.2z"/>
		<path class="st2" d="M839.1,322c0.3-0.5,0.4-0.5,0.8-0.1c0.7,0.7,1.4,1.4,2.1,2.1c0.2,0.2,0.1,0.3,0,0.3c-0.1,0.1-0.2,0.4-0.4,0.1
			C840.7,323.7,839.9,322.8,839.1,322z"/>
		<path class="st2" d="M833.6,327.2c0.1-0.1,0.2-0.2,0.3-0.3c0.1,0,0.2,0,0.3,0c0.5,0.5,0.9,0.9,1.3,1.4c0.3,0.3,0.6,0.6,0.8,0.8
			c0.2,0.2,0.2,0.3,0,0.5c-0.1,0.1-0.1,0.1-0.2,0.2C835.3,329,834.4,328.1,833.6,327.2z"/>
		<path class="st2" d="M845,316.2c0.2,0.2,0.4,0.4,0.5,0.5c0.6,0.6,1.2,1.3,1.9,1.9c0.2,0.2,0,0.3-0.1,0.4c-0.1,0.2-0.2,0.1-0.4,0
			c-0.7-0.8-1.4-1.5-2.2-2.3c-0.2-0.2-0.2-0.3,0-0.4C844.8,316.4,844.9,316.3,845,316.2z"/>
		<path class="st2" d="M853,311c0,0.1-0.1,0.2-0.1,0.3c-0.6,0.9-1.5,1.6-2.2,2.4c-0.1,0.1-0.2,0.2-0.3,0c-0.1-0.1-0.3-0.2-0.1-0.4
			c0.6-0.6,1.2-1.2,1.9-1.7C852.3,311.2,852.6,311.1,853,311C852.9,310.9,853,310.9,853,311z"/>
		<path class="st2" d="M832.3,330.4c0.3-0.3,0.6-0.6,0.9-0.9c0.1-0.2,0.2-0.1,0.3,0s0.2,0.2,0.1,0.4c-0.6,0.6-1.3,1.2-1.9,1.8
			c-0.2,0.2-0.2,0.1-0.4,0c-0.1-0.1-0.2-0.2,0-0.4C831.7,331,832,330.7,832.3,330.4z"/>
		<path class="st2" d="M840,331.7c-0.1-0.2-0.1-0.4-0.2-0.6c-0.1-0.4-0.3-0.7-0.5-1.1s-0.2-1,0.1-1.3c0.1-0.1,0.4-0.2,0.6-0.2
			c0.3,0.1,0.6,0.2,0.9,0.4c0.3,0.2,0.6,0.5,0.8,0.8c0.3,0.4,0.4,0.9,0.3,1.4c-0.1,0.3-0.3,0.6-0.7,0.8
			C840.8,332.1,840.5,332.1,840,331.7L840,331.7z"/>
		<path class="st2" d="M851.1,321.1c-0.3-0.2-0.2-0.6-0.4-0.9c-0.1-0.2-0.2-0.5-0.3-0.7c-0.2-0.4-0.3-0.9-0.1-1.3
			c0.2-0.3,0.5-0.4,0.9-0.3c0.5,0.2,0.9,0.5,1.3,0.9c0.3,0.4,0.5,0.8,0.5,1.3c0,0.8-0.7,1.4-1.4,1.2
			C851.4,321.4,851.2,321.2,851.1,321.1z"/>
		<path class="st2" d="M847.2,326.3c-0.4,0.3-1,0.6-1.4,0.2c-0.3-0.2-0.4-0.4-0.5-0.7c0-0.4-0.2-0.7-0.4-1.1s-0.3-1.2,0.2-1.4
			c0.1-0.1,0.3-0.1,0.5-0.1c0.6,0.1,1.1,0.5,1.5,1c0.3,0.5,0.6,1,0.4,1.6C847.4,326,847.3,326.2,847.2,326.3z"/>
		<path class="st2" d="M843.1,327.3c0.3,0.4,0.6,0.8,0.8,1.2c0.1,0.2,0.1,0.5,0,0.7c-0.2,0.5-0.5,0.8-1.1,0.9
			c-0.4,0-0.6-0.1-0.9-0.4c-0.6-0.6-0.8-1.3-0.8-2.1c0-0.2,0-0.5,0.1-0.7c0.1-0.3,0.5-0.4,0.8-0.2
			C842.5,326.8,842.8,327.1,843.1,327.3z"/>
		<path class="st2" d="M848.7,322.1c0.2,0.4,0.5,0.7,0.7,1.1c0.2,0.2,0.1,0.5,0,0.7c-0.2,0.5-0.5,0.8-1,0.8c-0.2,0-0.4-0.1-0.6-0.2
			c-0.4-0.2-0.6-0.5-0.8-0.8c-0.3-0.4-0.4-0.9-0.3-1.5c0-0.2,0.1-0.5,0.1-0.7c0.1-0.3,0.3-0.4,0.5-0.3s0.5,0.2,0.6,0.3
			C848.3,321.8,848.5,322,848.7,322.1C848.7,322.2,848.7,322.2,848.7,322.1z"/>
		<path class="st2" d="M852.9,319c-0.7-0.7-0.8-1.6-0.7-2.5c0.1-0.5,0.4-0.6,0.9-0.4c0.4,0.2,0.7,0.5,1,0.8c0.2,0.2,0.4,0.4,0.6,0.6
			c0.3,0.3,0.4,0.6,0.3,1.1c-0.2,0.7-0.9,1.1-1.5,0.8C853.3,319.4,853.1,319.2,852.9,319z"/>
		<path class="st2" d="M836.9,331.4c0.2-0.2,0.5-0.3,0.8-0.1c0.7,0.3,1.2,0.8,1.6,1.3c0.2,0.3,0.4,0.7,0.3,1.1
			c0,0.1-0.1,0.2-0.2,0.4C838.6,333.1,837.7,332.3,836.9,331.4z"/>
		<path class="st2" d="M843.6,327.4c-0.4-0.4-0.7-0.8-1.1-1.1c0-0.1-0.1-0.2-0.1-0.2c0-0.1,0.1-0.2,0.2-0.2c0.3,0,0.5,0,0.8,0.2
			c0.6,0.3,1,0.8,1.4,1.3c0.2,0.3,0.4,0.7,0.3,1.1c0,0.1-0.1,0.2-0.2,0.2l-0.2-0.1C844.3,328.2,844,327.8,843.6,327.4z"/>
		<path class="st2" d="M850.5,323.5c-0.1-0.2-0.2-0.2-0.3-0.3c-0.7-0.7-1.4-1.5-2.1-2.2l-0.1-0.1c0-0.1,0.1-0.1,0.2-0.1
			c0.3,0,0.5,0,0.7,0.1c0.7,0.3,1.1,0.8,1.5,1.4c0.2,0.3,0.3,0.6,0.2,1C850.6,323.3,850.5,323.4,850.5,323.5z"/>
		<path class="st2" d="M843.3,325.3c0.3-0.5,0.4-0.5,0.8-0.1c0.7,0.7,1.4,1.4,2.1,2.1c0.2,0.2,0.1,0.3,0,0.3
			c-0.1,0.1-0.2,0.4-0.4,0.1C844.9,326.9,844.1,326.1,843.3,325.3z"/>
		<path class="st2" d="M837.8,330.5c0.1-0.1,0.2-0.2,0.3-0.3c0.1,0,0.2,0,0.3,0c0.5,0.5,0.9,0.9,1.3,1.4c0.3,0.3,0.6,0.6,0.8,0.8
			c0.2,0.2,0.2,0.3,0,0.5c-0.1,0.1-0.1,0.1-0.2,0.2C839.5,332.3,838.7,331.4,837.8,330.5z"/>
		<path class="st2" d="M849.2,319.5c0.2,0.2,0.4,0.4,0.5,0.5c0.6,0.6,1.2,1.3,1.9,1.9c0.2,0.2,0,0.3-0.1,0.4c-0.1,0.2-0.2,0.1-0.4,0
			c-0.7-0.8-1.4-1.5-2.2-2.3c-0.2-0.2-0.2-0.3,0-0.4C849.1,319.7,849.1,319.6,849.2,319.5z"/>
		<path class="st2" d="M857.2,314.2c0,0.1-0.1,0.2-0.1,0.3c-0.6,0.9-1.5,1.6-2.2,2.4c-0.1,0.1-0.2,0.2-0.3,0
			c-0.1-0.1-0.3-0.2-0.1-0.4c0.6-0.6,1.2-1.2,1.9-1.7C856.5,314.5,856.8,314.4,857.2,314.2C857.1,314.2,857.2,314.2,857.2,314.2z"/>
		<path class="st2" d="M836.5,333.7c0.3-0.3,0.6-0.6,0.9-0.9c0.1-0.2,0.2-0.1,0.3,0s0.2,0.2,0.1,0.4c-0.6,0.6-1.3,1.2-1.9,1.8
			c-0.2,0.2-0.2,0.1-0.4,0c-0.1-0.1-0.2-0.2,0-0.4C835.9,334.3,836.2,334,836.5,333.7z"/>
	</g>
	<g id="drinks">
		<circle class="st19" cx="154.1" cy="488.8" r="19.5"/>
		<g>
			<path class="st2" d="M147.7,481.1c4.9,0,9.7,0,14.6,0c-0.1,1.5-0.1,2.9-0.2,4.3c-0.3,5.1-0.7,10.1-1,15.2
				c-0.1,1.7-0.5,2.2-2.2,2.2c-2.6,0-5.3,0-7.9,0c-1.1,0-1.9-0.5-1.9-1.6C148.5,494.5,148.2,487.9,147.7,481.1z M149.1,482.5
				c0.4,6.4,0.8,12.6,1.1,18.9c3,0,5.9,0,8.7,0c0.3,0,0.8-0.7,0.9-1.1c0.2-2.9,0.4-5.8,0.6-8.8c0.2-3,0.3-5.9,0.5-8.9
				c-1.7-0.6-0.9,1.1-1.7,1.6c-0.3,0-0.8,0-1.3-0.1c0-0.6,0-1,0-1.6C155,482.5,152.2,482.5,149.1,482.5z"/>
			<path class="st2" d="M154.1,480.5c-0.2-0.3-0.6-0.6-0.7-0.9c-1.1-2.7-3-3.9-5.7-3.7c-2.3,0.2-4.2,2.2-4.6,4.6
				c-0.3,2.3,1.1,4.5,3.5,5.6c0.4,0.2,0.7,0.5,1.3,1c-3.2,0.1-5.8-2.7-5.8-5.9c0-3.5,2.8-6.3,6.3-6.3
				C151.6,474.8,154.5,477.4,154.1,480.5z"/>
			<path class="st2" d="M160.1,480.4c-0.6,0-1,0-1.6,0c0.2-1,0.2-2.1,0.6-2.9c0.3-0.7,1-1.4,1.7-1.6c1.3-0.4,2.8-0.5,4.2-0.5
				c0.4,0,0.8,0.4,1.2,0.7c-0.3,0.3-0.6,0.8-1,0.9c-0.9,0.2-1.8,0.3-2.7,0.3c-1.4,0-2.1,0.6-2.1,2
				C160.3,479.6,160.2,480,160.1,480.4z"/>
			<path class="st2" d="M151.5,477.4c-1,1.1-1.9,2-2.9,3.1c0-1.4,0-2.7,0-4.3C149.8,476.6,150.7,477,151.5,477.4z"/>
			<path class="st2" d="M147.9,476.1c0,1.7,0,2.9,0,4.2c-0.1,0.1-0.2,0.1-0.3,0.2c-0.8-1-1.5-1.9-2.4-3
				C145.9,477.1,146.8,476.7,147.9,476.1z"/>
			<path class="st2" d="M144.3,478.4c1.1,1,2,1.8,3,2.7c-1.3,0-2.3,0-3.7,0C143.8,480.2,144.1,479.3,144.3,478.4z"/>
			<path class="st2" d="M144.7,484.1c-0.3-0.5-0.7-1.3-1.2-2.2c1.4,0,2.4,0,3.5,0c0.1,0.1,0.1,0.2,0.2,0.3
				C146.4,482.8,145.6,483.4,144.7,484.1z"/>
			<path class="st2" d="M150.1,480.3c0.8-0.7,1.4-1.3,2.2-2c0.2,0.5,0.6,1.2,1,2C152,480.3,151.1,480.3,150.1,480.3z"/>
			<path class="st2" d="M147.4,485.8c-0.8-0.3-1.3-0.5-2.1-0.9c0.6-0.7,1.2-1.2,1.9-2C147.3,484,147.4,484.8,147.4,485.8z"/>
			<path class="st2" d="M149.8,484.8c0.3,4.8,0.5,9.4,0.9,14.1c0,0.4,0.7,0.9,1.1,1c2.2,0.1,4.4,0.1,6.6,0c0.7,0,1-0.4,1.1-1.2
				c0.1-2.1,0.3-4.2,0.4-6.4c0.2-2.5,0.3-5,0.4-7.6C156.7,484.8,153.3,484.8,149.8,484.8z"/>
			<path class="st2" d="M149.8,484.8c3.6,0,7,0,10.5,0c-0.1,2.6-0.3,5.1-0.4,7.6c-0.1,2.1-0.3,4.2-0.4,6.4c0,0.8-0.3,1.2-1.1,1.2
				c-2.2,0-4.4,0.1-6.6,0c-0.4,0-1-0.6-1.1-1C150.3,494.3,150,489.6,149.8,484.8z M155.2,492.4c-1.4,0.5-2.9,0.6-3.9,1.4
				c-0.4,0.4,0.3,2.1,0.5,3.1c0,0.2,0,0.5,0.2,0.7c0.3,0.3,0.7,0.6,1.1,0.6c3.9-0.5,4.2-1,3-4.7c-0.1-0.2-0.1-0.4-0.2-0.5
				C155.7,492.7,155.5,492.6,155.2,492.4z M153.2,492.3c0.7-0.2,1.6-0.1,2.1-0.5c0.8-0.6,1.3-1.4,1.8-2.2c0.1-0.1-0.6-0.9-1.1-1.2
				c-2.8-1.7-2.8-1.7-4.4,1.1C150.9,490.8,151.6,492.2,153.2,492.3z M159.5,492.5c-0.7-0.7-1.3-1.2-1.9-1.8
				c-1.6,1.3-0.8,2.6-0.3,4.1C158.1,494,158.7,493.4,159.5,492.5z"/>
		</g>
	</g>
	<g id="drinks_1_">
		<circle class="st19" cx="804.1" cy="283.7" r="19.5"/>
		<g>
			<path class="st2" d="M797.7,276c4.9,0,9.7,0,14.6,0c-0.1,1.5-0.1,2.9-0.2,4.3c-0.3,5.1-0.7,10.1-1,15.2c-0.1,1.7-0.5,2.2-2.2,2.2
				c-2.6,0-5.3,0-7.9,0c-1.1,0-1.9-0.5-1.9-1.6C798.5,289.4,798.1,282.8,797.7,276z M799,277.4c0.4,6.4,0.8,12.6,1.1,18.9
				c3,0,5.9,0,8.7,0c0.3,0,0.8-0.7,0.9-1.1c0.2-2.9,0.4-5.8,0.6-8.8c0.2-3,0.3-5.9,0.5-8.9c-1.7-0.6-0.9,1.1-1.7,1.6
				c-0.3,0-0.8,0-1.3-0.1c0-0.6,0-1,0-1.6C804.9,277.4,802.1,277.4,799,277.4z"/>
			<path class="st2" d="M804,275.5c-0.2-0.3-0.6-0.6-0.7-0.9c-1.1-2.7-3-3.9-5.7-3.7c-2.3,0.2-4.2,2.2-4.6,4.6
				c-0.3,2.3,1.1,4.5,3.5,5.6c0.4,0.2,0.7,0.5,1.3,1c-3.2,0.1-5.8-2.7-5.8-5.9c0-3.5,2.8-6.3,6.3-6.3
				C801.6,269.7,804.4,272.3,804,275.5z"/>
			<path class="st2" d="M810,275.4c-0.6,0-1,0-1.6,0c0.2-1,0.2-2.1,0.6-2.9c0.3-0.7,1-1.4,1.7-1.6c1.3-0.4,2.8-0.5,4.2-0.5
				c0.4,0,0.8,0.4,1.2,0.7c-0.3,0.3-0.6,0.8-1,0.9c-0.9,0.2-1.8,0.3-2.7,0.3c-1.4,0-2.1,0.6-2.1,2
				C810.3,274.5,810.1,274.9,810,275.4z"/>
			<path class="st2" d="M801.4,272.3c-1,1.1-1.9,2-2.9,3.1c0-1.4,0-2.7,0-4.3C799.7,271.5,800.7,272,801.4,272.3z"/>
			<path class="st2" d="M797.9,271c0,1.7,0,2.9,0,4.2c-0.1,0.1-0.2,0.1-0.3,0.2c-0.8-1-1.5-1.9-2.4-3
				C795.8,272.1,796.7,271.6,797.9,271z"/>
			<path class="st2" d="M794.2,273.4c1.1,1,2,1.8,3,2.7c-1.3,0-2.3,0-3.7,0C793.8,275.1,794,274.2,794.2,273.4z"/>
			<path class="st2" d="M794.6,279c-0.3-0.5-0.7-1.3-1.2-2.2c1.4,0,2.4,0,3.5,0c0.1,0.1,0.1,0.2,0.2,0.3
				C796.3,277.7,795.5,278.4,794.6,279z"/>
			<path class="st2" d="M800,275.3c0.8-0.7,1.4-1.3,2.2-2c0.2,0.5,0.6,1.2,1,2C802,275.3,801,275.3,800,275.3z"/>
			<path class="st2" d="M797.3,280.7c-0.8-0.3-1.3-0.5-2.1-0.9c0.6-0.7,1.2-1.2,1.9-2C797.3,279,797.3,279.7,797.3,280.7z"/>
			<path class="st2" d="M799.7,279.8c0.3,4.8,0.5,9.4,0.9,14.1c0,0.4,0.7,0.9,1.1,1c2.2,0.1,4.4,0.1,6.6,0c0.7,0,1-0.4,1.1-1.2
				c0.1-2.1,0.3-4.2,0.4-6.4c0.2-2.5,0.3-5,0.4-7.6C806.6,279.8,803.3,279.8,799.7,279.8z"/>
			<path class="st2" d="M799.7,279.8c3.6,0,7,0,10.5,0c-0.1,2.6-0.3,5.1-0.4,7.6c-0.1,2.1-0.3,4.2-0.4,6.4c0,0.8-0.3,1.2-1.1,1.2
				c-2.2,0-4.4,0.1-6.6,0c-0.4,0-1-0.6-1.1-1C800.2,289.2,800,284.5,799.7,279.8z M805.2,287.3c-1.4,0.5-2.9,0.6-3.9,1.4
				c-0.4,0.4,0.3,2.1,0.5,3.1c0,0.2,0,0.5,0.2,0.7c0.3,0.3,0.7,0.6,1.1,0.6c3.9-0.5,4.2-1,3-4.7c-0.1-0.2-0.1-0.4-0.2-0.5
				C805.7,287.7,805.4,287.5,805.2,287.3z M803.2,287.2c0.7-0.2,1.6-0.1,2.1-0.5c0.8-0.6,1.3-1.4,1.8-2.2c0.1-0.1-0.6-0.9-1.1-1.2
				c-2.8-1.7-2.8-1.7-4.4,1.1C800.8,285.8,801.6,287.1,803.2,287.2z M809.4,287.4c-0.7-0.7-1.3-1.2-1.9-1.8
				c-1.6,1.3-0.8,2.6-0.3,4.1C808,289,808.6,288.3,809.4,287.4z"/>
		</g>
	</g>
	<g id="crepe_1_">
		<circle class="st19" cx="82.9" cy="403.6" r="19.5"/>
		<g>
			<path class="st2" d="M81,420.6l-11.7-22.3c4.1-2.1,8.6-3.2,13.2-3.2c4.8,0,9.6,1.2,13.8,3.6l-12.2,22
				C83.4,421.8,81.7,421.8,81,420.6z"/>
			<g>
				<path class="st20" d="M82.5,419.8l-13.9-24.7c4.2-2.4,9-3.6,13.9-3.6c5.2,0,10.3,1.4,14.7,4.1L82.5,419.8z"/>
				<line class="st21" x1="82.4" y1="418.8" x2="88.4" y2="391.8"/>
			</g>
		</g>
	</g>
	<g id="popcorn">
		<circle class="st22" cx="281.9" cy="178.9" r="19.5"/>
		<g>
			<path class="st2" d="M278.1,170.9c0-0.3,0.1-0.6,0-0.9c-0.1-0.3-0.2-0.6-0.5-0.7c-0.1,0-0.2,0-0.2,0c-0.1,0-0.1,0.1-0.2,0.2
				c-0.1,0.2-0.2,0.5-0.2,0.7c0,0.3,0.2,0.5,0.4,0.6c-0.3-0.4-1-0.3-1.2,0.1c-0.2,0.4,0.2,1,0.7,1c0.5,0,0.8-0.5,1-1
				c-0.1,0.3,0.1,0.8,0.4,0.9c0.2,0,0.3-0.1,0.4-0.1c0.3-0.2,0.5-0.6,0.4-1c-0.1-0.3-0.7-0.4-0.9-0.1L278.1,170.9z"/>
			<g>
				<path class="st23" d="M278.2,170.9c0.1-0.5,0.1-1-0.2-1.4c-0.1-0.2-0.4-0.4-0.7-0.3c-0.3,0.1-0.4,0.6-0.4,0.9
					c0,0.4,0.1,0.7,0.4,0.9c0.1,0,0.2-0.1,0.1-0.1c-0.5-0.6-1.6-0.1-1.3,0.7c0.1,0.3,0.4,0.6,0.8,0.6c0.5,0,0.8-0.6,1-1
					c-0.1,0-0.1,0-0.2-0.1c-0.1,0.4,0,0.9,0.5,1c0.4,0.1,0.8-0.4,0.9-0.7c0.1-0.4,0-0.7-0.4-0.9c-0.4-0.1-0.6,0.2-0.8,0.5
					C278,170.9,278.1,171,278.2,170.9c0,0,0.1-0.2,0.2-0.2c0.2-0.1,0.3-0.1,0.5-0.2c0.1,0.3,0.1,0.5,0.2,0.8
					c-0.1,0.3-0.3,0.4-0.6,0.2c-0.4,0.1-0.6-0.1-0.4-0.5c0-0.1-0.1-0.2-0.2-0.1c-0.1,0.1-0.1,0.3-0.2,0.4c-0.2,0.3-0.4,0.5-0.8,0.4
					c-0.2,0-0.3-0.1-0.4-0.2c-0.2-0.2-0.1-0.5,0.1-0.7c0.3-0.2,0.6-0.1,0.8,0.1c0,0,0.1-0.1,0.1-0.1c-0.6-0.3-0.3-1.6,0.3-1.2
					c0.4,0.2,0.3,1,0.2,1.3C278,170.9,278.2,171,278.2,170.9z"/>
			</g>
		</g>
		<g>
			<path class="st2" d="M281.1,169.1c0.1-0.5,0.1-1,0-1.4c-0.1-0.5-0.4-0.9-0.8-1.1c-0.1,0-0.3-0.1-0.4,0c-0.1,0.1-0.2,0.2-0.3,0.4
				c-0.1,0.4-0.3,0.8-0.3,1.2c0,0.4,0.3,0.8,0.7,1c-0.5-0.6-1.6-0.5-1.9,0.2c-0.3,0.7,0.3,1.6,1.1,1.6c0.8-0.1,1.2-0.9,1.6-1.6
				c-0.2,0.6,0.1,1.4,0.7,1.4c0.3,0,0.5-0.1,0.7-0.2c0.5-0.4,0.9-1,0.6-1.6c-0.2-0.6-1.2-0.7-1.5-0.1L281.1,169.1z"/>
			<g>
				<path class="st23" d="M281.3,169.2c0.1-0.7,0.2-1.6-0.3-2.2c-0.2-0.3-0.7-0.7-1.1-0.5c-0.4,0.2-0.6,1-0.6,1.4
					c-0.1,0.6,0.1,1.1,0.7,1.4c0.1,0.1,0.3-0.1,0.2-0.2c-0.8-0.9-2.6-0.2-2.2,1.1c0.2,0.5,0.7,0.9,1.3,0.9c0.9-0.1,1.3-1,1.7-1.6
					c-0.1,0-0.2-0.1-0.3-0.1c-0.2,0.6,0,1.5,0.8,1.6c0.7,0.1,1.4-0.6,1.5-1.2c0.2-0.6,0-1.2-0.7-1.4c-0.7-0.2-1,0.3-1.4,0.8
					C280.9,169.2,281.1,169.4,281.3,169.2c0.1-0.1,0.2-0.3,0.3-0.4c0.2-0.1,0.5-0.2,0.7-0.3c0.1,0.4,0.2,0.8,0.4,1.3
					c-0.2,0.5-0.5,0.6-1,0.3c-0.7,0.1-0.9-0.1-0.7-0.7c0-0.2-0.2-0.3-0.3-0.1c-0.1,0.2-0.2,0.5-0.4,0.7c-0.3,0.5-0.7,0.8-1.3,0.6
					c-0.3,0-0.5-0.1-0.6-0.4c-0.3-0.4-0.2-0.8,0.2-1.2c0.4-0.3,1-0.1,1.3,0.2c0.1-0.1,0.1-0.2,0.2-0.2c-1-0.5-0.5-2.6,0.5-2
					c0.6,0.3,0.4,1.6,0.4,2.2C281,169.3,281.2,169.3,281.3,169.2z"/>
			</g>
		</g>
		<g>
			<path class="st2" d="M283.6,170.1c0-0.3,0.1-0.6,0-0.9c-0.1-0.3-0.2-0.6-0.5-0.7c-0.1,0-0.2,0-0.2,0c-0.1,0-0.1,0.1-0.2,0.2
				c-0.1,0.2-0.2,0.5-0.2,0.7s0.2,0.5,0.4,0.6c-0.3-0.4-1-0.3-1.2,0.1c-0.2,0.4,0.2,1,0.7,1c0.5,0,0.8-0.5,1-1
				c-0.1,0.3,0.1,0.8,0.4,0.9c0.2,0,0.3-0.1,0.4-0.1c0.3-0.2,0.5-0.6,0.4-1c-0.1-0.3-0.7-0.4-0.9-0.1L283.6,170.1z"/>
			<g>
				<path class="st23" d="M283.6,170.2c0.1-0.5,0.1-1-0.2-1.4c-0.1-0.2-0.4-0.4-0.7-0.3c-0.3,0.1-0.4,0.6-0.4,0.9
					c0,0.4,0.1,0.7,0.4,0.9c0.1,0,0.2-0.1,0.1-0.1c-0.5-0.6-1.6-0.1-1.3,0.7c0.1,0.3,0.4,0.6,0.8,0.6c0.5,0,0.8-0.6,1-1
					c-0.1,0-0.1,0-0.2-0.1c-0.1,0.4,0,0.9,0.5,1c0.4,0.1,0.8-0.4,0.9-0.7c0.1-0.4,0-0.7-0.4-0.9c-0.4-0.1-0.6,0.2-0.8,0.5
					C283.4,170.2,283.5,170.3,283.6,170.2c0,0,0.1-0.2,0.2-0.2c0.2-0.1,0.3-0.1,0.5-0.2c0.1,0.3,0.1,0.5,0.2,0.8
					c-0.1,0.3-0.3,0.4-0.6,0.2c-0.4,0.1-0.6-0.1-0.4-0.5c0-0.1-0.1-0.2-0.2-0.1c-0.1,0.1-0.1,0.3-0.2,0.4c-0.2,0.3-0.4,0.5-0.8,0.4
					c-0.2,0-0.3-0.1-0.4-0.2c-0.2-0.2-0.1-0.5,0.1-0.7c0.3-0.2,0.6-0.1,0.8,0.1c0,0,0.1-0.1,0.1-0.1c-0.6-0.3-0.3-1.6,0.3-1.2
					c0.4,0.2,0.3,1,0.2,1.3C283.5,170.2,283.6,170.3,283.6,170.2z"/>
			</g>
		</g>
		<g>
			<path class="st2" d="M286.4,170.1c0-0.3,0.1-0.6,0-0.9c-0.1-0.3-0.2-0.6-0.5-0.7c-0.1,0-0.2,0-0.2,0c-0.1,0-0.1,0.1-0.2,0.2
				c-0.1,0.2-0.2,0.5-0.2,0.7s0.2,0.5,0.4,0.6c-0.3-0.4-1-0.3-1.2,0.1s0.2,1,0.7,1c0.5,0,0.8-0.5,1-1c-0.1,0.3,0.1,0.8,0.4,0.9
				c0.2,0,0.3-0.1,0.4-0.1c0.3-0.2,0.5-0.6,0.4-1c-0.1-0.3-0.7-0.4-0.9-0.1L286.4,170.1z"/>
			<g>
				<path class="st23" d="M286.5,170.2c0.1-0.5,0.1-1-0.2-1.4c-0.1-0.2-0.4-0.4-0.7-0.3c-0.3,0.1-0.4,0.6-0.4,0.9
					c0,0.4,0.1,0.7,0.4,0.9c0.1,0,0.2-0.1,0.1-0.1c-0.5-0.6-1.6-0.1-1.3,0.7c0.1,0.3,0.4,0.6,0.8,0.6c0.5,0,0.8-0.6,1-1
					c-0.1,0-0.1,0-0.2-0.1c-0.1,0.4,0,0.9,0.5,1c0.4,0.1,0.8-0.4,0.9-0.7c0.1-0.4,0-0.7-0.4-0.9c-0.4-0.1-0.6,0.2-0.8,0.5
					C286.2,170.2,286.4,170.3,286.5,170.2c0,0,0.1-0.2,0.2-0.2c0.2-0.1,0.3-0.1,0.5-0.2c0.1,0.3,0.1,0.5,0.2,0.8
					c-0.1,0.3-0.3,0.4-0.6,0.2c-0.4,0.1-0.6-0.1-0.4-0.5c0-0.1-0.1-0.2-0.2-0.1c-0.1,0.1-0.1,0.3-0.2,0.4c-0.2,0.3-0.4,0.5-0.8,0.4
					c-0.2,0-0.3-0.1-0.4-0.2c-0.2-0.2-0.1-0.5,0.1-0.7c0.3-0.2,0.6-0.1,0.8,0.1c0,0,0.1-0.1,0.1-0.1c-0.6-0.3-0.3-1.6,0.3-1.2
					c0.4,0.2,0.3,1,0.2,1.3C286.3,170.2,286.4,170.3,286.5,170.2z"/>
			</g>
		</g>
		<g>
			<path class="st2" d="M288.7,171.1c0-0.3,0.1-0.6,0-0.9c-0.1-0.3-0.2-0.6-0.5-0.7c-0.1,0-0.2,0-0.2,0c-0.1,0-0.1,0.1-0.2,0.2
				c-0.1,0.2-0.2,0.5-0.2,0.7c0,0.3,0.2,0.5,0.4,0.6c-0.3-0.4-1-0.3-1.2,0.1c-0.2,0.4,0.2,1,0.7,1c0.5,0,0.8-0.5,1-1
				c-0.1,0.3,0.1,0.8,0.4,0.9c0.2,0,0.3-0.1,0.4-0.1c0.3-0.2,0.5-0.6,0.4-1c-0.1-0.3-0.7-0.4-0.9-0.1L288.7,171.1z"/>
			<g>
				<path class="st23" d="M288.8,171.1c0.1-0.5,0.1-1-0.2-1.4c-0.1-0.2-0.4-0.4-0.7-0.3c-0.3,0.1-0.4,0.6-0.4,0.9
					c0,0.4,0.1,0.7,0.4,0.9c0.1,0,0.2-0.1,0.1-0.1c-0.5-0.6-1.6-0.1-1.3,0.7c0.1,0.3,0.4,0.6,0.8,0.6c0.5,0,0.8-0.6,1-1
					c-0.1,0-0.1,0-0.2-0.1c-0.1,0.4,0,0.9,0.5,1c0.4,0.1,0.8-0.4,0.9-0.7c0.1-0.4,0-0.7-0.4-0.9c-0.4-0.1-0.6,0.2-0.8,0.5
					C288.6,171.1,288.7,171.2,288.8,171.1c0,0,0.1-0.2,0.2-0.2c0.2-0.1,0.3-0.1,0.5-0.2c0.1,0.3,0.1,0.5,0.2,0.8
					c-0.1,0.3-0.3,0.4-0.6,0.2c-0.4,0.1-0.6-0.1-0.4-0.5c0-0.1-0.1-0.2-0.2-0.1c-0.1,0.1-0.1,0.3-0.2,0.4c-0.2,0.3-0.4,0.5-0.8,0.4
					c-0.2,0-0.3-0.1-0.4-0.2c-0.2-0.2-0.1-0.5,0.1-0.7c0.3-0.2,0.6-0.1,0.8,0.1c0,0,0.1-0.1,0.1-0.1c-0.6-0.3-0.3-1.6,0.3-1.2
					c0.4,0.2,0.3,1,0.2,1.3C288.6,171.2,288.8,171.2,288.8,171.1z"/>
			</g>
		</g>
		<g>
			<path class="st2" d="M277.8,172.8c0-0.3,0.1-0.6,0-0.9c-0.1-0.3-0.2-0.6-0.5-0.7c-0.1,0-0.2,0-0.2,0c-0.1,0-0.1,0.1-0.2,0.2
				c-0.1,0.2-0.2,0.5-0.2,0.7s0.2,0.5,0.4,0.6c-0.3-0.4-1-0.3-1.2,0.1c-0.2,0.4,0.2,1,0.7,1c0.5,0,0.8-0.5,1-1
				c-0.1,0.3,0.1,0.8,0.4,0.9c0.2,0,0.3-0.1,0.4-0.1c0.3-0.2,0.5-0.6,0.4-1c-0.1-0.3-0.7-0.4-0.9-0.1L277.8,172.8z"/>
			<g>
				<path class="st23" d="M277.9,172.8c0.1-0.5,0.1-1-0.2-1.4c-0.1-0.2-0.4-0.4-0.7-0.3c-0.3,0.1-0.4,0.6-0.4,0.9
					c0,0.4,0.1,0.7,0.4,0.9c0.1,0,0.2-0.1,0.1-0.1c-0.5-0.6-1.6-0.1-1.3,0.7c0.1,0.3,0.4,0.6,0.8,0.6c0.5,0,0.8-0.6,1-1
					c-0.1,0-0.1,0-0.2-0.1c-0.1,0.4,0,0.9,0.5,1c0.4,0.1,0.8-0.4,0.9-0.7c0.1-0.4,0-0.7-0.4-0.9c-0.4-0.1-0.6,0.2-0.8,0.5
					C277.7,172.8,277.8,172.9,277.9,172.8c0,0,0.1-0.2,0.2-0.2c0.2-0.1,0.3-0.1,0.5-0.2c0.1,0.3,0.1,0.5,0.2,0.8
					c-0.1,0.3-0.3,0.4-0.6,0.2c-0.4,0.1-0.6-0.1-0.4-0.5c0-0.1-0.1-0.2-0.2-0.1c-0.1,0.1-0.1,0.3-0.2,0.4c-0.2,0.3-0.4,0.5-0.8,0.4
					c-0.2,0-0.3-0.1-0.4-0.2c-0.2-0.2-0.1-0.5,0.1-0.7c0.3-0.2,0.6-0.1,0.8,0.1c0,0,0.1-0.1,0.1-0.1c-0.6-0.3-0.3-1.6,0.3-1.2
					c0.4,0.2,0.3,1,0.2,1.3C277.7,172.9,277.9,172.9,277.9,172.8z"/>
			</g>
		</g>
		<g>
			<path class="st2" d="M277,171.4c0-0.3,0.1-0.6,0-0.9c-0.1-0.3-0.2-0.6-0.5-0.7c-0.1,0-0.2,0-0.2,0c-0.1,0-0.1,0.1-0.2,0.2
				c-0.1,0.2-0.2,0.5-0.2,0.7s0.2,0.5,0.4,0.6c-0.3-0.4-1-0.3-1.2,0.1c-0.2,0.4,0.2,1,0.7,1c0.5,0,0.8-0.5,1-1
				c-0.1,0.3,0.1,0.8,0.4,0.9c0.2,0,0.3-0.1,0.4-0.1c0.3-0.2,0.5-0.6,0.4-1c-0.1-0.3-0.7-0.4-0.9-0.1L277,171.4z"/>
			<g>
				<path class="st23" d="M277.1,171.5c0.1-0.5,0.1-1-0.2-1.4c-0.1-0.2-0.4-0.4-0.7-0.3c-0.3,0.1-0.4,0.6-0.4,0.9
					c0,0.4,0.1,0.7,0.4,0.9c0.1,0,0.2-0.1,0.1-0.1c-0.5-0.6-1.6-0.1-1.3,0.7c0.1,0.3,0.4,0.6,0.8,0.6c0.5,0,0.8-0.6,1-1
					c-0.1,0-0.1,0-0.2-0.1c-0.1,0.4,0,0.9,0.5,1c0.4,0.1,0.8-0.4,0.9-0.7c0.1-0.4,0-0.7-0.4-0.9c-0.4-0.1-0.6,0.2-0.8,0.5
					C276.9,171.5,277,171.6,277.1,171.5c0,0,0.1-0.2,0.2-0.2c0.2-0.1,0.3-0.1,0.5-0.2c0.1,0.3,0.1,0.5,0.2,0.8
					c-0.1,0.3-0.3,0.4-0.6,0.2c-0.4,0.1-0.6-0.1-0.4-0.5c0-0.1-0.1-0.2-0.2-0.1c-0.1,0.1-0.1,0.3-0.2,0.4c-0.2,0.3-0.4,0.5-0.8,0.4
					c-0.2,0-0.3-0.1-0.4-0.2c-0.2-0.2-0.1-0.5,0.1-0.7c0.3-0.2,0.6-0.1,0.8,0.1c0,0,0.1-0.1,0.1-0.1c-0.6-0.3-0.3-1.6,0.3-1.2
					c0.4,0.2,0.3,1,0.2,1.3C276.9,171.5,277.1,171.6,277.1,171.5z"/>
			</g>
		</g>
		<g>
			<path class="st2" d="M279.8,169.6c0.1-0.4,0.1-0.7,0-1.1c-0.1-0.3-0.3-0.7-0.6-0.8c-0.1,0-0.2-0.1-0.3,0
				c-0.1,0.1-0.2,0.2-0.2,0.3c-0.1,0.3-0.2,0.6-0.2,0.9s0.2,0.6,0.5,0.7c-0.3-0.5-1.2-0.4-1.4,0.1c-0.2,0.5,0.2,1.2,0.8,1.2
				c0.6,0,0.9-0.6,1.2-1.2c-0.2,0.4,0.1,1,0.5,1c0.2,0,0.4-0.1,0.5-0.2c0.4-0.3,0.6-0.8,0.5-1.2c-0.2-0.4-0.9-0.5-1.1-0.1
				L279.8,169.6z"/>
			<g>
				<path class="st23" d="M279.9,169.6c0.1-0.5,0.2-1.2-0.2-1.6c-0.2-0.2-0.5-0.5-0.8-0.4c-0.3,0.1-0.4,0.8-0.5,1
					c0,0.5,0.1,0.8,0.5,1c0.1,0,0.2-0.1,0.1-0.2c-0.6-0.7-1.9-0.2-1.6,0.8c0.1,0.4,0.5,0.7,0.9,0.7c0.6,0,1-0.7,1.2-1.2
					c-0.1,0-0.1-0.1-0.2-0.1c-0.1,0.5,0,1.1,0.6,1.2c0.5,0.1,1-0.4,1.1-0.9c0.1-0.4,0-0.9-0.5-1c-0.5-0.2-0.7,0.2-1,0.6
					C279.7,169.6,279.8,169.8,279.9,169.6c0,0,0.1-0.2,0.2-0.3c0.2-0.1,0.4-0.1,0.5-0.2c0.1,0.3,0.2,0.6,0.3,0.9
					c-0.1,0.4-0.4,0.4-0.7,0.2c-0.5,0.1-0.7-0.1-0.5-0.5c0-0.1-0.1-0.2-0.2-0.1c-0.1,0.2-0.2,0.4-0.3,0.5c-0.3,0.4-0.5,0.6-1,0.5
					c-0.2,0-0.4-0.1-0.4-0.3c-0.2-0.3-0.2-0.6,0.2-0.9c0.3-0.2,0.7-0.1,1,0.2c0-0.1,0.1-0.1,0.1-0.2c-0.8-0.4-0.4-1.9,0.4-1.5
					c0.5,0.3,0.3,1.2,0.3,1.6C279.7,169.7,279.9,169.7,279.9,169.6z"/>
			</g>
		</g>
		<g>
			<path class="st2" d="M283.4,168.4c0.1-0.4,0.1-0.7,0-1.1s-0.3-0.7-0.6-0.8c-0.1,0-0.2-0.1-0.3,0c-0.1,0.1-0.2,0.2-0.2,0.3
				c-0.1,0.3-0.2,0.6-0.2,0.9c0,0.3,0.2,0.6,0.5,0.7c-0.3-0.5-1.2-0.4-1.4,0.1c-0.2,0.5,0.2,1.2,0.8,1.2c0.6,0,0.9-0.6,1.2-1.2
				c-0.2,0.4,0.1,1,0.5,1c0.2,0,0.4-0.1,0.5-0.2c0.4-0.3,0.6-0.8,0.5-1.2c-0.2-0.4-0.9-0.5-1.1-0.1L283.4,168.4z"/>
			<g>
				<path class="st23" d="M283.5,168.5c0.1-0.5,0.2-1.2-0.2-1.6c-0.2-0.2-0.5-0.5-0.8-0.4c-0.3,0.1-0.4,0.8-0.5,1
					c0,0.5,0.1,0.8,0.5,1c0.1,0,0.2-0.1,0.1-0.2c-0.6-0.7-1.9-0.2-1.6,0.8c0.1,0.4,0.5,0.7,0.9,0.7c0.6,0,1-0.7,1.2-1.2
					c-0.1,0-0.1-0.1-0.2-0.1c-0.1,0.5,0,1.1,0.6,1.2c0.5,0.1,1-0.4,1.1-0.9c0.1-0.4,0-0.9-0.5-1c-0.5-0.2-0.7,0.2-1,0.6
					C283.2,168.5,283.4,168.6,283.5,168.5c0,0,0.1-0.2,0.2-0.3c0.2-0.1,0.4-0.1,0.5-0.2c0.1,0.3,0.2,0.6,0.3,0.9
					c-0.1,0.4-0.4,0.4-0.7,0.2c-0.5,0.1-0.7-0.1-0.5-0.5c0-0.1-0.1-0.2-0.2-0.1c-0.1,0.2-0.2,0.4-0.3,0.5c-0.3,0.4-0.5,0.6-1,0.5
					c-0.2,0-0.4-0.1-0.4-0.3c-0.2-0.3-0.2-0.6,0.2-0.9c0.3-0.2,0.7-0.1,1,0.2c0-0.1,0.1-0.1,0.1-0.2c-0.8-0.4-0.4-1.9,0.4-1.5
					c0.5,0.3,0.3,1.2,0.3,1.6C283.3,168.5,283.5,168.6,283.5,168.5z"/>
			</g>
		</g>
		<g>
			<path class="st2" d="M289.9,169.8c0-0.3,0.1-0.6,0-0.9c-0.1-0.3-0.2-0.6-0.5-0.7c-0.1,0-0.2,0-0.2,0c-0.1,0-0.1,0.1-0.2,0.2
				c-0.1,0.2-0.2,0.5-0.2,0.7c0,0.3,0.2,0.5,0.4,0.6c-0.3-0.4-1-0.3-1.2,0.1c-0.2,0.4,0.2,1,0.7,1c0.5,0,0.8-0.5,1-1
				c-0.1,0.3,0.1,0.8,0.4,0.9c0.2,0,0.3-0.1,0.4-0.1c0.3-0.2,0.5-0.6,0.4-1c-0.1-0.3-0.7-0.4-0.9-0.1L289.9,169.8z"/>
			<g>
				<path class="st23" d="M290,169.8c0.1-0.5,0.1-1-0.2-1.4c-0.1-0.2-0.4-0.4-0.7-0.3c-0.3,0.1-0.4,0.6-0.4,0.9
					c0,0.4,0.1,0.7,0.4,0.9c0.1,0,0.2-0.1,0.1-0.1c-0.5-0.6-1.6-0.1-1.3,0.7c0.1,0.3,0.4,0.6,0.8,0.6c0.5,0,0.8-0.6,1-1
					c-0.1,0-0.1,0-0.2-0.1c-0.1,0.4,0,0.9,0.5,1c0.4,0.1,0.8-0.4,0.9-0.7c0.1-0.4,0-0.7-0.4-0.9c-0.4-0.1-0.6,0.2-0.8,0.5
					C289.8,169.8,289.9,169.9,290,169.8c0,0,0.1-0.2,0.2-0.2c0.2-0.1,0.3-0.1,0.5-0.2c0.1,0.3,0.1,0.5,0.2,0.8
					c-0.1,0.3-0.3,0.4-0.6,0.2c-0.4,0.1-0.6-0.1-0.4-0.5c0-0.1-0.1-0.2-0.2-0.1c-0.1,0.1-0.1,0.3-0.2,0.4c-0.2,0.3-0.4,0.5-0.8,0.4
					c-0.2,0-0.3-0.1-0.4-0.2c-0.2-0.2-0.1-0.5,0.1-0.7c0.3-0.2,0.6-0.1,0.8,0.1c0,0,0.1-0.1,0.1-0.1c-0.6-0.3-0.3-1.6,0.3-1.2
					c0.4,0.2,0.3,1,0.2,1.3C289.8,169.9,290,169.9,290,169.8z"/>
			</g>
		</g>
		<g>
			<path class="st2" d="M284.5,168.9c0-0.3,0.1-0.6,0-0.9c-0.1-0.3-0.2-0.6-0.5-0.7c-0.1,0-0.2,0-0.2,0c-0.1,0-0.1,0.1-0.2,0.2
				c-0.1,0.2-0.2,0.5-0.2,0.7s0.2,0.5,0.4,0.6c-0.3-0.4-1-0.3-1.2,0.1c-0.2,0.4,0.2,1,0.7,1c0.5,0,0.8-0.5,1-1
				c-0.1,0.3,0.1,0.8,0.4,0.9c0.2,0,0.3-0.1,0.4-0.1c0.3-0.2,0.5-0.6,0.4-1s-0.7-0.4-0.9-0.1L284.5,168.9z"/>
			<g>
				<path class="st23" d="M284.6,168.9c0.1-0.5,0.1-1-0.2-1.4c-0.1-0.2-0.4-0.4-0.7-0.3c-0.3,0.1-0.4,0.6-0.4,0.9
					c0,0.4,0.1,0.7,0.4,0.9c0.1,0,0.2-0.1,0.1-0.1c-0.5-0.6-1.6-0.1-1.3,0.7c0.1,0.3,0.4,0.6,0.8,0.6c0.5,0,0.8-0.6,1-1
					c-0.1,0-0.1,0-0.2-0.1c-0.1,0.4,0,0.9,0.5,1c0.4,0.1,0.8-0.4,0.9-0.7c0.1-0.4,0-0.7-0.4-0.9c-0.4-0.1-0.6,0.2-0.8,0.5
					C284.4,168.9,284.5,169,284.6,168.9c0,0,0.1-0.2,0.2-0.2c0.2-0.1,0.3-0.1,0.5-0.2c0.1,0.3,0.1,0.5,0.2,0.8
					c-0.1,0.3-0.3,0.4-0.6,0.2c-0.4,0.1-0.6-0.1-0.4-0.5c0-0.1-0.1-0.2-0.2-0.1c-0.1,0.1-0.1,0.3-0.2,0.4c-0.2,0.3-0.4,0.5-0.8,0.4
					c-0.2,0-0.3-0.1-0.4-0.2c-0.2-0.2-0.1-0.5,0.1-0.7c0.3-0.2,0.6-0.1,0.8,0.1c0,0,0.1-0.1,0.1-0.1c-0.6-0.3-0.3-1.6,0.3-1.2
					c0.4,0.2,0.3,1,0.2,1.3C284.4,168.9,284.6,169,284.6,168.9z"/>
			</g>
		</g>
		<g>
			<path class="st2" d="M287.3,169.1c0-0.3,0.1-0.6,0-0.9c-0.1-0.3-0.2-0.6-0.5-0.7c-0.1,0-0.2,0-0.2,0c-0.1,0-0.1,0.1-0.2,0.2
				c-0.1,0.2-0.2,0.5-0.2,0.7c0,0.3,0.2,0.5,0.4,0.6c-0.3-0.4-1-0.3-1.2,0.1c-0.2,0.4,0.2,1,0.7,1c0.5,0,0.8-0.5,1-1
				c-0.1,0.3,0.1,0.8,0.4,0.9c0.2,0,0.3-0.1,0.4-0.1c0.3-0.2,0.5-0.6,0.4-1c-0.1-0.3-0.7-0.4-0.9-0.1L287.3,169.1z"/>
			<g>
				<path class="st23" d="M287.3,169.2c0.1-0.5,0.1-1-0.2-1.4c-0.1-0.2-0.4-0.4-0.7-0.3c-0.3,0.1-0.4,0.6-0.4,0.9
					c0,0.4,0.1,0.7,0.4,0.9c0.1,0,0.2-0.1,0.1-0.1c-0.5-0.6-1.6-0.1-1.3,0.7c0.1,0.3,0.4,0.6,0.8,0.6c0.5,0,0.8-0.6,1-1
					c-0.1,0-0.1,0-0.2-0.1c-0.1,0.4,0,0.9,0.5,1c0.4,0.1,0.8-0.4,0.9-0.7c0.1-0.4,0-0.7-0.4-0.9c-0.4-0.1-0.6,0.2-0.8,0.5
					C287.1,169.2,287.3,169.3,287.3,169.2c0,0,0.1-0.2,0.2-0.2c0.2-0.1,0.3-0.1,0.5-0.2c0.1,0.3,0.1,0.5,0.2,0.8
					c-0.1,0.3-0.3,0.4-0.6,0.2c-0.4,0.1-0.6-0.1-0.4-0.5c0-0.1-0.1-0.2-0.2-0.1c-0.1,0.1-0.1,0.3-0.2,0.4c-0.2,0.3-0.4,0.5-0.8,0.4
					c-0.2,0-0.3-0.1-0.4-0.2c-0.2-0.2-0.1-0.5,0.1-0.7c0.3-0.2,0.6-0.1,0.8,0.1c0,0,0.1-0.1,0.1-0.1c-0.6-0.3-0.3-1.6,0.3-1.2
					c0.4,0.2,0.3,1,0.2,1.3C287.2,169.2,287.3,169.3,287.3,169.2z"/>
			</g>
		</g>
		<g>
			<path class="st2" d="M276.7,170.3c0.1-0.4,0.1-0.7,0-1.1c-0.1-0.3-0.3-0.7-0.6-0.8c-0.1,0-0.2-0.1-0.3,0
				c-0.1,0.1-0.2,0.2-0.2,0.3c-0.1,0.3-0.2,0.6-0.2,0.9c0,0.3,0.2,0.6,0.5,0.7c-0.3-0.5-1.2-0.4-1.4,0.1c-0.2,0.5,0.2,1.2,0.8,1.2
				c0.6,0,0.9-0.6,1.2-1.2c-0.2,0.4,0.1,1,0.5,1c0.2,0,0.4-0.1,0.5-0.2c0.4-0.3,0.6-0.8,0.5-1.2c-0.2-0.4-0.9-0.5-1.1-0.1
				L276.7,170.3z"/>
			<g>
				<path class="st23" d="M276.8,170.4c0.1-0.5,0.2-1.2-0.2-1.6c-0.2-0.2-0.5-0.5-0.8-0.4c-0.3,0.1-0.4,0.8-0.5,1
					c0,0.5,0.1,0.8,0.5,1c0.1,0,0.2-0.1,0.1-0.2c-0.6-0.7-1.9-0.2-1.6,0.8c0.1,0.4,0.5,0.7,0.9,0.7c0.6,0,1-0.7,1.2-1.2
					c-0.1,0-0.1-0.1-0.2-0.1c-0.1,0.5,0,1.1,0.6,1.2c0.5,0.1,1-0.4,1.1-0.9c0.1-0.4,0-0.9-0.5-1c-0.5-0.2-0.7,0.2-1,0.6
					C276.6,170.4,276.7,170.5,276.8,170.4c0,0,0.1-0.2,0.2-0.3c0.2-0.1,0.4-0.1,0.5-0.2c0.1,0.3,0.2,0.6,0.3,0.9
					c-0.1,0.4-0.4,0.4-0.7,0.2c-0.5,0.1-0.7-0.1-0.5-0.5c0-0.1-0.1-0.2-0.2-0.1c-0.1,0.2-0.2,0.4-0.3,0.5c-0.3,0.4-0.5,0.6-1,0.5
					c-0.2,0-0.4-0.1-0.4-0.3c-0.2-0.3-0.2-0.6,0.2-0.9c0.3-0.2,0.7-0.1,1,0.2c0-0.1,0.1-0.1,0.1-0.2c-0.8-0.4-0.4-1.9,0.4-1.5
					c0.5,0.3,0.3,1.2,0.3,1.6C276.6,170.4,276.8,170.5,276.8,170.4z"/>
			</g>
		</g>
		<polygon class="st24" points="288.6,191.9 276.7,191.9 273.7,170.4 276.7,172.5 279.6,170.5 291,170.4 		"/>
		<g>
			<path class="st2" d="M279.9,167.6c-0.2-0.3-0.4-0.6-0.6-0.9c-0.3-0.2-0.7-0.4-1-0.3c-0.1,0-0.2,0.1-0.2,0.2c-0.1,0.1,0,0.2,0,0.3
				c0.1,0.3,0.2,0.6,0.4,0.8s0.5,0.4,0.8,0.2c-0.5-0.1-1.1,0.4-1,1c0.1,0.5,0.9,0.8,1.3,0.4c0.4-0.4,0.3-1.1,0.2-1.6
				c0.1,0.4,0.7,0.7,1.1,0.5c0.2-0.1,0.3-0.3,0.3-0.5c0.1-0.4,0-1-0.4-1.2c-0.4-0.2-1,0.1-0.9,0.6L279.9,167.6z"/>
			<g>
				<path class="st23" d="M280,167.5c-0.3-0.5-0.6-0.9-1.1-1.1c-0.3-0.1-0.8-0.1-1,0.2c-0.2,0.3,0.1,0.9,0.3,1.1
					c0.3,0.4,0.6,0.5,1.1,0.4c0.1,0,0.1-0.2,0-0.2c-1-0.1-1.7,1.2-0.6,1.7c0.4,0.2,0.9,0.1,1.1-0.2c0.3-0.5,0.2-1.1,0.1-1.6
					c-0.1,0-0.1,0.1-0.2,0.1c0.2,0.4,0.7,0.8,1.2,0.5c0.4-0.3,0.5-0.9,0.3-1.4c-0.2-0.4-0.6-0.7-1-0.5c-0.5,0.2-0.4,0.6-0.4,1.1
					C279.8,167.7,280.1,167.7,280,167.5c0-0.3,0-0.9,0.5-0.9c0.4,0,0.6,0.5,0.6,0.9c0,0.4-0.3,0.7-0.9,0.7c-0.2-0.1-0.3-0.2-0.3-0.4
					c-0.1-0.1-0.2,0-0.2,0.1c0.1,0.5,0.3,1.3-0.2,1.6c-1,0.6-1.6-1.5-0.2-1.3c0-0.1,0-0.1,0-0.2c-0.3-0.1-0.5-0.2-0.8-0.3
					c-0.1-0.1-0.1-0.2-0.2-0.3c-0.1-0.3-0.4-0.8,0.5-0.7c0.5,0.1,0.8,0.7,1,1.1C279.9,167.8,280.1,167.6,280,167.5z"/>
			</g>
		</g>
		<g>
			<path class="st2" d="M283.8,166.9c0.1-0.4,0.1-0.7,0-1.1s-0.3-0.7-0.6-0.8c-0.1,0-0.2-0.1-0.3,0c-0.1,0.1-0.2,0.2-0.2,0.3
				c-0.1,0.3-0.2,0.6-0.2,0.9s0.2,0.6,0.5,0.7c-0.3-0.5-1.2-0.4-1.4,0.1c-0.2,0.5,0.2,1.2,0.8,1.2c0.6,0,0.9-0.6,1.2-1.2
				c-0.2,0.4,0.1,1,0.5,1c0.2,0,0.4-0.1,0.5-0.2c0.4-0.3,0.6-0.8,0.5-1.2c-0.2-0.4-0.9-0.5-1.1-0.1L283.8,166.9z"/>
			<g>
				<path class="st23" d="M283.9,166.9c0.1-0.5,0.2-1.2-0.2-1.6c-0.2-0.2-0.5-0.5-0.8-0.4c-0.3,0.1-0.4,0.8-0.5,1
					c0,0.5,0.1,0.8,0.5,1c0.1,0,0.2-0.1,0.1-0.2c-0.6-0.7-1.9-0.2-1.6,0.8c0.1,0.4,0.5,0.7,0.9,0.7c0.6,0,1-0.7,1.2-1.2
					c-0.1,0-0.1-0.1-0.2-0.1c-0.1,0.5,0,1.1,0.6,1.2c0.5,0.1,1-0.4,1.1-0.9c0.1-0.4,0-0.9-0.5-1c-0.5-0.2-0.7,0.2-1,0.6
					C283.7,166.9,283.8,167.1,283.9,166.9c0,0,0.1-0.2,0.2-0.3c0.2-0.1,0.4-0.1,0.5-0.2c0.1,0.3,0.2,0.6,0.3,0.9
					c-0.1,0.4-0.4,0.4-0.7,0.2c-0.5,0.1-0.7-0.1-0.5-0.5c0-0.1-0.1-0.2-0.2-0.1c-0.1,0.2-0.2,0.4-0.3,0.5c-0.3,0.4-0.5,0.6-1,0.5
					c-0.2,0-0.4-0.1-0.4-0.3c-0.2-0.3-0.2-0.6,0.2-0.9c0.3-0.2,0.7-0.1,1,0.2c0-0.1,0.1-0.1,0.1-0.2c-0.8-0.4-0.4-1.9,0.4-1.5
					c0.5,0.3,0.3,1.2,0.3,1.6C283.7,167,283.9,167,283.9,166.9z"/>
			</g>
		</g>
		<g>
			<path class="st2" d="M286.2,168.4c0.3-0.3,0.6-0.6,0.8-1c0.2-0.4,0.2-0.9,0-1.3c-0.1-0.1-0.2-0.2-0.3-0.2c-0.1,0-0.3,0.1-0.4,0.1
				c-0.3,0.2-0.6,0.4-0.9,0.7s-0.3,0.8,0,1.1c0-0.7-0.9-1.2-1.5-0.9c-0.6,0.3-0.6,1.4,0,1.7c0.6,0.4,1.4,0,2-0.3
				c-0.5,0.3-0.7,1.1-0.2,1.4c0.2,0.2,0.4,0.2,0.7,0.2c0.6,0,1.2-0.3,1.3-0.8c0.1-0.5-0.5-1.2-1-0.9L286.2,168.4z"/>
			<g>
				<path class="st23" d="M286.3,168.5c0.5-0.5,0.9-1,1-1.7c0-0.4-0.1-1-0.5-1.1c-0.4-0.1-1,0.5-1.3,0.7c-0.4,0.4-0.5,0.9-0.2,1.4
					c0.1,0.1,0.3,0.1,0.2-0.1c-0.1-1-1.6-1.6-2.1-0.5c-0.2,0.5-0.1,1.1,0.4,1.5c0.7,0.5,1.5,0,2.2-0.3c-0.1-0.1-0.1-0.1-0.2-0.2
					c-0.5,0.4-0.8,1.1-0.2,1.6c0.5,0.4,1.4,0.3,1.8-0.1c0.4-0.4,0.5-1,0.1-1.4c-0.4-0.5-0.9-0.2-1.4-0.1
					C286,168.3,286.1,168.6,286.3,168.5c0.2-0.1,1-0.4,1.1,0.2c-0.1,0.3-0.2,0.7-0.4,1c-0.2,0.1-0.5,0.2-0.8,0.2
					c-0.3-0.2-0.5-0.4-0.8-0.6c0-0.4,0.2-0.6,0.4-0.8c0.1-0.1,0-0.3-0.2-0.2c-0.3,0.1-0.5,0.3-0.8,0.4c-0.5,0.1-1.2,0-1.4-0.6
					c-0.3-1.1,1.5-1.5,1.7-0.2c0.1,0,0.2,0,0.2-0.1c0-0.3,0-0.6,0-0.9c0.1-0.2,0.3-0.3,0.4-0.4c0.3-0.2,0.8-0.7,1,0.3
					c0.1,0.6-0.5,1.2-0.9,1.6C286,168.4,286.2,168.6,286.3,168.5z"/>
			</g>
		</g>
		<g>
			<path class="st2" d="M282.8,165.7c0.1-0.4,0.1-0.7,0-1.1s-0.3-0.7-0.6-0.8c-0.1,0-0.2-0.1-0.3,0c-0.1,0.1-0.2,0.2-0.2,0.3
				c-0.1,0.3-0.2,0.6-0.2,0.9s0.2,0.6,0.5,0.7c-0.3-0.5-1.2-0.4-1.4,0.1c-0.2,0.5,0.2,1.2,0.8,1.2c0.6,0,0.9-0.6,1.2-1.2
				c-0.2,0.4,0.1,1,0.5,1c0.2,0,0.4-0.1,0.5-0.2c0.4-0.3,0.6-0.8,0.5-1.2c-0.2-0.4-0.9-0.5-1.1-0.1L282.8,165.7z"/>
			<g>
				<path class="st23" d="M282.9,165.7c0.1-0.5,0.2-1.2-0.2-1.6c-0.2-0.2-0.5-0.5-0.8-0.4c-0.3,0.1-0.4,0.8-0.5,1
					c0,0.5,0.1,0.8,0.5,1c0.1,0,0.2-0.1,0.1-0.2c-0.6-0.7-1.9-0.2-1.6,0.8c0.1,0.4,0.5,0.7,0.9,0.7c0.6,0,1-0.7,1.2-1.2
					c-0.1,0-0.1-0.1-0.2-0.1c-0.1,0.5,0,1.1,0.6,1.2c0.5,0.1,1-0.4,1.1-0.9c0.1-0.4,0-0.9-0.5-1c-0.5-0.2-0.7,0.2-1,0.6
					C282.6,165.7,282.8,165.8,282.9,165.7c0,0,0.1-0.2,0.2-0.3c0.2-0.1,0.4-0.1,0.5-0.2c0.1,0.3,0.2,0.6,0.3,0.9
					c-0.1,0.4-0.4,0.4-0.7,0.2c-0.5,0.1-0.7-0.1-0.5-0.5c0-0.1-0.1-0.2-0.2-0.1c-0.1,0.2-0.2,0.4-0.3,0.5c-0.3,0.4-0.5,0.6-1,0.5
					c-0.2,0-0.4-0.1-0.4-0.3c-0.2-0.3-0.2-0.6,0.2-0.9c0.3-0.2,0.7-0.1,1,0.2c0-0.1,0.1-0.1,0.1-0.2c-0.8-0.4-0.4-1.9,0.4-1.5
					c0.5,0.3,0.3,1.2,0.3,1.6C282.7,165.8,282.9,165.8,282.9,165.7z"/>
			</g>
		</g>
		<line class="st25" x1="276.7" y1="172.5" x2="278.9" y2="191.8"/>
		<line class="st25" x1="278.5" y1="170.8" x2="280.5" y2="191.8"/>
		<line class="st25" x1="280.7" y1="170.6" x2="281.7" y2="191.8"/>
		<line class="st25" x1="282.3" y1="170.5" x2="282.8" y2="191.8"/>
		<circle class="st22" cx="282.6" cy="180.7" r="5.7"/>
		<line class="st25" x1="284.6" y1="170.3" x2="284.5" y2="191.8"/>
		<line class="st25" x1="286.1" y1="170.2" x2="285.6" y2="191.8"/>
		<line class="st25" x1="287.7" y1="170.5" x2="286.9" y2="191.8"/>
		<path class="st2" d="M278,179.3h1.5c0.9,0,1.4,0.4,1.4,1.2v0c0,0.8-0.6,1.2-1.5,1.2H279v0.9H278V179.3z M279.3,180.8
			c0.3,0,0.5-0.1,0.5-0.4v0c0-0.2-0.2-0.4-0.5-0.4H279v0.7H279.3z"/>
		<path class="st2" d="M281,180.9L281,180.9c0-0.9,0.8-1.7,1.8-1.7s1.8,0.7,1.8,1.7v0c0,0.9-0.8,1.7-1.8,1.7S281,181.8,281,180.9z
			 M283.5,180.9L283.5,180.9c0-0.4-0.3-0.7-0.7-0.7c-0.4,0-0.7,0.3-0.7,0.7v0c0,0.4,0.3,0.7,0.7,0.7
			C283.2,181.6,283.5,181.3,283.5,180.9z"/>
		<path class="st2" d="M284.9,179.3h1.5c0.9,0,1.4,0.4,1.4,1.2v0c0,0.8-0.6,1.2-1.5,1.2h-0.4v0.9h-1.1V179.3z M286.2,180.8
			c0.3,0,0.5-0.1,0.5-0.4v0c0-0.2-0.2-0.4-0.5-0.4h-0.3v0.7H286.2z"/>
		<line class="st25" x1="289.7" y1="169.9" x2="287.8" y2="191.8"/>
		<line class="st25" x1="275.4" y1="171.6" x2="277.6" y2="191.8"/>
		<g>
			<path class="st2" d="M275.7,164.1c0.1-0.4,0.1-0.7,0-1.1s-0.3-0.7-0.6-0.8c-0.1,0-0.2-0.1-0.3,0c-0.1,0.1-0.2,0.2-0.2,0.3
				c-0.1,0.3-0.2,0.6-0.2,0.9c0,0.3,0.2,0.6,0.5,0.7c-0.3-0.5-1.2-0.4-1.4,0.1c-0.2,0.5,0.2,1.2,0.8,1.2c0.6,0,0.9-0.6,1.2-1.2
				c-0.2,0.4,0.1,1,0.5,1c0.2,0,0.4-0.1,0.5-0.2c0.4-0.3,0.6-0.8,0.5-1.2c-0.2-0.4-0.9-0.5-1.1-0.1L275.7,164.1z"/>
			<g>
				<path class="st23" d="M275.8,164.2c0.1-0.5,0.2-1.2-0.2-1.6c-0.2-0.2-0.5-0.5-0.8-0.4c-0.3,0.1-0.4,0.8-0.5,1
					c0,0.5,0.1,0.8,0.5,1c0.1,0,0.2-0.1,0.1-0.2c-0.6-0.7-1.9-0.2-1.6,0.8c0.1,0.4,0.5,0.7,0.9,0.7c0.6,0,1-0.7,1.2-1.2
					c-0.1,0-0.1-0.1-0.2-0.1c-0.1,0.5,0,1.1,0.6,1.2c0.5,0.1,1-0.4,1.1-0.9c0.1-0.4,0-0.9-0.5-1c-0.5-0.2-0.7,0.2-1,0.6
					C275.5,164.2,275.7,164.3,275.8,164.2c0,0,0.1-0.2,0.2-0.3c0.2-0.1,0.4-0.1,0.5-0.2c0.1,0.3,0.2,0.6,0.3,0.9
					c-0.1,0.4-0.4,0.4-0.7,0.2c-0.5,0.1-0.7-0.1-0.5-0.5c0-0.1-0.1-0.2-0.2-0.1c-0.1,0.2-0.2,0.4-0.3,0.5c-0.3,0.4-0.5,0.6-1,0.5
					c-0.2,0-0.4-0.1-0.4-0.3c-0.2-0.3-0.2-0.6,0.2-0.9c0.3-0.2,0.7-0.1,1,0.2c0-0.1,0.1-0.1,0.1-0.2c-0.8-0.4-0.4-1.9,0.4-1.5
					c0.5,0.3,0.3,1.2,0.3,1.6C275.6,164.2,275.8,164.3,275.8,164.2z"/>
			</g>
		</g>
		<g>
			<path class="st2" d="M279.7,162.3c0.3-0.2,0.6-0.3,0.9-0.6s0.4-0.6,0.3-1c0-0.1-0.1-0.2-0.2-0.2c-0.1-0.1-0.2,0-0.3,0
				c-0.3,0.1-0.6,0.2-0.8,0.3s-0.4,0.5-0.3,0.8c0.2-0.5-0.4-1.2-0.9-1.1c-0.6,0.1-0.8,0.9-0.5,1.3c0.4,0.4,1,0.4,1.6,0.3
				c-0.4,0.1-0.8,0.6-0.6,1c0.1,0.2,0.3,0.3,0.5,0.3c0.4,0.2,1,0.1,1.2-0.3c0.2-0.4-0.1-1-0.5-0.9L279.7,162.3z"/>
			<g>
				<path class="st23" d="M279.8,162.4c0.5-0.2,1-0.5,1.2-1.1c0.1-0.3,0.1-0.7-0.2-0.9c-0.3-0.2-1,0.1-1.3,0.3
					c-0.3,0.2-0.4,0.6-0.3,0.9c0,0.1,0.2,0.1,0.2,0c0.2-0.9-1-1.7-1.6-0.8c-0.2,0.4-0.2,0.8,0.1,1.2c0.4,0.4,1.1,0.3,1.7,0.3
					c0-0.1,0-0.1-0.1-0.2c-0.4,0.2-0.9,0.6-0.6,1.2c0.2,0.4,0.9,0.6,1.3,0.5c0.5-0.1,0.8-0.5,0.6-1c-0.2-0.5-0.6-0.5-1-0.5
					C279.6,162.2,279.6,162.4,279.8,162.4c0.4,0,1.3,0.2,0.7,0.9c-0.2,0.2-0.6,0.3-0.9,0.2c-0.7-0.2-0.7-1,0-1.2
					c0.1,0,0.1-0.2-0.1-0.2c-0.6,0.1-1.5,0.2-1.6-0.6c-0.1-0.4,0.2-0.6,0.5-0.7c0.5-0.1,0.9,0.3,0.8,0.9c0.1,0,0.1,0,0.2,0
					c-0.1-0.5,0.3-0.8,0.7-0.9c0.1,0,0.2-0.1,0.4-0.1c0.4,0,0.5,0.2,0.3,0.5c-0.1,0.6-0.6,0.9-1.1,1.1
					C279.6,162.3,279.7,162.5,279.8,162.4z"/>
			</g>
		</g>
		<g>
			<path class="st2" d="M270.9,175.5c0.1-0.4,0.1-0.7,0-1.1s-0.3-0.7-0.6-0.8c-0.1,0-0.2-0.1-0.3,0c-0.1,0.1-0.2,0.2-0.2,0.3
				c-0.1,0.3-0.2,0.6-0.2,0.9s0.2,0.6,0.5,0.7c-0.3-0.5-1.2-0.4-1.4,0.1c-0.2,0.5,0.2,1.2,0.8,1.2c0.6,0,0.9-0.6,1.2-1.2
				c-0.2,0.4,0.1,1,0.5,1c0.2,0,0.4-0.1,0.5-0.2c0.4-0.3,0.6-0.8,0.5-1.2c-0.2-0.4-0.9-0.5-1.1-0.1L270.9,175.5z"/>
			<g>
				<path class="st23" d="M271,175.5c0.1-0.5,0.2-1.2-0.2-1.6c-0.2-0.2-0.5-0.5-0.8-0.4c-0.3,0.1-0.4,0.8-0.5,1c0,0.5,0.1,0.8,0.5,1
					c0.1,0,0.2-0.1,0.1-0.2c-0.6-0.7-1.9-0.2-1.6,0.8c0.1,0.4,0.5,0.7,0.9,0.7c0.6,0,1-0.7,1.2-1.2c-0.1,0-0.1-0.1-0.2-0.1
					c-0.1,0.5,0,1.1,0.6,1.2c0.5,0.1,1-0.4,1.1-0.9c0.1-0.4,0-0.9-0.5-1c-0.5-0.2-0.7,0.2-1,0.6C270.7,175.5,270.9,175.7,271,175.5
					c0,0,0.1-0.2,0.2-0.3c0.2-0.1,0.4-0.1,0.5-0.2c0.1,0.3,0.2,0.6,0.3,0.9c-0.1,0.4-0.4,0.4-0.7,0.2c-0.5,0.1-0.7-0.1-0.5-0.5
					c0-0.1-0.1-0.2-0.2-0.1c-0.1,0.2-0.2,0.4-0.3,0.5c-0.3,0.4-0.5,0.6-1,0.5c-0.2,0-0.4-0.1-0.4-0.3c-0.2-0.3-0.2-0.6,0.2-0.9
					c0.3-0.2,0.7-0.1,1,0.2c0-0.1,0.1-0.1,0.1-0.2c-0.8-0.4-0.4-1.9,0.4-1.5c0.5,0.3,0.3,1.2,0.3,1.6
					C270.8,175.6,271,175.7,271,175.5z"/>
			</g>
		</g>
		<g>
			<path class="st2" d="M278,192.7c0.1-0.4,0.1-0.9,0-1.4s-0.4-0.9-0.8-1c-0.1,0-0.2-0.1-0.4,0c-0.1,0.1-0.2,0.2-0.3,0.4
				c-0.1,0.4-0.3,0.7-0.3,1.1s0.2,0.8,0.6,0.9c-0.4-0.6-1.5-0.5-1.8,0.2s0.3,1.5,1,1.5c0.7-0.1,1.2-0.8,1.5-1.5
				c-0.2,0.5,0.1,1.3,0.7,1.3c0.2,0,0.5-0.1,0.7-0.2c0.5-0.3,0.8-1,0.6-1.5s-1.1-0.7-1.4-0.1L278,192.7z"/>
			<g>
				<path class="st23" d="M278.2,192.7c0.1-0.7,0.2-1.5-0.2-2.1c-0.2-0.3-0.6-0.6-1-0.5c-0.4,0.2-0.6,1-0.6,1.3
					c-0.1,0.6,0.1,1.1,0.7,1.3c0.1,0.1,0.3-0.1,0.2-0.2c-0.8-0.9-2.4-0.2-2,1c0.2,0.5,0.6,0.9,1.2,0.8c0.8,0,1.3-0.9,1.6-1.5
					c-0.1,0-0.2-0.1-0.2-0.1c-0.1,0.6,0,1.4,0.7,1.5c0.6,0.1,1.3-0.5,1.4-1.1c0.2-0.5,0-1.1-0.6-1.3c-0.6-0.2-0.9,0.3-1.3,0.7
					C277.8,192.7,278,192.9,278.2,192.7c0.1-0.1,0.2-0.3,0.3-0.3c0.2-0.1,0.5-0.2,0.7-0.2c0.1,0.4,0.2,0.8,0.3,1.2
					c-0.2,0.5-0.5,0.5-1,0.3c-0.6,0.1-0.9-0.1-0.6-0.7c0-0.1-0.2-0.2-0.2-0.1c-0.1,0.2-0.2,0.5-0.4,0.7c-0.3,0.5-0.6,0.7-1.2,0.6
					c-0.3,0-0.5-0.1-0.6-0.4c-0.3-0.3-0.2-0.7,0.2-1.1c0.4-0.3,0.9-0.1,1.2,0.2c0.1-0.1,0.1-0.1,0.2-0.2c-1-0.4-0.5-2.4,0.5-1.9
					c0.6,0.3,0.4,1.5,0.3,2C277.9,192.8,278.2,192.9,278.2,192.7z"/>
			</g>
		</g>
		<g>
			<path class="st2" d="M280.9,194.9c0.4,0.1,0.9,0.1,1.4,0s0.9-0.4,1-0.8c0-0.1,0.1-0.2,0-0.4c-0.1-0.1-0.2-0.2-0.4-0.3
				c-0.4-0.1-0.7-0.3-1.1-0.3s-0.8,0.2-0.9,0.6c0.6-0.4,0.5-1.5-0.2-1.8c-0.7-0.3-1.5,0.3-1.5,1c0.1,0.7,0.8,1.2,1.5,1.5
				c-0.5-0.2-1.3,0.1-1.3,0.7c0,0.2,0.1,0.5,0.2,0.7c0.3,0.5,1,0.8,1.5,0.6c0.5-0.2,0.7-1.1,0.1-1.4L280.9,194.9z"/>
			<g>
				<path class="st23" d="M280.8,195c0.7,0.1,1.5,0.2,2.1-0.2c0.3-0.2,0.6-0.6,0.5-1c-0.2-0.4-1-0.6-1.3-0.6
					c-0.6-0.1-1.1,0.1-1.3,0.7c-0.1,0.1,0.1,0.3,0.2,0.2c0.9-0.8,0.2-2.4-1-2c-0.5,0.2-0.9,0.6-0.8,1.2c0,0.8,0.9,1.3,1.5,1.6
					c0-0.1,0.1-0.2,0.1-0.2c-0.6-0.1-1.4,0-1.5,0.7c-0.1,0.6,0.5,1.3,1.1,1.4c0.5,0.2,1.1,0,1.3-0.6c0.2-0.6-0.3-0.9-0.7-1.3
					C280.8,194.7,280.6,194.9,280.8,195c0.1,0.1,0.3,0.2,0.3,0.3c0.1,0.2,0.2,0.5,0.2,0.7c-0.4,0.1-0.8,0.2-1.2,0.3
					c-0.5-0.2-0.5-0.5-0.3-1c-0.1-0.6,0.1-0.9,0.7-0.6c0.1,0,0.2-0.2,0.1-0.2c-0.2-0.1-0.5-0.2-0.7-0.4c-0.5-0.3-0.7-0.6-0.6-1.2
					c0-0.3,0.1-0.5,0.4-0.6c0.3-0.3,0.7-0.2,1.1,0.2c0.3,0.4,0.1,0.9-0.2,1.2c0.1,0.1,0.1,0.1,0.2,0.2c0.4-1,2.4-0.5,1.9,0.5
					c-0.3,0.6-1.5,0.4-2,0.3C280.7,194.7,280.7,195,280.8,195z"/>
			</g>
		</g>
	</g>
	<g id="_x31_4_1_">
		<circle class="st15" cx="517" cy="496.5" r="15.6"/>
		<g>
			<g>
				<g>
					<path class="st2" d="M510.2,491.8l-2.6,0.7l-0.5-2.1l3.9-1.2h1.8v14.7h-2.5V491.8z"/>
				</g>
				<g>
					<path class="st2" d="M522.4,500.6h-7.3l-0.5-1.8l8.1-9.6h2.2v9.3h2.1v2.1h-2.1v3.3h-2.5V500.6z M522.4,498.5v-5.8l-4.8,5.8
						H522.4z"/>
				</g>
			</g>
		</g>
	</g>
	<g id="cotton_candy">
		<circle class="st23" cx="324" cy="178.9" r="19.5"/>
		<g>
			<g>
				<path class="st26" d="M323.2,194.2l-1.4-10.9c0.5-0.1,1.1-0.1,1.7-0.1c0.5,0,1,0,1.5,0.1l-0.9,10.9
					C324,194.7,323.3,194.7,323.2,194.2z"/>
				<path class="st26" d="M331.8,171.2c0-1.2-0.8-2.2-1.9-2.6c0.1-0.4,0.2-0.7,0.2-1.1c0-2.4-1.9-4.3-4.2-4.3c-1.7,0-3.2,1-3.8,2.5
					c-0.4-0.1-0.8-0.1-1.3-0.1c-2.5,0-4.6,1.7-4.6,3.7c0,0.9,0.4,1.8,1.1,2.4c-0.4,0.5-0.7,1.2-0.7,1.9c0,0.5,0.1,1,0.4,1.5
					c-1,1.3-1.1,3,0,4.4c0.6,0.7,1.3,1.2,2.2,1.4c0,0.1,0,0.2,0,0.4c0,1.7,1.9,3.1,4.2,3.1c2.3,0,4.2-1.4,4.2-3.1
					c0.4-0.2,0.8-0.5,1-0.9c1,0,1.8-1.1,1.8-2.5c0-0.8-0.3-1.5-0.7-2c0.6-0.7,1-1.5,1-2.5c0,0,0-0.1,0-0.1
					C331.3,172.9,331.8,172.1,331.8,171.2z"/>
				<g>
					<defs>
						<path id="SVGID_1_" d="M323.2,194.2l-1.4-10.9c0.5-0.1,1.1-0.1,1.7-0.1c0.5,0,1,0,1.5,0.1l-0.9,10.9
							C324,194.7,323.3,194.7,323.2,194.2z"/>
					</defs>
					<clipPath id="SVGID_2_">
						<use xlink:href="#SVGID_1_"  style="overflow:visible;"/>
					</clipPath>
					<line class="st27" x1="325.6" y1="184.5" x2="316.3" y2="189.1"/>
					<line class="st27" x1="327" y1="185.5" x2="317.7" y2="190.1"/>
					<line class="st27" x1="328.4" y1="186.5" x2="319.2" y2="191.1"/>
					<line class="st27" x1="329.9" y1="187.5" x2="320.6" y2="192.1"/>
					<line class="st27" x1="331.3" y1="188.5" x2="322" y2="193.1"/>
					<line class="st27" x1="332.7" y1="189.5" x2="320.6" y2="195.5"/>
				</g>
			</g>
			<path class="st28" d="M324.1,174.2c0,0,1.5,0.1,1.7,1.7"/>
			<path class="st28" d="M320.6,172c0,0-0.3-3.1,2.9-3.3"/>
		</g>
	</g>
	<g id="_x32_1_1_">
		<circle class="st15" cx="790.4" cy="318.9" r="15.6"/>
		<g>
			<g>
				<g>
					<path class="st2" d="M781.9,324.2l5-4.3c2-1.7,2.7-2.6,2.7-3.9c0-1.4-1-2.3-2.3-2.3s-2.2,0.7-3.3,2.2l-1.8-1.4
						c1.4-1.9,2.8-3,5.4-3c2.8,0,4.8,1.7,4.8,4.3v0c0,2.3-1.2,3.5-3.8,5.6l-3,2.5h6.9v2.2h-10.5V324.2z"/>
				</g>
				<g>
					<path class="st2" d="M796.4,314.2l-2.6,0.7l-0.5-2.1l3.9-1.2h1.8v14.7h-2.5V314.2z"/>
				</g>
			</g>
		</g>
	</g>
</g>
</svg>
