<?xml version="1.0" encoding="utf-8"?>
<!-- Generator: Adobe Illustrator 21.1.0, SVG Export Plug-In . SVG Version: 6.00 Build 0)  -->
<svg version="1.1" id="Layer_1" xmlns="http://www.w3.org/2000/svg" xmlns:xlink="http://www.w3.org/1999/xlink" x="0px" y="0px"
	 viewBox="0 0 926.1 640.4" style="enable-background:new 0 0 926.1 640.4;" xml:space="preserve">
<style type="text/css">
	.st0{fill:#050433;}
	.st1{fill:#050433;stroke:#FFFFFF;stroke-width:2.15;stroke-miterlimit:10;}
	.st2{fill:#FFFFFF;}
	.st3{fill:#FFFFFF;stroke:#FFFFFF;stroke-width:0.27;stroke-miterlimit:10;}
	.st4{fill:#050433;stroke:#050433;stroke-width:0.27;stroke-miterlimit:10;}
	.st5{fill:#050433;stroke:#050433;stroke-width:0.25;stroke-miterlimit:10;}
	.st6{fill:#CFD0D2;}
	.st7{fill:#FFFFFF;stroke:#FFFFFF;stroke-width:2.15;stroke-miterlimit:10;}
	.st8{fill:none;stroke:#CFD0D2;stroke-width:2.15;stroke-miterlimit:10;}
	.st9{fill:#1B75BB;stroke:#CFD0D2;stroke-width:2.15;stroke-miterlimit:10;}
	.st10{fill:#00A14B;stroke:#FFFFFF;stroke-width:2.15;stroke-miterlimit:10;}
	.st11{fill:none;stroke:#FFFFFF;stroke-width:2.15;stroke-miterlimit:10;}
	.st12{fill:#00A14B;stroke:#CFD0D2;stroke-width:2.15;stroke-miterlimit:10;}
	.st13{fill:#4A89F0;}
	.st14{fill:#85AD3A;}
	.st15{clip-path:url(#SVGID_2_);}
	.st16{fill:#FFDD38;}
	.st17{clip-path:url(#SVGID_4_);}
	.st18{fill:#FDDD38;}
	.st19{clip-path:url(#SVGID_6_);}
	.st20{clip-path:url(#SVGID_8_);}
	.st21{fill:#FF4898;}
	.st22{fill:#EE2B34;}
	.st23{fill:#33B3A2;}
	.st24{fill:#F68332;}
	.st25{fill:#FFFFFF;stroke:#F68332;stroke-width:0.42;stroke-miterlimit:10;}
	.st26{fill:none;stroke:#F68332;stroke-width:0.42;stroke-miterlimit:10;}
</style>
<title>Asset 1</title>
<g id="Layer_2">
	<g id="ground_floor_plan">
		<g id="ground_floor_map">
			<g id="ground_floor_map-2">
				<polygon class="st0" points="703.5,166.4 650.3,219.5 638.5,219.5 638.5,279.5 606.4,279.5 606.4,379 579.9,385.5 579.9,406.6 
					475.6,406.6 475.6,385.8 449.4,378.8 449.4,279.5 416.8,279.5 416.8,219.4 405.9,219.4 328.1,141.5 374.6,95 632.1,95 				"/>
				<polygon class="st0" points="416.9,511 391.5,543.6 258.1,543.6 258.1,491.9 390.9,491.9 				"/>
				<rect x="43.2" y="491.9" class="st0" width="40.5" height="51.8"/>
				<rect x="43.2" y="389.8" class="st0" width="40.5" height="47.8"/>
				<rect x="43.2" y="437.7" class="st0" width="40.5" height="42.4"/>
				<polygon class="st1" points="153.4,294.4 112.9,334.9 88.8,359 83.7,364.1 83.7,389.8 43.2,389.8 43.2,328.7 115.5,256.4 				
					"/>
				<rect x="83.7" y="491.9" class="st0" width="121.9" height="51.8"/>
				<polygon class="st0" points="719.6,90.2 733.5,104.1 695.6,141.1 673.9,119.4 682.9,94.6 700.9,94.6 700.9,80.8 367,80.8 
					353.7,94.1 333.9,113.9 306,86.1 345.2,46.9 351.8,40.3 724.5,40.3 747,62.8 				"/>
				<polygon class="st0" points="898.2,213.9 878.4,233.7 873.2,228.4 862.8,238.8 860.4,236.4 854.4,242.5 845.7,233.8 817,262.5 
					704.1,149.6 748.4,105.3 740.3,97.3 760.9,76.7 				"/>
				
					<rect x="624" y="438" transform="matrix(0.7071 -0.7071 0.7071 0.7071 -108.4637 631.912)" class="st0" width="169.1" height="17.8"/>
				<polygon class="st0" points="926.1,241.9 896,272 884.5,260.5 914.6,230.4 				"/>
				<polygon class="st0" points="914.6,230.4 884.5,260.5 874.2,250.2 884.5,239.8 878.4,233.7 898.2,213.9 				"/>
				
					<rect x="306" y="86.1" transform="matrix(0.7071 -0.7071 0.7071 0.7071 17.2049 253.136)" class="st0" width="16.3" height="39.4"/>
				
					<rect x="294.6" y="97.6" transform="matrix(0.7071 -0.7071 0.7071 0.7071 5.7464 248.4016)" class="st0" width="16.2" height="39.4"/>
				<polygon class="st0" points="310.9,136.9 300.2,147.6 291.3,138.8 285.4,144.8 266.4,125.8 283,109.1 				"/>
				<polygon class="st0" points="288,159.8 251.2,196.6 213.2,158.7 240.4,131.5 250.5,141.6 266.4,125.8 285.4,144.8 279.2,151 
									"/>
				<polygon class="st0" points="251.2,196.6 227.3,220.5 153.4,294.4 115.5,256.4 213.2,158.7 				"/>
				<polygon class="st0" points="831.5,295.2 694.2,432.5 633.5,371.6 686.6,318.5 663.6,295.5 663.6,261.6 680.5,278.5 
					694.7,264.3 663.3,232.9 716.2,180 774.3,238.1 				"/>
				<polygon class="st0" points="415.4,364.1 322.8,456.7 167.8,302 292,177.7 313.8,199.5 336.5,176.7 350.4,190.5 328.1,212.8 
					350.4,235.1 317.9,267.6 337.9,287.2 351.6,300.9 392.5,260 392.5,295.4 369.6,318.3 				"/>
				
					<rect x="298.2" y="161.8" transform="matrix(0.7071 -0.7071 0.7071 0.7071 -33.2659 274.1799)" class="st0" width="32.2" height="30.8"/>
				<polygon class="st0" points="372.6,212.8 350.4,235.1 328.1,212.8 350.4,190.5 				"/>
				<polygon class="st0" points="392.4,232.6 337.9,287.2 317.9,267.6 350.4,235.1 372.6,212.8 				"/>
				<polygon class="st0" points="268.5,418.2 206.5,480.5 169.5,443.5 130.4,482.5 97.7,449.7 116,431.4 98,413.4 118.6,392.8 
					97.6,371.9 121.5,347.9 159.9,309.6 				"/>
				
					<rect x="824.8" y="241.6" transform="matrix(0.7071 -0.7071 0.7071 0.7071 61.3228 674.6694)" class="st1" width="40.6" height="43.5"/>
				<polygon class="st0" points="825.1,342.9 790.2,377.8 777.9,365.5 812.8,330.7 				"/>
				<rect x="205.6" y="491.9" class="st0" width="52.5" height="51.8"/>
				<polygon class="st1" points="760.9,76.7 740.3,97.3 733.5,104.1 719.6,90.2 747,62.8 				"/>
				<path class="st2" d="M487.3,277h3.5c0.8,0,1.7,0.2,2.3,0.8c0.4,0.5,0.7,1.1,0.7,1.7l0,0c0,1.1-0.8,2.2-1.9,2.4l2.1,3h-1.7
					l-1.9-2.8h-1.7v2.8h-1.4L487.3,277z M490.7,280.9c1,0,1.6-0.5,1.6-1.3l0,0c0-0.9-0.6-1.3-1.6-1.3h-2v2.7L490.7,280.9z"/>
				<path class="st2" d="M495.4,277h5.9v1.2h-4.5v2.1h4v1.2h-4v2.1h4.5v1.2h-5.9V277z"/>
				<path class="st2" d="M503,277h3c2.2-0.1,4.1,1.5,4.2,3.7c0,0.1,0,0.2,0,0.3l0,0c0,2.2-1.8,4-4,4c-0.1,0-0.1,0-0.2,0h-3V277z
					 M504.4,278.3v5.4h1.6c1.4,0.1,2.7-1,2.7-2.4c0-0.1,0-0.2,0-0.3l0,0c0.1-1.4-1.1-2.6-2.5-2.7c-0.1,0-0.2,0-0.2,0H504.4z"/>
				<path class="st2" d="M517.2,278.3h-2.5V277h6.4v1.3h-2.5v6.6h-1.4V278.3z"/>
				<path class="st2" d="M522.6,277h1.4v3.3h3.8V277h1.4v7.9h-1.4v-3.3H524v3.3h-1.4V277z"/>
				<path class="st2" d="M531.2,277h5.8v1.2h-4.5v2.1h4v1.2h-4v2.1h4.5v1.2h-5.9L531.2,277z"/>
				<path class="st2" d="M541.5,277h1.3l3.5,8h-1.5l-0.8-1.9h-3.7l-0.8,1.9H538L541.5,277z M543.5,281.8l-1.4-3.2l-1.4,3.2H543.5z"
					/>
				<path class="st2" d="M548.6,278.3h-2.5V277h6.4v1.3H550v6.6h-1.4V278.3z"/>
				<path class="st2" d="M560.4,277h3.5c0.8,0,1.7,0.2,2.3,0.8c0.4,0.5,0.7,1.1,0.7,1.7l0,0c0,1.1-0.8,2.2-1.9,2.4l2.1,3h-1.7
					l-1.9-2.8h-1.7v2.8h-1.4L560.4,277L560.4,277z M563.8,280.9c1,0,1.6-0.5,1.6-1.3l0,0c0-0.9-0.6-1.3-1.6-1.3h-2v2.7L563.8,280.9z
					"/>
				<path class="st2" d="M553.5,277h5.9v1.2h-4.5v2.1h4v1.2h-4v2.1h4.5v1.2h-5.9V277z"/>
				<path class="st2" d="M275.8,350.8h3.5c0.8,0,1.5,0.2,2.1,0.7c0.4,0.3,0.5,0.8,0.5,1.3l0,0c0,0.8-0.4,1.5-1.1,1.8
					c0.9,0.2,1.6,1,1.6,1.9l0,0c0,1.4-1.2,2.2-2.9,2.2h-3.7V350.8z M280.5,353c0-0.6-0.5-1-1.4-1h-2v2.1h1.9
					C279.9,354.1,280.5,353.8,280.5,353L280.5,353z M279.3,355.3h-2.2v2.2h2.3c1,0,1.5-0.4,1.5-1.1l0,0
					C281,355.7,280.4,355.3,279.3,355.3L279.3,355.3z"/>
				<path class="st2" d="M283.9,350.8h1.4v6.6h4.2v1.3H284L283.9,350.8z"/>
				<path class="st2" d="M293.7,350.7h1.3l3.5,8H297l-0.8-1.9h-3.7l-0.8,1.9h-1.4L293.7,350.7z M295.7,355.5l-1.4-3.2l-1.4,3.2
					H295.7z"/>
				<path class="st2" d="M299,354.8L299,354.8c-0.1-2.2,1.7-4,3.9-4.1c0.1,0,0.1,0,0.2,0c1.2,0,2.3,0.4,3.1,1.2l-0.9,1
					c-0.6-0.6-1.4-1-2.2-1c-1.5,0-2.6,1.2-2.6,2.7v0.1l0,0c-0.1,1.5,1.1,2.7,2.5,2.8c0,0,0,0,0.1,0c0.9,0,1.7-0.4,2.3-1l0.9,0.9
					c-0.8,0.9-2,1.4-3.2,1.4C300.8,358.8,299,357,299,354.8L299,354.8z"/>
				<path class="st2" d="M307.7,350.8h1.4v4l3.8-4h1.7l-3.3,3.4l3.5,4.5H313l-2.7-3.6l-1.2,1.3v2.3h-1.4L307.7,350.8L307.7,350.8z"
					/>
				<path class="st2" d="M319.3,350.8h3.5c0.8,0,1.5,0.2,2.1,0.7c0.4,0.3,0.5,0.8,0.5,1.3l0,0c0,0.8-0.4,1.5-1.1,1.8
					c0.9,0.2,1.6,1,1.6,1.9l0,0c0,1.4-1.2,2.2-2.9,2.2h-3.7V350.8z M324.1,353c0-0.6-0.5-1-1.4-1h-2v2.1h1.9
					C323.5,354.1,324.1,353.8,324.1,353L324.1,353z M322.9,355.3h-2.2v2.2h2.3c1,0,1.5-0.4,1.5-1.1l0,0
					C324.5,355.7,324,355.3,322.9,355.3L322.9,355.3z"/>
				<path class="st2" d="M327.1,354.8L327.1,354.8c0-2.3,1.9-4.1,4.1-4.1c2.3,0,4.1,1.9,4.1,4.1l0,0c0,2.3-1.9,4.1-4.1,4.1
					S327.1,357.1,327.1,354.8z M333.9,354.8L333.9,354.8c0.1-1.5-1.1-2.8-2.6-2.8h-0.1c-1.5,0-2.7,1.2-2.7,2.7v0.1l0,0
					c-0.1,1.5,1.1,2.7,2.6,2.8h0.1c1.5,0,2.7-1.2,2.7-2.6C333.9,354.9,333.9,354.8,333.9,354.8z"/>
				<path class="st2" d="M343.2,350.8l-2.8,3.9l2.9,4h-1.6l-2.1-3l-2.1,3h-1.6l2.9-4l-2.8-3.9h1.6l2,2.9l2-2.9H343.2z"/>
				<path class="st2" d="M285,365.7h-2.5v-1.3h6.4v1.3h-2.5v6.6H285V365.7z"/>
				<path class="st2" d="M290.4,364.4h1.4v3.3h3.8v-3.3h1.4v7.9h-1.4V369h-3.8v3.3h-1.4V364.4z"/>
				<path class="st2" d="M298.9,364.4h5.9v1.2h-4.5v2.1h4v1.2h-4v2.1h4.5v1.2h-5.9V364.4z"/>
				<path class="st2" d="M309.3,364.3h1.3l3.5,8h-1.5l-0.8-1.9h-3.7l-0.8,1.9h-1.4L309.3,364.3z M311.3,369.1l-1.4-3.2l-1.4,3.2
					H311.3z"/>
				<path class="st2" d="M316.4,365.7h-2.5v-1.3h6.4v1.3h-2.5v6.6h-1.4V365.7z"/>
				<path class="st2" d="M328.2,364.4h3.5c0.8,0,1.7,0.2,2.3,0.8c0.4,0.5,0.7,1.1,0.7,1.7l0,0c0,1.1-0.8,2.2-1.9,2.4l2.1,3h-1.6
					l-1.9-2.8h-1.7v2.8h-1.4L328.2,364.4z M331.6,368.3c1,0,1.6-0.5,1.6-1.3l0,0c0-0.9-0.6-1.3-1.6-1.3h-2v2.7L331.6,368.3z"/>
				<path class="st2" d="M321.3,364.4h5.9v1.2h-4.5v2.1h4v1.2h-4v2.1h4.5v1.2h-5.9V364.4z"/>
				<path class="st3" d="M316.5,525.8L316.5,525.8c0-1.9,1.1-3.5,2.9-3.5s2.8,1.6,2.8,3.5l0,0c0,1.9-1.1,3.5-2.8,3.5
					S316.5,527.7,316.5,525.8z M321.4,525.8L321.4,525.8c0-1.5-0.8-2.8-2-2.8s-2,1.3-2,2.8l0,0c0,1.5,0.8,2.8,2.1,2.8
					S321.4,527.3,321.4,525.8z"/>
				<path class="st3" d="M323.4,525.8L323.4,525.8c0-1.9,1.1-3.5,2.9-3.5s2.8,1.6,2.8,3.5l0,0c0,1.9-1.1,3.5-2.8,3.5
					S323.4,527.7,323.4,525.8z M328.2,525.8L328.2,525.8c0-1.5-0.8-2.8-2-2.8s-2,1.3-2,2.8l0,0c0,1.5,0.8,2.8,2.1,2.8
					S328.2,527.3,328.2,525.8z"/>
				<path class="st3" d="M333.8,527.5h-3.5l-0.2-0.6l3.8-4.6h0.7v4.5h1v0.6h-1v1.6h-0.7L333.8,527.5L333.8,527.5z M333.8,526.9v-3.5
					l-2.8,3.5H333.8z"/>
				<path class="st3" d="M55.5,458.7L55.5,458.7c0-1.9,1.1-3.5,2.8-3.5s2.8,1.6,2.8,3.5l0,0c0,1.9-1.1,3.5-2.8,3.5
					S55.5,460.6,55.5,458.7z M60.3,458.7L60.3,458.7c0-1.5-0.8-2.8-2.1-2.8s-2,1.3-2,2.8l0,0c0,1.5,0.8,2.8,2.1,2.8
					S60.3,460.1,60.3,458.7z"/>
				<path class="st3" d="M63.4,456l-1.3,0.4l-0.2-0.6l1.6-0.6h0.6v6.8h-0.8v-6H63.4z"/>
				<path class="st3" d="M65.7,458.7L65.7,458.7c0-1.9,1.1-3.5,2.8-3.5s2.8,1.6,2.8,3.5l0,0c0,1.9-1.1,3.5-2.8,3.5
					S65.7,460.6,65.7,458.7z M70.6,458.7L70.6,458.7c0-1.5-0.8-2.8-2.1-2.8s-2,1.3-2,2.8l0,0c0,1.5,0.8,2.8,2.1,2.8
					S70.6,460.1,70.6,458.7z"/>
				<path class="st3" d="M53.4,367.3L53.4,367.3c0-1.9,1.1-3.5,2.8-3.5s2.8,1.6,2.8,3.5l0,0c0,1.9-1.1,3.5-2.8,3.5
					S53.4,369.2,53.4,367.3z M58.2,367.3L58.2,367.3c0-1.5-0.8-2.8-2.1-2.8s-2,1.3-2,2.8l0,0c0,1.5,0.8,2.8,2.1,2.8
					S58.2,368.8,58.2,367.3z"/>
				<path class="st3" d="M61.3,364.7l-1.3,0.4l-0.2-0.6l1.6-0.6h0.5v6.8h-0.8L61.3,364.7z"/>
				<path class="st3" d="M63.5,369.6l0.6-0.5c0.5,0.6,1.2,1,2,1c0.7,0.1,1.4-0.5,1.5-1.2v-0.1l0,0c0-0.8-0.8-1.3-1.9-1.3h-0.4
					l-0.2-0.5l2.1-2.4h-3.3v-0.7h4.3v0.6l-2.2,2.3c1.2,0.1,2.2,0.7,2.2,1.9l0,0c0,1.2-1,2.1-2.2,2c0,0,0,0-0.1,0
					C65,370.8,64.1,370.3,63.5,369.6z"/>
				<path class="st3" d="M105.1,298L105.1,298c0-1.9,1.1-3.5,2.9-3.5s2.8,1.6,2.8,3.5l0,0c0,1.9-1.1,3.5-2.8,3.5
					S105.1,299.9,105.1,298z M110,298L110,298c0-1.5-0.8-2.8-2.1-2.8s-2,1.3-2,2.8l0,0c0,1.5,0.8,2.8,2.1,2.8S110,299.5,110,298
					L110,298z"/>
				<path class="st3" d="M113.1,295.4l-1.3,0.4l-0.2-0.6l1.6-0.6h0.6v6.8H113L113.1,295.4L113.1,295.4z"/>
				<path class="st3" d="M115.3,300.4l0.5-0.5c0.5,0.5,1.2,0.9,1.9,0.9c0.8,0.1,1.6-0.6,1.6-1.4v-0.1l0,0c0-0.8-0.7-1.5-1.6-1.4
					h-0.1c-0.5,0-1,0.1-1.4,0.4l-0.5-0.3l0.2-3.3h3.9v0.7h-3.2l-0.1,2.1c0.4-0.2,0.9-0.3,1.3-0.3c1.1-0.1,2.2,0.7,2.3,1.8
					c0,0.1,0,0.1,0,0.2l0,0c0,1.2-1,2.2-2.2,2.2c-0.1,0-0.1,0-0.2,0C116.8,301.4,115.9,301.1,115.3,300.4z"/>
				<path class="st3" d="M166,237.4L166,237.4c0-1.9,1.1-3.5,2.9-3.5s2.8,1.6,2.8,3.5l0,0c0,1.9-1.1,3.5-2.8,3.5
					S166,239.2,166,237.4z M170.9,237.4L170.9,237.4c0-1.5-0.8-2.8-2.1-2.8s-2,1.3-2,2.8l0,0c0,1.5,0.8,2.8,2.1,2.8
					S170.9,238.8,170.9,237.4L170.9,237.4z"/>
				<path class="st3" d="M173.9,234.7l-1.3,0.4l-0.2-0.6l1.6-0.6h0.6v6.8h-0.8L173.9,234.7L173.9,234.7z"/>
				<path class="st3" d="M180.5,237.3v-0.1c-0.4,0.7-1.1,1.1-1.9,1.1c-1.2,0.1-2.2-0.7-2.3-1.9c0-0.1,0-0.1,0-0.2l0,0
					c0-1.3,1-2.3,2.3-2.3h0.1c0.7,0,1.3,0.2,1.8,0.7c0.6,0.7,0.9,1.7,0.8,2.6l0,0c0,2.1-1.1,3.6-2.8,3.6c-0.8,0-1.5-0.3-2.1-0.8
					l0.4-0.6c0.4,0.4,1,0.7,1.6,0.7C179.8,240.1,180.5,238.8,180.5,237.3z M180.3,236.1L180.3,236.1c0-0.9-0.8-1.6-1.6-1.5h-0.1
					c-0.8,0-1.6,0.6-1.6,1.5v0.1l0,0c0,0.8,0.7,1.5,1.5,1.5h0.1C179.5,237.7,180.3,237,180.3,236.1L180.3,236.1z"/>
				<path class="st3" d="M473.3,60.5L473.3,60.5c0-1.9,1.1-3.5,2.8-3.5s2.9,1.6,2.9,3.4l0,0c0,1.9-1.1,3.5-2.8,3.5
					S473.3,62.4,473.3,60.5z M478.2,60.5L478.2,60.5c0-1.5-0.8-2.8-2-2.8s-2,1.3-2,2.8l0,0c0,1.5,0.8,2.8,2.1,2.8
					S478.2,61.9,478.2,60.5z"/>
				<path class="st3" d="M479.9,63.2l2.4-2.2c1-0.9,1.4-1.4,1.4-2.1s-0.6-1.3-1.3-1.3c0,0,0,0-0.1,0c-0.8,0-1.4,0.5-1.8,1.2
					l-0.6-0.4c0.5-0.9,1.4-1.5,2.4-1.4c1.1-0.1,2,0.7,2.1,1.8v0.1l0,0c0,1-0.5,1.6-1.7,2.6l-1.8,1.6h3.6v0.7h-4.7L479.9,63.2z"/>
				<path class="st3" d="M490,60.4L490,60.4c-0.4,0.6-1.1,1-1.9,1c-1.2,0.1-2.2-0.7-2.3-1.9c0-0.1,0-0.1,0-0.2l0,0
					c0-1.3,1-2.3,2.3-2.3h0.1c0.7,0,1.3,0.2,1.8,0.7c0.6,0.7,0.9,1.7,0.8,2.6l0,0c0,2.1-1.1,3.6-2.8,3.6c-0.8,0-1.5-0.3-2-0.8
					l0.4-0.6c0.4,0.4,1,0.7,1.7,0.7C489.3,63.2,490,61.9,490,60.4z M489.9,59.2L489.9,59.2c0-0.9-0.8-1.5-1.7-1.5l0,0
					c-0.8,0-1.6,0.6-1.6,1.5v0.1l0,0c0,0.8,0.7,1.5,1.6,1.4h0.1C489.1,60.8,489.8,60.1,489.9,59.2L489.9,59.2L489.9,59.2z"/>
				<path class="st3" d="M506.6,138.3L506.6,138.3c0-1.9,1.1-3.5,2.8-3.5s2.8,1.6,2.8,3.4l0,0c0,1.9-1.1,3.5-2.8,3.5
					S506.6,140.1,506.6,138.3z M511.5,138.3L511.5,138.3c0-1.5-0.8-2.8-2-2.8s-2,1.3-2,2.8l0,0c0,1.5,0.8,2.8,2.1,2.8
					S511.5,139.7,511.5,138.3z"/>
				<path class="st3" d="M513.3,140.5l0.6-0.5c0.5,0.6,1.2,1,2,1c0.7,0.1,1.4-0.5,1.5-1.2v-0.1l0,0c0-0.8-0.8-1.3-1.9-1.3H515
					l-0.2-0.4l2.1-2.4h-3.3v-0.7h4.3v0.6l-2.1,2.3c1.2,0.1,2.2,0.7,2.2,1.9l0,0c0,1.2-1,2.1-2.2,2c0,0,0,0-0.1,0
					C514.8,141.8,513.9,141.3,513.3,140.5z"/>
				<path class="st3" d="M519.2,138.3L519.2,138.3c0-1.9,1.1-3.5,2.8-3.5s2.8,1.6,2.8,3.4l0,0c0,1.9-1.1,3.5-2.8,3.5
					S519.2,140.1,519.2,138.3z M524.1,138.3L524.1,138.3c0-1.5-0.8-2.8-2-2.8s-2,1.3-2,2.8l0,0c0,1.5,0.8,2.8,2.1,2.8
					S524.1,139.7,524.1,138.3z"/>
				<path class="st3" d="M753.2,144.3L753.2,144.3c0-1.9,1.1-3.5,2.8-3.5s2.8,1.6,2.8,3.4l0,0c0,1.9-1.1,3.5-2.8,3.5
					S753.2,146.2,753.2,144.3z M758.1,144.3L758.1,144.3c0-1.5-0.8-2.8-2-2.8s-2,1.3-2,2.8l0,0c0,1.5,0.8,2.8,2.1,2.8
					S758.1,145.8,758.1,144.3z"/>
				<path class="st3" d="M763.6,146.1h-3.5l-0.2-0.6l3.8-4.6h0.7v4.5h1v0.6h-1v1.6h-0.7L763.6,146.1L763.6,146.1z M763.6,145.4v-3.5
					l-2.8,3.5H763.6z"/>
				<path class="st3" d="M767.4,141.7l-1.3,0.4l-0.2-0.6l1.6-0.6h0.6v6.8h-0.8v-6H767.4z"/>
				<path class="st3" d="M770.8,190.3L770.8,190.3c0-1.9,1.1-3.5,2.8-3.5s2.8,1.6,2.8,3.4l0,0c0,1.9-1.1,3.5-2.8,3.5
					S770.8,192.1,770.8,190.3z M775.7,190.3L775.7,190.3c0-1.5-0.8-2.8-2-2.8s-2,1.3-2,2.8l0,0c0,1.5,0.8,2.8,2.1,2.8
					S775.7,191.7,775.7,190.3z"/>
				<path class="st3" d="M781.2,192h-3.5l-0.2-0.6l3.8-4.6h0.7v4.5h1v0.6h-1v1.6h-0.7L781.2,192L781.2,192z M781.2,191.4v-3.5
					l-2.8,3.5H781.2z"/>
				<path class="st3" d="M783.9,193l2.4-2.1c1-0.9,1.4-1.4,1.4-2.1c0-0.7-0.6-1.3-1.3-1.3h-0.1c-0.8,0-1.4,0.5-1.8,1.1l-0.6-0.4
					c0.5-0.9,1.4-1.5,2.4-1.4c1.1-0.1,2,0.7,2.1,1.8v0.1l0,0c0,1-0.5,1.6-1.7,2.6l-1.8,1.6h3.6v0.7H784L783.9,193z"/>
				<path class="st3" d="M818.4,205.1L818.4,205.1c0-1.9,1.1-3.5,2.8-3.5s2.8,1.6,2.8,3.4l0,0c0,1.9-1.1,3.5-2.8,3.5
					S818.4,206.9,818.4,205.1z M823.3,205.1L823.3,205.1c0-1.5-0.8-2.8-2-2.8s-2,1.3-2,2.8l0,0c0,1.5,0.8,2.8,2.1,2.8
					S823.3,206.5,823.3,205.1z"/>
				<path class="st3" d="M828.8,206.8h-3.5l-0.2-0.6l3.8-4.6h0.7v4.5h1v0.6h-1v1.6h-0.7L828.8,206.8z M828.8,206.2v-3.5l-2.8,3.5
					H828.8z"/>
				<path class="st3" d="M831.6,207.3l0.6-0.5c0.5,0.6,1.2,1,2,1c0.7,0.1,1.4-0.5,1.5-1.2v-0.1l0,0c0-0.8-0.8-1.3-1.9-1.3h-0.4
					l-0.2-0.4l2.1-2.4H832v-0.7h4.3v0.6l-2.1,2.3c1.2,0.1,2.2,0.7,2.2,1.9l0,0c0,1.2-1,2.1-2.2,2c0,0,0,0-0.1,0
					C833.2,208.5,832.2,208.1,831.6,207.3z"/>
				<path class="st3" d="M780.2,283.8L780.2,283.8c0-1.9,1.1-3.5,2.8-3.5s2.8,1.6,2.8,3.5l0,0c0,1.9-1.1,3.5-2.8,3.5
					S780.2,285.7,780.2,283.8z M785.1,283.8L785.1,283.8c0-1.5-0.8-2.8-2-2.8s-2,1.3-2,2.8l0,0c0,1.5,0.8,2.8,2.1,2.8
					S785.1,285.3,785.1,283.8z"/>
				<path class="st3" d="M790.6,285.6H787l-0.2-0.6l3.8-4.6h0.7v4.5h1v0.6h-1v1.6h-0.7V285.6z M790.6,285v-3.5l-2.8,3.5H790.6z"/>
				<path class="st3" d="M793.4,286.2l0.5-0.5c0.5,0.5,1.2,0.9,1.9,0.9c0.8,0.1,1.6-0.6,1.6-1.4v-0.1l0,0c0-0.8-0.7-1.5-1.6-1.4
					h-0.1c-0.5,0-1,0.1-1.4,0.4l-0.5-0.3l0.2-3.3h3.9v0.7h-3.2l-0.1,2.1c0.4-0.2,0.9-0.3,1.3-0.3c1.1-0.1,2.2,0.7,2.3,1.8
					c0,0.1,0,0.1,0,0.2l0,0c0,1.2-1,2.2-2.2,2.2c-0.1,0-0.1,0-0.2,0C794.9,287.3,794,286.9,793.4,286.2z"/>
				<path class="st3" d="M724.6,228.8L724.6,228.8c0-1.9,1.1-3.5,2.8-3.5s2.8,1.6,2.8,3.5l0,0c0,1.9-1.1,3.5-2.8,3.5
					S724.6,230.7,724.6,228.8z M729.5,228.8L729.5,228.8c0-1.5-0.8-2.8-2-2.8s-2,1.3-2,2.8l0,0c0,1.5,0.8,2.8,2.1,2.8
					S729.5,230.2,729.5,228.8z"/>
				<path class="st3" d="M731.3,231l0.6-0.5c0.5,0.6,1.2,1,2,1c0.7,0.1,1.4-0.5,1.5-1.2v-0.1l0,0c0-0.8-0.8-1.3-1.9-1.3H733
					l-0.2-0.5l2.1-2.4h-3.3v-0.7h4.3v0.6l-2.1,2.3c1.2,0.1,2.2,0.7,2.2,1.9l0,0c0,1.2-1,2.1-2.2,2c0,0,0,0-0.1,0
					C732.8,232.3,731.9,231.8,731.3,231z"/>
				<path class="st3" d="M738.1,231.6c-0.6-0.7-1-1.7-0.8-2.6l0,0c0-2,1-3.6,2.8-3.6c0.7,0,1.5,0.3,2,0.8l-0.4,0.6
					c-0.4-0.4-1-0.6-1.6-0.7c-1.3,0-2,1.4-2,2.9v0.1c0.4-0.6,1.1-1,1.9-1c1.2-0.1,2.2,0.8,2.3,2v0.1l0,0c0,1.3-1.1,2.3-2.3,2.2h-0.1
					C739.2,232.3,738.6,232,738.1,231.6z M741.5,230L741.5,230c0-0.8-0.7-1.5-1.5-1.4h-0.1c-0.9-0.1-1.6,0.6-1.7,1.5l0,0l0,0
					c0,0.9,0.8,1.5,1.6,1.5h0.1c0.8,0.1,1.6-0.6,1.6-1.4C741.5,230.1,741.5,230.1,741.5,230L741.5,230z"/>
				<path class="st3" d="M285.9,237.4L285.9,237.4c0-1.9,1.1-3.5,2.9-3.5s2.8,1.6,2.8,3.5l0,0c0,1.9-1.1,3.5-2.8,3.5
					S285.9,239.2,285.9,237.4z M290.8,237.4L290.8,237.4c0-1.5-0.8-2.8-2-2.8s-2,1.3-2,2.8l0,0c0,1.5,0.8,2.8,2.1,2.8
					S290.8,238.8,290.8,237.4L290.8,237.4z"/>
				<path class="st3" d="M292.5,240.1l2.4-2.1c1-0.9,1.4-1.4,1.4-2.1s-0.6-1.3-1.3-1.3h-0.1c-0.8,0-1.4,0.5-1.8,1.1l-0.6-0.4
					c0.5-0.9,1.4-1.5,2.4-1.4c1.1-0.1,2,0.7,2.1,1.8v0.1l0,0c0,1-0.5,1.6-1.7,2.6l-1.8,1.6h3.6v0.7h-4.7L292.5,240.1z"/>
				<path class="st3" d="M298.3,239.8l0.5-0.5c0.5,0.5,1.2,0.9,1.9,0.9c0.8,0.1,1.6-0.6,1.6-1.4v-0.1l0,0c0-0.8-0.7-1.5-1.6-1.4
					h-0.1c-0.5,0-1,0.1-1.4,0.4l-0.5-0.3l0.2-3.3h3.9v0.7h-3.2l-0.1,2.1c0.4-0.2,0.9-0.3,1.3-0.3c1.1-0.1,2.2,0.7,2.3,1.8
					c0,0.1,0,0.1,0,0.2l0,0c0,1.2-1,2.2-2.2,2.2c-0.1,0-0.1,0-0.2,0C299.8,240.8,298.9,240.4,298.3,239.8z"/>
				<path class="st3" d="M243.1,277.1L243.1,277.1c0-1.9,1.1-3.5,2.9-3.5s2.8,1.6,2.8,3.5l0,0c0,1.9-1.1,3.5-2.8,3.5
					S243.1,279,243.1,277.1z M248,277.1L248,277.1c0-1.5-0.8-2.8-2-2.8s-2,1.3-2,2.8l0,0c0,1.5,0.8,2.8,2.1,2.8S248,278.6,248,277.1
					L248,277.1z"/>
				<path class="st3" d="M249.8,279.9l2.4-2.1c1-0.9,1.4-1.4,1.4-2.1s-0.6-1.3-1.3-1.3h-0.1c-0.8,0-1.4,0.5-1.8,1.1l-0.6-0.4
					c0.5-0.9,1.4-1.4,2.4-1.4c1.1-0.1,2,0.7,2.1,1.8v0.1l0,0c0,1-0.5,1.6-1.7,2.6l-1.8,1.6h3.6v0.7h-4.7L249.8,279.9z"/>
				<path class="st3" d="M256.8,274.5l-1.3,0.4l-0.2-0.6l1.6-0.6h0.6v6.8h-0.8L256.8,274.5z"/>
				<path class="st3" d="M195.3,407h5v1h-3.8v1.7h3.4v1h-3.4v1.8h3.8v1h-5V407z"/>
				<path class="st3" d="M207.7,413.9l-0.8-0.7c-0.6,0.4-1.3,0.6-2,0.6c-1.9,0-3.4-1.4-3.5-3.3v-0.1l0,0c0.1-1.9,1.8-3.4,3.8-3.2
					c1.7,0.1,3.1,1.5,3.2,3.2l0,0c0,0.7-0.2,1.5-0.7,2.1l0.8,0.6L207.7,413.9z M206.1,412.5l-1.2-1l0.8-0.9l1.2,1.1
					c0.2-0.4,0.3-0.8,0.3-1.3l0,0c0-1.3-0.9-2.3-2.2-2.4c0,0,0,0-0.1,0c-1.3,0-2.3,1-2.3,2.3v0.1l0,0c0,1.3,1,2.3,2.2,2.4
					C205.3,412.7,205.7,412.6,206.1,412.5L206.1,412.5z"/>
				<path class="st3" d="M209.7,410.9V407h1.2v3.8c0,1.2,0.6,1.9,1.7,1.9s1.7-0.6,1.7-1.9v-3.9h1.2v3.8c0.2,1.5-0.9,2.8-2.3,3
					c-0.2,0-0.4,0-0.6,0c-1.5,0.1-2.7-1-2.9-2.4C209.7,411.3,209.7,411.1,209.7,410.9z"/>
				<path class="st3" d="M217.1,407h1.2v6.7h-1.2V407z"/>
				<path class="st3" d="M220.1,407h2.6c1.2-0.2,2.4,0.7,2.5,1.9c0,0.1,0,0.2,0,0.3l0,0c0,1.5-1.2,2.3-2.7,2.3h-1.3v2.1H220V407
					H220.1z M222.7,410.5c0.9,0,1.5-0.5,1.5-1.2l0,0c0-0.8-0.6-1.2-1.5-1.2h-1.4v2.4L222.7,410.5z"/>
				<path class="st3" d="M226.5,407h1.3l2,3.2l2-3.2h1.3v6.7h-1.2v-4.8l-2.1,3.2l0,0l-2.1-3.1v4.8h-1.2L226.5,407z"/>
				<path class="st3" d="M234.8,407h5v1H236v1.7h3.4v1H236v1.8h3.8v1h-5V407z"/>
				<path class="st3" d="M241.3,407h1.1l3.6,4.6V407h1.2v6.7h-1l-3.7-4.8v4.8h-1.2V407z"/>
				<path class="st3" d="M250.5,408.1h-2.1V407h5.5v1.1h-2.1v5.6h-1.2L250.5,408.1L250.5,408.1z"/>
				<path class="st3" d="M204.5,421.9L204.5,421.9c0-1.9,1.5-3.4,3.3-3.5h0.1c1,0,1.9,0.3,2.6,1l-0.8,0.9c-0.5-0.5-1.2-0.8-1.9-0.8
					c-1.2,0-2.2,1.1-2.2,2.3c0,0,0,0,0,0.1l0,0c-0.1,1.2,0.9,2.3,2.1,2.4c0,0,0,0,0.1,0c0.7,0,1.4-0.3,1.9-0.9l0.8,0.8
					c-0.7,0.8-1.7,1.2-2.7,1.2C206.1,425.3,204.6,423.8,204.5,421.9C204.5,422,204.5,421.9,204.5,421.9z"/>
				<path class="st3" d="M211.9,418.5h5v1h-3.8v1.7h3.4v1h-3.4v1.8h3.8v1h-5V418.5z"/>
				<path class="st3" d="M218.3,418.5h1.1l3.6,4.6v-4.6h1.2v6.7h-1l-3.7-4.8v4.8h-1.2V418.5z"/>
				<path class="st3" d="M227.5,419.6h-2.1v-1.1h5.5v1.1h-2.1v5.6h-1.2L227.5,419.6L227.5,419.6z"/>
				<path class="st3" d="M232.1,418.5h5v1h-3.8v1.7h3.4v1h-3.4v1.8h3.8v1h-5V418.5z"/>
				<path class="st3" d="M238.5,418.5h3c0.7,0,1.4,0.2,1.9,0.7c0.4,0.4,0.6,0.9,0.6,1.5l0,0c0,1-0.6,1.8-1.6,2l1.8,2.5h-1.4
					l-1.6-2.3h-1.5v2.3h-1.2L238.5,418.5z M241.4,421.9c0.8,0,1.4-0.4,1.4-1.1l0,0c0-0.7-0.5-1.1-1.4-1.1h-1.7v2.2H241.4z"/>
				<path class="st3" d="M679.7,353.9h3.4c0.7-0.1,1.5,0.2,2,0.7c0.3,0.3,0.5,0.8,0.5,1.2l0,0c0,0.7-0.4,1.4-1.1,1.7
					c0.9,0.2,1.5,0.9,1.5,1.8l0,0c0,1.4-1.1,2.1-2.8,2.1h-3.5L679.7,353.9z M684.2,356.1c0-0.6-0.5-1-1.3-1H681v2h1.8
					C683.7,357.1,684.2,356.7,684.2,356.1z M683.1,358.2H681v2.1h2.2c0.9,0,1.5-0.4,1.5-1l0,0C684.7,358.6,684.1,358.2,683.1,358.2
					L683.1,358.2z"/>
				<path class="st3" d="M687.5,353.9h1.3v6.3h4v1.2h-5.3V353.9z"/>
				<path class="st3" d="M693.8,358.3v-4.4h1.3v4.3c0,1.4,0.7,2.1,1.9,2.1s1.9-0.7,1.9-2.1v-4.4h1.3v4.3c0,2.2-1.3,3.4-3.2,3.4
					c-1.7,0.1-3.1-1.1-3.2-2.8C693.8,358.6,693.8,358.4,693.8,358.3z"/>
				<path class="st3" d="M702.1,353.9h5.6v1.2h-4.3v2h3.8v1.2h-3.8v2h4.3v1.2H702L702.1,353.9z"/>
				<path class="st3" d="M712.5,353.9h1.3v3.1h3.6v-3.1h1.3v7.5h-1.3v-3.2h-3.6v3.2h-1.3V353.9z"/>
				<path class="st3" d="M723.4,353.9h1.2l3.3,7.6h-1.4l-0.8-1.8h-3.6l-0.8,1.8h-1.4L723.4,353.9z M725.3,358.5l-1.3-3l-1.3,3H725.3
					z"/>
				<path class="st3" d="M729.3,353.9h1.3v6.3h4v1.2h-5.3V353.9z"/>
				<path class="st3" d="M735.9,353.9h1.3v6.3h4v1.2H736L735.9,353.9z"/>
				<path class="st3" d="M279.3,510h3c1.8,0,2.9,1,2.9,2.5l0,0c0,1.7-1.4,2.6-3,2.6h-1.5v2.4h-1.3L279.3,510z M282.2,514
					c1,0,1.6-0.6,1.6-1.3l0,0c0-0.9-0.6-1.3-1.6-1.3h-1.5v2.7L282.2,514z"/>
				<path class="st3" d="M286.5,510h3.4c0.8-0.1,1.6,0.2,2.2,0.8c0.4,0.4,0.6,1,0.6,1.6l0,0c0,1.1-0.7,2-1.8,2.3l2,2.9h-1.6
					l-1.9-2.6h-1.7v2.6h-1.3L286.5,510z M289.8,513.8c1,0,1.5-0.5,1.5-1.3l0,0c0-0.8-0.6-1.2-1.6-1.2h-1.9v2.5H289.8z"/>
				<path class="st3" d="M294,513.8L294,513.8c0.1-2.2,2-3.9,4.1-3.7c2,0.1,3.6,1.7,3.7,3.7l0,0c-0.1,2.2-2,3.9-4.1,3.7
					C295.7,517.5,294.1,515.9,294,513.8z M300.5,513.8L300.5,513.8c0.1-1.4-1.1-2.6-2.5-2.7h-0.1c-1.4,0-2.6,1.1-2.6,2.5v0.1l0,0
					c0,1.4,1.1,2.6,2.5,2.7h0.1c1.4,0,2.5-1.1,2.5-2.5C300.5,513.9,300.5,513.9,300.5,513.8L300.5,513.8z"/>
				<path class="st3" d="M302.4,516.5l0.9-0.9c0.3,0.5,0.9,0.9,1.5,0.9c0.7,0,1.2-0.5,1.2-1.5v-4.9h1.4v5c0,0.7-0.2,1.5-0.7,2
					s-1.2,0.7-1.8,0.7C303.9,517.7,303,517.3,302.4,516.5z"/>
				<path class="st3" d="M309.2,510h5.6v1.2h-4.3v2h3.8v1.2h-3.8v2h4.3v1.2h-5.7V510H309.2z"/>
				<path class="st3" d="M316.1,513.8L316.1,513.8c0-2.1,1.6-3.9,3.7-3.9c0.1,0,0.1,0,0.2,0c1.1-0.1,2.2,0.4,3,1.2l-0.9,1
					c-0.5-0.6-1.3-0.9-2.1-0.9c-1.4,0-2.5,1.2-2.5,2.6c0,0,0,0,0,0.1l0,0c-0.1,1.4,1,2.6,2.4,2.7h0.1c0.8,0,1.6-0.4,2.2-1l0.9,0.9
					c-0.8,0.9-1.9,1.4-3.1,1.3c-2.1,0.1-3.8-1.6-3.9-3.7C316.1,513.9,316.1,513.9,316.1,513.8z"/>
				<path class="st3" d="M326.2,511.3h-2.4v-1.2h6.2v1.2h-2.4v6.3h-1.3L326.2,511.3z"/>
				<path class="st3" d="M334.1,516.5l0.8-1c0.6,0.6,1.5,1,2.4,1c0.8,0,1.3-0.4,1.3-1l0,0c0-0.5-0.3-0.8-1.7-1.2
					c-1.6-0.4-2.5-0.9-2.5-2.2l0,0c0.1-1.3,1.1-2.3,2.4-2.2c0.1,0,0.1,0,0.2,0c1,0,2,0.3,2.7,1l-0.7,1c-0.6-0.5-1.3-0.7-2-0.8
					c-0.8,0-1.2,0.4-1.2,0.9l0,0c0,0.6,0.4,0.8,1.8,1.2s2.4,1,2.4,2.2l0,0c0,1.4-1.1,2.2-2.7,2.2C336.1,517.7,335,517.3,334.1,516.5
					z"/>
				<path class="st3" d="M341.5,510h3c1.8,0,2.9,1,2.9,2.5l0,0c0,1.7-1.4,2.6-3,2.6h-1.5v2.4h-1.4V510z M344.4,514
					c1,0,1.6-0.6,1.6-1.3l0,0c0-0.9-0.6-1.3-1.6-1.3h-1.5v2.7L344.4,514z"/>
				<path class="st3" d="M350.6,510h1.2l3.3,7.6h-1.4l-0.8-1.8h-3.6l-0.8,1.8h-1.4L350.6,510z M352.5,514.6l-1.3-3l-1.3,3H352.5z"/>
				<path class="st3" d="M355.7,513.8L355.7,513.8c0-2.1,1.6-3.9,3.7-3.9c0.1,0,0.1,0,0.2,0c1.1-0.1,2.2,0.4,3,1.2l-0.9,1
					c-0.5-0.6-1.3-0.9-2.1-0.9c-1.4,0-2.5,1.2-2.5,2.6c0,0,0,0,0,0.1l0,0c-0.1,1.4,1,2.6,2.4,2.7h0.1c0.8,0,1.6-0.4,2.2-1l0.9,0.9
					c-0.8,0.9-1.9,1.4-3.1,1.3c-2.1,0-3.8-1.7-3.8-3.8C355.7,513.9,355.7,513.9,355.7,513.8z"/>
				<path class="st3" d="M364,510h5.6v1.2h-4.3v2h3.8v1.2h-3.8v2h4.3v1.2H364V510z"/>
				<path class="st4" d="M513.2,417.6h1.2v5.6h3.5v1.1h-4.7V417.6z"/>
				<path class="st4" d="M518.5,420.9L518.5,420.9c0.1-1.9,1.8-3.4,3.8-3.2c1.7,0.1,3.1,1.5,3.2,3.2l0,0c-0.1,1.9-1.8,3.4-3.8,3.2
					C520,424,518.6,422.7,518.5,420.9z M524.2,420.9L524.2,420.9c0-1.3-0.9-2.3-2.2-2.4c0,0,0,0-0.1,0c-1.3,0-2.3,1-2.3,2.3v0.1l0,0
					c0,1.3,0.9,2.3,2.2,2.4h0.1c1.2,0,2.3-1,2.3-2.3C524.2,421,524.2,421,524.2,420.9L524.2,420.9z"/>
				<path class="st4" d="M526.9,417.6h3c0.6,0,1.3,0.2,1.8,0.6c0.3,0.3,0.5,0.7,0.5,1.1l0,0c0,0.7-0.4,1.3-1,1.5
					c0.8,0.2,1.3,0.8,1.3,1.6l0,0c0,1.2-1,1.8-2.5,1.8h-3.1V417.6z M530.9,419.5c0-0.5-0.4-0.9-1.2-0.9H528v1.8h1.6
					C530.4,420.4,530.9,420.1,530.9,419.5L530.9,419.5z M529.9,421.4H528v1.8h2c0.8,0,1.3-0.3,1.3-0.9l0,0
					C531.3,421.7,530.9,421.4,529.9,421.4L529.9,421.4z"/>
				<path class="st4" d="M533.8,417.6h3c0.6,0,1.3,0.2,1.8,0.6c0.3,0.3,0.5,0.7,0.5,1.1l0,0c0,0.7-0.4,1.3-1,1.5
					c0.8,0.2,1.3,0.8,1.3,1.6l0,0c0,1.2-1,1.8-2.5,1.8h-3.1V417.6z M537.8,419.5c0-0.5-0.4-0.9-1.2-0.9H535v1.8h1.6
					C537.4,420.4,537.9,420.1,537.8,419.5L537.8,419.5z M536.8,421.4H535v1.8h2c0.8,0,1.3-0.3,1.3-0.9l0,0
					C538.2,421.7,537.8,421.4,536.8,421.4L536.8,421.4z"/>
				<path class="st4" d="M542.4,421.6l-2.7-4.1h1.4l1.9,3l1.9-3h1.3l-2.7,4v2.7h-1.2L542.4,421.6z"/>
				<path class="st5" d="M479.3,571.7h8.4v1.8h-6.4v3h5.7v1.8h-5.7v3h6.5v1.8h-8.5V571.7z"/>
				<path class="st5" d="M494.2,571.6h1.8l5,11.5h-2l-1.2-2.8h-5.4l-1.2,2.8h-2L494.2,571.6z M497.1,578.6l-2-4.5l-2,4.5H497.1z"/>
				<path class="st5" d="M502.1,581.4l1.2-1.4c1,0.9,2.2,1.5,3.6,1.5c1.2,0,2-0.6,2-1.4l0,0c0-0.8-0.5-1.2-2.6-1.7
					c-2.4-0.6-3.8-1.3-3.8-3.4l0,0c0-2,1.6-3.3,3.9-3.3c1.5,0,3,0.5,4.1,1.4l-1.1,1.5c-0.9-0.7-2-1.1-3.1-1.2
					c-1.2,0-1.8,0.6-1.8,1.3l0,0c0,0.9,0.5,1.3,2.7,1.8c2.4,0.6,3.6,1.5,3.6,3.3l0,0c0,2.1-1.7,3.4-4.1,3.4
					C505,583.3,503.4,582.6,502.1,581.4z"/>
				<path class="st5" d="M515.8,573.6h-3.6v-1.9h9.2v1.8h-3.6v9.5h-2L515.8,573.6z"/>
				<path class="st5" d="M528.4,571.7h4.5c2.7,0,4.3,1.5,4.3,3.8l0,0c0,2.5-2,3.9-4.5,3.9h-2.3v3.7h-2V571.7z M532.7,577.6
					c1.5,0,2.5-0.8,2.5-2l0,0c0-1.3-1-2-2.5-2h-2.3v4.1L532.7,577.6z"/>
				<path class="st5" d="M539.2,571.7h2v9.5h6v1.8h-8V571.7z"/>
				<path class="st5" d="M553.3,571.6h1.8l5,11.5H558l-1.2-2.8h-5.4l-1.2,2.8h-2L553.3,571.6z M556.2,578.6l-2-4.5l-2,4.5H556.2z"/>
				<path class="st5" d="M561.7,581.6l6.7-8.1h-6.5v-1.8h9.1v1.5l-6.7,8.1h6.7v1.8h-9.3V581.6z"/>
				<path class="st5" d="M577.5,571.6h1.8l5,11.5h-2.1l-1.2-2.8h-5.4l-1.2,2.8h-2L577.5,571.6z M580.4,578.6l-2-4.5l-2,4.5H580.4z"
					/>
				<rect x="257.6" y="491.5" class="st6" width="1.1" height="0.4"/>
				<rect x="42.8" y="437.1" class="st6" width="0.4" height="1.1"/>
				
					<rect x="69.3" y="313.2" transform="matrix(0.7071 -0.7071 0.7071 0.7071 -219.8706 148.9369)" class="st7" width="1.1" height="53.3"/>
				
					<rect x="93.4" y="289.1" transform="matrix(0.7071 -0.7071 0.7071 0.7071 -195.7868 158.9099)" class="st7" width="1.1" height="53.3"/>
				
					<rect x="207.8" y="174.6" transform="matrix(0.7071 -0.7071 0.7071 0.7071 -81.4225 206.3091)" class="st7" width="1.1" height="53.7"/>
				
					<rect x="279.6" y="120" transform="matrix(0.7071 -0.7071 0.7071 0.7071 -16.5675 238.9441)" class="st7" width="1.1" height="39"/>
				<polygon class="st6" points="153.1,294.8 153.1,294.7 153.8,294 				"/>
				<polygon class="st6" points="115.1,256.8 115,256.7 115.8,256 				"/>
				
					<rect x="263.8" y="135.8" transform="matrix(0.7071 -0.7071 0.7071 0.7071 -32.4139 232.41)" class="st7" width="1.1" height="39"/>
				
					<rect x="252.5" y="196.9" transform="matrix(0.6869 -0.7267 0.7267 0.6869 -63.9675 245.5774)" class="st6" width="1.1" height="0.3"/>
				
					<rect x="299.7" y="147.7" transform="matrix(0.7092 -0.705 0.705 0.7092 -16.817 254.6333)" class="st6" width="1.1" height="0.1"/>
				
					<rect x="287.5" y="159.8" transform="matrix(0.705 -0.7092 0.7092 0.705 -28.3738 251.446)" class="st6" width="1.1" height="0.1"/>
				<path class="st8" d="M266.5,125.6"/>
				
					<rect x="310.4" y="136.9" transform="matrix(0.7483 -0.6634 0.6634 0.7483 -12.5696 240.7526)" class="st6" width="1.1" height="0.1"/>
				
					<rect x="321.9" y="125.5" transform="matrix(0.6654 -0.7465 0.7465 0.6654 14.2095 282.7039)" class="st6" width="1.1" height="0.1"/>
				
					<rect x="339.3" y="60.8" transform="matrix(0.707 -0.7072 0.7072 0.707 42.7709 263.8895)" class="st7" width="1.1" height="39.1"/>
				<polygon class="st7" points="375.9,80.7 374.8,80.7 374.8,71.7 369.3,71.7 344.8,47.3 345.6,46.5 369.7,70.6 375.9,70.6 				"/>
				<rect x="387" y="40.3" class="st7" width="1.1" height="40.4"/>
				<rect x="399.5" y="40.4" class="st7" width="1.1" height="40.4"/>
				<rect x="562.9" y="40.4" class="st7" width="1.1" height="40.3"/>
				<rect x="593.5" y="40.4" class="st7" width="1.1" height="40.3"/>
				<rect x="624" y="40.4" class="st7" width="1.1" height="40.4"/>
				<rect x="645.4" y="40.4" class="st7" width="1.1" height="40.3"/>
				<rect x="688.9" y="40.4" class="st7" width="1.1" height="40.3"/>
				<path class="st8" d="M700.1,153.6"/>
				<path class="st8" d="M704.1,149.6"/>
				<path class="st8" d="M760.9,76.7"/>
				<polygon class="st7" points="751.3,196.7 750.5,196 786.1,160.4 798.1,172.4 827,143.5 827.8,144.2 798.1,174 786.1,162 				"/>
				<polygon class="st7" points="775.1,220.6 774.3,219.8 809.1,185 797.7,173.6 798.5,172.8 810.6,185 				"/>
				
					<rect x="838.3" y="215.2" transform="matrix(0.7071 -0.7071 0.7071 0.7071 100.3768 673.9307)" class="st7" width="50.8" height="1.1"/>
				<path class="st8" d="M897.7,213.3"/>
				
					<rect x="824.6" y="342.9" transform="matrix(0.7071 -0.7071 0.7071 0.7071 -0.8164 683.8796)" class="st6" width="1.1" height="0.1"/>
				
					<rect x="745" y="184.5" transform="matrix(0.706 -0.7082 0.7082 0.706 30.8465 606.1879)" class="st7" width="1.1" height="162.9"/>
				
					<rect x="740.3" y="251.6" transform="matrix(0.7071 -0.7071 0.7071 0.7071 44.3528 611.387)" class="st7" width="39.8" height="1.1"/>
				<polygon class="st7" points="226.1,360.2 225.3,359.4 265.9,318.7 317.7,267.1 318.5,267.8 266.7,319.5 				"/>
				<path class="st8" d="M208.4,261.3"/>
				
					<rect x="266.4" y="219.7" transform="matrix(0.7097 -0.7045 0.7045 0.7097 -106.0131 263.6982)" class="st7" width="1.1" height="81.6"/>
				
					<rect x="236.8" y="249.3" transform="matrix(0.7071 -0.7071 0.7071 0.7071 -135.6932 252.8156)" class="st7" width="1.1" height="81.8"/>
				<path class="st9" d="M733.5,104.1"/>
				<path class="st9" d="M740.3,97.2"/>
				
					<rect x="874.2" y="222.6" transform="matrix(0.7071 -0.7071 0.7071 0.7071 102.5965 694.0043)" class="st7" width="29.7" height="1.1"/>
				<polyline class="st10" points="121.5,347.9 149.6,376.1 230.1,456.7 				"/>
				
					<rect x="175.3" y="325.5" transform="matrix(0.7076 -0.7066 0.7066 0.7076 -232.8552 241.8998)" class="st7" width="1.1" height="153.7"/>
				<line class="st11" x1="187.4" y1="337" x2="149.6" y2="376.1"/>
				
					<rect x="141.4" y="356" transform="matrix(0.6948 -0.7192 0.7192 0.6948 -204.9637 230.02)" class="st7" width="54.3" height="1.1"/>
				<line class="st11" x1="214.2" y1="363.9" x2="175.6" y2="402.3"/>
				
					<rect x="167.7" y="382.6" transform="matrix(0.7086 -0.7056 0.7056 0.7086 -213.5098 249.2093)" class="st7" width="54.5" height="1.1"/>
				<line class="st11" x1="118.6" y1="392.8" x2="142.5" y2="368.9"/>
				
					<rect x="113.6" y="380.3" transform="matrix(0.7071 -0.7071 0.7071 0.7071 -231.0776 203.8222)" class="st7" width="33.8" height="1.1"/>
				<path class="st12" d="M108.8,424.3"/>
				<polygon class="st7" points="155.9,457.1 115.2,416.4 107.8,423.3 107.1,422.6 115.3,414.9 156.6,456.3 				"/>
				<polygon class="st7" points="168.9,444 160.9,435.2 184.9,411.4 185.7,412.2 162.4,435.2 169.7,443.3 				"/>
				<line class="st11" x1="190.2" y1="464.2" x2="214.2" y2="440.7"/>
				
					<rect x="185.4" y="451.9" transform="matrix(0.7163 -0.6978 0.6978 0.7163 -258.3409 269.4547)" class="st7" width="33.6" height="1.1"/>
				
					<rect x="736" y="86.4" transform="matrix(0.7071 -0.7071 0.7071 0.7071 158.3368 556.1915)" class="st2" width="29.1" height="1.1"/>
				
					<rect x="878.3" y="244.9" transform="matrix(0.7071 -0.7071 0.7071 0.7071 89.9434 707.9816)" class="st7" width="42.6" height="1.1"/>
				<polygon class="st7" points="638.3,219.5 637.3,174.8 417.2,174.8 417,219.4 415.9,219.4 416.1,173.8 638.3,173.8 638.4,174.3 
					639.4,219.5 				"/>
				<rect x="43.2" y="437.1" class="st7" width="40.5" height="1.1"/>
				
					<rect x="133.9" y="249" transform="matrix(0.7071 -0.7071 0.7071 0.7071 -155.5319 175.8086)" class="st7" width="1.1" height="53.3"/>
				
					<rect x="231.6" y="150.8" transform="matrix(0.7071 -0.7071 0.7071 0.7071 -57.62 216.1809)" class="st7" width="1.1" height="53.7"/>
				
					<rect x="307.9" y="91.7" transform="matrix(0.7071 -0.7071 0.7071 0.7071 11.5127 250.7687)" class="st7" width="1.1" height="39.6"/>
				
					<rect x="320.7" y="79.2" transform="matrix(0.7071 -0.7071 0.7071 0.7071 24.2277 256.0684)" class="st7" width="1.1" height="39.2"/>
				<polygon class="st7" points="313.9,200.4 313.5,200 313.3,200.2 291.4,178.3 292.2,177.6 313.7,199.1 336.2,176.3 336.9,177.1 
					314.4,199.8 314.5,199.9 				"/>
				<polygon class="st7" points="350,235.5 327.8,213.5 327.8,213.5 327.2,212.9 327.6,212.5 327.4,212.3 349.8,189.9 350.5,190.7 
					328.5,212.7 350.7,234.7 				"/>
				<polygon class="st7" points="337.5,287.6 318.1,268.2 318.1,268.2 317.5,267.6 317.9,267.2 317.7,267.1 372.2,212.4 373,213.2 
					318.8,267.4 338.2,286.8 				"/>
				<rect x="82.8" y="491.9" class="st7" width="1.1" height="51.8"/>
				<rect x="205" y="491.9" class="st2" width="1.1" height="51.8"/>
				<rect x="257.6" y="492.5" class="st2" width="1.1" height="51"/>
				<rect x="257.6" y="491.9" class="st7" width="1.1" height="51.8"/>
				<rect x="204.3" y="492.1" class="st7" width="1.1" height="51.8"/>
			</g>
		</g>
	</g>
	<g id="Buttons">
		<g id="blue_2">
			<circle class="st13" cx="486.8" cy="26" r="21.1"/>
			<path class="st2" d="M479.2,33.8l7.3-6.2c2.9-2.5,4-3.8,4-5.7c0.1-1.7-1.3-3.2-3-3.3c-0.1,0-0.3,0-0.4,0c-1.9,0-3.3,1.1-4.9,3.2
				l-2.6-2.1c2-2.8,4-4.4,7.8-4.4c4.1,0,7,2.5,7,6.3v0.1c0,3.3-1.8,5.1-5.5,8.2l-4.3,3.6h10v3.2h-15.2v-2.9H479.2z"/>
		</g>
		<g id="blue_6">
			<circle class="st13" cx="869.2" cy="171.9" r="21.1"/>
			<path class="st2" d="M863.6,180.6c-1.6-1.6-2.6-3.8-2.6-8.1v-0.1c0-6.4,3.1-11.5,9-11.5c2.4,0,4.7,0.8,6.5,2.4l-2,2.9
				c-1.3-1.1-2.9-1.8-4.6-1.8c-3.7,0-5,3.8-5.1,6.7c1.3-1.4,3.1-2.2,5.1-2.1c4.1,0,7.4,2.4,7.4,6.6v0.1c0,4.2-3.4,7.2-7.8,7.2
				C867.3,182.9,865.2,182.1,863.6,180.6z M873.6,175.8L873.6,175.8c0-2.2-1.7-3.8-4.3-3.8s-4.3,1.7-4.3,3.7v0.1
				c0,2.1,1.8,3.8,4.4,3.8S873.6,178,873.6,175.8L873.6,175.8z"/>
		</g>
		<g id="blue_9">
			<circle class="st13" cx="277.8" cy="461.4" r="21.1"/>
			<path class="st2" d="M282.1,462.3c-1.2,1.5-3.1,2.3-5,2.3c-4.5,0-7.5-2.6-7.5-6.7v-0.1c0-4.1,3.2-7.3,7.9-7.3
				c2.2-0.1,4.3,0.7,5.9,2.2c1.5,1.6,2.5,3.9,2.5,8v0.1c0,6.8-3.4,11.5-9,11.5c-2.5,0-4.9-0.9-6.8-2.5l2-2.8c1.3,1.2,3,2,4.8,2
				C280.8,468.9,282.1,465.1,282.1,462.3z M282,457.6L282,457.6c0-2.3-1.7-4-4.4-4c-2.1-0.2-4,1.4-4.2,3.6c0,0.1,0,0.2,0,0.4v0.1
				c0,2.2,1.7,3.8,4.3,3.8S282,459.7,282,457.6L282,457.6z"/>
		</g>
		<g id="blue_10">
			<circle class="st13" cx="402.2" cy="518.9" r="21.1"/>
			<path class="st2" d="M391.1,512l-3.8,1.1l-0.8-3l5.7-1.8h2.6v21.3h-3.7L391.1,512z"/>
			<path class="st2" d="M399.5,519L399.5,519c0-6.1,3.7-11,9.2-11s9.2,4.8,9.2,10.9v0.1c0,6-3.7,10.9-9.2,10.9S399.5,525,399.5,519z
				 M414,519L414,519c0-4.2-2.1-7.6-5.4-7.6s-5.3,3.3-5.3,7.5v0.1c0,4.2,2.1,7.6,5.4,7.6S414,523.2,414,519L414,519z"/>
		</g>
		<g id="blue_11_a">
			<circle class="st13" cx="674.2" cy="125.9" r="21.1"/>
			<path class="st2" d="M668.7,118.9l-3.8,1.1l-0.8-3l5.7-1.8h2.6v21.3h-3.7V118.9z"/>
			<path class="st2" d="M680.6,118.9l-3.8,1.1l-0.8-3l5.7-1.8h2.6v21.3h-3.7V118.9z"/>
		</g>
		<g id="green_1">
			<circle class="st14" cx="687.6" cy="201.1" r="20.4"/>
			<path class="st2" d="M686,194.1l-3.8,1l-0.8-3l5.7-1.8h2.5v21.1H686V194.1z"/>
		</g>
		<g id="yellow_1">
			<g>
				<g>
					<defs>
						<rect id="SVGID_1_" x="483" y="597.5" width="42.9" height="42.9"/>
					</defs>
					<clipPath id="SVGID_2_">
						<use xlink:href="#SVGID_1_"  style="overflow:visible;"/>
					</clipPath>
					<g class="st15">
						<path class="st16" d="M525.9,618.9c0,11.9-9.6,21.5-21.5,21.5s-21.5-9.6-21.5-21.5s9.6-21.5,21.5-21.5l0,0
							C516.3,597.5,525.9,607.1,525.9,618.9"/>
					</g>
				</g>
			</g>
			<polygon class="st2" points="502.8,611.5 498.8,612.6 498,609.5 503.9,607.6 506.6,607.6 506.6,629.8 502.8,629.8 			"/>
		</g>
		<g id="yellow_2">
			<g>
				<g>
					<defs>
						<rect id="SVGID_3_" x="479.1" y="435.9" width="43" height="43"/>
					</defs>
					<clipPath id="SVGID_4_">
						<use xlink:href="#SVGID_3_"  style="overflow:visible;"/>
					</clipPath>
					<g class="st17">
						<path class="st18" d="M522.1,457.4c0,11.9-9.6,21.5-21.5,21.5s-21.5-9.6-21.5-21.5s9.6-21.5,21.5-21.5l0,0
							C512.5,435.9,522.1,445.5,522.1,457.4"/>
						<path class="st2" d="M492.8,465.3l7.7-6.3c3.1-2.5,4.2-3.9,4.2-5.8c0-1.8-1.4-3.3-3.2-3.4c-0.1,0-0.3,0-0.4,0
							c-2,0-3.5,1.1-5.2,3.2l-2.8-2.1c2.1-2.9,4.2-4.5,8.2-4.5c4.4,0,7.4,2.6,7.4,6.4v0.1c0,3.4-1.8,5.2-5.8,8.3l-4.6,3.7H509v3.3
							h-16.2V465.3z"/>
					</g>
				</g>
			</g>
		</g>
		<g id="yellow_3">
			<g>
				<g>
					<defs>
						<rect id="SVGID_5_" x="720.8" y="293.1" width="42.3" height="42.3"/>
					</defs>
					<clipPath id="SVGID_6_">
						<use xlink:href="#SVGID_5_"  style="overflow:visible;"/>
					</clipPath>
					<g class="st19">
						<path class="st18" d="M763.1,314.2c0,11.7-9.5,21.2-21.2,21.2s-21.2-9.5-21.2-21.2s9.5-21.2,21.2-21.2l0,0
							C753.6,293.1,763.1,302.5,763.1,314.2"/>
						<path class="st2" d="M734.2,321.2l2.6-2.4c1.3,1.8,3.4,2.8,5.6,2.8c2.1,0,3.7-1.3,3.7-3.2v-0.1c0-2.1-1.9-3.3-4.9-3.3h-1.7
							l-0.6-2.3l5.7-6.1h-9.2v-3.2h14v2.8l-5.9,6c3.2,0.4,6.2,2,6.2,5.9v0.1c0,3.9-3,6.7-7.4,6.7C739.2,325,736.2,323.6,734.2,321.2
							"/>
					</g>
				</g>
			</g>
		</g>
		<g id="yellow_7">
			<g>
				<g>
					<defs>
						<rect id="SVGID_7_" x="5.1" y="439.7" width="42.1" height="42.1"/>
					</defs>
					<clipPath id="SVGID_8_">
						<use xlink:href="#SVGID_7_"  style="overflow:visible;"/>
					</clipPath>
					<g class="st20">
						<path class="st18" d="M47.1,460.8c0,11.6-9.4,21-21,21s-21-9.4-21-21s9.4-21,21-21l0,0C37.7,439.8,47.1,449.2,47.1,460.8"/>
					</g>
				</g>
			</g>
			<polygon class="st2" points="30.4,453.5 19.8,453.5 19.8,450.3 34.6,450.3 34.6,453.1 25.2,471.3 21,471.3 			"/>
		</g>
		<g id="pink_1">
			<circle class="st21" cx="733.2" cy="191.9" r="21"/>
			<path class="st2" d="M731.5,184.7l-3.9,1.1l-0.8-3.1l5.8-1.9h2.6v21.7h-3.8v-17.8H731.5z"/>
		</g>
		<g id="pink_3">
			<circle class="st21" cx="534.8" cy="25.8" r="20.1"/>
			<path class="st2" d="M527.5,32.4l2.5-2.3c1.2,1.7,3.2,2.6,5.3,2.6c2,0,3.5-1.2,3.5-3v0c0-2-1.8-3.1-4.6-3.1h-1.6l-0.6-2.2
				l5.4-5.8h-8.7v-3.1h13.2v2.6l-5.6,5.7c3,0.4,5.9,1.9,5.9,5.6v0.1c0,3.7-2.8,6.3-7,6.3C532.2,36.1,529.4,34.8,527.5,32.4z"/>
		</g>
		<g id="pink_4">
			<circle class="st21" cx="552" cy="618.8" r="20.8"/>
			<path class="st2" d="M553.3,623.5h-10.5l-0.7-2.6l11.6-13.7h3.1v13.3h3v3h-3v4.7h-3.5L553.3,623.5L553.3,623.5z M553.3,620.5
				v-8.2l-6.8,8.2H553.3z"/>
		</g>
		<g id="pink_5">
			
				<ellipse transform="matrix(0.9998 -1.867442e-02 1.867442e-02 0.9998 -8.4377 10.3503)" class="st21" cx="550" cy="457" rx="20.8" ry="20.8"/>
			<path class="st2" d="M542.6,464.5l2.2-2.7c1.4,1.5,3.4,2.3,5.4,2.4c2.5,0,4.1-1.5,4.1-3.7v-0.1c0-2.1-1.8-3.4-4.4-3.4
				c-1.3,0-2.6,0.4-3.8,1l-2.2-1.4l0.4-10.2l12.5-0.2l0.1,3.2l-9.3,0.2l-0.2,4.9c1-0.4,2.2-0.7,3.3-0.7c4-0.1,7.3,2,7.4,6.4v0.1
				c0.1,4.2-3,7.1-7.6,7.2C547.4,467.6,544.6,466.5,542.6,464.5z"/>
		</g>
		<g id="red_3">
			<circle class="st22" cx="823.6" cy="306.5" r="21.1"/>
			<path class="st2" d="M815.8,313.6l2.6-2.4c1.3,1.8,3.4,2.8,5.5,2.8s3.7-1.3,3.7-3.2l0,0c0-2.1-1.9-3.3-4.9-3.3H821l-0.6-2.3
				l5.7-6.1H817v-3.2h14v2.8l-5.9,6c3.2,0.4,6.2,2,6.2,5.9v0.1c0,3.9-3,6.7-7.4,6.7C820.8,317.4,817.8,316,815.8,313.6z"/>
		</g>
		<g id="red_4">
			<circle class="st22" cx="220.8" cy="376.5" r="21.1"/>
			<path class="st2" d="M222.1,381.3h-10.6l-0.7-2.6l11.7-13.9h3.2v13.5h3v3h-3v4.7h-3.6V381.3z M222.1,378.3v-8.4l-6.9,8.4H222.1z"
				/>
		</g>
		<g id="red_5">
			<circle class="st22" cx="90.1" cy="271.8" r="21.1"/>
			<path class="st2" d="M82.4,279.2l2.3-2.7c1.4,1.5,3.4,2.4,5.4,2.5c2.5,0,4.2-1.5,4.2-3.6v-0.1c0-2.1-1.8-3.5-4.4-3.5
				c-1.4,0-2.7,0.3-3.9,0.9l-2.2-1.5l0.6-10.4H97v3.3h-9.4l-0.3,5c1.1-0.4,2.2-0.6,3.4-0.6c4.1,0,7.4,2.2,7.4,6.6v0.1
				c0,4.3-3.2,7.1-7.8,7.1C87.3,282.5,84.5,281.3,82.4,279.2z"/>
		</g>
		<g id="red_6">
			<circle class="st22" cx="478.4" cy="134.3" r="21.1"/>
			<path class="st2" d="M472.9,143c-1.6-1.6-2.6-3.8-2.6-8.1v-0.1c0-6.4,3.1-11.5,9-11.5c2.4-0.1,4.7,0.8,6.5,2.3l-2,2.9
				c-1.3-1.1-2.9-1.8-4.6-1.8c-3.7,0-5,3.8-5.1,6.7c1.3-1.4,3.1-2.2,5.1-2.1c4.1,0,7.4,2.4,7.4,6.6v0.1c0,4.2-3.4,7.2-7.8,7.2
				C476.6,145.3,474.4,144.5,472.9,143z M482.9,138.2L482.9,138.2c0-2.2-1.7-3.7-4.3-3.7s-4.3,1.7-4.3,3.7v0.1
				c0,2.1,1.8,3.8,4.4,3.8S482.9,140.4,482.9,138.2L482.9,138.2z"/>
		</g>
		<g id="red_8_a">
			<circle class="st22" cx="821.4" cy="366.7" r="21.1"/>
			<path class="st2" d="M813.3,371.5L813.3,371.5c0-2.6,1.4-4.2,3.8-5.2c-1.9-0.8-3.1-2.7-3.1-4.7v-0.1c0-3.2,3.1-5.7,7.3-5.7
				s7.3,2.4,7.3,5.7v0.1c0,2-1.2,3.9-3.1,4.7c2.3,1.1,3.8,2.6,3.8,5.1v0.1c0,3.8-3.4,6.1-8,6.1S813.3,375.1,813.3,371.5z
				 M825.8,371.3L825.8,371.3c0-2-1.9-3.3-4.4-3.3s-4.4,1.3-4.4,3.2v0.1c0,1.7,1.6,3.2,4.4,3.2S825.8,373,825.8,371.3z M825.2,361.9
				L825.2,361.9c0-1.7-1.5-3.1-3.8-3.1s-3.8,1.3-3.8,2.9v0.1c0,1.8,1.6,3.1,3.8,3.1S825.2,363.7,825.2,361.9L825.2,361.9z"/>
		</g>
		<g id="red_8_b">
			<circle class="st22" cx="809.4" cy="162.5" r="21.1"/>
			<path class="st2" d="M801.4,167.3L801.4,167.3c0-2.6,1.4-4.2,3.8-5.2c-1.9-0.8-3.1-2.7-3.1-4.7v-0.1c0-3.2,3.1-5.7,7.3-5.7
				s7.3,2.4,7.3,5.7v0.1c0,2-1.2,3.9-3.1,4.7c2.3,1.1,3.8,2.6,3.8,5.1v0.1c0,3.8-3.4,6.1-8,6.1S801.4,171,801.4,167.3z M813.9,167.1
				L813.9,167.1c0-2-1.9-3.3-4.4-3.3s-4.4,1.3-4.4,3.2v0.1c0,1.7,1.6,3.2,4.4,3.2S813.9,168.9,813.9,167.1L813.9,167.1z
				 M813.2,157.8v-0.1c0-1.6-1.5-3-3.8-3s-3.8,1.3-3.8,2.9v0.1c0,1.8,1.6,3.1,3.8,3.1S813.2,159.6,813.2,157.8L813.2,157.8z"/>
		</g>
		<g id="red_8_c">
			<circle class="st22" cx="27.7" cy="359.1" r="21.1"/>
			<path class="st2" d="M19.6,363.9L19.6,363.9c0-2.6,1.4-4.2,3.8-5.2c-1.9-0.8-3.1-2.7-3.1-4.7v-0.1c0-3.2,3.1-5.7,7.3-5.7
				s7.4,2.5,7.4,5.7v0.1c0,2.1-1.2,3.9-3.1,4.7c2.3,1.1,3.8,2.6,3.8,5.1v0.1c0,3.8-3.4,6.1-8.1,6.1S19.6,367.5,19.6,363.9z
				 M32.1,363.7L32.1,363.7c0-2-1.9-3.3-4.4-3.3s-4.4,1.3-4.4,3.2v0.1c0,1.7,1.6,3.2,4.4,3.2S32.1,365.4,32.1,363.7z M31.4,354.4
				L31.4,354.4c0-1.7-1.5-3.1-3.8-3.1s-3.8,1.3-3.8,2.9v0.1c0,1.8,1.6,3.1,3.8,3.1S31.4,356.2,31.4,354.4L31.4,354.4z"/>
		</g>
		<g id="teal_2">
			<circle class="st23" cx="434.4" cy="27.5" r="20.7"/>
			<path class="st2" d="M426.9,35.1L434,29c2.8-2.4,3.9-3.7,3.9-5.6c0.1-1.7-1.3-3.2-3-3.2c-0.1,0-0.2,0-0.4,0c-1.9,0-3.2,1-4.8,3.1
				l-2.6-2c2-2.8,3.9-4.3,7.6-4.3c4,0,6.8,2.5,6.8,6.2v0.1c0,3.2-1.7,5-5.4,8l-4.3,3.6h9.9v3.2h-15L426.9,35.1z"/>
		</g>
		<g id="teal_4">
			<circle class="st23" cx="277.5" cy="205.1" r="21.3"/>
			<path class="st2" d="M278.8,209.9H268l-0.7-2.7l11.9-14h3.2v13.6h3v3.1h-3v4.8h-3.6V209.9z M278.8,206.8v-8.4l-7,8.4H278.8z"/>
		</g>
		<g id="teal_5">
			<circle class="st23" cx="149.8" cy="212.1" r="21.1"/>
			<path class="st2" d="M142.1,219.5l2.3-2.7c1.4,1.5,3.4,2.4,5.4,2.5c2.5,0,4.2-1.4,4.2-3.6v-0.1c0-2.1-1.8-3.5-4.4-3.5
				c-1.4,0-2.7,0.3-3.9,0.9l-2.2-1.5l0.6-10.4h12.6v3.3h-9.4l-0.3,4.9c1.1-0.4,2.2-0.6,3.4-0.6c4.1,0,7.4,2.2,7.4,6.6v0.1
				c0,4.3-3.2,7.2-7.8,7.2C147,222.7,144.2,221.6,142.1,219.5z"/>
		</g>
		<g id="teal_6">
			<circle class="st23" cx="227.2" cy="248.5" r="20.8"/>
			<path class="st2" d="M221.8,257c-1.6-1.6-2.5-3.7-2.5-7.9V249c0-6.4,3-11.3,8.9-11.3c2.3,0,4.6,0.8,6.4,2.3l-2,2.8
				c-1.2-1.1-2.8-1.8-4.5-1.8c-3.6,0-4.9,3.8-5,6.6c1.3-1.4,3.1-2.2,5-2.1c4,0,7.2,2.4,7.2,6.5v0.1c0,4.1-3.4,7.1-7.7,7.1
				C225.4,259.3,223.3,258.5,221.8,257z M231.6,252.3L231.6,252.3c0-2.1-1.7-3.7-4.2-3.7s-4.2,1.7-4.2,3.6v0.1
				c0,2.1,1.7,3.7,4.3,3.7S231.6,254.5,231.6,252.3L231.6,252.3z"/>
		</g>
		<g id="teal_8">
			<circle class="st23" cx="796.4" cy="106.3" r="21.1"/>
			<path class="st2" d="M788.3,111.1L788.3,111.1c0-2.6,1.4-4.2,3.8-5.2c-1.9-0.8-3.1-2.7-3.1-4.7v-0.1c0-3.2,3.1-5.7,7.3-5.7
				s7.3,2.4,7.3,5.7v0.1c0,2-1.2,3.9-3.1,4.7c2.3,1.1,3.8,2.6,3.8,5.1v0.1c0,3.8-3.4,6.1-8,6.1S788.3,114.7,788.3,111.1z
				 M800.8,110.9L800.8,110.9c0-2-1.9-3.3-4.4-3.3s-4.4,1.3-4.4,3.2v0.1c0,1.7,1.6,3.2,4.4,3.2S800.8,112.6,800.8,110.9L800.8,110.9
				z M800.2,101.6L800.2,101.6c0-1.7-1.5-3.1-3.8-3.1s-3.8,1.3-3.8,2.9v0.1c0,1.8,1.6,3.1,3.8,3.1S800.2,103.4,800.2,101.6
				L800.2,101.6z"/>
		</g>
		<g id="chicken">
			<circle class="st24" cx="127.2" cy="358.4" r="36.6"/>
			<path class="st2" d="M111.6,368.4c-0.1-0.4-0.2-0.8-0.4-1.2c-0.3-0.7-0.6-1.4-0.9-2c-0.4-0.7-0.4-1.7,0.1-2.4
				c0.3-0.3,0.7-0.4,1.1-0.4c0.6,0.1,1.1,0.4,1.6,0.7c0.6,0.4,1.1,0.9,1.5,1.5c0.6,0.8,0.8,1.7,0.6,2.7c-0.1,0.7-0.6,1.2-1.3,1.5
				C113.1,369.3,112.2,369.1,111.6,368.4L111.6,368.4z"/>
			<path class="st2" d="M132,348.1c-0.6-0.5-0.5-1.2-0.7-1.7c-0.2-0.4-0.4-0.8-0.6-1.2c-0.5-0.7-0.5-1.6-0.2-2.4
				c0.3-0.6,1-0.8,1.6-0.6c0.9,0.3,1.8,0.9,2.4,1.6c0.6,0.7,1,1.6,1.1,2.5c0.1,1.2-0.9,2.3-2.1,2.4c-0.2,0-0.4,0-0.6,0
				C132.6,348.5,132.3,348.3,132,348.1z"/>
			<path class="st2" d="M124.9,358c-0.8,0.6-1.8,1.1-2.7,0.5c-0.5-0.3-0.8-0.8-0.9-1.4c-0.1-0.7-0.4-1.4-0.9-2
				c-0.4-0.7-0.6-2.1,0.3-2.7c0.3-0.2,0.6-0.2,0.9-0.2c1.1,0.2,2.1,0.8,2.8,1.8c0.8,0.8,1.1,1.9,0.9,3
				C125.3,357.4,125.1,357.7,124.9,358z"/>
			<path class="st2" d="M117.3,360c0.6,0.7,1.1,1.4,1.6,2.2c0.2,0.4,0.2,0.9,0.1,1.4c-0.3,0.9-1.1,1.6-2,1.6
				c-0.6,0.1-1.2-0.2-1.7-0.6c-1.1-1-1.7-2.5-1.6-4c0-0.4,0.1-0.9,0.2-1.3c0.2-0.5,0.8-0.8,1.3-0.6c0.1,0,0.2,0.1,0.2,0.1
				C116.1,359.1,116.7,359.6,117.3,360z"/>
			<path class="st2" d="M127.6,350.1c0.5,0.6,0.9,1.3,1.4,2c0.3,0.4,0.3,0.9,0.1,1.4c-0.2,0.9-1,1.5-1.9,1.6c-0.4,0-0.8-0.1-1.1-0.3
				c-0.6-0.4-1.1-0.9-1.5-1.5c-0.5-0.8-0.8-1.8-0.7-2.7c0-0.5,0.1-0.9,0.2-1.4c0.1-0.4,0.5-0.7,0.9-0.6h0.1c0.4,0.1,0.9,0.3,1.2,0.5
				c0.4,0.3,0.8,0.7,1.1,1.1L127.6,350.1z"/>
			<path class="st2" d="M135.4,344c-1.2-1.2-1.7-3-1.4-4.6c0.1-0.9,0.7-1.2,1.6-0.8c0.7,0.4,1.4,0.9,1.9,1.5
				c0.4,0.4,0.7,0.8,1.1,1.2c0.5,0.5,0.8,1.3,0.6,2c-0.3,1.2-1.5,1.9-2.7,1.7h-0.1C136.1,344.7,135.8,344.3,135.4,344z"/>
			<path class="st2" d="M105.7,367.9c0.4-0.4,1-0.5,1.5-0.3c1.3,0.5,2.3,1.3,3.1,2.5c0.5,0.5,0.7,1.3,0.6,2
				c-0.1,0.3-0.2,0.5-0.3,0.8L105.7,367.9z"/>
			<path class="st2" d="M118.2,360.2c-0.7-0.7-1.4-1.4-2.1-2.1c-0.1-0.1-0.2-0.3-0.2-0.4s0.3-0.3,0.4-0.3c0.5,0,1,0.1,1.5,0.3
				c1.1,0.5,2,1.3,2.7,2.3c0.5,0.5,0.7,1.3,0.6,2c-0.1,0.2-0.2,0.4-0.3,0.5c-0.1,0-0.3-0.1-0.4-0.2
				C119.6,361.6,118.9,360.9,118.2,360.2z"/>
			<path class="st2" d="M130.9,352.6l-0.6-0.6l-4.1-4.1c-0.1-0.1-0.2-0.2-0.1-0.3s0.2-0.3,0.3-0.3c0.5,0,1,0.1,1.4,0.2
				c1.2,0.6,2.3,1.5,3,2.6c0.4,0.5,0.6,1.2,0.4,1.8C131.1,352.2,131,352.4,130.9,352.6z"/>
			<path class="st2" d="M117.5,356.2c0.6-1,0.8-1,1.5-0.3c1.3,1.3,2.6,2.6,3.9,3.9c0.3,0.3,0.1,0.5-0.1,0.6s-0.4,0.7-0.8,0.3
				C120.6,359.3,119.1,357.7,117.5,356.2z"/>
			<path class="st2" d="M107.4,366.2c0.2-0.2,0.4-0.4,0.6-0.6c0.2-0.1,0.3,0,0.5,0c0.9,0.9,1.7,1.7,2.6,2.6c0.5,0.5,1.1,1,1.6,1.5
				s0.5,0.5,0,1l-0.4,0.3L107.4,366.2z"/>
			<path class="st2" d="M128.4,345.2l1,1c1.2,1.2,2.4,2.4,3.6,3.6c0.4,0.4,0,0.6-0.2,0.8s-0.4,0.2-0.7,0c-1.4-1.4-2.8-2.8-4.2-4.2
				c-0.3-0.3-0.3-0.5,0-0.7C128.1,345.5,128.3,345.3,128.4,345.2z"/>
			<path class="st2" d="M143.2,334.9c0,0.2-0.1,0.4-0.2,0.5c-1.2,1.6-2.6,3.1-4.1,4.5c-0.2,0.2-0.4,0.4-0.6,0.1s-0.5-0.4-0.2-0.8
				c1.1-1.1,2.3-2.3,3.4-3.4c0.5-0.4,1-0.7,1.5-1L143.2,334.9z"/>
			<path class="st2" d="M105.1,372.3c0.6-0.6,1.1-1.1,1.7-1.7c0.3-0.3,0.5-0.2,0.7,0s0.5,0.4,0.1,0.7c-1.2,1.1-2.3,2.3-3.4,3.4
				c-0.3,0.3-0.4,0.1-0.7-0.1s-0.4-0.4-0.1-0.7C103.9,373.5,104.5,372.9,105.1,372.3z"/>
			<path class="st2" d="M119.6,374.4c-0.1-0.4-0.2-0.8-0.4-1.2c-0.3-0.7-0.6-1.4-0.9-2c-0.4-0.7-0.4-1.7,0.1-2.4
				c0.3-0.3,0.7-0.4,1.1-0.4c0.6,0.1,1.1,0.4,1.6,0.7c0.6,0.4,1.1,0.9,1.5,1.5c0.6,0.8,0.8,1.7,0.6,2.7c-0.1,0.7-0.6,1.2-1.2,1.5
				c-0.8,0.5-1.7,0.3-2.3-0.4L119.6,374.4z"/>
			<path class="st2" d="M140,354.1c-0.6-0.5-0.5-1.2-0.7-1.7c-0.2-0.4-0.4-0.8-0.6-1.2c-0.5-0.7-0.5-1.6-0.2-2.4
				c0.3-0.6,1-0.8,1.6-0.6c0.9,0.3,1.8,0.9,2.4,1.6c0.6,0.7,1,1.6,1.1,2.5c0.1,1.2-0.9,2.3-2.1,2.4c-0.2,0-0.4,0-0.6,0
				C140.6,354.5,140.3,354.3,140,354.1z"/>
			<path class="st2" d="M133,364.1c-0.8,0.6-1.8,1.1-2.7,0.5c-0.5-0.3-0.8-0.8-0.9-1.4c-0.1-0.7-0.4-1.4-0.9-2
				c-0.4-0.7-0.6-2.1,0.3-2.7c0.3-0.2,0.6-0.2,0.9-0.2c1.1,0.2,2.1,0.8,2.8,1.8c0.8,0.8,1.1,1.9,0.9,3
				C133.3,363.4,133.2,363.7,133,364.1z"/>
			<path class="st2" d="M125.3,366c0.6,0.7,1.1,1.4,1.6,2.2c0.2,0.4,0.2,0.9,0.1,1.4c-0.3,0.9-1.1,1.6-2,1.6
				c-0.6,0.1-1.2-0.2-1.7-0.6c-1.1-1-1.7-2.5-1.6-4c0-0.4,0.1-0.9,0.2-1.3c0.2-0.5,0.8-0.8,1.3-0.6c0.1,0,0.2,0.1,0.2,0.1
				C124.2,365.2,124.8,365.6,125.3,366z"/>
			<path class="st2" d="M135.6,356.1c0.5,0.6,0.9,1.3,1.4,2c0.3,0.4,0.3,0.9,0.1,1.4c-0.2,0.9-1,1.5-1.9,1.6c-0.4,0-0.8-0.1-1.1-0.3
				c-0.6-0.4-1.1-0.9-1.5-1.5c-0.5-0.8-0.8-1.8-0.7-2.7c0-0.5,0.1-0.9,0.2-1.4c0.1-0.4,0.5-0.7,0.9-0.6h0.1c0.4,0.1,0.9,0.3,1.2,0.5
				c0.4,0.3,0.8,0.7,1.1,1.1L135.6,356.1z"/>
			<path class="st2" d="M143.4,350c-1.2-1.2-1.7-3-1.4-4.6c0.1-0.9,0.7-1.2,1.6-0.8c0.7,0.4,1.4,0.9,1.9,1.5
				c0.4,0.4,0.7,0.8,1.1,1.2c0.5,0.5,0.8,1.3,0.6,2c-0.3,1.2-1.5,1.9-2.7,1.7h-0.1C144.1,350.7,143.8,350.3,143.4,350z"/>
			<path class="st2" d="M113.8,373.9c0.4-0.4,1-0.5,1.5-0.3c1.3,0.5,2.3,1.3,3.1,2.5c0.5,0.5,0.7,1.3,0.6,2
				c-0.1,0.3-0.2,0.5-0.3,0.8L113.8,373.9z"/>
			<path class="st2" d="M126.2,366.3c-0.7-0.7-1.4-1.4-2.1-2.1c-0.1-0.1-0.2-0.3-0.2-0.4s0.3-0.3,0.4-0.3c0.5,0,1,0.1,1.5,0.3
				c1.1,0.5,2,1.3,2.7,2.3c0.5,0.5,0.7,1.3,0.6,2c-0.1,0.2-0.2,0.4-0.3,0.5c-0.1,0-0.3-0.1-0.4-0.2C127.6,367.7,127,367,126.2,366.3
				z"/>
			<path class="st2" d="M139,358.6l-0.6-0.6l-4.1-4.1c-0.1-0.1-0.2-0.2-0.1-0.3s0.2-0.3,0.3-0.3c0.5,0,1,0.1,1.4,0.2
				c1.2,0.6,2.3,1.5,3,2.6c0.4,0.5,0.6,1.2,0.4,1.8C139.2,358.2,139.1,358.4,139,358.6z"/>
			<path class="st2" d="M125.6,362.2c0.6-1,0.8-1,1.5-0.3c1.3,1.3,2.6,2.6,3.9,3.9c0.3,0.3,0.1,0.5-0.1,0.6s-0.4,0.7-0.8,0.3
				C128.6,365.3,127.1,363.8,125.6,362.2z"/>
			<path class="st2" d="M115.4,372.2c0.2-0.2,0.4-0.4,0.6-0.6c0.2-0.1,0.3,0,0.5,0c0.9,0.9,1.7,1.7,2.6,2.6c0.5,0.5,1.1,1,1.6,1.5
				s0.5,0.5,0,1l-0.4,0.3L115.4,372.2z"/>
			<path class="st2" d="M136.5,351.2l1,1c1.2,1.2,2.4,2.4,3.6,3.6c0.4,0.4,0,0.6-0.2,0.8s-0.4,0.2-0.7,0c-1.4-1.4-2.8-2.8-4.2-4.2
				c-0.3-0.3-0.3-0.5,0-0.7C136.2,351.5,136.3,351.4,136.5,351.2z"/>
			<path class="st2" d="M151.2,340.9c0,0.2-0.1,0.4-0.2,0.5c-1.2,1.6-2.6,3.1-4.1,4.5c-0.2,0.2-0.4,0.4-0.6,0.1s-0.5-0.4-0.2-0.8
				c1.1-1.1,2.3-2.3,3.4-3.4c0.5-0.4,1-0.7,1.5-1L151.2,340.9z"/>
			<path class="st2" d="M113.1,378.3c0.6-0.6,1.1-1.1,1.7-1.7c0.3-0.3,0.5-0.2,0.7,0s0.5,0.4,0.1,0.7c-1.2,1.1-2.3,2.3-3.4,3.4
				c-0.3,0.3-0.4,0.1-0.7-0.1s-0.4-0.4-0.1-0.7C112,379.5,112.5,378.9,113.1,378.3z"/>
		</g>
		<g id="popcorn">
			<circle class="st24" cx="358.9" cy="177.4" r="35.2"/>
			<path class="st2" d="M352.1,162.9c0.1-0.5,0.1-1.1,0-1.6s-0.4-1-0.9-1.2c-0.1-0.1-0.3-0.1-0.4,0s-0.3,0.2-0.3,0.4
				c-0.2,0.4-0.3,0.9-0.3,1.3c0,0.5,0.3,0.9,0.7,1.1c-0.4-0.5-1.2-0.7-1.7-0.3s-0.7,1.2-0.3,1.7c0.3,0.3,0.7,0.5,1.1,0.5
				c0.9-0.1,1.4-0.9,1.7-1.7c-0.2,0.6,0.1,1.5,0.8,1.6c0.3,0,0.6-0.1,0.8-0.3c0.6-0.4,0.9-1.1,0.7-1.8c-0.3-0.6-1.3-0.8-1.6-0.1
				L352.1,162.9z"/>
			<path class="st24" d="M352.2,162.9c0.2-0.8,0.1-1.7-0.3-2.4c-0.2-0.3-0.8-0.8-1.2-0.6s-0.7,1.1-0.7,1.5c-0.1,0.6,0.2,1.3,0.8,1.6
				c0.1,0.1,0.2,0,0.2-0.1c0.1-0.1,0-0.2-0.1-0.2c-0.9-1-2.9-0.2-2.4,1.2c0.2,0.6,0.8,1,1.4,1c1-0.1,1.5-1.1,1.8-1.8l-0.3-0.1
				c-0.2,0.7,0,1.6,0.9,1.8c0.8,0,1.5-0.5,1.7-1.3c0.2-0.6-0.1-1.3-0.7-1.5c0,0,0,0-0.1,0c-0.8-0.2-1.1,0.3-1.5,0.8
				C351.8,162.9,352,163.1,352.2,162.9c0-0.1,0.2-0.3,0.3-0.4l0.8-0.3l0.4,1.4c-0.2,0.5-0.6,0.6-1.1,0.3c-0.8,0.1-1-0.1-0.8-0.8
				c0-0.2-0.2-0.3-0.3-0.1c-0.1,0.3-0.3,0.5-0.4,0.8c-0.4,0.6-0.7,0.9-1.4,0.7c-0.3,0.1-0.6-0.1-0.7-0.4l0,0
				c-0.3-0.4-0.2-0.8,0.3-1.3c0.5-0.3,1.1-0.2,1.4,0.2l0.2-0.2c-1.1-0.5-0.5-2.8,0.5-2.2c0.7,0.4,0.5,1.8,0.4,2.4
				C351.9,163,352.2,163.1,352.2,162.9z"/>
			<path class="st2" d="M357.5,159.7c0.2-0.9,0.2-1.7,0.1-2.6c-0.1-0.9-0.7-1.6-1.5-2c-0.2-0.1-0.5-0.1-0.7,0
				c-0.2,0.2-0.4,0.4-0.5,0.7c-0.3,0.7-0.5,1.4-0.5,2.2s0.5,1.5,1.2,1.7c-0.7-0.9-1.9-1.1-2.8-0.4c-0.9,0.7-1.1,1.9-0.4,2.8
				c0.4,0.6,1.1,0.9,1.8,0.8c1.4-0.1,2.2-1.6,2.8-2.8c-0.4,1,0.2,2.5,1.3,2.6c0.5,0,0.9-0.1,1.3-0.4c1-0.6,1.4-1.8,1.1-2.9
				c-0.4-1-2.2-1.3-2.6-0.2L357.5,159.7z"/>
			<path class="st24" d="M357.7,159.8c0.2-1.3,0.4-2.9-0.5-4c-0.4-0.6-1.2-1.2-2-0.9s-1.1,1.9-1.2,2.5c-0.2,1,0.3,2.1,1.3,2.5
				c0.1,0.1,0.3,0.1,0.4,0s0.1-0.3,0-0.4c-1.5-1.6-4.7-0.4-3.9,2c0.3,1,1.2,1.7,2.3,1.6c1.5-0.1,2.4-1.7,3-3l-0.5-0.2
				c-0.3,1.1,0.1,2.7,1.5,2.9s2.5-1.1,2.8-2.1c0.4-1-0.1-2.1-1.1-2.5h-0.1c-1.2-0.4-1.8,0.5-2.5,1.4c-0.2,0.3,0.2,0.6,0.4,0.4
				c0.2-0.3,0.4-0.5,0.6-0.8l1.3-0.5l0.7,2.3c-0.3,0.9-0.9,1-1.8,0.5c-1.2,0.2-1.6-0.2-1.2-1.3c0.1-0.3-0.3-0.5-0.5-0.2
				c-0.2,0.4-0.4,0.9-0.7,1.3c-0.6,0.9-1.2,1.4-2.4,1.1c-0.5,0.1-1-0.2-1.1-0.7c-0.6-0.7-0.4-1.4,0.4-2.1c0.8-0.4,1.8-0.3,2.4,0.4
				l0.3-0.4c-1.9-0.9-0.9-4.7,0.9-3.7c1.1,0.6,0.8,2.9,0.6,3.9C357.1,160,357.6,160.1,357.7,159.8z"/>
			<path class="st2" d="M361.8,161.6c0.1-0.5,0.1-1.1,0-1.6s-0.4-1-0.9-1.2c-0.1-0.1-0.3-0.1-0.4,0s-0.3,0.2-0.3,0.4
				c-0.2,0.4-0.3,0.9-0.3,1.3c0,0.5,0.3,0.9,0.7,1.1c-0.4-0.5-1.2-0.7-1.7-0.3s-0.7,1.2-0.3,1.7c0.3,0.3,0.7,0.5,1.1,0.5
				c0.9-0.1,1.4-0.9,1.7-1.7c-0.2,0.6,0.1,1.5,0.8,1.6c0.3,0,0.6-0.1,0.8-0.3c0.6-0.4,0.9-1.1,0.7-1.8c-0.3-0.6-1.3-0.8-1.6-0.1
				L361.8,161.6z"/>
			<path class="st24" d="M362,161.6c0.2-0.8,0.1-1.7-0.3-2.4c-0.2-0.3-0.8-0.8-1.2-0.6s-0.7,1.1-0.7,1.5c-0.1,0.6,0.2,1.3,0.8,1.6
				c0.1,0,0.2,0,0.2-0.1s0-0.1,0-0.2c-0.9-1-2.9-0.2-2.4,1.2c0.2,0.6,0.8,1,1.4,1c1-0.1,1.5-1.1,1.8-1.8l-0.3-0.1
				c-0.2,0.7,0,1.6,0.9,1.8c0.8,0,1.5-0.5,1.7-1.3c0.2-0.6-0.1-1.3-0.7-1.5c0,0,0,0-0.1,0c-0.8-0.2-1.1,0.3-1.5,0.8
				C361.6,161.6,361.8,161.9,362,161.6c0-0.1,0.2-0.2,0.3-0.4l0.8-0.3l0.4,1.4c-0.2,0.5-0.6,0.6-1.1,0.3c-0.8,0.1-1-0.1-0.8-0.8
				c0-0.2-0.2-0.3-0.3-0.1c-0.1,0.3-0.3,0.5-0.4,0.8c-0.4,0.6-0.7,0.9-1.4,0.7c-0.3,0.1-0.6-0.1-0.7-0.4l0,0
				c-0.3-0.4-0.2-0.8,0.3-1.3c0.5-0.3,1.1-0.2,1.4,0.2l0.2-0.2c-1.1-0.5-0.5-2.8,0.5-2.2c0.7,0.4,0.5,1.8,0.4,2.4
				C361.7,161.8,362,161.8,362,161.6z"/>
			<path class="st2" d="M366.9,161.6c0.1-0.5,0.1-1.1,0-1.6s-0.4-1-0.9-1.2c-0.1-0.1-0.3-0.1-0.4,0s-0.3,0.2-0.3,0.4
				c-0.2,0.4-0.3,0.9-0.3,1.3c0,0.5,0.3,0.9,0.7,1.1c-0.4-0.5-1.2-0.7-1.7-0.3s-0.7,1.2-0.3,1.7c0.3,0.3,0.7,0.5,1.1,0.5
				c0.9-0.1,1.4-0.9,1.7-1.7c-0.2,0.6,0.1,1.5,0.8,1.6c0.3,0,0.6-0.1,0.8-0.3c0.6-0.4,0.9-1.1,0.7-1.8c-0.3-0.6-1.3-0.8-1.6-0.1
				L366.9,161.6z"/>
			<path class="st24" d="M367.1,161.6c0.2-0.8,0.1-1.7-0.3-2.4c-0.2-0.3-0.8-0.8-1.2-0.6s-0.7,1.1-0.7,1.5c-0.1,0.6,0.2,1.3,0.8,1.6
				c0.1,0,0.2,0,0.2-0.1s0-0.1,0-0.2c-0.9-1-2.9-0.2-2.4,1.2c0.2,0.6,0.8,1,1.4,1c1-0.1,1.5-1.1,1.8-1.8l-0.3-0.1
				c-0.2,0.7,0,1.6,0.9,1.8c0.8,0,1.5-0.5,1.7-1.3c0.2-0.6-0.1-1.3-0.7-1.5c0,0,0,0-0.1,0c-0.8-0.2-1.1,0.3-1.5,0.8
				C366.7,161.6,366.9,161.9,367.1,161.6c0-0.1,0.2-0.2,0.3-0.4l0.8-0.3l0.4,1.4c-0.2,0.5-0.6,0.6-1.1,0.3c-0.8,0.1-1-0.1-0.8-0.8
				c0-0.2-0.2-0.3-0.3-0.1c-0.1,0.3-0.3,0.5-0.4,0.8c-0.4,0.6-0.7,0.9-1.4,0.7c-0.3,0.1-0.6-0.1-0.7-0.4l0,0
				c-0.3-0.4-0.2-0.8,0.3-1.3c0.5-0.3,1.1-0.2,1.4,0.2l0.2-0.2c-1.1-0.5-0.5-2.8,0.5-2.2c0.7,0.4,0.5,1.8,0.4,2.4
				C366.8,161.8,367.1,161.8,367.1,161.6z"/>
			<path class="st2" d="M371.2,163.3c0.1-0.5,0.1-1.1,0-1.6s-0.4-1-0.9-1.2c-0.1-0.1-0.3-0.1-0.4,0s-0.3,0.2-0.3,0.4
				c-0.2,0.4-0.3,0.9-0.3,1.3c0,0.5,0.3,0.9,0.7,1.1c-0.4-0.5-1.2-0.7-1.7-0.3s-0.7,1.2-0.3,1.7c0.3,0.3,0.7,0.5,1.1,0.5
				c0.9-0.1,1.4-0.9,1.7-1.7c-0.2,0.6,0.1,1.5,0.8,1.6c0.3,0,0.6-0.1,0.8-0.3c0.6-0.4,0.9-1.1,0.7-1.8c-0.3-0.6-1.3-0.8-1.6-0.1
				L371.2,163.3z"/>
			<path class="st24" d="M371.3,163.3c0.2-0.8,0.1-1.7-0.3-2.4c-0.2-0.3-0.8-0.8-1.2-0.6s-0.7,1.1-0.7,1.5c-0.1,0.6,0.2,1.3,0.8,1.6
				c0.1,0,0.2,0,0.2-0.1s0-0.1,0-0.2c-0.9-1-2.9-0.2-2.4,1.2c0.2,0.6,0.8,1,1.4,1c1-0.1,1.5-1.1,1.8-1.8l-0.3-0.1
				c-0.2,0.7,0,1.6,0.9,1.8c0.8,0,1.5-0.5,1.7-1.3c0.2-0.6-0.1-1.3-0.7-1.5c0,0,0,0-0.1,0c-0.8-0.2-1.1,0.3-1.5,0.8
				C370.9,163.3,371.2,163.6,371.3,163.3c0-0.1,0.2-0.2,0.3-0.4l0.8-0.3l0.4,1.4c-0.2,0.5-0.6,0.6-1.1,0.3c-0.8,0.1-1-0.1-0.8-0.8
				c0-0.2-0.2-0.3-0.3-0.1c-0.1,0.3-0.3,0.5-0.4,0.8c-0.4,0.6-0.7,0.9-1.4,0.7c-0.3,0.1-0.6-0.1-0.7-0.4l0,0
				c-0.3-0.4-0.2-0.9,0.3-1.3c0.5-0.3,1.1-0.2,1.4,0.2l0.2-0.2c-1.1-0.5-0.5-2.8,0.5-2.2c0.7,0.4,0.5,1.8,0.4,2.4
				C371,163.5,371.3,163.5,371.3,163.3z"/>
			<path class="st2" d="M351.4,166.4c0.1-0.5,0.1-1.1,0-1.6s-0.4-1-0.9-1.2c-0.1-0.1-0.3-0.1-0.4,0s-0.3,0.2-0.3,0.4
				c-0.2,0.4-0.3,0.9-0.3,1.3c0,0.5,0.3,0.9,0.7,1.1c-0.4-0.5-1.2-0.7-1.7-0.3s-0.7,1.2-0.3,1.7c0.3,0.3,0.7,0.5,1.1,0.5
				c0.9-0.1,1.4-0.9,1.7-1.7c-0.2,0.6,0.1,1.5,0.8,1.6c0.3,0,0.6-0.1,0.8-0.3c0.6-0.4,0.9-1.1,0.7-1.8c-0.3-0.6-1.3-0.8-1.6-0.1
				L351.4,166.4z"/>
			<path class="st24" d="M351.6,166.4c0.2-0.8,0.1-1.7-0.3-2.4c-0.2-0.3-0.8-0.8-1.2-0.6s-0.7,1.1-0.7,1.5c-0.1,0.6,0.2,1.3,0.8,1.6
				c0.1,0,0.2,0,0.2-0.1s0-0.1,0-0.2c-0.9-1-2.9-0.2-2.4,1.2c0.2,0.6,0.8,1,1.4,1c1-0.1,1.5-1.1,1.8-1.8l-0.3-0.1
				c-0.2,0.7,0,1.6,0.9,1.8c0.8,0,1.5-0.5,1.7-1.3c0.2-0.6-0.1-1.3-0.7-1.5c0,0,0,0-0.1,0c-0.8-0.2-1.1,0.3-1.5,0.8
				C351.2,166.4,351.4,166.7,351.6,166.4c0-0.1,0.2-0.2,0.3-0.4l0.8-0.3l0.4,1.4c-0.2,0.5-0.6,0.6-1.1,0.3c-0.8,0.1-1-0.1-0.8-0.8
				c0-0.2-0.2-0.3-0.3-0.1c-0.1,0.3-0.3,0.5-0.4,0.8c-0.4,0.6-0.7,0.9-1.4,0.7c-0.3,0.1-0.6-0.1-0.7-0.4l0,0
				c-0.3-0.4-0.2-0.9,0.3-1.3c0.5-0.3,1.1-0.2,1.4,0.2l0.2-0.2c-1.1-0.5-0.5-2.8,0.5-2.2c0.7,0.4,0.5,1.8,0.4,2.4
				C351.2,166.5,351.6,166.6,351.6,166.4z"/>
			<path class="st2" d="M350,163.9c0.1-0.5,0.1-1.1,0-1.6s-0.4-1-0.9-1.2c-0.1-0.1-0.3-0.1-0.4,0s-0.3,0.2-0.3,0.4
				c-0.2,0.4-0.3,0.9-0.3,1.3c0,0.5,0.3,0.9,0.7,1.1c-0.4-0.5-1.2-0.7-1.7-0.3s-0.7,1.2-0.3,1.7c0.3,0.3,0.7,0.5,1.1,0.5
				c0.9-0.1,1.4-0.9,1.7-1.7c-0.2,0.6,0.1,1.5,0.8,1.6c0.3,0,0.6-0.1,0.8-0.3c0.6-0.3,1-1,0.8-1.7c-0.3-0.6-1.3-0.8-1.6-0.1
				L350,163.9z"/>
			<path class="st24" d="M350.2,164c0.2-0.8,0.1-1.7-0.3-2.4c-0.2-0.3-0.8-0.8-1.2-0.6s-0.7,1.1-0.7,1.5c-0.1,0.6,0.2,1.3,0.8,1.6
				c0.1,0,0.2,0,0.2-0.1s0-0.1,0-0.2c-0.9-1-2.9-0.2-2.4,1.2c0.2,0.6,0.8,1,1.4,1c1-0.1,1.5-1.1,1.8-1.8l-0.3-0.1
				c-0.2,0.7,0,1.6,0.9,1.8c0.8,0,1.5-0.5,1.7-1.3c0.2-0.6-0.1-1.3-0.7-1.5c0,0,0,0-0.1,0c-0.8-0.2-1.1,0.3-1.5,0.8
				C349.8,164,350,164.2,350.2,164c0-0.1,0.2-0.2,0.3-0.4l0.8-0.3l0.4,1.4c-0.2,0.5-0.6,0.6-1.1,0.3c-0.8,0.1-1-0.1-0.8-0.8
				c0-0.2-0.2-0.3-0.3-0.1c-0.1,0.3-0.3,0.5-0.4,0.8c-0.4,0.6-0.7,0.9-1.4,0.7c-0.3,0.1-0.6-0.1-0.7-0.4l0,0
				c-0.3-0.4-0.2-0.8,0.3-1.3c0.5-0.3,1.1-0.2,1.4,0.2l0.2-0.2c-1.1-0.5-0.5-2.8,0.5-2.2c0.7,0.4,0.5,1.8,0.4,2.4
				C349.9,164.1,350.2,164.2,350.2,164z"/>
			<path class="st2" d="M355.1,160.6c0.1-0.6,0.1-1.3,0.1-1.9c-0.1-0.6-0.5-1.2-1.1-1.5c-0.2-0.1-0.3-0.1-0.5,0s-0.3,0.3-0.4,0.5
				c-0.2,0.5-0.4,1-0.4,1.6s0.4,1.1,0.9,1.3c-0.5-0.7-1.4-0.8-2.1-0.3s-0.8,1.4-0.3,2.1c0.3,0.4,0.8,0.6,1.3,0.6
				c1-0.1,1.6-1.1,2.1-2.1c-0.3,0.8,0.1,1.8,0.9,1.9c0.4,0,0.7-0.1,1-0.3c0.7-0.4,1.1-1.3,0.8-2.1c-0.3-0.8-1.6-0.9-1.9-0.2
				L355.1,160.6z"/>
			<path class="st24" d="M355.3,160.6c0.3-1,0.2-2.1-0.3-3c-0.3-0.4-0.9-0.9-1.5-0.7s-0.8,1.4-0.9,1.9c-0.1,0.8,0.3,1.6,1,1.9
				c0.1,0.1,0.2,0,0.3-0.1c0-0.1,0-0.2,0-0.2c-1.1-1.2-3.5-0.3-2.9,1.5c0.2,0.7,0.9,1.2,1.7,1.2c1.1-0.1,1.8-1.3,2.2-2.2l-0.4-0.1
				c-0.2,0.8,0,2,1.1,2.1c1,0,1.8-0.7,2.1-1.6c0.3-0.7-0.1-1.5-0.8-1.8h-0.1c-0.9-0.3-1.3,0.4-1.8,1
				C354.9,160.6,355.1,160.9,355.3,160.6c0.1-0.2,0.3-0.4,0.4-0.5l1-0.3l0.5,1.7c-0.2,0.7-0.7,0.8-1.4,0.4c-0.9,0.2-1.2-0.2-0.9-1
				c0-0.2-0.2-0.4-0.4-0.1c-0.1,0.3-0.3,0.6-0.5,0.9c-0.5,0.7-0.9,1.1-1.7,0.8c-0.4,0.1-0.7-0.1-0.8-0.5l0,0c-0.4-0.5-0.3-1,0.3-1.6
				c0.6-0.3,1.3-0.2,1.7,0.3l0.2-0.3c-1.4-0.6-0.7-3.4,0.6-2.7c0.9,0.5,0.6,2.1,0.5,2.9C354.9,160.8,355.3,160.9,355.3,160.6z"/>
			<path class="st2" d="M361.5,158.5c0.1-0.6,0.1-1.3,0.1-1.9c-0.1-0.6-0.5-1.2-1.1-1.5c-0.2-0.1-0.3-0.1-0.5,0s-0.3,0.3-0.4,0.5
				c-0.2,0.5-0.4,1-0.4,1.6s0.4,1.1,0.9,1.3c-0.5-0.7-1.4-0.8-2.1-0.3s-0.8,1.4-0.3,2.1c0.3,0.4,0.8,0.6,1.3,0.6
				c1-0.1,1.6-1.1,2.1-2.1c-0.3,0.8,0.1,1.8,0.9,1.9c0.4,0,0.7-0.1,1-0.3c0.7-0.4,1.1-1.3,0.8-2.1c-0.3-0.8-1.6-0.9-1.9-0.2
				L361.5,158.5z"/>
			<path class="st24" d="M361.7,158.6c0.3-1,0.2-2.1-0.3-3c-0.3-0.4-0.9-0.9-1.5-0.7s-0.8,1.4-0.9,1.9c-0.1,0.8,0.3,1.6,1,1.9
				c0.1,0.1,0.2,0,0.3-0.1c0-0.1,0-0.2,0-0.2c-1.1-1.2-3.5-0.3-2.9,1.5c0.2,0.7,0.9,1.2,1.7,1.2c1.1-0.1,1.8-1.3,2.2-2.2l-0.3-0.2
				c-0.2,0.8,0,2,1.1,2.1c1,0,1.8-0.7,2.1-1.6c0.3-0.7-0.1-1.5-0.8-1.8h-0.1c-0.9-0.3-1.3,0.4-1.8,1
				C361.3,158.5,361.6,158.8,361.7,158.6c0.1-0.2,0.3-0.3,0.4-0.5l1-0.3l0.5,1.7c-0.2,0.7-0.7,0.8-1.4,0.4c-0.9,0.2-1.2-0.2-0.9-1
				c0-0.2-0.2-0.4-0.4-0.1c-0.1,0.3-0.3,0.6-0.5,0.9c-0.5,0.7-0.9,1.1-1.7,0.8c-0.4,0.1-0.7-0.1-0.8-0.5l0,0c-0.4-0.5-0.3-1,0.3-1.6
				c0.6-0.3,1.3-0.2,1.7,0.3l0.2-0.3c-1.4-0.6-0.7-3.4,0.6-2.7c0.9,0.5,0.6,2.1,0.5,2.9C361.3,158.7,361.7,158.8,361.7,158.6z"/>
			<path class="st2" d="M373.3,161c0.1-0.5,0.1-1.1,0-1.6s-0.4-1-0.9-1.2c-0.1-0.1-0.3-0.1-0.4,0s-0.3,0.2-0.3,0.4
				c-0.2,0.4-0.3,0.9-0.3,1.3c0,0.5,0.3,0.9,0.7,1.1c-0.4-0.5-1.2-0.7-1.7-0.3s-0.7,1.2-0.3,1.7c0.3,0.3,0.7,0.5,1.1,0.5
				c0.9-0.1,1.4-0.9,1.7-1.7c-0.2,0.6,0.1,1.5,0.8,1.6c0.3,0,0.6-0.1,0.8-0.3c0.6-0.4,0.9-1.1,0.7-1.8c-0.3-0.6-1.3-0.8-1.6-0.1
				L373.3,161z"/>
			<path class="st24" d="M373.5,161c0.2-0.8,0.1-1.7-0.3-2.4c-0.2-0.3-0.8-0.8-1.2-0.6s-0.7,1.1-0.7,1.5c-0.1,0.6,0.2,1.3,0.8,1.6
				c0.1,0,0.2,0,0.2-0.1s0-0.1,0-0.2c-0.9-1-2.9-0.2-2.4,1.2c0.2,0.6,0.8,1,1.4,1c1-0.1,1.5-1.1,1.8-1.8l-0.3-0.1
				c-0.2,0.7,0,1.6,0.9,1.8c0.8,0,1.5-0.5,1.7-1.3c0.2-0.6-0.1-1.3-0.7-1.5c0,0,0,0-0.1,0c-0.8-0.2-1.1,0.3-1.5,0.8
				C373.1,161,373.3,161.2,373.5,161c0-0.1,0.2-0.2,0.3-0.4l0.8-0.3l0.4,1.4c-0.2,0.5-0.6,0.6-1.1,0.3c-0.8,0.1-1-0.1-0.8-0.8
				c0-0.2-0.2-0.3-0.3-0.1c-0.1,0.3-0.3,0.5-0.4,0.8c-0.4,0.6-0.7,0.9-1.4,0.7c-0.3,0.1-0.6-0.1-0.7-0.4l0,0
				c-0.3-0.4-0.2-0.9,0.3-1.3c0.5-0.3,1.1-0.2,1.4,0.2l0.2-0.2c-1.1-0.5-0.5-2.8,0.5-2.2c0.7,0.4,0.5,1.8,0.4,2.4
				C373.1,161.1,373.4,161.2,373.5,161z"/>
			<path class="st2" d="M363.5,159.3c0.1-0.5,0.1-1.1,0-1.6s-0.4-1-0.9-1.2c-0.1-0.1-0.3-0.1-0.4,0s-0.3,0.2-0.3,0.4
				c-0.2,0.4-0.3,0.9-0.3,1.3c0,0.5,0.3,0.9,0.7,1.1c-0.4-0.5-1.2-0.7-1.7-0.3s-0.7,1.2-0.3,1.7c0.3,0.3,0.7,0.5,1.1,0.5
				c0.9-0.1,1.4-0.9,1.7-1.7c-0.2,0.6,0.1,1.5,0.8,1.6c0.3,0,0.6-0.1,0.8-0.3c0.6-0.4,0.9-1.1,0.7-1.8c-0.3-0.6-1.3-0.8-1.6-0.1
				L363.5,159.3z"/>
			<path class="st24" d="M363.7,159.3c0.2-0.8,0.1-1.7-0.3-2.4c-0.2-0.3-0.8-0.8-1.2-0.6s-0.7,1.1-0.7,1.5c-0.1,0.6,0.2,1.3,0.8,1.6
				c0.1,0,0.2,0,0.2-0.1s0-0.1,0-0.2c-0.9-1-2.9-0.2-2.4,1.2c0.2,0.6,0.8,1,1.4,1c1-0.1,1.5-1.1,1.8-1.8l-0.3-0.1
				c-0.2,0.7,0,1.6,0.9,1.8c0.8,0,1.5-0.5,1.7-1.3c0.2-0.6-0.1-1.3-0.7-1.5c0,0,0,0-0.1,0c-0.8-0.2-1.1,0.3-1.5,0.8
				C363.3,159.3,363.5,159.5,363.7,159.3c0-0.1,0.2-0.2,0.3-0.4l0.8-0.3l0.4,1.4c-0.2,0.5-0.6,0.6-1.1,0.3c-0.8,0.1-1-0.1-0.8-0.8
				c0-0.2-0.2-0.3-0.3-0.1c-0.1,0.3-0.3,0.5-0.4,0.8c-0.4,0.6-0.7,0.9-1.4,0.7c-0.3,0.1-0.6-0.1-0.7-0.4l0,0
				c-0.3-0.4-0.2-0.8,0.3-1.3c0.5-0.3,1.1-0.2,1.4,0.2l0.2-0.2c-1.1-0.5-0.5-2.8,0.5-2.2c0.7,0.4,0.5,1.8,0.4,2.4
				C363.4,159.4,363.7,159.5,363.7,159.3z"/>
			<path class="st2" d="M368.5,159.8c0.1-0.5,0.1-1.1,0-1.6s-0.4-1-0.9-1.2c-0.1-0.1-0.3-0.1-0.4,0s-0.3,0.2-0.3,0.4
				c-0.2,0.4-0.3,0.9-0.3,1.3c0,0.5,0.3,0.9,0.7,1.1c-0.4-0.5-1.2-0.7-1.7-0.3s-0.7,1.2-0.3,1.7c0.3,0.3,0.7,0.5,1.1,0.5
				c0.9-0.1,1.4-0.9,1.7-1.7c-0.2,0.6,0.1,1.5,0.8,1.6c0.3,0,0.6-0.1,0.8-0.3c0.6-0.4,0.9-1.1,0.7-1.8c-0.3-0.6-1.3-0.8-1.6-0.1
				L368.5,159.8z"/>
			<path class="st24" d="M368.7,159.8c0.2-0.8,0.1-1.7-0.3-2.4c-0.2-0.3-0.8-0.8-1.2-0.6s-0.7,1.1-0.7,1.5c-0.1,0.6,0.2,1.3,0.8,1.6
				c0.1,0,0.2,0,0.2-0.1s0-0.1,0-0.2c-0.9-1-2.9-0.2-2.4,1.2c0.2,0.6,0.8,1,1.4,1c1-0.1,1.5-1.1,1.8-1.8l-0.3-0.1
				c-0.2,0.7,0,1.6,0.9,1.8c0.8,0,1.5-0.5,1.7-1.3c0.2-0.6-0.1-1.3-0.7-1.5c0,0,0,0-0.1,0c-0.8-0.2-1.1,0.3-1.5,0.8
				C368.3,159.8,368.5,160.1,368.7,159.8c0-0.1,0.2-0.2,0.3-0.4l0.8-0.3l0.4,1.4c-0.2,0.5-0.6,0.6-1.1,0.3c-0.8,0.1-1-0.1-0.8-0.8
				c0-0.2-0.2-0.3-0.3-0.1c-0.1,0.3-0.3,0.5-0.4,0.8c-0.4,0.6-0.7,0.9-1.4,0.7c-0.3,0.1-0.6-0.1-0.7-0.4l0,0
				c-0.3-0.4-0.2-0.9,0.3-1.3c0.5-0.3,1.1-0.2,1.4,0.2l0.2-0.2c-1.1-0.5-0.5-2.8,0.5-2.2c0.7,0.4,0.5,1.8,0.4,2.4
				C368.4,159.9,368.7,160,368.7,159.8z"/>
			<path class="st2" d="M349.5,161.9c0.1-0.6,0.1-1.3,0.1-1.9c-0.1-0.6-0.5-1.2-1.1-1.5c-0.2-0.1-0.3-0.1-0.5,0s-0.3,0.3-0.4,0.5
				c-0.2,0.5-0.4,1-0.4,1.6s0.4,1.1,0.9,1.3c-0.5-0.7-1.4-0.8-2.1-0.3s-0.8,1.4-0.3,2.1c0.3,0.4,0.8,0.6,1.3,0.6
				c1-0.1,1.6-1.1,2.1-2.1c-0.3,0.8,0.1,1.8,0.9,1.9c0.4,0,0.7-0.1,1-0.3c0.7-0.4,1.1-1.3,0.8-2.1c-0.3-0.8-1.6-0.9-1.9-0.2
				L349.5,161.9z"/>
			<path class="st24" d="M349.7,162c0.3-1,0.2-2.1-0.3-3c-0.3-0.4-0.9-0.9-1.5-0.7s-0.8,1.4-0.9,1.9c-0.1,0.8,0.3,1.6,1,1.9
				c0.1,0.1,0.2,0,0.3-0.1c0-0.1,0-0.2,0-0.2c-1.1-1.2-3.5-0.3-2.9,1.5c0.2,0.7,0.9,1.2,1.7,1.2c1.1-0.1,1.8-1.3,2.2-2.2l-0.4-0.1
				c-0.2,0.8,0,2,1.1,2.1c1,0,1.8-0.7,2.1-1.6c0.3-0.7-0.1-1.5-0.8-1.8h-0.1c-0.9-0.3-1.3,0.4-1.8,1
				C349.3,162,349.5,162.3,349.7,162c0.1-0.2,0.3-0.3,0.4-0.5l1-0.3l0.5,1.7c-0.2,0.7-0.7,0.8-1.4,0.4c-0.9,0.2-1.2-0.2-0.9-1
				c0-0.2-0.2-0.4-0.4-0.1c-0.1,0.3-0.3,0.6-0.5,0.9c-0.5,0.7-0.9,1.1-1.7,0.8c-0.4,0.1-0.7-0.1-0.8-0.5l0,0c-0.4-0.5-0.3-1,0.3-1.6
				c0.6-0.3,1.3-0.2,1.7,0.3l0.2-0.3c-1.4-0.6-0.7-3.4,0.6-2.7c0.9,0.5,0.6,2.1,0.5,2.9C349.3,162.1,349.7,162.3,349.7,162z"/>
			<polygon class="st25" points="371,200.8 349.5,200.8 344.1,162.1 349.5,165.9 354.8,162.1 375.3,162.1 			"/>
			<path class="st2" d="M355.3,157c-0.3-0.6-0.7-1.1-1.1-1.5c-0.5-0.4-1.2-0.6-1.8-0.5c-0.2,0-0.3,0.1-0.4,0.3s-0.1,0.4,0,0.6
				c0.1,0.5,0.4,1,0.7,1.5c0.4,0.4,1,0.6,1.5,0.4c-0.8-0.2-1.6,0.2-1.8,1c-0.2,0.8,0.2,1.6,1,1.8c0.5,0.1,1,0,1.4-0.3
				c0.8-0.7,0.6-1.9,0.3-2.9c0.3,0.8,1.2,1.3,1.9,0.9c0.3-0.2,0.5-0.5,0.6-0.9c0.3-0.8,0-1.7-0.7-2.2c-0.7-0.4-1.9,0.3-1.6,1.1V157z
				"/>
			<path class="st24" d="M355.5,156.9c-0.4-0.9-1.1-1.6-2-2c-0.5-0.2-1.4-0.2-1.7,0.3s0.2,1.6,0.5,2c0.4,0.7,1.2,1,1.9,0.8
				c0.2,0,0.2-0.3,0-0.4c-1.8-0.2-3,2.2-1.2,3c0.7,0.4,1.6,0.2,2.1-0.4c0.5-0.9,0.5-1.9,0.2-2.9l-0.4,0.1c0.4,0.8,1.3,1.5,2.2,1
				c0.7-0.6,1-1.6,0.6-2.5c-0.2-0.7-1-1.2-1.8-1h-0.1c-0.9,0.4-0.8,1.1-0.8,1.9c0,0.1,0.1,0.2,0.2,0.2S355.5,157.1,355.5,156.9
				c0-0.6,0-1.6,1-1.6c0.8,0,1.1,1,1,1.6c0,0.8-0.5,1.2-1.6,1.2c-0.3-0.2-0.5-0.5-0.6-0.8c-0.1-0.2-0.4-0.1-0.4,0.1
				c0.2,0.9,0.5,2.3-0.4,2.9c-1.9,1.1-3-2.7-0.4-2.3v-0.4l-1.5-0.6c-0.1-0.2-0.2-0.4-0.3-0.6c-0.2-0.5-0.7-1.5,0.9-1.3
				c0.9,0.1,1.5,1.2,1.9,1.9c0.1,0.1,0.2,0.1,0.3,0.1C355.5,157.1,355.5,157,355.5,156.9L355.5,156.9z"/>
			<path class="st2" d="M362.3,155.7c0.1-0.6,0.1-1.3,0.1-1.9c-0.1-0.6-0.5-1.2-1.1-1.5c-0.2-0.1-0.3-0.1-0.5,0s-0.3,0.3-0.4,0.5
				c-0.2,0.5-0.4,1-0.4,1.6s0.4,1.1,0.9,1.3c-0.5-0.7-1.4-0.8-2.1-0.3s-0.8,1.4-0.3,2.1c0.3,0.4,0.8,0.6,1.3,0.6
				c1-0.1,1.6-1.1,2.1-2.1c-0.3,0.8,0.1,1.8,0.9,1.9c0.4,0,0.7-0.1,1-0.3c0.7-0.4,1.1-1.3,0.8-2.1c-0.3-0.8-1.6-0.9-1.9-0.2
				L362.3,155.7z"/>
			<path class="st24" d="M362.5,155.7c0.3-1,0.2-2.1-0.3-3c-0.3-0.4-0.9-0.9-1.5-0.7s-0.8,1.4-0.9,1.9c-0.1,0.8,0.3,1.6,1,1.9
				c0.1,0.1,0.2,0,0.3-0.1c0-0.1,0-0.2,0-0.2c-1.1-1.2-3.5-0.3-2.9,1.5c0.2,0.7,0.9,1.2,1.7,1.2c1.1-0.1,1.8-1.3,2.2-2.2l-0.4-0.1
				c-0.2,0.8,0,2,1.1,2.1c1,0,1.8-0.7,2.1-1.6c0.3-0.7-0.1-1.5-0.8-1.8H364c-0.9-0.3-1.3,0.4-1.8,1
				C362.1,155.7,362.3,156,362.5,155.7c0.1-0.2,0.3-0.3,0.4-0.5l1-0.3l0.5,1.7c-0.2,0.7-0.7,0.8-1.4,0.4c-0.9,0.2-1.2-0.2-0.9-1
				c0-0.2-0.2-0.4-0.4-0.1c-0.1,0.3-0.3,0.6-0.5,0.9c-0.5,0.7-0.9,1.1-1.7,0.8c-0.4,0.1-0.7-0.1-0.8-0.5l0,0c-0.4-0.5-0.3-1,0.3-1.6
				c0.6-0.3,1.3-0.2,1.7,0.3l0.2-0.3c-1.4-0.6-0.7-3.4,0.6-2.7c0.9,0.5,0.6,2.1,0.5,2.9C362.1,155.9,362.5,156,362.5,155.7z"/>
			<path class="st2" d="M366.6,158.4c0.6-0.5,1.1-1.2,1.5-1.9s0.4-1.6,0-2.3c-0.1-0.2-0.3-0.3-0.5-0.4c-0.3,0-0.5,0.1-0.7,0.2
				c-0.6,0.3-1.1,0.8-1.5,1.3c-0.4,0.6-0.4,1.3,0,1.9c0-1-0.8-1.8-1.8-1.8s-1.8,0.8-1.8,1.8c0,0.6,0.3,1.2,0.9,1.6
				c1.1,0.7,2.5,0.1,3.6-0.6c-0.8,0.5-1.1,1.6-0.6,2.4c0,0.1,0.1,0.1,0.1,0.2c0.3,0.3,0.8,0.4,1.2,0.4c1,0.1,2-0.5,2.4-1.5
				c0.2-1-0.9-2.1-1.8-1.6L366.6,158.4z"/>
			<path class="st24" d="M366.8,158.6c0.9-0.8,1.6-1.8,1.8-3c0-0.7-0.2-1.8-1-1.9s-1.8,0.8-2.3,1.3c-0.7,0.7-0.8,1.7-0.3,2.5
				c0.1,0.2,0.5,0.1,0.4-0.1c-0.2-1.9-2.9-2.9-3.8-0.9c-0.4,0.9-0.2,2,0.7,2.6c1.2,0.8,2.8,0.1,3.9-0.5l-0.3-0.4
				c-0.8,0.7-1.4,2-0.5,2.9s2.5,0.5,3.3-0.2c0.8-0.6,0.9-1.6,0.4-2.4l-0.1-0.1c-0.7-0.8-1.6-0.4-2.5-0.2c-0.1,0-0.2,0.2-0.1,0.3
				c0,0.1,0.2,0.2,0.3,0.1c0.5-0.1,1.9-0.7,2.1,0.3l-0.6,1.8c-0.4,0.2-0.9,0.4-1.4,0.4l-1.4-1.1c0-0.6,0.3-1.1,0.8-1.4
				c0.2-0.2-0.1-0.5-0.3-0.4c-0.5,0.3-1,0.5-1.5,0.7c-0.9,0.1-2.2,0-2.5-1c-0.3-0.8,0.2-1.7,1-1.9c0.8-0.3,1.7,0.2,1.9,1
				c0.1,0.2,0.1,0.4,0.1,0.6l0.4-0.1v-1.8c0.2-0.3,0.5-0.6,0.8-0.8c0.6-0.4,1.5-1.2,1.8,0.6c0.2,1.1-1,2.2-1.7,2.9
				C366.2,158.5,366.6,158.8,366.8,158.6z"/>
			<path class="st2" d="M360.5,153.5c0.1-0.6,0.1-1.3,0.1-1.9c-0.1-0.6-0.5-1.2-1.1-1.5c-0.2-0.1-0.3-0.1-0.5,0s-0.3,0.3-0.4,0.5
				c-0.2,0.5-0.4,1-0.4,1.6s0.4,1.1,0.9,1.3c-0.5-0.7-1.4-0.8-2.1-0.3s-0.8,1.4-0.3,2.1c0.3,0.4,0.8,0.6,1.3,0.6
				c1-0.1,1.6-1.1,2.1-2.1c-0.3,0.8,0.1,1.8,0.9,1.9c0.4,0,0.7-0.1,1-0.3c0.7-0.4,1.1-1.3,0.8-2.1c-0.3-0.8-1.6-0.9-1.9-0.2
				L360.5,153.5z"/>
			<path class="st24" d="M360.6,153.5c0.3-1,0.2-2.1-0.3-3c-0.3-0.4-0.9-0.9-1.5-0.7s-0.8,1.4-0.9,1.9c-0.1,0.8,0.3,1.6,1,1.9
				c0.1,0.1,0.2,0,0.3-0.1c0-0.1,0-0.2,0-0.2c-1.1-1.2-3.5-0.3-2.9,1.5c0.2,0.7,0.9,1.2,1.7,1.2c1.1-0.1,1.8-1.3,2.2-2.2l-0.4-0.1
				c-0.2,0.8,0,2,1.1,2.1c1,0,1.8-0.7,2.1-1.6c0.3-0.7-0.1-1.5-0.8-1.8h-0.1c-0.9-0.3-1.3,0.4-1.8,1
				C360.2,153.5,360.5,153.8,360.6,153.5c0.1-0.2,0.3-0.3,0.4-0.5l1-0.3l0.5,1.7c-0.2,0.7-0.7,0.8-1.4,0.4c-0.9,0.2-1.2-0.2-0.9-1
				c0-0.2-0.2-0.4-0.4-0.1c-0.1,0.3-0.3,0.6-0.5,0.9c-0.5,0.7-0.9,1.1-1.7,0.8c-0.4,0.1-0.7-0.1-0.8-0.5l0,0c-0.4-0.5-0.3-1,0.3-1.6
				c0.6-0.3,1.3-0.2,1.7,0.3l0.2-0.3c-1.4-0.6-0.7-3.4,0.6-2.7c0.9,0.5,0.6,2.1,0.5,2.9C360.2,153.7,360.6,153.8,360.6,153.5z"/>
			<line class="st26" x1="349.5" y1="165.9" x2="353.5" y2="200.7"/>
			<line class="st26" x1="352.6" y1="162.9" x2="356.4" y2="200.7"/>
			<line class="st26" x1="356.6" y1="162.4" x2="358.5" y2="200.7"/>
			<line class="st26" x1="359.5" y1="162.2" x2="360.5" y2="200.7"/>
			<circle class="st24" cx="360.2" cy="180.7" r="10.3"/>
			<line class="st26" x1="363.7" y1="161.8" x2="363.6" y2="200.7"/>
			<line class="st26" x1="366.5" y1="161.7" x2="365.5" y2="200.7"/>
			<line class="st26" x1="369.3" y1="162.2" x2="367.9" y2="200.7"/>
			<path class="st2" d="M351.7,178h2.6c1.6,0,2.6,0.7,2.6,2.1l0,0c0,1.4-1.1,2.2-2.7,2.2h-0.6v1.6h-2L351.7,178z M354.2,180.9
				c0.5,0,0.8-0.2,0.8-0.6l0,0c0-0.4-0.3-0.6-0.8-0.6h-0.5v1.3L354.2,180.9z"/>
			<path class="st2" d="M357.3,181L357.3,181c0.1-1.8,1.6-3.1,3.4-3c1.6,0.1,2.9,1.4,3,3l0,0c-0.1,1.8-1.6,3.1-3.4,3
				C358.7,183.9,357.4,182.6,357.3,181z M361.7,181L361.7,181c0-0.7-0.5-1.3-1.2-1.3c0,0,0,0-0.1,0c-0.7,0-1.2,0.6-1.2,1.2
				c0,0,0,0,0,0.1l0,0c0,0.7,0.5,1.3,1.2,1.3c0,0,0,0,0.1,0C361.1,182.3,361.7,181.7,361.7,181L361.7,181z"/>
			<path class="st2" d="M364.2,178h2.6c1.6,0,2.6,0.7,2.6,2.1l0,0c0,1.4-1.1,2.2-2.7,2.2h-0.6v1.6h-2L364.2,178z M366.7,180.9
				c0.5,0,0.8-0.2,0.8-0.6l0,0c0-0.4-0.3-0.6-0.8-0.6h-0.5v1.3L366.7,180.9z"/>
			<line class="st26" x1="373" y1="161.1" x2="369.4" y2="200.7"/>
			<line class="st26" x1="347" y1="164.3" x2="351.1" y2="200.7"/>
			<path class="st2" d="M347.7,150.7c0.1-0.6,0.1-1.3,0.1-1.9c-0.1-0.6-0.5-1.2-1.1-1.5c-0.2-0.1-0.3-0.1-0.5,0s-0.3,0.3-0.4,0.5
				c-0.2,0.5-0.4,1-0.4,1.6s0.4,1.1,0.9,1.3c-0.5-0.7-1.4-0.8-2.1-0.3s-0.8,1.4-0.3,2.1c0.3,0.4,0.8,0.6,1.3,0.6
				c1-0.1,1.6-1.1,2.1-2.1c-0.3,0.8,0.1,1.8,0.9,1.9c0.4,0,0.7-0.1,1-0.3c0.7-0.4,1.1-1.3,0.8-2.1c-0.3-0.8-1.6-0.9-1.9-0.2
				L347.7,150.7z"/>
			<path class="st24" d="M347.9,150.8c0.3-1,0.2-2.1-0.3-3c-0.3-0.4-0.9-0.9-1.5-0.7s-0.8,1.4-0.9,1.9c-0.1,0.8,0.3,1.6,1,1.9
				c0.1,0.1,0.2,0,0.3-0.1c0-0.1,0-0.2,0-0.2c-1.1-1.2-3.5-0.3-2.9,1.5c0.2,0.7,0.9,1.2,1.7,1.2c1.1-0.1,1.8-1.3,2.2-2.2l-0.4-0.1
				c-0.2,0.8,0,2,1.1,2.1c1,0,1.8-0.7,2.1-1.6c0.3-0.7-0.1-1.5-0.8-1.8h-0.1c-0.9-0.3-1.3,0.4-1.8,1
				C347.4,150.8,347.7,151.1,347.9,150.8c0.1-0.2,0.3-0.3,0.4-0.5l1-0.3l0.5,1.7c-0.2,0.7-0.7,0.8-1.4,0.4c-0.9,0.2-1.2-0.2-0.9-1
				c0-0.2-0.2-0.4-0.4-0.1c-0.1,0.3-0.3,0.6-0.5,0.9c-0.5,0.7-0.9,1.1-1.7,0.8c-0.4,0.1-0.7-0.1-0.8-0.5l0,0c-0.4-0.5-0.3-1,0.3-1.6
				c0.6-0.3,1.3-0.2,1.7,0.3l0.2-0.3c-1.4-0.6-0.7-3.4,0.6-2.7c0.9,0.5,0.6,2.1,0.5,2.9C347.5,150.9,347.8,151,347.9,150.8z"/>
			<path class="st2" d="M355,147.4c0.6-0.2,1.1-0.6,1.6-1c0.5-0.5,0.7-1.1,0.6-1.8c0-0.2-0.1-0.3-0.3-0.4c-0.2-0.1-0.4-0.1-0.6,0
				c-0.5,0.1-1.1,0.3-1.5,0.6c-0.5,0.3-0.7,0.9-0.5,1.4c0.3-0.8-0.1-1.6-0.9-1.9c-0.8-0.3-1.6,0.1-1.9,0.9c-0.2,0.5-0.1,1,0.3,1.4
				c0.6,0.8,1.9,0.7,2.9,0.5c-0.8,0.2-1.4,1.1-1,1.8c0.2,0.3,0.5,0.5,0.8,0.6c0.8,0.3,1.7,0.1,2.2-0.5c0.5-0.7-0.1-1.9-1-1.7
				L355,147.4z"/>
			<path class="st24" d="M355,147.6c1-0.3,1.7-1,2.2-1.9c0.2-0.5,0.2-1.3-0.3-1.6s-1.9,0.2-2.4,0.6c-0.5,0.4-0.8,1-0.6,1.7
				c0,0.1,0.1,0.2,0.2,0.1c0.1,0,0.1-0.1,0.1-0.1c0.4-1.7-1.8-3.1-2.9-1.4c-0.5,0.6-0.4,1.5,0.1,2.1c0.8,0.8,2,0.6,3,0.5l-0.1-0.4
				c-0.8,0.3-1.6,1.2-1.2,2.1c0.5,0.8,1.5,1.1,2.4,0.8c0.8-0.2,1.3-0.9,1.1-1.7c0-0.1,0-0.1,0-0.2c-0.3-0.9-1.1-0.8-1.9-0.9
				C354.7,147.2,354.7,147.6,355,147.6c0.7,0,2.3,0.4,1.2,1.6c-0.4,0.4-1,0.5-1.6,0.4c-1.4-0.3-1.2-1.7-0.1-2.2
				c0.1,0,0.2-0.1,0.1-0.2c0-0.1-0.1-0.2-0.2-0.1l0,0c-1,0.2-2.7,0.4-2.9-1c-0.1-0.6,0.2-1.2,0.8-1.3h0.1c0.6-0.2,1.3,0.2,1.5,0.8
				c0.1,0.2,0.1,0.5,0,0.7h0.4c-0.2-0.9,0.6-1.4,1.3-1.6l0.6-0.2c0.7,0,0.9,0.3,0.6,0.8c-0.2,1.1-1.1,1.6-2,2
				C354.6,147.4,354.8,147.7,355,147.6z"/>
			<path class="st2" d="M339,171.3c0.1-0.6,0.1-1.3,0.1-1.9c-0.1-0.6-0.5-1.2-1.1-1.5c-0.2-0.1-0.3-0.1-0.5,0s-0.3,0.3-0.4,0.5
				c-0.2,0.5-0.4,1-0.4,1.6s0.4,1.1,0.9,1.3c-0.5-0.7-1.4-0.8-2.1-0.3s-0.8,1.4-0.3,2.1c0.3,0.4,0.8,0.6,1.3,0.6
				c1-0.1,1.6-1.1,2.1-2.1c-0.3,0.8,0.1,1.8,0.9,1.9c0.4,0,0.7-0.1,1-0.3c0.7-0.4,1.1-1.3,0.8-2.1c-0.3-0.8-1.6-0.9-1.9-0.2
				L339,171.3z"/>
			<path class="st24" d="M339.1,171.3c0.3-1,0.2-2.1-0.3-3c-0.3-0.4-0.9-0.9-1.5-0.7s-0.8,1.4-0.9,1.9c-0.1,0.8,0.3,1.6,1,1.9
				c0.1,0.1,0.2,0,0.3-0.1c0-0.1,0-0.2,0-0.2c-1.1-1.2-3.5-0.3-2.9,1.5c0.2,0.7,0.9,1.2,1.7,1.2c1.1-0.1,1.8-1.3,2.2-2.2l-0.4-0.1
				c-0.2,0.8,0,2,1.1,2.1c1,0,1.8-0.7,2.1-1.6c0.3-0.7-0.1-1.5-0.8-1.8h-0.1c-0.9-0.3-1.3,0.4-1.8,1
				C338.7,171.3,339,171.6,339.1,171.3c0.1-0.2,0.3-0.3,0.4-0.5l1-0.3l0.5,1.7c-0.2,0.7-0.7,0.8-1.4,0.4c-0.9,0.2-1.2-0.2-0.9-1
				c0-0.2-0.2-0.4-0.4-0.1c-0.1,0.3-0.3,0.6-0.5,0.9c-0.5,0.7-0.9,1.1-1.7,0.8c-0.4,0.1-0.7-0.1-0.8-0.5l0,0c-0.4-0.5-0.3-1,0.3-1.6
				c0.6-0.3,1.3-0.2,1.7,0.3l0.2-0.3c-1.4-0.6-0.7-3.4,0.6-2.7c0.9,0.5,0.6,2.1,0.5,2.9C338.7,171.5,339.1,171.6,339.1,171.3z"/>
			<path class="st2" d="M351.9,202.2c0.2-0.8,0.2-1.6,0.1-2.4c-0.1-0.8-0.7-1.5-1.4-1.9c-0.2-0.1-0.4-0.1-0.6,0
				c-0.2,0.2-0.4,0.4-0.5,0.6c-0.3,0.6-0.5,1.3-0.5,2s0.5,1.4,1.1,1.6c-0.6-0.8-1.8-1-2.6-0.4c-0.8,0.6-1,1.8-0.4,2.6
				c0.4,0.5,1,0.8,1.6,0.7c1.3-0.1,2.1-1.5,2.6-2.6c-0.4,1,0.2,2.3,1.2,2.4c0.4,0,0.9-0.1,1.2-0.4c0.9-0.6,1.4-1.7,1.1-2.7
				c-0.4-1-2-1.2-2.5-0.2L351.9,202.2z"/>
			<path class="st24" d="M352.1,202.3c0.2-1.2,0.4-2.7-0.4-3.8c-0.4-0.5-1.1-1.2-1.9-0.9s-1,1.8-1.1,2.4c-0.2,1,0.3,2,1.2,2.4
				c0.1,0.1,0.3,0,0.3-0.1s0-0.2,0-0.3c-1.4-1.6-4.4-0.4-3.6,1.9c0.3,0.9,1.2,1.6,2.1,1.5c1.5-0.1,2.3-1.6,2.8-2.8l-0.5-0.2
				c-0.3,1.1,0.1,2.5,1.4,2.7c1.2,0,2.3-0.8,2.6-2c0.4-0.9-0.1-2-1-2.3h-0.1c-1.2-0.4-1.7,0.5-2.3,1.3c-0.2,0.2,0.1,0.6,0.4,0.4
				c0.2-0.3,0.3-0.5,0.6-0.7l1.3-0.4l0.6,2.1c-0.3,0.8-0.9,1-1.7,0.5c-1.2,0.2-1.5-0.2-1.1-1.2c0.1-0.3-0.3-0.4-0.5-0.2
				c-0.2,0.4-0.4,0.8-0.6,1.2c-0.6,0.9-1.1,1.3-2.2,1.1c-0.5,0.1-0.9-0.2-1-0.6c-0.5-0.6-0.4-1.3,0.4-2c0.7-0.4,1.7-0.2,2.2,0.4
				l0.3-0.4c-1.8-0.8-0.8-4.4,0.8-3.5c1.1,0.6,0.7,2.7,0.6,3.6C351.6,202.5,352.1,202.6,352.1,202.3z"/>
			<path class="st2" d="M357,206.3c0.8,0.2,1.6,0.2,2.4,0.1c0.8-0.1,1.5-0.7,1.9-1.4c0.1-0.2,0.1-0.4,0-0.6
				c-0.2-0.2-0.4-0.4-0.6-0.5c-0.6-0.3-1.3-0.5-2-0.5s-1.4,0.5-1.6,1.1c0.8-0.6,1-1.8,0.4-2.6s-1.8-1-2.6-0.4
				c-0.5,0.4-0.8,1-0.7,1.6c0.1,1.3,1.5,2.1,2.6,2.6c-1-0.4-2.3,0.2-2.4,1.2c0,0.4,0.1,0.9,0.4,1.2c0.6,0.9,1.7,1.4,2.7,1.1
				c1-0.4,1.2-2,0.2-2.4L357,206.3z"/>
			<path class="st24" d="M356.9,206.5c1.2,0.2,2.7,0.4,3.8-0.4c0.5-0.4,1.2-1.1,0.9-1.9s-1.8-1-2.4-1.1c-1-0.2-2,0.3-2.4,1.2
				c-0.1,0.1,0,0.3,0.1,0.3s0.2,0,0.3,0c1.5-1.4,0.4-4.4-1.9-3.6c-0.9,0.3-1.6,1.2-1.5,2.1c0.1,1.4,1.6,2.3,2.8,2.8l0.2-0.4
				c-1.1-0.3-2.5,0.1-2.7,1.4c0,1.2,0.8,2.3,2,2.6c0.9,0.4,2-0.1,2.3-1v-0.1c0.4-1.2-0.5-1.7-1.3-2.3c-0.2-0.2-0.6,0.1-0.4,0.4
				c0.3,0.2,0.5,0.3,0.7,0.6l0.4,1.3l-2.1,0.6c-0.8-0.3-1-0.9-0.5-1.7c-0.2-1.2,0.2-1.5,1.2-1.1c0.3,0.1,0.5-0.3,0.2-0.4
				c-0.4-0.2-0.8-0.4-1.2-0.6c-0.9-0.6-1.3-1.1-1.1-2.2c-0.1-0.5,0.2-0.9,0.6-1c0.6-0.5,1.3-0.4,2,0.4c0.4,0.7,0.2,1.7-0.4,2.2
				l0.4,0.3c0.8-1.8,4.4-0.8,3.5,0.8c-0.6,1.1-2.7,0.7-3.6,0.6C356.8,206,356.6,206.5,356.9,206.5z"/>
		</g>
		<g id="veg">
			<circle class="st24" cx="884.1" cy="287.5" r="35.2"/>
			<path class="st2" d="M864.5,275.3c2.3,0,4.5,0,6.7,0c0.3,0,0.7,0.6,0.8,0.9c3,7.9,6,15.8,8.9,23.8c0,0.2,0.1,0.4,0.2,0.5
				c0.2,0.2,0.4,0.4,0.6,0.6c0.2-0.2,0.5-0.4,0.6-0.6c0.6-1.4,1-2.9,1.4-4.4c0.3-1.3,1.2-2.3,2.5-2.7c2.5-1,4.8-2.5,6.7-4.4
				c2.3-2.4,3.7-5.5,4-8.8c0.4-3.6,0.7-7.2,1.1-10.9l-3,4.4l-2.4-1.4l-0.3,0.1c2.4,1.5,2.5,3.3,1,5.4c-1.6-1-3-2.5-5.1-2.9
				c1.3,1.3,2.5,2.5,3.8,3.6c0.7,0.5,0.9,1.5,0.4,2.2c-0.3,0.7-0.6,1.4-0.9,2.1l-5.3-3.2L886,280c1.8,1.1,3.2,2.8,4.1,4.7l-7.8,4.4
				c-2.1-11,6.6-21.9,17.4-21.6c0.3,5,0.9,10.1,0.9,15.1c0,3.9-1.8,7.3-4.6,10c-1.6,1.6-3.6,2.9-5.3,4.5c-0.6,0.5-1.1,1.1-1.5,1.8
				c-1.1,2.5-2.2,5.1-3.2,7.6c-0.1,0.6-0.7,1.1-1.4,1c-1.8-0.1-3.6,0-5.4,0c-0.4,0-0.8-0.3-1.1-0.6c-4.5-10.4-9-20.7-13.5-31.1
				C864.5,275.6,864.5,275.5,864.5,275.3z"/>
		</g>
	</g>
</g>
</svg>
